# VPXTOOL table OBJ file
# VPXTOOL OBJ file
# numVerts: 626 numFaces: 312
o KickerUpperPrimitive
v 0.4435 -0.005538 0.080262
v 0.438615 -0.005538 0.117527
v 0.299542 -0.116291 0.080262
v 0.227044 -0.005538 0.393251
v 0.117527 -0.005538 0.438615
v 0.155054 -0.116291 0.268562
v 0.080262 -0.116291 0.299542
v 0 -0.116291 0.310109
v 0.080262 -0.116291 0.299542
v 0 -0.005538 0.454088
v 0.117527 -0.005538 0.438615
v -0.080262 -0.116291 0.299542
v 0 -0.116291 0.310109
v -0.117527 -0.005538 0.438615
v 0 -0.005538 0.454088
v -0.155054 -0.116291 0.268562
v -0.080262 -0.116291 0.299542
v -0.227044 -0.005538 0.393251
v -0.117527 -0.005538 0.438615
v -0.21928 -0.116291 0.21928
v -0.155054 -0.116291 0.268562
v -0.321089 -0.005538 0.321088
v -0.227044 -0.005538 0.393251
v -0.268562 -0.116291 0.155054
v -0.21928 -0.116291 0.21928
v -0.393252 -0.005538 0.227044
v -0.321089 -0.005538 0.321088
v -0.299542 -0.116291 0.080262
v -0.268562 -0.116291 0.155054
v -0.438615 -0.005538 0.117527
v -0.393252 -0.005538 0.227044
v -0.310109 -0.116291 -0
v -0.299542 -0.116291 0.080262
v -0.454088 -0.005538 -0
v -0.438615 -0.005538 0.117527
v -0.299542 -0.116291 -0.080262
v -0.310109 -0.116291 -0
v -0.438615 -0.005538 -0.117527
v -0.454088 -0.005538 -0
v -0.268562 -0.116291 -0.155054
v -0.299542 -0.116291 -0.080262
v -0.393252 -0.005538 -0.227044
v -0.438615 -0.005538 -0.117527
v -0.21928 -0.116291 -0.21928
v -0.268562 -0.116291 -0.155054
v -0.321089 -0.005538 -0.321088
v -0.393252 -0.005538 -0.227044
v -0.155054 -0.116291 -0.268562
v -0.21928 -0.116291 -0.21928
v -0.227044 -0.005538 -0.393252
v -0.321089 -0.005538 -0.321088
v -0.080262 -0.116291 -0.299542
v -0.155054 -0.116291 -0.268562
v -0.117527 -0.005538 -0.438615
v -0.227044 -0.005538 -0.393252
v 0 -0.116291 -0.310109
v -0.080262 -0.116291 -0.299542
v 0 -0.005538 -0.454088
v -0.117527 -0.005538 -0.438615
v 0 -0.271345 -0.310109
v 0 -0.116291 -0.310109
v 0.080262 -0.116291 -0.299542
v 0.080262 -0.271345 -0.299542
v 0.080262 -0.271345 -0.299542
v 0.080262 -0.116291 -0.299542
v 0.155054 -0.116291 -0.268562
v 0.155054 -0.271345 -0.268562
v 0.155054 -0.271345 -0.268562
v 0.155054 -0.116291 -0.268562
v 0.21928 -0.116291 -0.21928
v 0.21928 -0.271345 -0.21928
v 0.21928 -0.271345 -0.21928
v 0.21928 -0.116291 -0.21928
v 0.268562 -0.116291 -0.155054
v 0.268562 -0.271345 -0.155054
v 0.268562 -0.271345 -0.155054
v 0.268562 -0.116291 -0.155054
v 0.299542 -0.116291 -0.080262
v 0.299542 -0.271345 -0.080262
v 0.299542 -0.271345 0.080262
v 0.299542 -0.116291 0.080262
v 0.268562 -0.116291 0.155054
v 0.268562 -0.271345 0.155054
v 0.268562 -0.271345 0.155054
v 0.268562 -0.116291 0.155054
v 0.21928 -0.116291 0.21928
v 0.21928 -0.271345 0.21928
v 0.21928 -0.271345 0.21928
v 0.21928 -0.116291 0.21928
v 0.155054 -0.116291 0.268562
v 0.155054 -0.271345 0.268562
v 0.155054 -0.271345 0.268562
v 0.155054 -0.116291 0.268562
v 0.080262 -0.116291 0.299542
v 0.080262 -0.271345 0.299542
v 0.080262 -0.271345 0.299542
v 0.080262 -0.116291 0.299542
v 0 -0.116291 0.310109
v 0 -0.271345 0.310109
v 0 -0.271345 0.310109
v 0 -0.116291 0.310109
v -0.080262 -0.116291 0.299542
v -0.080262 -0.271345 0.299542
v -0.080262 -0.271345 0.299542
v -0.080262 -0.116291 0.299542
v -0.155054 -0.116291 0.268562
v -0.155054 -0.271345 0.268562
v -0.155054 -0.271345 0.268562
v -0.155054 -0.116291 0.268562
v -0.21928 -0.116291 0.21928
v -0.21928 -0.271345 0.21928
v -0.21928 -0.271345 0.21928
v -0.21928 -0.116291 0.21928
v -0.268562 -0.116291 0.155054
v -0.268562 -0.271345 0.155054
v -0.268562 -0.271345 0.155054
v -0.268562 -0.116291 0.155054
v -0.299542 -0.116291 0.080262
v -0.299542 -0.271345 0.080262
v -0.299542 -0.271345 0.080262
v -0.299542 -0.116291 0.080262
v -0.310109 -0.116291 -0
v -0.310109 -0.271345 -0
v -0.310109 -0.271345 -0
v -0.310109 -0.116291 -0
v -0.299542 -0.116291 -0.080262
v -0.299542 -0.271345 -0.080262
v -0.299542 -0.271345 -0.080262
v -0.299542 -0.116291 -0.080262
v -0.268562 -0.116291 -0.155054
v -0.268562 -0.271345 -0.155054
v -0.268562 -0.271345 -0.155054
v -0.268562 -0.116291 -0.155054
v -0.21928 -0.116291 -0.21928
v -0.21928 -0.271345 -0.21928
v -0.21928 -0.271345 -0.21928
v -0.21928 -0.116291 -0.21928
v -0.155054 -0.116291 -0.268562
v -0.155054 -0.271345 -0.268562
v -0.155054 -0.271345 -0.268562
v -0.155054 -0.116291 -0.268562
v -0.080262 -0.116291 -0.299542
v -0.080262 -0.271345 -0.299542
v -0.080262 -0.271345 -0.299542
v -0.080262 -0.116291 -0.299542
v 0 -0.116291 -0.310109
v 0 -0.271345 -0.310109
v 0.483631 -0.293496 -0.069509
v 0.4435 -0.293496 -0.080262
v 0.483631 -0.005538 -0.069509
v 0.4435 -0.005538 -0.080262
v 0.513008 -0.293496 -0.040131
v 0.483631 -0.293496 -0.069509
v 0.513008 -0.005538 -0.040131
v 0.483631 -0.005538 -0.069509
v 0.523762 -0.293496 -0
v 0.513008 -0.293496 -0.040131
v 0.523762 -0.005538 -0
v 0.513008 -0.005538 -0.040131
v 0.513008 -0.293496 0.040131
v 0.523762 -0.293496 -0
v 0.513008 -0.005538 0.040131
v 0.523762 -0.005538 -0
v 0.483631 -0.293496 0.069509
v 0.513008 -0.293496 0.040131
v 0.483631 -0.005538 0.069509
v 0.513008 -0.005538 0.040131
v 0.4435 -0.293496 0.080262
v 0.483631 -0.293496 0.069509
v 0.4435 -0.005538 0.080262
v 0.483631 -0.005538 0.069509
v 0.4435 -0.293496 -0.080262
v 0.299542 -0.116291 -0.080262
v 0.4435 -0.005538 -0.080262
v 0.299542 -0.271345 -0.080262
v 0.299542 -0.293496 -0.080262
v 0.299542 -0.116291 0.080262
v 0.4435 -0.293496 0.080262
v 0.4435 -0.005538 0.080262
v 0.299542 -0.271345 0.080262
v 0.299542 -0.293496 0.080262
v 0.299542 -0.116291 -0.080262
v 0.438615 -0.005538 -0.117527
v 0.4435 -0.005538 -0.080262
v 0.299542 -0.271345 0.080262
v 0.268562 -0.271345 0.155054
v 0.110753 -0.271345 0.106323
v 0.21928 -0.271345 0.21928
v 0.155054 -0.271345 0.268562
v 0.080262 -0.271345 0.299542
v 0 -0.271345 0.310109
v -0.080262 -0.271345 0.299542
v -0.155054 -0.271345 0.268562
v 0.057592 -0.271345 0.092078
v -0.21928 -0.271345 0.21928
v -0.268562 -0.271345 0.155054
v 0.018675 -0.271345 0.053161
v -0.299542 -0.271345 0.080262
v 0.00443 -0.271345 -0
v -0.310109 -0.271345 -0
v -0.299542 -0.271345 -0.080262
v 0.018675 -0.271345 -0.053161
v -0.268562 -0.271345 -0.155054
v 0.057592 -0.271345 -0.092078
v -0.21928 -0.271345 -0.21928
v -0.155054 -0.271345 -0.268562
v 0.110753 -0.271345 -0.106323
v -0.080262 -0.271345 -0.299542
v 0 -0.271345 -0.310109
v 0.080262 -0.271345 -0.299542
v 0.155054 -0.271345 -0.268562
v 0.21928 -0.271345 -0.21928
v 0.268562 -0.271345 -0.155054
v 0.299542 -0.271345 -0.080262
v 0.299542 -0.293496 0.080262
v 0.299542 -0.271345 0.080262
v 0.110753 -0.271345 0.106323
v 0.110753 -0.293496 0.106323
v 0.110753 -0.293496 -0.106323
v 0.110753 -0.271345 -0.106323
v 0.299542 -0.271345 -0.080262
v 0.299542 -0.293496 -0.080262
v 0.110753 -0.293496 0.106323
v 0.110753 -0.271345 0.106323
v 0.057592 -0.271345 0.092078
v 0.057592 -0.293496 0.092078
v 0.057592 -0.293496 0.092078
v 0.057592 -0.271345 0.092078
v 0.018675 -0.271345 0.053161
v 0.018675 -0.293496 0.053161
v 0.018675 -0.293496 0.053161
v 0.018675 -0.271345 0.053161
v 0.00443 -0.271345 -0
v 0.00443 -0.293496 -0
v 0.00443 -0.293496 -0
v 0.00443 -0.271345 -0
v 0.018675 -0.271345 -0.053161
v 0.018675 -0.293496 -0.053161
v 0.018675 -0.293496 -0.053161
v 0.018675 -0.271345 -0.053161
v 0.057592 -0.271345 -0.092078
v 0.057592 -0.293496 -0.092078
v 0.057592 -0.293496 -0.092078
v 0.057592 -0.271345 -0.092078
v 0.110753 -0.271345 -0.106323
v 0.110753 -0.293496 -0.106323
v 0.120393 0 -0.449313
v 0.117527 -0.005538 -0.438615
v 0 -0.005538 -0.454088
v 0 0 -0.465163
v 0.232582 0 -0.402843
v 0.227044 -0.005538 -0.393252
v 0.117527 -0.005538 -0.438615
v 0.120393 0 -0.449313
v 0.32892 0 -0.32892
v 0.321088 -0.005538 -0.321088
v 0.227044 -0.005538 -0.393252
v 0.227044 -0.005538 -0.393252
v 0.232582 0 -0.402843
v 0.32892 0 -0.32892
v 0.402843 0 -0.232582
v 0.393252 -0.005538 -0.227044
v 0.321088 -0.005538 -0.321088
v 0.321088 -0.005538 -0.321088
v 0.32892 0 -0.32892
v 0.402843 0 -0.232582
v 0.449313 0 -0.120393
v 0.438615 -0.005538 -0.117527
v 0.393252 -0.005538 -0.227044
v 0.402843 0 -0.232582
v 0.402843 -0 0.232581
v 0.393252 -0.005538 0.227044
v 0.438615 -0.005538 0.117527
v 0.438615 -0.005538 0.117527
v 0.449313 -0 0.120393
v 0.402843 -0 0.232581
v 0.32892 -0 0.32892
v 0.321088 -0.005538 0.321088
v 0.393252 -0.005538 0.227044
v 0.393252 -0.005538 0.227044
v 0.402843 -0 0.232581
v 0.32892 -0 0.32892
v 0.232582 -0 0.402843
v 0.227044 -0.005538 0.393251
v 0.321088 -0.005538 0.321088
v 0.32892 -0 0.32892
v 0.120393 -0 0.449313
v 0.117527 -0.005538 0.438615
v 0.227044 -0.005538 0.393251
v 0.232582 -0 0.402843
v 0 -0 0.465163
v 0 -0.005538 0.454088
v 0.117527 -0.005538 0.438615
v 0.120393 -0 0.449313
v -0.120393 -0 0.449313
v -0.117527 -0.005538 0.438615
v 0 -0.005538 0.454088
v 0 -0 0.465163
v -0.232582 -0 0.402843
v -0.227044 -0.005538 0.393251
v -0.117527 -0.005538 0.438615
v -0.120393 -0 0.449313
v -0.32892 -0 0.32892
v -0.321089 -0.005538 0.321088
v -0.227044 -0.005538 0.393251
v -0.227044 -0.005538 0.393251
v -0.232582 -0 0.402843
v -0.32892 -0 0.32892
v -0.402843 -0 0.232581
v -0.393252 -0.005538 0.227044
v -0.321089 -0.005538 0.321088
v -0.321089 -0.005538 0.321088
v -0.32892 -0 0.32892
v -0.402843 -0 0.232581
v -0.449313 -0 0.120393
v -0.438615 -0.005538 0.117527
v -0.393252 -0.005538 0.227044
v -0.393252 -0.005538 0.227044
v -0.402843 -0 0.232581
v -0.449313 -0 0.120393
v -0.465163 0 0
v -0.454088 -0.005538 -0
v -0.438615 -0.005538 0.117527
v -0.449313 -0 0.120393
v -0.449313 0 -0.120393
v -0.438615 -0.005538 -0.117527
v -0.454088 -0.005538 -0
v -0.465163 0 0
v -0.402843 0 -0.232582
v -0.393252 -0.005538 -0.227044
v -0.438615 -0.005538 -0.117527
v -0.449313 0 -0.120393
v -0.32892 0 -0.32892
v -0.321089 -0.005538 -0.321088
v -0.393252 -0.005538 -0.227044
v -0.402843 0 -0.232582
v -0.232582 0 -0.402843
v -0.227044 -0.005538 -0.393252
v -0.321089 -0.005538 -0.321088
v -0.32892 0 -0.32892
v -0.120393 0 -0.449313
v -0.117527 -0.005538 -0.438615
v -0.227044 -0.005538 -0.393252
v -0.232582 0 -0.402843
v 0 0 -0.465163
v 0 -0.005538 -0.454088
v -0.117527 -0.005538 -0.438615
v -0.120393 0 -0.449313
v 0.449313 -0 0.120393
v 0.438615 -0.005538 0.117527
v 0.4435 -0.005538 0.080262
v 0.438615 -0.005538 -0.117527
v 0.453474 0 -0.088665
v 0.4435 -0.005538 -0.080262
v 0.489168 0 -0.0791
v 0.483631 -0.005538 -0.069509
v 0.4435 -0.005538 -0.080262
v 0.5226 0 -0.045669
v 0.513008 -0.005538 -0.040131
v 0.483631 -0.005538 -0.069509
v 0.483631 -0.005538 -0.069509
v 0.489168 0 -0.0791
v 0.5226 0 -0.045669
v 0.534837 0 0
v 0.523762 -0.005538 -0
v 0.513008 -0.005538 -0.040131
v 0.513008 -0.005538 -0.040131
v 0.5226 0 -0.045669
v 0.534837 0 0
v 0.5226 -0 0.045669
v 0.513008 -0.005538 0.040131
v 0.523762 -0.005538 -0
v 0.523762 -0.005538 -0
v 0.534837 0 0
v 0.5226 -0 0.045669
v 0.489168 -0 0.0791
v 0.483631 -0.005538 0.069509
v 0.513008 -0.005538 0.040131
v 0.513008 -0.005538 0.040131
v 0.5226 -0 0.045669
v 0.489168 -0 0.0791
v 0.4435 -0.005538 0.080262
v 0.453474 -0 0.088665
v 0.449313 -0 0.120393
v 0.453474 -0 0.088665
v 0.4435 -0.005538 0.080262
v 0.483631 -0.005538 0.069509
v 0.489168 -0 0.0791
v 0.449313 0 -0.120393
v 0.453474 0 -0.088665
v 0.438615 -0.005538 -0.117527
v 0.453474 0 -0.088665
v 0.489168 0 -0.0791
v 0.4435 -0.005538 -0.080262
v 0.4435 -0.736508 -0.080262
v 0.4435 -0.293496 -0.080262
v 0.483631 -0.293496 -0.069509
v 0.483631 -0.736508 -0.069509
v 0.483631 -0.736508 -0.069509
v 0.483631 -0.293496 -0.069509
v 0.513008 -0.293496 -0.040131
v 0.513008 -0.736508 -0.040131
v 0.513008 -0.736508 -0.040131
v 0.513008 -0.293496 -0.040131
v 0.523762 -0.293496 -0
v 0.523762 -0.736508 -0
v 0.523762 -0.736508 -0
v 0.523762 -0.293496 -0
v 0.513008 -0.293496 0.040131
v 0.513008 -0.736508 0.040131
v 0.513008 -0.736508 0.040131
v 0.513008 -0.293496 0.040131
v 0.483631 -0.293496 0.069509
v 0.483631 -0.736508 0.069509
v 0.483631 -0.736508 0.069509
v 0.483631 -0.293496 0.069509
v 0.4435 -0.293496 0.080262
v 0.4435 -0.736508 0.080262
v 0.299542 -0.736508 0.080262
v 0.299542 -0.293496 0.080262
v 0.110753 -0.293496 0.106323
v 0.110753 -0.736508 0.106323
v 0.110753 -0.736508 -0.106323
v 0.110753 -0.293496 -0.106323
v 0.299542 -0.293496 -0.080262
v 0.299542 -0.736508 -0.080262
v 0.110753 -0.736508 0.106323
v 0.110753 -0.293496 0.106323
v 0.057592 -0.293496 0.092078
v 0.057592 -0.736508 0.092078
v 0.057592 -0.736508 0.092078
v 0.057592 -0.293496 0.092078
v 0.018675 -0.293496 0.053161
v 0.018675 -0.736508 0.053161
v 0.018675 -0.736508 0.053161
v 0.018675 -0.293496 0.053161
v 0.00443 -0.293496 -0
v 0.00443 -0.736508 -0
v 0.00443 -0.736508 -0
v 0.00443 -0.293496 -0
v 0.018675 -0.293496 -0.053161
v 0.018675 -0.736508 -0.053161
v 0.018675 -0.736508 -0.053161
v 0.018675 -0.293496 -0.053161
v 0.057592 -0.293496 -0.092078
v 0.057592 -0.736508 -0.092078
v 0.057592 -0.736508 -0.092078
v 0.057592 -0.293496 -0.092078
v 0.110753 -0.293496 -0.106323
v 0.110753 -0.736508 -0.106323
v 0.299542 -0.736508 -0.080262
v 0.299542 -0.293496 -0.080262
v 0.4435 -0.293496 -0.080262
v 0.4435 -0.736508 -0.080262
v 0.4435 -0.736508 0.080262
v 0.4435 -0.293496 0.080262
v 0.299542 -0.293496 0.080262
v 0.299542 -0.736508 0.080262
v -0.271963 -0.271336 0.144496
v -0.102644 -0.21596 0.144496
v -0.271963 -0.127357 0.144496
v -0.091569 -0.271336 0.144496
v -0.091569 -0.271336 0.165856
v -0.258673 -0.271336 0.165856
v -0.102644 -0.21596 0.165856
v -0.258673 -0.127357 0.165856
v -0.091569 -0.271336 0.144496
v -0.091569 -0.271336 0.165856
v -0.102644 -0.21596 0.165856
v -0.102644 -0.21596 0.144496
v -0.102644 -0.21596 0.144496
v -0.102644 -0.21596 0.165856
v -0.258673 -0.127357 0.165856
v -0.271963 -0.127357 0.144496
v -0.102644 -0.21596 0.144496
v -0.258673 -0.127357 0.165856
v -0.258673 -0.127357 0.165856
v -0.271963 -0.271336 0.144496
v -0.271963 -0.127357 0.144496
v -0.258673 -0.271336 0.165856
v -0.271963 -0.127357 -0.144496
v -0.102644 -0.21596 -0.144496
v -0.271963 -0.271336 -0.144496
v -0.091569 -0.271336 -0.144496
v -0.102644 -0.21596 -0.165856
v -0.258673 -0.271336 -0.165856
v -0.091569 -0.271336 -0.165856
v -0.258673 -0.127357 -0.165856
v -0.102644 -0.21596 -0.165856
v -0.091569 -0.271336 -0.165856
v -0.091569 -0.271336 -0.144496
v -0.102644 -0.21596 -0.144496
v -0.258673 -0.127357 -0.165856
v -0.102644 -0.21596 -0.165856
v -0.102644 -0.21596 -0.144496
v -0.258673 -0.127357 -0.165856
v -0.102644 -0.21596 -0.144496
v -0.271963 -0.127357 -0.144496
v -0.271963 -0.127357 -0.144496
v -0.258673 -0.271336 -0.165856
v -0.258673 -0.127357 -0.165856
v -0.271963 -0.271336 -0.144496
v 0.110753 -0.279652 -0.049839
v 0.110753 -0.736508 -0.049839
v 0.145995 -0.736508 -0.035241
v 0.145995 -0.279652 -0.035241
v 0.145995 -0.279652 -0.035241
v 0.145995 -0.736508 -0.035241
v 0.160592 -0.736508 -0
v 0.160592 -0.279652 -0
v 0.160592 -0.279652 -0
v 0.160592 -0.736508 -0
v 0.145995 -0.736508 0.035241
v 0.145995 -0.279652 0.035241
v 0.145995 -0.279652 0.035241
v 0.145995 -0.736508 0.035241
v 0.110753 -0.736508 0.049839
v 0.110753 -0.279652 0.049839
v 0.110753 -0.279652 0.049839
v 0.110753 -0.736508 0.049839
v 0.075512 -0.736508 0.035241
v 0.075512 -0.279652 0.035241
v 0.075512 -0.279652 0.035241
v 0.075512 -0.736508 0.035241
v 0.060914 -0.736508 -0
v 0.060914 -0.279652 -0
v 0.060914 -0.279652 -0
v 0.060914 -0.736508 -0
v 0.075512 -0.736508 -0.035241
v 0.075512 -0.279652 -0.035241
v 0.075512 -0.279652 -0.035241
v 0.075512 -0.736508 -0.035241
v 0.110753 -0.736508 -0.049839
v 0.110753 -0.279652 -0.049839
v 0.110753 -0.290727 -0
v 0.110753 -0.279652 -0.049839
v 0.145995 -0.279652 -0.035241
v 0.110753 -0.290727 -0
v 0.145995 -0.279652 -0.035241
v 0.160592 -0.279652 -0
v 0.110753 -0.290727 -0
v 0.160592 -0.279652 -0
v 0.145995 -0.279652 0.035241
v 0.110753 -0.290727 -0
v 0.145995 -0.279652 0.035241
v 0.110753 -0.279652 0.049839
v 0.110753 -0.290727 -0
v 0.110753 -0.279652 0.049839
v 0.075512 -0.279652 0.035241
v 0.110753 -0.290727 -0
v 0.075512 -0.279652 0.035241
v 0.060914 -0.279652 -0
v 0.110753 -0.290727 -0
v 0.060914 -0.279652 -0
v 0.075512 -0.279652 -0.035241
v 0.110753 -0.290727 -0
v 0.075512 -0.279652 -0.035241
v 0.110753 -0.279652 -0.049839
v 0.4435 -0.736508 0.080262
v 0.299542 -0.736508 0.080262
v 0.299542 -0.736508 -0.080262
v 0.4435 -0.736508 -0.080262
v 0.110753 -0.736508 -0.106323
v 0.483631 -0.736508 0.069509
v 0.110753 -0.736508 0.106323
v 0.483631 -0.736508 -0.069509
v 0.057592 -0.736508 -0.092078
v 0.513008 -0.736508 0.040131
v 0.057592 -0.736508 0.092078
v 0.513008 -0.736508 -0.040131
v 0.523762 -0.736508 -0
v 0.018675 -0.736508 -0.053161
v 0.018675 -0.736508 0.053161
v 0.00443 -0.736508 -0
v 0.476283 -0.07976 -0.011128
v 0.476283 -0.07976 0.011089
v 0.332326 -0.213718 0.011089
v 0.332326 -0.213718 -0.011128
v 0.476283 -0.07976 -0.011128
v 0.332326 -0.213718 -0.011128
v 0.487358 -0.736508 -0.011128
v 0.332326 -0.736508 -0.011128
v 0.476283 -0.07976 0.011089
v 0.476283 -0.07976 -0.011128
v 0.487358 -0.736508 -0.011128
v 0.487358 -0.736508 0.011089
v 0.476283 -0.07976 0.011089
v 0.487358 -0.736508 0.011089
v 0.332326 -0.213718 0.011089
v 0.332326 -0.736508 0.011089
v 0.332326 -0.213718 0.011089
v 0.332326 -0.736508 -0.011128
v 0.332326 -0.213718 -0.011128
v 0.332326 -0.736508 0.011089
v 0.080262 -0.116291 -0.299542
v 0 -0.116291 -0.310109
v 0.117527 -0.005538 -0.438615
v 0 -0.005538 -0.454088
v 0.155054 -0.116291 -0.268562
v 0.080262 -0.116291 -0.299542
v 0.227044 -0.005538 -0.393252
v 0.117527 -0.005538 -0.438615
v 0.21928 -0.116291 -0.21928
v 0.155054 -0.116291 -0.268562
v 0.321088 -0.005538 -0.321088
v 0.227044 -0.005538 -0.393252
v 0.268562 -0.116291 -0.155054
v 0.21928 -0.116291 -0.21928
v 0.393252 -0.005538 -0.227044
v 0.321088 -0.005538 -0.321088
v 0.299542 -0.116291 -0.080262
v 0.268562 -0.116291 -0.155054
v 0.438615 -0.005538 -0.117527
v 0.393252 -0.005538 -0.227044
v 0.268562 -0.116291 0.155054
v 0.299542 -0.116291 0.080262
v 0.393252 -0.005538 0.227044
v 0.438615 -0.005538 0.117527
v 0.21928 -0.116291 0.21928
v 0.268562 -0.116291 0.155054
v 0.321088 -0.005538 0.321088
v 0.393252 -0.005538 0.227044
v 0.227044 -0.005538 0.393251
v 0.155054 -0.116291 0.268562
v 0.21928 -0.116291 0.21928
v 0.321088 -0.005538 0.321088
vt 0.000319 0.26322198
vt 0.000831 0.279337
vt 0.07804 0.268784
vt 0.065805 0.41496003
vt 0.104389 0.44808698
vt 0.122412 0.361404
vt 0.148762 0.384027
vt 0.179204 0.400743
vt 0.148762 0.384027
vt 0.148965 0.47256303
vt 0.104389 0.44808698
vt 0.212434 0.41083503
vt 0.179204 0.400743
vt 0.197624 0.487341
vt 0.148965 0.47256303
vt 0.247029 0.413872
vt 0.212434 0.41083503
vt 0.248283 0.49178803
vt 0.197624 0.487341
vt 0.28151 0.409724
vt 0.247029 0.413872
vt 0.298773 0.48571396
vt 0.248283 0.49178803
vt 0.314398 0.39856696
vt 0.28151 0.409724
vt 0.346932 0.469378
vt 0.298773 0.48571396
vt 0.344286 0.380881
vt 0.314398 0.39856696
vt 0.390697 0.44348
vt 0.346932 0.469378
vt 0.369895 0.357422
vt 0.344286 0.380881
vt 0.428196 0.40912902
vt 0.390697 0.44348
vt 0.390126 0.329194
vt 0.369895 0.357422
vt 0.457822 0.367795
vt 0.428196 0.40912902
vt 0.404116 0.29740703
vt 0.390126 0.329194
vt 0.478307 0.321249
vt 0.457822 0.367795
vt 0.411263 0.263421
vt 0.404116 0.29740703
vt 0.488773 0.271483
vt 0.478307 0.321249
vt 0.411263 0.22869098
vt 0.411263 0.263421
vt 0.488773 0.22062802
vt 0.488773 0.271483
vt 0.404115 0.19470501
vt 0.411263 0.22869098
vt 0.478307 0.17086202
vt 0.488773 0.22062802
vt 0.390125 0.16291702
vt 0.404115 0.19470501
vt 0.457821 0.12431502
vt 0.478307 0.17086202
vt 0.933162 0.17396098
vt 0.999679 0.17396098
vt 0.999679 0.13923198
vt 0.933162 0.13923198
vt 0.933162 0.13923198
vt 0.999679 0.13923198
vt 0.999678 0.10450399
vt 0.933162 0.10450399
vt 0.933162 0.10450399
vt 0.999678 0.10450399
vt 0.999678 0.069774985
vt 0.933162 0.069776
vt 0.933162 0.069776
vt 0.999678 0.069774985
vt 0.999678 0.035046995
vt 0.933162 0.035046995
vt 0.933162 0.035046995
vt 0.999678 0.035046995
vt 0.999678 0.00031900406
vt 0.933162 0.00031900406
vt 0.933157 0.76437002
vt 0.999678 0.76437098
vt 0.999679 0.72964
vt 0.933157 0.729639
vt 0.933157 0.729639
vt 0.999679 0.72964
vt 0.99968 0.69490802
vt 0.933158 0.694907
vt 0.933158 0.694907
vt 0.99968 0.69490802
vt 0.99968 0.660177
vt 0.933159 0.66017598
vt 0.933159 0.66017598
vt 0.99968 0.660177
vt 0.999681 0.62544602
vt 0.93316 0.625445
vt 0.93316 0.625445
vt 0.999681 0.62544602
vt 0.999681 0.590715
vt 0.933161 0.59071398
vt 0.933161 0.59071398
vt 0.999681 0.590715
vt 0.999681 0.55598402
vt 0.933161 0.55598402
vt 0.933161 0.55598402
vt 0.999681 0.55598402
vt 0.999681 0.521254
vt 0.933161 0.521254
vt 0.933161 0.521254
vt 0.999681 0.521254
vt 0.99968 0.486524
vt 0.933162 0.486524
vt 0.933162 0.486524
vt 0.99968 0.486524
vt 0.99968 0.45179403
vt 0.933162 0.45179403
vt 0.933162 0.45179403
vt 0.99968 0.45179403
vt 0.99968 0.41706502
vt 0.933162 0.41706502
vt 0.933162 0.41706502
vt 0.99968 0.41706502
vt 0.99968 0.38233602
vt 0.933162 0.38233602
vt 0.933162 0.38233602
vt 0.99968 0.38233602
vt 0.99968 0.347606
vt 0.933162 0.34760702
vt 0.933162 0.34760702
vt 0.99968 0.347606
vt 0.99968 0.312877
vt 0.933162 0.312877
vt 0.933162 0.312877
vt 0.99968 0.312877
vt 0.99968 0.278148
vt 0.933162 0.278148
vt 0.933162 0.278148
vt 0.99968 0.278148
vt 0.999679 0.24341899
vt 0.933162 0.24341899
vt 0.933162 0.24341899
vt 0.999679 0.24341899
vt 0.999679 0.20868999
vt 0.933162 0.20868999
vt 0.933162 0.20868999
vt 0.999679 0.20868999
vt 0.999679 0.17396098
vt 0.933162 0.17396098
vt 0.0799 0.75686097
vt 0.062077 0.75686097
vt 0.0799 0.880394995
vt 0.062077 0.880394995
vt 0.097724 0.75686097
vt 0.0799 0.75686097
vt 0.097724 0.880394995
vt 0.0799 0.880394995
vt 0.115547 0.75686097
vt 0.097724 0.75686097
vt 0.115547 0.88039601
vt 0.097724 0.880394995
vt 0.133371 0.75686097
vt 0.115547 0.75686097
vt 0.133371 0.880394995
vt 0.115547 0.88039601
vt 0.151194 0.75686097
vt 0.133371 0.75686097
vt 0.151194 0.880394995
vt 0.133371 0.880394995
vt 0.169018 0.75686097
vt 0.151194 0.75686097
vt 0.169018 0.880394995
vt 0.151194 0.880394995
vt 0.062077 0.75686097
vt 0.000319 0.83288199
vt 0.062077 0.880394995
vt 0.000319 0.76636398
vt 0.000319 0.75686097
vt 0.230776 0.83288199
vt 0.169018 0.75686097
vt 0.169018 0.880394995
vt 0.230776 0.76636398
vt 0.230776 0.75686097
vt 0.247024 0.078237
vt 0.24828 0.00031900406
vt 0.232219 0.001734972
vt 0.026672 0.705312
vt 0.05123 0.729869
vt 0.105776 0.68464798
vt 0.081306 0.747235
vt 0.114853 0.75622302
vt 0.149582 0.75622302
vt 0.183129 0.747235
vt 0.213205 0.72987002
vt 0.237763 0.70531303
vt 0.124508 0.67027402
vt 0.255128 0.675236
vt 0.264116 0.64169002
vt 0.133544 0.64846098
vt 0.264117 0.60696
vt 0.130462 0.62505198
vt 0.255128 0.57341403
vt 0.237763 0.543337
vt 0.116089 0.60632098
vt 0.213206 0.51878
vt 0.094275 0.59728497
vt 0.183129 0.501415
vt 0.149582 0.49242604
vt 0.070866 0.600367
vt 0.114853 0.49242604
vt 0.081306 0.501415
vt 0.05123 0.51878
vt 0.026672 0.543337
vt 0.009307 0.57341403
vt 0.000319 0.606961
vt 0.000319 0.64169002
vt 0.794593 0.92506999
vt 0.794593 0.915567994
vt 0.712834 0.915565014
vt 0.712834 0.92506802
vt 0.571169 0.925068974
vt 0.571169 0.91556603
vt 0.489411 0.915567994
vt 0.489411 0.92506999
vt 0.712834 0.92506802
vt 0.712834 0.915565014
vt 0.689223 0.915565014
vt 0.689223 0.92506802
vt 0.689223 0.92506802
vt 0.689223 0.915565014
vt 0.665612 0.915564
vt 0.665612 0.92506701
vt 0.665612 0.92506701
vt 0.665612 0.915564
vt 0.642001 0.915564
vt 0.642001 0.92506701
vt 0.642001 0.92506701
vt 0.642001 0.915564
vt 0.61839 0.915565014
vt 0.61839 0.92506802
vt 0.61839 0.92506802
vt 0.61839 0.915565014
vt 0.594779 0.915565014
vt 0.594779 0.92506802
vt 0.594779 0.92506802
vt 0.594779 0.915565014
vt 0.571169 0.91556603
vt 0.571169 0.925068974
vt 0.575261 0.046837986
vt 0.578505 0.051019013
vt 0.621906 0.02483499
vt 0.619718 0.020011008
vt 0.538268 0.083215
vt 0.542391 0.086528
vt 0.578505 0.051019013
vt 0.575261 0.046837986
vt 0.510737 0.127154
vt 0.515514 0.12941897
vt 0.542391 0.086528
vt 0.542391 0.086528
vt 0.538268 0.083215
vt 0.510737 0.127154
vt 0.494153 0.17626
vt 0.499323 0.17735499
vt 0.515514 0.12941897
vt 0.515514 0.12941897
vt 0.510737 0.127154
vt 0.494153 0.17626
vt 0.489411 0.22786802
vt 0.494694 0.22773302
vt 0.499323 0.17735499
vt 0.494153 0.17626
vt 0.669205 0.441774
vt 0.670199 0.43655002
vt 0.62164 0.421268
vt 0.62164 0.421268
vt 0.619463 0.42612004
vt 0.669205 0.441774
vt 0.721226 0.445468
vt 0.72098 0.44015503
vt 0.670199 0.43655002
vt 0.670199 0.43655002
vt 0.669205 0.441774
vt 0.721226 0.445468
vt 0.772691 0.436992
vt 0.771219 0.43188
vt 0.72098 0.44015503
vt 0.721226 0.445468
vt 0.820797 0.416794
vt 0.818177 0.41216302
vt 0.771219 0.43188
vt 0.772691 0.436992
vt 0.862909 0.385962
vt 0.859284 0.38206398
vt 0.818177 0.41216302
vt 0.820797 0.416794
vt 0.896719 0.346165
vt 0.892285 0.343216
vt 0.859284 0.38206398
vt 0.862909 0.385962
vt 0.920361 0.29958296
vt 0.915361 0.297745
vt 0.892285 0.343216
vt 0.896719 0.346165
vt 0.932519 0.24876797
vt 0.927228 0.24814302
vt 0.915361 0.297745
vt 0.915361 0.297745
vt 0.920361 0.29958296
vt 0.932519 0.24876797
vt 0.932519 0.19651496
vt 0.927229 0.19713998
vt 0.927228 0.24814302
vt 0.927228 0.24814302
vt 0.932519 0.24876797
vt 0.932519 0.19651496
vt 0.920349 0.14570701
vt 0.915351 0.147547
vt 0.927229 0.19713998
vt 0.927229 0.19713998
vt 0.932519 0.19651496
vt 0.920349 0.14570701
vt 0.896679 0.09915
vt 0.892249 0.102102995
vt 0.915351 0.147547
vt 0.920349 0.14570701
vt 0.862825 0.059412003
vt 0.859206 0.06331402
vt 0.892249 0.102102995
vt 0.896679 0.09915
vt 0.820668 0.02867502
vt 0.81806 0.033309996
vt 0.859206 0.06331402
vt 0.862825 0.059412003
vt 0.772548 0.008616984
vt 0.771093 0.013728023
vt 0.81806 0.033309996
vt 0.820668 0.02867502
vt 0.721128 0.00031900406
vt 0.720901 0.0056220293
vt 0.771093 0.013728023
vt 0.772548 0.008616984
vt 0.669237 0.0041999817
vt 0.670248 0.009405971
vt 0.720901 0.0056220293
vt 0.721128 0.00031900406
vt 0.619718 0.020011008
vt 0.621906 0.02483499
vt 0.670248 0.009405971
vt 0.669237 0.0041999817
vt 0.619463 0.42612004
vt 0.62164 0.421268
vt 0.607792 0.412978
vt 0.494694 0.22773302
vt 0.491355 0.24138498
vt 0.496978 0.24360901
vt 0.467314 0.59022403
vt 0.47047 0.594496
vt 0.486868 0.587511
vt 0.454234 0.605726
vt 0.458977 0.608119
vt 0.47047 0.594496
vt 0.47047 0.594496
vt 0.467314 0.59022403
vt 0.454234 0.605726
vt 0.449539 0.625458
vt 0.454851 0.625458
vt 0.458977 0.608119
vt 0.458977 0.608119
vt 0.454234 0.605726
vt 0.449539 0.625458
vt 0.454234 0.64519
vt 0.458977 0.642797
vt 0.454851 0.625458
vt 0.454851 0.625458
vt 0.449539 0.625458
vt 0.454234 0.64519
vt 0.467314 0.660693
vt 0.47047 0.65642
vt 0.458977 0.642797
vt 0.458977 0.642797
vt 0.454234 0.64519
vt 0.467314 0.660693
vt 0.607792 0.412978
vt 0.607671 0.41906202
vt 0.619463 0.42612004
vt 0.481899 0.666906
vt 0.486868 0.663406
vt 0.47047 0.65642
vt 0.467314 0.660693
vt 0.489411 0.22786802
vt 0.491355 0.24138498
vt 0.494694 0.22773302
vt 0.481899 0.58401102
vt 0.467314 0.59022403
vt 0.486868 0.587511
vt 0.680882 0.65528202
vt 0.786141 0.843642
vt 0.811158 0.82502002
vt 0.681493 0.65706497
vt 0.681493 0.65706497
vt 0.811158 0.82502002
vt 0.833922 0.80215299
vt 0.681909 0.65843397
vt 0.681909 0.65843397
vt 0.833922 0.80215299
vt 0.853053 0.77574003
vt 0.682665 0.65936798
vt 0.682665 0.65936798
vt 0.853053 0.77574003
vt 0.865767 0.745647
vt 0.683824 0.659647
vt 0.683824 0.659647
vt 0.865767 0.745647
vt 0.873229 0.71494
vt 0.68527 0.65931702
vt 0.68527 0.65931702
vt 0.873229 0.71494
vt 0.875633 0.68479598
vt 0.686935 0.65827298
vt 0.688887 0.653125
vt 0.840913 0.52658802
vt 0.622722 0.44610596
vt 0.688567 0.64753097
vt 0.680716 0.645149
vt 0.489411 0.657488
vt 0.623964 0.84778899
vt 0.680559 0.651008
vt 0.688567 0.64753097
vt 0.622722 0.44610596
vt 0.582263 0.46611297
vt 0.687919 0.644942
vt 0.687919 0.644942
vt 0.582263 0.46611297
vt 0.546633 0.494833
vt 0.686648 0.64290798
vt 0.686648 0.64290798
vt 0.546633 0.494833
vt 0.518242 0.530863
vt 0.684721 0.641635
vt 0.684721 0.641635
vt 0.518242 0.530863
vt 0.498937 0.57182598
vt 0.683574 0.64210898
vt 0.683574 0.64210898
vt 0.498937 0.57182598
vt 0.489411 0.61493498
vt 0.682162 0.643224
vt 0.682162 0.643224
vt 0.489411 0.61493498
vt 0.489411 0.657488
vt 0.680716 0.645149
vt 0.680559 0.651008
vt 0.623964 0.84778899
vt 0.786141 0.843642
vt 0.680882 0.65528202
vt 0.686935 0.65827298
vt 0.875633 0.68479598
vt 0.840913 0.52658802
vt 0.688887 0.653125
vt 0.429471 0.66140002
vt 0.405715 0.588762
vt 0.367704 0.66140002
vt 0.429471 0.58401102
vt 0.439392 0.724442
vt 0.367704 0.724442
vt 0.434641 0.748199
vt 0.367704 0.78620899
vt 0.327159 0.69511002
vt 0.327159 0.704274
vt 0.351386 0.704274
vt 0.351386 0.69511002
vt 0.346736 0.77696699
vt 0.346736 0.76780403
vt 0.269759 0.76780403
vt 0.264754 0.77736503
vt 0.346736 0.77696699
vt 0.269759 0.76780403
vt 0.429471 0.786847
vt 0.367704 0.79763901
vt 0.429471 0.79763901
vt 0.367704 0.786847
vt 0.367704 0.723805
vt 0.440342 0.685794
vt 0.367704 0.66203701
vt 0.445093 0.66203701
vt 0.302765 0.69006002
vt 0.326521 0.75699699
vt 0.326521 0.685309
vt 0.264754 0.75699699
vt 0.351386 0.685309
vt 0.327159 0.685309
vt 0.327159 0.69447303
vt 0.351386 0.69447303
vt 0.269759 0.78756398
vt 0.346736 0.78756398
vt 0.346736 0.77840102
vt 0.269759 0.78756398
vt 0.346736 0.77840102
vt 0.264754 0.77800298
vt 0.326521 0.78820199
vt 0.264754 0.798994
vt 0.326521 0.798994
vt 0.264754 0.78820199
vt 0.366998 0.655425
vt 0.281416 0.63320202
vt 0.292134 0.60866398
vt 0.336755 0.684672
vt 0.336755 0.684672
vt 0.292134 0.60866398
vt 0.316876 0.59868997
vt 0.294638 0.68414003
vt 0.294638 0.68414003
vt 0.316876 0.59868997
vt 0.34094 0.60991102
vt 0.264754 0.65468597
vt 0.264754 0.65468597
vt 0.34094 0.60991102
vt 0.347985 0.63542002
vt 0.264754 0.61383402
vt 0.264754 0.61383402
vt 0.347985 0.63542002
vt 0.339327 0.660357
vt 0.294713 0.58443397
vt 0.294713 0.58443397
vt 0.339327 0.660357
vt 0.314579 0.67000902
vt 0.336878 0.58401102
vt 0.336878 0.58401102
vt 0.314579 0.67000902
vt 0.290493 0.658426
vt 0.367067 0.613378
vt 0.367067 0.613378
vt 0.290493 0.658426
vt 0.281416 0.63320202
vt 0.366998 0.655425
vt 0.466835 0.687577
vt 0.475133 0.70761
vt 0.486868 0.695875
vt 0.466835 0.687577
vt 0.486868 0.695875
vt 0.486868 0.67927903
vt 0.466835 0.687577
vt 0.486868 0.67927903
vt 0.475133 0.667544
vt 0.466835 0.687577
vt 0.475133 0.667544
vt 0.458537 0.667544
vt 0.466835 0.687577
vt 0.458537 0.667544
vt 0.446802 0.67927903
vt 0.466835 0.687577
vt 0.446802 0.67927903
vt 0.446802 0.695875
vt 0.466835 0.687577
vt 0.446802 0.695875
vt 0.458537 0.70761
vt 0.466835 0.687577
vt 0.458537 0.70761
vt 0.475133 0.70761
vt 0.455229 0.514718
vt 0.39366 0.50989598
vt 0.388282 0.578551
vt 0.449852 0.583373
vt 0.306666 0.583373
vt 0.472033 0.520661
vt 0.313789 0.49242604
vt 0.467376 0.580118
vt 0.284407 0.5755
vt 0.483613 0.53421003
vt 0.290575 0.49673796
vt 0.480924 0.568538
vt 0.486868 0.55173397
vt 0.269066 0.55755198
vt 0.272627 0.512079
vt 0.264754 0.534338
vt 0.349114 0.76716602
vt 0.349114 0.757635
vt 0.264754 0.757635
vt 0.264754 0.76716602
vt 0.771197 0.914927006
vt 0.714778 0.85220897
vt 0.489411 0.91492599
vt 0.490533 0.84842598
vt 0.771204 0.93523902
vt 0.771204 0.92570901
vt 0.489411 0.925707996
vt 0.489411 0.93523902
vt 0.282105 0.881033
vt 0.000319 0.881033
vt 0.225686 0.943750978
vt 0.00144 0.94753301
vt 0.488773 0.83825701
vt 0.264498 0.84778899
vt 0.488773 0.84778899
vt 0.264498 0.83825803
vt 0.369893 0.13468897
vt 0.390125 0.16291702
vt 0.428195 0.08298099
vt 0.457821 0.12431502
vt 0.344284 0.111230016
vt 0.369893 0.13468897
vt 0.390696 0.048628986
vt 0.428195 0.08298099
vt 0.314395 0.09354299
vt 0.344284 0.111230016
vt 0.346929 0.022731006
vt 0.390696 0.048628986
vt 0.281505 0.08238602
vt 0.314395 0.09354299
vt 0.29877 0.0063940287
vt 0.346929 0.022731006
vt 0.247024 0.078237
vt 0.281505 0.08238602
vt 0.24828 0.00031900406
vt 0.29877 0.0063940287
vt 0.086278 0.302522
vt 0.07804 0.268784
vt 0.012893 0.328739
vt 0.000831 0.279337
vt 0.101283 0.333843
vt 0.086278 0.302522
vt 0.034866 0.374601
vt 0.012893 0.328739
vt 0.065805 0.41496003
vt 0.122412 0.361404
vt 0.101283 0.333843
vt 0.034866 0.374601
vn -0.6078 0.7901 -0.0797
vn -0.6078 0.7901 -0.0797
vn -0.6078 0.7901 -0.0797
vn -0.2346 0.7901 -0.5663
vn -0.2346 0.7901 -0.5663
vn -0.2346 0.7901 -0.5663
vn -0.2346 0.7901 -0.5663
vn -0.08 0.7901 -0.6078
vn -0.08 0.7901 -0.6078
vn -0.08 0.7901 -0.6078
vn -0.08 0.7901 -0.6078
vn 0.08 0.7901 -0.6078
vn 0.08 0.7901 -0.6078
vn 0.08 0.7901 -0.6078
vn 0.08 0.7901 -0.6078
vn 0.2346 0.7901 -0.5663
vn 0.2346 0.7901 -0.5663
vn 0.2346 0.7901 -0.5663
vn 0.2346 0.7901 -0.5663
vn 0.3732 0.7901 -0.4863
vn 0.3732 0.7901 -0.4863
vn 0.3732 0.7901 -0.4863
vn 0.3732 0.7901 -0.4863
vn 0.4863 0.7901 -0.3732
vn 0.4863 0.7901 -0.3732
vn 0.4863 0.7901 -0.3732
vn 0.4863 0.7901 -0.3732
vn 0.5663 0.7901 -0.2346
vn 0.5663 0.7901 -0.2346
vn 0.5663 0.7901 -0.2346
vn 0.5663 0.7901 -0.2346
vn 0.6078 0.7901 -0.08
vn 0.6078 0.7901 -0.08
vn 0.6078 0.7901 -0.08
vn 0.6078 0.7901 -0.08
vn 0.6078 0.7901 0.08
vn 0.6078 0.7901 0.08
vn 0.6078 0.7901 0.08
vn 0.6078 0.7901 0.08
vn 0.5663 0.7901 0.2346
vn 0.5663 0.7901 0.2346
vn 0.5663 0.7901 0.2346
vn 0.5663 0.7901 0.2346
vn 0.4863 0.7901 0.3732
vn 0.4863 0.7901 0.3732
vn 0.4863 0.7901 0.3732
vn 0.4863 0.7901 0.3732
vn 0.3732 0.7901 0.4863
vn 0.3732 0.7901 0.4863
vn 0.3732 0.7901 0.4863
vn 0.3732 0.7901 0.4863
vn 0.2346 0.7901 0.5663
vn 0.2346 0.7901 0.5663
vn 0.2346 0.7901 0.5663
vn 0.2346 0.7901 0.5663
vn 0.08 0.7901 0.6078
vn 0.08 0.7901 0.6078
vn 0.08 0.7901 0.6078
vn 0.08 0.7901 0.6078
vn -0.1305 0 0.9914
vn -0.1305 0 0.9914
vn -0.1305 0 0.9914
vn -0.1305 0 0.9914
vn -0.3827 0 0.9239
vn -0.3827 0 0.9239
vn -0.3827 0 0.9239
vn -0.3827 0 0.9239
vn -0.6088 0 0.7934
vn -0.6088 0 0.7934
vn -0.6088 0 0.7934
vn -0.6088 0 0.7934
vn -0.7934 -0 0.6088
vn -0.7934 -0 0.6088
vn -0.7934 -0 0.6088
vn -0.7934 -0 0.6088
vn -0.9239 0 0.3827
vn -0.9239 0 0.3827
vn -0.9239 0 0.3827
vn -0.9239 0 0.3827
vn -0.9239 0 -0.3827
vn -0.9239 0 -0.3827
vn -0.9239 0 -0.3827
vn -0.9239 0 -0.3827
vn -0.7934 0 -0.6088
vn -0.7934 0 -0.6088
vn -0.7934 0 -0.6088
vn -0.7934 0 -0.6088
vn -0.6088 0 -0.7934
vn -0.6088 0 -0.7934
vn -0.6088 0 -0.7934
vn -0.6088 0 -0.7934
vn -0.3827 0 -0.9239
vn -0.3827 0 -0.9239
vn -0.3827 0 -0.9239
vn -0.3827 0 -0.9239
vn -0.1305 0 -0.9914
vn -0.1305 0 -0.9914
vn -0.1305 0 -0.9914
vn -0.1305 0 -0.9914
vn 0.1305 0 -0.9914
vn 0.1305 0 -0.9914
vn 0.1305 0 -0.9914
vn 0.1305 0 -0.9914
vn 0.3827 0 -0.9239
vn 0.3827 0 -0.9239
vn 0.3827 0 -0.9239
vn 0.3827 0 -0.9239
vn 0.6088 0 -0.7934
vn 0.6088 0 -0.7934
vn 0.6088 0 -0.7934
vn 0.6088 0 -0.7934
vn 0.7934 -0 -0.6088
vn 0.7934 -0 -0.6088
vn 0.7934 -0 -0.6088
vn 0.7934 -0 -0.6088
vn 0.9239 0 -0.3827
vn 0.9239 0 -0.3827
vn 0.9239 0 -0.3827
vn 0.9239 0 -0.3827
vn 0.9914 -0 -0.1305
vn 0.9914 -0 -0.1305
vn 0.9914 -0 -0.1305
vn 0.9914 -0 -0.1305
vn 0.9914 -0 0.1305
vn 0.9914 -0 0.1305
vn 0.9914 -0 0.1305
vn 0.9914 -0 0.1305
vn 0.9239 0 0.3827
vn 0.9239 0 0.3827
vn 0.9239 0 0.3827
vn 0.9239 0 0.3827
vn 0.7934 -0 0.6088
vn 0.7934 -0 0.6088
vn 0.7934 -0 0.6088
vn 0.7934 -0 0.6088
vn 0.6088 -0 0.7934
vn 0.6088 -0 0.7934
vn 0.6088 -0 0.7934
vn 0.6088 -0 0.7934
vn 0.3827 0 0.9239
vn 0.3827 0 0.9239
vn 0.3827 0 0.9239
vn 0.3827 0 0.9239
vn 0.1305 0 0.9914
vn 0.1305 0 0.9914
vn 0.1305 0 0.9914
vn 0.1305 0 0.9914
vn -0.2588 -0 0.9659
vn -0.2588 -0 0.9659
vn -0.2588 -0 0.9659
vn -0.2588 -0 0.9659
vn -0.7071 -0 0.7071
vn -0.7071 -0 0.7071
vn -0.7071 -0 0.7071
vn -0.7071 -0 0.7071
vn -0.9659 0 0.2588
vn -0.9659 0 0.2588
vn -0.9659 0 0.2588
vn -0.9659 0 0.2588
vn -0.9659 0 -0.2588
vn -0.9659 0 -0.2588
vn -0.9659 0 -0.2588
vn -0.9659 0 -0.2588
vn -0.7071 0 -0.7071
vn -0.7071 0 -0.7071
vn -0.7071 0 -0.7071
vn -0.7071 0 -0.7071
vn -0.2588 0 -0.9659
vn -0.2588 0 -0.9659
vn -0.2588 0 -0.9659
vn -0.2588 0 -0.9659
vn -0 -0 1
vn -0 -0 1
vn -0 -0 1
vn -0 -0 1
vn -0 -0 1
vn 0 0 -1
vn 0 0 -1
vn 0 0 -1
vn 0 0 -1
vn 0 0 -1
vn -0.6078 0.7901 0.0797
vn -0.6078 0.7901 0.0797
vn -0.6078 0.7901 0.0797
vn -0 1 0
vn -0 1 0
vn -0 1 0
vn -0 1 0
vn -0 1 0
vn -0 1 0
vn -0 1 0
vn -0 1 0
vn -0 1 0
vn -0 1 0
vn -0 1 0
vn -0 1 0
vn -0 1 0
vn -0 1 0
vn -0 1 0
vn -0 1 0
vn -0 1 0
vn -0 1 0
vn -0 1 0
vn -0 1 0
vn -0 1 0
vn -0 1 0
vn -0 1 0
vn -0 1 0
vn -0 1 0
vn -0 1 0
vn -0 1 0
vn -0 1 0
vn -0 1 0
vn -0 1 0
vn -0.1367 0 -0.9906
vn -0.1367 0 -0.9906
vn -0.1367 0 -0.9906
vn -0.1367 0 -0.9906
vn -0.1367 0 0.9906
vn -0.1367 0 0.9906
vn -0.1367 0 0.9906
vn -0.1367 0 0.9906
vn 0.2588 0 -0.9659
vn 0.2588 0 -0.9659
vn 0.2588 0 -0.9659
vn 0.2588 0 -0.9659
vn 0.7071 0 -0.7071
vn 0.7071 0 -0.7071
vn 0.7071 0 -0.7071
vn 0.7071 0 -0.7071
vn 0.9659 0 -0.2588
vn 0.9659 0 -0.2588
vn 0.9659 0 -0.2588
vn 0.9659 0 -0.2588
vn 0.9659 0 0.2588
vn 0.9659 0 0.2588
vn 0.9659 0 0.2588
vn 0.9659 0 0.2588
vn 0.7071 -0 0.7071
vn 0.7071 -0 0.7071
vn 0.7071 -0 0.7071
vn 0.7071 -0 0.7071
vn 0.2588 0 0.9659
vn 0.2588 0 0.9659
vn 0.2588 0 0.9659
vn 0.2588 0 0.9659
vn -0.0588 0.8929 0.4465
vn -0.0588 0.8929 0.4465
vn -0.0588 0.8929 0.4465
vn -0.0588 0.8929 0.4465
vn -0.1723 0.8929 0.416
vn -0.1723 0.8929 0.416
vn -0.1723 0.8929 0.416
vn -0.1723 0.8929 0.416
vn -0.2741 0.8929 0.3572
vn -0.2741 0.8929 0.3572
vn -0.2741 0.8929 0.3572
vn -0.2741 0.8929 0.3573
vn -0.2741 0.8929 0.3573
vn -0.2741 0.8929 0.3573
vn -0.3573 0.8929 0.2741
vn -0.3573 0.8929 0.2741
vn -0.3573 0.8929 0.2741
vn -0.3572 0.8929 0.2741
vn -0.3572 0.8929 0.2741
vn -0.3572 0.8929 0.2741
vn -0.416 0.8929 0.1723
vn -0.416 0.8929 0.1723
vn -0.416 0.8929 0.1723
vn -0.416 0.8929 0.1723
vn -0.4161 0.8929 -0.1723
vn -0.4161 0.8929 -0.1723
vn -0.4161 0.8929 -0.1723
vn -0.416 0.8929 -0.1723
vn -0.416 0.8929 -0.1723
vn -0.416 0.8929 -0.1723
vn -0.3572 0.8929 -0.2741
vn -0.3572 0.8929 -0.2741
vn -0.3572 0.8929 -0.2741
vn -0.3573 0.8929 -0.2741
vn -0.3573 0.8929 -0.2741
vn -0.3573 0.8929 -0.2741
vn -0.2741 0.8929 -0.3572
vn -0.2741 0.8929 -0.3572
vn -0.2741 0.8929 -0.3572
vn -0.2741 0.8929 -0.3572
vn -0.1723 0.8929 -0.416
vn -0.1723 0.8929 -0.416
vn -0.1723 0.8929 -0.416
vn -0.1723 0.8929 -0.416
vn -0.0588 0.8929 -0.4465
vn -0.0588 0.8929 -0.4465
vn -0.0588 0.8929 -0.4465
vn -0.0588 0.8929 -0.4465
vn 0.0588 0.8929 -0.4465
vn 0.0588 0.8929 -0.4465
vn 0.0588 0.8929 -0.4465
vn 0.0588 0.8929 -0.4465
vn 0.1723 0.8929 -0.416
vn 0.1723 0.8929 -0.416
vn 0.1723 0.8929 -0.416
vn 0.1723 0.8929 -0.416
vn 0.2741 0.8929 -0.3573
vn 0.2741 0.8929 -0.3573
vn 0.2741 0.8929 -0.3573
vn 0.2741 0.8929 -0.3572
vn 0.2741 0.8929 -0.3572
vn 0.2741 0.8929 -0.3572
vn 0.3573 0.8929 -0.2742
vn 0.3573 0.8929 -0.2742
vn 0.3573 0.8929 -0.2742
vn 0.3573 0.8929 -0.2741
vn 0.3573 0.8929 -0.2741
vn 0.3573 0.8929 -0.2741
vn 0.416 0.8929 -0.1723
vn 0.416 0.8929 -0.1723
vn 0.416 0.8929 -0.1723
vn 0.4161 0.8929 -0.1723
vn 0.4161 0.8929 -0.1723
vn 0.4161 0.8929 -0.1723
vn 0.4465 0.8929 -0.0588
vn 0.4465 0.8929 -0.0588
vn 0.4465 0.8929 -0.0588
vn 0.4465 0.8929 -0.0588
vn 0.4465 0.8929 0.0588
vn 0.4465 0.8929 0.0588
vn 0.4465 0.8929 0.0588
vn 0.4465 0.8929 0.0588
vn 0.416 0.8929 0.1723
vn 0.416 0.8929 0.1723
vn 0.416 0.8929 0.1723
vn 0.416 0.8929 0.1723
vn 0.3573 0.8929 0.2741
vn 0.3573 0.8929 0.2741
vn 0.3573 0.8929 0.2741
vn 0.3573 0.8929 0.2741
vn 0.2741 0.8929 0.3573
vn 0.2741 0.8929 0.3573
vn 0.2741 0.8929 0.3573
vn 0.2741 0.8929 0.3573
vn 0.1723 0.8929 0.416
vn 0.1723 0.8929 0.416
vn 0.1723 0.8929 0.416
vn 0.1723 0.8929 0.416
vn 0.0588 0.8929 0.4465
vn 0.0588 0.8929 0.4465
vn 0.0588 0.8929 0.4465
vn 0.0588 0.8929 0.4465
vn -0.4465 0.8929 -0.0585
vn -0.4465 0.8929 -0.0585
vn -0.4465 0.8929 -0.0585
vn -0.4465 0.8929 0.0585
vn -0.4465 0.8929 0.0585
vn -0.4465 0.8929 0.0585
vn -0.119 0.8881 0.4441
vn -0.119 0.8881 0.4441
vn -0.119 0.8881 0.4441
vn -0.3251 0.8881 0.3251
vn -0.3251 0.8881 0.3251
vn -0.3251 0.8881 0.3251
vn -0.3251 0.888 0.3251
vn -0.3251 0.888 0.3251
vn -0.3251 0.888 0.3251
vn -0.4441 0.8881 0.119
vn -0.4441 0.8881 0.119
vn -0.4441 0.8881 0.119
vn -0.444 0.8881 0.119
vn -0.444 0.8881 0.119
vn -0.444 0.8881 0.119
vn -0.444 0.8881 -0.119
vn -0.444 0.8881 -0.119
vn -0.444 0.8881 -0.119
vn -0.4441 0.8881 -0.119
vn -0.4441 0.8881 -0.119
vn -0.4441 0.8881 -0.119
vn -0.3251 0.888 -0.3251
vn -0.3251 0.888 -0.3251
vn -0.3251 0.888 -0.3251
vn -0.3251 0.8881 -0.3251
vn -0.3251 0.8881 -0.3251
vn -0.3251 0.8881 -0.3251
vn -0.4464 0.8929 -0.0585
vn -0.4464 0.8929 -0.0585
vn -0.4464 0.8929 -0.0585
vn -0.119 0.8881 -0.4441
vn -0.119 0.8881 -0.4441
vn -0.119 0.8881 -0.4441
vn -0.119 0.8881 -0.4441
vn -0.4465 0.8929 0.0586
vn -0.4465 0.8929 0.0586
vn -0.4465 0.8929 0.0586
vn -0.119 0.8881 0.444
vn -0.119 0.8881 0.444
vn -0.119 0.8881 0.444
vn -0.2588 -0 0.9659
vn -0.2588 -0 0.9659
vn -0.2588 -0 0.9659
vn -0.2588 -0 0.9659
vn -0.7071 -0 0.7071
vn -0.7071 -0 0.7071
vn -0.7071 -0 0.7071
vn -0.7071 -0 0.7071
vn -0.9659 0 0.2588
vn -0.9659 0 0.2588
vn -0.9659 0 0.2588
vn -0.9659 0 0.2588
vn -0.9659 0 -0.2588
vn -0.9659 0 -0.2588
vn -0.9659 0 -0.2588
vn -0.9659 0 -0.2588
vn -0.7071 0 -0.7071
vn -0.7071 0 -0.7071
vn -0.7071 0 -0.7071
vn -0.7071 0 -0.7071
vn -0.2588 0 -0.9659
vn -0.2588 0 -0.9659
vn -0.2588 0 -0.9659
vn -0.2588 0 -0.9659
vn -0.1367 0 -0.9906
vn -0.1367 0 -0.9906
vn -0.1367 0 -0.9906
vn -0.1367 0 -0.9906
vn -0.1367 0 0.9906
vn -0.1367 0 0.9906
vn -0.1367 0 0.9906
vn -0.1367 0 0.9906
vn 0.2588 0 -0.9659
vn 0.2588 0 -0.9659
vn 0.2588 0 -0.9659
vn 0.2588 0 -0.9659
vn 0.7071 0 -0.7071
vn 0.7071 0 -0.7071
vn 0.7071 0 -0.7071
vn 0.7071 0 -0.7071
vn 0.9659 0 -0.2588
vn 0.9659 0 -0.2588
vn 0.9659 0 -0.2588
vn 0.9659 0 -0.2588
vn 0.9659 0 0.2588
vn 0.9659 0 0.2588
vn 0.9659 0 0.2588
vn 0.9659 0 0.2588
vn 0.7071 -0 0.7071
vn 0.7071 -0 0.7071
vn 0.7071 -0 0.7071
vn 0.7071 -0 0.7071
vn 0.2588 0 0.9659
vn 0.2588 0 0.9659
vn 0.2588 0 0.9659
vn 0.2588 0 0.9659
vn -0 -0 1
vn -0 -0 1
vn -0 -0 1
vn -0 -0 1
vn 0 0 -1
vn 0 0 -1
vn 0 0 -1
vn 0 0 -1
vn 0 0 -1
vn 0 0 -1
vn 0 0 -1
vn 0 0 -1
vn -0 -0 1
vn -0 -0 1
vn -0 -0 1
vn -0 -0 1
vn 0.9806 0.1961 0
vn 0.9806 0.1961 0
vn 0.9806 0.1961 0
vn 0.9806 0.1961 0
vn 0.4938 0.8696 0
vn 0.4938 0.8696 0
vn 0.4938 0.8696 0
vn 0.4455 0.8513 -0.2772
vn 0.4455 0.8513 -0.2772
vn 0.4455 0.8513 -0.2772
vn -0.8491 0 0.5283
vn -0.8491 0 0.5283
vn -0.8491 0 0.5283
vn -0.8491 0 0.5283
vn -0 -0 1
vn -0 -0 1
vn -0 -0 1
vn -0 -0 1
vn 0 0 -1
vn 0 0 -1
vn 0 0 -1
vn 0 0 -1
vn 0.9806 0.1961 0
vn 0.9806 0.1961 0
vn 0.9806 0.1961 0
vn 0.9806 0.1961 0
vn 0.4938 0.8696 0
vn 0.4938 0.8696 0
vn 0.4938 0.8696 0
vn 0.4455 0.8513 0.2772
vn 0.4455 0.8513 0.2772
vn 0.4455 0.8513 0.2772
vn -0.8491 0 -0.5283
vn -0.8491 0 -0.5283
vn -0.8491 0 -0.5283
vn -0.8491 0 -0.5283
vn 0.3827 0 -0.9239
vn 0.3827 0 -0.9239
vn 0.3827 0 -0.9239
vn 0.3827 0 -0.9239
vn 0.9239 0 -0.3827
vn 0.9239 0 -0.3827
vn 0.9239 0 -0.3827
vn 0.9239 0 -0.3827
vn 0.9239 0 0.3827
vn 0.9239 0 0.3827
vn 0.9239 0 0.3827
vn 0.9239 0 0.3827
vn 0.3827 0 0.9239
vn 0.3827 0 0.9239
vn 0.3827 0 0.9239
vn 0.3827 0 0.9239
vn -0.3827 0 0.9239
vn -0.3827 0 0.9239
vn -0.3827 0 0.9239
vn -0.3827 0 0.9239
vn -0.9239 0 0.3827
vn -0.9239 0 0.3827
vn -0.9239 0 0.3827
vn -0.9239 0 0.3827
vn -0.9239 0 -0.3827
vn -0.9239 0 -0.3827
vn -0.9239 0 -0.3827
vn -0.9239 0 -0.3827
vn -0.3827 0 -0.9239
vn -0.3827 0 -0.9239
vn -0.3827 0 -0.9239
vn -0.3827 0 -0.9239
vn -0.0895 0.9723 0.2161
vn -0.0895 0.9723 0.2161
vn -0.0895 0.9723 0.2161
vn -0.2161 0.9723 0.0895
vn -0.2161 0.9723 0.0895
vn -0.2161 0.9723 0.0895
vn -0.2161 0.9723 -0.0895
vn -0.2161 0.9723 -0.0895
vn -0.2161 0.9723 -0.0895
vn -0.0895 0.9723 -0.2161
vn -0.0895 0.9723 -0.2161
vn -0.0895 0.9723 -0.2161
vn 0.0895 0.9723 -0.2161
vn 0.0895 0.9723 -0.2161
vn 0.0895 0.9723 -0.2161
vn 0.2161 0.9723 -0.0895
vn 0.2161 0.9723 -0.0895
vn 0.2161 0.9723 -0.0895
vn 0.2161 0.9723 0.0895
vn 0.2161 0.9723 0.0895
vn 0.2161 0.9723 0.0895
vn 0.0895 0.9723 0.2161
vn 0.0895 0.9723 0.2161
vn 0.0895 0.9723 0.2161
vn -0 1 0
vn -0 1 0
vn -0 1 0
vn -0 1 0
vn -0 1 0
vn -0 1 0
vn -0 1 0
vn -0 1 0
vn -0 1 0
vn -0 1 0
vn -0 1 0
vn -0 1 0
vn -0 1 0
vn -0 1 0
vn -0 1 0
vn -0 1 0
vn -0.6812 0.7321 0
vn -0.6812 0.7321 0
vn -0.6812 0.7321 0
vn -0.6812 0.7321 0
vn 0 0 -1
vn 0 0 -1
vn 0 0 -1
vn 0 0 -1
vn 0.9999 0.0169 0
vn 0.9999 0.0169 0
vn 0.9999 0.0169 0
vn 0.9999 0.0169 0
vn -0 -0 1
vn -0 -0 1
vn -0 -0 1
vn -0 -0 1
vn -1 0 0
vn -1 0 0
vn -1 0 0
vn -1 0 0
vn -0.08 0.7901 0.6078
vn -0.08 0.7901 0.6078
vn -0.08 0.7901 0.6078
vn -0.08 0.7901 0.6078
vn -0.2346 0.7901 0.5663
vn -0.2346 0.7901 0.5663
vn -0.2346 0.7901 0.5663
vn -0.2346 0.7901 0.5663
vn -0.3732 0.7901 0.4863
vn -0.3732 0.7901 0.4863
vn -0.3732 0.7901 0.4863
vn -0.3732 0.7901 0.4863
vn -0.4863 0.7901 0.3732
vn -0.4863 0.7901 0.3732
vn -0.4863 0.7901 0.3732
vn -0.4863 0.7901 0.3732
vn -0.5663 0.7901 0.2346
vn -0.5663 0.7901 0.2346
vn -0.5663 0.7901 0.2346
vn -0.5663 0.7901 0.2346
vn -0.5663 0.7901 -0.2346
vn -0.5663 0.7901 -0.2346
vn -0.5663 0.7901 -0.2346
vn -0.5663 0.7901 -0.2346
vn -0.4863 0.7901 -0.3732
vn -0.4863 0.7901 -0.3732
vn -0.4863 0.7901 -0.3732
vn -0.4863 0.7901 -0.3732
vn -0.3732 0.7901 -0.4863
vn -0.3732 0.7901 -0.4863
vn -0.3732 0.7901 -0.4863
vn -0.3732 0.7901 -0.4863
f 3/3/3 2/2/2 1/1/1
f 6/6/6 5/5/5 4/4/4
f 5/5/5 6/6/6 7/7/7
f 10/10/10 9/9/9 8/8/8
f 9/9/9 10/10/10 11/11/11
f 14/14/14 13/13/13 12/12/12
f 13/13/13 14/14/14 15/15/15
f 18/18/18 17/17/17 16/16/16
f 17/17/17 18/18/18 19/19/19
f 22/22/22 21/21/21 20/20/20
f 21/21/21 22/22/22 23/23/23
f 26/26/26 25/25/25 24/24/24
f 25/25/25 26/26/26 27/27/27
f 30/30/30 29/29/29 28/28/28
f 29/29/29 30/30/30 31/31/31
f 34/34/34 33/33/33 32/32/32
f 33/33/33 34/34/34 35/35/35
f 38/38/38 37/37/37 36/36/36
f 37/37/37 38/38/38 39/39/39
f 42/42/42 41/41/41 40/40/40
f 41/41/41 42/42/42 43/43/43
f 46/46/46 45/45/45 44/44/44
f 45/45/45 46/46/46 47/47/47
f 50/50/50 49/49/49 48/48/48
f 49/49/49 50/50/50 51/51/51
f 54/54/54 53/53/53 52/52/52
f 53/53/53 54/54/54 55/55/55
f 58/58/58 57/57/57 56/56/56
f 57/57/57 58/58/58 59/59/59
f 62/62/62 61/61/61 60/60/60
f 60/60/60 63/63/63 62/62/62
f 66/66/66 65/65/65 64/64/64
f 64/64/64 67/67/67 66/66/66
f 70/70/70 69/69/69 68/68/68
f 68/68/68 71/71/71 70/70/70
f 74/74/74 73/73/73 72/72/72
f 72/72/72 75/75/75 74/74/74
f 78/78/78 77/77/77 76/76/76
f 76/76/76 79/79/79 78/78/78
f 82/82/82 81/81/81 80/80/80
f 80/80/80 83/83/83 82/82/82
f 86/86/86 85/85/85 84/84/84
f 84/84/84 87/87/87 86/86/86
f 90/90/90 89/89/89 88/88/88
f 88/88/88 91/91/91 90/90/90
f 94/94/94 93/93/93 92/92/92
f 92/92/92 95/95/95 94/94/94
f 98/98/98 97/97/97 96/96/96
f 96/96/96 99/99/99 98/98/98
f 102/102/102 101/101/101 100/100/100
f 100/100/100 103/103/103 102/102/102
f 106/106/106 105/105/105 104/104/104
f 104/104/104 107/107/107 106/106/106
f 110/110/110 109/109/109 108/108/108
f 108/108/108 111/111/111 110/110/110
f 114/114/114 113/113/113 112/112/112
f 112/112/112 115/115/115 114/114/114
f 118/118/118 117/117/117 116/116/116
f 116/116/116 119/119/119 118/118/118
f 122/122/122 121/121/121 120/120/120
f 120/120/120 123/123/123 122/122/122
f 126/126/126 125/125/125 124/124/124
f 124/124/124 127/127/127 126/126/126
f 130/130/130 129/129/129 128/128/128
f 128/128/128 131/131/131 130/130/130
f 134/134/134 133/133/133 132/132/132
f 132/132/132 135/135/135 134/134/134
f 138/138/138 137/137/137 136/136/136
f 136/136/136 139/139/139 138/138/138
f 142/142/142 141/141/141 140/140/140
f 140/140/140 143/143/143 142/142/142
f 146/146/146 145/145/145 144/144/144
f 144/144/144 147/147/147 146/146/146
f 150/150/150 149/149/149 148/148/148
f 149/149/149 150/150/150 151/151/151
f 154/154/154 153/153/153 152/152/152
f 153/153/153 154/154/154 155/155/155
f 158/158/158 157/157/157 156/156/156
f 157/157/157 158/158/158 159/159/159
f 162/162/162 161/161/161 160/160/160
f 161/161/161 162/162/162 163/163/163
f 166/166/166 165/165/165 164/164/164
f 165/165/165 166/166/166 167/167/167
f 170/170/170 169/169/169 168/168/168
f 169/169/169 170/170/170 171/171/171
f 174/174/174 173/173/173 172/172/172
f 172/172/172 173/173/173 175/175/175
f 176/176/176 172/172/172 175/175/175
f 179/179/179 178/178/178 177/177/177
f 178/178/178 180/180/180 177/177/177
f 180/180/180 178/178/178 181/181/181
f 184/184/184 183/183/183 182/182/182
f 187/187/187 186/186/186 185/185/185
f 187/187/187 188/188/188 186/186/186
f 187/187/187 189/189/189 188/188/188
f 187/187/187 190/190/190 189/189/189
f 187/187/187 191/191/191 190/190/190
f 187/187/187 192/192/192 191/191/191
f 187/187/187 193/193/193 192/192/192
f 193/193/193 187/187/187 194/194/194
f 194/194/194 195/195/195 193/193/193
f 194/194/194 196/196/196 195/195/195
f 196/196/196 194/194/194 197/197/197
f 197/197/197 198/198/198 196/196/196
f 198/198/198 197/197/197 199/199/199
f 199/199/199 200/200/200 198/198/198
f 199/199/199 201/201/201 200/200/200
f 201/201/201 199/199/199 202/202/202
f 202/202/202 203/203/203 201/201/201
f 203/203/203 202/202/202 204/204/204
f 204/204/204 205/205/205 203/203/203
f 204/204/204 206/206/206 205/205/205
f 204/204/204 207/207/207 206/206/206
f 207/207/207 208/208/208 206/206/206
f 209/209/209 208/208/208 207/207/207
f 207/207/207 210/210/210 209/209/209
f 207/207/207 211/211/211 210/210/210
f 207/207/207 212/212/212 211/211/211
f 207/207/207 213/213/213 212/212/212
f 207/207/207 214/214/214 213/213/213
f 217/217/217 216/216/216 215/215/215
f 215/215/215 218/218/218 217/217/217
f 221/221/221 220/220/220 219/219/219
f 219/219/219 222/222/222 221/221/221
f 225/225/225 224/224/224 223/223/223
f 223/223/223 226/226/226 225/225/225
f 229/229/229 228/228/228 227/227/227
f 227/227/227 230/230/230 229/229/229
f 233/233/233 232/232/232 231/231/231
f 231/231/231 234/234/234 233/233/233
f 237/237/237 236/236/236 235/235/235
f 235/235/235 238/238/238 237/237/237
f 241/241/241 240/240/240 239/239/239
f 239/239/239 242/242/242 241/241/241
f 245/245/245 244/244/244 243/243/243
f 243/243/243 246/246/246 245/245/245
f 249/249/249 248/248/248 247/247/247
f 247/247/247 250/250/250 249/249/249
f 253/253/253 252/252/252 251/251/251
f 251/251/251 254/254/254 253/253/253
f 257/257/257 256/256/256 255/255/255
f 260/260/260 259/259/259 258/258/258
f 263/263/263 262/262/262 261/261/261
f 266/266/266 265/265/265 264/264/264
f 269/269/269 268/268/268 267/267/267
f 267/267/267 270/270/270 269/269/269
f 273/273/273 272/272/272 271/271/271
f 276/276/276 275/275/275 274/274/274
f 279/279/279 278/278/278 277/277/277
f 282/282/282 281/281/281 280/280/280
f 285/285/285 284/284/284 283/283/283
f 283/283/283 286/286/286 285/285/285
f 289/289/289 288/288/288 287/287/287
f 287/287/287 290/290/290 289/289/289
f 293/293/293 292/292/292 291/291/291
f 291/291/291 294/294/294 293/293/293
f 297/297/297 296/296/296 295/295/295
f 295/295/295 298/298/298 297/297/297
f 301/301/301 300/300/300 299/299/299
f 299/299/299 302/302/302 301/301/301
f 305/305/305 304/304/304 303/303/303
f 308/308/308 307/307/307 306/306/306
f 311/311/311 310/310/310 309/309/309
f 314/314/314 313/313/313 312/312/312
f 317/317/317 316/316/316 315/315/315
f 320/320/320 319/319/319 318/318/318
f 323/323/323 322/322/322 321/321/321
f 321/321/321 324/324/324 323/323/323
f 327/327/327 326/326/326 325/325/325
f 325/325/325 328/328/328 327/327/327
f 331/331/331 330/330/330 329/329/329
f 329/329/329 332/332/332 331/331/331
f 335/335/335 334/334/334 333/333/333
f 333/333/333 336/336/336 335/335/335
f 339/339/339 338/338/338 337/337/337
f 337/337/337 340/340/340 339/339/339
f 343/343/343 342/342/342 341/341/341
f 341/341/341 344/344/344 343/343/343
f 347/347/347 346/346/346 345/345/345
f 345/345/345 348/348/348 347/347/347
f 351/351/351 350/350/350 349/349/349
f 354/354/354 353/353/353 352/352/352
f 357/357/357 356/356/356 355/355/355
f 360/360/360 359/359/359 358/358/358
f 363/363/363 362/362/362 361/361/361
f 366/366/366 365/365/365 364/364/364
f 369/369/369 368/368/368 367/367/367
f 372/372/372 371/371/371 370/370/370
f 375/375/375 374/374/374 373/373/373
f 378/378/378 377/377/377 376/376/376
f 381/381/381 380/380/380 379/379/379
f 384/384/384 383/383/383 382/382/382
f 387/387/387 386/386/386 385/385/385
f 385/385/385 388/388/388 387/387/387
f 391/391/391 390/390/390 389/389/389
f 394/394/394 393/393/393 392/392/392
f 397/397/397 396/396/396 395/395/395
f 395/395/395 398/398/398 397/397/397
f 401/401/401 400/400/400 399/399/399
f 399/399/399 402/402/402 401/401/401
f 405/405/405 404/404/404 403/403/403
f 403/403/403 406/406/406 405/405/405
f 409/409/409 408/408/408 407/407/407
f 407/407/407 410/410/410 409/409/409
f 413/413/413 412/412/412 411/411/411
f 411/411/411 414/414/414 413/413/413
f 417/417/417 416/416/416 415/415/415
f 415/415/415 418/418/418 417/417/417
f 421/421/421 420/420/420 419/419/419
f 419/419/419 422/422/422 421/421/421
f 425/425/425 424/424/424 423/423/423
f 423/423/423 426/426/426 425/425/425
f 429/429/429 428/428/428 427/427/427
f 427/427/427 430/430/430 429/429/429
f 433/433/433 432/432/432 431/431/431
f 431/431/431 434/434/434 433/433/433
f 437/437/437 436/436/436 435/435/435
f 435/435/435 438/438/438 437/437/437
f 441/441/441 440/440/440 439/439/439
f 439/439/439 442/442/442 441/441/441
f 445/445/445 444/444/444 443/443/443
f 443/443/443 446/446/446 445/445/445
f 449/449/449 448/448/448 447/447/447
f 447/447/447 450/450/450 449/449/449
f 453/453/453 452/452/452 451/451/451
f 451/451/451 454/454/454 453/453/453
f 457/457/457 456/456/456 455/455/455
f 455/455/455 458/458/458 457/457/457
f 461/461/461 460/460/460 459/459/459
f 462/462/462 459/459/459 460/460/460
f 465/465/465 464/464/464 463/463/463
f 464/464/464 465/465/465 466/466/466
f 469/469/469 468/468/468 467/467/467
f 467/467/467 470/470/470 469/469/469
f 473/473/473 472/472/472 471/471/471
f 476/476/476 475/475/475 474/474/474
f 479/479/479 478/478/478 477/477/477
f 478/478/478 480/480/480 477/477/477
f 483/483/483 482/482/482 481/481/481
f 482/482/482 483/483/483 484/484/484
f 487/487/487 486/486/486 485/485/485
f 488/488/488 485/485/485 486/486/486
f 491/491/491 490/490/490 489/489/489
f 489/489/489 492/492/492 491/491/491
f 495/495/495 494/494/494 493/493/493
f 498/498/498 497/497/497 496/496/496
f 501/501/501 500/500/500 499/499/499
f 502/502/502 499/499/499 500/500/500
f 505/505/505 504/504/504 503/503/503
f 503/503/503 506/506/506 505/505/505
f 509/509/509 508/508/508 507/507/507
f 507/507/507 510/510/510 509/509/509
f 513/513/513 512/512/512 511/511/511
f 511/511/511 514/514/514 513/513/513
f 517/517/517 516/516/516 515/515/515
f 515/515/515 518/518/518 517/517/517
f 521/521/521 520/520/520 519/519/519
f 519/519/519 522/522/522 521/521/521
f 525/525/525 524/524/524 523/523/523
f 523/523/523 526/526/526 525/525/525
f 529/529/529 528/528/528 527/527/527
f 527/527/527 530/530/530 529/529/529
f 533/533/533 532/532/532 531/531/531
f 531/531/531 534/534/534 533/533/533
f 537/537/537 536/536/536 535/535/535
f 540/540/540 539/539/539 538/538/538
f 543/543/543 542/542/542 541/541/541
f 546/546/546 545/545/545 544/544/544
f 549/549/549 548/548/548 547/547/547
f 552/552/552 551/551/551 550/550/550
f 555/555/555 554/554/554 553/553/553
f 558/558/558 557/557/557 556/556/556
f 561/561/561 560/560/560 559/559/559
f 561/561/561 559/559/559 562/562/562
f 561/561/561 563/563/563 560/560/560
f 559/559/559 564/564/564 562/562/562
f 563/563/563 565/565/565 560/560/560
f 564/564/564 566/566/566 562/562/562
f 565/565/565 563/563/563 567/567/567
f 564/564/564 568/568/568 566/566/566
f 567/567/567 569/569/569 565/565/565
f 568/568/568 570/570/570 566/566/566
f 568/568/568 571/571/571 570/570/570
f 567/567/567 572/572/572 569/569/569
f 572/572/572 573/573/573 569/569/569
f 572/572/572 574/574/574 573/573/573
f 577/577/577 576/576/576 575/575/575
f 578/578/578 577/577/577 575/575/575
f 581/581/581 580/580/580 579/579/579
f 581/581/581 582/582/582 580/580/580
f 585/585/585 584/584/584 583/583/583
f 586/586/586 585/585/585 583/583/583
f 589/589/589 588/588/588 587/587/587
f 589/589/589 590/590/590 588/588/588
f 593/593/593 592/592/592 591/591/591
f 591/591/591 592/592/592 594/594/594
f 597/597/597 596/596/596 595/595/595
f 596/596/596 597/597/597 598/598/598
f 601/601/601 600/600/600 599/599/599
f 600/600/600 601/601/601 602/602/602
f 605/605/605 604/604/604 603/603/603
f 604/604/604 605/605/605 606/606/606
f 609/609/609 608/608/608 607/607/607
f 608/608/608 609/609/609 610/610/610
f 613/613/613 612/612/612 611/611/611
f 612/612/612 613/613/613 614/614/614
f 617/617/617 616/616/616 615/615/615
f 616/616/616 617/617/617 618/618/618
f 621/621/621 620/620/620 619/619/619
f 620/620/620 621/621/621 622/622/622
f 625/625/625 624/624/624 623/623/623
f 625/625/625 623/623/623 626/626/626
