# VPXTOOL table OBJ file
# VPXTOOL OBJ file
# numVerts: 195 numFaces: 87
o p_L23_
v -0.045398 -0.046908 -0.004444
v -0.065418 -0.046894 -0.04595
v 0.372446 -0.046788 -0.038462
v 0.392046 -0.001788 0.047573
v 0.372504 -0.001788 0.055697
v 0.37251 -0.046786 0.055712
v 0.392075 -0.046764 0.047621
v 0.372445 -0.001788 -0.038459
v 0.372446 -0.046788 -0.038462
v -0.248661 -0.046771 -0.260016
v -0.248673 -0.001788 -0.259934
v -0.105386 -0.001788 -0.069349
v -0.105373 -0.046821 -0.069375
v -0.065418 -0.046894 -0.04595
v -0.065532 -0.001788 -0.045846
v 0.4163 -0.001788 0.014022
v 0.416365 -0.04674 0.014031
v 0.413613 -0.046698 -0.007172
v 0.413597 -0.001788 -0.007165
v -0.319551 -0.001788 -0.160539
v -0.328438 -0.001788 -0.197198
v -0.328509 -0.046738 -0.197202
v -0.319573 -0.046691 -0.160524
v -0.065532 -0.001788 -0.045846
v -0.065418 -0.046894 -0.04595
v -0.045398 -0.046908 -0.004444
v -0.045566 -0.001788 -0.004422
v -0.334253 -0.046764 0.206611
v -0.322746 -0.046692 0.170848
v -0.289716 -0.046774 0.152437
v 0.400797 -0.046767 -0.024253
v 0.416365 -0.04674 0.014031
v 0.408342 -0.046742 0.033825
v -0.334253 -0.046764 0.206611
v -0.249792 -0.046785 0.270069
v -0.262084 -0.046761 0.273525
v 0.382358 -0.001788 -0.034758
v 0.400745 -0.001788 -0.024194
v 0.400797 -0.046767 -0.024253
v 0.382372 -0.046774 -0.034787
v 0.408291 -0.001788 0.033788
v 0.392046 -0.001788 0.047573
v 0.392075 -0.046764 0.047621
v 0.408342 -0.046742 0.033825
v 0.400797 -0.046767 -0.024253
v 0.408342 -0.046742 0.033825
v 0.392075 -0.046764 0.047621
v -0.262084 -0.046761 0.273525
v -0.326819 -0.046737 0.243852
v -0.334253 -0.046764 0.206611
v 0.400797 -0.046767 -0.024253
v 0.413613 -0.046698 -0.007172
v 0.416365 -0.04674 0.014031
v -0.054124 -0.046913 0.040932
v 0.37251 -0.046786 0.055712
v -0.083039 -0.046861 0.076885
v -0.262089 -0.001788 0.27346
v -0.262084 -0.046761 0.273525
v -0.249792 -0.046785 0.270069
v -0.249797 -0.001788 0.270055
v -0.083039 -0.046861 0.076885
v 0.37251 -0.046786 0.055712
v -0.249792 -0.046785 0.270069
v -0.104273 -0.001788 0.086716
v -0.104267 -0.046806 0.086731
v -0.289716 -0.046774 0.152437
v -0.289702 -0.001788 0.152467
v 0.413597 -0.001788 -0.007165
v 0.413613 -0.046698 -0.007172
v 0.400797 -0.046767 -0.024253
v 0.400745 -0.001788 -0.024194
v -0.289035 -0.046772 -0.138336
v -0.319573 -0.046691 -0.160524
v -0.328509 -0.046738 -0.197202
v -0.262084 -0.046761 0.273525
v -0.29942 -0.046692 0.269889
v -0.326819 -0.046737 0.243852
v -0.289035 -0.046772 -0.138336
v -0.289008 -0.001788 -0.138385
v -0.319551 -0.001788 -0.160539
v -0.319573 -0.046691 -0.160524
v -0.326754 -0.001788 0.243817
v -0.326819 -0.046737 0.243852
v -0.29942 -0.046692 0.269889
v -0.29941 -0.001788 0.269866
v -0.326819 -0.046737 0.243852
v -0.326754 -0.001788 0.243817
v -0.334161 -0.001788 0.206617
v -0.334253 -0.046764 0.206611
v 0.372446 -0.046788 -0.038462
v 0.37251 -0.046786 0.055712
v -0.045398 -0.046908 -0.004444
v -0.054204 -0.001788 0.040895
v -0.045566 -0.001788 -0.004422
v -0.045398 -0.046908 -0.004444
v -0.054124 -0.046913 0.040932
v -0.248673 -0.001788 -0.259934
v -0.248661 -0.046771 -0.260016
v -0.286456 -0.046693 -0.257601
v -0.286448 -0.001788 -0.25758
v -0.065418 -0.046894 -0.04595
v -0.248661 -0.046771 -0.260016
v 0.372446 -0.046788 -0.038462
v -0.315877 -0.001788 -0.232976
v -0.315948 -0.046755 -0.233025
v -0.328509 -0.046738 -0.197202
v -0.328438 -0.001788 -0.197198
v -0.248661 -0.046771 -0.260016
v -0.289035 -0.046772 -0.138336
v -0.315948 -0.046755 -0.233025
v -0.249797 -0.001788 0.270055
v -0.249792 -0.046785 0.270069
v 0.37251 -0.046786 0.055712
v 0.372504 -0.001788 0.055697
v -0.334253 -0.046764 0.206611
v -0.334161 -0.001788 0.206617
v -0.322723 -0.001788 0.170866
v -0.322746 -0.046692 0.170848
v -0.315948 -0.046755 -0.233025
v -0.286456 -0.046693 -0.257601
v -0.248661 -0.046771 -0.260016
v -0.065418 -0.046894 -0.04595
v -0.105373 -0.046821 -0.069375
v -0.248661 -0.046771 -0.260016
v -0.054124 -0.046913 0.040932
v -0.289035 -0.046772 -0.138336
v -0.248661 -0.046771 -0.260016
v -0.105373 -0.046821 -0.069375
v -0.249792 -0.046785 0.270069
v -0.289716 -0.046774 0.152437
v -0.104267 -0.046806 0.086731
v -0.249792 -0.046785 0.270069
v -0.104267 -0.046806 0.086731
v -0.083039 -0.046861 0.076885
v -0.289035 -0.046772 -0.138336
v -0.328509 -0.046738 -0.197202
v -0.315948 -0.046755 -0.233025
v 0.382358 -0.001788 -0.034758
v 0.382372 -0.046774 -0.034787
v 0.372446 -0.046788 -0.038462
v 0.372445 -0.001788 -0.038459
v 0.37251 -0.046786 0.055712
v 0.372446 -0.046788 -0.038462
v 0.382372 -0.046774 -0.034787
v -0.29941 -0.001788 0.269866
v -0.29942 -0.046692 0.269889
v -0.262084 -0.046761 0.273525
v -0.262089 -0.001788 0.27346
v -0.322746 -0.046692 0.170848
v -0.322723 -0.001788 0.170866
v -0.289702 -0.001788 0.152467
v -0.289716 -0.046774 0.152437
v -0.315877 -0.001788 -0.232976
v -0.286448 -0.001788 -0.25758
v -0.286456 -0.046693 -0.257601
v -0.315948 -0.046755 -0.233025
v -0.054204 -0.001788 0.040895
v -0.054124 -0.046913 0.040932
v -0.083039 -0.046861 0.076885
v -0.083109 -0.001788 0.076795
v 0.4163 -0.001788 0.014022
v 0.408291 -0.001788 0.033788
v 0.408342 -0.046742 0.033825
v 0.416365 -0.04674 0.014031
v -0.334253 -0.046764 0.206611
v -0.083109 -0.001788 0.076795
v -0.083039 -0.046861 0.076885
v -0.104267 -0.046806 0.086731
v -0.104273 -0.001788 0.086716
v 0.382372 -0.046774 -0.034787
v 0.392075 -0.046764 0.047621
v 0.37251 -0.046786 0.055712
v -0.289008 -0.001788 -0.138385
v -0.289035 -0.046772 -0.138336
v -0.105373 -0.046821 -0.069375
v -0.105386 -0.001788 -0.069349
v 0.392075 -0.046764 0.047621
v 0.382372 -0.046774 -0.034787
v 0.400797 -0.046767 -0.024253
v -0.086951 -0.092786 0.185291
v -0.086951 -0.092786 0.128719
v -0.086951 -0.106929 0.128719
v -0.086951 -0.106929 0.185291
v -0.086951 -0.092786 0.128719
v -0.030378 -0.092786 0.128719
v -0.030378 -0.106929 0.128719
v -0.086951 -0.106929 0.128719
v -0.030378 -0.092786 0.128719
v -0.030378 -0.092786 0.185291
v -0.030378 -0.106929 0.185291
v -0.030378 -0.106929 0.128719
v -0.030378 -0.092786 0.185291
v -0.086951 -0.092786 0.185291
v -0.086951 -0.106929 0.185291
v -0.030378 -0.106929 0.185291
vt 0.398372 0.51149398
vt 0.374035 0.56198698
vt 0.899315 0.55112398
vt 0.959723 0.44545102
vt 0.934392 0.43492103
vt 0.899372 0.440167
vt 0.92266 0.449849
vt 0.934331 0.55560797
vt 0.899315 0.55112398
vt 0.152732 0.81733799
vt 0.12228 0.84516501
vt 0.310428 0.598419
vt 0.325711 0.59048498
vt 0.374035 0.56198698
vt 0.362989 0.567423
vt 0.990794 0.488374
vt 0.951226 0.48931098
vt 0.948056 0.514158
vt 0.987345 0.5154
vt 0.030928 0.71727198
vt 0.01951 0.76437199
vt 0.058247 0.74305803
vt 0.068744 0.699755
vt 0.362989 0.567423
vt 0.374035 0.56198698
vt 0.398372 0.51149398
vt 0.38946 0.512502
vt 0.051353 0.25750804
vt 0.064866 0.29974604
vt 0.104067 0.32158804
vt 0.932944 0.534182
vt 0.951226 0.48931098
vt 0.941825 0.466111
vt 0.051353 0.25750804
vt 0.151196 0.18245
vt 0.136665 0.17842501
vt 0.947186 0.55080903
vt 0.970908 0.53718
vt 0.932944 0.534182
vt 0.911134 0.546713
vt 0.980569 0.46314
vt 0.959723 0.44545102
vt 0.92266 0.449849
vt 0.941825 0.466111
vt 0.932944 0.534182
vt 0.941825 0.466111
vt 0.92266 0.449849
vt 0.136665 0.17842501
vt 0.060124 0.213458
vt 0.051353 0.25750804
vt 0.932944 0.534182
vt 0.948056 0.514158
vt 0.951226 0.48931098
vt 0.387856 0.45632
vt 0.899372 0.440167
vt 0.352737 0.412704
vt 0.104805 0.150226
vt 0.136665 0.17842501
vt 0.151196 0.18245
vt 0.120609 0.15460503
vt 0.352737 0.412704
vt 0.899372 0.440167
vt 0.151196 0.18245
vt 0.311814 0.39191902
vt 0.326986 0.40063202
vt 0.104067 0.32158804
vt 0.069348 0.305943
vt 0.987345 0.5154
vt 0.948056 0.514158
vt 0.932944 0.534182
vt 0.970908 0.53718
vt 0.10498 0.673473
vt 0.068744 0.699755
vt 0.058247 0.74305803
vt 0.136665 0.17842501
vt 0.092427 0.18268502
vt 0.060124 0.213458
vt 0.10498 0.673473
vt 0.070341 0.688685
vt 0.030928 0.71727198
vt 0.068744 0.699755
vt 0.021552 0.18833101
vt 0.060124 0.213458
vt 0.092427 0.18268502
vt 0.056687 0.15486002
vt 0.060124 0.213458
vt 0.021552 0.18833101
vt 0.012011 0.23624396
vt 0.051353 0.25750804
vt 0.899315 0.55112398
vt 0.899372 0.440167
vt 0.398372 0.51149398
vt 0.378022 0.45248997
vt 0.38946 0.512502
vt 0.398372 0.51149398
vt 0.387856 0.45632
vt 0.12228 0.84516501
vt 0.152732 0.81733799
vt 0.107952 0.814547
vt 0.073573 0.84213
vt 0.374035 0.56198698
vt 0.152732 0.81733799
vt 0.899315 0.55112398
vt 0.03569 0.81045699
vt 0.073122 0.78542799
vt 0.058247 0.74305803
vt 0.01951 0.76437199
vt 0.152732 0.81733799
vt 0.10498 0.673473
vt 0.073122 0.78542799
vt 0.120609 0.15460503
vt 0.151196 0.18245
vt 0.899372 0.440167
vt 0.934392 0.43492103
vt 0.051353 0.25750804
vt 0.012011 0.23624396
vt 0.02671 0.28218496
vt 0.064866 0.29974604
vt 0.073122 0.78542799
vt 0.107952 0.814547
vt 0.152732 0.81733799
vt 0.374035 0.56198698
vt 0.325711 0.59048498
vt 0.152732 0.81733799
vt 0.387856 0.45632
vt 0.10498 0.673473
vt 0.152732 0.81733799
vt 0.325711 0.59048498
vt 0.151196 0.18245
vt 0.104067 0.32158804
vt 0.326986 0.40063202
vt 0.151196 0.18245
vt 0.326986 0.40063202
vt 0.352737 0.412704
vt 0.10498 0.673473
vt 0.058247 0.74305803
vt 0.073122 0.78542799
vt 0.947186 0.55080903
vt 0.911134 0.546713
vt 0.899315 0.55112398
vt 0.934331 0.55560797
vt 0.899372 0.440167
vt 0.899315 0.55112398
vt 0.911134 0.546713
vt 0.056687 0.15486002
vt 0.092427 0.18268502
vt 0.136665 0.17842501
vt 0.104805 0.150226
vt 0.064866 0.29974604
vt 0.02671 0.28218496
vt 0.069348 0.305943
vt 0.104067 0.32158804
vt 0.03569 0.81045699
vt 0.073573 0.84213
vt 0.107952 0.814547
vt 0.073122 0.78542799
vt 0.378022 0.45248997
vt 0.387856 0.45632
vt 0.352737 0.412704
vt 0.339824 0.40504897
vt 0.990794 0.488374
vt 0.980569 0.46314
vt 0.941825 0.466111
vt 0.951226 0.48931098
vt 0.051353 0.25750804
vt 0.339824 0.40504897
vt 0.352737 0.412704
vt 0.326986 0.40063202
vt 0.311814 0.39191902
vt 0.911134 0.546713
vt 0.92266 0.449849
vt 0.899372 0.440167
vt 0.070341 0.688685
vt 0.10498 0.673473
vt 0.325711 0.59048498
vt 0.310428 0.598419
vt 0.92266 0.449849
vt 0.911134 0.546713
vt 0.932944 0.534182
vt 0 0
vt 0 0
vt 0 0
vt 0 0
vt 0 0
vt 0 0
vt 0 0
vt 0 0
vt 0 0
vt 0 0
vt 0 0
vt 0 0
vt 0 0
vt 0 0
vt 0 0
vt 0 0
vn -0.0003 1 0.0005
vn -0.0003 1 0.0005
vn -0.0003 1 0.0005
vn -0.383 -0.0008 -0.9237
vn -0.383 -0.0008 -0.9237
vn -0.383 -0.0008 -0.9237
vn -0.383 -0.0008 -0.9237
vn -0.3359 -0.0009 0.9419
vn -0.3359 -0.0009 0.9419
vn -0.3359 -0.0009 0.9419
vn -0.3359 -0.0009 0.9419
vn 0.5069 0.002 -0.862
vn 0.5069 0.002 -0.862
vn 0.5069 0.002 -0.862
vn 0.5069 0.002 -0.862
vn -0.9918 -0.0009 0.1276
vn -0.9918 -0.0009 0.1276
vn -0.9918 -0.0009 0.1276
vn -0.9918 -0.0009 0.1276
vn 0.9717 -0.001 -0.2362
vn 0.9717 -0.001 -0.2362
vn 0.9717 -0.001 -0.2362
vn 0.9717 -0.001 -0.2362
vn 0.9008 0.0034 -0.4343
vn 0.9008 0.0034 -0.4343
vn 0.9008 0.0034 -0.4343
vn 0.9008 0.0034 -0.4343
vn 0.0044 1 0.0034
vn 0.0044 1 0.0034
vn 0.0044 1 0.0034
vn -0.0009 1 -0.0003
vn -0.0009 1 -0.0003
vn -0.0009 1 -0.0003
vn 0.0015 1 -0.0016
vn 0.0015 1 -0.0016
vn 0.0015 1 -0.0016
vn -0.4973 -0.0012 0.8676
vn -0.4973 -0.0012 0.8676
vn -0.4973 -0.0012 0.8676
vn -0.4973 -0.0012 0.8676
vn -0.6469 -0.0013 -0.7626
vn -0.6469 -0.0013 -0.7626
vn -0.6469 -0.0013 -0.7626
vn -0.6469 -0.0013 -0.7626
vn -0.0016 1 -0.0002
vn -0.0016 1 -0.0002
vn -0.0016 1 -0.0002
vn 0.0008 1 -0.0009
vn 0.0008 1 -0.0009
vn 0.0008 1 -0.0009
vn -0.0097 0.9999 0.0033
vn -0.0097 0.9999 0.0033
vn -0.0097 0.9999 0.0033
vn -0.0002 1 -0.0016
vn -0.0002 1 -0.0016
vn -0.0002 1 -0.0016
vn -0.2688 -0.0009 -0.9632
vn -0.2688 -0.0009 -0.9632
vn -0.2688 -0.0009 -0.9632
vn -0.2688 -0.0009 -0.9632
vn -0.0002 1 -0.0006
vn -0.0002 1 -0.0006
vn -0.0002 1 -0.0006
vn 0.3341 -0.0002 0.9425
vn 0.3341 -0.0002 0.9425
vn 0.3341 -0.0002 0.9425
vn 0.3341 -0.0002 0.9425
vn -0.799 -0.001 0.6013
vn -0.799 -0.001 0.6013
vn -0.799 -0.001 0.6013
vn -0.799 -0.001 0.6013
vn 0.0043 1 -0.0023
vn 0.0043 1 -0.0023
vn 0.0043 1 -0.0023
vn 0.0023 1 -0.0041
vn 0.0023 1 -0.0041
vn 0.0023 1 -0.0041
vn 0.5875 -0.0009 -0.8092
vn 0.5875 -0.0009 -0.8092
vn 0.5875 -0.0009 -0.8092
vn 0.5875 -0.0009 -0.8092
vn 0.6893 -0.001 -0.7245
vn 0.6893 -0.001 -0.7245
vn 0.6893 -0.001 -0.7245
vn 0.6893 -0.001 -0.7245
vn 0.9807 -0.0018 -0.1955
vn 0.9807 -0.0018 -0.1955
vn 0.9807 -0.0018 -0.1955
vn 0.9807 -0.0018 -0.1955
vn -0.0003 1 -0
vn -0.0003 1 -0
vn -0.0003 1 -0
vn 0.9822 0.0027 0.188
vn 0.9822 0.0027 0.188
vn 0.9822 0.0027 0.188
vn 0.9822 0.0027 0.188
vn 0.063 -0.0012 0.998
vn 0.063 -0.0012 0.998
vn 0.063 -0.0012 0.998
vn 0.063 -0.0012 0.998
vn -0.0003 1 0.0008
vn -0.0003 1 0.0008
vn -0.0003 1 0.0008
vn 0.9436 -0.0017 0.3311
vn 0.9436 -0.0017 0.3311
vn 0.9436 -0.0017 0.3311
vn 0.9436 -0.0017 0.3311
vn 0.0003 1 0.0001
vn 0.0003 1 0.0001
vn 0.0003 1 0.0001
vn -0.3257 -0.0003 -0.9455
vn -0.3257 -0.0003 -0.9455
vn -0.3257 -0.0003 -0.9455
vn -0.3257 -0.0003 -0.9455
vn 0.9522 -0.0013 0.3055
vn 0.9522 -0.0013 0.3055
vn 0.9522 -0.0013 0.3055
vn 0.9522 -0.0013 0.3055
vn 0.0024 1 0.0054
vn 0.0024 1 0.0054
vn 0.0024 1 0.0054
vn 0.003 1 -0.002
vn 0.003 1 -0.002
vn 0.003 1 -0.002
vn -0.0003 1 -0
vn 0.0002 1 0.0001
vn 0.0002 1 0.0001
vn 0.0002 1 0.0001
vn 0.0002 1 0
vn 0.0002 1 0
vn 0.0002 1 0
vn 0.004 1 0.0031
vn 0.004 1 0.0031
vn 0.004 1 0.0031
vn 0.001 1 -0.0001
vn 0.001 1 -0.0001
vn 0.001 1 -0.0001
vn -0.3484 -0.0004 0.9373
vn -0.3484 -0.0004 0.9373
vn -0.3484 -0.0004 0.9373
vn -0.3484 -0.0004 0.9373
vn -0.0014 1 -0
vn -0.0014 1 -0
vn -0.0014 1 -0
vn 0.0964 -0.001 -0.9953
vn 0.0964 -0.001 -0.9953
vn 0.0964 -0.001 -0.9953
vn 0.0964 -0.001 -0.9953
vn 0.4868 -0.0007 0.8735
vn 0.4868 -0.0007 0.8735
vn 0.4868 -0.0007 0.8735
vn 0.4868 -0.0007 0.8735
vn 0.6408 -0.0012 0.7677
vn 0.6408 -0.0012 0.7677
vn 0.6408 -0.0012 0.7677
vn 0.6408 -0.0012 0.7677
vn 0.7791 0.0022 0.6269
vn 0.7791 0.0022 0.6269
vn 0.7791 0.0022 0.6269
vn 0.7791 0.0022 0.6269
vn -0.9268 -0.0014 -0.3756
vn -0.9268 -0.0014 -0.3756
vn -0.9268 -0.0014 -0.3756
vn -0.9268 -0.0014 -0.3756
vn 0.0002 1 0
vn 0.4226 0.0014 0.9063
vn 0.4226 0.0014 0.9063
vn 0.4226 0.0014 0.9063
vn 0.4226 0.0014 0.9063
vn -0.0011 1 0
vn -0.0011 1 0
vn -0.0011 1 0
vn 0.3517 -0.0003 -0.9361
vn 0.3517 -0.0003 -0.9361
vn 0.3517 -0.0003 -0.9361
vn 0.3517 -0.0003 -0.9361
vn -0.0003 1 -0.0001
vn -0.0003 1 -0.0001
vn -0.0003 1 -0.0001
vn 1 0 -0
vn 1 0 -0
vn 1 0 -0
vn 1 0 -0
vn -0 0 1
vn -0 0 1
vn -0 0 1
vn -0 0 1
vn -1 -0 -0
vn -1 -0 -0
vn -1 -0 -0
vn -1 -0 -0
vn -0 0 -1
vn -0 0 -1
vn -0 0 -1
vn -0 0 -1
f 3/3/3 2/2/2 1/1/1
f 6/6/6 5/5/5 4/4/4
f 7/7/7 6/6/6 4/4/4
f 10/10/10 9/9/9 8/8/8
f 11/11/11 10/10/10 8/8/8
f 14/14/14 13/13/13 12/12/12
f 15/15/15 14/14/14 12/12/12
f 18/18/18 17/17/17 16/16/16
f 19/19/19 18/18/18 16/16/16
f 22/22/22 21/21/21 20/20/20
f 23/23/23 22/22/22 20/20/20
f 26/26/26 25/25/25 24/24/24
f 27/27/27 26/26/26 24/24/24
f 30/30/30 29/29/29 28/28/28
f 33/33/33 32/32/32 31/31/31
f 36/36/36 35/35/35 34/34/34
f 39/39/39 38/38/38 37/37/37
f 40/40/40 39/39/39 37/37/37
f 43/43/43 42/42/42 41/41/41
f 44/44/44 43/43/43 41/41/41
f 47/47/47 46/46/46 45/45/45
f 50/50/50 49/49/49 48/48/48
f 53/53/53 52/52/52 51/51/51
f 56/56/56 55/55/55 54/54/54
f 59/59/59 58/58/58 57/57/57
f 60/60/60 59/59/59 57/57/57
f 63/63/63 62/62/62 61/61/61
f 66/66/66 65/65/65 64/64/64
f 67/67/67 66/66/66 64/64/64
f 70/70/70 69/69/69 68/68/68
f 71/71/71 70/70/70 68/68/68
f 74/74/74 73/73/73 72/72/72
f 77/77/77 76/76/76 75/75/75
f 80/80/80 79/79/79 78/78/78
f 81/81/81 80/80/80 78/78/78
f 84/84/84 83/83/83 82/82/82
f 85/85/85 84/84/84 82/82/82
f 88/88/88 87/87/87 86/86/86
f 89/89/89 88/88/88 86/86/86
f 92/92/92 91/91/91 90/90/90
f 125/125/125 91/91/91 92/92/92
f 95/95/95 94/94/94 93/93/93
f 96/96/96 95/95/95 93/93/93
f 99/99/99 98/98/98 97/97/97
f 100/100/100 99/99/99 97/97/97
f 103/103/103 102/102/102 101/101/101
f 106/106/106 105/105/105 104/104/104
f 107/107/107 106/106/106 104/104/104
f 110/110/110 109/109/109 108/108/108
f 113/113/113 112/112/112 111/111/111
f 114/114/114 113/113/113 111/111/111
f 117/117/117 116/116/116 115/115/115
f 118/118/118 117/117/117 115/115/115
f 121/121/121 120/120/120 119/119/119
f 124/124/124 123/123/123 122/122/122
f 128/128/128 127/127/127 126/126/126
f 131/131/131 130/130/130 129/129/129
f 130/130/130 165/165/165 129/129/129
f 134/134/134 133/133/133 132/132/132
f 137/137/137 136/136/136 135/135/135
f 140/140/140 139/139/139 138/138/138
f 141/141/141 140/140/140 138/138/138
f 144/144/144 143/143/143 142/142/142
f 147/147/147 146/146/146 145/145/145
f 148/148/148 147/147/147 145/145/145
f 151/151/151 150/150/150 149/149/149
f 152/152/152 151/151/151 149/149/149
f 155/155/155 154/154/154 153/153/153
f 156/156/156 155/155/155 153/153/153
f 159/159/159 158/158/158 157/157/157
f 160/160/160 159/159/159 157/157/157
f 163/163/163 162/162/162 161/161/161
f 164/164/164 163/163/163 161/161/161
f 168/168/168 167/167/167 166/166/166
f 169/169/169 168/168/168 166/166/166
f 172/172/172 171/171/171 170/170/170
f 175/175/175 174/174/174 173/173/173
f 176/176/176 175/175/175 173/173/173
f 179/179/179 178/178/178 177/177/177
f 182/182/182 181/181/181 180/180/180
f 183/183/183 182/182/182 180/180/180
f 186/186/186 185/185/185 184/184/184
f 187/187/187 186/186/186 184/184/184
f 190/190/190 189/189/189 188/188/188
f 191/191/191 190/190/190 188/188/188
f 194/194/194 193/193/193 192/192/192
f 195/195/195 194/194/194 192/192/192
