# VPXTOOL table OBJ file
# VPXTOOL OBJ file
# numVerts: 91 numFaces: 51
o p26off
v 0.151273 -0.047853 0.007456
v 0.151273 -0.005877 0.007456
v 0.171707 -0.005877 0.039462
v 0.171707 -0.047853 0.039462
v -0.106847 -0.047853 -0.220116
v -0.106847 -0.005877 -0.220116
v -0.087819 -0.005877 -0.220064
v -0.087819 -0.047853 -0.220064
v -0.123299 -0.047853 -0.210554
v -0.123299 -0.005877 -0.210554
v -0.106847 -0.005877 -0.220116
v -0.106847 -0.047853 -0.220116
v -0.216592 -0.005877 0.106027
v -0.216592 -0.047853 0.106027
v -0.218286 -0.047853 0.143957
v -0.218286 -0.005877 0.143957
v 0.162197 -0.005877 0.074942
v 0.128497 -0.005877 0.09244
v 0.128497 -0.047853 0.09244
v 0.162197 -0.047853 0.074942
v -0.216592 -0.047853 0.106027
v -0.216592 -0.005877 0.106027
v -0.140797 -0.005877 -0.176855
v -0.140797 -0.047853 -0.176855
v -0.192314 -0.047853 0.169929
v -0.192314 -0.005877 0.169929
v -0.208819 -0.005877 0.160462
v -0.208819 -0.047853 0.160462
v -0.055813 -0.047853 -0.19963
v -0.055813 -0.005877 -0.19963
v 0.151273 -0.005877 0.007456
v 0.151273 -0.047853 0.007456
v -0.154384 -0.047853 0.168235
v -0.154384 -0.005877 0.168235
v -0.192314 -0.005877 0.169929
v -0.192314 -0.047853 0.169929
v -0.208819 -0.047853 0.160462
v -0.208819 -0.005877 0.160462
v -0.218286 -0.005877 0.143957
v -0.218286 -0.047853 0.143957
v 0.128497 -0.005877 0.09244
v -0.154384 -0.005877 0.168235
v -0.154384 -0.047853 0.168235
v 0.128497 -0.047853 0.09244
v 0.171707 -0.047853 0.039462
v 0.171707 -0.005877 0.039462
v 0.171759 -0.005877 0.05849
v 0.171759 -0.047853 0.05849
v -0.087819 -0.005877 -0.220064
v -0.055813 -0.005877 -0.19963
v -0.055813 -0.047853 -0.19963
v -0.087819 -0.047853 -0.220064
v 0.171759 -0.047853 0.05849
v 0.171759 -0.005877 0.05849
v 0.162197 -0.005877 0.074942
v 0.162197 -0.047853 0.074942
v -0.055813 -0.047853 -0.19963
v 0.151273 -0.047853 0.007456
v 0.171707 -0.047853 0.039462
v 0.171759 -0.047853 0.05849
v 0.162197 -0.047853 0.074942
v 0.128497 -0.047853 0.09244
v -0.154384 -0.047853 0.168235
v -0.192314 -0.047853 0.169929
v -0.208819 -0.047853 0.160462
v -0.218286 -0.047853 0.143957
v -0.216592 -0.047853 0.106027
v -0.140797 -0.047853 -0.176855
v -0.123299 -0.047853 -0.210554
v -0.106847 -0.047853 -0.220116
v -0.087819 -0.047853 -0.220064
v -0.030378 -0.106929 0.04114
v -0.030378 -0.092786 0.04114
v -0.086951 -0.092786 0.04114
v -0.086951 -0.106929 0.04114
v -0.086951 -0.106929 0.072862
v -0.086951 -0.092786 0.072862
v -0.030378 -0.092786 0.072862
v -0.030378 -0.106929 0.072862
v -0.074525 -0.106929 0.028715
v -0.074525 -0.092786 0.028715
v -0.074525 -0.092786 0.085288
v -0.074525 -0.106929 0.085288
v -0.042803 -0.106929 0.085288
v -0.042803 -0.092786 0.085288
v -0.042803 -0.092786 0.028715
v -0.042803 -0.106929 0.028715
v -0.140797 -0.047853 -0.176855
v -0.140797 -0.005877 -0.176855
v -0.123299 -0.005877 -0.210554
v -0.123299 -0.047853 -0.210554
vt 0.093127 0.422562
vt 0.054387 0.421116
vt 0.002635 0.340055
vt 0.045339 0.34771204
vt 0.696787 0.95477903
vt 0.708137 0.9974939823
vt 0.659942 0.9973620176
vt 0.652285 0.95465797
vt 0.735261 0.932416975
vt 0.749804 0.97327602
vt 0.708137 0.9974939823
vt 0.696787 0.95477903
vt 0.98609 0.17146301
vt 0.953444 0.192038
vt 0.957405 0.10333198
vt 0.99038 0.075397015
vt 0.026721 0.250193
vt 0.112072 0.20587498
vt 0.146391 0.223813
vt 0.06758 0.264736
vt 0.953444 0.192038
vt 0.98609 0.17146301
vt 0.794122 0.88792503
vt 0.776184 0.85360599
vt 0.896665 0.04259199
vt 0.9246 0.009616971
vt 0.966403 0.033594012
vt 0.935265 0.06473303
vt 0.577435 0.90687102
vt 0.578881 0.945609987
vt 0.054387 0.421116
vt 0.093127 0.422562
vt 0.807959 0.046553016
vt 0.828534 0.013907015
vt 0.9246 0.009616971
vt 0.896665 0.04259199
vt 0.935265 0.06473303
vt 0.966403 0.033594012
vt 0.99038 0.075397015
vt 0.957405 0.10333198
vt 0.112072 0.20587498
vt 0.828534 0.013907015
vt 0.807959 0.046553016
vt 0.146391 0.223813
vt 0.045339 0.34771204
vt 0.002635 0.340055
vt 0.002503 0.29185998
vt 0.045218 0.30321002
vt 0.659942 0.9973620176
vt 0.578881 0.945609987
vt 0.577435 0.90687102
vt 0.652285 0.95465797
vt 0.045218 0.30321002
vt 0.002503 0.29185998
vt 0.026721 0.250193
vt 0.06758 0.264736
vt 0.577435 0.90687102
vt 0.093127 0.422562
vt 0.045339 0.34771204
vt 0.045218 0.30321002
vt 0.06758 0.264736
vt 0.146391 0.223813
vt 0.807959 0.046553016
vt 0.896665 0.04259199
vt 0.935265 0.06473303
vt 0.957405 0.10333198
vt 0.953444 0.192038
vt 0.776184 0.85360599
vt 0.735261 0.932416975
vt 0.696787 0.95477903
vt 0.652285 0.95465797
vt 0 0
vt 0 0
vt 0 0
vt 0 0
vt 0 0
vt 0 0
vt 0 0
vt 0 0
vt 0 0
vt 0 0
vt 0 0
vt 0 0
vt 0 0
vt 0 0
vt 0 0
vt 0 0
vt 0.776184 0.85360599
vt 0.794122 0.88792503
vt 0.749804 0.97327602
vt 0.735261 0.932416975
vn -0.8429 0 0.5381
vn -0.8429 0 0.5381
vn -0.8429 0 0.5381
vn -0.8429 0 0.5381
vn -0.0027 0 1
vn -0.0027 0 1
vn -0.0027 0 1
vn -0.0027 0 1
vn 0.5025 0 0.8646
vn 0.5025 0 0.8646
vn 0.5025 0 0.8646
vn 0.5025 0 0.8646
vn 0.999 0 0.0446
vn 0.999 0 0.0446
vn 0.999 0 0.0446
vn 0.999 0 0.0446
vn -0.4608 0 -0.8875
vn -0.4608 0 -0.8875
vn -0.4608 0 -0.8875
vn -0.4608 0 -0.8875
vn 0.9659 0 0.2588
vn 0.9659 0 0.2588
vn 0.9659 0 0.2588
vn 0.9659 0 0.2588
vn 0.4976 0 -0.8674
vn 0.4976 0 -0.8674
vn 0.4976 0 -0.8674
vn 0.4976 0 -0.8674
vn -0.7071 0 0.7071
vn -0.7071 0 0.7071
vn -0.7071 0 0.7071
vn -0.7071 0 0.7071
vn -0.0446 0 -0.999
vn -0.0446 0 -0.999
vn -0.0446 0 -0.999
vn -0.0446 0 -0.999
vn 0.8674 0 -0.4976
vn 0.8674 0 -0.4976
vn 0.8674 0 -0.4976
vn 0.8674 0 -0.4976
vn -0.2588 0 -0.9659
vn -0.2588 0 -0.9659
vn -0.2588 0 -0.9659
vn -0.2588 0 -0.9659
vn -1 0 0.0027
vn -1 0 0.0027
vn -1 0 0.0027
vn -1 0 0.0027
vn -0.5381 0 0.8429
vn -0.5381 0 0.8429
vn -0.5381 0 0.8429
vn -0.5381 0 0.8429
vn -0.8646 0 -0.5025
vn -0.8646 0 -0.5025
vn -0.8646 0 -0.5025
vn -0.8646 0 -0.5025
vn 0 1 -0
vn 0 1 -0
vn 0 1 -0
vn 0 1 -0
vn 0 1 -0
vn 0 1 -0
vn 0 1 -0
vn 0 1 -0
vn 0 1 -0
vn 0 1 -0
vn 0 1 -0
vn 0 1 -0
vn 0 1 -0
vn 0 1 -0
vn 0 1 -0
vn -0 -0 -1
vn -0 -0 -1
vn -0 -0 -1
vn -0 -0 -1
vn 0 0 1
vn 0 0 1
vn 0 0 1
vn 0 0 1
vn -1 0 0
vn -1 0 0
vn -1 0 0
vn -1 0 0
vn 1 -0 0
vn 1 -0 0
vn 1 -0 0
vn 1 -0 0
vn 0.8875 0 0.4608
vn 0.8875 0 0.4608
vn 0.8875 0 0.4608
vn 0.8875 0 0.4608
f 3/3/3 2/2/2 1/1/1
f 4/4/4 3/3/3 1/1/1
f 7/7/7 6/6/6 5/5/5
f 8/8/8 7/7/7 5/5/5
f 11/11/11 10/10/10 9/9/9
f 12/12/12 11/11/11 9/9/9
f 15/15/15 14/14/14 13/13/13
f 16/16/16 15/15/15 13/13/13
f 19/19/19 18/18/18 17/17/17
f 20/20/20 19/19/19 17/17/17
f 23/23/23 22/22/22 21/21/21
f 24/24/24 23/23/23 21/21/21
f 27/27/27 26/26/26 25/25/25
f 28/28/28 27/27/27 25/25/25
f 31/31/31 30/30/30 29/29/29
f 32/32/32 31/31/31 29/29/29
f 35/35/35 34/34/34 33/33/33
f 36/36/36 35/35/35 33/33/33
f 39/39/39 38/38/38 37/37/37
f 40/40/40 39/39/39 37/37/37
f 43/43/43 42/42/42 41/41/41
f 44/44/44 43/43/43 41/41/41
f 47/47/47 46/46/46 45/45/45
f 48/48/48 47/47/47 45/45/45
f 51/51/51 50/50/50 49/49/49
f 52/52/52 51/51/51 49/49/49
f 55/55/55 54/54/54 53/53/53
f 56/56/56 55/55/55 53/53/53
f 59/59/59 58/58/58 57/57/57
f 60/60/60 59/59/59 57/57/57
f 61/61/61 60/60/60 57/57/57
f 62/62/62 61/61/61 57/57/57
f 63/63/63 62/62/62 57/57/57
f 64/64/64 63/63/63 57/57/57
f 65/65/65 64/64/64 57/57/57
f 66/66/66 65/65/65 57/57/57
f 67/67/67 66/66/66 57/57/57
f 68/68/68 67/67/67 57/57/57
f 69/69/69 68/68/68 57/57/57
f 70/70/70 69/69/69 57/57/57
f 71/71/71 70/70/70 57/57/57
f 74/74/74 73/73/73 72/72/72
f 75/75/75 74/74/74 72/72/72
f 78/78/78 77/77/77 76/76/76
f 79/79/79 78/78/78 76/76/76
f 82/82/82 81/81/81 80/80/80
f 83/83/83 82/82/82 80/80/80
f 86/86/86 85/85/85 84/84/84
f 87/87/87 86/86/86 84/84/84
f 90/90/90 89/89/89 88/88/88
f 91/91/91 90/90/90 88/88/88
