# VPXTOOL table OBJ file
# VPXTOOL OBJ file
# numVerts: 608 numFaces: 1024
o PinCab_FlipperButtonLeft
v -690.0933 -327.1585 -7.604492
v -694.99963 -327.17905 -7.604492
v -694.99963 -327.1792 -7.602921
v -690.0933 -327.15906 -7.598914
v -694.99963 -327.17905 -7.604492
v -695.0842 -324.91013 -7.604492
v -695.0842 -324.9539 -7.160276
v -694.99963 -327.1792 -7.602921
v -695.2667 -323.2508 -7.604492
v -695.2667 -323.32642 -6.836554
v -695.5418 -321.83484 -7.604492
v -695.5418 -321.93768 -6.560317
v -695.904 -320.2961 -7.604492
v -695.904 -320.42853 -6.260126
v -695.9278 -320.19528 -7.604492
v -695.9278 -320.32965 -6.240458
v -695.9496 -320.0942 -7.604492
v -695.9496 -320.2305 -6.220738
v -695.9654 -319.99292 -7.604492
v -695.9654 -320.13116 -6.200976
v -695.97156 -319.89145 -7.604492
v -695.97156 -320.03165 -6.181182
v -695.97156 -319.8894 -7.604492
v -695.97156 -320.02963 -6.180781
v -695.91125 -319.59103 -7.604492
v -695.91125 -319.737 -6.122571
v -695.7469 -319.34714 -7.604492
v -695.7469 -319.4978 -6.074992
v -695.5032 -319.18253 -7.604492
v -695.5032 -319.33633 -6.042874
v -695.2049 -319.1219 -7.604492
v -695.2049 -319.27686 -6.031048
v -690.0781 -319.11603 -7.604492
v -690.0781 -319.27112 -6.029903
v -690.0781 -319.11603 -7.604492
v -690.0933 -327.1585 -7.604492
v -690.0933 -327.15906 -7.598914
v -690.0781 -319.27112 -6.029903
v -694.99963 -327.17966 -7.601409
v -690.0933 -327.16068 -7.593549
v -695.0842 -325.08344 -6.73313
v -694.99963 -327.17966 -7.601409
v -695.2667 -323.5504 -6.098127
v -695.5418 -322.24225 -5.556268
v -695.904 -320.82065 -4.967423
v -695.9278 -320.7275 -4.928842
v -695.9496 -320.63412 -4.89016
v -695.9654 -320.54056 -4.851397
v -695.97156 -320.4468 -4.812569
v -695.97156 -320.44492 -4.811783
v -695.91125 -320.16925 -4.6976
v -695.7469 -319.94394 -4.60427
v -695.5032 -319.79184 -4.541269
v -695.2049 -319.7358 -4.51807
v -690.0781 -319.7304 -4.515825
v -690.0933 -327.16068 -7.593549
v -690.0781 -319.7304 -4.515825
v -694.99963 -327.1804 -7.600016
v -690.0933 -327.16333 -7.588606
v -695.0842 -325.29385 -6.339471
v -694.99963 -327.1804 -7.600016
v -695.2667 -323.91418 -5.417589
v -695.5418 -322.73685 -4.630932
v -695.904 -321.45746 -3.776062
v -695.9278 -321.37363 -3.72005
v -695.9496 -321.28958 -3.663893
v -695.9654 -321.20535 -3.607617
v -695.9715 -321.121 -3.551248
v -695.9715 -321.1193 -3.550107
v -695.91125 -320.8712 -3.384339
v -695.7469 -320.66843 -3.248845
v -695.5032 -320.53152 -3.157381
v -695.2049 -320.48114 -3.123702
v -690.0781 -320.47626 -3.120443
v -690.0933 -327.16333 -7.588606
v -690.0781 -320.47626 -3.120443
v -694.99963 -327.1814 -7.598795
v -690.0933 -327.16687 -7.584272
v -695.0842 -325.57703 -5.994425
v -694.99963 -327.1814 -7.598795
v -695.2667 -324.40372 -4.821092
v -695.5418 -323.40247 -3.819868
v -695.904 -322.31442 -2.731824
v -695.9278 -322.24313 -2.660535
v -695.9496 -322.17166 -2.589061
v -695.9654 -322.10004 -2.517435
v -695.9715 -322.0283 -2.445691
v -695.9715 -322.02686 -2.444239
v -695.91125 -321.81586 -2.233256
v -695.7469 -321.6434 -2.060805
v -695.5032 -321.527 -1.944394
v -695.2049 -321.48413 -1.901528
v -690.0781 -321.47998 -1.89738
v -690.0933 -327.16687 -7.584272
v -690.0781 -321.47998 -1.89738
v -694.99963 -327.18262 -7.597794
v -690.0933 -327.1712 -7.580716
v -695.0842 -325.9221 -5.711254
v -694.99963 -327.18262 -7.597794
v -695.2667 -325.0002 -4.33156
v -695.5418 -324.21353 -3.154244
v -695.904 -323.35867 -1.874841
v -695.9278 -323.30267 -1.791014
v -695.9496 -323.2465 -1.706968
v -695.9654 -323.19022 -1.622746
v -695.9715 -323.13385 -1.538383
v -695.9715 -323.13272 -1.536676
v -695.91125 -322.96695 -1.288586
v -695.7469 -322.83145 -1.085805
v -695.5032 -322.74 -0.94892
v -695.2049 -322.7063 -0.898516
v -690.0781 -322.70306 -0.893638
v -690.0933 -327.1712 -7.580716
v -690.0781 -322.70306 -0.893638
v -694.99963 -327.18402 -7.597049
v -690.0933 -327.17615 -7.578074
v -695.0842 -326.31573 -5.500839
v -694.99963 -327.18402 -7.597049
v -695.2667 -325.68073 -3.967805
v -695.5418 -325.1389 -2.659643
v -695.904 -324.55005 -1.238045
v -695.9278 -324.51144 -1.144902
v -695.9496 -324.47278 -1.051516
v -695.9654 -324.43402 -0.957932
v -695.9715 -324.39517 -0.864194
v -695.9715 -324.3944 -0.862297
v -695.91125 -324.2802 -0.586634
v -695.7469 -324.1869 -0.361317
v -695.5032 -324.12387 -0.209218
v -695.2049 -324.10068 -0.153212
v -690.0781 -324.09845 -0.147791
v -690.0933 -327.17615 -7.578074
v -690.0781 -324.09845 -0.147791
v -694.99963 -327.18555 -7.59659
v -690.0933 -327.18152 -7.576447
v -695.0842 -326.7429 -5.371265
v -694.99963 -327.18555 -7.59659
v -695.2667 -326.41916 -3.743805
v -695.5418 -326.1429 -2.355067
v -695.904 -325.84274 -0.845907
v -695.9278 -325.82306 -0.747026
v -695.9496 -325.80334 -0.647889
v -695.9654 -325.7836 -0.548541
v -695.9715 -325.7638 -0.449029
v -695.9715 -325.7634 -0.447015
v -695.91125 -325.70517 -0.154373
v -695.7469 -325.6576 0.084823
v -695.5032 -325.6255 0.24629
v -695.2049 -325.61365 0.305746
v -690.0781 -325.61252 0.3115
v -690.0933 -327.18152 -7.576447
v -690.0781 -325.61252 0.3115
v -694.99963 -327.1871 -7.596436
v -690.0933 -327.1871 -7.575897
v -695.0842 -327.1871 -5.327514
v -694.99963 -327.1871 -7.596436
v -695.2667 -327.1871 -3.66817
v -695.5418 -327.1871 -2.252225
v -695.904 -327.1871 -0.713499
v -695.9278 -327.1871 -0.612681
v -695.9496 -327.1871 -0.511601
v -695.9654 -327.1871 -0.410306
v -695.9715 -327.1871 -0.308846
v -695.9715 -327.1871 -0.306792
v -695.91125 -327.1871 -0.008416
v -695.7469 -327.1871 0.235466
v -695.5032 -327.1871 0.400096
v -695.2049 -327.1871 0.460716
v -690.0781 -327.1871 0.466583
v -690.0933 -327.1871 -7.575897
v -690.0781 -327.1871 0.466583
v -694.99963 -327.18866 -7.596591
v -690.0933 -327.1927 -7.576447
v -695.0842 -327.63132 -5.371265
v -694.99963 -327.18866 -7.596591
v -695.2667 -327.95505 -3.743805
v -695.5418 -328.2313 -2.355067
v -695.904 -328.53146 -0.845908
v -695.9278 -328.55115 -0.747027
v -695.9496 -328.57086 -0.647889
v -695.9654 -328.5906 -0.548541
v -695.9715 -328.6104 -0.449029
v -695.9715 -328.6108 -0.447015
v -695.91125 -328.66904 -0.154373
v -695.7469 -328.7166 0.084823
v -695.5032 -328.74872 0.24629
v -695.2049 -328.76056 0.305745
v -690.0781 -328.7617 0.3115
v -690.0933 -327.1927 -7.576447
v -690.0781 -328.7617 0.3115
v -694.99963 -327.1902 -7.597049
v -690.0933 -327.19806 -7.578074
v -695.0842 -328.05847 -5.500838
v -694.99963 -327.1902 -7.597049
v -695.2667 -328.69348 -3.967805
v -695.5418 -329.23532 -2.659642
v -695.904 -329.82416 -1.238045
v -695.9278 -329.86276 -1.144901
v -695.9496 -329.90143 -1.051516
v -695.9654 -329.9402 -0.957932
v -695.9715 -329.97903 -0.864194
v -695.9715 -329.9798 -0.862297
v -695.91125 -330.094 -0.586634
v -695.7469 -330.18732 -0.361316
v -695.5032 -330.25034 -0.209217
v -695.2049 -330.27353 -0.153211
v -690.0781 -330.27576 -0.147791
v -690.0933 -327.19806 -7.578074
v -690.0781 -330.27576 -0.147791
v -694.99963 -327.1916 -7.597793
v -690.0933 -327.203 -7.580717
v -695.0842 -328.45212 -5.711254
v -694.99963 -327.1916 -7.597793
v -695.2667 -329.374 -4.33156
v -695.5418 -330.16068 -3.154245
v -695.904 -331.01553 -1.874841
v -695.9278 -331.07153 -1.791014
v -695.9496 -331.12772 -1.706969
v -695.9654 -331.184 -1.622746
v -695.9715 -331.24036 -1.538384
v -695.9715 -331.2415 -1.536676
v -695.91125 -331.40726 -1.288587
v -695.7469 -331.54276 -1.085806
v -695.5032 -331.63422 -0.948921
v -695.2049 -331.6679 -0.898517
v -690.0781 -331.67114 -0.893639
v -690.0933 -327.203 -7.580717
v -690.0781 -331.67114 -0.893639
v -694.99963 -327.1928 -7.598795
v -690.0933 -327.20734 -7.584273
v -695.0842 -328.79718 -5.994425
v -694.99963 -327.1928 -7.598795
v -695.2667 -329.9705 -4.821092
v -695.5418 -330.97174 -3.819868
v -695.904 -332.05978 -2.731824
v -695.9278 -332.13107 -2.660535
v -695.9496 -332.20255 -2.589061
v -695.9654 -332.27417 -2.517435
v -695.9715 -332.34592 -2.445691
v -695.9715 -332.34735 -2.444239
v -695.91125 -332.55835 -2.233255
v -695.7469 -332.7308 -2.060805
v -695.5032 -332.8472 -1.944394
v -695.2049 -332.89008 -1.901528
v -690.0781 -332.89423 -1.89738
v -690.0933 -327.20734 -7.584273
v -690.0781 -332.89423 -1.89738
v -694.99963 -327.19382 -7.600016
v -690.0933 -327.21088 -7.588606
v -695.0842 -329.08035 -6.339471
v -694.99963 -327.19382 -7.600016
v -695.2667 -330.46002 -5.417589
v -695.5418 -331.63736 -4.630932
v -695.904 -332.91675 -3.776062
v -695.9278 -333.00058 -3.72005
v -695.9496 -333.08463 -3.663893
v -695.9654 -333.16885 -3.607617
v -695.9715 -333.2532 -3.551248
v -695.9715 -333.2549 -3.550107
v -695.91125 -333.50302 -3.384339
v -695.7469 -333.70578 -3.248845
v -695.5032 -333.84268 -3.157382
v -695.2049 -333.89307 -3.123703
v -690.0781 -333.89795 -3.120444
v -690.0933 -327.21088 -7.588606
v -690.0781 -333.89795 -3.120444
v -694.99963 -327.19455 -7.601409
v -690.0933 -327.21353 -7.59355
v -695.0842 -329.29077 -6.73313
v -694.99963 -327.19455 -7.601409
v -695.2667 -330.8238 -6.098127
v -695.5418 -332.13196 -5.556269
v -695.904 -333.55356 -4.967424
v -695.9278 -333.6467 -4.928843
v -695.9496 -333.74008 -4.890162
v -695.9654 -333.83368 -4.851398
v -695.97156 -333.9274 -4.81257
v -695.97156 -333.9293 -4.811784
v -695.91125 -334.20496 -4.697601
v -695.7469 -334.43027 -4.604271
v -695.5032 -334.58237 -4.54127
v -695.2049 -334.6384 -4.518072
v -690.0781 -334.6438 -4.515827
v -690.0933 -327.21353 -7.59355
v -690.0781 -334.6438 -4.515827
v -694.99963 -327.195 -7.60292
v -690.0933 -327.21515 -7.598914
v -695.0842 -329.42032 -7.160275
v -694.99963 -327.195 -7.60292
v -695.2667 -331.0478 -6.836554
v -695.5418 -332.43652 -6.560317
v -695.904 -333.94568 -6.260126
v -695.9278 -334.04456 -6.240458
v -695.9496 -334.1437 -6.220737
v -695.9654 -334.24304 -6.200976
v -695.97156 -334.34256 -6.181182
v -695.97156 -334.34457 -6.180781
v -695.91125 -334.6372 -6.122571
v -695.7469 -334.8764 -6.074992
v -695.5032 -335.03787 -6.042874
v -695.2049 -335.09735 -6.031048
v -690.0781 -335.1031 -6.029904
v -690.0933 -327.21515 -7.598914
v -690.0781 -335.1031 -6.029904
v -694.99963 -327.19516 -7.604492
v -690.0933 -327.2157 -7.604493
v -695.0842 -329.46408 -7.604492
v -694.99963 -327.19516 -7.604492
v -695.2667 -331.1234 -7.604492
v -695.5418 -332.53937 -7.604493
v -695.904 -334.0781 -7.604493
v -695.9278 -334.17892 -7.604493
v -695.9496 -334.28 -7.604493
v -695.9654 -334.3813 -7.604493
v -695.97156 -334.48276 -7.604493
v -695.97156 -334.4848 -7.604493
v -695.91125 -334.78317 -7.604493
v -695.7469 -335.02707 -7.604493
v -695.5032 -335.19168 -7.604493
v -695.2049 -335.25232 -7.604493
v -690.0781 -335.25818 -7.604493
v -690.0933 -327.2157 -7.604493
v -690.0781 -335.25818 -7.604493
v -694.99963 -327.195 -7.606064
v -690.0933 -327.21515 -7.610071
v -695.0842 -329.42032 -8.048709
v -694.99963 -327.195 -7.606064
v -695.2667 -331.0478 -8.372431
v -695.5418 -332.43652 -8.648668
v -695.904 -333.94568 -8.948859
v -695.9278 -334.04456 -8.968528
v -695.9496 -334.1437 -8.988247
v -695.9654 -334.24304 -9.008009
v -695.97156 -334.34256 -9.027803
v -695.97156 -334.34457 -9.028204
v -695.91125 -334.6372 -9.086414
v -695.7469 -334.8764 -9.133993
v -695.5032 -335.03787 -9.166111
v -695.2049 -335.09735 -9.177938
v -690.0781 -335.1031 -9.179083
v -690.0933 -327.21515 -7.610071
v -690.0781 -335.1031 -9.179083
v -694.99963 -327.19455 -7.607575
v -690.0933 -327.21353 -7.615436
v -695.0842 -329.29077 -8.475854
v -694.99963 -327.19455 -7.607575
v -695.2667 -330.8238 -9.110857
v -695.5418 -332.13196 -9.652716
v -695.904 -333.55356 -10.241561
v -695.9278 -333.6467 -10.280142
v -695.9496 -333.74008 -10.318824
v -695.9654 -333.83368 -10.357588
v -695.97156 -333.9274 -10.396415
v -695.97156 -333.9293 -10.397201
v -695.91125 -334.20496 -10.511384
v -695.7469 -334.43027 -10.604713
v -695.5032 -334.58237 -10.667715
v -695.2049 -334.6384 -10.690914
v -690.0781 -334.6438 -10.693159
v -690.0933 -327.21353 -7.615436
v -690.0781 -334.6438 -10.693159
v -694.99963 -327.1938 -7.608968
v -690.0933 -327.21088 -7.620378
v -695.0842 -329.08035 -8.869514
v -694.99963 -327.1938 -7.608968
v -695.2667 -330.46002 -9.791395
v -695.5418 -331.63736 -10.578053
v -695.904 -332.91675 -11.432922
v -695.9278 -333.00058 -11.488935
v -695.9496 -333.08463 -11.545092
v -695.9654 -333.16885 -11.601368
v -695.97156 -333.2532 -11.657737
v -695.97156 -333.2549 -11.658877
v -695.91125 -333.50302 -11.824646
v -695.7469 -333.70578 -11.960139
v -695.5032 -333.84268 -12.051603
v -695.2049 -333.89307 -12.085282
v -690.0782 -333.89795 -12.088543
v -690.0933 -327.21088 -7.620378
v -690.0782 -333.89795 -12.088543
v -694.99963 -327.1928 -7.610189
v -690.0933 -327.20734 -7.624712
v -695.0842 -328.79718 -9.21456
v -694.99963 -327.1928 -7.610189
v -695.2667 -329.9705 -10.387893
v -695.5418 -330.97174 -11.389117
v -695.904 -332.05978 -12.47716
v -695.9278 -332.13107 -12.54845
v -695.9496 -332.20255 -12.619925
v -695.9654 -332.27417 -12.69155
v -695.97156 -332.34592 -12.763294
v -695.97156 -332.34735 -12.764746
v -695.91125 -332.55835 -12.975729
v -695.7469 -332.73077 -13.14818
v -695.5032 -332.8472 -13.264591
v -695.2049 -332.89008 -13.307457
v -690.0782 -332.89423 -13.311605
v -690.0933 -327.20734 -7.624712
v -690.0782 -332.89423 -13.311605
v -694.99963 -327.1916 -7.611191
v -690.0933 -327.203 -7.628268
v -695.0842 -328.45212 -9.497731
v -694.99963 -327.1916 -7.611191
v -695.2667 -329.374 -10.877424
v -695.5418 -330.16068 -12.054741
v -695.904 -331.01553 -13.334145
v -695.9278 -331.07153 -13.417971
v -695.9496 -331.1277 -13.502016
v -695.9654 -331.184 -13.58624
v -695.97156 -331.24036 -13.670602
v -695.97156 -331.2415 -13.672309
v -695.91125 -331.40726 -13.920399
v -695.7469 -331.54276 -14.123179
v -695.5032 -331.63422 -14.260065
v -695.2049 -331.66788 -14.310469
v -690.0782 -331.67114 -14.315348
v -690.0933 -327.203 -7.628268
v -690.0782 -331.67114 -14.315348
v -694.99963 -327.1902 -7.611936
v -690.0933 -327.19806 -7.630911
v -695.0842 -328.05847 -9.708146
v -694.99963 -327.1902 -7.611936
v -695.2667 -328.69348 -11.24118
v -695.5418 -329.23532 -12.549343
v -695.904 -329.82416 -13.97094
v -695.9278 -329.86276 -14.064084
v -695.9496 -329.90143 -14.15747
v -695.9654 -329.9402 -14.251054
v -695.97156 -329.97903 -14.344791
v -695.97156 -329.9798 -14.346689
v -695.91125 -330.094 -14.622352
v -695.7469 -330.18732 -14.84767
v -695.5032 -330.25034 -14.999768
v -695.2049 -330.27353 -15.055775
v -690.0782 -330.27576 -15.061195
v -690.0933 -327.19806 -7.630911
v -690.0782 -330.27576 -15.061195
v -694.99963 -327.18866 -7.612394
v -690.0933 -327.1927 -7.632538
v -695.0842 -327.63132 -9.837719
v -694.99963 -327.18866 -7.612394
v -695.2667 -327.95505 -11.465178
v -695.5418 -328.2313 -12.853916
v -695.904 -328.53146 -14.363076
v -695.9278 -328.55115 -14.461957
v -695.9496 -328.57086 -14.561094
v -695.9654 -328.5906 -14.660442
v -695.97156 -328.6104 -14.759954
v -695.97156 -328.6108 -14.761969
v -695.91125 -328.66904 -15.054611
v -695.7469 -328.7166 -15.293806
v -695.5032 -328.74872 -15.455274
v -695.2049 -328.76056 -15.514729
v -690.0782 -328.7617 -15.520484
v -690.0933 -327.1927 -7.632538
v -690.0782 -328.7617 -15.520484
v -694.99963 -327.1871 -7.612549
v -690.0933 -327.1871 -7.633087
v -695.0842 -327.1871 -9.881471
v -694.99963 -327.1871 -7.612549
v -695.2667 -327.1871 -11.540814
v -695.5418 -327.1871 -12.956758
v -695.904 -327.1871 -14.495485
v -695.9278 -327.1871 -14.596303
v -695.9496 -327.1871 -14.697383
v -695.9654 -327.1871 -14.798677
v -695.97156 -327.1871 -14.900139
v -695.97156 -327.1871 -14.902192
v -695.91125 -327.1871 -15.200567
v -695.7469 -327.1871 -15.444449
v -695.5032 -327.1871 -15.60908
v -695.2049 -327.1871 -15.669701
v -690.0782 -327.1871 -15.675568
v -690.0933 -327.1871 -7.633087
v -690.0782 -327.1871 -15.675568
v -694.99963 -327.18555 -7.612394
v -690.0933 -327.18152 -7.632538
v -695.0842 -326.7429 -9.837719
v -694.99963 -327.18555 -7.612394
v -695.2667 -326.41916 -11.465178
v -695.5418 -326.1429 -12.853916
v -695.904 -325.84274 -14.363076
v -695.9278 -325.82306 -14.461957
v -695.9496 -325.80334 -14.561095
v -695.9654 -325.7836 -14.660443
v -695.97156 -325.7638 -14.759954
v -695.97156 -325.7634 -14.761969
v -695.91125 -325.70517 -15.054611
v -695.7469 -325.6576 -15.293807
v -695.5032 -325.6255 -15.455275
v -695.2049 -325.61365 -15.514729
v -690.0782 -325.61252 -15.520484
v -690.0933 -327.18152 -7.632538
v -690.0782 -325.61252 -15.520484
v -694.99963 -327.18402 -7.611936
v -690.0933 -327.17615 -7.63091
v -695.0842 -326.31573 -9.708146
v -694.99963 -327.18402 -7.611936
v -695.2667 -325.68073 -11.241179
v -695.5418 -325.1389 -12.549341
v -695.904 -324.55002 -13.970939
v -695.9278 -324.51144 -14.064083
v -695.9496 -324.47278 -14.157469
v -695.9654 -324.43402 -14.251053
v -695.97156 -324.39517 -14.34479
v -695.97156 -324.39438 -14.346687
v -695.91125 -324.2802 -14.622351
v -695.7469 -324.1869 -14.847668
v -695.5032 -324.12387 -14.999766
v -695.2049 -324.10068 -15.055773
v -690.0782 -324.09845 -15.061193
v -690.0933 -327.17615 -7.63091
v -690.0782 -324.09845 -15.061193
v -694.99963 -327.18262 -7.611191
v -690.0933 -327.1712 -7.628268
v -695.0842 -325.9221 -9.49773
v -694.99963 -327.18262 -7.611191
v -695.2667 -325.0002 -10.877424
v -695.5418 -324.21353 -12.054739
v -695.904 -323.35867 -13.334143
v -695.9278 -323.30267 -13.417969
v -695.9496 -323.2465 -13.502014
v -695.9654 -323.19022 -13.586238
v -695.97156 -323.13385 -13.6706
v -695.97156 -323.13272 -13.672307
v -695.91125 -322.96695 -13.920397
v -695.7469 -322.83145 -14.123178
v -695.5032 -322.74 -14.260063
v -695.2049 -322.7063 -14.310467
v -690.0782 -322.70306 -14.315345
v -690.0933 -327.1712 -7.628268
v -690.0782 -322.70306 -14.315345
v -694.99963 -327.1814 -7.610189
v -690.0933 -327.16687 -7.624712
v -695.0842 -325.57703 -9.214559
v -694.99963 -327.1814 -7.610189
v -695.2667 -324.40372 -10.387892
v -695.5418 -323.40247 -11.389115
v -695.904 -322.31442 -12.477159
v -695.9278 -322.24313 -12.548448
v -695.9496 -322.17166 -12.619922
v -695.9654 -322.10004 -12.691547
v -695.97156 -322.0283 -12.763292
v -695.97156 -322.02686 -12.764744
v -695.91125 -321.81586 -12.975727
v -695.7469 -321.6434 -13.148177
v -695.5032 -321.527 -13.264589
v -695.2049 -321.48413 -13.307454
v -690.0782 -321.47998 -13.311603
v -690.0933 -327.16687 -7.624712
v -690.0782 -321.47998 -13.311603
v -694.99963 -327.1804 -7.608968
v -690.0933 -327.16333 -7.620378
v -695.0842 -325.29385 -8.869514
v -694.99963 -327.1804 -7.608968
v -695.2667 -323.91418 -9.791395
v -695.5418 -322.73685 -10.578053
v -695.904 -321.45746 -11.432923
v -695.9278 -321.37363 -11.488935
v -695.9496 -321.28958 -11.545092
v -695.9654 -321.20535 -11.601368
v -695.97156 -321.121 -11.657737
v -695.97156 -321.1193 -11.658877
v -695.91125 -320.8712 -11.824646
v -695.7469 -320.66843 -11.96014
v -695.5032 -320.53152 -12.051603
v -695.2049 -320.48114 -12.085282
v -690.0782 -320.47626 -12.088542
v -690.0933 -327.16333 -7.620378
v -690.0782 -320.47626 -12.088542
v -694.99963 -327.17966 -7.607575
v -690.0933 -327.16068 -7.615435
v -695.0842 -325.08344 -8.475854
v -694.99963 -327.17966 -7.607575
v -695.2667 -323.5504 -9.110857
v -695.5418 -322.24225 -9.652716
v -695.904 -320.82065 -10.241561
v -695.9278 -320.7275 -10.280142
v -695.9496 -320.63412 -10.318824
v -695.9654 -320.54053 -10.357588
v -695.97156 -320.4468 -10.396416
v -695.97156 -320.44492 -10.397202
v -695.91125 -320.16925 -10.511385
v -695.7469 -319.94394 -10.604713
v -695.5032 -319.79184 -10.667715
v -695.2049 -319.7358 -10.690914
v -690.0781 -319.7304 -10.693159
v -690.0933 -327.16068 -7.615435
v -690.0781 -319.7304 -10.693159
v -694.99963 -327.1792 -7.606064
v -690.0933 -327.15906 -7.610071
v -695.0842 -324.9539 -8.048708
v -694.99963 -327.1792 -7.606064
v -695.2667 -323.32642 -8.37243
v -695.5418 -321.93768 -8.648667
v -695.904 -320.42853 -8.948857
v -695.9278 -320.32965 -8.968526
v -695.9496 -320.2305 -8.988246
v -695.9654 -320.13116 -9.008007
v -695.97156 -320.03165 -9.027802
v -695.97156 -320.02963 -9.028202
v -695.91125 -319.73697 -9.086412
v -695.7469 -319.4978 -9.133991
v -695.5032 -319.33633 -9.166109
v -695.2049 -319.27686 -9.177936
v -690.0781 -319.27112 -9.17908
v -690.0933 -327.15906 -7.610071
v -690.0781 -319.27112 -9.17908
vt 0.002574 0.50177097
vt 0.835092 0.500499
vt 0.835092 0.500489
vt 0.002574 0.501737
vt 0.835092 0.500499
vt 0.84944 0.64105803
vt 0.84944 0.63834703
vt 0.835092 0.500489
vt 0.88041 0.743854
vt 0.88041 0.739168
vt 0.927083 0.83157098
vt 0.927083 0.82520002
vt 0.988539 0.92689401
vt 0.988539 0.91869199
vt 0.992584 0.93313998
vt 0.992584 0.924817026
vt 0.996273 0.939401984
vt 0.996273 0.93095899
vt 0.99896 0.945676982
vt 0.99896 0.93711299
vt 1 0.951961994
vt 1 0.943278015
vt 1 0.952090025
vt 1 0.943403006
vt 0.989772 0.970574021
vt 0.989772 0.961531997
vt 0.961884 0.985682011
vt 0.961884 0.97635001
vt 0.920534 0.995881021
vt 0.920534 0.98635298
vt 0.869917 0.99963599443
vt 0.869917 0.990036011
vt 0.000001 1
vt 0.000001 0.990392983
vt 0.000001 1
vt 0.002574 0.50177097
vt 0.002574 0.501737
vt 0.000001 0.990392983
vt 0.835092 0.50046098
vt 0.002574 0.50163698
vt 0.84944 0.63032
vt 0.835092 0.50046098
vt 0.88041 0.725291
vt 0.927083 0.80633098
vt 0.988539 0.89439899
vt 0.992584 0.900169015
vt 0.996273 0.905954
vt 0.99896 0.911751986
vt 1 0.91755903
vt 1 0.91767597
vt 0.989772 0.934754014
vt 0.961884 0.94871199
vt 0.920534 0.958133996
vt 0.869917 0.961604
vt 0.000001 0.96193999
vt 0.002574 0.50163698
vt 0.000001 0.96193999
vt 0.835092 0.50041503
vt 0.002574 0.501473
vt 0.84944 0.617285
vt 0.835092 0.50041503
vt 0.88041 0.702757
vt 0.927082 0.77569097
vt 0.988539 0.85495001
vt 0.992584 0.860143
vt 0.996273 0.865349
vt 0.99896 0.87056702
vt 1 0.87579298
vt 1 0.87589902
vt 0.989772 0.891268015
vt 0.961884 0.90382999
vt 0.920534 0.912310004
vt 0.869917 0.91543299
vt 0.000001 0.91573501
vt 0.002574 0.501473
vt 0.000001 0.91573501
vt 0.835092 0.50035298
vt 0.002574 0.501253
vt 0.84944 0.599743
vt 0.835092 0.50035298
vt 0.88041 0.672431
vt 0.927082 0.734456
vt 0.988539 0.80185997
vt 0.992583 0.80627602
vt 0.996273 0.810704
vt 0.99896 0.81514102
vt 1 0.81958598
vt 1 0.81967598
vt 0.989772 0.83274603
vt 0.961884 0.84342903
vt 0.920534 0.85064101
vt 0.869917 0.85329598
vt 0.000001 0.853553
vt 0.002574 0.501253
vt 0.000001 0.853553
vt 0.835092 0.50027698
vt 0.002574 0.500984
vt 0.84944 0.578367
vt 0.835092 0.50027698
vt 0.88041 0.63547802
vt 0.927082 0.68421102
vt 0.988539 0.73716998
vt 0.992583 0.74063998
vt 0.996273 0.744119
vt 0.99896 0.74760503
vt 1 0.75109702
vt 1 0.751167
vt 0.989771 0.761437
vt 0.961884 0.769831
vt 0.920534 0.77549702
vt 0.869917 0.777583
vt 0 0.777785
vt 0.002574 0.500984
vt 0 0.777785
vt 0.835092 0.50019097
vt 0.002574 0.500678
vt 0.84944 0.55398
vt 0.835092 0.50019097
vt 0.88041 0.593319
vt 0.927082 0.62688702
vt 0.988539 0.663365
vt 0.992583 0.66575497
vt 0.996273 0.66815197
vt 0.99896 0.67055303
vt 1 0.67295802
vt 1 0.673007
vt 0.989771 0.680081
vt 0.961884 0.68586302
vt 0.920534 0.68976498
vt 0.869916 0.691203
vt 0 0.691342
vt 0.002574 0.500678
vt 0 0.691342
vt 0.835092 0.50009698
vt 0.002574 0.500346
vt 0.84944 0.527519
vt 0.835092 0.50009698
vt 0.88041 0.54757297
vt 0.927082 0.564686
vt 0.988539 0.583283
vt 0.992583 0.58450103
vt 0.996273 0.58572298
vt 0.99896 0.58694702
vt 1 0.58817297
vt 1 0.588198
vt 0.989771 0.59180403
vt 0.961884 0.594752
vt 0.920534 0.59674102
vt 0.869916 0.59747398
vt 0 0.59754503
vt 0.002574 0.500346
vt 0 0.59754503
vt 0.835092 0.5
vt 0.002574 0.5
vt 0.84944 0.5
vt 0.835092 0.5
vt 0.88041 0.5
vt 0.927082 0.5
vt 0.988539 0.5
vt 0.992583 0.5
vt 0.996273 0.5
vt 0.99896 0.5
vt 1 0.5
vt 1 0.5
vt 0.989771 0.5
vt 0.961884 0.5
vt 0.920533 0.5
vt 0.869916 0.5
vt 0 0.5
vt 0.002574 0.5
vt 0 0.5
vt 0.835092 0.49990296
vt 0.002574 0.499654
vt 0.84944 0.472481
vt 0.835092 0.49990296
vt 0.88041 0.45242596
vt 0.927082 0.435314
vt 0.988539 0.416717
vt 0.992583 0.41549897
vt 0.996272 0.41427696
vt 0.99896 0.41305304
vt 1 0.411826
vt 1 0.411802
vt 0.989771 0.40819597
vt 0.961884 0.405248
vt 0.920533 0.40325797
vt 0.869916 0.40252602
vt 0 0.40245497
vt 0.002574 0.499654
vt 0 0.40245497
vt 0.835092 0.49980903
vt 0.002574 0.499322
vt 0.84944 0.446019
vt 0.835092 0.49980903
vt 0.88041 0.406681
vt 0.927082 0.37311304
vt 0.988539 0.336635
vt 0.992583 0.334244
vt 0.996272 0.33184803
vt 0.99896 0.32944703
vt 1 0.32704103
vt 1 0.326993
vt 0.989771 0.319919
vt 0.961884 0.31413698
vt 0.920533 0.310234
vt 0.869916 0.308797
vt 0 0.308658
vt 0.002574 0.499322
vt 0 0.308658
vt 0.835092 0.49972296
vt 0.002574 0.499016
vt 0.84944 0.421632
vt 0.835092 0.49972296
vt 0.88041 0.36452198
vt 0.927082 0.31578898
vt 0.988539 0.26283002
vt 0.992583 0.25935996
vt 0.996272 0.255881
vt 0.99896 0.25239503
vt 1 0.24890304
vt 1 0.24883199
vt 0.989771 0.238563
vt 0.961884 0.230169
vt 0.920533 0.22450298
vt 0.869916 0.222417
vt 0 0.222215
vt 0.002574 0.499016
vt 0 0.222215
vt 0.835092 0.49964702
vt 0.002574 0.498747
vt 0.84944 0.400257
vt 0.835092 0.49964702
vt 0.88041 0.327569
vt 0.927082 0.265544
vt 0.988539 0.19814003
vt 0.992583 0.19372404
vt 0.996272 0.189296
vt 0.99896 0.18485898
vt 1 0.18041402
vt 1 0.18032402
vt 0.989771 0.16725397
vt 0.961884 0.15657103
vt 0.920533 0.14935899
vt 0.869916 0.14670402
vt 0 0.146447
vt 0.002574 0.498747
vt 0 0.146447
vt 0.835092 0.49958503
vt 0.002574 0.498527
vt 0.84944 0.382715
vt 0.835092 0.49958503
vt 0.88041 0.297243
vt 0.927082 0.22430897
vt 0.988539 0.14504999
vt 0.992583 0.139857
vt 0.996272 0.134651
vt 0.99896 0.12943304
vt 0.999999 0.12420702
vt 0.999999 0.12410098
vt 0.989771 0.108731985
vt 0.961884 0.09617001
vt 0.920533 0.087689996
vt 0.869916 0.08456701
vt -0 0.08426499
vt 0.002574 0.498527
vt -0 0.08426499
vt 0.835092 0.49953902
vt 0.002574 0.49836302
vt 0.84944 0.36967897
vt 0.835092 0.49953902
vt 0.88041 0.274709
vt 0.927082 0.19366801
vt 0.988539 0.10560101
vt 0.992583 0.099830985
vt 0.996272 0.09404498
vt 0.99896 0.088248014
vt 0.999999 0.08244097
vt 0.999999 0.082323015
vt 0.989771 0.065245986
vt 0.961884 0.05128801
vt 0.920533 0.04186499
vt 0.869916 0.038396
vt 0 0.03806001
vt 0.002574 0.49836302
vt 0 0.03806001
vt 0.835092 0.49951
vt 0.002574 0.498263
vt 0.84944 0.36165202
vt 0.835092 0.49951
vt 0.88041 0.260832
vt 0.927082 0.17479998
vt 0.988539 0.08130801
vt 0.992583 0.075182974
vt 0.996272 0.06904101
vt 0.99896 0.062886
vt 0.999999 0.056721985
vt 0.999999 0.056596994
vt 0.989771 0.038468003
vt 0.961884 0.02364999
vt 0.920533 0.01364702
vt 0.869916 0.009963989
vt -0 0.009607017
vt 0.002574 0.498263
vt -0 0.009607017
vt 0.835092 0.499501
vt 0.002574 0.49822903
vt 0.84944 0.35894203
vt 0.835092 0.499501
vt 0.88041 0.256146
vt 0.927082 0.16842902
vt 0.988539 0.07310599
vt 0.992583 0.06686002
vt 0.996272 0.060598016
vt 0.99896 0.054323018
vt 0.999999 0.048036993
vt 0.999999 0.047909975
vt 0.989771 0.029425979
vt 0.961884 0.014317989
vt 0.920533 0.004118979
vt 0.869916 0.0003629923
vt -0 0
vt 0.002574 0.49822903
vt -0 0
vt 0.835092 0.49951
vt 0.002574 0.498263
vt 0.84944 0.36165202
vt 0.835092 0.49951
vt 0.88041 0.260832
vt 0.927082 0.17479998
vt 0.988539 0.08130801
vt 0.992583 0.075182974
vt 0.996272 0.06904101
vt 0.99896 0.062886
vt 0.999999 0.056721985
vt 0.999999 0.056596994
vt 0.989771 0.038468003
vt 0.961884 0.02364999
vt 0.920533 0.01364702
vt 0.869916 0.009963989
vt -0 0.009607017
vt 0.002574 0.498263
vt -0 0.009607017
vt 0.835092 0.49953902
vt 0.002574 0.49836302
vt 0.84944 0.36967897
vt 0.835092 0.49953902
vt 0.88041 0.274709
vt 0.927082 0.19366801
vt 0.988539 0.10560101
vt 0.992583 0.099830985
vt 0.996272 0.094046
vt 0.99896 0.088248014
vt 0.999999 0.08244097
vt 0.999999 0.082323015
vt 0.989771 0.065245986
vt 0.961884 0.05128801
vt 0.920533 0.04186499
vt 0.869916 0.038396
vt 0 0.03806001
vt 0.002574 0.49836302
vt 0 0.03806001
vt 0.835092 0.49958503
vt 0.002574 0.498527
vt 0.84944 0.382715
vt 0.835092 0.49958503
vt 0.88041 0.297243
vt 0.927082 0.22430897
vt 0.988539 0.14504999
vt 0.992583 0.139857
vt 0.996272 0.134651
vt 0.99896 0.12943304
vt 1 0.12420702
vt 1 0.12410098
vt 0.989771 0.108731985
vt 0.961884 0.09617001
vt 0.920533 0.087689996
vt 0.869916 0.08456701
vt 0 0.08426499
vt 0.002574 0.498527
vt 0 0.08426499
vt 0.835092 0.49964702
vt 0.002574 0.498747
vt 0.84944 0.400257
vt 0.835092 0.49964702
vt 0.88041 0.327569
vt 0.927082 0.265544
vt 0.988539 0.19814003
vt 0.992583 0.19372404
vt 0.996272 0.189296
vt 0.99896 0.18485898
vt 1 0.18041402
vt 1 0.18032402
vt 0.989771 0.16725397
vt 0.961884 0.15657103
vt 0.920533 0.14935899
vt 0.869916 0.14670402
vt 0 0.146447
vt 0.002574 0.498747
vt 0 0.146447
vt 0.835092 0.49972296
vt 0.002574 0.499016
vt 0.84944 0.421632
vt 0.835092 0.49972296
vt 0.88041 0.36452198
vt 0.927082 0.31578898
vt 0.988539 0.26283002
vt 0.992583 0.25935996
vt 0.996272 0.255881
vt 0.99896 0.25239503
vt 1 0.24890304
vt 1 0.24883199
vt 0.989771 0.238563
vt 0.961884 0.230169
vt 0.920533 0.22450298
vt 0.869916 0.222417
vt 0 0.222215
vt 0.002574 0.499016
vt 0 0.222215
vt 0.835092 0.49980903
vt 0.002574 0.499322
vt 0.84944 0.446019
vt 0.835092 0.49980903
vt 0.88041 0.406681
vt 0.927082 0.37311304
vt 0.988539 0.336635
vt 0.992583 0.33424497
vt 0.996273 0.33184803
vt 0.99896 0.32944703
vt 1 0.32704198
vt 1 0.326993
vt 0.989771 0.319919
vt 0.961884 0.31413698
vt 0.920533 0.31023502
vt 0.869916 0.308797
vt 0 0.308658
vt 0.002574 0.499322
vt 0 0.308658
vt 0.835092 0.49990296
vt 0.002574 0.499654
vt 0.84944 0.472481
vt 0.835092 0.49990296
vt 0.88041 0.45242596
vt 0.927082 0.435314
vt 0.988539 0.416717
vt 0.992583 0.41549802
vt 0.996273 0.41427696
vt 0.99896 0.41305304
vt 1 0.411826
vt 1 0.411802
vt 0.989771 0.40819502
vt 0.961884 0.405248
vt 0.920534 0.40325797
vt 0.869916 0.40252602
vt 0 0.40245497
vt 0.002574 0.499654
vt 0 0.40245497
vt 0.835092 0.5
vt 0.002574 0.5
vt 0.84944 0.5
vt 0.835092 0.5
vt 0.88041 0.5
vt 0.927082 0.5
vt 0.988539 0.5
vt 0.992583 0.5
vt 0.996273 0.5
vt 0.99896 0.5
vt 1 0.5
vt 1 0.5
vt 0.989771 0.5
vt 0.961884 0.5
vt 0.920534 0.5
vt 0.869916 0.5
vt 0 0.5
vt 0.002574 0.5
vt 0 0.5
vt 0.835092 0.50009698
vt 0.002574 0.500346
vt 0.84944 0.527519
vt 0.835092 0.50009698
vt 0.88041 0.54757297
vt 0.927082 0.564686
vt 0.988539 0.583283
vt 0.992583 0.58450103
vt 0.996273 0.58572298
vt 0.99896 0.58694702
vt 1 0.58817297
vt 1 0.588198
vt 0.989772 0.59180403
vt 0.961884 0.594752
vt 0.920534 0.59674197
vt 0.869917 0.59747398
vt 0 0.59754503
vt 0.002574 0.500346
vt 0 0.59754503
vt 0.835092 0.50019097
vt 0.002574 0.500678
vt 0.84944 0.55398
vt 0.835092 0.50019097
vt 0.88041 0.593319
vt 0.927082 0.62688702
vt 0.988539 0.663365
vt 0.992583 0.665756
vt 0.996273 0.66815197
vt 0.99896 0.67055303
vt 1 0.67295903
vt 1 0.673007
vt 0.989772 0.680081
vt 0.961884 0.68586302
vt 0.920534 0.689766
vt 0.869917 0.691203
vt 0.000001 0.691342
vt 0.002574 0.500678
vt 0.000001 0.691342
vt 0.835092 0.50027698
vt 0.002574 0.500984
vt 0.84944 0.578368
vt 0.835092 0.50027698
vt 0.88041 0.63547802
vt 0.927083 0.68421102
vt 0.988539 0.73716998
vt 0.992584 0.74063998
vt 0.996273 0.744119
vt 0.99896 0.74760503
vt 1 0.75109702
vt 1 0.75116801
vt 0.989772 0.761437
vt 0.961884 0.769831
vt 0.920534 0.77549702
vt 0.869917 0.777583
vt 0.000001 0.777785
vt 0.002574 0.500984
vt 0.000001 0.777785
vt 0.835092 0.50035298
vt 0.002574 0.501253
vt 0.84944 0.599743
vt 0.835092 0.50035298
vt 0.88041 0.672431
vt 0.927083 0.734456
vt 0.988539 0.80185997
vt 0.992584 0.80627602
vt 0.996273 0.810704
vt 0.99896 0.81514102
vt 1 0.81958598
vt 1 0.81967598
vt 0.989772 0.83274603
vt 0.961884 0.84342903
vt 0.920534 0.85064101
vt 0.869917 0.85329598
vt 0.000001 0.85355401
vt 0.002574 0.501253
vt 0.000001 0.85355401
vt 0.835092 0.50041503
vt 0.002574 0.501473
vt 0.84944 0.617285
vt 0.835092 0.50041503
vt 0.88041 0.702757
vt 0.927083 0.77569097
vt 0.988539 0.85495001
vt 0.992584 0.860143
vt 0.996273 0.865349
vt 0.99896 0.87056702
vt 1 0.87579298
vt 1 0.87589902
vt 0.989772 0.891268015
vt 0.961884 0.90382999
vt 0.920534 0.912310004
vt 0.869917 0.91543299
vt 0.000001 0.91573501
vt 0.002574 0.501473
vt 0.000001 0.91573501
vt 0.835092 0.50046098
vt 0.002574 0.50163698
vt 0.84944 0.63032
vt 0.835092 0.50046098
vt 0.88041 0.725291
vt 0.927083 0.80633199
vt 0.988539 0.89439899
vt 0.992584 0.900169015
vt 0.996273 0.905954
vt 0.99896 0.911751986
vt 1 0.91755903
vt 1 0.91767597
vt 0.989772 0.934754014
vt 0.961884 0.94871199
vt 0.920534 0.958133996
vt 0.869917 0.961604
vt 0.000001 0.96193999
vt 0.002574 0.50163698
vt 0.000001 0.96193999
vt 0.835092 0.500489
vt 0.002574 0.501737
vt 0.84944 0.63834798
vt 0.835092 0.500489
vt 0.88041 0.739168
vt 0.927083 0.82520002
vt 0.988539 0.91869199
vt 0.992584 0.924817026
vt 0.996273 0.93095899
vt 0.99896 0.93711299
vt 1 0.943278015
vt 1 0.943403006
vt 0.989772 0.961531997
vt 0.961884 0.97635001
vt 0.920534 0.98635298
vt 0.869917 0.990036011
vt 0.000001 0.990392983
vt 0.002574 0.501737
vt 0.000001 0.990392983
vn 0.004186 -0.999991 -0.000001
vn 0.004186 -0.999991 -0.000138
vn 0.004186 -0.980751 -0.195219
vn 0.004186 -0.980775 -0.195095
vn -0.999306 -0.037242 -0.000006
vn -0.99714 -0.075581 0
vn -0.99714 -0.074129 -0.014745
vn -0.999306 -0.036525 -0.007269
vn -0.98828 -0.152652 -0
vn -0.98828 -0.149719 -0.029781
vn -0.97746 -0.21112 -0
vn -0.97746 -0.207063 -0.041188
vn -0.973278 -0.22963 -0
vn -0.973278 -0.225218 -0.044799
vn -0.975591 -0.219595 -0
vn -0.975591 -0.215376 -0.042841
vn -0.98353 -0.180748 -0
vn -0.98353 -0.177275 -0.035262
vn -0.994517 -0.104571 -0
vn -0.994517 -0.102562 -0.020401
vn -0.9996 -0.028267 -0
vn -0.9996 -0.027724 -0.005515
vn -0.994403 0.105656 0
vn -0.994403 0.103626 0.020612
vn -0.91817 0.396188 0
vn -0.91817 0.388575 0.077292
vn -0.701607 0.712564 0
vn -0.701607 0.698872 0.139014
vn -0.382652 0.923892 0
vn -0.382652 0.90614 0.180243
vn -0.100028 0.994985 0
vn -0.100028 0.975866 0.194112
vn -0.001144 0.999999 0
vn -0.001144 0.980785 0.19509
vn 0.999998 -0.001886 0
vn 0.999998 -0.001886 0
vn 0.999998 -0.00185 -0.000368
vn 0.999998 -0.00185 -0.000368
vn 0.004186 -0.923915 -0.382576
vn 0.004186 -0.923874 -0.382675
vn -0.99714 -0.069828 -0.028923
vn -0.999306 -0.034409 -0.014249
vn -0.98828 -0.141033 -0.058417
vn -0.97746 -0.19505 -0.080792
vn -0.973278 -0.21215 -0.087875
vn -0.975591 -0.20288 -0.084035
vn -0.98353 -0.166989 -0.069169
vn -0.994517 -0.096612 -0.040018
vn -0.9996 -0.026115 -0.010817
vn -0.994403 0.097613 0.040433
vn -0.91817 0.36603 0.151614
vn -0.701607 0.658323 0.272687
vn -0.382653 0.853565 0.353558
vn -0.100029 0.919246 0.380764
vn -0.001144 0.923879 0.382683
vn 0.999998 -0.001742 -0.000722
vn 0.999998 -0.001742 -0.000722
vn 0.004186 -0.8315 -0.55551
vn 0.004186 -0.831449 -0.555586
vn -0.99714 -0.062844 -0.041991
vn -0.999306 -0.030967 -0.020688
vn -0.98828 -0.126926 -0.084809
vn -0.97746 -0.17554 -0.117292
vn -0.973278 -0.19093 -0.127576
vn -0.975591 -0.182587 -0.122001
vn -0.98353 -0.150286 -0.100418
vn -0.994517 -0.086948 -0.058097
vn -0.9996 -0.023503 -0.015704
vn -0.994403 0.08785 0.058699
vn -0.918169 0.329418 0.22011
vn -0.701607 0.592475 0.39588
vn -0.382653 0.768188 0.513287
vn -0.100029 0.827299 0.552784
vn -0.001144 0.831469 0.55557
vn 0.999998 -0.001568 -0.001048
vn 0.999998 -0.001568 -0.001048
vn 0.004186 -0.707059 -0.707142
vn 0.004186 -0.707077 -0.707124
vn -0.99714 -0.053445 -0.053444
vn -0.999306 -0.026332 -0.026337
vn -0.98828 -0.107942 -0.107942
vn -0.97746 -0.149284 -0.149284
vn -0.973278 -0.162373 -0.162373
vn -0.975591 -0.155277 -0.155277
vn -0.983529 -0.127808 -0.127808
vn -0.994517 -0.073943 -0.073943
vn -0.9996 -0.019988 -0.019988
vn -0.994403 0.07471 0.07471
vn -0.918169 0.280147 0.280147
vn -0.701607 0.503859 0.503859
vn -0.382653 0.65329 0.65329
vn -0.100029 0.70356 0.70356
vn -0.001144 0.707106 0.707106
vn 0.999998 -0.001334 -0.001334
vn 0.999998 -0.001334 -0.001334
vn 0.004186 -0.55553 -0.831486
vn 0.004186 -0.555568 -0.83146
vn -0.99714 -0.041992 -0.062845
vn -0.999306 -0.020688 -0.030965
vn -0.98828 -0.084809 -0.126926
vn -0.97746 -0.117292 -0.17554
vn -0.973278 -0.127575 -0.19093
vn -0.975591 -0.122 -0.182587
vn -0.98353 -0.100418 -0.150286
vn -0.994517 -0.058097 -0.086948
vn -0.9996 -0.015704 -0.023503
vn -0.994403 0.058699 0.08785
vn -0.918169 0.22011 0.329418
vn -0.701607 0.39588 0.592476
vn -0.382653 0.513287 0.768188
vn -0.100029 0.552784 0.827299
vn -0.001144 0.55557 0.831469
vn 0.999998 -0.001048 -0.001568
vn 0.999998 -0.001048 -0.001568
vn 0.004186 -0.382766 -0.923836
vn 0.004186 -0.382693 -0.923866
vn -0.99714 -0.028924 -0.069829
vn -0.999306 -0.014254 -0.034407
vn -0.98828 -0.058418 -0.141032
vn -0.97746 -0.080792 -0.195049
vn -0.973278 -0.087876 -0.21215
vn -0.975591 -0.084035 -0.202878
vn -0.98353 -0.069169 -0.166988
vn -0.994517 -0.040018 -0.096612
vn -0.9996 -0.010817 -0.026115
vn -0.994403 0.040433 0.097613
vn -0.918169 0.151615 0.36603
vn -0.701607 0.272686 0.658323
vn -0.382653 0.353558 0.853565
vn -0.100028 0.380764 0.919246
vn -0.001144 0.382683 0.923879
vn 0.999998 -0.000722 -0.001742
vn 0.999998 -0.000722 -0.001742
vn 0.004186 -0.195207 -0.980753
vn 0.004186 -0.195114 -0.980772
vn -0.99714 -0.014745 -0.07413
vn -0.999306 -0.007272 -0.036525
vn -0.98828 -0.029781 -0.149719
vn -0.97746 -0.041188 -0.207063
vn -0.973278 -0.044798 -0.225216
vn -0.975591 -0.042841 -0.215375
vn -0.983529 -0.035262 -0.177275
vn -0.994517 -0.020401 -0.102562
vn -0.9996 -0.005514 -0.027723
vn -0.994403 0.020612 0.103626
vn -0.918169 0.077292 0.388575
vn -0.701607 0.139015 0.698873
vn -0.382652 0.180243 0.90614
vn -0.100029 0.194112 0.975866
vn -0.001144 0.19509 0.980785
vn 0.999998 -0.000368 -0.00185
vn 0.999998 -0.000368 -0.00185
vn 0.004186 0.00011 -0.999991
vn 0.004186 0.000001 -0.999991
vn -0.99714 -0 -0.075581
vn -0.999306 0.000003 -0.037241
vn -0.98828 0 -0.152652
vn -0.97746 0 -0.21112
vn -0.973278 0 -0.22963
vn -0.975591 0 -0.219595
vn -0.98353 0 -0.180747
vn -0.994517 0 -0.104572
vn -0.9996 0 -0.028268
vn -0.994403 -0 0.105656
vn -0.918169 -0 0.396188
vn -0.701607 -0 0.712564
vn -0.382652 -0 0.923893
vn -0.100028 -0 0.994985
vn -0.001144 -0 0.999999
vn 0.999998 -0 -0.001886
vn 0.999998 0 -0.001886
vn 0.004186 0.195187 -0.980757
vn 0.004186 0.195131 -0.980768
vn -0.99714 0.014745 -0.074129
vn -0.999306 0.007268 -0.036525
vn -0.98828 0.029781 -0.149719
vn -0.97746 0.041187 -0.207063
vn -0.973278 0.044798 -0.225216
vn -0.975591 0.042841 -0.215374
vn -0.98353 0.035262 -0.177274
vn -0.994517 0.020401 -0.102562
vn -0.9996 0.005515 -0.027723
vn -0.994403 -0.020612 0.103626
vn -0.91817 -0.077292 0.388575
vn -0.701607 -0.139014 0.698872
vn -0.382652 -0.180242 0.90614
vn -0.100027 -0.194112 0.975866
vn -0.001144 -0.19509 0.980785
vn 0.999998 0.000368 -0.00185
vn 0.999998 0.000368 -0.00185
vn 0.004186 0.382638 -0.923889
vn 0.004186 0.382722 -0.923854
vn -0.99714 0.028924 -0.069828
vn -0.999306 0.01425 -0.034407
vn -0.98828 0.058418 -0.141032
vn -0.97746 0.080792 -0.195049
vn -0.973278 0.087876 -0.21215
vn -0.975591 0.084035 -0.202879
vn -0.98353 0.069169 -0.166988
vn -0.994517 0.040018 -0.096611
vn -0.9996 0.010817 -0.026115
vn -0.994403 -0.040433 0.097613
vn -0.918169 -0.151614 0.36603
vn -0.701607 -0.272686 0.658323
vn -0.382653 -0.353558 0.853565
vn -0.100028 -0.380764 0.919246
vn -0.001144 -0.382683 0.923879
vn 0.999998 0.000722 -0.001742
vn 0.999998 0.000722 -0.001742
vn 0.004186 0.555455 -0.831536
vn 0.004186 0.555548 -0.831474
vn -0.99714 0.041991 -0.062844
vn -0.999306 0.020685 -0.030968
vn -0.98828 0.084809 -0.126926
vn -0.97746 0.117292 -0.17554
vn -0.973278 0.127576 -0.19093
vn -0.975591 0.122001 -0.182587
vn -0.98353 0.100418 -0.150286
vn -0.994517 0.058097 -0.086948
vn -0.9996 0.015704 -0.023503
vn -0.994403 -0.058699 0.08785
vn -0.91817 -0.22011 0.329418
vn -0.701607 -0.39588 0.592476
vn -0.382653 -0.513287 0.768188
vn -0.100029 -0.552784 0.827299
vn -0.001144 -0.55557 0.831469
vn 0.999998 0.001048 -0.001568
vn 0.999998 0.001048 -0.001568
vn 0.004186 0.706992 -0.707209
vn 0.004186 0.707082 -0.707119
vn -0.99714 0.053445 -0.053445
vn -0.999306 0.026329 -0.026339
vn -0.98828 0.107942 -0.107942
vn -0.97746 0.149284 -0.149284
vn -0.973278 0.162373 -0.162373
vn -0.975591 0.155277 -0.155277
vn -0.98353 0.127808 -0.127808
vn -0.994517 0.073943 -0.073943
vn -0.9996 0.019987 -0.019987
vn -0.994403 -0.07471 0.07471
vn -0.918169 -0.280147 0.280148
vn -0.701606 -0.503859 0.503859
vn -0.382653 -0.65329 0.65329
vn -0.100029 -0.70356 0.70356
vn -0.001144 -0.707106 0.707106
vn 0.999998 0.001334 -0.001334
vn 0.999998 0.001334 -0.001334
vn 0.004186 0.831436 -0.555604
vn 0.004186 0.83145 -0.555584
vn -0.99714 0.062844 -0.041991
vn -0.999306 0.030964 -0.020693
vn -0.98828 0.126926 -0.084809
vn -0.97746 0.17554 -0.117292
vn -0.973278 0.19093 -0.127576
vn -0.975591 0.182587 -0.122
vn -0.98353 0.150286 -0.100418
vn -0.994517 0.086948 -0.058097
vn -0.9996 0.023503 -0.015704
vn -0.994403 -0.08785 0.058699
vn -0.91817 -0.329418 0.22011
vn -0.701607 -0.592475 0.39588
vn -0.382652 -0.768188 0.513287
vn -0.100028 -0.827299 0.552784
vn -0.001144 -0.831469 0.55557
vn 0.999998 0.001568 -0.001048
vn 0.999998 0.001568 -0.001048
vn 0.004186 0.923869 -0.382686
vn 0.004186 0.923877 -0.382666
vn -0.99714 0.069828 -0.028924
vn -0.999306 0.034408 -0.014252
vn -0.98828 0.141033 -0.058418
vn -0.97746 0.19505 -0.080792
vn -0.973278 0.21215 -0.087876
vn -0.975591 0.20288 -0.084036
vn -0.98353 0.166989 -0.069169
vn -0.994517 0.096611 -0.040018
vn -0.9996 0.026115 -0.010817
vn -0.994403 -0.097613 0.040433
vn -0.91817 -0.366029 0.151614
vn -0.701607 -0.658324 0.272686
vn -0.382653 -0.853565 0.353558
vn -0.100029 -0.919246 0.380764
vn -0.001144 -0.923879 0.382683
vn 0.999998 0.001742 -0.000722
vn 0.999998 0.001742 -0.000722
vn 0.004186 0.98078 -0.195074
vn 0.004186 0.980781 -0.195066
vn -0.99714 0.07413 -0.014745
vn -0.999306 0.036525 -0.007264
vn -0.98828 0.149719 -0.029781
vn -0.97746 0.207063 -0.041187
vn -0.973278 0.225218 -0.044798
vn -0.975591 0.215375 -0.042841
vn -0.98353 0.177274 -0.035262
vn -0.994517 0.102562 -0.020401
vn -0.9996 0.027724 -0.005515
vn -0.994403 -0.103626 0.020612
vn -0.91817 -0.388574 0.077292
vn -0.701607 -0.698873 0.139014
vn -0.382652 -0.90614 0.180242
vn -0.100029 -0.975866 0.194112
vn -0.001144 -0.980785 0.19509
vn 0.999998 0.00185 -0.000368
vn 0.999998 0.00185 -0.000368
vn 0.004186 0.999991 -0.00001
vn 0.004186 0.999991 -0.000042
vn -0.99714 0.075581 -0
vn -0.999306 0.037243 0.000001
vn -0.98828 0.152652 0
vn -0.97746 0.21112 -0
vn -0.973278 0.22963 -0
vn -0.975591 0.219596 0
vn -0.983529 0.180748 0
vn -0.994517 0.104571 0
vn -0.9996 0.028267 0
vn -0.994403 -0.105656 -0
vn -0.91817 -0.396188 -0
vn -0.701607 -0.712564 -0
vn -0.382652 -0.923892 -0
vn -0.100028 -0.994985 0
vn -0.001144 -0.999999 0
vn 0.999998 0.001886 -0
vn 0.999998 0.001886 -0
vn 0.004186 0.980753 0.195208
vn 0.004186 0.980776 0.195094
vn -0.99714 0.07413 0.014745
vn -0.999306 0.036525 0.007268
vn -0.98828 0.149719 0.029781
vn -0.97746 0.207063 0.041188
vn -0.973278 0.225217 0.044799
vn -0.975591 0.215376 0.042841
vn -0.983529 0.177275 0.035262
vn -0.994517 0.102562 0.020401
vn -0.9996 0.027723 0.005515
vn -0.994403 -0.103626 -0.020612
vn -0.918169 -0.388575 -0.077292
vn -0.701607 -0.698872 -0.139014
vn -0.382653 -0.90614 -0.180243
vn -0.100029 -0.975866 -0.194112
vn -0.001144 -0.980785 -0.19509
vn 0.999998 0.00185 0.000368
vn 0.999998 0.00185 0.000368
vn 0.004186 0.92379 0.382877
vn 0.004186 0.923852 0.382726
vn -0.99714 0.069828 0.028924
vn -0.999306 0.034404 0.014261
vn -0.98828 0.141032 0.058418
vn -0.97746 0.195049 0.080792
vn -0.973278 0.21215 0.087876
vn -0.975591 0.20288 0.084036
vn -0.98353 0.166989 0.069169
vn -0.994517 0.096611 0.040018
vn -0.9996 0.026115 0.010817
vn -0.994403 -0.097613 -0.040433
vn -0.918169 -0.36603 -0.151614
vn -0.701607 -0.658323 -0.272687
vn -0.382653 -0.853565 -0.353558
vn -0.100028 -0.919246 -0.380764
vn -0.001144 -0.923879 -0.382684
vn 0.999998 0.001742 0.000722
vn 0.999998 0.001742 0.000722
vn 0.004186 0.831579 0.555391
vn 0.004186 0.831474 0.555548
vn -0.99714 0.062844 0.041991
vn -0.999306 0.030971 0.020685
vn -0.98828 0.126926 0.084809
vn -0.97746 0.17554 0.117292
vn -0.973278 0.19093 0.127576
vn -0.975591 0.182586 0.122
vn -0.98353 0.150286 0.100418
vn -0.994517 0.086948 0.058097
vn -0.9996 0.023503 0.015704
vn -0.994403 -0.08785 -0.058699
vn -0.91817 -0.329418 -0.22011
vn -0.701607 -0.592476 -0.395879
vn -0.382652 -0.768188 -0.513287
vn -0.100029 -0.827299 -0.552784
vn -0.001144 -0.831469 -0.55557
vn 0.999998 0.001568 0.001048
vn 0.999998 0.001568 0.001048
vn 0.004186 0.707183 0.707019
vn 0.004186 0.707088 0.707113
vn -0.99714 0.053444 0.053445
vn -0.999306 0.026338 0.026329
vn -0.98828 0.107942 0.107942
vn -0.97746 0.149284 0.149284
vn -0.973278 0.162373 0.162373
vn -0.975591 0.155277 0.155277
vn -0.983529 0.127808 0.127808
vn -0.994517 0.073943 0.073943
vn -0.9996 0.019988 0.019988
vn -0.994403 -0.07471 -0.07471
vn -0.918169 -0.280147 -0.280147
vn -0.701607 -0.503859 -0.503859
vn -0.382653 -0.65329 -0.65329
vn -0.10003 -0.70356 -0.70356
vn -0.001144 -0.707106 -0.707107
vn 0.999998 0.001333 0.001334
vn 0.999998 0.001334 0.001333
vn 0.004186 0.555568 0.831461
vn 0.004186 0.555548 0.831474
vn -0.99714 0.041991 0.062844
vn -0.999306 0.020691 0.030966
vn -0.98828 0.084809 0.126926
vn -0.97746 0.117292 0.17554
vn -0.973278 0.127576 0.19093
vn -0.975591 0.122001 0.182587
vn -0.98353 0.100418 0.150286
vn -0.994517 0.058096 0.086948
vn -0.9996 0.015704 0.023503
vn -0.994403 -0.058699 -0.087849
vn -0.91817 -0.22011 -0.329418
vn -0.701607 -0.395879 -0.592475
vn -0.382653 -0.513287 -0.768188
vn -0.100028 -0.552784 -0.8273
vn -0.001144 -0.55557 -0.831469
vn 0.999998 0.001048 0.001568
vn 0.999998 0.001048 0.001568
vn 0.004186 0.382683 0.92387
vn 0.004186 0.382673 0.923874
vn -0.99714 0.028924 0.069829
vn -0.999306 0.014253 0.034407
vn -0.98828 0.058418 0.141033
vn -0.97746 0.080792 0.195049
vn -0.973278 0.087875 0.21215
vn -0.975591 0.084036 0.202881
vn -0.983529 0.069169 0.16699
vn -0.994517 0.040018 0.096611
vn -0.9996 0.010817 0.026115
vn -0.994403 -0.040433 -0.097613
vn -0.91817 -0.151614 -0.366029
vn -0.701607 -0.272686 -0.658323
vn -0.382652 -0.353558 -0.853566
vn -0.100028 -0.380764 -0.919246
vn -0.001144 -0.382683 -0.923879
vn 0.999998 0.000722 0.001742
vn 0.999998 0.000722 0.001742
vn 0.004186 0.195057 0.980783
vn 0.004186 0.195074 0.98078
vn -0.99714 0.014745 0.074129
vn -0.999306 0.007263 0.036527
vn -0.98828 0.029781 0.149719
vn -0.97746 0.041187 0.207063
vn -0.973278 0.044799 0.225219
vn -0.975591 0.042841 0.215377
vn -0.983529 0.035262 0.177275
vn -0.994517 0.020401 0.102562
vn -0.9996 0.005515 0.027724
vn -0.994403 -0.020612 -0.103626
vn -0.91817 -0.077292 -0.388575
vn -0.701607 -0.139014 -0.698873
vn -0.382652 -0.180242 -0.90614
vn -0.100029 -0.194112 -0.975866
vn -0.001144 -0.19509 -0.980785
vn 0.999998 0.000368 0.00185
vn 0.999998 0.000368 0.00185
vn 0.004186 0.00001 0.999991
vn 0.004186 0.000003 0.999991
vn -0.99714 0 0.075582
vn -0.999306 0 0.037242
vn -0.98828 0 0.152653
vn -0.97746 0 0.21112
vn -0.973278 -0 0.22963
vn -0.975591 -0 0.219595
vn -0.983529 0 0.180748
vn -0.994517 0 0.104571
vn -0.9996 -0 0.028267
vn -0.994403 -0 -0.105656
vn -0.91817 -0 -0.396188
vn -0.701607 -0 -0.712564
vn -0.382652 -0 -0.923892
vn -0.100028 -0 -0.994985
vn -0.001144 -0 -0.999999
vn 0.999998 0 0.001886
vn 0.999998 0 0.001886
vn 0.004186 -0.195059 0.980783
vn 0.004186 -0.195099 0.980775
vn -0.99714 -0.014745 0.07413
vn -0.999306 -0.007263 0.036527
vn -0.98828 -0.029781 0.149719
vn -0.97746 -0.041187 0.207063
vn -0.973278 -0.044799 0.225219
vn -0.975591 -0.042841 0.215376
vn -0.98353 -0.035262 0.177274
vn -0.994517 -0.020401 0.102562
vn -0.9996 -0.005515 0.027724
vn -0.994403 0.020612 -0.103626
vn -0.91817 0.077292 -0.388575
vn -0.701607 0.139014 -0.698873
vn -0.382652 0.180243 -0.90614
vn -0.100028 0.194112 -0.975866
vn -0.001144 0.19509 -0.980785
vn 0.999998 -0.000368 0.00185
vn 0.999998 -0.000368 0.00185
vn 0.004186 -0.382623 0.923895
vn 0.004186 -0.382695 0.923865
vn -0.99714 -0.028924 0.069828
vn -0.999306 -0.014248 0.034408
vn -0.98828 -0.058418 0.141033
vn -0.97746 -0.080792 0.19505
vn -0.973278 -0.087875 0.21215
vn -0.975591 -0.084036 0.202881
vn -0.983529 -0.069169 0.16699
vn -0.994517 -0.040018 0.096611
vn -0.9996 -0.010817 0.026115
vn -0.994403 0.040433 -0.097613
vn -0.91817 0.151615 -0.36603
vn -0.701607 0.272687 -0.658324
vn -0.382653 0.353558 -0.853565
vn -0.100029 0.380764 -0.919246
vn -0.001144 0.382683 -0.923879
vn 0.999998 -0.000722 0.001742
vn 0.999998 -0.000722 0.001742
vn 0.004186 -0.555514 0.831497
vn 0.004186 -0.555556 0.831469
vn -0.99714 -0.04199 0.062843
vn -0.999306 -0.020689 0.030968
vn -0.98828 -0.084809 0.126926
vn -0.97746 -0.117292 0.17554
vn -0.973278 -0.127576 0.19093
vn -0.975591 -0.122001 0.182587
vn -0.98353 -0.100418 0.150286
vn -0.994517 -0.058097 0.086948
vn -0.9996 -0.015704 0.023503
vn -0.994403 0.058699 -0.087849
vn -0.91817 0.22011 -0.329418
vn -0.701607 0.395879 -0.592475
vn -0.382652 0.513287 -0.768188
vn -0.100028 0.552784 -0.827299
vn -0.001144 0.55557 -0.831469
vn 0.999998 -0.001048 0.001568
vn 0.999998 -0.001048 0.001568
vn 0.004186 -0.707101 0.7071
vn 0.004186 -0.707109 0.707093
vn -0.99714 -0.053445 0.053445
vn -0.999306 -0.026334 0.026335
vn -0.98828 -0.107942 0.107942
vn -0.97746 -0.149284 0.149284
vn -0.973278 -0.162373 0.162373
vn -0.975591 -0.155277 0.155277
vn -0.98353 -0.127808 0.127808
vn -0.994517 -0.073943 0.073943
vn -0.9996 -0.019987 0.019987
vn -0.994403 0.07471 -0.07471
vn -0.91817 0.280147 -0.280147
vn -0.701607 0.503859 -0.503859
vn -0.382653 0.653291 -0.65329
vn -0.100028 0.70356 -0.70356
vn -0.001144 0.707106 -0.707106
vn 0.999998 -0.001334 0.001333
vn 0.999998 -0.001334 0.001333
vn 0.004186 -0.831525 0.555472
vn 0.004186 -0.831477 0.555543
vn -0.99714 -0.062843 0.04199
vn -0.999306 -0.030968 0.020687
vn -0.98828 -0.126926 0.084809
vn -0.97746 -0.17554 0.117292
vn -0.973278 -0.19093 0.127576
vn -0.975591 -0.182587 0.122001
vn -0.98353 -0.150286 0.100418
vn -0.994517 -0.086948 0.058097
vn -0.9996 -0.023503 0.015705
vn -0.994403 0.08785 -0.058699
vn -0.91817 0.329418 -0.22011
vn -0.701607 0.592476 -0.39588
vn -0.382653 0.768188 -0.513287
vn -0.100029 0.827299 -0.552784
vn -0.001144 0.831469 -0.55557
vn 0.999998 -0.001568 0.001048
vn 0.999998 -0.001568 0.001048
vn 0.004186 -0.923853 0.382726
vn 0.004186 -0.92387 0.382682
vn -0.99714 -0.069828 0.028924
vn -0.999306 -0.034407 0.014254
vn -0.98828 -0.141032 0.058418
vn -0.97746 -0.195049 0.080792
vn -0.973278 -0.21215 0.087876
vn -0.975591 -0.202879 0.084035
vn -0.98353 -0.166989 0.069169
vn -0.994517 -0.096611 0.040018
vn -0.9996 -0.026115 0.010817
vn -0.994403 0.097613 -0.040433
vn -0.918169 0.36603 -0.151614
vn -0.701607 0.658323 -0.272686
vn -0.382653 0.853565 -0.353558
vn -0.100029 0.919246 -0.380764
vn -0.001144 0.923879 -0.382683
vn 0.999998 -0.001742 0.000722
vn 0.999998 -0.001742 0.000722
vn 0.004186 -0.980781 0.195065
vn 0.004186 -0.980773 0.195106
vn -0.99714 -0.07413 0.014745
vn -0.999306 -0.036526 0.007264
vn -0.98828 -0.149719 0.029781
vn -0.97746 -0.207063 0.041187
vn -0.973278 -0.225218 0.044799
vn -0.975591 -0.215376 0.042841
vn -0.98353 -0.177275 0.035262
vn -0.994517 -0.102562 0.020401
vn -0.9996 -0.027723 0.005515
vn -0.994403 0.103626 -0.020612
vn -0.91817 0.388575 -0.077292
vn -0.701607 0.698872 -0.139014
vn -0.382652 0.90614 -0.180242
vn -0.100028 0.975866 -0.194112
vn -0.001144 0.980785 -0.19509
vn 0.999998 -0.00185 0.000368
vn 0.999998 -0.00185 0.000368
f 3/3/3 2/2/2 1/1/1
f 1/1/1 2/2/2 591/591/591
f 4/4/4 3/3/3 1/1/1
f 2/2/2 590/590/590 591/591/591
f 39/39/39 3/3/3 4/4/4
f 591/591/591 590/590/590 572/572/572
f 40/40/40 39/39/39 4/4/4
f 590/590/590 571/571/571 572/572/572
f 58/58/58 39/39/39 40/40/40
f 572/572/572 571/571/571 553/553/553
f 59/59/59 58/58/58 40/40/40
f 571/571/571 552/552/552 553/553/553
f 77/77/77 58/58/58 59/59/59
f 553/553/553 552/552/552 534/534/534
f 78/78/78 77/77/77 59/59/59
f 552/552/552 533/533/533 534/534/534
f 96/96/96 77/77/77 78/78/78
f 534/534/534 533/533/533 515/515/515
f 97/97/97 96/96/96 78/78/78
f 533/533/533 514/514/514 515/515/515
f 115/115/115 96/96/96 97/97/97
f 515/515/515 514/514/514 496/496/496
f 116/116/116 115/115/115 97/97/97
f 514/514/514 495/495/495 496/496/496
f 134/134/134 115/115/115 116/116/116
f 496/496/496 495/495/495 477/477/477
f 135/135/135 134/134/134 116/116/116
f 495/495/495 476/476/476 477/477/477
f 153/153/153 134/134/134 135/135/135
f 477/477/477 476/476/476 458/458/458
f 154/154/154 153/153/153 135/135/135
f 476/476/476 457/457/457 458/458/458
f 172/172/172 153/153/153 154/154/154
f 458/458/458 457/457/457 439/439/439
f 173/173/173 172/172/172 154/154/154
f 457/457/457 438/438/438 439/439/439
f 191/191/191 172/172/172 173/173/173
f 439/439/439 438/438/438 420/420/420
f 192/192/192 191/191/191 173/173/173
f 438/438/438 419/419/419 420/420/420
f 210/210/210 191/191/191 192/192/192
f 420/420/420 419/419/419 401/401/401
f 211/211/211 210/210/210 192/192/192
f 419/419/419 400/400/400 401/401/401
f 229/229/229 210/210/210 211/211/211
f 401/401/401 400/400/400 382/382/382
f 230/230/230 229/229/229 211/211/211
f 400/400/400 381/381/381 382/382/382
f 248/248/248 229/229/229 230/230/230
f 382/382/382 381/381/381 363/363/363
f 249/249/249 248/248/248 230/230/230
f 381/381/381 362/362/362 363/363/363
f 267/267/267 248/248/248 249/249/249
f 363/363/363 362/362/362 344/344/344
f 268/268/268 267/267/267 249/249/249
f 362/362/362 343/343/343 344/344/344
f 286/286/286 267/267/267 268/268/268
f 344/344/344 343/343/343 325/325/325
f 287/287/287 286/286/286 268/268/268
f 343/343/343 324/324/324 325/325/325
f 305/305/305 286/286/286 287/287/287
f 325/325/325 324/324/324 306/306/306
f 306/306/306 305/305/305 287/287/287
f 324/324/324 305/305/305 306/306/306
f 7/7/7 6/6/6 5/5/5
f 5/5/5 6/6/6 593/593/593
f 8/8/8 7/7/7 5/5/5
f 6/6/6 592/592/592 593/593/593
f 593/593/593 592/592/592 574/574/574
f 41/41/41 7/7/7 8/8/8
f 42/42/42 41/41/41 8/8/8
f 592/592/592 573/573/573 574/574/574
f 574/574/574 573/573/573 555/555/555
f 60/60/60 41/41/41 42/42/42
f 61/61/61 60/60/60 42/42/42
f 573/573/573 554/554/554 555/555/555
f 555/555/555 554/554/554 536/536/536
f 79/79/79 60/60/60 61/61/61
f 80/80/80 79/79/79 61/61/61
f 554/554/554 535/535/535 536/536/536
f 536/536/536 535/535/535 517/517/517
f 98/98/98 79/79/79 80/80/80
f 99/99/99 98/98/98 80/80/80
f 535/535/535 516/516/516 517/517/517
f 517/517/517 516/516/516 498/498/498
f 117/117/117 98/98/98 99/99/99
f 118/118/118 117/117/117 99/99/99
f 516/516/516 497/497/497 498/498/498
f 498/498/498 497/497/497 479/479/479
f 136/136/136 117/117/117 118/118/118
f 137/137/137 136/136/136 118/118/118
f 497/497/497 478/478/478 479/479/479
f 479/479/479 478/478/478 460/460/460
f 155/155/155 136/136/136 137/137/137
f 156/156/156 155/155/155 137/137/137
f 478/478/478 459/459/459 460/460/460
f 460/460/460 459/459/459 441/441/441
f 174/174/174 155/155/155 156/156/156
f 175/175/175 174/174/174 156/156/156
f 459/459/459 440/440/440 441/441/441
f 441/441/441 440/440/440 422/422/422
f 193/193/193 174/174/174 175/175/175
f 194/194/194 193/193/193 175/175/175
f 440/440/440 421/421/421 422/422/422
f 422/422/422 421/421/421 403/403/403
f 212/212/212 193/193/193 194/194/194
f 213/213/213 212/212/212 194/194/194
f 421/421/421 402/402/402 403/403/403
f 403/403/403 402/402/402 384/384/384
f 231/231/231 212/212/212 213/213/213
f 232/232/232 231/231/231 213/213/213
f 402/402/402 383/383/383 384/384/384
f 384/384/384 383/383/383 365/365/365
f 250/250/250 231/231/231 232/232/232
f 251/251/251 250/250/250 232/232/232
f 383/383/383 364/364/364 365/365/365
f 365/365/365 364/364/364 346/346/346
f 269/269/269 250/250/250 251/251/251
f 270/270/270 269/269/269 251/251/251
f 364/364/364 345/345/345 346/346/346
f 346/346/346 345/345/345 327/327/327
f 288/288/288 269/269/269 270/270/270
f 289/289/289 288/288/288 270/270/270
f 345/345/345 326/326/326 327/327/327
f 327/327/327 326/326/326 308/308/308
f 308/308/308 307/307/307 289/289/289
f 326/326/326 307/307/307 308/308/308
f 307/307/307 288/288/288 289/289/289
f 345/345/345 347/347/347 326/326/326
f 326/326/326 328/328/328 307/307/307
f 347/347/347 328/328/328 326/326/326
f 307/307/307 309/309/309 288/288/288
f 328/328/328 309/309/309 307/307/307
f 288/288/288 290/290/290 269/269/269
f 309/309/309 290/290/290 288/288/288
f 269/269/269 271/271/271 250/250/250
f 290/290/290 271/271/271 269/269/269
f 271/271/271 252/252/252 250/250/250
f 250/250/250 252/252/252 231/231/231
f 290/290/290 291/291/291 271/271/271
f 252/252/252 233/233/233 231/231/231
f 231/231/231 233/233/233 212/212/212
f 271/271/271 272/272/272 252/252/252
f 291/291/291 272/272/272 271/271/271
f 252/252/252 253/253/253 233/233/233
f 272/272/272 253/253/253 252/252/252
f 233/233/233 214/214/214 212/212/212
f 212/212/212 214/214/214 193/193/193
f 253/253/253 234/234/234 233/233/233
f 233/233/233 234/234/234 214/214/214
f 214/214/214 195/195/195 193/193/193
f 193/193/193 195/195/195 174/174/174
f 234/234/234 215/215/215 214/214/214
f 214/214/214 215/215/215 195/195/195
f 195/195/195 176/176/176 174/174/174
f 174/174/174 176/176/176 155/155/155
f 215/215/215 196/196/196 195/195/195
f 195/195/195 196/196/196 176/176/176
f 176/176/176 157/157/157 155/155/155
f 155/155/155 157/157/157 136/136/136
f 196/196/196 177/177/177 176/176/176
f 176/176/176 177/177/177 157/157/157
f 157/157/157 138/138/138 136/136/136
f 136/136/136 138/138/138 117/117/117
f 177/177/177 158/158/158 157/157/157
f 157/157/157 158/158/158 138/138/138
f 138/138/138 119/119/119 117/117/117
f 117/117/117 119/119/119 98/98/98
f 158/158/158 139/139/139 138/138/138
f 138/138/138 139/139/139 119/119/119
f 119/119/119 100/100/100 98/98/98
f 98/98/98 100/100/100 79/79/79
f 139/139/139 120/120/120 119/119/119
f 119/119/119 120/120/120 100/100/100
f 100/100/100 81/81/81 79/79/79
f 79/79/79 81/81/81 60/60/60
f 120/120/120 101/101/101 100/100/100
f 100/100/100 101/101/101 81/81/81
f 81/81/81 62/62/62 60/60/60
f 60/60/60 62/62/62 41/41/41
f 101/101/101 82/82/82 81/81/81
f 81/81/81 82/82/82 62/62/62
f 62/62/62 43/43/43 41/41/41
f 41/41/41 43/43/43 7/7/7
f 82/82/82 63/63/63 62/62/62
f 62/62/62 63/63/63 43/43/43
f 43/43/43 10/10/10 7/7/7
f 7/7/7 10/10/10 6/6/6
f 63/63/63 44/44/44 43/43/43
f 43/43/43 44/44/44 10/10/10
f 10/10/10 9/9/9 6/6/6
f 6/6/6 9/9/9 592/592/592
f 44/44/44 12/12/12 10/10/10
f 10/10/10 12/12/12 9/9/9
f 9/9/9 594/594/594 592/592/592
f 592/592/592 594/594/594 573/573/573
f 12/12/12 11/11/11 9/9/9
f 9/9/9 11/11/11 594/594/594
f 594/594/594 575/575/575 573/573/573
f 573/573/573 575/575/575 554/554/554
f 11/11/11 595/595/595 594/594/594
f 594/594/594 595/595/595 575/575/575
f 575/575/575 556/556/556 554/554/554
f 554/554/554 556/556/556 535/535/535
f 595/595/595 576/576/576 575/575/575
f 575/575/575 576/576/576 556/556/556
f 556/556/556 537/537/537 535/535/535
f 535/535/535 537/537/537 516/516/516
f 576/576/576 557/557/557 556/556/556
f 556/556/556 557/557/557 537/537/537
f 537/537/537 518/518/518 516/516/516
f 516/516/516 518/518/518 497/497/497
f 557/557/557 538/538/538 537/537/537
f 537/537/537 538/538/538 518/518/518
f 518/518/518 499/499/499 497/497/497
f 497/497/497 499/499/499 478/478/478
f 538/538/538 519/519/519 518/518/518
f 518/518/518 519/519/519 499/499/499
f 499/499/499 480/480/480 478/478/478
f 478/478/478 480/480/480 459/459/459
f 519/519/519 500/500/500 499/499/499
f 499/499/499 500/500/500 480/480/480
f 480/480/480 461/461/461 459/459/459
f 459/459/459 461/461/461 440/440/440
f 500/500/500 481/481/481 480/480/480
f 480/480/480 481/481/481 461/461/461
f 461/461/461 442/442/442 440/440/440
f 440/440/440 442/442/442 421/421/421
f 481/481/481 462/462/462 461/461/461
f 461/461/461 462/462/462 442/442/442
f 442/442/442 423/423/423 421/421/421
f 421/421/421 423/423/423 402/402/402
f 462/462/462 443/443/443 442/442/442
f 442/442/442 443/443/443 423/423/423
f 423/423/423 404/404/404 402/402/402
f 402/402/402 404/404/404 383/383/383
f 443/443/443 424/424/424 423/423/423
f 423/423/423 424/424/424 404/404/404
f 404/404/404 385/385/385 383/383/383
f 383/383/383 385/385/385 364/364/364
f 424/424/424 405/405/405 404/404/404
f 404/404/404 405/405/405 385/385/385
f 385/385/385 366/366/366 364/364/364
f 364/364/364 366/366/366 345/345/345
f 366/366/366 347/347/347 345/345/345
f 405/405/405 386/386/386 385/385/385
f 385/385/385 386/386/386 366/366/366
f 366/366/366 367/367/367 347/347/347
f 386/386/386 367/367/367 366/366/366
f 367/367/367 348/348/348 347/347/347
f 347/347/347 348/348/348 328/328/328
f 386/386/386 387/387/387 367/367/367
f 348/348/348 329/329/329 328/328/328
f 328/328/328 329/329/329 309/309/309
f 367/367/367 368/368/368 348/348/348
f 387/387/387 368/368/368 367/367/367
f 348/348/348 349/349/349 329/329/329
f 368/368/368 349/349/349 348/348/348
f 329/329/329 310/310/310 309/309/309
f 309/309/309 310/310/310 290/290/290
f 310/310/310 291/291/291 290/290/290
f 349/349/349 330/330/330 329/329/329
f 329/329/329 330/330/330 310/310/310
f 310/310/310 311/311/311 291/291/291
f 330/330/330 311/311/311 310/310/310
f 311/311/311 292/292/292 291/291/291
f 291/291/291 292/292/292 272/272/272
f 330/330/330 331/331/331 311/311/311
f 292/292/292 273/273/273 272/272/272
f 272/272/272 273/273/273 253/253/253
f 311/311/311 312/312/312 292/292/292
f 331/331/331 312/312/312 311/311/311
f 292/292/292 293/293/293 273/273/273
f 312/312/312 293/293/293 292/292/292
f 273/273/273 254/254/254 253/253/253
f 253/253/253 254/254/254 234/234/234
f 293/293/293 274/274/274 273/273/273
f 273/273/273 274/274/274 254/254/254
f 254/254/254 235/235/235 234/234/234
f 234/234/234 235/235/235 215/215/215
f 274/274/274 255/255/255 254/254/254
f 254/254/254 255/255/255 235/235/235
f 235/235/235 216/216/216 215/215/215
f 215/215/215 216/216/216 196/196/196
f 255/255/255 236/236/236 235/235/235
f 235/235/235 236/236/236 216/216/216
f 216/216/216 197/197/197 196/196/196
f 196/196/196 197/197/197 177/177/177
f 236/236/236 217/217/217 216/216/216
f 216/216/216 217/217/217 197/197/197
f 197/197/197 178/178/178 177/177/177
f 177/177/177 178/178/178 158/158/158
f 217/217/217 198/198/198 197/197/197
f 197/197/197 198/198/198 178/178/178
f 178/178/178 159/159/159 158/158/158
f 158/158/158 159/159/159 139/139/139
f 198/198/198 179/179/179 178/178/178
f 178/178/178 179/179/179 159/159/159
f 159/159/159 140/140/140 139/139/139
f 139/139/139 140/140/140 120/120/120
f 179/179/179 160/160/160 159/159/159
f 159/159/159 160/160/160 140/140/140
f 140/140/140 121/121/121 120/120/120
f 120/120/120 121/121/121 101/101/101
f 160/160/160 141/141/141 140/140/140
f 140/140/140 141/141/141 121/121/121
f 121/121/121 102/102/102 101/101/101
f 101/101/101 102/102/102 82/82/82
f 141/141/141 122/122/122 121/121/121
f 121/121/121 122/122/122 102/102/102
f 102/102/102 83/83/83 82/82/82
f 82/82/82 83/83/83 63/63/63
f 122/122/122 103/103/103 102/102/102
f 102/102/102 103/103/103 83/83/83
f 83/83/83 64/64/64 63/63/63
f 63/63/63 64/64/64 44/44/44
f 103/103/103 84/84/84 83/83/83
f 83/83/83 84/84/84 64/64/64
f 64/64/64 45/45/45 44/44/44
f 44/44/44 45/45/45 12/12/12
f 84/84/84 65/65/65 64/64/64
f 64/64/64 65/65/65 45/45/45
f 45/45/45 14/14/14 12/12/12
f 12/12/12 14/14/14 11/11/11
f 65/65/65 46/46/46 45/45/45
f 45/45/45 46/46/46 14/14/14
f 14/14/14 13/13/13 11/11/11
f 11/11/11 13/13/13 595/595/595
f 46/46/46 16/16/16 14/14/14
f 14/14/14 16/16/16 13/13/13
f 13/13/13 596/596/596 595/595/595
f 595/595/595 596/596/596 576/576/576
f 16/16/16 15/15/15 13/13/13
f 13/13/13 15/15/15 596/596/596
f 596/596/596 577/577/577 576/576/576
f 576/576/576 577/577/577 557/557/557
f 15/15/15 597/597/597 596/596/596
f 596/596/596 597/597/597 577/577/577
f 577/577/577 558/558/558 557/557/557
f 557/557/557 558/558/558 538/538/538
f 597/597/597 578/578/578 577/577/577
f 577/577/577 578/578/578 558/558/558
f 558/558/558 539/539/539 538/538/538
f 538/538/538 539/539/539 519/519/519
f 578/578/578 559/559/559 558/558/558
f 558/558/558 559/559/559 539/539/539
f 539/539/539 520/520/520 519/519/519
f 519/519/519 520/520/520 500/500/500
f 559/559/559 540/540/540 539/539/539
f 539/539/539 540/540/540 520/520/520
f 520/520/520 501/501/501 500/500/500
f 500/500/500 501/501/501 481/481/481
f 540/540/540 521/521/521 520/520/520
f 520/520/520 521/521/521 501/501/501
f 501/501/501 482/482/482 481/481/481
f 481/481/481 482/482/482 462/462/462
f 521/521/521 502/502/502 501/501/501
f 501/501/501 502/502/502 482/482/482
f 482/482/482 463/463/463 462/462/462
f 462/462/462 463/463/463 443/443/443
f 502/502/502 483/483/483 482/482/482
f 482/482/482 483/483/483 463/463/463
f 463/463/463 444/444/444 443/443/443
f 443/443/443 444/444/444 424/424/424
f 483/483/483 464/464/464 463/463/463
f 463/463/463 464/464/464 444/444/444
f 444/444/444 425/425/425 424/424/424
f 424/424/424 425/425/425 405/405/405
f 464/464/464 445/445/445 444/444/444
f 444/444/444 445/445/445 425/425/425
f 425/425/425 406/406/406 405/405/405
f 405/405/405 406/406/406 386/386/386
f 406/406/406 387/387/387 386/386/386
f 445/445/445 426/426/426 425/425/425
f 425/425/425 426/426/426 406/406/406
f 406/406/406 407/407/407 387/387/387
f 426/426/426 407/407/407 406/406/406
f 407/407/407 388/388/388 387/387/387
f 387/387/387 388/388/388 368/368/368
f 426/426/426 427/427/427 407/407/407
f 388/388/388 369/369/369 368/368/368
f 368/368/368 369/369/369 349/349/349
f 407/407/407 408/408/408 388/388/388
f 427/427/427 408/408/408 407/407/407
f 388/388/388 389/389/389 369/369/369
f 408/408/408 389/389/389 388/388/388
f 369/369/369 350/350/350 349/349/349
f 349/349/349 350/350/350 330/330/330
f 350/350/350 331/331/331 330/330/330
f 389/389/389 370/370/370 369/369/369
f 369/369/369 370/370/370 350/350/350
f 350/350/350 351/351/351 331/331/331
f 370/370/370 351/351/351 350/350/350
f 351/351/351 332/332/332 331/331/331
f 331/331/331 332/332/332 312/312/312
f 370/370/370 371/371/371 351/351/351
f 332/332/332 313/313/313 312/312/312
f 312/312/312 313/313/313 293/293/293
f 351/351/351 352/352/352 332/332/332
f 371/371/371 352/352/352 351/351/351
f 332/332/332 333/333/333 313/313/313
f 352/352/352 333/333/333 332/332/332
f 313/313/313 294/294/294 293/293/293
f 293/293/293 294/294/294 274/274/274
f 333/333/333 314/314/314 313/313/313
f 313/313/313 314/314/314 294/294/294
f 294/294/294 275/275/275 274/274/274
f 274/274/274 275/275/275 255/255/255
f 314/314/314 295/295/295 294/294/294
f 294/294/294 295/295/295 275/275/275
f 275/275/275 256/256/256 255/255/255
f 255/255/255 256/256/256 236/236/236
f 295/295/295 276/276/276 275/275/275
f 275/275/275 276/276/276 256/256/256
f 256/256/256 237/237/237 236/236/236
f 236/236/236 237/237/237 217/217/217
f 276/276/276 257/257/257 256/256/256
f 256/256/256 257/257/257 237/237/237
f 237/237/237 218/218/218 217/217/217
f 217/217/217 218/218/218 198/198/198
f 257/257/257 238/238/238 237/237/237
f 237/237/237 238/238/238 218/218/218
f 218/218/218 199/199/199 198/198/198
f 198/198/198 199/199/199 179/179/179
f 238/238/238 219/219/219 218/218/218
f 218/218/218 219/219/219 199/199/199
f 199/199/199 180/180/180 179/179/179
f 179/179/179 180/180/180 160/160/160
f 219/219/219 200/200/200 199/199/199
f 199/199/199 200/200/200 180/180/180
f 180/180/180 161/161/161 160/160/160
f 160/160/160 161/161/161 141/141/141
f 200/200/200 181/181/181 180/180/180
f 180/180/180 181/181/181 161/161/161
f 161/161/161 142/142/142 141/141/141
f 141/141/141 142/142/142 122/122/122
f 181/181/181 162/162/162 161/161/161
f 161/161/161 162/162/162 142/142/142
f 142/142/142 123/123/123 122/122/122
f 122/122/122 123/123/123 103/103/103
f 162/162/162 143/143/143 142/142/142
f 142/142/142 143/143/143 123/123/123
f 123/123/123 104/104/104 103/103/103
f 103/103/103 104/104/104 84/84/84
f 143/143/143 124/124/124 123/123/123
f 123/123/123 124/124/124 104/104/104
f 104/104/104 85/85/85 84/84/84
f 84/84/84 85/85/85 65/65/65
f 124/124/124 105/105/105 104/104/104
f 104/104/104 105/105/105 85/85/85
f 85/85/85 66/66/66 65/65/65
f 65/65/65 66/66/66 46/46/46
f 105/105/105 86/86/86 85/85/85
f 85/85/85 86/86/86 66/66/66
f 66/66/66 47/47/47 46/46/46
f 46/46/46 47/47/47 16/16/16
f 86/86/86 67/67/67 66/66/66
f 66/66/66 67/67/67 47/47/47
f 47/47/47 18/18/18 16/16/16
f 16/16/16 18/18/18 15/15/15
f 67/67/67 48/48/48 47/47/47
f 47/47/47 48/48/48 18/18/18
f 18/18/18 17/17/17 15/15/15
f 15/15/15 17/17/17 597/597/597
f 48/48/48 20/20/20 18/18/18
f 18/18/18 20/20/20 17/17/17
f 17/17/17 598/598/598 597/597/597
f 597/597/597 598/598/598 578/578/578
f 20/20/20 19/19/19 17/17/17
f 17/17/17 19/19/19 598/598/598
f 598/598/598 579/579/579 578/578/578
f 578/578/578 579/579/579 559/559/559
f 19/19/19 599/599/599 598/598/598
f 598/598/598 599/599/599 579/579/579
f 579/579/579 560/560/560 559/559/559
f 559/559/559 560/560/560 540/540/540
f 599/599/599 580/580/580 579/579/579
f 579/579/579 580/580/580 560/560/560
f 560/560/560 541/541/541 540/540/540
f 540/540/540 541/541/541 521/521/521
f 580/580/580 561/561/561 560/560/560
f 560/560/560 561/561/561 541/541/541
f 541/541/541 522/522/522 521/521/521
f 521/521/521 522/522/522 502/502/502
f 561/561/561 542/542/542 541/541/541
f 541/541/541 542/542/542 522/522/522
f 522/522/522 503/503/503 502/502/502
f 502/502/502 503/503/503 483/483/483
f 542/542/542 523/523/523 522/522/522
f 522/522/522 523/523/523 503/503/503
f 503/503/503 484/484/484 483/483/483
f 483/483/483 484/484/484 464/464/464
f 523/523/523 504/504/504 503/503/503
f 503/503/503 504/504/504 484/484/484
f 484/484/484 465/465/465 464/464/464
f 464/464/464 465/465/465 445/445/445
f 504/504/504 485/485/485 484/484/484
f 484/484/484 485/485/485 465/465/465
f 465/465/465 446/446/446 445/445/445
f 445/445/445 446/446/446 426/426/426
f 446/446/446 427/427/427 426/426/426
f 485/485/485 466/466/466 465/465/465
f 465/465/465 466/466/466 446/446/446
f 446/446/446 447/447/447 427/427/427
f 466/466/466 447/447/447 446/446/446
f 447/447/447 428/428/428 427/427/427
f 427/427/427 428/428/428 408/408/408
f 466/466/466 467/467/467 447/447/447
f 428/428/428 409/409/409 408/408/408
f 408/408/408 409/409/409 389/389/389
f 447/447/447 448/448/448 428/428/428
f 467/467/467 448/448/448 447/447/447
f 428/428/428 429/429/429 409/409/409
f 448/448/448 429/429/429 428/428/428
f 409/409/409 390/390/390 389/389/389
f 389/389/389 390/390/390 370/370/370
f 390/390/390 371/371/371 370/370/370
f 429/429/429 410/410/410 409/409/409
f 409/409/409 410/410/410 390/390/390
f 390/390/390 391/391/391 371/371/371
f 410/410/410 391/391/391 390/390/390
f 391/391/391 372/372/372 371/371/371
f 371/371/371 372/372/372 352/352/352
f 410/410/410 411/411/411 391/391/391
f 372/372/372 353/353/353 352/352/352
f 352/352/352 353/353/353 333/333/333
f 391/391/391 392/392/392 372/372/372
f 411/411/411 392/392/392 391/391/391
f 372/372/372 373/373/373 353/353/353
f 392/392/392 373/373/373 372/372/372
f 353/353/353 334/334/334 333/333/333
f 333/333/333 334/334/334 314/314/314
f 373/373/373 354/354/354 353/353/353
f 353/353/353 354/354/354 334/334/334
f 334/334/334 315/315/315 314/314/314
f 314/314/314 315/315/315 295/295/295
f 354/354/354 335/335/335 334/334/334
f 334/334/334 335/335/335 315/315/315
f 315/315/315 296/296/296 295/295/295
f 295/295/295 296/296/296 276/276/276
f 335/335/335 316/316/316 315/315/315
f 315/315/315 316/316/316 296/296/296
f 296/296/296 277/277/277 276/276/276
f 276/276/276 277/277/277 257/257/257
f 316/316/316 297/297/297 296/296/296
f 296/296/296 297/297/297 277/277/277
f 277/277/277 258/258/258 257/257/257
f 257/257/257 258/258/258 238/238/238
f 297/297/297 278/278/278 277/277/277
f 277/277/277 278/278/278 258/258/258
f 258/258/258 239/239/239 238/238/238
f 238/238/238 239/239/239 219/219/219
f 278/278/278 259/259/259 258/258/258
f 258/258/258 259/259/259 239/239/239
f 239/239/239 220/220/220 219/219/219
f 219/219/219 220/220/220 200/200/200
f 259/259/259 240/240/240 239/239/239
f 239/239/239 240/240/240 220/220/220
f 220/220/220 201/201/201 200/200/200
f 200/200/200 201/201/201 181/181/181
f 240/240/240 221/221/221 220/220/220
f 220/220/220 221/221/221 201/201/201
f 201/201/201 182/182/182 181/181/181
f 181/181/181 182/182/182 162/162/162
f 221/221/221 202/202/202 201/201/201
f 201/201/201 202/202/202 182/182/182
f 182/182/182 163/163/163 162/162/162
f 162/162/162 163/163/163 143/143/143
f 202/202/202 183/183/183 182/182/182
f 182/182/182 183/183/183 163/163/163
f 163/163/163 144/144/144 143/143/143
f 143/143/143 144/144/144 124/124/124
f 183/183/183 164/164/164 163/163/163
f 163/163/163 164/164/164 144/144/144
f 144/144/144 125/125/125 124/124/124
f 124/124/124 125/125/125 105/105/105
f 164/164/164 145/145/145 144/144/144
f 144/144/144 145/145/145 125/125/125
f 125/125/125 106/106/106 105/105/105
f 105/105/105 106/106/106 86/86/86
f 145/145/145 126/126/126 125/125/125
f 125/125/125 126/126/126 106/106/106
f 106/106/106 87/87/87 86/86/86
f 86/86/86 87/87/87 67/67/67
f 126/126/126 107/107/107 106/106/106
f 106/106/106 107/107/107 87/87/87
f 87/87/87 68/68/68 67/67/67
f 67/67/67 68/68/68 48/48/48
f 107/107/107 88/88/88 87/87/87
f 87/87/87 88/88/88 68/68/68
f 68/68/68 49/49/49 48/48/48
f 48/48/48 49/49/49 20/20/20
f 88/88/88 69/69/69 68/68/68
f 68/68/68 69/69/69 49/49/49
f 49/49/49 22/22/22 20/20/20
f 20/20/20 22/22/22 19/19/19
f 69/69/69 50/50/50 49/49/49
f 49/49/49 50/50/50 22/22/22
f 22/22/22 21/21/21 19/19/19
f 19/19/19 21/21/21 599/599/599
f 50/50/50 24/24/24 22/22/22
f 22/22/22 24/24/24 21/21/21
f 21/21/21 600/600/600 599/599/599
f 599/599/599 600/600/600 580/580/580
f 24/24/24 23/23/23 21/21/21
f 21/21/21 23/23/23 600/600/600
f 600/600/600 581/581/581 580/580/580
f 580/580/580 581/581/581 561/561/561
f 23/23/23 601/601/601 600/600/600
f 600/600/600 601/601/601 581/581/581
f 581/581/581 562/562/562 561/561/561
f 561/561/561 562/562/562 542/542/542
f 601/601/601 582/582/582 581/581/581
f 581/581/581 582/582/582 562/562/562
f 562/562/562 543/543/543 542/542/542
f 542/542/542 543/543/543 523/523/523
f 582/582/582 563/563/563 562/562/562
f 562/562/562 563/563/563 543/543/543
f 543/543/543 524/524/524 523/523/523
f 523/523/523 524/524/524 504/504/504
f 563/563/563 544/544/544 543/543/543
f 543/543/543 544/544/544 524/524/524
f 524/524/524 505/505/505 504/504/504
f 504/504/504 505/505/505 485/485/485
f 544/544/544 525/525/525 524/524/524
f 524/524/524 525/525/525 505/505/505
f 505/505/505 486/486/486 485/485/485
f 485/485/485 486/486/486 466/466/466
f 486/486/486 467/467/467 466/466/466
f 525/525/525 506/506/506 505/505/505
f 505/505/505 506/506/506 486/486/486
f 486/486/486 487/487/487 467/467/467
f 506/506/506 487/487/487 486/486/486
f 487/487/487 468/468/468 467/467/467
f 467/467/467 468/468/468 448/448/448
f 506/506/506 507/507/507 487/487/487
f 468/468/468 449/449/449 448/448/448
f 448/448/448 449/449/449 429/429/429
f 487/487/487 488/488/488 468/468/468
f 507/507/507 488/488/488 487/487/487
f 468/468/468 469/469/469 449/449/449
f 488/488/488 469/469/469 468/468/468
f 449/449/449 430/430/430 429/429/429
f 429/429/429 430/430/430 410/410/410
f 430/430/430 411/411/411 410/410/410
f 469/469/469 450/450/450 449/449/449
f 449/449/449 450/450/450 430/430/430
f 430/430/430 431/431/431 411/411/411
f 450/450/450 431/431/431 430/430/430
f 431/431/431 412/412/412 411/411/411
f 411/411/411 412/412/412 392/392/392
f 450/450/450 451/451/451 431/431/431
f 412/412/412 393/393/393 392/392/392
f 392/392/392 393/393/393 373/373/373
f 431/431/431 432/432/432 412/412/412
f 451/451/451 432/432/432 431/431/431
f 412/412/412 413/413/413 393/393/393
f 432/432/432 413/413/413 412/412/412
f 393/393/393 374/374/374 373/373/373
f 373/373/373 374/374/374 354/354/354
f 413/413/413 394/394/394 393/393/393
f 393/393/393 394/394/394 374/374/374
f 374/374/374 355/355/355 354/354/354
f 354/354/354 355/355/355 335/335/335
f 394/394/394 375/375/375 374/374/374
f 374/374/374 375/375/375 355/355/355
f 355/355/355 336/336/336 335/335/335
f 335/335/335 336/336/336 316/316/316
f 375/375/375 356/356/356 355/355/355
f 355/355/355 356/356/356 336/336/336
f 336/336/336 317/317/317 316/316/316
f 316/316/316 317/317/317 297/297/297
f 356/356/356 337/337/337 336/336/336
f 336/336/336 337/337/337 317/317/317
f 317/317/317 298/298/298 297/297/297
f 297/297/297 298/298/298 278/278/278
f 337/337/337 318/318/318 317/317/317
f 317/317/317 318/318/318 298/298/298
f 298/298/298 279/279/279 278/278/278
f 278/278/278 279/279/279 259/259/259
f 318/318/318 299/299/299 298/298/298
f 298/298/298 299/299/299 279/279/279
f 279/279/279 260/260/260 259/259/259
f 259/259/259 260/260/260 240/240/240
f 299/299/299 280/280/280 279/279/279
f 279/279/279 280/280/280 260/260/260
f 260/260/260 241/241/241 240/240/240
f 240/240/240 241/241/241 221/221/221
f 280/280/280 261/261/261 260/260/260
f 260/260/260 261/261/261 241/241/241
f 241/241/241 222/222/222 221/221/221
f 221/221/221 222/222/222 202/202/202
f 261/261/261 242/242/242 241/241/241
f 241/241/241 242/242/242 222/222/222
f 222/222/222 203/203/203 202/202/202
f 202/202/202 203/203/203 183/183/183
f 242/242/242 223/223/223 222/222/222
f 222/222/222 223/223/223 203/203/203
f 203/203/203 184/184/184 183/183/183
f 183/183/183 184/184/184 164/164/164
f 223/223/223 204/204/204 203/203/203
f 203/203/203 204/204/204 184/184/184
f 184/184/184 165/165/165 164/164/164
f 164/164/164 165/165/165 145/145/145
f 204/204/204 185/185/185 184/184/184
f 184/184/184 185/185/185 165/165/165
f 165/165/165 146/146/146 145/145/145
f 145/145/145 146/146/146 126/126/126
f 185/185/185 166/166/166 165/165/165
f 165/165/165 166/166/166 146/146/146
f 146/146/146 127/127/127 126/126/126
f 126/126/126 127/127/127 107/107/107
f 166/166/166 147/147/147 146/146/146
f 146/146/146 147/147/147 127/127/127
f 127/127/127 108/108/108 107/107/107
f 107/107/107 108/108/108 88/88/88
f 147/147/147 128/128/128 127/127/127
f 127/127/127 128/128/128 108/108/108
f 108/108/108 89/89/89 88/88/88
f 88/88/88 89/89/89 69/69/69
f 128/128/128 109/109/109 108/108/108
f 108/108/108 109/109/109 89/89/89
f 89/89/89 70/70/70 69/69/69
f 69/69/69 70/70/70 50/50/50
f 109/109/109 90/90/90 89/89/89
f 89/89/89 90/90/90 70/70/70
f 70/70/70 51/51/51 50/50/50
f 50/50/50 51/51/51 24/24/24
f 90/90/90 71/71/71 70/70/70
f 70/70/70 71/71/71 51/51/51
f 51/51/51 26/26/26 24/24/24
f 24/24/24 26/26/26 23/23/23
f 71/71/71 52/52/52 51/51/51
f 51/51/51 52/52/52 26/26/26
f 26/26/26 25/25/25 23/23/23
f 23/23/23 25/25/25 601/601/601
f 52/52/52 28/28/28 26/26/26
f 26/26/26 28/28/28 25/25/25
f 25/25/25 602/602/602 601/601/601
f 601/601/601 602/602/602 582/582/582
f 28/28/28 27/27/27 25/25/25
f 25/25/25 27/27/27 602/602/602
f 602/602/602 583/583/583 582/582/582
f 582/582/582 583/583/583 563/563/563
f 27/27/27 603/603/603 602/602/602
f 602/602/602 603/603/603 583/583/583
f 583/583/583 564/564/564 563/563/563
f 563/563/563 564/564/564 544/544/544
f 603/603/603 584/584/584 583/583/583
f 583/583/583 584/584/584 564/564/564
f 564/564/564 545/545/545 544/544/544
f 544/544/544 545/545/545 525/525/525
f 584/584/584 565/565/565 564/564/564
f 564/564/564 565/565/565 545/545/545
f 545/545/545 526/526/526 525/525/525
f 525/525/525 526/526/526 506/506/506
f 526/526/526 507/507/507 506/506/506
f 565/565/565 546/546/546 545/545/545
f 545/545/545 546/546/546 526/526/526
f 526/526/526 527/527/527 507/507/507
f 546/546/546 527/527/527 526/526/526
f 527/527/527 508/508/508 507/507/507
f 507/507/507 508/508/508 488/488/488
f 546/546/546 547/547/547 527/527/527
f 508/508/508 489/489/489 488/488/488
f 488/488/488 489/489/489 469/469/469
f 527/527/527 528/528/528 508/508/508
f 547/547/547 528/528/528 527/527/527
f 508/508/508 509/509/509 489/489/489
f 528/528/528 509/509/509 508/508/508
f 489/489/489 470/470/470 469/469/469
f 469/469/469 470/470/470 450/450/450
f 470/470/470 451/451/451 450/450/450
f 509/509/509 490/490/490 489/489/489
f 489/489/489 490/490/490 470/470/470
f 470/470/470 471/471/471 451/451/451
f 490/490/490 471/471/471 470/470/470
f 471/471/471 452/452/452 451/451/451
f 451/451/451 452/452/452 432/432/432
f 490/490/490 491/491/491 471/471/471
f 452/452/452 433/433/433 432/432/432
f 432/432/432 433/433/433 413/413/413
f 471/471/471 472/472/472 452/452/452
f 491/491/491 472/472/472 471/471/471
f 452/452/452 453/453/453 433/433/433
f 472/472/472 453/453/453 452/452/452
f 433/433/433 414/414/414 413/413/413
f 413/413/413 414/414/414 394/394/394
f 472/472/472 473/473/473 453/453/453
f 492/492/492 473/473/473 472/472/472
f 491/491/491 492/492/492 472/472/472
f 473/473/473 454/454/454 453/453/453
f 511/511/511 492/492/492 491/491/491
f 453/453/453 454/454/454 434/434/434
f 453/453/453 434/434/434 433/433/433
f 433/433/433 434/434/434 414/414/414
f 454/454/454 435/435/435 434/434/434
f 510/510/510 511/511/511 491/491/491
f 510/510/510 491/491/491 490/490/490
f 509/509/509 510/510/510 490/490/490
f 530/530/530 511/511/511 510/510/510
f 434/434/434 435/435/435 415/415/415
f 434/434/434 415/415/415 414/414/414
f 435/435/435 416/416/416 415/415/415
f 529/529/529 530/530/530 510/510/510
f 529/529/529 510/510/510 509/509/509
f 528/528/528 529/529/529 509/509/509
f 549/549/549 530/530/530 529/529/529
f 548/548/548 529/529/529 528/528/528
f 548/548/548 549/549/549 529/529/529
f 547/547/547 548/548/548 528/528/528
f 568/568/568 549/549/549 548/548/548
f 567/567/567 568/568/568 548/548/548
f 567/567/567 548/548/548 547/547/547
f 587/587/587 568/568/568 567/567/567
f 566/566/566 567/567/567 547/547/547
f 566/566/566 547/547/547 546/546/546
f 565/565/565 566/566/566 546/546/546
f 586/586/586 587/587/587 567/567/567
f 586/586/586 567/567/567 566/566/566
f 606/606/606 587/587/587 586/586/586
f 585/585/585 566/566/566 565/565/565
f 585/585/585 586/586/586 566/566/566
f 584/584/584 585/585/585 565/565/565
f 605/605/605 606/606/606 586/586/586
f 605/605/605 586/586/586 585/585/585
f 33/33/33 606/606/606 605/605/605
f 604/604/604 585/585/585 584/584/584
f 604/604/604 605/605/605 585/585/585
f 603/603/603 604/604/604 584/584/584
f 31/31/31 33/33/33 605/605/605
f 31/31/31 605/605/605 604/604/604
f 34/34/34 33/33/33 31/31/31
f 29/29/29 604/604/604 603/603/603
f 29/29/29 31/31/31 604/604/604
f 27/27/27 29/29/29 603/603/603
f 32/32/32 34/34/34 31/31/31
f 32/32/32 31/31/31 29/29/29
f 55/55/55 34/34/34 32/32/32
f 30/30/30 29/29/29 27/27/27
f 30/30/30 32/32/32 29/29/29
f 28/28/28 30/30/30 27/27/27
f 54/54/54 55/55/55 32/32/32
f 54/54/54 32/32/32 30/30/30
f 74/74/74 55/55/55 54/54/54
f 53/53/53 30/30/30 28/28/28
f 53/53/53 54/54/54 30/30/30
f 52/52/52 53/53/53 28/28/28
f 73/73/73 74/74/74 54/54/54
f 73/73/73 54/54/54 53/53/53
f 93/93/93 74/74/74 73/73/73
f 72/72/72 53/53/53 52/52/52
f 72/72/72 73/73/73 53/53/53
f 71/71/71 72/72/72 52/52/52
f 92/92/92 93/93/93 73/73/73
f 92/92/92 73/73/73 72/72/72
f 112/112/112 93/93/93 92/92/92
f 91/91/91 72/72/72 71/71/71
f 91/91/91 92/92/92 72/72/72
f 90/90/90 91/91/91 71/71/71
f 111/111/111 112/112/112 92/92/92
f 111/111/111 92/92/92 91/91/91
f 131/131/131 112/112/112 111/111/111
f 110/110/110 91/91/91 90/90/90
f 110/110/110 111/111/111 91/91/91
f 109/109/109 110/110/110 90/90/90
f 130/130/130 131/131/131 111/111/111
f 130/130/130 111/111/111 110/110/110
f 150/150/150 131/131/131 130/130/130
f 129/129/129 110/110/110 109/109/109
f 129/129/129 130/130/130 110/110/110
f 128/128/128 129/129/129 109/109/109
f 149/149/149 150/150/150 130/130/130
f 149/149/149 130/130/130 129/129/129
f 169/169/169 150/150/150 149/149/149
f 148/148/148 129/129/129 128/128/128
f 148/148/148 149/149/149 129/129/129
f 147/147/147 148/148/148 128/128/128
f 168/168/168 169/169/169 149/149/149
f 168/168/168 149/149/149 148/148/148
f 188/188/188 169/169/169 168/168/168
f 167/167/167 148/148/148 147/147/147
f 167/167/167 168/168/168 148/148/148
f 166/166/166 167/167/167 147/147/147
f 187/187/187 188/188/188 168/168/168
f 187/187/187 168/168/168 167/167/167
f 207/207/207 188/188/188 187/187/187
f 186/186/186 167/167/167 166/166/166
f 186/186/186 187/187/187 167/167/167
f 185/185/185 186/186/186 166/166/166
f 206/206/206 207/207/207 187/187/187
f 206/206/206 187/187/187 186/186/186
f 226/226/226 207/207/207 206/206/206
f 205/205/205 186/186/186 185/185/185
f 205/205/205 206/206/206 186/186/186
f 204/204/204 205/205/205 185/185/185
f 225/225/225 226/226/226 206/206/206
f 225/225/225 206/206/206 205/205/205
f 245/245/245 226/226/226 225/225/225
f 224/224/224 205/205/205 204/204/204
f 224/224/224 225/225/225 205/205/205
f 223/223/223 224/224/224 204/204/204
f 244/244/244 245/245/245 225/225/225
f 244/244/244 225/225/225 224/224/224
f 264/264/264 245/245/245 244/244/244
f 243/243/243 224/224/224 223/223/223
f 243/243/243 244/244/244 224/224/224
f 242/242/242 243/243/243 223/223/223
f 263/263/263 264/264/264 244/244/244
f 263/263/263 244/244/244 243/243/243
f 283/283/283 264/264/264 263/263/263
f 262/262/262 243/243/243 242/242/242
f 262/262/262 263/263/263 243/243/243
f 261/261/261 262/262/262 242/242/242
f 282/282/282 283/283/283 263/263/263
f 282/282/282 263/263/263 262/262/262
f 302/302/302 283/283/283 282/282/282
f 281/281/281 262/262/262 261/261/261
f 281/281/281 282/282/282 262/262/262
f 280/280/280 281/281/281 261/261/261
f 301/301/301 302/302/302 282/282/282
f 301/301/301 282/282/282 281/281/281
f 321/321/321 302/302/302 301/301/301
f 300/300/300 281/281/281 280/280/280
f 300/300/300 301/301/301 281/281/281
f 299/299/299 300/300/300 280/280/280
f 320/320/320 321/321/321 301/301/301
f 320/320/320 301/301/301 300/300/300
f 340/340/340 321/321/321 320/320/320
f 319/319/319 300/300/300 299/299/299
f 319/319/319 320/320/320 300/300/300
f 318/318/318 319/319/319 299/299/299
f 339/339/339 340/340/340 320/320/320
f 339/339/339 320/320/320 319/319/319
f 359/359/359 340/340/340 339/339/339
f 338/338/338 319/319/319 318/318/318
f 338/338/338 339/339/339 319/319/319
f 337/337/337 338/338/338 318/318/318
f 358/358/358 359/359/359 339/339/339
f 358/358/358 339/339/339 338/338/338
f 378/378/378 359/359/359 358/358/358
f 357/357/357 338/338/338 337/337/337
f 357/357/357 358/358/358 338/338/338
f 356/356/356 357/357/357 337/337/337
f 377/377/377 378/378/378 358/358/358
f 377/377/377 358/358/358 357/357/357
f 397/397/397 378/378/378 377/377/377
f 376/376/376 357/357/357 356/356/356
f 376/376/376 377/377/377 357/357/357
f 375/375/375 376/376/376 356/356/356
f 396/396/396 397/397/397 377/377/377
f 396/396/396 377/377/377 376/376/376
f 416/416/416 397/397/397 396/396/396
f 415/415/415 416/416/416 396/396/396
f 395/395/395 376/376/376 375/375/375
f 395/395/395 396/396/396 376/376/376
f 415/415/415 396/396/396 395/395/395
f 394/394/394 395/395/395 375/375/375
f 414/414/414 415/415/415 395/395/395
f 414/414/414 395/395/395 394/394/394
f 37/37/37 36/36/36 35/35/35
f 35/35/35 36/36/36 608/608/608
f 38/38/38 37/37/37 35/35/35
f 36/36/36 607/607/607 608/608/608
f 56/56/56 37/37/37 38/38/38
f 608/608/608 607/607/607 589/589/589
f 57/57/57 56/56/56 38/38/38
f 607/607/607 588/588/588 589/589/589
f 75/75/75 56/56/56 57/57/57
f 589/589/589 588/588/588 570/570/570
f 76/76/76 75/75/75 57/57/57
f 588/588/588 569/569/569 570/570/570
f 94/94/94 75/75/75 76/76/76
f 570/570/570 569/569/569 551/551/551
f 95/95/95 94/94/94 76/76/76
f 569/569/569 550/550/550 551/551/551
f 113/113/113 94/94/94 95/95/95
f 551/551/551 550/550/550 532/532/532
f 114/114/114 113/113/113 95/95/95
f 550/550/550 531/531/531 532/532/532
f 132/132/132 113/113/113 114/114/114
f 532/532/532 531/531/531 513/513/513
f 133/133/133 132/132/132 114/114/114
f 531/531/531 512/512/512 513/513/513
f 151/151/151 132/132/132 133/133/133
f 513/513/513 512/512/512 494/494/494
f 152/152/152 151/151/151 133/133/133
f 512/512/512 493/493/493 494/494/494
f 170/170/170 151/151/151 152/152/152
f 494/494/494 493/493/493 475/475/475
f 171/171/171 170/170/170 152/152/152
f 493/493/493 474/474/474 475/475/475
f 189/189/189 170/170/170 171/171/171
f 475/475/475 474/474/474 456/456/456
f 190/190/190 189/189/189 171/171/171
f 474/474/474 455/455/455 456/456/456
f 208/208/208 189/189/189 190/190/190
f 456/456/456 455/455/455 437/437/437
f 209/209/209 208/208/208 190/190/190
f 455/455/455 436/436/436 437/437/437
f 227/227/227 208/208/208 209/209/209
f 437/437/437 436/436/436 418/418/418
f 228/228/228 227/227/227 209/209/209
f 436/436/436 417/417/417 418/418/418
f 246/246/246 227/227/227 228/228/228
f 418/418/418 417/417/417 399/399/399
f 247/247/247 246/246/246 228/228/228
f 417/417/417 398/398/398 399/399/399
f 265/265/265 246/246/246 247/247/247
f 399/399/399 398/398/398 380/380/380
f 266/266/266 265/265/265 247/247/247
f 398/398/398 379/379/379 380/380/380
f 284/284/284 265/265/265 266/266/266
f 380/380/380 379/379/379 361/361/361
f 285/285/285 284/284/284 266/266/266
f 379/379/379 360/360/360 361/361/361
f 303/303/303 284/284/284 285/285/285
f 361/361/361 360/360/360 342/342/342
f 304/304/304 303/303/303 285/285/285
f 360/360/360 341/341/341 342/342/342
f 322/322/322 303/303/303 304/304/304
f 342/342/342 341/341/341 323/323/323
f 323/323/323 322/322/322 304/304/304
f 341/341/341 322/322/322 323/323/323
