# VPXTOOL table OBJ file
# VPXTOOL OBJ file
# numVerts: 156 numFaces: 90
o p37off
v -0.030378 -0.106929 0.04114
v -0.030378 -0.092786 0.04114
v -0.086951 -0.092786 0.04114
v -0.086951 -0.106929 0.04114
v -0.086951 -0.106929 0.072862
v -0.086951 -0.092786 0.072862
v -0.030378 -0.092786 0.072862
v -0.030378 -0.106929 0.072862
v -0.074525 -0.106929 0.028715
v -0.074525 -0.092786 0.028715
v -0.074525 -0.092786 0.085288
v -0.074525 -0.106929 0.085288
v -0.042803 -0.106929 0.085288
v -0.042803 -0.092786 0.085288
v -0.042803 -0.092786 0.028715
v -0.042803 -0.106929 0.028715
v -0.130749 -0.044199 -0.102679
v -0.130749 -0.001642 -0.102679
v -0.126868 -0.001642 -0.113388
v -0.126868 -0.044199 -0.113388
v 0.130836 -0.044199 -0.103434
v 0.130836 -0.001642 -0.103434
v 0.132492 -0.001642 -0.091609
v 0.132492 -0.044199 -0.091609
v -0.126868 -0.044199 -0.113388
v -0.126868 -0.001642 -0.113388
v -0.120928 -0.001642 -0.12171
v -0.120928 -0.044199 -0.12171
v -0.120928 -0.044199 -0.12171
v -0.120928 -0.001642 -0.12171
v -0.112465 -0.001642 -0.12742
v -0.112465 -0.044199 -0.12742
v -0.112465 -0.044199 -0.12742
v -0.112465 -0.001642 -0.12742
v -0.101736 -0.001642 -0.131026
v -0.101736 -0.044199 -0.131026
v 0.132533 -0.044199 0.091575
v 0.132533 -0.001642 0.091575
v 0.130864 -0.001642 0.103347
v 0.130864 -0.044199 0.103347
v 0.101746 -0.044199 0.131181
v 0.101746 -0.001642 0.131181
v 0.089832 -0.001642 0.132509
v 0.089832 -0.044199 0.132509
v 0.112527 -0.044199 0.127666
v 0.112527 -0.001642 0.127666
v 0.101746 -0.001642 0.131181
v 0.101746 -0.044199 0.131181
v -0.13074 -0.044199 0.10334
v -0.13074 -0.001642 0.10334
v -0.132385 -0.001642 0.091593
v -0.132385 -0.044199 0.091593
v 0.121016 -0.044199 0.122051
v 0.121016 -0.001642 0.122051
v 0.112527 -0.001642 0.127666
v 0.112527 -0.044199 0.127666
v 0.089832 -0.044199 -0.132435
v 0.089832 -0.001642 -0.132435
v 0.101709 -0.001642 -0.131165
v 0.101709 -0.044199 -0.131165
v -0.089865 -0.044199 -0.132435
v -0.089865 -0.001642 -0.132435
v 0.089832 -0.001642 -0.132435
v 0.089832 -0.044199 -0.132435
v 0.126964 -0.044199 0.113863
v 0.126964 -0.001642 0.113863
v 0.121016 -0.001642 0.122051
v 0.121016 -0.044199 0.122051
v 0.101709 -0.044199 -0.131165
v 0.101709 -0.001642 -0.131165
v 0.112471 -0.001642 -0.127707
v 0.112471 -0.044199 -0.127707
v -0.089866 -0.044199 0.132503
v -0.089866 -0.001642 0.132503
v -0.101754 -0.001642 0.131168
v -0.101754 -0.044199 0.131168
v 0.089832 -0.044199 0.132509
v 0.089832 -0.001642 0.132509
v -0.089866 -0.001642 0.132503
v -0.089866 -0.044199 0.132503
v 0.130864 -0.044199 0.103347
v 0.130864 -0.001642 0.103347
v 0.126964 -0.001642 0.113863
v 0.126964 -0.044199 0.113863
v 0.112471 -0.044199 -0.127707
v 0.112471 -0.001642 -0.127707
v 0.120961 -0.001642 -0.122138
v 0.120961 -0.044199 -0.122138
v -0.101754 -0.044199 0.131168
v -0.101754 -0.001642 0.131168
v -0.112502 -0.001642 0.127643
v -0.112502 -0.044199 0.127643
v -0.101736 -0.044199 -0.131026
v -0.101736 -0.001642 -0.131026
v -0.089865 -0.001642 -0.132435
v -0.089865 -0.044199 -0.132435
v 0.120961 -0.044199 -0.122138
v 0.120961 -0.001642 -0.122138
v 0.126922 -0.001642 -0.113971
v 0.126922 -0.044199 -0.113971
v -0.112502 -0.044199 0.127643
v -0.112502 -0.001642 0.127643
v -0.120957 -0.001642 0.122025
v -0.120957 -0.044199 0.122025
v 0.126922 -0.044199 -0.113971
v 0.126922 -0.001642 -0.113971
v 0.130836 -0.001642 -0.103434
v 0.130836 -0.044199 -0.103434
v -0.132385 -0.044199 0.091593
v -0.132385 -0.001642 0.091593
v -0.132385 -0.001642 -0.090701
v -0.132385 -0.044199 -0.090701
v -0.120957 -0.044199 0.122025
v -0.120957 -0.001642 0.122025
v -0.126871 -0.001642 0.113842
v -0.126871 -0.044199 0.113842
v -0.132385 -0.044199 -0.090701
v -0.132385 -0.001642 -0.090701
v -0.130749 -0.001642 -0.102679
v -0.130749 -0.044199 -0.102679
v 0.132492 -0.044199 -0.091609
v 0.132492 -0.001642 -0.091609
v 0.132533 -0.001642 0.091575
v 0.132533 -0.044199 0.091575
v -0.120928 -0.044199 -0.12171
v -0.112465 -0.044199 -0.12742
v -0.101736 -0.044199 -0.131026
v -0.089865 -0.044199 -0.132435
v 0.089832 -0.044199 -0.132435
v 0.101709 -0.044199 -0.131165
v 0.112471 -0.044199 -0.127707
v 0.120961 -0.044199 -0.122138
v 0.126922 -0.044199 -0.113971
v 0.130836 -0.044199 -0.103434
v 0.132492 -0.044199 -0.091609
v 0.132533 -0.044199 0.091575
v 0.130864 -0.044199 0.103347
v 0.126964 -0.044199 0.113863
v 0.121016 -0.044199 0.122051
v 0.112527 -0.044199 0.127666
v 0.101746 -0.044199 0.131181
v 0.089832 -0.044199 0.132509
v -0.089866 -0.044199 0.132503
v -0.101754 -0.044199 0.131168
v -0.112502 -0.044199 0.127643
v -0.120957 -0.044199 0.122025
v -0.126871 -0.044199 0.113842
v -0.13074 -0.044199 0.10334
v -0.132385 -0.044199 0.091593
v -0.132385 -0.044199 -0.090701
v -0.130749 -0.044199 -0.102679
v -0.126868 -0.044199 -0.113388
v -0.126871 -0.044199 0.113842
v -0.126871 -0.001642 0.113842
v -0.13074 -0.001642 0.10334
v -0.13074 -0.044199 0.10334
vt 0 0
vt 0 0
vt 0 0
vt 0 0
vt 0 0
vt 0 0
vt 0 0
vt 0 0
vt 0 0
vt 0 0
vt 0 0
vt 0 0
vt 0 0
vt 0 0
vt 0 0
vt 0 0
vt 0.057698 0.84734601
vt 0.020176 0.876812994
vt 0.034417 0.916112006
vt 0.070826 0.88357198
vt 0.942597 0.8499
vt 0.980145 0.879584014
vt 0.986222 0.83618999
vt 0.948199 0.80989897
vt 0.070826 0.88357198
vt 0.034417 0.916112006
vt 0.056215 0.94665402
vt 0.09092 0.911726
vt 0.09092 0.911726
vt 0.056215 0.94665402
vt 0.087275 0.96760702
vt 0.11955 0.93103999
vt 0.11955 0.93103999
vt 0.087275 0.96760702
vt 0.126648 0.980843008
vt 0.155844 0.943241
vt 0.948339 0.19021499
vt 0.986373 0.163935
vt 0.980249 0.12073398
vt 0.942693 0.15039301
vt 0.844189 0.056235015
vt 0.873388 0.018588006
vt 0.829669 0.013715029
vt 0.803888 0.05174303
vt 0.880659 0.06812602
vt 0.912952 0.031488
vt 0.873388 0.018588006
vt 0.844189 0.056235015
vt 0.057728 0.15041602
vt 0.020208 0.12076002
vt 0.014171 0.16386998
vt 0.052163 0.19015503
vt 0.909379 0.08712101
vt 0.944109 0.052094996
vt 0.912952 0.031488
vt 0.880659 0.06812602
vt 0.803888 0.94800502
vt 0.829669 0.986011028
vt 0.873254 0.981351972
vt 0.844065 0.94371003
vt 0.196 0.948005974
vt 0.17021 0.986011982
vt 0.829669 0.986011028
vt 0.803888 0.94800502
vt 0.929499 0.11481899
vt 0.965936 0.082141995
vt 0.944109 0.052094996
vt 0.909379 0.08712101
vt 0.844065 0.94371003
vt 0.873254 0.981351972
vt 0.91275 0.968662977
vt 0.880473 0.932012975
vt 0.195999 0.051761985
vt 0.170209 0.01373601
vt 0.126582 0.018638015
vt 0.155783 0.05628097
vt 0.803888 0.05174303
vt 0.829669 0.013715029
vt 0.170209 0.01373601
vt 0.195999 0.051761985
vt 0.942693 0.15039301
vt 0.980249 0.12073398
vt 0.965936 0.082141995
vt 0.929499 0.11481899
vt 0.880473 0.932012975
vt 0.91275 0.968662977
vt 0.943905 0.948224008
vt 0.909191 0.91317302
vt 0.155783 0.05628097
vt 0.126582 0.018638015
vt 0.087138 0.031572998
vt 0.119424 0.068203986
vt 0.155844 0.943241
vt 0.126648 0.980843008
vt 0.17021 0.986011982
vt 0.196 0.948005974
vt 0.909191 0.91317302
vt 0.943905 0.948224008
vt 0.965783 0.91825199
vt 0.929358 0.885544
vt 0.119424 0.068203986
vt 0.087138 0.031572998
vt 0.05611 0.05219102
vt 0.090823 0.08721
vt 0.929358 0.885544
vt 0.965783 0.91825199
vt 0.980145 0.879584014
vt 0.942597 0.8499
vt 0.052163 0.19015503
vt 0.014171 0.16386998
vt 0.014172 0.83285701
vt 0.052164 0.80682701
vt 0.090823 0.08721
vt 0.05611 0.05219102
vt 0.034405 0.082219005
vt 0.070815 0.11488998
vt 0.052164 0.80682701
vt 0.014172 0.83285701
vt 0.020176 0.876812994
vt 0.057698 0.84734601
vt 0.948199 0.80989897
vt 0.986222 0.83618999
vt 0.986373 0.163935
vt 0.948339 0.19021499
vt 0.09092 0.911726
vt 0.11955 0.93103999
vt 0.155844 0.943241
vt 0.196 0.948005974
vt 0.803888 0.94800502
vt 0.844065 0.94371003
vt 0.880473 0.932012975
vt 0.909191 0.91317302
vt 0.929358 0.885544
vt 0.942597 0.8499
vt 0.948199 0.80989897
vt 0.948339 0.19021499
vt 0.942693 0.15039301
vt 0.929499 0.11481899
vt 0.909379 0.08712101
vt 0.880659 0.06812602
vt 0.844189 0.056235015
vt 0.803888 0.05174303
vt 0.195999 0.051761985
vt 0.155783 0.05628097
vt 0.119424 0.068203986
vt 0.090823 0.08721
vt 0.070815 0.11488998
vt 0.057728 0.15041602
vt 0.052163 0.19015503
vt 0.052164 0.80682701
vt 0.057698 0.84734601
vt 0.070826 0.88357198
vt 0.070815 0.11488998
vt 0.034405 0.082219005
vt 0.020208 0.12076002
vt 0.057728 0.15041602
vn -0 -0 -1
vn -0 -0 -1
vn -0 -0 -1
vn -0 -0 -1
vn 0 0 1
vn 0 0 1
vn 0 0 1
vn 0 0 1
vn -1 0 0
vn -1 0 0
vn -1 0 0
vn -1 0 0
vn 1 0 0
vn 1 0 0
vn 1 0 0
vn 1 0 0
vn 0.9402 0 0.3407
vn 0.9402 0 0.3407
vn 0.9402 0 0.3407
vn 0.9402 0 0.3407
vn -0.9903 -0 0.1387
vn -0.9903 -0 0.1387
vn -0.9903 -0 0.1387
vn -0.9903 -0 0.1387
vn 0.814 0 0.5809
vn 0.814 0 0.5809
vn 0.814 0 0.5809
vn 0.814 0 0.5809
vn 0.5592 0 0.829
vn 0.5592 0 0.829
vn 0.5592 0 0.829
vn 0.5592 0 0.829
vn 0.3186 0 0.9479
vn 0.3186 0 0.9479
vn 0.3186 0 0.9479
vn 0.3186 0 0.9479
vn -0.9901 -0 -0.1404
vn -0.9901 -0 -0.1404
vn -0.9901 -0 -0.1404
vn -0.9901 -0 -0.1404
vn -0.1108 -0 -0.9938
vn -0.1108 -0 -0.9938
vn -0.1108 -0 -0.9938
vn -0.1108 -0 -0.9938
vn -0.31 0 -0.9507
vn -0.31 0 -0.9507
vn -0.31 0 -0.9507
vn -0.31 0 -0.9507
vn 0.9903 0 -0.1387
vn 0.9903 0 -0.1387
vn 0.9903 0 -0.1387
vn 0.9903 0 -0.1387
vn -0.5517 -0 -0.8341
vn -0.5517 -0 -0.8341
vn -0.5517 -0 -0.8341
vn -0.5517 -0 -0.8341
vn -0.1063 0 0.9943
vn -0.1063 0 0.9943
vn -0.1063 0 0.9943
vn -0.1063 0 0.9943
vn 0 0 1
vn 0 0 1
vn 0 0 1
vn 0 0 1
vn -0.8091 -0 -0.5877
vn -0.8091 -0 -0.5877
vn -0.8091 -0 -0.5877
vn -0.8091 -0 -0.5877
vn -0.3059 0 0.9521
vn -0.3059 0 0.9521
vn -0.3059 0 0.9521
vn -0.3059 0 0.9521
vn 0.1117 -0 -0.9937
vn 0.1117 -0 -0.9937
vn 0.1117 -0 -0.9937
vn 0.1117 -0 -0.9937
vn -0 -0 -1
vn -0 -0 -1
vn -0 -0 -1
vn -0 -0 -1
vn -0.9376 -0 -0.3477
vn -0.9376 -0 -0.3477
vn -0.9376 -0 -0.3477
vn -0.9376 -0 -0.3477
vn -0.5485 0 0.8361
vn -0.5485 0 0.8361
vn -0.5485 0 0.8361
vn -0.5485 0 0.8361
vn 0.3116 0 -0.9502
vn 0.3116 0 -0.9502
vn 0.3116 0 -0.9502
vn 0.3116 0 -0.9502
vn 0.1178 0 0.993
vn 0.1178 0 0.993
vn 0.1178 0 0.993
vn 0.1178 0 0.993
vn -0.8077 0 0.5896
vn -0.8077 0 0.5896
vn -0.8077 0 0.5896
vn -0.8077 0 0.5896
vn 0.5535 0 -0.8329
vn 0.5535 0 -0.8329
vn 0.5535 0 -0.8329
vn 0.5535 0 -0.8329
vn -0.9374 -0 0.3482
vn -0.9374 -0 0.3482
vn -0.9374 -0 0.3482
vn -0.9374 -0 0.3482
vn 1 0 0
vn 1 0 0
vn 1 0 0
vn 1 0 0
vn 0.8104 -0 -0.5858
vn 0.8104 -0 -0.5858
vn 0.8104 -0 -0.5858
vn 0.8104 -0 -0.5858
vn 0.9908 0 0.1353
vn 0.9908 0 0.1353
vn 0.9908 0 0.1353
vn 0.9908 0 0.1353
vn -1 0 0.0002
vn -1 0 0.0002
vn -1 0 0.0002
vn -1 0 0.0002
vn -0 1 -0
vn -0 1 -0
vn -0 1 -0
vn -0 1 -0
vn -0 1 -0
vn -0 1 -0
vn -0 1 -0
vn -0 1 -0
vn -0 1 -0
vn -0 1 -0
vn -0 1 -0
vn -0 1 -0
vn -0 1 -0
vn -0 1 -0
vn -0 1 -0
vn -0 1 -0
vn -0 1 -0
vn -0 1 -0
vn -0 1 -0
vn -0 1 -0
vn -0 1 -0
vn -0 1 -0
vn -0 1 -0
vn -0 1 -0
vn -0 1 -0
vn -0 1 -0
vn -0 1 -0
vn -0 1 -0
vn 0.9384 0 -0.3457
vn 0.9384 0 -0.3457
vn 0.9384 0 -0.3457
vn 0.9384 0 -0.3457
f 3/3/3 2/2/2 1/1/1
f 4/4/4 3/3/3 1/1/1
f 7/7/7 6/6/6 5/5/5
f 8/8/8 7/7/7 5/5/5
f 11/11/11 10/10/10 9/9/9
f 12/12/12 11/11/11 9/9/9
f 15/15/15 14/14/14 13/13/13
f 16/16/16 15/15/15 13/13/13
f 19/19/19 18/18/18 17/17/17
f 20/20/20 19/19/19 17/17/17
f 23/23/23 22/22/22 21/21/21
f 24/24/24 23/23/23 21/21/21
f 27/27/27 26/26/26 25/25/25
f 28/28/28 27/27/27 25/25/25
f 31/31/31 30/30/30 29/29/29
f 32/32/32 31/31/31 29/29/29
f 35/35/35 34/34/34 33/33/33
f 36/36/36 35/35/35 33/33/33
f 39/39/39 38/38/38 37/37/37
f 40/40/40 39/39/39 37/37/37
f 43/43/43 42/42/42 41/41/41
f 44/44/44 43/43/43 41/41/41
f 47/47/47 46/46/46 45/45/45
f 48/48/48 47/47/47 45/45/45
f 51/51/51 50/50/50 49/49/49
f 52/52/52 51/51/51 49/49/49
f 55/55/55 54/54/54 53/53/53
f 56/56/56 55/55/55 53/53/53
f 59/59/59 58/58/58 57/57/57
f 60/60/60 59/59/59 57/57/57
f 63/63/63 62/62/62 61/61/61
f 64/64/64 63/63/63 61/61/61
f 67/67/67 66/66/66 65/65/65
f 68/68/68 67/67/67 65/65/65
f 71/71/71 70/70/70 69/69/69
f 72/72/72 71/71/71 69/69/69
f 75/75/75 74/74/74 73/73/73
f 76/76/76 75/75/75 73/73/73
f 79/79/79 78/78/78 77/77/77
f 80/80/80 79/79/79 77/77/77
f 83/83/83 82/82/82 81/81/81
f 84/84/84 83/83/83 81/81/81
f 87/87/87 86/86/86 85/85/85
f 88/88/88 87/87/87 85/85/85
f 91/91/91 90/90/90 89/89/89
f 92/92/92 91/91/91 89/89/89
f 95/95/95 94/94/94 93/93/93
f 96/96/96 95/95/95 93/93/93
f 99/99/99 98/98/98 97/97/97
f 100/100/100 99/99/99 97/97/97
f 103/103/103 102/102/102 101/101/101
f 104/104/104 103/103/103 101/101/101
f 107/107/107 106/106/106 105/105/105
f 108/108/108 107/107/107 105/105/105
f 111/111/111 110/110/110 109/109/109
f 112/112/112 111/111/111 109/109/109
f 115/115/115 114/114/114 113/113/113
f 116/116/116 115/115/115 113/113/113
f 119/119/119 118/118/118 117/117/117
f 120/120/120 119/119/119 117/117/117
f 123/123/123 122/122/122 121/121/121
f 124/124/124 123/123/123 121/121/121
f 127/127/127 126/126/126 125/125/125
f 128/128/128 127/127/127 125/125/125
f 129/129/129 128/128/128 125/125/125
f 130/130/130 129/129/129 125/125/125
f 131/131/131 130/130/130 125/125/125
f 132/132/132 131/131/131 125/125/125
f 133/133/133 132/132/132 125/125/125
f 134/134/134 133/133/133 125/125/125
f 135/135/135 134/134/134 125/125/125
f 136/136/136 135/135/135 125/125/125
f 137/137/137 136/136/136 125/125/125
f 138/138/138 137/137/137 125/125/125
f 139/139/139 138/138/138 125/125/125
f 140/140/140 139/139/139 125/125/125
f 141/141/141 140/140/140 125/125/125
f 142/142/142 141/141/141 125/125/125
f 143/143/143 142/142/142 125/125/125
f 144/144/144 143/143/143 125/125/125
f 145/145/145 144/144/144 125/125/125
f 146/146/146 145/145/145 125/125/125
f 147/147/147 146/146/146 125/125/125
f 148/148/148 147/147/147 125/125/125
f 149/149/149 148/148/148 125/125/125
f 150/150/150 149/149/149 125/125/125
f 151/151/151 150/150/150 125/125/125
f 152/152/152 151/151/151 125/125/125
f 155/155/155 154/154/154 153/153/153
f 156/156/156 155/155/155 153/153/153
