# VPXTOOL table OBJ file
# VPXTOOL OBJ file
# numVerts: 151 numFaces: 87
o p18off
v -0.044522 -0.045789 -0.004559
v -0.064762 -0.045789 -0.046553
v 0.372102 -0.045789 -0.037519
v 0.391518 -0.001788 0.04671
v 0.372149 -0.001788 0.054762
v 0.372149 -0.045789 0.054762
v 0.391518 -0.045789 0.04671
v 0.372102 -0.001788 -0.037519
v 0.372102 -0.045789 -0.037519
v -0.248815 -0.045789 -0.258923
v -0.248815 -0.001788 -0.258923
v -0.104952 -0.001788 -0.070254
v -0.104952 -0.045789 -0.070254
v -0.064762 -0.045789 -0.046553
v -0.064762 -0.001788 -0.046553
v 0.415275 -0.001788 0.013889
v 0.415275 -0.045789 0.013889
v 0.412638 -0.045789 -0.006775
v 0.412638 -0.001788 -0.006775
v -0.318666 -0.001788 -0.161132
v -0.327397 -0.001788 -0.197146
v -0.327397 -0.045789 -0.197146
v -0.318666 -0.045789 -0.161132
v -0.064762 -0.001788 -0.046553
v -0.064762 -0.045789 -0.046553
v -0.044522 -0.045789 -0.004559
v -0.044522 -0.001788 -0.004559
v -0.33313 -0.045789 0.206675
v -0.321891 -0.045789 0.171547
v -0.289289 -0.045789 0.153381
v 0.40007 -0.045789 -0.023429
v 0.415275 -0.045789 0.013889
v 0.407457 -0.045789 0.033184
v -0.250093 -0.045789 0.269099
v -0.262178 -0.045789 0.272447
v 0.381931 -0.001788 -0.03385
v 0.40007 -0.001788 -0.023429
v 0.40007 -0.045789 -0.023429
v 0.381931 -0.045789 -0.03385
v 0.407457 -0.001788 0.033184
v 0.391518 -0.001788 0.04671
v 0.391518 -0.045789 0.04671
v 0.407457 -0.045789 0.033184
v 0.391518 -0.045789 0.04671
v -0.325835 -0.045789 0.243311
v 0.412638 -0.045789 -0.006775
v -0.053268 -0.045789 0.041328
v 0.372149 -0.045789 0.054762
v -0.082475 -0.045789 0.077602
v -0.262178 -0.001788 0.272447
v -0.262178 -0.045789 0.272447
v -0.250093 -0.045789 0.269099
v -0.250093 -0.001788 0.269099
v -0.103892 -0.001788 0.087642
v -0.103892 -0.045789 0.087642
v -0.289289 -0.045789 0.153381
v -0.289289 -0.001788 0.153381
v 0.412638 -0.001788 -0.006775
v 0.412638 -0.045789 -0.006775
v 0.40007 -0.045789 -0.023429
v 0.40007 -0.001788 -0.023429
v -0.28853 -0.045789 -0.139274
v -0.318666 -0.045789 -0.161132
v -0.327397 -0.045789 -0.197146
v -0.29897 -0.045789 0.268904
v -0.28853 -0.045789 -0.139274
v -0.28853 -0.001788 -0.139274
v -0.318666 -0.001788 -0.161132
v -0.318666 -0.045789 -0.161132
v -0.325835 -0.001788 0.243311
v -0.325835 -0.045789 0.243311
v -0.29897 -0.045789 0.268904
v -0.29897 -0.001788 0.268904
v -0.325835 -0.045789 0.243311
v -0.325835 -0.001788 0.243311
v -0.33313 -0.001788 0.206675
v -0.33313 -0.045789 0.206675
v -0.053268 -0.001788 0.041328
v -0.044522 -0.001788 -0.004559
v -0.044522 -0.045789 -0.004559
v -0.053268 -0.045789 0.041328
v -0.248815 -0.001788 -0.258923
v -0.248815 -0.045789 -0.258923
v -0.286058 -0.045789 -0.256602
v -0.286058 -0.001788 -0.256602
v -0.248815 -0.045789 -0.258923
v -0.315025 -0.001788 -0.232385
v -0.315025 -0.045789 -0.232385
v -0.327397 -0.045789 -0.197146
v -0.327397 -0.001788 -0.197146
v -0.315025 -0.045789 -0.232385
v -0.250093 -0.001788 0.269099
v -0.250093 -0.045789 0.269099
v 0.372149 -0.045789 0.054762
v 0.372149 -0.001788 0.054762
v -0.33313 -0.045789 0.206675
v -0.33313 -0.001788 0.206675
v -0.321891 -0.001788 0.171547
v -0.321891 -0.045789 0.171547
v -0.286058 -0.045789 -0.256602
v -0.104952 -0.045789 -0.070254
v -0.103892 -0.045789 0.087642
v 0.381931 -0.001788 -0.03385
v 0.381931 -0.045789 -0.03385
v 0.372102 -0.045789 -0.037519
v 0.372102 -0.001788 -0.037519
v 0.381931 -0.045789 -0.03385
v -0.29897 -0.001788 0.268904
v -0.29897 -0.045789 0.268904
v -0.262178 -0.045789 0.272447
v -0.262178 -0.001788 0.272447
v -0.321891 -0.045789 0.171547
v -0.321891 -0.001788 0.171547
v -0.289289 -0.001788 0.153381
v -0.289289 -0.045789 0.153381
v -0.315025 -0.001788 -0.232385
v -0.286058 -0.001788 -0.256602
v -0.286058 -0.045789 -0.256602
v -0.315025 -0.045789 -0.232385
v -0.053268 -0.001788 0.041328
v -0.053268 -0.045789 0.041328
v -0.082475 -0.045789 0.077602
v -0.082475 -0.001788 0.077602
v 0.415275 -0.001788 0.013889
v 0.407457 -0.001788 0.033184
v 0.407457 -0.045789 0.033184
v 0.415275 -0.045789 0.013889
v -0.082475 -0.001788 0.077602
v -0.082475 -0.045789 0.077602
v -0.103892 -0.045789 0.087642
v -0.103892 -0.001788 0.087642
v -0.28853 -0.001788 -0.139274
v -0.28853 -0.045789 -0.139274
v -0.104952 -0.045789 -0.070254
v -0.104952 -0.001788 -0.070254
v -0.030378 -0.106929 0.14114
v -0.030378 -0.092786 0.14114
v -0.086951 -0.092786 0.14114
v -0.086951 -0.106929 0.14114
v -0.086951 -0.106929 0.172862
v -0.086951 -0.092786 0.172862
v -0.030378 -0.092786 0.172862
v -0.030378 -0.106929 0.172862
v -0.074525 -0.106929 0.128715
v -0.074525 -0.092786 0.128715
v -0.074525 -0.092786 0.185288
v -0.074525 -0.106929 0.185288
v -0.042803 -0.106929 0.185288
v -0.042803 -0.092786 0.185288
v -0.042803 -0.092786 0.128715
v -0.042803 -0.106929 0.128715
vt 0.398372 0.51149398
vt 0.374035 0.56198698
vt 0.899315 0.55112398
vt 0.959723 0.44545102
vt 0.934392 0.43492103
vt 0.899372 0.440167
vt 0.92266 0.449849
vt 0.934331 0.55560797
vt 0.899315 0.55112398
vt 0.152732 0.81733799
vt 0.12228 0.84516501
vt 0.310428 0.598419
vt 0.325711 0.59048498
vt 0.374035 0.56198698
vt 0.362989 0.567423
vt 0.990794 0.488374
vt 0.951226 0.48931098
vt 0.948056 0.514158
vt 0.987345 0.5154
vt 0.030928 0.71727198
vt 0.01951 0.76437199
vt 0.058247 0.74305803
vt 0.068744 0.699755
vt 0.362989 0.567423
vt 0.374035 0.56198698
vt 0.398372 0.51149398
vt 0.38946 0.512502
vt 0.051353 0.25750804
vt 0.064866 0.29974604
vt 0.104067 0.32158804
vt 0.932944 0.534182
vt 0.951226 0.48931098
vt 0.941825 0.466111
vt 0.151196 0.18245
vt 0.136665 0.17842501
vt 0.947186 0.55080903
vt 0.970908 0.53718
vt 0.932944 0.534182
vt 0.911134 0.546713
vt 0.980569 0.46314
vt 0.959723 0.44545102
vt 0.92266 0.449849
vt 0.941825 0.466111
vt 0.92266 0.449849
vt 0.060124 0.213458
vt 0.948056 0.514158
vt 0.387856 0.45632
vt 0.899372 0.440167
vt 0.352737 0.412704
vt 0.104805 0.150226
vt 0.136665 0.17842501
vt 0.151196 0.18245
vt 0.120609 0.15460503
vt 0.311814 0.39191902
vt 0.326986 0.40063202
vt 0.104067 0.32158804
vt 0.069348 0.305943
vt 0.987345 0.5154
vt 0.948056 0.514158
vt 0.932944 0.534182
vt 0.970908 0.53718
vt 0.10498 0.673473
vt 0.068744 0.699755
vt 0.058247 0.74305803
vt 0.092427 0.18268502
vt 0.10498 0.673473
vt 0.070341 0.688685
vt 0.030928 0.71727198
vt 0.068744 0.699755
vt 0.021552 0.18833101
vt 0.060124 0.213458
vt 0.092427 0.18268502
vt 0.056687 0.15486002
vt 0.060124 0.213458
vt 0.021552 0.18833101
vt 0.012011 0.23624396
vt 0.051353 0.25750804
vt 0.378022 0.45248997
vt 0.38946 0.512502
vt 0.398372 0.51149398
vt 0.387856 0.45632
vt 0.12228 0.84516501
vt 0.152732 0.81733799
vt 0.107952 0.814547
vt 0.073573 0.84213
vt 0.152732 0.81733799
vt 0.03569 0.81045699
vt 0.073122 0.78542799
vt 0.058247 0.74305803
vt 0.01951 0.76437199
vt 0.073122 0.78542799
vt 0.120609 0.15460503
vt 0.151196 0.18245
vt 0.899372 0.440167
vt 0.934392 0.43492103
vt 0.051353 0.25750804
vt 0.012011 0.23624396
vt 0.02671 0.28218496
vt 0.064866 0.29974604
vt 0.107952 0.814547
vt 0.325711 0.59048498
vt 0.326986 0.40063202
vt 0.947186 0.55080903
vt 0.911134 0.546713
vt 0.899315 0.55112398
vt 0.934331 0.55560797
vt 0.911134 0.546713
vt 0.056687 0.15486002
vt 0.092427 0.18268502
vt 0.136665 0.17842501
vt 0.104805 0.150226
vt 0.064866 0.29974604
vt 0.02671 0.28218496
vt 0.069348 0.305943
vt 0.104067 0.32158804
vt 0.03569 0.81045699
vt 0.073573 0.84213
vt 0.107952 0.814547
vt 0.073122 0.78542799
vt 0.378022 0.45248997
vt 0.387856 0.45632
vt 0.352737 0.412704
vt 0.339824 0.40504897
vt 0.990794 0.488374
vt 0.980569 0.46314
vt 0.941825 0.466111
vt 0.951226 0.48931098
vt 0.339824 0.40504897
vt 0.352737 0.412704
vt 0.326986 0.40063202
vt 0.311814 0.39191902
vt 0.070341 0.688685
vt 0.10498 0.673473
vt 0.325711 0.59048498
vt 0.310428 0.598419
vt 0 0
vt 0 0
vt 0 0
vt 0 0
vt 0 0
vt 0 0
vt 0 0
vt 0 0
vt 0 0
vt 0 0
vt 0 0
vt 0 0
vt 0 0
vt 0 0
vt 0 0
vt 0 0
vn 0 1 0
vn 0 1 0
vn 0 1 0
vn -0.3839 0 -0.9234
vn -0.3839 0 -0.9234
vn -0.3839 0 -0.9234
vn -0.3839 0 -0.9234
vn -0.3359 0 0.9419
vn -0.3359 0 0.9419
vn -0.3359 0 0.9419
vn -0.3359 0 0.9419
vn 0.508 0 -0.8614
vn 0.508 0 -0.8614
vn 0.508 0 -0.8614
vn 0.508 0 -0.8614
vn -0.992 0 0.1266
vn -0.992 0 0.1266
vn -0.992 0 0.1266
vn -0.992 0 0.1266
vn 0.9719 0 -0.2356
vn 0.9719 0 -0.2356
vn 0.9719 0 -0.2356
vn 0.9719 0 -0.2356
vn 0.9008 0 -0.4342
vn 0.9008 0 -0.4342
vn 0.9008 0 -0.4342
vn 0.9008 0 -0.4342
vn 0 1 0
vn 0 1 0
vn 0 1 0
vn 0 1 0
vn 0 1 0
vn 0 1 0
vn 0 1 0
vn 0 1 0
vn -0.4982 0 0.8671
vn -0.4982 0 0.8671
vn -0.4982 0 0.8671
vn -0.4982 0 0.8671
vn -0.647 0 -0.7625
vn -0.647 0 -0.7625
vn -0.647 0 -0.7625
vn -0.647 0 -0.7625
vn 0 1 0
vn 0 1 0
vn 0 1 0
vn 0 1 0
vn 0 1 0
vn 0 1 0
vn -0.267 0 -0.9637
vn -0.267 0 -0.9637
vn -0.267 0 -0.9637
vn -0.267 0 -0.9637
vn 0.3342 0 0.9425
vn 0.3342 0 0.9425
vn 0.3342 0 0.9425
vn 0.3342 0 0.9425
vn -0.7982 0 0.6024
vn -0.7982 0 0.6024
vn -0.7982 0 0.6024
vn -0.7982 0 0.6024
vn 0 1 0
vn 0 1 0
vn 0 1 0
vn 0 1 0
vn 0.5871 0 -0.8095
vn 0.5871 0 -0.8095
vn 0.5871 0 -0.8095
vn 0.5871 0 -0.8095
vn 0.6898 0 -0.724
vn 0.6898 0 -0.724
vn 0.6898 0 -0.724
vn 0.6898 0 -0.724
vn 0.9807 0 -0.1953
vn 0.9807 0 -0.1953
vn 0.9807 0 -0.1953
vn 0.9807 0 -0.1953
vn 0.9823 0 0.1872
vn 0.9823 0 0.1872
vn 0.9823 0 0.1872
vn 0.9823 0 0.1872
vn 0.0622 0 0.9981
vn 0.0622 0 0.9981
vn 0.0622 0 0.9981
vn 0.0622 0 0.9981
vn 0 1 0
vn 0.9435 0 0.3313
vn 0.9435 0 0.3313
vn 0.9435 0 0.3313
vn 0.9435 0 0.3313
vn 0 1 0
vn -0.3257 0 -0.9455
vn -0.3257 0 -0.9455
vn -0.3257 0 -0.9455
vn -0.3257 0 -0.9455
vn 0.9524 0 0.3047
vn 0.9524 0 0.3047
vn 0.9524 0 0.3047
vn 0.9524 0 0.3047
vn 0 1 0
vn 0 1 0
vn 0 1 0
vn -0.3497 0 0.9369
vn -0.3497 0 0.9369
vn -0.3497 0 0.9369
vn -0.3497 0 0.9369
vn 0 1 0
vn 0.0959 0 -0.9954
vn 0.0959 0 -0.9954
vn 0.0959 0 -0.9954
vn 0.0959 0 -0.9954
vn 0.4867 0 0.8735
vn 0.4867 0 0.8735
vn 0.4867 0 0.8735
vn 0.4867 0 0.8735
vn 0.6414 0 0.7672
vn 0.6414 0 0.7672
vn 0.6414 0 0.7672
vn 0.6414 0 0.7672
vn 0.7789 0 0.6271
vn 0.7789 0 0.6271
vn 0.7789 0 0.6271
vn 0.7789 0 0.6271
vn -0.9268 0 -0.3755
vn -0.9268 0 -0.3755
vn -0.9268 0 -0.3755
vn -0.9268 0 -0.3755
vn 0.4245 0 0.9055
vn 0.4245 0 0.9055
vn 0.4245 0 0.9055
vn 0.4245 0 0.9055
vn 0.3519 0 -0.936
vn 0.3519 0 -0.936
vn 0.3519 0 -0.936
vn 0.3519 0 -0.936
vn 0 0 -1
vn 0 0 -1
vn 0 0 -1
vn 0 0 -1
vn 0 0 1
vn 0 0 1
vn 0 0 1
vn 0 0 1
vn -1 0 -0
vn -1 0 -0
vn -1 0 -0
vn -1 0 -0
vn 1 0 0
vn 1 0 0
vn 1 0 0
vn 1 0 0
f 6/6/6 5/5/5 4/4/4
f 7/7/7 6/6/6 4/4/4
f 3/3/3 2/2/2 1/1/1
f 3/3/3 86/86/86 2/2/2
f 86/86/86 101/101/101 2/2/2
f 101/101/101 86/86/86 62/62/62
f 1/1/1 48/48/48 3/3/3
f 47/47/47 48/48/48 1/1/1
f 107/107/107 3/3/3 48/48/48
f 49/49/49 48/48/48 47/47/47
f 48/48/48 44/44/44 107/107/107
f 34/34/34 48/48/48 49/49/49
f 31/31/31 107/107/107 44/44/44
f 49/49/49 102/102/102 34/34/34
f 44/44/44 33/33/33 31/31/31
f 33/33/33 32/32/32 31/31/31
f 32/32/32 46/46/46 31/31/31
f 102/102/102 30/30/30 34/34/34
f 30/30/30 28/28/28 34/34/34
f 30/30/30 29/29/29 28/28/28
f 35/35/35 34/34/34 28/28/28
f 28/28/28 45/45/45 35/35/35
f 45/45/45 65/65/65 35/35/35
f 64/64/64 63/63/63 62/62/62
f 91/91/91 64/64/64 62/62/62
f 91/91/91 62/62/62 86/86/86
f 86/86/86 100/100/100 91/91/91
f 10/10/10 9/9/9 8/8/8
f 11/11/11 10/10/10 8/8/8
f 14/14/14 13/13/13 12/12/12
f 15/15/15 14/14/14 12/12/12
f 18/18/18 17/17/17 16/16/16
f 19/19/19 18/18/18 16/16/16
f 22/22/22 21/21/21 20/20/20
f 23/23/23 22/22/22 20/20/20
f 26/26/26 25/25/25 24/24/24
f 27/27/27 26/26/26 24/24/24
f 38/38/38 37/37/37 36/36/36
f 39/39/39 38/38/38 36/36/36
f 42/42/42 41/41/41 40/40/40
f 43/43/43 42/42/42 40/40/40
f 52/52/52 51/51/51 50/50/50
f 53/53/53 52/52/52 50/50/50
f 56/56/56 55/55/55 54/54/54
f 57/57/57 56/56/56 54/54/54
f 60/60/60 59/59/59 58/58/58
f 61/61/61 60/60/60 58/58/58
f 68/68/68 67/67/67 66/66/66
f 69/69/69 68/68/68 66/66/66
f 72/72/72 71/71/71 70/70/70
f 73/73/73 72/72/72 70/70/70
f 76/76/76 75/75/75 74/74/74
f 77/77/77 76/76/76 74/74/74
f 80/80/80 79/79/79 78/78/78
f 81/81/81 80/80/80 78/78/78
f 84/84/84 83/83/83 82/82/82
f 85/85/85 84/84/84 82/82/82
f 89/89/89 88/88/88 87/87/87
f 90/90/90 89/89/89 87/87/87
f 94/94/94 93/93/93 92/92/92
f 95/95/95 94/94/94 92/92/92
f 98/98/98 97/97/97 96/96/96
f 99/99/99 98/98/98 96/96/96
f 105/105/105 104/104/104 103/103/103
f 106/106/106 105/105/105 103/103/103
f 110/110/110 109/109/109 108/108/108
f 111/111/111 110/110/110 108/108/108
f 114/114/114 113/113/113 112/112/112
f 115/115/115 114/114/114 112/112/112
f 118/118/118 117/117/117 116/116/116
f 119/119/119 118/118/118 116/116/116
f 122/122/122 121/121/121 120/120/120
f 123/123/123 122/122/122 120/120/120
f 126/126/126 125/125/125 124/124/124
f 127/127/127 126/126/126 124/124/124
f 130/130/130 129/129/129 128/128/128
f 131/131/131 130/130/130 128/128/128
f 134/134/134 133/133/133 132/132/132
f 135/135/135 134/134/134 132/132/132
f 138/138/138 137/137/137 136/136/136
f 139/139/139 138/138/138 136/136/136
f 142/142/142 141/141/141 140/140/140
f 143/143/143 142/142/142 140/140/140
f 146/146/146 145/145/145 144/144/144
f 147/147/147 146/146/146 144/144/144
f 150/150/150 149/149/149 148/148/148
f 151/151/151 150/150/150 148/148/148
