# VPXTOOL table OBJ file
# VPXTOOL OBJ file
# numVerts: 116 numFaces: 156
o p19off
v 7.646815 -10.47833 4.9931
v 5.187483 -10.496176 4.993099
v 5.187484 -10.496176 0.141149
v 7.646815 -10.47833 0.141149
v 10.268581 -8.195415 4.9931
v 10.26858 -8.195415 0.141149
v 10.23511 -6.879093 0.141149
v 10.23511 -6.879093 4.9931
v 8.86239 -10.155273 0.141149
v 8.86239 -10.155273 4.9931
v 39.508385 8.189697 0.14115
v 39.06601 9.503017 0.14115
v 39.06601 9.503017 4.993101
v 39.508385 8.189697 4.993101
v 38.60225 5.693898 0.14115
v 39.36546 6.808478 0.14115
v 39.36546 6.808478 4.993101
v 38.60225 5.693898 4.993101
v -7.531144 10.46651 4.993098
v 3.535849 10.546819 4.9931
v 3.53585 10.546819 0.14115
v -7.531143 10.46651 0.141148
v 37.406956 5.009998 4.993102
v 37.406956 5.009998 0.14115
v 9.537557 -5.644341 0.141149
v 8.581407 -4.80185 0.141149
v 8.581407 -4.80185 4.9931
v 9.537556 -5.644341 4.9931
v 9.813309 -9.369386 4.9931
v 9.813309 -9.369386 0.141149
v 28.198618 2.968436 4.993101
v 28.198618 2.968436 0.14115
v -7.918113 2.639611 4.993098
v -7.918113 2.639611 0.141148
v -8.543238 1.697188 0.141148
v -8.543238 1.697188 4.993098
v -8.746717 10.143454 4.993098
v -8.746717 10.143454 0.141148
v -9.697634 9.357567 0.141147
v -9.697635 9.357567 4.993098
v 8.033786 -2.651433 0.141149
v 8.253474 -2.141762 0.141149
v 8.253473 -2.141762 4.9931
v 8.033786 -2.651433 4.9931
v 8.65891 -1.70901 0.141149
v 8.658909 -1.70901 4.9931
v 38.060226 10.406422 0.14115
v 38.060226 10.406422 4.993101
v -10.152907 8.183594 4.993098
v -10.152907 8.183594 0.141147
v -10.119436 6.86727 0.141147
v -10.119437 6.86727 4.993098
v -39.392715 -8.201515 0.141143
v -38.950344 -9.514832 0.141143
v -38.950344 -9.514832 4.993094
v -39.392715 -8.201515 4.993094
v -38.486584 -5.705716 0.141143
v -39.24979 -6.820295 0.141143
v -39.24979 -6.820295 4.993094
v -38.486584 -5.705716 4.993094
v -2.190512 -10.549714 4.993099
v -2.190512 -10.549714 0.141148
v 36.736824 10.787749 0.14115
v 36.736824 10.787749 4.993102
v -37.291286 -5.021817 4.993095
v -37.291286 -5.021817 0.141144
v -9.421881 5.632518 0.141147
v -8.465732 4.790027 0.141148
v -8.465732 4.790027 4.993098
v -9.421882 5.632518 4.993098
v 9.781948 -1.114689 0.14115
v 9.781947 -1.114689 4.9931
v -8.135248 4.364371 0.141148
v -8.135248 4.364371 4.993098
v -9.666276 1.102867 0.141147
v -9.666277 1.102867 4.993098
v -37.944557 -10.418237 0.141144
v -37.944557 -10.418237 4.993094
v 25.669832 10.707438 4.993102
v 25.669834 10.707438 0.14115
v 14.602842 10.62713 4.9931
v 14.602842 10.62713 0.14115
v 18.990284 0.926874 0.14115
v 18.990284 0.926874 4.9931
v -33.605583 -4.204668 4.993095
v -31.702496 -10.763871 4.993095
v -21.865166 -10.692486 4.993097
v -25.712725 -2.454758 4.993092
v -31.702496 -10.763871 0.141145
v -21.865168 -10.692486 0.141146
v -12.027839 -10.6211 4.993098
v -12.027841 -10.6211 0.141147
v -17.819864 -0.704848 0.141147
v -17.819864 -0.704848 4.993093
v -25.712725 -2.454758 0.141146
v -33.605583 -4.204668 0.141145
v -36.62116 -10.799564 4.993094
v -36.62116 -10.799564 0.141144
v 8.076707 -3.786288 4.9931
v 8.076707 -3.786288 0.141149
v 6.755282 -3.042374 7.091429
v 6.755281 -3.042377 6.418003
v -6.482682 -3.042372 6.418003
v -6.48268 -3.042372 7.091429
v -6.482681 4.380675 7.09143
v -6.482678 4.380672 6.418004
v 6.755281 4.380672 6.418004
v 6.755283 4.38067 7.091429
v -3.575217 -5.949849 7.091429
v -3.575214 -5.949845 6.418003
v -3.575214 7.288145 6.418004
v -3.575214 7.288148 7.09143
v 3.847814 7.288148 7.09143
v 3.847813 7.288145 6.418004
v 3.847815 -5.949847 6.418002
v 3.847814 -5.949849 7.091428
vt 0.413361 0.262559
vt 0.441225 0.262155
vt 0.435538 0.23913902
vt 0.404977 0.23958302
vt 0.383656 0.31429
vt 0.372398 0.29631996
vt 0.372814 0.32903397
vt 0.384035 0.344118
vt 0.389872 0.247612
vt 0.399588 0.26988
vt 0.009051 0.703538
vt 0.014548 0.73617798
vt 0.057378 0.71534002
vt 0.052366 0.68558002
vt 0.020311 0.64151
vt 0.010827 0.66921097
vt 0.053986 0.65428102
vt 0.062633 0.62902498
vt 0.585329 0.73717302
vt 0.459938 0.738993
vt 0.456062 0.762119
vt 0.593585 0.76012301
vt 0.076176 0.613528
vt 0.035164 0.62451297
vt 0.381482 0.35972202
vt 0.393364 0.38066
vt 0.402772 0.39118898
vt 0.391939 0.37209797
vt 0.388814 0.28768802
vt 0.378055 0.267143
vt 0.180507 0.56726497
vt 0.149591 0.57377398
vt 0.589713 0.55981398
vt 0.598394 0.565602
vt 0.606162 0.54218
vt 0.596796 0.538459
vt 0.599101 0.72985297
vt 0.608691 0.75209397
vt 0.620507 0.73256302
vt 0.609875 0.712044
vt 0.400168 0.43410397
vt 0.397439 0.44677103
vt 0.406487 0.45146704
vt 0.408976 0.43991804
vt 0.3924 0.45752597
vt 0.401894 0.46127403
vt 0.027046 0.75862998
vt 0.068774 0.735811
vt 0.615033 0.68544197
vt 0.626165 0.703386
vt 0.625749 0.670672
vt 0.614654 0.65561402
vt 0.989512 0.29616797
vt 0.984015 0.263529
vt 0.941311 0.284392
vt 0.946323 0.314152
vt 0.978252 0.35819602
vt 0.987736 0.330496
vt 0.944704 0.345451
vt 0.936057 0.37070704
vt 0.524819 0.26094103
vt 0.52722 0.237809
vt 0.043491 0.768107
vt 0.083768 0.744452
vt 0.922514 0.38620496
vt 0.963399 0.375193
vt 0.617081 0.63998502
vt 0.605199 0.61904597
vt 0.595918 0.60854298
vt 0.606751 0.627634
vt 0.378445 0.472297
vt 0.38917 0.47474098
vt 0.601092 0.60846698
vt 0.592173 0.59889698
vt 0.620118 0.52740902
vt 0.60952 0.52499098
vt 0.971517 0.241076
vt 0.929915 0.26392102
vt 0.209158 0.742633
vt 0.181015 0.76611102
vt 0.334548 0.74081302
vt 0.318538 0.76411498
vt 0.264018 0.523036
vt 0.284838 0.521003
vt 0.880754 0.40472102
vt 0.859192 0.25608897
vt 0.747734 0.257706
vt 0.791328 0.44437504
vt 0.89395 0.23248601
vt 0.771707 0.23425996
vt 0.636277 0.259324
vt 0.649463 0.23603499
vt 0.721438 0.48248196
vt 0.701901 0.48402798
vt 0.819518 0.43899202
vt 0.917598 0.39550197
vt 0.914921 0.25528002
vt 0.955071 0.23159897
vt 0.40849 0.41420197
vt 0.399635 0.4059
vt 0 0
vt 0 0
vt 0 0
vt 0 0
vt 0 0
vt 0 0
vt 0 0
vt 0 0
vt 0 0
vt 0 0
vt 0 0
vt 0 0
vt 0 0
vt 0 0
vt 0 0
vt 0 0
vn -0.0976 0.7268 -0.6798
vn -0.0051 0.7071 -0.7071
vn -0.0072 1 0
vn -0.1331 0.9911 0
vn -0.7354 0.1279 -0.6655
vn -0.9852 0.1714 0
vn -0.9638 -0.2665 0
vn -0.727 -0.2011 -0.6565
vn -0.4575 0.8892 0
vn -0.3429 0.6664 -0.662
vn -0.9938 -0.1107 0
vn -0.8354 -0.5496 0
vn -0.6319 -0.4157 -0.6541
vn -0.7446 -0.0829 -0.6623
vn -0.678 0.735 0
vn -0.9387 0.3446 0
vn -0.7088 0.2601 -0.6557
vn -0.5093 0.5521 -0.6601
vn 0.0976 -0.7268 -0.6798
vn 0.0051 -0.7071 -0.7071
vn 0.0072 -1 0
vn 0.1331 -0.9911 0
vn -0.2661 0.6883 -0.6748
vn -0.3606 0.9327 0
vn -0.7767 -0.6298 0
vn -0.7931 -0.609 0
vn -0.5218 -0.4007 -0.7531
vn -0.5755 -0.4667 -0.6715
vn -0.6131 0.4424 -0.6545
vn -0.8109 0.5851 0
vn -0.1531 0.6903 -0.7071
vn -0.2164 0.9763 0
vn 0.5913 -0.1386 -0.7944
vn 0.9736 -0.2282 0
vn 0.6713 -0.7412 0
vn 0.4307 -0.4755 -0.7671
vn 0.3429 -0.6664 -0.662
vn 0.4575 -0.8892 0
vn 0.8109 -0.5851 0
vn 0.6131 -0.4424 -0.6545
vn -0.983 0.1835 0
vn -0.8365 0.5479 0
vn -0.5552 0.3637 -0.7479
vn -0.6385 0.1192 -0.7603
vn -0.607 0.7946 0
vn -0.4042 0.529 -0.7461
vn -0.4848 -0.8746 0
vn -0.3642 -0.657 -0.66
vn 0.7354 -0.1279 -0.6655
vn 0.9852 -0.1714 0
vn 0.9638 0.2665 0
vn 0.727 0.2011 -0.6565
vn 0.9938 0.1107 0
vn 0.8354 0.5496 0
vn 0.6319 0.4157 -0.6541
vn 0.7446 0.0829 -0.6623
vn 0.678 -0.735 0
vn 0.9387 -0.3446 0
vn 0.7088 -0.2601 -0.6557
vn 0.5093 -0.5521 -0.6601
vn -0.0051 0.7071 -0.7071
vn -0.0072 1 0
vn -0.1362 -0.9907 0
vn -0.1003 -0.7298 -0.6762
vn 0.2661 -0.6883 -0.6748
vn 0.3606 -0.9327 0
vn 0.7767 0.6298 0
vn 0.7287 0.6848 0
vn 0.4989 0.4688 -0.7289
vn 0.5755 0.4667 -0.6715
vn -0.3452 0.9385 0
vn -0.2327 0.6328 -0.7385
vn 0.9239 0.3827 0
vn 0.5875 0.2434 -0.7717
vn 0.3452 -0.9385 0
vn 0.2327 -0.6328 -0.7385
vn 0.4848 0.8746 0
vn 0.3642 0.657 -0.66
vn 0.0051 -0.7071 -0.7071
vn 0.0072 -1 0
vn 0.0051 -0.7071 -0.7071
vn 0.0072 -1 0
vn -0.2164 0.9763 0
vn -0.1531 0.6903 -0.7071
vn 0.1531 -0.6903 -0.7071
vn -0.0051 0.7071 -0.7071
vn -0.0051 0.7071 -0.7071
vn 0.1531 -0.6903 -0.7071
vn -0.0072 1 0
vn -0.0072 1 0
vn -0.0051 0.7071 -0.7071
vn -0.0072 1 0
vn 0.2164 -0.9763 0
vn 0.1531 -0.6903 -0.7071
vn 0.2164 -0.9763 0
vn 0.2164 -0.9763 0
vn 0.1003 0.7298 -0.6762
vn 0.1362 0.9907 0
vn -0.7257 -0.1849 -0.6627
vn -0.969 -0.2469 0
vn -0 -1 0
vn -0 -1 0
vn -0 -1 0
vn -0 -1 0
vn 0 1 -0
vn 0 1 -0
vn 0 1 -0
vn 0 1 -0
vn -1 0 -0
vn -1 0 -0
vn -1 0 -0
vn -1 0 -0
vn 1 0 -0
vn 1 0 -0
vn 1 0 -0
vn 1 0 -0
f 103/103/103 102/102/102 101/101/101
f 104/104/104 103/103/103 101/101/101
f 3/3/3 2/2/2 1/1/1
f 4/4/4 3/3/3 1/1/1
f 3/3/3 62/62/62 2/2/2
f 9/9/9 4/4/4 1/1/1
f 62/62/62 61/61/61 2/2/2
f 61/61/61 62/62/62 92/92/92
f 10/10/10 9/9/9 1/1/1
f 30/30/30 9/9/9 10/10/10
f 91/91/91 61/61/61 92/92/92
f 92/92/92 90/90/90 91/91/91
f 29/29/29 30/30/30 10/10/10
f 6/6/6 30/30/30 29/29/29
f 5/5/5 6/6/6 29/29/29
f 5/5/5 29/29/29 10/10/10
f 7/7/7 6/6/6 5/5/5
f 8/8/8 5/5/5 10/10/10
f 8/8/8 7/7/7 5/5/5
f 8/8/8 28/28/28 7/7/7
f 28/28/28 8/8/8 10/10/10
f 28/28/28 25/25/25 7/7/7
f 27/27/27 28/28/28 10/10/10
f 28/28/28 27/27/27 25/25/25
f 1/1/1 27/27/27 10/10/10
f 27/27/27 26/26/26 25/25/25
f 100/100/100 26/26/26 27/27/27
f 27/27/27 1/1/1 36/36/36
f 1/1/1 2/2/2 36/36/36
f 99/99/99 100/100/100 27/27/27
f 99/99/99 27/27/27 36/36/36
f 41/41/41 100/100/100 99/99/99
f 36/36/36 2/2/2 76/76/76
f 2/2/2 61/61/61 76/76/76
f 44/44/44 41/41/41 99/99/99
f 44/44/44 99/99/99 36/36/36
f 76/76/76 61/61/61 94/94/94
f 61/61/61 91/91/91 94/94/94
f 44/44/44 43/43/43 41/41/41
f 43/43/43 42/42/42 41/41/41
f 33/33/33 44/44/44 36/36/36
f 43/43/43 44/44/44 33/33/33
f 36/36/36 76/76/76 35/35/35
f 36/36/36 35/35/35 33/33/33
f 76/76/76 75/75/75 35/35/35
f 35/35/35 34/34/34 33/33/33
f 75/75/75 76/76/76 93/93/93
f 76/76/76 94/94/94 93/93/93
f 33/33/33 34/34/34 74/74/74
f 74/74/74 43/43/43 33/33/33
f 34/34/34 73/73/73 74/74/74
f 74/74/74 73/73/73 68/68/68
f 93/93/93 94/94/94 88/88/88
f 94/94/94 91/91/91 88/88/88
f 95/95/95 93/93/93 88/88/88
f 69/69/69 74/74/74 68/68/68
f 43/43/43 74/74/74 69/69/69
f 69/69/69 68/68/68 67/67/67
f 95/95/95 88/88/88 85/85/85
f 96/96/96 95/95/95 85/85/85
f 91/91/91 87/87/87 88/88/88
f 88/88/88 87/87/87 85/85/85
f 90/90/90 87/87/87 91/91/91
f 90/90/90 89/89/89 87/87/87
f 96/96/96 85/85/85 65/65/65
f 66/66/66 96/96/96 65/65/65
f 87/87/87 86/86/86 85/85/85
f 89/89/89 86/86/86 87/87/87
f 85/85/85 86/86/86 65/65/65
f 89/89/89 98/98/98 86/86/86
f 57/57/57 66/66/66 65/65/65
f 98/98/98 97/97/97 86/86/86
f 86/86/86 97/97/97 65/65/65
f 97/97/97 98/98/98 77/77/77
f 60/60/60 57/57/57 65/65/65
f 65/65/65 97/97/97 60/60/60
f 78/78/78 97/97/97 77/77/77
f 97/97/97 78/78/78 60/60/60
f 78/78/78 77/77/77 54/54/54
f 60/60/60 59/59/59 57/57/57
f 59/59/59 58/58/58 57/57/57
f 53/53/53 58/58/58 59/59/59
f 55/55/55 78/78/78 54/54/54
f 55/55/55 54/54/54 53/53/53
f 78/78/78 55/55/55 60/60/60
f 56/56/56 53/53/53 59/59/59
f 56/56/56 59/59/59 60/60/60
f 56/56/56 55/55/55 53/53/53
f 55/55/55 56/56/56 60/60/60
f 43/43/43 46/46/46 42/42/42
f 46/46/46 43/43/43 69/69/69
f 46/46/46 45/45/45 42/42/42
f 70/70/70 69/69/69 67/67/67
f 70/70/70 67/67/67 51/51/51
f 46/46/46 72/72/72 45/45/45
f 72/72/72 71/71/71 45/45/45
f 71/71/71 72/72/72 83/83/83
f 52/52/52 70/70/70 51/51/51
f 72/72/72 84/84/84 83/83/83
f 52/52/52 51/51/51 49/49/49
f 51/51/51 50/50/50 49/49/49
f 70/70/70 52/52/52 37/37/37
f 52/52/52 49/49/49 37/37/37
f 69/69/69 70/70/70 37/37/37
f 49/49/49 50/50/50 40/40/40
f 49/49/49 40/40/40 37/37/37
f 50/50/50 39/39/39 40/40/40
f 40/40/40 39/39/39 37/37/37
f 39/39/39 38/38/38 37/37/37
f 19/19/19 69/69/69 37/37/37
f 37/37/37 38/38/38 19/19/19
f 19/19/19 46/46/46 69/69/69
f 38/38/38 22/22/22 19/19/19
f 22/22/22 21/21/21 19/19/19
f 46/46/46 19/19/19 20/20/20
f 21/21/21 20/20/20 19/19/19
f 72/72/72 46/46/46 20/20/20
f 21/21/21 82/82/82 20/20/20
f 72/72/72 20/20/20 81/81/81
f 82/82/82 81/81/81 20/20/20
f 84/84/84 72/72/72 81/81/81
f 82/82/82 80/80/80 81/81/81
f 83/83/83 84/84/84 31/31/31
f 84/84/84 81/81/81 31/31/31
f 32/32/32 83/83/83 31/31/31
f 80/80/80 79/79/79 81/81/81
f 81/81/81 79/79/79 31/31/31
f 32/32/32 31/31/31 23/23/23
f 31/31/31 79/79/79 23/23/23
f 24/24/24 32/32/32 23/23/23
f 64/64/64 79/79/79 80/80/80
f 79/79/79 64/64/64 23/23/23
f 63/63/63 64/64/64 80/80/80
f 15/15/15 24/24/24 23/23/23
f 64/64/64 63/63/63 47/47/47
f 18/18/18 15/15/15 23/23/23
f 48/48/48 64/64/64 47/47/47
f 48/48/48 47/47/47 12/12/12
f 23/23/23 64/64/64 13/13/13
f 64/64/64 48/48/48 13/13/13
f 13/13/13 48/48/48 12/12/12
f 18/18/18 23/23/23 13/13/13
f 13/13/13 12/12/12 11/11/11
f 18/18/18 17/17/17 15/15/15
f 17/17/17 18/18/18 13/13/13
f 17/17/17 16/16/16 15/15/15
f 11/11/11 16/16/16 17/17/17
f 14/14/14 17/17/17 13/13/13
f 14/14/14 13/13/13 11/11/11
f 14/14/14 11/11/11 17/17/17
f 107/107/107 106/106/106 105/105/105
f 108/108/108 107/107/107 105/105/105
f 111/111/111 110/110/110 109/109/109
f 112/112/112 111/111/111 109/109/109
f 115/115/115 114/114/114 113/113/113
f 116/116/116 115/115/115 113/113/113
