# VPXTOOL table OBJ file
# VPXTOOL OBJ file
# numVerts: 588 numFaces: 588
o PinCab_StartButtonOuter2
v -648.4755 -373.84912 -37.1815
v -648.56195 -373.91785 -38.332897
v -648.57477 -367.52722 -37.49287
v -648.65027 -367.5951 -38.63024
v -648.35785 -373.95422 -37.17523
v -648.4456 -374.024 -38.34413
v -648.4755 -373.84912 -37.1815
v -648.56195 -373.91785 -38.332897
v -647.8868 -373.95023 -37.175465
v -647.9798 -374.02417 -38.41446
v -648.35785 -373.95422 -37.17523
v -648.4456 -374.024 -38.34413
v -647.7563 -373.84546 -37.181717
v -647.85077 -373.92056 -38.440125
v -647.8868 -373.95023 -37.175465
v -647.9798 -374.02417 -38.41446
v -646.4883 -368.6973 -37.488934
v -646.5969 -368.78366 -38.935993
v -647.7563 -373.84546 -37.181717
v -647.85077 -373.92056 -38.440125
v -646.4876 -367.5252 -37.558876
v -646.59625 -367.61157 -39.00603
v -646.4883 -368.6973 -37.488934
v -646.5969 -368.78366 -38.935993
v -648.57477 -367.52722 -37.49287
v -648.65027 -367.5951 -38.63024
v -646.4876 -367.5252 -37.558876
v -646.59625 -367.61157 -39.00603
v -648.81934 -373.98502 -39.458576
v -648.8948 -367.66156 -39.74367
v -648.7069 -374.09216 -39.486927
v -648.81934 -373.98502 -39.458576
v -648.2568 -374.09647 -39.62578
v -648.7069 -374.09216 -39.486927
v -648.1321 -373.99396 -39.670425
v -648.2568 -374.09647 -39.62578
v -646.92035 -368.86807 -40.35073
v -648.1321 -373.99396 -39.670425
v -646.91974 -367.696 -40.42086
v -646.92035 -368.86807 -40.35073
v -648.8948 -367.66156 -39.74367
v -646.91974 -367.696 -40.42086
v -649.24194 -374.04916 -40.53339
v -649.3028 -367.72507 -40.80829
v -649.1359 -374.1573 -40.578083
v -649.24194 -374.04916 -40.53339
v -648.7115 -374.16547 -40.78236
v -649.1359 -374.1573 -40.578083
v -648.59393 -374.06406 -40.845127
v -648.7115 -374.16547 -40.78236
v -647.4515 -368.94867 -41.701538
v -648.59393 -374.06406 -40.845127
v -647.45087 -367.7766 -41.77176
v -647.4515 -368.94867 -41.701538
v -649.3028 -367.72507 -40.80829
v -647.45087 -367.7766 -41.77176
v -649.82025 -374.10883 -41.53333
v -649.86523 -367.78427 -41.800316
v -649.7231 -374.21786 -41.593224
v -649.82025 -374.10883 -41.53333
v -649.3338 -374.2297 -41.858368
v -649.7231 -374.21786 -41.593224
v -649.226 -374.1293 -41.937996
v -649.3338 -374.2297 -41.858368
v -648.17834 -369.02368 -42.958244
v -649.226 -374.1293 -41.937996
v -648.1778 -367.85162 -43.02855
v -648.17834 -369.02368 -42.958244
v -649.86523 -367.78427 -41.800316
v -648.1778 -367.85162 -43.02855
v -650.54144 -374.1627 -42.436054
v -650.56946 -367.83783 -42.697582
v -650.4552 -374.27255 -42.509674
v -650.54144 -374.1627 -42.436054
v -650.10986 -374.28766 -42.829773
v -650.4552 -374.27255 -42.509674
v -650.0142 -374.18817 -42.92462
v -650.10986 -374.28766 -42.829773
v -649.0847 -369.09137 -44.092777
v -650.0142 -374.18817 -42.92462
v -649.0842 -367.91934 -44.163155
v -649.0847 -369.09137 -44.092777
v -650.56946 -367.83783 -42.697582
v -649.0842 -367.91934 -44.163155
v -651.38934 -374.20956 -43.2214
v -651.39984 -367.88452 -43.480053
v -651.316 -374.32013 -43.30696
v -651.38934 -374.20956 -43.2214
v -651.0223 -374.3381 -43.674866
v -651.316 -374.32013 -43.30696
v -650.9409 -374.23938 -43.782955
v -651.0223 -374.3381 -43.674866
v -650.1503 -369.15027 -45.07979
v -650.9409 -374.23938 -43.782955
v -650.1499 -367.97824 -45.15023
v -650.1503 -369.15027 -45.07979
v -651.39984 -367.88452 -43.480053
v -650.1499 -367.97824 -45.15023
v -652.3451 -374.24838 -43.871826
v -652.3377 -367.9233 -44.130245
v -652.28625 -374.35953 -43.967278
v -652.3451 -374.24838 -43.871826
v -652.05066 -374.37985 -44.37477
v -652.28625 -374.35953 -43.967278
v -651.9854 -374.2818 -44.493828
v -652.05066 -374.37985 -44.37477
v -651.35144 -369.19907 -45.897232
v -651.9854 -374.2818 -44.493828
v -651.35114 -368.027 -45.967728
v -651.35144 -369.19907 -45.897232
v -652.3377 -367.9233 -44.130245
v -651.35114 -368.027 -45.967728
v -653.3872 -374.2783 -44.3728
v -653.36224 -367.95337 -44.633636
v -653.34424 -374.3899 -44.47587
v -653.3872 -374.2783 -44.3728
v -653.1721 -374.41202 -44.91386
v -653.34424 -374.3899 -44.47587
v -653.12445 -374.31448 -45.041363
v -653.1721 -374.41202 -44.91386
v -652.6612 -369.23663 -46.526848
v -653.12445 -374.31448 -45.041363
v -652.66095 -368.0646 -46.597385
v -652.6612 -369.23663 -46.526848
v -653.36224 -367.95337 -44.633636
v -652.66095 -368.0646 -46.597385
v -654.4925 -374.29858 -44.71313
v -654.45044 -367.97397 -44.97898
v -654.4663 -374.4105 -44.821377
v -654.4925 -374.29858 -44.71313
v -654.3615 -374.43387 -45.280083
v -654.4663 -374.4105 -44.821377
v -654.33246 -374.33667 -45.413322
v -654.3615 -374.43387 -45.280083
v -654.0503 -369.26215 -46.954575
v -654.33246 -374.33667 -45.413322
v -654.0502 -368.09012 -47.02514
v -654.0503 -369.26215 -46.954575
v -654.45044 -367.97397 -44.97898
v -654.0502 -368.09012 -47.02514
v -655.6362 -374.30887 -44.88522
v -655.57806 -367.98468 -45.15857
v -655.62744 -374.42093 -44.996082
v -655.6362 -374.30887 -44.88522
v -655.5923 -374.44495 -45.465263
v -655.62744 -374.42093 -44.996082
v -655.5825 -374.3479 -45.601406
v -655.5923 -374.44495 -45.465263
v -655.48773 -369.27505 -47.170853
v -655.5825 -374.3479 -45.601406
v -655.48773 -368.10303 -47.24143
v -655.48773 -369.27505 -47.170853
v -655.57806 -367.98468 -45.15857
v -655.48773 -368.10303 -47.24143
v -656.79297 -374.30887 -44.88522
v -656.72 -367.98526 -45.16838
v -656.80176 -374.42093 -44.99608
v -656.79297 -374.30887 -44.88522
v -656.8369 -374.44495 -45.465263
v -656.80176 -374.42093 -44.99608
v -656.8467 -374.3479 -45.601406
v -656.8369 -374.44495 -45.465263
v -656.94147 -369.27505 -47.170853
v -656.8467 -374.3479 -45.601406
v -656.9415 -368.10303 -47.24143
v -656.94147 -369.27505 -47.170853
v -656.72 -367.98526 -45.16838
v -656.9415 -368.10303 -47.24143
v -657.9367 -374.29858 -44.71313
v -657.8505 -367.9757 -45.0082
v -657.9629 -374.4105 -44.821377
v -657.9367 -374.29858 -44.71313
v -658.06775 -374.43387 -45.280083
v -657.9629 -374.4105 -44.821377
v -658.09674 -374.33667 -45.413322
v -658.06775 -374.43387 -45.280083
v -658.3789 -369.26215 -46.954575
v -658.09674 -374.33667 -45.413322
v -658.379 -368.09012 -47.02514
v -658.3789 -369.26215 -46.954575
v -657.8505 -367.9757 -45.0082
v -658.379 -368.09012 -47.02514
v -659.042 -374.2783 -44.3728
v -658.9445 -367.9562 -44.681606
v -659.08496 -374.3899 -44.47587
v -659.042 -374.2783 -44.3728
v -659.2571 -374.41202 -44.91386
v -659.08496 -374.3899 -44.47587
v -659.30475 -374.31448 -45.041363
v -659.2571 -374.41202 -44.91386
v -659.768 -369.23663 -46.526848
v -659.30475 -374.31448 -45.041363
v -659.76825 -368.0646 -46.597385
v -659.768 -369.23663 -46.526848
v -658.9445 -367.9562 -44.681606
v -659.76825 -368.0646 -46.597385
v -660.0841 -374.24838 -43.871826
v -659.97754 -367.92725 -44.195896
v -660.14294 -374.35953 -43.967278
v -660.0841 -374.24838 -43.871826
v -660.37854 -374.37985 -44.37477
v -660.14294 -374.35953 -43.967278
v -660.4438 -374.2818 -44.493828
v -660.37854 -374.37985 -44.37477
v -661.07776 -369.19907 -45.897232
v -660.4438 -374.2818 -44.493828
v -661.07806 -368.027 -45.967728
v -661.07776 -369.19907 -45.897232
v -659.97754 -367.92725 -44.195896
v -661.07806 -368.027 -45.967728
v -661.03986 -374.20956 -43.221397
v -660.9266 -367.8894 -43.561916
v -661.1132 -374.32013 -43.30696
v -661.03986 -374.20956 -43.221397
v -661.4069 -374.3381 -43.674862
v -661.1132 -374.32013 -43.30696
v -661.4883 -374.23938 -43.78295
v -661.4069 -374.3381 -43.674862
v -662.2789 -369.15027 -45.07979
v -661.4883 -374.23938 -43.78295
v -662.2793 -367.97824 -45.15023
v -662.2789 -369.15027 -45.07979
v -660.9266 -367.8894 -43.561916
v -662.2793 -367.97824 -45.15023
v -661.88776 -374.1627 -42.43605
v -661.77026 -367.84357 -42.79383
v -661.974 -374.27255 -42.509674
v -661.88776 -374.1627 -42.43605
v -662.31934 -374.28766 -42.82977
v -661.974 -374.27255 -42.509674
v -662.415 -374.18817 -42.924618
v -662.31934 -374.28766 -42.82977
v -663.3445 -369.09137 -44.092777
v -662.415 -374.18817 -42.924618
v -663.345 -367.91934 -44.163155
v -663.3445 -369.09137 -44.092777
v -661.77026 -367.84357 -42.79383
v -663.345 -367.91934 -44.163155
v -662.60895 -374.10883 -41.533325
v -662.48987 -367.79074 -41.9088
v -662.7061 -374.21786 -41.593224
v -662.60895 -374.10883 -41.533325
v -663.0954 -374.2297 -41.858368
v -662.7061 -374.21786 -41.593224
v -663.2032 -374.1293 -41.937996
v -663.0954 -374.2297 -41.858368
v -664.25085 -369.02368 -42.958244
v -663.2032 -374.1293 -41.937996
v -664.2514 -367.85162 -43.02855
v -664.25085 -369.02368 -42.958244
v -662.48987 -367.79074 -41.9088
v -664.2514 -367.85162 -43.02855
v -663.18726 -374.04916 -40.53339
v -663.06934 -367.73215 -40.92659
v -663.2933 -374.1573 -40.578083
v -663.18726 -374.04916 -40.53339
v -663.7177 -374.16547 -40.782356
v -663.2933 -374.1573 -40.578083
v -663.83527 -374.06406 -40.845127
v -663.7177 -374.16547 -40.782356
v -664.9777 -368.94867 -41.701538
v -663.83527 -374.06406 -40.845127
v -664.9783 -367.7766 -41.77176
v -664.9777 -368.94867 -41.701538
v -663.06934 -367.73215 -40.92659
v -664.9783 -367.7766 -41.77176
v -663.60986 -373.98502 -39.458576
v -663.49567 -367.66904 -39.86914
v -663.7223 -374.09216 -39.486927
v -663.60986 -373.98502 -39.458576
v -664.1724 -374.09647 -39.62578
v -663.7223 -374.09216 -39.486927
v -664.2971 -373.99396 -39.67042
v -664.1724 -374.09647 -39.62578
v -665.50885 -368.86807 -40.35073
v -664.2971 -373.99396 -39.67042
v -665.50946 -367.696 -40.420864
v -665.50885 -368.86807 -40.35073
v -663.49567 -367.66904 -39.86914
v -665.50946 -367.696 -40.420864
v -663.86725 -373.91785 -38.332897
v -663.75934 -367.60284 -38.76008
v -663.9836 -374.024 -38.34413
v -663.86725 -373.91785 -38.332897
v -664.4494 -374.02417 -38.41446
v -663.9836 -374.024 -38.34413
v -664.5784 -373.92056 -38.440125
v -664.4494 -374.02417 -38.41446
v -665.8323 -368.78366 -38.935993
v -664.5784 -373.92056 -38.440125
v -665.83295 -367.61157 -39.00603
v -665.8323 -368.78366 -38.935993
v -663.75934 -367.60284 -38.76008
v -665.83295 -367.61157 -39.00603
v -663.9537 -373.84912 -37.181496
v -663.85443 -367.53506 -37.624172
v -664.07135 -373.95422 -37.175224
v -663.9537 -373.84912 -37.181496
v -664.5424 -373.95023 -37.175465
v -664.07135 -373.95422 -37.175224
v -664.6729 -373.84546 -37.181717
v -664.5424 -373.95023 -37.175465
v -665.9409 -368.6973 -37.488934
v -664.6729 -373.84546 -37.181717
v -665.9416 -367.5252 -37.558876
v -665.9409 -368.6973 -37.488934
v -663.85443 -367.53506 -37.624172
v -665.9416 -367.5252 -37.558876
v -663.86725 -373.78043 -36.030094
v -663.77893 -367.4672 -36.4868
v -663.9836 -373.88446 -36.006317
v -663.86725 -373.78043 -36.030094
v -664.4494 -373.8763 -35.936466
v -663.9836 -373.88446 -36.006317
v -664.5784 -373.77036 -35.923306
v -664.4494 -373.8763 -35.936466
v -665.8323 -368.61093 -36.04187
v -664.5784 -373.77036 -35.923306
v -665.83295 -367.43887 -36.11172
v -665.8323 -368.61093 -36.04187
v -663.77893 -367.4672 -36.4868
v -665.83295 -367.43887 -36.11172
v -663.60986 -373.71326 -34.904415
v -663.5344 -367.40076 -35.37337
v -663.7223 -373.81628 -34.863525
v -663.60986 -373.71326 -34.904415
v -664.1724 -373.80402 -34.72515
v -663.7223 -373.81628 -34.863525
v -664.2971 -373.69693 -34.69301
v -664.1724 -373.80402 -34.72515
v -665.50885 -368.52652 -34.627136
v -664.2971 -373.69693 -34.69301
v -665.50946 -367.35443 -34.69689
v -665.50885 -368.52652 -34.627136
v -663.5344 -367.40076 -35.37337
v -665.50946 -367.35443 -34.69689
v -663.18726 -373.6491 -33.8296
v -663.1264 -367.33722 -34.308754
v -663.2933 -373.75116 -33.772366
v -663.18726 -373.6491 -33.8296
v -663.7177 -373.735 -33.568565
v -663.2933 -373.75116 -33.772366
v -663.83527 -373.62683 -33.518303
v -663.7177 -373.735 -33.568565
v -664.9777 -368.44592 -33.276325
v -663.83527 -373.62683 -33.518303
v -664.9783 -367.2738 -33.345993
v -664.9777 -368.44592 -33.276325
v -663.1264 -367.33722 -34.308754
v -664.9783 -367.2738 -33.345993
v -662.6089 -373.58945 -32.829666
v -662.56396 -367.278 -33.31673
v -662.7061 -373.69058 -32.757225
v -662.6089 -373.58945 -32.829666
v -663.0954 -373.67078 -32.492558
v -662.7061 -373.69058 -32.757225
v -663.2032 -373.5616 -32.425434
v -663.0954 -373.67078 -32.492558
v -664.25085 -368.3709 -32.01962
v -663.2032 -373.5616 -32.425434
v -664.2514 -367.19882 -32.089207
v -664.25085 -368.3709 -32.01962
v -662.56396 -367.278 -33.31673
v -664.2514 -367.19882 -32.089207
v -661.88776 -373.53558 -31.92694
v -661.85974 -367.2245 -32.419464
v -661.974 -373.6359 -31.840776
v -661.88776 -373.53558 -31.92694
v -662.31934 -373.61282 -31.521156
v -661.974 -373.6359 -31.840776
v -662.415 -373.50275 -31.438812
v -662.31934 -373.61282 -31.521156
v -663.3445 -368.30322 -30.88509
v -662.415 -373.50275 -31.438812
v -663.345 -367.1311 -30.954601
v -663.3445 -368.30322 -30.88509
v -661.85974 -367.2245 -32.419464
v -663.345 -367.1311 -30.954601
v -661.03986 -373.4887 -31.141594
v -661.02936 -367.1778 -31.636993
v -661.1132 -373.58832 -31.04349
v -661.03986 -373.4887 -31.141594
v -661.4069 -373.56238 -30.676064
v -661.1132 -373.58832 -31.04349
v -661.4883 -373.45154 -30.580479
v -661.4069 -373.56238 -30.676064
v -662.2789 -368.24432 -29.898079
v -661.4883 -373.45154 -30.580479
v -662.2793 -367.0722 -29.967525
v -662.2789 -368.24432 -29.898079
v -661.02936 -367.1778 -31.636993
v -662.2793 -367.0722 -29.967525
v -660.0841 -373.4499 -30.491169
v -660.0915 -367.13898 -30.9868
v -660.14294 -373.54892 -30.383175
v -660.0841 -373.4499 -30.491169
v -660.37854 -373.52063 -29.976154
v -660.14294 -373.54892 -30.383175
v -660.4438 -373.40912 -29.869604
v -660.37854 -373.52063 -29.976154
v -661.07776 -368.19553 -29.080635
v -660.4438 -373.40912 -29.869604
v -661.07806 -367.0234 -29.150028
v -661.07776 -368.19553 -29.080635
v -660.0915 -367.13898 -30.9868
v -661.07806 -367.0234 -29.150028
v -659.042 -373.41998 -29.990196
v -659.06696 -367.10895 -30.483408
v -659.08496 -373.51855 -29.874584
v -659.042 -373.41998 -29.990196
v -659.2571 -373.48846 -29.437069
v -659.08496 -373.51855 -29.874584
v -659.30475 -373.37643 -29.322071
v -659.2571 -373.48846 -29.437069
v -659.768 -368.15796 -28.45102
v -659.30475 -373.37643 -29.322071
v -659.76825 -366.98584 -28.52037
v -659.768 -368.15796 -28.45102
v -659.06696 -367.10895 -30.483408
v -659.76825 -366.98584 -28.52037
v -657.9367 -373.3997 -29.649862
v -657.97876 -367.08835 -30.138062
v -657.9629 -373.49792 -29.529076
v -657.9367 -373.3997 -29.649862
v -658.0677 -373.46658 -29.070843
v -657.9629 -373.49792 -29.529076
v -658.09674 -373.35425 -28.950108
v -658.0677 -373.46658 -29.070843
v -658.3789 -368.13245 -28.023293
v -658.09674 -373.35425 -28.950108
v -658.379 -366.96033 -28.092615
v -658.3789 -368.13245 -28.023293
v -657.97876 -367.08835 -30.138062
v -658.379 -366.96033 -28.092615
v -656.79297 -373.3894 -29.477776
v -656.85114 -367.0776 -29.958479
v -656.80176 -373.48752 -29.354372
v -656.79297 -373.3894 -29.477776
v -656.8369 -373.45554 -28.885666
v -656.80176 -373.48752 -29.354372
v -656.8467 -373.34302 -28.762028
v -656.8369 -373.45554 -28.885666
v -656.94147 -368.11954 -27.807014
v -656.8467 -373.34302 -28.762028
v -656.9415 -366.94742 -27.876324
v -656.94147 -368.11954 -27.807014
v -656.85114 -367.0776 -29.958479
v -656.9415 -366.94742 -27.876324
v -655.6362 -373.3894 -29.477776
v -655.7092 -367.07703 -29.948666
v -655.62744 -373.48752 -29.354372
v -655.6362 -373.3894 -29.477776
v -655.5923 -373.45554 -28.885666
v -655.62744 -373.48752 -29.354372
v -655.5825 -373.34302 -28.762028
v -655.5923 -373.45554 -28.885666
v -655.48773 -368.11954 -27.807014
v -655.5825 -373.34302 -28.762028
v -655.4877 -366.94742 -27.876324
v -655.48773 -368.11954 -27.807014
v -655.7092 -367.07703 -29.948666
v -655.4877 -366.94742 -27.876324
v -654.4925 -373.3997 -29.649862
v -654.5787 -367.08658 -30.108845
v -654.4663 -373.49792 -29.529078
v -654.4925 -373.3997 -29.649862
v -654.3615 -373.46658 -29.070845
v -654.4663 -373.49792 -29.529078
v -654.33246 -373.35425 -28.950108
v -654.3615 -373.46658 -29.070845
v -654.0503 -368.13245 -28.023293
v -654.33246 -373.35425 -28.950108
v -654.0502 -366.96033 -28.092617
v -654.0503 -368.13245 -28.023293
v -654.5787 -367.08658 -30.108845
v -654.0502 -366.96033 -28.092617
v -653.3872 -373.41998 -29.990196
v -653.4847 -367.10608 -30.435438
v -653.34424 -373.51855 -29.874584
v -653.3872 -373.41998 -29.990196
v -653.1721 -373.48846 -29.437069
v -653.34424 -373.51855 -29.874584
v -653.12445 -373.37643 -29.322071
v -653.1721 -373.48846 -29.437069
v -652.6612 -368.15796 -28.451017
v -653.12445 -373.37643 -29.322071
v -652.66095 -366.98584 -28.520369
v -652.6612 -368.15796 -28.451017
v -653.4847 -367.10608 -30.435438
v -652.66095 -366.98584 -28.520369
v -652.3451 -373.4499 -30.491169
v -652.45166 -367.13507 -30.921148
v -652.28625 -373.54892 -30.383175
v -652.3451 -373.4499 -30.491169
v -652.05066 -373.52063 -29.976156
v -652.28625 -373.54892 -30.383175
v -651.9854 -373.40912 -29.869606
v -652.05066 -373.52063 -29.976156
v -651.35144 -368.19553 -29.080635
v -651.9854 -373.40912 -29.869606
v -651.35114 -367.0234 -29.150026
v -651.35144 -368.19553 -29.080635
v -652.45166 -367.13507 -30.921148
v -651.35114 -367.0234 -29.150026
v -651.38934 -373.4887 -31.141596
v -651.5026 -367.1729 -31.55513
v -651.316 -373.58832 -31.043491
v -651.38934 -373.4887 -31.141596
v -651.0223 -373.56238 -30.676065
v -651.316 -373.58832 -31.043491
v -650.9409 -373.45154 -30.580482
v -651.0223 -373.56238 -30.676065
v -650.1503 -368.24432 -29.89808
v -650.9409 -373.45154 -30.580482
v -650.1499 -367.0722 -29.967525
v -650.1503 -368.24432 -29.89808
v -651.5026 -367.1729 -31.55513
v -650.1499 -367.0722 -29.967525
v -650.54144 -373.53558 -31.926943
v -650.65894 -367.21872 -32.32321
v -650.4552 -373.6359 -31.840778
v -650.54144 -373.53558 -31.926943
v -650.10986 -373.61282 -31.521158
v -650.4552 -373.6359 -31.840778
v -650.0142 -373.50275 -31.438816
v -650.10986 -373.61282 -31.521158
v -649.0847 -368.30322 -30.885092
v -650.0142 -373.50275 -31.438816
v -649.0842 -367.1311 -30.954601
v -649.0847 -368.30322 -30.885092
v -650.65894 -367.21872 -32.32321
v -649.0842 -367.1311 -30.954601
v -649.82025 -373.58945 -32.829666
v -649.93933 -367.27155 -33.208244
v -649.7231 -373.69058 -32.75723
v -649.82025 -373.58945 -32.829666
v -649.3338 -373.67078 -32.49256
v -649.7231 -373.69058 -32.75723
v -649.226 -373.5616 -32.425438
v -649.3338 -373.67078 -32.49256
v -648.17834 -368.3709 -32.019623
v -649.226 -373.5616 -32.425438
v -648.1778 -367.19882 -32.089207
v -648.17834 -368.3709 -32.019623
v -649.93933 -367.27155 -33.208244
v -648.1778 -367.19882 -32.089207
v -649.24194 -373.6491 -33.829605
v -649.35986 -367.33017 -34.190456
v -649.1359 -373.75116 -33.77237
v -649.24194 -373.6491 -33.829605
v -648.7115 -373.735 -33.56857
v -649.1359 -373.75116 -33.77237
v -648.59393 -373.62683 -33.518307
v -648.7115 -373.735 -33.56857
v -647.4515 -368.44592 -33.276325
v -648.59393 -373.62683 -33.518307
v -647.4509 -367.2738 -33.345993
v -647.4515 -368.44592 -33.276325
v -649.35986 -367.33017 -34.190456
v -647.4509 -367.2738 -33.345993
v -648.81934 -373.71326 -34.90442
v -648.93353 -367.39325 -35.24791
v -648.7069 -373.81628 -34.86353
v -648.81934 -373.71326 -34.90442
v -648.2568 -373.80402 -34.725155
v -648.7069 -373.81628 -34.86353
v -648.1321 -373.69693 -34.693012
v -648.2568 -373.80402 -34.725155
v -646.92035 -368.52652 -34.62714
v -648.1321 -373.69693 -34.693012
v -646.91974 -367.35443 -34.696896
v -646.92035 -368.52652 -34.62714
v -648.93353 -367.39325 -35.24791
v -646.91974 -367.35443 -34.696896
v -648.56195 -373.78043 -36.030098
v -648.66986 -367.45944 -36.356968
v -648.4456 -373.88446 -36.006317
v -648.56195 -373.78043 -36.030098
v -647.9798 -373.8763 -35.936466
v -648.4456 -373.88446 -36.006317
v -647.85077 -373.77036 -35.923306
v -647.9798 -373.8763 -35.936466
v -646.5969 -368.61093 -36.04187
v -647.85077 -373.77036 -35.923306
v -646.59625 -367.43887 -36.111717
v -646.5969 -368.61093 -36.04187
v -648.66986 -367.45944 -36.356968
v -646.59625 -367.43887 -36.111717
vt 0.897815 0.016345978
vt 0.893371 0.016345978
vt 0.892714 0.9990760088
vt 0.888832 0.9990760088
vt 0.903863 0
vt 0.899352 0
vt 0.897815 0.016345978
vt 0.893371 0.016345978
vt 0.928079 0.0006200075
vt 0.923298 0.0006200075
vt 0.903863 0
vt 0.899352 0
vt 0.934787 0.016918004
vt 0.92993 0.016918004
vt 0.928079 0.0006200075
vt 0.923298 0.0006200075
vt 0.999967 0.81768799
vt 0.994383 0.81768799
vt 0.934787 0.016918004
vt 0.92993 0.016918004
vt 1 0.999998986721
vt 0.994415 0.999998986721
vt 0.999967 0.81768799
vt 0.994383 0.81768799
vt 0.892714 0.9990760088
vt 0.888832 0.9990760088
vt 1 0.999998986721
vt 0.994415 0.999998986721
vt 0.880141 0.016345978
vt 0.876263 0.9990760088
vt 0.885921 0
vt 0.880141 0.016345978
vt 0.909061 0.0006200075
vt 0.885921 0
vt 0.91547 0.016918004
vt 0.909061 0.0006200075
vt 0.977755 0.81768799
vt 0.91547 0.016918004
vt 0.977786 0.999998986721
vt 0.977755 0.81768799
vt 0.876263 0.9990760088
vt 0.977786 0.999998986721
vt 0.858419 0.016345978
vt 0.85529 0.9990760088
vt 0.863868 0
vt 0.858419 0.016345978
vt 0.885686 0.0006200075
vt 0.863868 0
vt 0.891729 0.016918004
vt 0.885686 0.0006200075
vt 0.950455 0.81768799
vt 0.891729 0.016918004
vt 0.950484 0.999998986721
vt 0.950455 0.81768799
vt 0.85529 0.9990760088
vt 0.950484 0.999998986721
vt 0.82869 0.016345978
vt 0.82638 0.9990760088
vt 0.833687 0
vt 0.82869 0.016345978
vt 0.853696 0.0006200075
vt 0.833687 0
vt 0.859238 0.016918004
vt 0.853696 0.0006200075
vt 0.913092 0.81768799
vt 0.859238 0.016918004
vt 0.913119 0.999998986721
vt 0.913092 0.81768799
vt 0.82638 0.9990760088
vt 0.913119 0.999998986721
vt 0.791619 0.016345978
vt 0.790179 0.9990760088
vt 0.796053 0
vt 0.791619 0.016345978
vt 0.813804 0.0006200075
vt 0.796053 0
vt 0.818721 0.016918004
vt 0.813804 0.0006200075
vt 0.866502 0.81768799
vt 0.818721 0.016918004
vt 0.866526 0.999998986721
vt 0.866502 0.81768799
vt 0.790179 0.9990760088
vt 0.866526 0.999998986721
vt 0.748033 0.016345978
vt 0.747496 0.9990760088
vt 0.751805 0
vt 0.748033 0.016345978
vt 0.766903 0.0006200075
vt 0.751805 0
vt 0.771085 0.016918004
vt 0.766903 0.0006200075
vt 0.811724 0.81768799
vt 0.771085 0.016918004
vt 0.811745 0.999998986721
vt 0.811724 0.81768799
vt 0.747496 0.9990760088
vt 0.811745 0.999998986721
vt 0.698907 0.016345978
vt 0.699285 0.9990760088
vt 0.701932 0
vt 0.698907 0.016345978
vt 0.71404 0.0006200075
vt 0.701932 0
vt 0.717393 0.016918004
vt 0.71404 0.0006200075
vt 0.749984 0.81768799
vt 0.717393 0.016918004
vt 0.75 0.999998986721
vt 0.749984 0.81768799
vt 0.699285 0.9990760088
vt 0.75 0.999998986721
vt 0.645338 0.016345978
vt 0.646622 0.9990760088
vt 0.647548 0
vt 0.645338 0.016345978
vt 0.656395 0.0006200075
vt 0.647548 0
vt 0.658845 0.016918004
vt 0.656395 0.0006200075
vt 0.682659 0.81768799
vt 0.658845 0.016918004
vt 0.682671 0.999998986721
vt 0.682659 0.81768799
vt 0.646622 0.9990760088
vt 0.682671 0.999998986721
vt 0.588522 0.016345978
vt 0.590683 0.9990760088
vt 0.589868 0
vt 0.588522 0.016345978
vt 0.595256 0.0006200075
vt 0.589868 0
vt 0.596749 0.016918004
vt 0.595256 0.0006200075
vt 0.611253 0.81768799
vt 0.596749 0.016918004
vt 0.61126 0.999998986721
vt 0.611253 0.81768799
vt 0.590683 0.9990760088
vt 0.61126 0.999998986721
vt 0.529729 0.016345978
vt 0.532719 0.9990760088
vt 0.530181 0
vt 0.529729 0.016345978
vt 0.53199 0.0006200075
vt 0.530181 0
vt 0.532492 0.016918004
vt 0.53199 0.0006200075
vt 0.537363 0.81768799
vt 0.532492 0.016918004
vt 0.537365 0.999998986721
vt 0.537363 0.81768799
vt 0.532719 0.9990760088
vt 0.537365 0.999998986721
vt 0.470271 0.016345978
vt 0.474024 0.9990770221
vt 0.469819 0
vt 0.470271 0.016345978
vt 0.468009 0.0006200075
vt 0.469819 0
vt 0.467508 0.016918004
vt 0.468009 0.0006200075
vt 0.462637 0.81768799
vt 0.467508 0.016918004
vt 0.462635 0.999998986721
vt 0.462637 0.81768799
vt 0.474024 0.9990770221
vt 0.462635 0.999998986721
vt 0.411478 0.016345978
vt 0.415909 0.9990770221
vt 0.410132 0
vt 0.411478 0.016345978
vt 0.404743 0.0006200075
vt 0.410132 0
vt 0.403251 0.016918004
vt 0.404743 0.0006200075
vt 0.388747 0.81768799
vt 0.403251 0.016918004
vt 0.38874 0.999998986721
vt 0.388747 0.81768799
vt 0.415909 0.9990770221
vt 0.38874 0.999998986721
vt 0.354662 0.016345978
vt 0.359672 0.9990770221
vt 0.352452 0
vt 0.354662 0.016345978
vt 0.343605 0.0006200075
vt 0.352452 0
vt 0.341154 0.016918004
vt 0.343605 0.0006200075
vt 0.317341 0.817689
vt 0.341154 0.016918004
vt 0.317329 0.999998986721
vt 0.317341 0.817689
vt 0.359672 0.9990770221
vt 0.317329 0.999998986721
vt 0.301093 0.016345978
vt 0.306571 0.9990770221
vt 0.298068 0
vt 0.301093 0.016345978
vt 0.28596 0.0006200075
vt 0.298068 0
vt 0.282607 0.016918004
vt 0.28596 0.0006200075
vt 0.250016 0.817689
vt 0.282607 0.016918004
vt 0.25 1
vt 0.250016 0.817689
vt 0.306571 0.9990770221
vt 0.25 1
vt 0.251966 0.016345978
vt 0.25779 0.9990770221
vt 0.248195 0
vt 0.251966 0.016345978
vt 0.233097 0.0006200075
vt 0.248195 0
vt 0.228915 0.016918004
vt 0.233097 0.0006200075
vt 0.188276 0.817689
vt 0.228915 0.016918004
vt 0.188255 1
vt 0.188276 0.817689
vt 0.25779 0.9990770221
vt 0.188255 1
vt 0.208381 0.016345978
vt 0.21442 0.9990770221
vt 0.203947 0
vt 0.208381 0.016345978
vt 0.186196 0.0006200075
vt 0.203947 0
vt 0.181279 0.016918004
vt 0.186196 0.0006200075
vt 0.133498 0.817689
vt 0.181279 0.016918004
vt 0.133474 1
vt 0.133498 0.817689
vt 0.21442 0.9990770221
vt 0.133474 1
vt 0.17131 0.016345978
vt 0.177429 0.9990770221
vt 0.166312 0
vt 0.17131 0.016345978
vt 0.146304 0.0006200075
vt 0.166312 0
vt 0.140762 0.016918004
vt 0.146304 0.0006200075
vt 0.086908 0.817689
vt 0.140762 0.016918004
vt 0.086881 1
vt 0.086908 0.817689
vt 0.177429 0.9990770221
vt 0.086881 1
vt 0.141581 0.016345978
vt 0.147644 0.9990770221
vt 0.136132 0.000001013279
vt 0.141581 0.016345978
vt 0.114314 0.0006200075
vt 0.136132 0.000001013279
vt 0.108271 0.016918004
vt 0.114314 0.0006200075
vt 0.049545 0.817689
vt 0.108271 0.016918004
vt 0.049516 1
vt 0.049545 0.817689
vt 0.147644 0.9990770221
vt 0.049516 1
vt 0.119859 0.016345978
vt 0.12573 0.9990770221
vt 0.114079 0.000001013279
vt 0.119859 0.016345978
vt 0.090939 0.0006200075
vt 0.114079 0.000001013279
vt 0.08453 0.016919017
vt 0.090939 0.0006200075
vt 0.022245 0.817689
vt 0.08453 0.016919017
vt 0.022214 1
vt 0.022245 0.817689
vt 0.12573 0.9990770221
vt 0.022214 1
vt 0.106628 0.016346991
vt 0.112176 0.9990770221
vt 0.100648 0.000001013279
vt 0.106628 0.016346991
vt 0.076702 0.0006200075
vt 0.100648 0.000001013279
vt 0.070069 0.016919017
vt 0.076702 0.0006200075
vt 0.005617 0.817689
vt 0.070069 0.016919017
vt 0.005585 1
vt 0.005617 0.817689
vt 0.112176 0.9990770221
vt 0.005585 1
vt 0.102185 0.016346991
vt 0.107286 0.9990770221
vt 0.096137 0.000001013279
vt 0.102185 0.016346991
vt 0.071921 0.0006200075
vt 0.096137 0.000001013279
vt 0.065213 0.016919017
vt 0.071921 0.0006200075
vt 0.000033 0.817689
vt 0.065213 0.016919017
vt 0 1
vt 0.000033 0.817689
vt 0.107286 0.9990770221
vt 0 1
vt 0.106628 0.016346991
vt 0.111168 0.9990770221
vt 0.100648 0.000001013279
vt 0.106628 0.016346991
vt 0.076702 0.0006200075
vt 0.100648 0.000001013279
vt 0.070069 0.016919017
vt 0.076702 0.0006200075
vt 0.005617 0.817689
vt 0.070069 0.016919017
vt 0.005585 1
vt 0.005617 0.817689
vt 0.111168 0.9990770221
vt 0.005585 1
vt 0.119859 0.016346991
vt 0.123737 0.9990770221
vt 0.114079 0.000001013279
vt 0.119859 0.016346991
vt 0.090939 0.0006200075
vt 0.114079 0.000001013279
vt 0.08453 0.016919017
vt 0.090939 0.0006200075
vt 0.022245 0.817689
vt 0.08453 0.016919017
vt 0.022214 1
vt 0.022245 0.817689
vt 0.123737 0.9990770221
vt 0.022214 1
vt 0.141581 0.016346991
vt 0.14471 0.9990770221
vt 0.136132 0.000001013279
vt 0.141581 0.016346991
vt 0.114314 0.0006200075
vt 0.136132 0.000001013279
vt 0.108271 0.016919017
vt 0.114314 0.0006200075
vt 0.049545 0.817689
vt 0.108271 0.016919017
vt 0.049516 1
vt 0.049545 0.817689
vt 0.14471 0.9990770221
vt 0.049516 1
vt 0.17131 0.016346991
vt 0.17362 0.9990770221
vt 0.166313 0.000001013279
vt 0.17131 0.016346991
vt 0.146304 0.0006200075
vt 0.166313 0.000001013279
vt 0.140762 0.016919017
vt 0.146304 0.0006200075
vt 0.086908 0.817689
vt 0.140762 0.016919017
vt 0.086881 1
vt 0.086908 0.817689
vt 0.17362 0.9990770221
vt 0.086881 1
vt 0.208381 0.016346991
vt 0.209821 0.9990770221
vt 0.203947 0.000001013279
vt 0.208381 0.016346991
vt 0.186196 0.0006200075
vt 0.203947 0.000001013279
vt 0.181279 0.016919017
vt 0.186196 0.0006200075
vt 0.133498 0.817689
vt 0.181279 0.016919017
vt 0.133474 1
vt 0.133498 0.817689
vt 0.209821 0.9990770221
vt 0.133474 1
vt 0.251967 0.016346991
vt 0.252504 0.9990770221
vt 0.248195 0.000001013279
vt 0.251967 0.016346991
vt 0.233097 0.0006200075
vt 0.248195 0.000001013279
vt 0.228915 0.016919017
vt 0.233097 0.0006200075
vt 0.188276 0.817689
vt 0.228915 0.016919017
vt 0.188255 1
vt 0.188276 0.817689
vt 0.252504 0.9990770221
vt 0.188255 1
vt 0.301093 0.016346991
vt 0.300715 0.9990770221
vt 0.298068 0.000001013279
vt 0.301093 0.016346991
vt 0.28596 0.0006200075
vt 0.298068 0.000001013279
vt 0.282607 0.016919017
vt 0.28596 0.0006200075
vt 0.250016 0.817689
vt 0.282607 0.016919017
vt 0.25 1
vt 0.250016 0.817689
vt 0.300715 0.9990770221
vt 0.25 1
vt 0.354662 0.016346991
vt 0.353378 0.9990770221
vt 0.352452 0.000001013279
vt 0.354662 0.016346991
vt 0.343605 0.0006200075
vt 0.352452 0.000001013279
vt 0.341155 0.016919017
vt 0.343605 0.0006200075
vt 0.317341 0.817689
vt 0.341155 0.016919017
vt 0.317329 1
vt 0.317341 0.817689
vt 0.353378 0.9990770221
vt 0.317329 1
vt 0.411478 0.016346991
vt 0.409317 0.9990770221
vt 0.410132 0.000001013279
vt 0.411478 0.016346991
vt 0.404744 0.0006200075
vt 0.410132 0.000001013279
vt 0.403251 0.016919017
vt 0.404744 0.0006200075
vt 0.388747 0.817689
vt 0.403251 0.016919017
vt 0.38874 1
vt 0.388747 0.817689
vt 0.409317 0.9990770221
vt 0.38874 1
vt 0.470271 0.016346991
vt 0.467281 0.9990770221
vt 0.469819 0.000001013279
vt 0.470271 0.016346991
vt 0.468009 0.0006200075
vt 0.469819 0.000001013279
vt 0.467508 0.016919017
vt 0.468009 0.0006200075
vt 0.462637 0.817689
vt 0.467508 0.016919017
vt 0.462635 1
vt 0.462637 0.817689
vt 0.467281 0.9990770221
vt 0.462635 1
vt 0.529729 0.016345978
vt 0.525976 0.9990770221
vt 0.530181 0.000001013279
vt 0.529729 0.016345978
vt 0.53199 0.0006200075
vt 0.530181 0.000001013279
vt 0.532492 0.016918004
vt 0.53199 0.0006200075
vt 0.537363 0.817689
vt 0.532492 0.016918004
vt 0.537365 1
vt 0.537363 0.817689
vt 0.525976 0.9990770221
vt 0.537365 1
vt 0.588522 0.016345978
vt 0.584091 0.9990770221
vt 0.589868 0
vt 0.588522 0.016345978
vt 0.595257 0.0006200075
vt 0.589868 0
vt 0.596749 0.016918004
vt 0.595257 0.0006200075
vt 0.611253 0.817689
vt 0.596749 0.016918004
vt 0.61126 1
vt 0.611253 0.817689
vt 0.584091 0.9990770221
vt 0.61126 1
vt 0.645338 0.016345978
vt 0.640328 0.9990770221
vt 0.647548 0
vt 0.645338 0.016345978
vt 0.656395 0.0006200075
vt 0.647548 0
vt 0.658845 0.016918004
vt 0.656395 0.0006200075
vt 0.682659 0.817689
vt 0.658845 0.016918004
vt 0.68267 1
vt 0.682659 0.817689
vt 0.640328 0.9990770221
vt 0.68267 1
vt 0.698907 0.016345978
vt 0.693429 0.9990770221
vt 0.701932 0
vt 0.698907 0.016345978
vt 0.71404 0.0006200075
vt 0.701932 0
vt 0.717393 0.016918004
vt 0.71404 0.0006200075
vt 0.749984 0.817689
vt 0.717393 0.016918004
vt 0.75 1
vt 0.749984 0.817689
vt 0.693429 0.9990770221
vt 0.75 1
vt 0.748033 0.016345978
vt 0.74221 0.9990770221
vt 0.751805 0
vt 0.748033 0.016345978
vt 0.766903 0.0006200075
vt 0.751805 0
vt 0.771085 0.016918004
vt 0.766903 0.0006200075
vt 0.811725 0.817689
vt 0.771085 0.016918004
vt 0.811745 1
vt 0.811725 0.817689
vt 0.74221 0.9990770221
vt 0.811745 1
vt 0.791619 0.016345978
vt 0.785581 0.9990770221
vt 0.796053 0
vt 0.791619 0.016345978
vt 0.813804 0.0006200075
vt 0.796053 0
vt 0.818721 0.016918004
vt 0.813804 0.0006200075
vt 0.866502 0.817689
vt 0.818721 0.016918004
vt 0.866526 0.999998986721
vt 0.866502 0.817689
vt 0.785581 0.9990770221
vt 0.866526 0.999998986721
vt 0.82869 0.016345978
vt 0.822571 0.9990770221
vt 0.833687 0
vt 0.82869 0.016345978
vt 0.853696 0.0006200075
vt 0.833687 0
vt 0.859238 0.016918004
vt 0.853696 0.0006200075
vt 0.913092 0.81768799
vt 0.859238 0.016918004
vt 0.913119 0.999998986721
vt 0.913092 0.81768799
vt 0.822571 0.9990770221
vt 0.913119 0.999998986721
vt 0.858419 0.016345978
vt 0.852356 0.9990770221
vt 0.863868 0
vt 0.858419 0.016345978
vt 0.885686 0.0006200075
vt 0.863868 0
vt 0.891729 0.016918004
vt 0.885686 0.0006200075
vt 0.950455 0.81768799
vt 0.891729 0.016918004
vt 0.950484 0.999998986721
vt 0.950455 0.81768799
vt 0.852356 0.9990770221
vt 0.950484 0.999998986721
vt 0.880141 0.016345978
vt 0.874271 0.9990770221
vt 0.885921 0
vt 0.880141 0.016345978
vt 0.909061 0.0006200075
vt 0.885921 0
vt 0.91547 0.016918004
vt 0.909061 0.0006200075
vt 0.977755 0.81768799
vt 0.91547 0.016918004
vt 0.977786 0.999998986721
vt 0.977755 0.81768799
vt 0.874271 0.9990770221
vt 0.977786 0.999998986721
vt 0.893371 0.016345978
vt 0.887824 0.9990760088
vt 0.899352 0
vt 0.893371 0.016345978
vt 0.923298 0.0006200075
vt 0.899352 0
vt 0.92993 0.016918004
vt 0.923298 0.0006200075
vt 0.994383 0.81768799
vt 0.92993 0.016918004
vt 0.994415 0.999998986721
vt 0.994383 0.81768799
vt 0.887824 0.9990760088
vt 0.994415 0.999998986721
vn -0.999866 -0.016331 0.000981
vn -0.988698 -0.007454 0.149738
vn -0.999852 -0.015379 -0.007711
vn -0.989968 -0.006497 0.14114
vn -0.666768 -0.743942 0.044395
vn -0.659321 -0.738022 0.143595
vn -0.666768 -0.743942 0.044395
vn -0.659321 -0.738022 0.143595
vn 0.00847 -0.998188 0.059567
vn 0.008375 -0.998264 0.058307
vn 0.00847 -0.998188 0.059567
vn 0.008375 -0.998264 0.058307
vn 0.626804 -0.777793 0.046415
vn 0.619803 -0.783359 -0.046839
vn 0.626804 -0.777793 0.046415
vn 0.619803 -0.783359 -0.04684
vn 0.971079 -0.238333 0.014222
vn 0.960233 -0.246955 -0.130252
vn 0.971079 -0.238333 0.014222
vn 0.960233 -0.246955 -0.130252
vn 1 -0.000542 0.000032
vn 0.988831 -0.00942 -0.148745
vn 1 -0.000542 0.000032
vn 0.988831 -0.00942 -0.148745
vn -0.002843 0.998219 -0.059594
vn -0.002815 0.998244 -0.059171
vn -0.002852 0.99822 -0.059568
vn -0.00282 0.998245 -0.059144
vn -0.955443 0.001225 0.295173
vn -0.95797 0.002199 0.286859
vn -0.637146 -0.732234 0.240579
vn -0.637146 -0.732234 0.240579
vn 0.008093 -0.998337 0.057075
vn 0.008093 -0.998337 0.057075
vn 0.598957 -0.788799 -0.138011
vn 0.598957 -0.788799 -0.138011
vn 0.927937 -0.255384 -0.2715
vn 0.927937 -0.255384 -0.2715
vn 0.955573 -0.0181 -0.294199
vn 0.955573 -0.0181 -0.294199
vn -0.002724 0.998269 -0.058756
vn -0.002725 0.99827 -0.058729
vn -0.900846 0.009511 0.434036
vn -0.904573 0.010514 0.426189
vn -0.600737 -0.726709 0.333181
vn -0.600737 -0.726709 0.333181
vn 0.007631 -0.998407 0.055899
vn 0.007631 -0.998407 0.055899
vn 0.564731 -0.793994 -0.225062
vn 0.564731 -0.793994 -0.225062
vn 0.874912 -0.263432 -0.406365
vn 0.874912 -0.263432 -0.406365
vn 0.900969 -0.026388 -0.433081
vn 0.900969 -0.026388 -0.433081
vn -0.002572 0.998292 -0.05836
vn -0.00257 0.998294 -0.058333
vn -0.826125 0.017221 0.563224
vn -0.830969 0.018261 0.556019
vn -0.55091 -0.721567 0.419332
vn -0.55091 -0.721567 0.419332
vn 0.006998 -0.998473 0.054804
vn 0.006998 -0.998473 0.054804
vn 0.517889 -0.798827 -0.306049
vn 0.517889 -0.798827 -0.306049
vn 0.802343 -0.270919 -0.531834
vn 0.802343 -0.270919 -0.531834
vn 0.826239 -0.034098 -0.562287
vn 0.826239 -0.034098 -0.562287
vn -0.002363 0.998314 -0.057991
vn -0.002356 0.998316 -0.057965
vn -0.732949 0.024181 0.679853
vn -0.738802 0.025269 0.673449
vn -0.488775 -0.716927 0.497107
vn -0.488775 -0.716927 0.497107
vn 0.006209 -0.998532 0.053816
vn 0.006209 -0.998532 0.053816
vn 0.45948 -0.80319 -0.379163
vn 0.45948 -0.80319 -0.379163
vn 0.711851 -0.277679 -0.645106
vn 0.711851 -0.277679 -0.645106
vn 0.733052 -0.041059 -0.678933
vn 0.733052 -0.041059 -0.678933
vn -0.002101 0.998334 -0.057657
vn -0.002091 0.998336 -0.057632
vn -0.623402 0.030235 0.781317
vn -0.630132 0.03138 0.775854
vn -0.415723 -0.712889 0.564769
vn -0.415723 -0.712889 0.564769
vn 0.005281 -0.998583 0.052957
vn 0.005281 -0.998583 0.052957
vn 0.390805 -0.806986 -0.442769
vn 0.390805 -0.806986 -0.442769
vn 0.605458 -0.283559 -0.74365
vn 0.605458 -0.283559 -0.74365
vn 0.62349 -0.047115 -0.78041
vn 0.62349 -0.047115 -0.78041
vn -0.001792 0.998352 -0.057366
vn -0.001778 0.998353 -0.057343
vn -0.499928 0.03525 0.86535
vn -0.507386 0.036458 0.860948
vn -0.333384 -0.709544 0.620808
vn -0.333384 -0.709544 0.620808
vn 0.004235 -0.998625 0.052245
vn 0.004235 -0.998625 0.052245
vn 0.313402 -0.810129 -0.49545
vn 0.313402 -0.810129 -0.49545
vn 0.48554 -0.28843 -0.825263
vn 0.485539 -0.28843 -0.825263
vn 0.5 -0.05213 -0.864455
vn 0.5 -0.05213 -0.864455
vn -0.001443 0.998366 -0.057124
vn -0.001426 0.998367 -0.057103
vn -0.365286 0.039113 0.930073
vn -0.373305 0.040389 0.926829
vn -0.243598 -0.706968 0.66397
vn -0.243598 -0.706968 0.66397
vn 0.003094 -0.998658 0.051697
vn 0.003094 -0.998658 0.051697
vn 0.228996 -0.812551 -0.536023
vn 0.228996 -0.812551 -0.536023
vn 0.354775 -0.292181 -0.888125
vn 0.354775 -0.292181 -0.888125
vn 0.365341 -0.055993 -0.929188
vn 0.365341 -0.055993 -0.929188
vn -0.001062 0.998377 -0.056936
vn -0.001042 0.998378 -0.056918
vn -0.222485 0.041736 0.974042
vn -0.230886 0.043087 0.972026
vn -0.14837 -0.70522 0.69329
vn -0.14837 -0.70522 0.69329
vn 0.001885 -0.99868 0.051324
vn 0.001885 -0.99868 0.051324
vn 0.139477 -0.814195 -0.563589
vn 0.139477 -0.814195 -0.563589
vn 0.216085 -0.294729 -0.930829
vn 0.216085 -0.294729 -0.930829
vn 0.222521 -0.058618 -0.973164
vn 0.222521 -0.058618 -0.973164
vn -0.000657 0.998385 -0.056807
vn -0.000634 0.998386 -0.056793
vn -0.074714 0.043063 0.996275
vn -0.083308 0.044489 0.99553
vn -0.049828 -0.704334 0.708118
vn -0.049828 -0.704334 0.708118
vn 0.000633 -0.998691 0.051136
vn 0.000633 -0.998691 0.051136
vn 0.046841 -0.815027 -0.577527
vn 0.046841 -0.815027 -0.577526
vn 0.072569 -0.296018 -0.952422
vn 0.072569 -0.296018 -0.952422
vn 0.07473 -0.059945 -0.9954
vn 0.07473 -0.059945 -0.9954
vn -0.000237 0.998389 -0.056741
vn -0.000213 0.99839 -0.056729
vn 0.074727 0.043063 0.996274
vn 0.06613 0.044566 0.996815
vn 0.049828 -0.704335 0.708116
vn 0.049828 -0.704335 0.708116
vn -0.000633 -0.998691 0.051136
vn -0.000633 -0.998691 0.051136
vn -0.046841 -0.815027 -0.577526
vn -0.046841 -0.815027 -0.577526
vn -0.072569 -0.296018 -0.952422
vn -0.072569 -0.296018 -0.952422
vn -0.07473 -0.059945 -0.9954
vn -0.07473 -0.059945 -0.9954
vn 0.000187 0.998389 -0.056737
vn 0.000213 0.99839 -0.056729
vn 0.222497 0.041736 0.97404
vn 0.21409 0.043315 0.975853
vn 0.14837 -0.705218 0.693292
vn 0.14837 -0.705218 0.693292
vn -0.001885 -0.99868 0.051324
vn -0.001885 -0.99868 0.051324
vn -0.139477 -0.814195 -0.56359
vn -0.139477 -0.814195 -0.56359
vn -0.216085 -0.294729 -0.930829
vn -0.216085 -0.294729 -0.930829
vn -0.222521 -0.058618 -0.973164
vn -0.222521 -0.058618 -0.973164
vn 0.000608 0.998386 -0.056796
vn 0.000635 0.998386 -0.056793
vn 0.365298 0.039112 0.930069
vn 0.357269 0.040764 0.933112
vn 0.243598 -0.706968 0.66397
vn 0.243598 -0.706968 0.66397
vn -0.003094 -0.998658 0.051697
vn -0.003094 -0.998658 0.051697
vn -0.228997 -0.81255 -0.536024
vn -0.228997 -0.81255 -0.536024
vn -0.354775 -0.292181 -0.888125
vn -0.354775 -0.292181 -0.888124
vn -0.365341 -0.055994 -0.929188
vn -0.365341 -0.055993 -0.929188
vn 0.001015 0.998378 -0.056918
vn 0.001042 0.998378 -0.056918
vn 0.499939 0.03525 0.865343
vn 0.492466 0.036971 0.869546
vn 0.333384 -0.709545 0.620807
vn 0.333384 -0.709545 0.620807
vn -0.004235 -0.998625 0.052245
vn -0.004235 -0.998625 0.052245
vn -0.313402 -0.810128 -0.49545
vn -0.313403 -0.810128 -0.49545
vn -0.48554 -0.28843 -0.825263
vn -0.48554 -0.28843 -0.825263
vn -0.5 -0.05213 -0.864455
vn -0.5 -0.05213 -0.864455
vn 0.0014 0.998368 -0.057099
vn 0.001426 0.998367 -0.057103
vn 0.623411 0.030235 0.781309
vn 0.616663 0.03202 0.786576
vn 0.415723 -0.712889 0.564769
vn 0.415723 -0.712888 0.564769
vn -0.005281 -0.998583 0.052957
vn -0.005281 -0.998583 0.052957
vn -0.390807 -0.806985 -0.442771
vn -0.390807 -0.806985 -0.442771
vn -0.605458 -0.283559 -0.74365
vn -0.605458 -0.283559 -0.74365
vn -0.62349 -0.047115 -0.780411
vn -0.62349 -0.047115 -0.780411
vn 0.001753 0.998353 -0.057335
vn 0.001779 0.998353 -0.057343
vn 0.732958 0.02418 0.679844
vn 0.727085 0.026021 0.686054
vn 0.488776 -0.716926 0.497107
vn 0.488776 -0.716926 0.497107
vn -0.006209 -0.998532 0.053816
vn -0.006209 -0.998532 0.053816
vn -0.459479 -0.80319 -0.379162
vn -0.459479 -0.80319 -0.379162
vn -0.711851 -0.277679 -0.645106
vn -0.711851 -0.277679 -0.645106
vn -0.733052 -0.041059 -0.678932
vn -0.733052 -0.041059 -0.678932
vn 0.002067 0.998336 -0.05762
vn 0.002091 0.998336 -0.057633
vn 0.826132 0.01722 0.563214
vn 0.821264 0.019109 0.570228
vn 0.55091 -0.721567 0.419332
vn 0.55091 -0.721567 0.419332
vn -0.006998 -0.998473 0.054804
vn -0.006998 -0.998473 0.054804
vn -0.51789 -0.798827 -0.306049
vn -0.517889 -0.798827 -0.306049
vn -0.802344 -0.270919 -0.531834
vn -0.802343 -0.270919 -0.531834
vn -0.826239 -0.034099 -0.562287
vn -0.826239 -0.034099 -0.562287
vn 0.002335 0.998317 -0.057949
vn 0.002357 0.998316 -0.057965
vn 0.900851 0.009511 0.434024
vn 0.897098 0.011438 0.441683
vn 0.600737 -0.726709 0.33318
vn 0.600736 -0.726709 0.333181
vn -0.007631 -0.998407 0.055899
vn -0.007631 -0.998407 0.055899
vn -0.564728 -0.793996 -0.22506
vn -0.564728 -0.793996 -0.225061
vn -0.874912 -0.263432 -0.406365
vn -0.874912 -0.263432 -0.406365
vn -0.900969 -0.026388 -0.433081
vn -0.900969 -0.026388 -0.433081
vn 0.00255 0.998295 -0.058315
vn 0.00257 0.998294 -0.058334
vn 0.955447 0.001224 0.295161
vn 0.952892 0.00318 0.303292
vn 0.637145 -0.732235 0.240579
vn 0.637145 -0.732235 0.240579
vn -0.008093 -0.998337 0.057075
vn -0.008093 -0.998337 0.057075
vn -0.598957 -0.788799 -0.138011
vn -0.598957 -0.788799 -0.138011
vn -0.927937 -0.255384 -0.2715
vn -0.927937 -0.255384 -0.2715
vn -0.955573 -0.0181 -0.294199
vn -0.955573 -0.0181 -0.294199
vn 0.002709 0.998271 -0.058709
vn 0.002726 0.99827 -0.05873
vn 0.988699 -0.007455 0.149726
vn 0.987401 -0.005482 0.158144
vn 0.659322 -0.738021 0.143595
vn 0.659322 -0.738021 0.143595
vn -0.008375 -0.998264 0.058307
vn -0.008375 -0.998264 0.058307
vn -0.619804 -0.783358 -0.046839
vn -0.619804 -0.783358 -0.046839
vn -0.960233 -0.246955 -0.130252
vn -0.960233 -0.246955 -0.130252
vn -0.988831 -0.00942 -0.148745
vn -0.988831 -0.00942 -0.148745
vn 0.002808 0.998247 -0.059121
vn 0.00282 0.998245 -0.059145
vn 0.999866 -0.016332 0.000968
vn 0.999852 -0.014353 0.009485
vn 0.666767 -0.743943 0.044395
vn 0.666767 -0.743943 0.044395
vn -0.00847 -0.998188 0.059567
vn -0.00847 -0.998188 0.059567
vn -0.626803 -0.777794 0.046415
vn -0.626803 -0.777794 0.046415
vn -0.971079 -0.238333 0.014223
vn -0.971079 -0.238333 0.014223
vn -1 -0.000542 0.000032
vn -1 -0.000542 0.000032
vn 0.002843 0.998222 -0.059544
vn 0.002852 0.99822 -0.059569
vn 0.988698 -0.025209 -0.147789
vn 0.989968 -0.023236 -0.139366
vn 0.659322 -0.74986 -0.054806
vn 0.659322 -0.74986 -0.054806
vn -0.008375 -0.998113 0.060827
vn -0.008375 -0.998113 0.060827
vn -0.619802 -0.772229 0.139669
vn -0.619802 -0.772229 0.139669
vn -0.960233 -0.229712 0.158698
vn -0.960233 -0.229712 0.158697
vn -0.988831 0.008336 0.14881
vn -0.988831 0.008336 0.14881
vn 0.002815 0.998196 -0.059967
vn 0.00282 0.998195 -0.059993
vn 0.955443 -0.033888 -0.293224
vn 0.95797 -0.031932 -0.285085
vn 0.637145 -0.755649 -0.15179
vn 0.637145 -0.755649 -0.15179
vn -0.008093 -0.99804 0.062059
vn -0.008093 -0.99804 0.062059
vn -0.598957 -0.766788 0.230841
vn -0.598957 -0.766788 0.230841
vn -0.927937 -0.221283 0.299945
vn -0.927937 -0.221283 0.299945
vn -0.955573 0.017016 0.294264
vn -0.955573 0.017016 0.294265
vn 0.002724 0.998172 -0.060381
vn 0.002725 0.99817 -0.060408
vn 0.900846 -0.042174 -0.432086
vn 0.904573 -0.040246 -0.424415
vn 0.600737 -0.761176 -0.244391
vn 0.600737 -0.761176 -0.244391
vn -0.007631 -0.997969 0.063235
vn -0.007631 -0.997969 0.063235
vn -0.564731 -0.761593 0.317892
vn -0.564731 -0.761593 0.317892
vn -0.874912 -0.213235 0.43481
vn -0.874912 -0.213235 0.43481
vn -0.900969 0.025304 0.433146
vn -0.900969 0.025304 0.433146
vn 0.002572 0.998148 -0.060778
vn 0.00257 0.998146 -0.060804
vn 0.826125 -0.049884 -0.561275
vn 0.830968 -0.047994 -0.554245
vn 0.550909 -0.766316 -0.330542
vn 0.55091 -0.766316 -0.330542
vn -0.006998 -0.997904 0.06433
vn -0.006998 -0.997904 0.06433
vn -0.517888 -0.756762 0.398878
vn -0.517887 -0.756762 0.398878
vn -0.802343 -0.205747 0.56028
vn -0.802343 -0.205747 0.56028
vn -0.826239 0.033014 0.562352
vn -0.826239 0.033015 0.562352
vn 0.002363 0.998126 -0.061147
vn 0.002357 0.998124 -0.061173
vn 0.732949 -0.056844 -0.677904
vn 0.738802 -0.055001 -0.671675
vn 0.488776 -0.770957 -0.408318
vn 0.488776 -0.770957 -0.408318
vn -0.006209 -0.997845 0.065317
vn -0.006209 -0.997845 0.065317
vn -0.459479 -0.752398 0.471992
vn -0.459479 -0.752398 0.471992
vn -0.711851 -0.198988 0.673551
vn -0.711851 -0.198988 0.673552
vn -0.733052 0.039975 0.678997
vn -0.733052 0.039975 0.678997
vn 0.002101 0.998106 -0.061481
vn 0.002091 0.998105 -0.061506
vn 0.623401 -0.062899 -0.779368
vn 0.630132 -0.061112 -0.774079
vn 0.415723 -0.774995 -0.47598
vn 0.415723 -0.774995 -0.47598
vn -0.005281 -0.997794 0.066177
vn -0.005281 -0.997794 0.066177
vn -0.390806 -0.748601 0.5356
vn -0.390806 -0.748601 0.5356
vn -0.605458 -0.193107 0.772095
vn -0.605458 -0.193107 0.772095
vn -0.62349 0.046031 0.780475
vn -0.62349 0.046031 0.780475
vn 0.001792 0.998089 -0.061772
vn 0.001778 0.998087 -0.061795
vn 0.499927 -0.067913 -0.863401
vn 0.507386 -0.06619 -0.859173
vn 0.333384 -0.778338 -0.532019
vn 0.333384 -0.778338 -0.532019
vn -0.004235 -0.997751 0.066889
vn -0.004235 -0.997751 0.066889
vn -0.313402 -0.745457 0.58828
vn -0.313402 -0.745457 0.58828
vn -0.485539 -0.188237 0.853709
vn -0.48554 -0.188237 0.853709
vn -0.5 0.051046 0.86452
vn -0.5 0.051046 0.86452
vn 0.001443 0.998074 -0.062014
vn 0.001426 0.998073 -0.062035
vn 0.365286 -0.071775 -0.928124
vn 0.373305 -0.070122 -0.925055
vn 0.243597 -0.780916 -0.575179
vn 0.243597 -0.780916 -0.575179
vn -0.003094 -0.997719 0.067437
vn -0.003094 -0.997719 0.067437
vn -0.228997 -0.743036 0.628855
vn -0.228997 -0.743036 0.628855
vn -0.354775 -0.184486 0.91657
vn -0.354775 -0.184486 0.91657
vn -0.365341 0.054909 0.929253
vn -0.365341 0.054909 0.929253
vn 0.001062 0.998063 -0.062201
vn 0.001042 0.998062 -0.062219
vn 0.222485 -0.074399 -0.972093
vn 0.230885 -0.072819 -0.970252
vn 0.148369 -0.782666 -0.6045
vn 0.148369 -0.782666 -0.6045
vn -0.001885 -0.997697 0.067809
vn -0.001885 -0.997697 0.067809
vn -0.139477 -0.741391 0.656419
vn -0.139477 -0.741391 0.656419
vn -0.216085 -0.181937 0.959274
vn -0.216085 -0.181937 0.959274
vn -0.222521 0.057533 0.973229
vn -0.222521 0.057533 0.973229
vn 0.000657 0.998055 -0.06233
vn 0.000634 0.998055 -0.062344
vn 0.074714 -0.075726 -0.994326
vn 0.083308 -0.074222 -0.993756
vn 0.049828 -0.783549 -0.619329
vn 0.049828 -0.783549 -0.619329
vn -0.000633 -0.997685 0.067998
vn -0.000633 -0.997685 0.067998
vn -0.046841 -0.740559 0.670357
vn -0.046841 -0.740559 0.670357
vn -0.072569 -0.180649 0.980867
vn -0.072569 -0.180649 0.980867
vn -0.07473 0.05886 0.995465
vn -0.07473 0.05886 0.995465
vn 0.000237 0.998051 -0.062397
vn 0.000213 0.998051 -0.062408
vn -0.074726 -0.075726 -0.994325
vn -0.066129 -0.074298 -0.995041
vn -0.049828 -0.783549 -0.619328
vn -0.049828 -0.783549 -0.619328
vn 0.000633 -0.997685 0.067998
vn 0.000633 -0.997685 0.067998
vn 0.046841 -0.740559 0.670357
vn 0.046841 -0.740559 0.670357
vn 0.072569 -0.180649 0.980867
vn 0.072569 -0.180649 0.980867
vn 0.07473 0.05886 0.995465
vn 0.07473 0.05886 0.995465
vn -0.000187 0.998051 -0.0624
vn -0.000213 0.998051 -0.062408
vn -0.222497 -0.074399 -0.97209
vn -0.21409 -0.073047 -0.974079
vn -0.14837 -0.782665 -0.604502
vn -0.14837 -0.782665 -0.604502
vn 0.001885 -0.997697 0.067809
vn 0.001885 -0.997697 0.067809
vn 0.139477 -0.741391 0.656419
vn 0.139477 -0.741391 0.656419
vn 0.216085 -0.181937 0.959274
vn 0.216086 -0.181937 0.959274
vn 0.222521 0.057533 0.973229
vn 0.222521 0.057533 0.973229
vn -0.000608 0.998055 -0.062341
vn -0.000635 0.998055 -0.062344
vn -0.365298 -0.071775 -0.928119
vn -0.357269 -0.070497 -0.931337
vn -0.243598 -0.780915 -0.57518
vn -0.243598 -0.780915 -0.57518
vn 0.003094 -0.997719 0.067437
vn 0.003094 -0.997719 0.067437
vn 0.228998 -0.743035 0.628855
vn 0.228998 -0.743035 0.628855
vn 0.354775 -0.184486 0.91657
vn 0.354775 -0.184486 0.916569
vn 0.365341 0.054909 0.929253
vn 0.365341 0.054909 0.929253
vn -0.001015 0.998062 -0.06222
vn -0.001042 0.998062 -0.062219
vn -0.499938 -0.067913 -0.863394
vn -0.492466 -0.066703 -0.867772
vn -0.333384 -0.77834 -0.532017
vn -0.333384 -0.77834 -0.532017
vn 0.004235 -0.997751 0.066889
vn 0.004235 -0.997751 0.066889
vn 0.313402 -0.745457 0.588279
vn 0.313402 -0.745457 0.588279
vn 0.48554 -0.188237 0.853708
vn 0.48554 -0.188237 0.853708
vn 0.5 0.051046 0.86452
vn 0.5 0.051046 0.86452
vn -0.0014 0.998073 -0.062039
vn -0.001426 0.998073 -0.062034
vn -0.623411 -0.062898 -0.77936
vn -0.616663 -0.061752 -0.784801
vn -0.415723 -0.774995 -0.47598
vn -0.415723 -0.774995 -0.47598
vn 0.005281 -0.997794 0.066177
vn 0.005281 -0.997794 0.066177
vn 0.390806 -0.748601 0.5356
vn 0.390806 -0.748601 0.5356
vn 0.605458 -0.193107 0.772095
vn 0.605458 -0.193107 0.772095
vn 0.62349 0.046031 0.780475
vn 0.62349 0.046031 0.780475
vn -0.001753 0.998087 -0.061803
vn -0.001779 0.998087 -0.061795
vn -0.732958 -0.056843 -0.677895
vn -0.727085 -0.055754 -0.68428
vn -0.488775 -0.770958 -0.408317
vn -0.488775 -0.770958 -0.408317
vn 0.006209 -0.997845 0.065317
vn 0.006209 -0.997845 0.065317
vn 0.45948 -0.752397 0.471992
vn 0.45948 -0.752397 0.471992
vn 0.711852 -0.198988 0.673551
vn 0.711852 -0.198988 0.673551
vn 0.733052 0.039975 0.678997
vn 0.733052 0.039975 0.678997
vn -0.002067 0.998104 -0.061518
vn -0.002091 0.998105 -0.061505
vn -0.826132 -0.049883 -0.561264
vn -0.821264 -0.048842 -0.568453
vn -0.550909 -0.766317 -0.330541
vn -0.550909 -0.766317 -0.330541
vn 0.006998 -0.997904 0.06433
vn 0.006998 -0.997904 0.06433
vn 0.517891 -0.756759 0.398879
vn 0.517891 -0.756759 0.398879
vn 0.802343 -0.205747 0.560279
vn 0.802344 -0.205747 0.560279
vn 0.826239 0.033015 0.562352
vn 0.826239 0.033015 0.562352
vn -0.002335 0.998124 -0.061188
vn -0.002357 0.998124 -0.061172
vn -0.900851 -0.042174 -0.432075
vn -0.897098 -0.041171 -0.439909
vn -0.600737 -0.761175 -0.244391
vn -0.600737 -0.761175 -0.244391
vn 0.007631 -0.997969 0.063235
vn 0.007631 -0.997969 0.063235
vn 0.564731 -0.761593 0.317892
vn 0.564731 -0.761593 0.317892
vn 0.874912 -0.213235 0.43481
vn 0.874912 -0.213235 0.43481
vn 0.900969 0.025304 0.433146
vn 0.900969 0.025304 0.433146
vn -0.002551 0.998145 -0.060823
vn -0.00257 0.998146 -0.060804
vn -0.955447 -0.033887 -0.293212
vn -0.952892 -0.032912 -0.301517
vn -0.637145 -0.75565 -0.151789
vn -0.637145 -0.75565 -0.151789
vn 0.008093 -0.99804 0.062059
vn 0.008093 -0.99804 0.062059
vn 0.598957 -0.766788 0.23084
vn 0.598957 -0.766788 0.23084
vn 0.927937 -0.221283 0.299945
vn 0.927937 -0.221283 0.299945
vn 0.955573 0.017016 0.294264
vn 0.955573 0.017016 0.294264
vn -0.002709 0.998169 -0.060429
vn -0.002726 0.99817 -0.060408
vn -0.988699 -0.025208 -0.147777
vn -0.987401 -0.024251 -0.156371
vn -0.659321 -0.749862 -0.054805
vn -0.659321 -0.749862 -0.054805
vn 0.008375 -0.998113 0.060827
vn 0.008375 -0.998113 0.060827
vn 0.619803 -0.772228 0.139669
vn 0.619803 -0.772228 0.139669
vn 0.960233 -0.229712 0.158698
vn 0.960233 -0.229712 0.158697
vn 0.988831 0.008336 0.14881
vn 0.988831 0.008336 0.14881
vn -0.002807 0.998193 -0.060017
vn -0.00282 0.998195 -0.059993
f 3/3/3 2/2/2 1/1/1
f 576/576/576 3/3/3 1/1/1
f 3/3/3 4/4/4 2/2/2
f 576/576/576 1/1/1 575/575/575
f 4/4/4 29/29/29 2/2/2
f 562/562/562 576/576/576 575/575/575
f 4/4/4 30/30/30 29/29/29
f 562/562/562 575/575/575 561/561/561
f 30/30/30 43/43/43 29/29/29
f 548/548/548 562/562/562 561/561/561
f 30/30/30 44/44/44 43/43/43
f 548/548/548 561/561/561 547/547/547
f 44/44/44 57/57/57 43/43/43
f 534/534/534 548/548/548 547/547/547
f 44/44/44 58/58/58 57/57/57
f 534/534/534 547/547/547 533/533/533
f 58/58/58 71/71/71 57/57/57
f 520/520/520 534/534/534 533/533/533
f 58/58/58 72/72/72 71/71/71
f 520/520/520 533/533/533 519/519/519
f 72/72/72 85/85/85 71/71/71
f 506/506/506 520/520/520 519/519/519
f 72/72/72 86/86/86 85/85/85
f 506/506/506 519/519/519 505/505/505
f 86/86/86 99/99/99 85/85/85
f 492/492/492 506/506/506 505/505/505
f 86/86/86 100/100/100 99/99/99
f 492/492/492 505/505/505 491/491/491
f 100/100/100 113/113/113 99/99/99
f 478/478/478 492/492/492 491/491/491
f 100/100/100 114/114/114 113/113/113
f 478/478/478 491/491/491 477/477/477
f 114/114/114 127/127/127 113/113/113
f 464/464/464 478/478/478 477/477/477
f 114/114/114 128/128/128 127/127/127
f 464/464/464 477/477/477 463/463/463
f 128/128/128 141/141/141 127/127/127
f 450/450/450 464/464/464 463/463/463
f 128/128/128 142/142/142 141/141/141
f 450/450/450 463/463/463 449/449/449
f 142/142/142 155/155/155 141/141/141
f 436/436/436 450/450/450 449/449/449
f 142/142/142 156/156/156 155/155/155
f 436/436/436 449/449/449 435/435/435
f 156/156/156 169/169/169 155/155/155
f 422/422/422 436/436/436 435/435/435
f 156/156/156 170/170/170 169/169/169
f 422/422/422 435/435/435 421/421/421
f 170/170/170 183/183/183 169/169/169
f 408/408/408 422/422/422 421/421/421
f 170/170/170 184/184/184 183/183/183
f 408/408/408 421/421/421 407/407/407
f 184/184/184 197/197/197 183/183/183
f 394/394/394 408/408/408 407/407/407
f 184/184/184 198/198/198 197/197/197
f 394/394/394 407/407/407 393/393/393
f 198/198/198 211/211/211 197/197/197
f 380/380/380 394/394/394 393/393/393
f 198/198/198 212/212/212 211/211/211
f 380/380/380 393/393/393 379/379/379
f 212/212/212 225/225/225 211/211/211
f 366/366/366 380/380/380 379/379/379
f 212/212/212 226/226/226 225/225/225
f 366/366/366 379/379/379 365/365/365
f 226/226/226 239/239/239 225/225/225
f 352/352/352 366/366/366 365/365/365
f 226/226/226 240/240/240 239/239/239
f 352/352/352 365/365/365 351/351/351
f 240/240/240 253/253/253 239/239/239
f 338/338/338 352/352/352 351/351/351
f 240/240/240 254/254/254 253/253/253
f 338/338/338 351/351/351 337/337/337
f 254/254/254 267/267/267 253/253/253
f 324/324/324 338/338/338 337/337/337
f 254/254/254 268/268/268 267/267/267
f 324/324/324 337/337/337 323/323/323
f 268/268/268 281/281/281 267/267/267
f 310/310/310 324/324/324 323/323/323
f 268/268/268 282/282/282 281/281/281
f 310/310/310 323/323/323 309/309/309
f 282/282/282 295/295/295 281/281/281
f 296/296/296 310/310/310 309/309/309
f 282/282/282 296/296/296 295/295/295
f 296/296/296 309/309/309 295/295/295
f 7/7/7 6/6/6 5/5/5
f 578/578/578 7/7/7 5/5/5
f 7/7/7 8/8/8 6/6/6
f 578/578/578 5/5/5 577/577/577
f 8/8/8 31/31/31 6/6/6
f 564/564/564 578/578/578 577/577/577
f 8/8/8 32/32/32 31/31/31
f 564/564/564 577/577/577 563/563/563
f 32/32/32 45/45/45 31/31/31
f 550/550/550 564/564/564 563/563/563
f 32/32/32 46/46/46 45/45/45
f 550/550/550 563/563/563 549/549/549
f 46/46/46 59/59/59 45/45/45
f 536/536/536 550/550/550 549/549/549
f 46/46/46 60/60/60 59/59/59
f 536/536/536 549/549/549 535/535/535
f 60/60/60 73/73/73 59/59/59
f 522/522/522 536/536/536 535/535/535
f 60/60/60 74/74/74 73/73/73
f 522/522/522 535/535/535 521/521/521
f 74/74/74 87/87/87 73/73/73
f 508/508/508 522/522/522 521/521/521
f 74/74/74 88/88/88 87/87/87
f 508/508/508 521/521/521 507/507/507
f 88/88/88 101/101/101 87/87/87
f 494/494/494 508/508/508 507/507/507
f 88/88/88 102/102/102 101/101/101
f 494/494/494 507/507/507 493/493/493
f 102/102/102 115/115/115 101/101/101
f 480/480/480 494/494/494 493/493/493
f 102/102/102 116/116/116 115/115/115
f 480/480/480 493/493/493 479/479/479
f 116/116/116 129/129/129 115/115/115
f 466/466/466 480/480/480 479/479/479
f 116/116/116 130/130/130 129/129/129
f 466/466/466 479/479/479 465/465/465
f 130/130/130 143/143/143 129/129/129
f 452/452/452 466/466/466 465/465/465
f 130/130/130 144/144/144 143/143/143
f 452/452/452 465/465/465 451/451/451
f 144/144/144 157/157/157 143/143/143
f 438/438/438 452/452/452 451/451/451
f 144/144/144 158/158/158 157/157/157
f 438/438/438 451/451/451 437/437/437
f 158/158/158 171/171/171 157/157/157
f 424/424/424 438/438/438 437/437/437
f 158/158/158 172/172/172 171/171/171
f 424/424/424 437/437/437 423/423/423
f 172/172/172 185/185/185 171/171/171
f 410/410/410 424/424/424 423/423/423
f 172/172/172 186/186/186 185/185/185
f 410/410/410 423/423/423 409/409/409
f 186/186/186 199/199/199 185/185/185
f 396/396/396 410/410/410 409/409/409
f 186/186/186 200/200/200 199/199/199
f 396/396/396 409/409/409 395/395/395
f 200/200/200 213/213/213 199/199/199
f 382/382/382 396/396/396 395/395/395
f 200/200/200 214/214/214 213/213/213
f 382/382/382 395/395/395 381/381/381
f 214/214/214 227/227/227 213/213/213
f 368/368/368 382/382/382 381/381/381
f 214/214/214 228/228/228 227/227/227
f 368/368/368 381/381/381 367/367/367
f 228/228/228 241/241/241 227/227/227
f 354/354/354 368/368/368 367/367/367
f 228/228/228 242/242/242 241/241/241
f 354/354/354 367/367/367 353/353/353
f 242/242/242 255/255/255 241/241/241
f 340/340/340 354/354/354 353/353/353
f 242/242/242 256/256/256 255/255/255
f 340/340/340 353/353/353 339/339/339
f 256/256/256 269/269/269 255/255/255
f 326/326/326 340/340/340 339/339/339
f 256/256/256 270/270/270 269/269/269
f 326/326/326 339/339/339 325/325/325
f 270/270/270 283/283/283 269/269/269
f 312/312/312 326/326/326 325/325/325
f 270/270/270 284/284/284 283/283/283
f 312/312/312 325/325/325 311/311/311
f 284/284/284 297/297/297 283/283/283
f 298/298/298 312/312/312 311/311/311
f 284/284/284 298/298/298 297/297/297
f 298/298/298 311/311/311 297/297/297
f 11/11/11 10/10/10 9/9/9
f 580/580/580 11/11/11 9/9/9
f 11/11/11 12/12/12 10/10/10
f 580/580/580 9/9/9 579/579/579
f 12/12/12 33/33/33 10/10/10
f 566/566/566 580/580/580 579/579/579
f 12/12/12 34/34/34 33/33/33
f 566/566/566 579/579/579 565/565/565
f 34/34/34 47/47/47 33/33/33
f 552/552/552 566/566/566 565/565/565
f 34/34/34 48/48/48 47/47/47
f 552/552/552 565/565/565 551/551/551
f 48/48/48 61/61/61 47/47/47
f 538/538/538 552/552/552 551/551/551
f 48/48/48 62/62/62 61/61/61
f 538/538/538 551/551/551 537/537/537
f 62/62/62 75/75/75 61/61/61
f 524/524/524 538/538/538 537/537/537
f 62/62/62 76/76/76 75/75/75
f 524/524/524 537/537/537 523/523/523
f 76/76/76 89/89/89 75/75/75
f 510/510/510 524/524/524 523/523/523
f 76/76/76 90/90/90 89/89/89
f 510/510/510 523/523/523 509/509/509
f 90/90/90 103/103/103 89/89/89
f 496/496/496 510/510/510 509/509/509
f 90/90/90 104/104/104 103/103/103
f 496/496/496 509/509/509 495/495/495
f 104/104/104 117/117/117 103/103/103
f 482/482/482 496/496/496 495/495/495
f 104/104/104 118/118/118 117/117/117
f 482/482/482 495/495/495 481/481/481
f 118/118/118 131/131/131 117/117/117
f 468/468/468 482/482/482 481/481/481
f 118/118/118 132/132/132 131/131/131
f 468/468/468 481/481/481 467/467/467
f 132/132/132 145/145/145 131/131/131
f 454/454/454 468/468/468 467/467/467
f 132/132/132 146/146/146 145/145/145
f 454/454/454 467/467/467 453/453/453
f 146/146/146 159/159/159 145/145/145
f 440/440/440 454/454/454 453/453/453
f 146/146/146 160/160/160 159/159/159
f 440/440/440 453/453/453 439/439/439
f 160/160/160 173/173/173 159/159/159
f 426/426/426 440/440/440 439/439/439
f 160/160/160 174/174/174 173/173/173
f 426/426/426 439/439/439 425/425/425
f 174/174/174 187/187/187 173/173/173
f 412/412/412 426/426/426 425/425/425
f 174/174/174 188/188/188 187/187/187
f 412/412/412 425/425/425 411/411/411
f 188/188/188 201/201/201 187/187/187
f 398/398/398 412/412/412 411/411/411
f 188/188/188 202/202/202 201/201/201
f 398/398/398 411/411/411 397/397/397
f 202/202/202 215/215/215 201/201/201
f 384/384/384 398/398/398 397/397/397
f 202/202/202 216/216/216 215/215/215
f 384/384/384 397/397/397 383/383/383
f 216/216/216 229/229/229 215/215/215
f 370/370/370 384/384/384 383/383/383
f 216/216/216 230/230/230 229/229/229
f 370/370/370 383/383/383 369/369/369
f 230/230/230 243/243/243 229/229/229
f 356/356/356 370/370/370 369/369/369
f 230/230/230 244/244/244 243/243/243
f 356/356/356 369/369/369 355/355/355
f 244/244/244 257/257/257 243/243/243
f 342/342/342 356/356/356 355/355/355
f 244/244/244 258/258/258 257/257/257
f 342/342/342 355/355/355 341/341/341
f 258/258/258 271/271/271 257/257/257
f 328/328/328 342/342/342 341/341/341
f 258/258/258 272/272/272 271/271/271
f 328/328/328 341/341/341 327/327/327
f 272/272/272 285/285/285 271/271/271
f 314/314/314 328/328/328 327/327/327
f 272/272/272 286/286/286 285/285/285
f 314/314/314 327/327/327 313/313/313
f 286/286/286 299/299/299 285/285/285
f 300/300/300 314/314/314 313/313/313
f 286/286/286 300/300/300 299/299/299
f 300/300/300 313/313/313 299/299/299
f 15/15/15 14/14/14 13/13/13
f 582/582/582 15/15/15 13/13/13
f 15/15/15 16/16/16 14/14/14
f 582/582/582 13/13/13 581/581/581
f 16/16/16 35/35/35 14/14/14
f 568/568/568 582/582/582 581/581/581
f 16/16/16 36/36/36 35/35/35
f 568/568/568 581/581/581 567/567/567
f 36/36/36 49/49/49 35/35/35
f 554/554/554 568/568/568 567/567/567
f 36/36/36 50/50/50 49/49/49
f 554/554/554 567/567/567 553/553/553
f 50/50/50 63/63/63 49/49/49
f 540/540/540 554/554/554 553/553/553
f 50/50/50 64/64/64 63/63/63
f 540/540/540 553/553/553 539/539/539
f 64/64/64 77/77/77 63/63/63
f 526/526/526 540/540/540 539/539/539
f 64/64/64 78/78/78 77/77/77
f 526/526/526 539/539/539 525/525/525
f 78/78/78 91/91/91 77/77/77
f 512/512/512 526/526/526 525/525/525
f 78/78/78 92/92/92 91/91/91
f 512/512/512 525/525/525 511/511/511
f 92/92/92 105/105/105 91/91/91
f 498/498/498 512/512/512 511/511/511
f 92/92/92 106/106/106 105/105/105
f 498/498/498 511/511/511 497/497/497
f 106/106/106 119/119/119 105/105/105
f 484/484/484 498/498/498 497/497/497
f 106/106/106 120/120/120 119/119/119
f 484/484/484 497/497/497 483/483/483
f 120/120/120 133/133/133 119/119/119
f 470/470/470 484/484/484 483/483/483
f 120/120/120 134/134/134 133/133/133
f 470/470/470 483/483/483 469/469/469
f 134/134/134 147/147/147 133/133/133
f 456/456/456 470/470/470 469/469/469
f 134/134/134 148/148/148 147/147/147
f 456/456/456 469/469/469 455/455/455
f 148/148/148 161/161/161 147/147/147
f 442/442/442 456/456/456 455/455/455
f 148/148/148 162/162/162 161/161/161
f 442/442/442 455/455/455 441/441/441
f 162/162/162 175/175/175 161/161/161
f 428/428/428 442/442/442 441/441/441
f 162/162/162 176/176/176 175/175/175
f 428/428/428 441/441/441 427/427/427
f 176/176/176 189/189/189 175/175/175
f 414/414/414 428/428/428 427/427/427
f 176/176/176 190/190/190 189/189/189
f 414/414/414 427/427/427 413/413/413
f 190/190/190 203/203/203 189/189/189
f 400/400/400 414/414/414 413/413/413
f 190/190/190 204/204/204 203/203/203
f 400/400/400 413/413/413 399/399/399
f 204/204/204 217/217/217 203/203/203
f 386/386/386 400/400/400 399/399/399
f 204/204/204 218/218/218 217/217/217
f 386/386/386 399/399/399 385/385/385
f 218/218/218 231/231/231 217/217/217
f 372/372/372 386/386/386 385/385/385
f 218/218/218 232/232/232 231/231/231
f 372/372/372 385/385/385 371/371/371
f 232/232/232 245/245/245 231/231/231
f 358/358/358 372/372/372 371/371/371
f 232/232/232 246/246/246 245/245/245
f 358/358/358 371/371/371 357/357/357
f 246/246/246 259/259/259 245/245/245
f 344/344/344 358/358/358 357/357/357
f 246/246/246 260/260/260 259/259/259
f 344/344/344 357/357/357 343/343/343
f 260/260/260 273/273/273 259/259/259
f 330/330/330 344/344/344 343/343/343
f 260/260/260 274/274/274 273/273/273
f 330/330/330 343/343/343 329/329/329
f 274/274/274 287/287/287 273/273/273
f 316/316/316 330/330/330 329/329/329
f 274/274/274 288/288/288 287/287/287
f 316/316/316 329/329/329 315/315/315
f 288/288/288 301/301/301 287/287/287
f 302/302/302 316/316/316 315/315/315
f 288/288/288 302/302/302 301/301/301
f 302/302/302 315/315/315 301/301/301
f 19/19/19 18/18/18 17/17/17
f 584/584/584 19/19/19 17/17/17
f 19/19/19 20/20/20 18/18/18
f 584/584/584 17/17/17 583/583/583
f 20/20/20 37/37/37 18/18/18
f 570/570/570 584/584/584 583/583/583
f 20/20/20 38/38/38 37/37/37
f 570/570/570 583/583/583 569/569/569
f 38/38/38 51/51/51 37/37/37
f 556/556/556 570/570/570 569/569/569
f 38/38/38 52/52/52 51/51/51
f 556/556/556 569/569/569 555/555/555
f 52/52/52 65/65/65 51/51/51
f 542/542/542 556/556/556 555/555/555
f 52/52/52 66/66/66 65/65/65
f 542/542/542 555/555/555 541/541/541
f 66/66/66 79/79/79 65/65/65
f 528/528/528 542/542/542 541/541/541
f 66/66/66 80/80/80 79/79/79
f 528/528/528 541/541/541 527/527/527
f 80/80/80 93/93/93 79/79/79
f 514/514/514 528/528/528 527/527/527
f 80/80/80 94/94/94 93/93/93
f 514/514/514 527/527/527 513/513/513
f 94/94/94 107/107/107 93/93/93
f 500/500/500 514/514/514 513/513/513
f 94/94/94 108/108/108 107/107/107
f 500/500/500 513/513/513 499/499/499
f 108/108/108 121/121/121 107/107/107
f 486/486/486 500/500/500 499/499/499
f 108/108/108 122/122/122 121/121/121
f 486/486/486 499/499/499 485/485/485
f 122/122/122 135/135/135 121/121/121
f 472/472/472 486/486/486 485/485/485
f 122/122/122 136/136/136 135/135/135
f 472/472/472 485/485/485 471/471/471
f 136/136/136 149/149/149 135/135/135
f 458/458/458 472/472/472 471/471/471
f 136/136/136 150/150/150 149/149/149
f 458/458/458 471/471/471 457/457/457
f 150/150/150 163/163/163 149/149/149
f 444/444/444 458/458/458 457/457/457
f 150/150/150 164/164/164 163/163/163
f 444/444/444 457/457/457 443/443/443
f 164/164/164 177/177/177 163/163/163
f 430/430/430 444/444/444 443/443/443
f 164/164/164 178/178/178 177/177/177
f 430/430/430 443/443/443 429/429/429
f 178/178/178 191/191/191 177/177/177
f 416/416/416 430/430/430 429/429/429
f 178/178/178 192/192/192 191/191/191
f 416/416/416 429/429/429 415/415/415
f 192/192/192 205/205/205 191/191/191
f 402/402/402 416/416/416 415/415/415
f 192/192/192 206/206/206 205/205/205
f 402/402/402 415/415/415 401/401/401
f 206/206/206 219/219/219 205/205/205
f 388/388/388 402/402/402 401/401/401
f 206/206/206 220/220/220 219/219/219
f 388/388/388 401/401/401 387/387/387
f 220/220/220 233/233/233 219/219/219
f 374/374/374 388/388/388 387/387/387
f 220/220/220 234/234/234 233/233/233
f 374/374/374 387/387/387 373/373/373
f 234/234/234 247/247/247 233/233/233
f 360/360/360 374/374/374 373/373/373
f 234/234/234 248/248/248 247/247/247
f 360/360/360 373/373/373 359/359/359
f 248/248/248 261/261/261 247/247/247
f 346/346/346 360/360/360 359/359/359
f 248/248/248 262/262/262 261/261/261
f 346/346/346 359/359/359 345/345/345
f 262/262/262 275/275/275 261/261/261
f 332/332/332 346/346/346 345/345/345
f 262/262/262 276/276/276 275/275/275
f 332/332/332 345/345/345 331/331/331
f 276/276/276 289/289/289 275/275/275
f 318/318/318 332/332/332 331/331/331
f 276/276/276 290/290/290 289/289/289
f 318/318/318 331/331/331 317/317/317
f 290/290/290 303/303/303 289/289/289
f 304/304/304 318/318/318 317/317/317
f 290/290/290 304/304/304 303/303/303
f 304/304/304 317/317/317 303/303/303
f 23/23/23 22/22/22 21/21/21
f 586/586/586 23/23/23 21/21/21
f 23/23/23 24/24/24 22/22/22
f 586/586/586 21/21/21 585/585/585
f 24/24/24 39/39/39 22/22/22
f 572/572/572 586/586/586 585/585/585
f 24/24/24 40/40/40 39/39/39
f 572/572/572 585/585/585 571/571/571
f 40/40/40 53/53/53 39/39/39
f 558/558/558 572/572/572 571/571/571
f 40/40/40 54/54/54 53/53/53
f 558/558/558 571/571/571 557/557/557
f 54/54/54 67/67/67 53/53/53
f 544/544/544 558/558/558 557/557/557
f 54/54/54 68/68/68 67/67/67
f 544/544/544 557/557/557 543/543/543
f 68/68/68 81/81/81 67/67/67
f 530/530/530 544/544/544 543/543/543
f 68/68/68 82/82/82 81/81/81
f 530/530/530 543/543/543 529/529/529
f 82/82/82 95/95/95 81/81/81
f 516/516/516 530/530/530 529/529/529
f 82/82/82 96/96/96 95/95/95
f 516/516/516 529/529/529 515/515/515
f 96/96/96 109/109/109 95/95/95
f 502/502/502 516/516/516 515/515/515
f 96/96/96 110/110/110 109/109/109
f 502/502/502 515/515/515 501/501/501
f 110/110/110 123/123/123 109/109/109
f 488/488/488 502/502/502 501/501/501
f 110/110/110 124/124/124 123/123/123
f 488/488/488 501/501/501 487/487/487
f 124/124/124 137/137/137 123/123/123
f 474/474/474 488/488/488 487/487/487
f 124/124/124 138/138/138 137/137/137
f 474/474/474 487/487/487 473/473/473
f 138/138/138 151/151/151 137/137/137
f 460/460/460 474/474/474 473/473/473
f 138/138/138 152/152/152 151/151/151
f 460/460/460 473/473/473 459/459/459
f 152/152/152 165/165/165 151/151/151
f 446/446/446 460/460/460 459/459/459
f 152/152/152 166/166/166 165/165/165
f 446/446/446 459/459/459 445/445/445
f 166/166/166 179/179/179 165/165/165
f 432/432/432 446/446/446 445/445/445
f 166/166/166 180/180/180 179/179/179
f 432/432/432 445/445/445 431/431/431
f 180/180/180 193/193/193 179/179/179
f 418/418/418 432/432/432 431/431/431
f 180/180/180 194/194/194 193/193/193
f 418/418/418 431/431/431 417/417/417
f 194/194/194 207/207/207 193/193/193
f 404/404/404 418/418/418 417/417/417
f 194/194/194 208/208/208 207/207/207
f 404/404/404 417/417/417 403/403/403
f 208/208/208 221/221/221 207/207/207
f 390/390/390 404/404/404 403/403/403
f 208/208/208 222/222/222 221/221/221
f 390/390/390 403/403/403 389/389/389
f 222/222/222 235/235/235 221/221/221
f 376/376/376 390/390/390 389/389/389
f 222/222/222 236/236/236 235/235/235
f 376/376/376 389/389/389 375/375/375
f 236/236/236 249/249/249 235/235/235
f 362/362/362 376/376/376 375/375/375
f 236/236/236 250/250/250 249/249/249
f 362/362/362 375/375/375 361/361/361
f 250/250/250 263/263/263 249/249/249
f 348/348/348 362/362/362 361/361/361
f 250/250/250 264/264/264 263/263/263
f 348/348/348 361/361/361 347/347/347
f 264/264/264 277/277/277 263/263/263
f 334/334/334 348/348/348 347/347/347
f 264/264/264 278/278/278 277/277/277
f 334/334/334 347/347/347 333/333/333
f 278/278/278 291/291/291 277/277/277
f 320/320/320 334/334/334 333/333/333
f 278/278/278 292/292/292 291/291/291
f 320/320/320 333/333/333 319/319/319
f 292/292/292 305/305/305 291/291/291
f 306/306/306 320/320/320 319/319/319
f 292/292/292 306/306/306 305/305/305
f 306/306/306 319/319/319 305/305/305
f 27/27/27 26/26/26 25/25/25
f 588/588/588 27/27/27 25/25/25
f 27/27/27 28/28/28 26/26/26
f 588/588/588 25/25/25 587/587/587
f 28/28/28 41/41/41 26/26/26
f 574/574/574 588/588/588 587/587/587
f 28/28/28 42/42/42 41/41/41
f 574/574/574 587/587/587 573/573/573
f 42/42/42 55/55/55 41/41/41
f 560/560/560 574/574/574 573/573/573
f 42/42/42 56/56/56 55/55/55
f 560/560/560 573/573/573 559/559/559
f 56/56/56 69/69/69 55/55/55
f 546/546/546 560/560/560 559/559/559
f 56/56/56 70/70/70 69/69/69
f 546/546/546 559/559/559 545/545/545
f 70/70/70 83/83/83 69/69/69
f 532/532/532 546/546/546 545/545/545
f 70/70/70 84/84/84 83/83/83
f 532/532/532 545/545/545 531/531/531
f 84/84/84 97/97/97 83/83/83
f 518/518/518 532/532/532 531/531/531
f 84/84/84 98/98/98 97/97/97
f 518/518/518 531/531/531 517/517/517
f 98/98/98 111/111/111 97/97/97
f 504/504/504 518/518/518 517/517/517
f 98/98/98 112/112/112 111/111/111
f 504/504/504 517/517/517 503/503/503
f 112/112/112 125/125/125 111/111/111
f 490/490/490 504/504/504 503/503/503
f 112/112/112 126/126/126 125/125/125
f 490/490/490 503/503/503 489/489/489
f 126/126/126 139/139/139 125/125/125
f 476/476/476 490/490/490 489/489/489
f 126/126/126 140/140/140 139/139/139
f 476/476/476 489/489/489 475/475/475
f 140/140/140 153/153/153 139/139/139
f 462/462/462 476/476/476 475/475/475
f 140/140/140 154/154/154 153/153/153
f 462/462/462 475/475/475 461/461/461
f 154/154/154 167/167/167 153/153/153
f 448/448/448 462/462/462 461/461/461
f 154/154/154 168/168/168 167/167/167
f 448/448/448 461/461/461 447/447/447
f 168/168/168 181/181/181 167/167/167
f 434/434/434 448/448/448 447/447/447
f 168/168/168 182/182/182 181/181/181
f 434/434/434 447/447/447 433/433/433
f 182/182/182 195/195/195 181/181/181
f 420/420/420 434/434/434 433/433/433
f 182/182/182 196/196/196 195/195/195
f 420/420/420 433/433/433 419/419/419
f 196/196/196 209/209/209 195/195/195
f 406/406/406 420/420/420 419/419/419
f 196/196/196 210/210/210 209/209/209
f 406/406/406 419/419/419 405/405/405
f 210/210/210 223/223/223 209/209/209
f 392/392/392 406/406/406 405/405/405
f 210/210/210 224/224/224 223/223/223
f 392/392/392 405/405/405 391/391/391
f 224/224/224 237/237/237 223/223/223
f 378/378/378 392/392/392 391/391/391
f 224/224/224 238/238/238 237/237/237
f 378/378/378 391/391/391 377/377/377
f 238/238/238 251/251/251 237/237/237
f 364/364/364 378/378/378 377/377/377
f 238/238/238 252/252/252 251/251/251
f 364/364/364 377/377/377 363/363/363
f 252/252/252 265/265/265 251/251/251
f 350/350/350 364/364/364 363/363/363
f 252/252/252 266/266/266 265/265/265
f 350/350/350 363/363/363 349/349/349
f 266/266/266 279/279/279 265/265/265
f 336/336/336 350/350/350 349/349/349
f 266/266/266 280/280/280 279/279/279
f 336/336/336 349/349/349 335/335/335
f 280/280/280 293/293/293 279/279/279
f 322/322/322 336/336/336 335/335/335
f 280/280/280 294/294/294 293/293/293
f 322/322/322 335/335/335 321/321/321
f 294/294/294 307/307/307 293/293/293
f 308/308/308 322/322/322 321/321/321
f 294/294/294 308/308/308 307/307/307
f 308/308/308 321/321/321 307/307/307
