# VPXTOOL table OBJ file
# VPXTOOL OBJ file
# numVerts: 260 numFaces: 304
o p_base_FL4
v -0.7069 2.1979 -0.7069
v -0.949 2.1394 -0.6341
v -0.8071 2.1394 -0.8071
v -0.8313 2.1979 -0.5554
v -1.0545 2.1394 -0.4368
v -0.5554 2.1979 -0.8313
v -0.6341 2.1394 -0.949
v -0.9237 2.1979 -0.3826
v -1.1194 2.1394 -0.2227
v -0.9805 2.1979 -0.195
v -1.1414 2.1394 0
v -0.9998 2.1979 -0
v -1.1194 2.1394 0.2227
v -0.9805 2.1979 0.195
v -1.0545 2.1394 0.4368
v -0.9237 2.1979 0.3826
v -0.949 2.1394 0.6341
v -0.8313 2.1979 0.5554
v -0.8071 2.1394 0.8071
v -0.7069 2.1979 0.7069
v -0.6341 2.1394 0.949
v -0.5554 2.1979 0.8313
v -0.4368 2.1394 1.0545
v -0.3826 2.1979 0.9237
v -0.2227 2.1394 1.1194
v -0.195 2.1979 0.9805
v 0 2.1394 1.1414
v 0 2.1979 -0
v 0 2.1979 0.9998
v 0.2227 2.1394 1.1194
v 0.195 2.1979 0.9805
v 0.4368 2.1394 1.0545
v 0.3826 2.1979 0.9237
v 0.6341 2.1394 0.949
v 0.5554 2.1979 0.8313
v 0.8071 2.1394 0.8071
v 0.7069 2.1979 0.7069
v 0.949 2.1394 0.6341
v 0.8313 2.1979 0.5554
v 1.0545 2.1394 0.4368
v 0.9237 2.1979 0.3826
v 1.1194 2.1394 0.2227
v 0.9805 2.1979 0.195
v 1.1414 2.1394 -0
v 0.9998 2.1979 -0
v 1.1194 2.1394 -0.2227
v 0.9805 2.1979 -0.195
v 1.0545 2.1394 -0.4368
v 0.9237 2.1979 -0.3826
v 0.949 2.1394 -0.6341
v 0.8313 2.1979 -0.5554
v 0.8071 2.1394 -0.8071
v 0.7069 2.1979 -0.7069
v 0.6341 2.1394 -0.949
v 0.5554 2.1979 -0.8313
v 0.4368 2.1394 -1.0545
v 0.3826 2.1979 -0.9237
v 0.2227 2.1394 -1.1194
v 0.195 2.1979 -0.9805
v -0 2.1394 -1.1414
v 0 2.1979 -0.9998
v -0.2227 2.1394 -1.1194
v -0.195 2.1979 -0.9805
v -0.4368 2.1394 -1.0545
v -0.3826 2.1979 -0.9237
v -0.8485 -0.006 0.8485
v -0.8485 1.9979 0.8485
v -0.6667 1.9979 0.9978
v -0.6667 -0.006 0.9978
v -0.4592 1.9979 1.1087
v -0.4592 -0.006 1.1087
v -0.2341 -0.006 1.1769
v -0.2341 1.9979 1.1769
v 0 -0.006 1.2
v 0 1.9979 1.2
v 0.2341 -0.006 1.1769
v 0.2341 1.9979 1.1769
v 0.4592 1.9979 1.1087
v 0.4592 -0.006 1.1087
v 0.6667 1.9979 0.9978
v 0.6667 -0.006 0.9978
v 0.8485 1.9979 0.8485
v 0.8485 -0.006 0.8485
v 0.8485 -0.006 0.8485
v 0.8485 1.9979 0.8485
v 0.9978 1.9979 0.6667
v 0.9978 -0.006 0.6667
v 0.8071 2.1394 0.8071
v 1.1087 1.9979 0.4592
v 1.1087 -0.006 0.4592
v 1.1769 -0.006 0.2341
v 0.949 2.1394 0.6341
v 1.1769 1.9979 0.2341
v 1.2 -0.006 -0
v 1.0545 2.1394 0.4368
v 1.2 1.9979 -0
v 1.1769 -0.006 -0.2341
v 1.1194 2.1394 0.2227
v 1.1769 1.9979 -0.2341
v 1.1414 2.1394 -0
v 1.1194 2.1394 -0.2227
v 1.1087 1.9979 -0.4592
v 1.1087 -0.006 -0.4592
v 1.0545 2.1394 -0.4368
v 0.9978 1.9979 -0.6667
v 0.9978 -0.006 -0.6667
v 0.949 2.1394 -0.6341
v 0.8485 1.9979 -0.8485
v 0.8485 -0.006 -0.8485
v 0.8071 2.1394 -0.8071
v 0.8485 -0.006 -0.8485
v 0.8485 1.9979 -0.8485
v 0.6667 1.9979 -0.9978
v 0.6667 -0.006 -0.9978
v 0.8071 2.1394 -0.8071
v 0.4592 1.9979 -1.1087
v 0.4592 -0.006 -1.1087
v 0.2341 -0.006 -1.1769
v 0.6341 2.1394 -0.949
v 0.2341 1.9979 -1.1769
v -0 -0.006 -1.2
v 0.4368 2.1394 -1.0545
v -0 1.9979 -1.2
v -0.2341 -0.006 -1.1769
v 0.2227 2.1394 -1.1194
v -0.2341 1.9979 -1.1769
v -0 2.1394 -1.1414
v -0.2227 2.1394 -1.1194
v -0.4592 1.9979 -1.1087
v -0.4592 -0.006 -1.1087
v -0.4368 2.1394 -1.0545
v -0.6667 1.9979 -0.9978
v -0.6667 -0.006 -0.9978
v -0.6341 2.1394 -0.949
v -0.8485 1.9979 -0.8485
v -0.8485 -0.006 -0.8485
v -0.8071 2.1394 -0.8071
v -0.8485 -0.006 -0.8485
v -0.8485 1.9979 -0.8485
v -0.9978 1.9979 -0.6667
v -0.9978 -0.006 -0.6667
v -0.8071 2.1394 -0.8071
v -1.1087 1.9979 -0.4592
v -1.1087 -0.006 -0.4592
v -1.1769 -0.006 -0.2341
v -0.949 2.1394 -0.6341
v -1.1769 1.9979 -0.2341
v -1.2 -0.006 0
v -1.0545 2.1394 -0.4368
v -1.2 1.9979 0
v -1.1769 -0.006 0.2341
v -1.1194 2.1394 -0.2227
v -1.1769 1.9979 0.2341
v -1.1414 2.1394 0
v -1.1194 2.1394 0.2227
v -1.1087 1.9979 0.4592
v -1.1087 -0.006 0.4592
v -1.0545 2.1394 0.4368
v -0.9978 1.9979 0.6667
v -0.9978 -0.006 0.6667
v -0.949 2.1394 0.6341
v -0.8485 1.9979 0.8485
v -0.8485 -0.006 0.8485
v -0.8071 2.1394 0.8071
v -0.482 0.2157 1.1168
v -0.4788 -0.005 1.9804
v -0.482 -0.005 1.1168
v -0.4788 0.2157 1.9804
v -0.4696 -0.005 2.0738
v -0.4696 0.2157 2.0738
v -0.3981 0.2157 2.2465
v -0.3981 -0.005 2.2465
v -0.2659 -0.005 2.3787
v -0.2659 0.2157 2.3787
v -0.0933 -0.005 2.4502
v -0.0933 0.2157 2.4502
v 0.0002 -0.005 2.4594
v 0.0002 0.2157 2.4594
v 0.0936 0.2157 2.4502
v 0.0936 -0.005 2.4502
v 0.2663 -0.005 2.3787
v 0.2663 0.2157 2.3787
v 0.3985 0.2157 2.2465
v 0.0936 0.2157 2.4502
v 0.0002 0.2157 2.4594
v 0.2663 0.2157 2.3787
v 0.3985 0.2157 2.2465
v -0.0933 0.2157 2.4502
v -0.2659 0.2157 2.3787
v -0.3981 0.2157 2.2465
v 0.3985 -0.005 2.2465
v -0.4696 0.2157 2.0738
v 0.47 0.2157 2.0738
v 0.47 0.2157 2.0738
v 0.47 -0.005 2.0738
v 0.0002 0.2157 1.2127
v -0.4788 0.2157 1.9804
v 0.4792 0.2157 1.9804
v 0.4792 0.2157 1.9804
v 0.4792 -0.005 1.9804
v -0.1845 0.2157 1.1976
v -0.482 0.2157 1.1168
v -0.482 0.2157 1.1168
v -0.3656 0.2157 1.1585
v -0.1845 0.2157 1.1976
v 0.1848 0.2157 1.1976
v 0.4824 0.2157 1.1168
v 0.4824 0.2157 1.1168
v 0.4824 -0.005 1.1168
v 0.1848 0.2157 1.1976
v 0.3659 0.2157 1.1585
v 0.4824 0.2157 1.1168
v 0.482 0.2157 -1.1168
v 0.4788 -0.005 -1.9804
v 0.482 -0.005 -1.1168
v 0.4788 0.2157 -1.9804
v 0.4696 -0.005 -2.0738
v 0.4696 0.2157 -2.0738
v 0.3981 0.2157 -2.2465
v 0.3981 -0.005 -2.2465
v 0.2659 -0.005 -2.3787
v 0.2659 0.2157 -2.3787
v 0.0933 -0.005 -2.4502
v 0.0933 0.2157 -2.4502
v -0.0002 -0.005 -2.4594
v -0.0002 0.2157 -2.4594
v -0.0936 0.2157 -2.4502
v -0.0936 -0.005 -2.4502
v -0.2663 -0.005 -2.3787
v -0.2663 0.2157 -2.3787
v -0.3985 0.2157 -2.2465
v -0.0936 0.2157 -2.4502
v -0.0002 0.2157 -2.4594
v -0.2663 0.2157 -2.3787
v -0.3985 0.2157 -2.2465
v 0.0933 0.2157 -2.4502
v 0.2659 0.2157 -2.3787
v 0.3981 0.2157 -2.2465
v -0.3985 -0.005 -2.2465
v 0.4696 0.2157 -2.0738
v -0.47 0.2157 -2.0738
v -0.47 0.2157 -2.0738
v -0.47 -0.005 -2.0738
v -0.0002 0.2157 -1.2127
v 0.4788 0.2157 -1.9804
v -0.4792 0.2157 -1.9804
v -0.4792 0.2157 -1.9804
v -0.4792 -0.005 -1.9804
v 0.1845 0.2157 -1.1976
v 0.482 0.2157 -1.1168
v 0.482 0.2157 -1.1168
v 0.3656 0.2157 -1.1585
v 0.1845 0.2157 -1.1976
v -0.1848 0.2157 -1.1976
v -0.4824 0.2157 -1.1168
v -0.4824 0.2157 -1.1168
v -0.4824 -0.005 -1.1168
v -0.1848 0.2157 -1.1976
v -0.3659 0.2157 -1.1585
v -0.4824 0.2157 -1.1168
vt 0.4486 0.83639997
vt 0.3795 0.81
vt 0.42 0.84320003
vt 0.4131 0.80720001
vt 0.3493 0.77200001
vt 0.4919 0.8603
vt 0.4694 0.87050003
vt 0.3867 0.77399999
vt 0.3308 0.7309
vt 0.3704 0.73799998
vt 0.3245 0.68809998
vt 0.365 0.7005
vt 0.3308 0.64529997
vt 0.3704 0.663
vt 0.3493 0.6041
vt 0.3867 0.62690002
vt 0.3795 0.56620002
vt 0.4131 0.5937
vt 0.42 0.53289998
vt 0.4486 0.5646
vt 0.4694 0.50559998
vt 0.4919 0.5406
vt 0.5258 0.48539996
vt 0.5413 0.5229
vt 0.587 0.47290003
vt 0.5949 0.51200002
vt 0.6506 0.4687
vt 0.6506 0.7005
vt 0.6506 0.5083
vt 0.7142 0.47290003
vt 0.7063 0.51200002
vt 0.7754 0.48539996
vt 0.7599 0.5229
vt 0.8318 0.50559998
vt 0.8093 0.5406
vt 0.8812 0.53289998
vt 0.8526 0.5646
vt 0.9217 0.56620002
vt 0.8881 0.5937
vt 0.9519 0.6041
vt 0.9145 0.62690002
vt 0.9704 0.64529997
vt 0.9308 0.663
vt 0.9767 0.68809998
vt 0.9362 0.7005
vt 0.9704 0.7309
vt 0.9308 0.73799998
vt 0.9519 0.77200001
vt 0.9145 0.77399999
vt 0.9217 0.81
vt 0.8881 0.80720001
vt 0.8812 0.84320003
vt 0.8526 0.83639997
vt 0.8318 0.87050003
vt 0.8093 0.8603
vt 0.7754 0.8908
vt 0.7599 0.87800002
vt 0.7142 0.90329999
vt 0.7063 0.889
vt 0.6506 0.90750003
vt 0.6506 0.89270002
vt 0.587 0.90329999
vt 0.5949 0.889
vt 0.5258 0.8908
vt 0.5413 0.87800002
vt 0.4082 0.0715
vt 0.4082 0.49510002
vt 0.4601 0.46640003
vt 0.4601 0.04280001
vt 0.5194 0.445
vt 0.5194 0.021499991
vt 0.5837 0.008400023
vt 0.5837 0.43190002
vt 0.6506 0.0038999915
vt 0.6506 0.4275
vt 0.7175 0.008400023
vt 0.7175 0.43190002
vt 0.7818 0.445
vt 0.7818 0.021499991
vt 0.8411 0.46640003
vt 0.8411 0.04280001
vt 0.893 0.49510002
vt 0.893 0.0715
vt 0.4082 0.0715
vt 0.4082 0.49510002
vt 0.4601 0.46640003
vt 0.4601 0.04280001
vt 0.42 0.53289998
vt 0.5194 0.445
vt 0.5194 0.021499991
vt 0.5837 0.008400023
vt 0.4694 0.50559998
vt 0.5837 0.43190002
vt 0.6506 0.0038999915
vt 0.5258 0.48539996
vt 0.6506 0.4275
vt 0.7175 0.008400023
vt 0.587 0.47290003
vt 0.7175 0.43190002
vt 0.6506 0.4687
vt 0.7142 0.47290003
vt 0.7818 0.445
vt 0.7818 0.021499991
vt 0.7754 0.48539996
vt 0.8411 0.46640003
vt 0.8411 0.04280001
vt 0.8318 0.50559998
vt 0.893 0.49510002
vt 0.893 0.0715
vt 0.8812 0.53289998
vt 0.4082 0.0715
vt 0.4082 0.49510002
vt 0.4601 0.46640003
vt 0.4601 0.04280001
vt 0.42 0.53289998
vt 0.5194 0.445
vt 0.5194 0.021499991
vt 0.5837 0.008400023
vt 0.4694 0.50559998
vt 0.5837 0.43190002
vt 0.6506 0.0038999915
vt 0.5258 0.48539996
vt 0.6506 0.4275
vt 0.7175 0.008400023
vt 0.587 0.47290003
vt 0.7175 0.43190002
vt 0.6506 0.4687
vt 0.7142 0.47290003
vt 0.7818 0.445
vt 0.7818 0.021499991
vt 0.7754 0.48539996
vt 0.8411 0.46640003
vt 0.8411 0.04280001
vt 0.8318 0.50559998
vt 0.893 0.49510002
vt 0.893 0.0715
vt 0.8812 0.53289998
vt 0.4082 0.0715
vt 0.4082 0.49510002
vt 0.4601 0.46640003
vt 0.4601 0.04280001
vt 0.42 0.53289998
vt 0.5194 0.445
vt 0.5194 0.021499991
vt 0.5837 0.008400023
vt 0.4694 0.50559998
vt 0.5837 0.43190002
vt 0.6506 0.0038999915
vt 0.5258 0.48539996
vt 0.6506 0.4275
vt 0.7175 0.008400023
vt 0.587 0.47290003
vt 0.7175 0.43190002
vt 0.6506 0.4687
vt 0.7142 0.47290003
vt 0.7818 0.445
vt 0.7818 0.021499991
vt 0.7754 0.48539996
vt 0.8411 0.46640003
vt 0.8411 0.04280001
vt 0.8318 0.50559998
vt 0.893 0.49510002
vt 0.893 0.0715
vt 0.8812 0.53289998
vt 0.2846 0.989700019
vt 0.3038 0.71960002
vt 0.3214 0.952899992
vt 0.267 0.75639999
vt 0.2995 0.69419998
vt 0.2627 0.731
vt 0.2401 0.68300003
vt 0.2769 0.6462
vt 0.2386 0.60790002
vt 0.2018 0.6447
vt 0.1906 0.58530003
vt 0.1538 0.6221
vt 0.1652 0.58099997
vt 0.1284 0.6178
vt 0.1538 0.6221
vt 0.1906 0.58530003
vt 0.2386 0.60790002
vt 0.2018 0.6447
vt 0.2401 0.68300003
vt 0.1538 0.6221
vt 0.1284 0.6178
vt 0.2018 0.6447
vt 0.2401 0.68300003
vt 0.1033 0.61839998
vt 0.0581 0.6344
vt 0.025 0.66750002
vt 0.2769 0.6462
vt 0.009 0.71280003
vt 0.2627 0.731
vt 0.2627 0.731
vt 0.2995 0.69419998
vt 0.1526 0.954400003
vt 0.0083 0.7378
vt 0.267 0.75639999
vt 0.267 0.75639999
vt 0.3038 0.71960002
vt 0.103 0.954900026
vt 0.0242 0.9709
vt 0.0242 0.9709
vt 0.0549 0.962000012
vt 0.103 0.954900026
vt 0.2027 0.96210003
vt 0.2846 0.989700019
vt 0.2846 0.989700019
vt 0.3214 0.952899992
vt 0.2027 0.96210003
vt 0.2524 0.976100028
vt 0.2846 0.989700019
vt 0.2846 0.989700019
vt 0.3038 0.71960002
vt 0.3214 0.952899992
vt 0.267 0.75639999
vt 0.2995 0.69419998
vt 0.2627 0.731
vt 0.2401 0.68300003
vt 0.2769 0.6462
vt 0.2386 0.60790002
vt 0.2018 0.6447
vt 0.1906 0.58530003
vt 0.1538 0.6221
vt 0.1652 0.58099997
vt 0.1284 0.6178
vt 0.1538 0.6221
vt 0.1906 0.58530003
vt 0.2386 0.60790002
vt 0.2018 0.6447
vt 0.2401 0.68300003
vt 0.1538 0.6221
vt 0.1284 0.6178
vt 0.2018 0.6447
vt 0.2401 0.68300003
vt 0.1033 0.61839998
vt 0.0581 0.6344
vt 0.025 0.66750002
vt 0.2769 0.6462
vt 0.009 0.71280003
vt 0.2627 0.731
vt 0.2627 0.731
vt 0.2995 0.69419998
vt 0.1526 0.954400003
vt 0.0083 0.7378
vt 0.267 0.75639999
vt 0.267 0.75639999
vt 0.3038 0.71960002
vt 0.103 0.954900026
vt 0.0242 0.9709
vt 0.0242 0.9709
vt 0.0549 0.962000012
vt 0.103 0.954900026
vt 0.2027 0.96210003
vt 0.2846 0.989700019
vt 0.2846 0.989700019
vt 0.3214 0.952899992
vt 0.2027 0.96210003
vt 0.2524 0.976100028
vt 0.2846 0.989700019
vn -0.146 0.9784 -0.146
vn -0.5973 0.6957 -0.3991
vn -0.508 0.6957 -0.508
vn -0.1717 0.9784 -0.1147
vn -0.6637 0.6957 -0.2749
vn -0.1147 0.9784 -0.1717
vn -0.3991 0.6957 -0.5973
vn -0.1908 0.9784 -0.079
vn -0.7046 0.6957 -0.1401
vn -0.2026 0.9784 -0.0403
vn -0.7184 0.6957 0
vn -0.2065 0.9784 0
vn -0.7046 0.6957 0.1401
vn -0.2026 0.9784 0.0403
vn -0.6637 0.6957 0.2749
vn -0.1908 0.9784 0.079
vn -0.5973 0.6957 0.3991
vn -0.1717 0.9784 0.1147
vn -0.508 0.6957 0.508
vn -0.146 0.9784 0.146
vn -0.3991 0.6957 0.5973
vn -0.1147 0.9784 0.1717
vn -0.2749 0.6957 0.6637
vn -0.079 0.9784 0.1908
vn -0.1401 0.6957 0.7046
vn -0.0403 0.9784 0.2026
vn 0 0.6957 0.7184
vn 0 1 0
vn 0 0.9784 0.2065
vn 0.1401 0.6957 0.7046
vn 0.0403 0.9784 0.2026
vn 0.2749 0.6957 0.6637
vn 0.079 0.9784 0.1908
vn 0.3991 0.6957 0.5973
vn 0.1147 0.9784 0.1717
vn 0.508 0.6957 0.508
vn 0.146 0.9784 0.146
vn 0.5973 0.6957 0.3991
vn 0.1717 0.9784 0.1147
vn 0.6637 0.6957 0.2749
vn 0.1908 0.9784 0.079
vn 0.7046 0.6957 0.1401
vn 0.2026 0.9784 0.0403
vn 0.7184 0.6957 0
vn 0.2065 0.9784 -0
vn 0.7046 0.6957 -0.1401
vn 0.2026 0.9784 -0.0403
vn 0.6637 0.6957 -0.2749
vn 0.1908 0.9784 -0.079
vn 0.5973 0.6957 -0.3991
vn 0.1717 0.9784 -0.1147
vn 0.508 0.6957 -0.508
vn 0.146 0.9784 -0.146
vn 0.3991 0.6957 -0.5973
vn 0.1147 0.9784 -0.1717
vn 0.2749 0.6957 -0.6637
vn 0.079 0.9784 -0.1908
vn 0.1401 0.6957 -0.7046
vn 0.0403 0.9784 -0.2026
vn 0 0.6957 -0.7184
vn 0 0.9784 -0.2065
vn -0.1401 0.6957 -0.7046
vn -0.0403 0.9784 -0.2026
vn -0.2749 0.6957 -0.6637
vn -0.079 0.9784 -0.1908
vn -0.6344 0 0.773
vn -0.6226 0.1921 0.7586
vn -0.5451 0.193 0.8158
vn -0.5556 0 0.8315
vn -0.3755 0.193 0.9065
vn -0.3827 0 0.9239
vn -0.1951 -0 0.9808
vn -0.1914 0.193 0.9623
vn 0 -0 1
vn 0 0.193 0.9812
vn 0.1951 0 0.9808
vn 0.1914 0.193 0.9623
vn 0.3755 0.193 0.9065
vn 0.3827 0 0.9239
vn 0.5451 0.193 0.8158
vn 0.5556 0 0.8315
vn 0.6938 0.193 0.6938
vn 0.7071 0 0.7071
vn 0.7071 0 0.7071
vn 0.6938 0.193 0.6938
vn 0.8158 0.193 0.5451
vn 0.8315 0 0.5556
vn 0.508 0.6957 0.508
vn 0.9065 0.193 0.3755
vn 0.9239 0 0.3827
vn 0.9808 -0 0.1951
vn 0.5973 0.6957 0.3991
vn 0.9623 0.193 0.1914
vn 1 -0 -0
vn 0.6637 0.6957 0.2749
vn 0.9812 0.193 -0
vn 0.9808 0 -0.1951
vn 0.7046 0.6957 0.1401
vn 0.9623 0.193 -0.1914
vn 0.7184 0.6957 0
vn 0.7046 0.6957 -0.1401
vn 0.9065 0.193 -0.3755
vn 0.9239 0 -0.3827
vn 0.6637 0.6957 -0.2749
vn 0.8158 0.193 -0.5451
vn 0.8315 0 -0.5556
vn 0.5973 0.6957 -0.3991
vn 0.6938 0.193 -0.6938
vn 0.7071 0 -0.7071
vn 0.508 0.6957 -0.508
vn 0.7071 0 -0.7071
vn 0.6938 0.193 -0.6938
vn 0.5451 0.193 -0.8158
vn 0.5556 0 -0.8315
vn 0.508 0.6957 -0.508
vn 0.3755 0.193 -0.9065
vn 0.3827 0 -0.9239
vn 0.1951 -0 -0.9808
vn 0.3991 0.6957 -0.5973
vn 0.1914 0.193 -0.9623
vn -0 -0 -1
vn 0.2749 0.6957 -0.6637
vn -0 0.193 -0.9812
vn -0.1951 0 -0.9808
vn 0.1401 0.6957 -0.7046
vn -0.1914 0.193 -0.9623
vn 0 0.6957 -0.7184
vn -0.1401 0.6957 -0.7046
vn -0.3755 0.193 -0.9065
vn -0.3827 0 -0.9239
vn -0.2749 0.6957 -0.6637
vn -0.5451 0.193 -0.8158
vn -0.5556 0 -0.8315
vn -0.3991 0.6957 -0.5973
vn -0.6938 0.193 -0.6938
vn -0.7071 0 -0.7071
vn -0.508 0.6957 -0.508
vn -0.7071 0 -0.7071
vn -0.6938 0.193 -0.6938
vn -0.8158 0.193 -0.5451
vn -0.8315 0 -0.5556
vn -0.508 0.6957 -0.508
vn -0.9065 0.193 -0.3755
vn -0.9239 0 -0.3827
vn -0.9808 -0 -0.1951
vn -0.5973 0.6957 -0.3991
vn -0.9623 0.193 -0.1914
vn -1 -0 0
vn -0.6637 0.6957 -0.2749
vn -0.9812 0.193 0
vn -0.9808 0 0.1951
vn -0.7046 0.6957 -0.1401
vn -0.9623 0.193 0.1914
vn -0.7184 0.6957 0
vn -0.7046 0.6957 0.1401
vn -0.9065 0.193 0.3755
vn -0.9239 0 0.3827
vn -0.6637 0.6957 0.2749
vn -0.8158 0.193 0.5451
vn -0.8315 0 0.5556
vn -0.5973 0.6957 0.3991
vn -0.7586 0.1921 0.6226
vn -0.773 0 0.6344
vn -0.508 0.6957 0.508
vn -1 0 0.0037
vn -0.9987 0 0.0509
vn -1 0 0.0037
vn -0.9987 -0 0.0509
vn -0.97 -0 0.243
vn -0.97 -0 0.243
vn -0.8315 -0 0.5556
vn -0.8315 -0 0.5556
vn -0.5556 -0 0.8315
vn -0.5556 -0 0.8315
vn -0.243 -0 0.97
vn -0.243 -0 0.97
vn -0 -0 1
vn -0 -0 1
vn 0.243 0 0.97
vn 0.243 0 0.97
vn 0.5556 0 0.8315
vn 0.5556 0 0.8315
vn 0 1 -0
vn 0 1 -0
vn 0 1 -0
vn 0 1 -0
vn 0.8315 0 0.5556
vn 0 1 -0
vn 0 1 -0
vn 0 1 -0
vn 0.8315 0 0.5556
vn 0 1 -0
vn 0.97 0 0.243
vn 0 1 -0
vn 0.97 0 0.243
vn 0 1 -0
vn 0 1 -0
vn 0.9987 0 0.0509
vn 0 1 -0
vn 0.9987 0 0.0509
vn 0 1 -0
vn 0 1 -0
vn 0 -1 -0
vn 0 -1 -0
vn 0 -1 -0
vn 0 1 -0
vn 1 0 0.0037
vn 0 1 -0
vn 1 0 0.0037
vn 0 -1 -0
vn 0 -1 -0
vn 0 -1 -0
vn 1 0 -0.0037
vn 0.9987 0 -0.0509
vn 1 0 -0.0037
vn 0.9987 -0 -0.0509
vn 0.97 -0 -0.243
vn 0.97 -0 -0.243
vn 0.8315 -0 -0.5556
vn 0.8315 -0 -0.5556
vn 0.5556 -0 -0.8315
vn 0.5556 -0 -0.8315
vn 0.243 -0 -0.97
vn 0.243 -0 -0.97
vn 0 -0 -1
vn 0 -0 -1
vn -0.243 0 -0.97
vn -0.243 0 -0.97
vn -0.5556 0 -0.8315
vn -0.5556 0 -0.8315
vn 0 1 -0
vn 0 1 -0
vn 0 1 -0
vn 0 1 -0
vn -0.8315 0 -0.5556
vn 0 1 -0
vn 0 1 -0
vn 0 1 -0
vn -0.8315 0 -0.5556
vn 0 1 -0
vn -0.97 0 -0.243
vn 0 1 -0
vn -0.97 0 -0.243
vn 0 1 -0
vn 0 1 -0
vn -0.9987 0 -0.0509
vn 0 1 -0
vn -0.9987 0 -0.0509
vn 0 1 -0
vn 0 1 -0
vn 0 -1 -0
vn 0 -1 -0
vn 0 -1 -0
vn 0 1 -0
vn -1 0 -0.0037
vn 0 1 -0
vn -1 0 -0.0037
vn 0 -1 -0
vn 0 -1 -0
vn 0 -1 -0
f 205/205/205 204/204/204 203/203/203
f 3/3/3 2/2/2 1/1/1
f 2/2/2 4/4/4 1/1/1
f 2/2/2 5/5/5 4/4/4
f 3/3/3 1/1/1 6/6/6
f 7/7/7 3/3/3 6/6/6
f 5/5/5 8/8/8 4/4/4
f 5/5/5 9/9/9 8/8/8
f 7/7/7 6/6/6 65/65/65
f 64/64/64 7/7/7 65/65/65
f 9/9/9 10/10/10 8/8/8
f 9/9/9 11/11/11 10/10/10
f 64/64/64 65/65/65 63/63/63
f 62/62/62 64/64/64 63/63/63
f 11/11/11 12/12/12 10/10/10
f 11/11/11 13/13/13 12/12/12
f 62/62/62 63/63/63 61/61/61
f 60/60/60 62/62/62 61/61/61
f 13/13/13 14/14/14 12/12/12
f 13/13/13 15/15/15 14/14/14
f 60/60/60 61/61/61 59/59/59
f 58/58/58 60/60/60 59/59/59
f 15/15/15 16/16/16 14/14/14
f 15/15/15 17/17/17 16/16/16
f 58/58/58 59/59/59 57/57/57
f 56/56/56 58/58/58 57/57/57
f 17/17/17 18/18/18 16/16/16
f 56/56/56 57/57/57 55/55/55
f 17/17/17 19/19/19 18/18/18
f 54/54/54 56/56/56 55/55/55
f 19/19/19 20/20/20 18/18/18
f 54/54/54 55/55/55 53/53/53
f 52/52/52 54/54/54 53/53/53
f 55/55/55 57/57/57 28/28/28
f 57/57/57 59/59/59 28/28/28
f 53/53/53 55/55/55 28/28/28
f 59/59/59 61/61/61 28/28/28
f 61/61/61 63/63/63 28/28/28
f 63/63/63 65/65/65 28/28/28
f 65/65/65 6/6/6 28/28/28
f 6/6/6 1/1/1 28/28/28
f 1/1/1 4/4/4 28/28/28
f 4/4/4 8/8/8 28/28/28
f 8/8/8 10/10/10 28/28/28
f 10/10/10 12/12/12 28/28/28
f 12/12/12 14/14/14 28/28/28
f 14/14/14 16/16/16 28/28/28
f 16/16/16 18/18/18 28/28/28
f 18/18/18 20/20/20 28/28/28
f 52/52/52 53/53/53 51/51/51
f 51/51/51 53/53/53 28/28/28
f 50/50/50 52/52/52 51/51/51
f 50/50/50 51/51/51 49/49/49
f 49/49/49 51/51/51 28/28/28
f 48/48/48 50/50/50 49/49/49
f 48/48/48 49/49/49 47/47/47
f 47/47/47 49/49/49 28/28/28
f 46/46/46 48/48/48 47/47/47
f 46/46/46 47/47/47 45/45/45
f 45/45/45 47/47/47 28/28/28
f 44/44/44 46/46/46 45/45/45
f 44/44/44 45/45/45 43/43/43
f 43/43/43 45/45/45 28/28/28
f 42/42/42 44/44/44 43/43/43
f 42/42/42 43/43/43 41/41/41
f 41/41/41 43/43/43 28/28/28
f 40/40/40 42/42/42 41/41/41
f 40/40/40 41/41/41 39/39/39
f 39/39/39 41/41/41 28/28/28
f 38/38/38 40/40/40 39/39/39
f 38/38/38 39/39/39 37/37/37
f 37/37/37 39/39/39 28/28/28
f 36/36/36 38/38/38 37/37/37
f 36/36/36 37/37/37 35/35/35
f 35/35/35 37/37/37 28/28/28
f 34/34/34 36/36/36 35/35/35
f 82/82/82 36/36/36 34/34/34
f 83/83/83 82/82/82 81/81/81
f 82/82/82 80/80/80 81/81/81
f 80/80/80 82/82/82 34/34/34
f 81/81/81 80/80/80 79/79/79
f 34/34/34 35/35/35 33/33/33
f 33/33/33 35/35/35 28/28/28
f 80/80/80 78/78/78 79/79/79
f 80/80/80 34/34/34 78/78/78
f 79/79/79 78/78/78 76/76/76
f 32/32/32 34/34/34 33/33/33
f 34/34/34 32/32/32 78/78/78
f 32/32/32 33/33/33 31/31/31
f 31/31/31 33/33/33 28/28/28
f 78/78/78 32/32/32 30/30/30
f 30/30/30 32/32/32 31/31/31
f 78/78/78 77/77/77 76/76/76
f 77/77/77 78/78/78 30/30/30
f 30/30/30 31/31/31 29/29/29
f 29/29/29 31/31/31 28/28/28
f 77/77/77 30/30/30 27/27/27
f 27/27/27 30/30/30 29/29/29
f 76/76/76 77/77/77 75/75/75
f 75/75/75 77/77/77 27/27/27
f 74/74/74 76/76/76 75/75/75
f 27/27/27 29/29/29 26/26/26
f 26/26/26 29/29/29 28/28/28
f 75/75/75 27/27/27 25/25/25
f 25/25/25 27/27/27 26/26/26
f 74/74/74 75/75/75 73/73/73
f 73/73/73 75/75/75 25/25/25
f 72/72/72 74/74/74 73/73/73
f 25/25/25 26/26/26 24/24/24
f 24/24/24 26/26/26 28/28/28
f 73/73/73 25/25/25 23/23/23
f 23/23/23 25/25/25 24/24/24
f 73/73/73 70/70/70 72/72/72
f 70/70/70 73/73/73 23/23/23
f 70/70/70 71/71/71 72/72/72
f 71/71/71 70/70/70 69/69/69
f 22/22/22 24/24/24 28/28/28
f 23/23/23 24/24/24 22/22/22
f 20/20/20 22/22/22 28/28/28
f 21/21/21 23/23/23 22/22/22
f 21/21/21 22/22/22 20/20/20
f 23/23/23 21/21/21 70/70/70
f 19/19/19 21/21/21 20/20/20
f 70/70/70 68/68/68 69/69/69
f 21/21/21 68/68/68 70/70/70
f 68/68/68 21/21/21 19/19/19
f 69/69/69 68/68/68 66/66/66
f 67/67/67 68/68/68 19/19/19
f 68/68/68 67/67/67 66/66/66
f 86/86/86 85/85/85 84/84/84
f 85/85/85 86/86/86 88/88/88
f 87/87/87 86/86/86 84/84/84
f 86/86/86 92/92/92 88/88/88
f 89/89/89 86/86/86 87/87/87
f 92/92/92 86/86/86 89/89/89
f 90/90/90 89/89/89 87/87/87
f 95/95/95 92/92/92 89/89/89
f 89/89/89 90/90/90 91/91/91
f 89/89/89 93/93/93 95/95/95
f 93/93/93 89/89/89 91/91/91
f 93/93/93 98/98/98 95/95/95
f 91/91/91 94/94/94 93/93/93
f 93/93/93 96/96/96 98/98/98
f 94/94/94 96/96/96 93/93/93
f 96/96/96 100/100/100 98/98/98
f 94/94/94 97/97/97 96/96/96
f 96/96/96 99/99/99 100/100/100
f 97/97/97 99/99/99 96/96/96
f 99/99/99 101/101/101 100/100/100
f 102/102/102 99/99/99 97/97/97
f 99/99/99 102/102/102 101/101/101
f 102/102/102 104/104/104 101/101/101
f 103/103/103 102/102/102 97/97/97
f 107/107/107 104/104/104 102/102/102
f 105/105/105 102/102/102 103/103/103
f 105/105/105 107/107/107 102/102/102
f 106/106/106 105/105/105 103/103/103
f 105/105/105 108/108/108 107/107/107
f 108/108/108 105/105/105 106/106/106
f 108/108/108 110/110/110 107/107/107
f 109/109/109 108/108/108 106/106/106
f 113/113/113 112/112/112 111/111/111
f 112/112/112 113/113/113 115/115/115
f 114/114/114 113/113/113 111/111/111
f 113/113/113 119/119/119 115/115/115
f 116/116/116 113/113/113 114/114/114
f 119/119/119 113/113/113 116/116/116
f 117/117/117 116/116/116 114/114/114
f 122/122/122 119/119/119 116/116/116
f 116/116/116 117/117/117 118/118/118
f 116/116/116 120/120/120 122/122/122
f 120/120/120 116/116/116 118/118/118
f 120/120/120 125/125/125 122/122/122
f 118/118/118 121/121/121 120/120/120
f 120/120/120 123/123/123 125/125/125
f 121/121/121 123/123/123 120/120/120
f 123/123/123 127/127/127 125/125/125
f 121/121/121 124/124/124 123/123/123
f 123/123/123 126/126/126 127/127/127
f 124/124/124 126/126/126 123/123/123
f 126/126/126 128/128/128 127/127/127
f 129/129/129 126/126/126 124/124/124
f 126/126/126 129/129/129 128/128/128
f 129/129/129 131/131/131 128/128/128
f 130/130/130 129/129/129 124/124/124
f 134/134/134 131/131/131 129/129/129
f 132/132/132 129/129/129 130/130/130
f 132/132/132 134/134/134 129/129/129
f 133/133/133 132/132/132 130/130/130
f 132/132/132 135/135/135 134/134/134
f 135/135/135 132/132/132 133/133/133
f 135/135/135 137/137/137 134/134/134
f 136/136/136 135/135/135 133/133/133
f 140/140/140 139/139/139 138/138/138
f 139/139/139 140/140/140 142/142/142
f 141/141/141 140/140/140 138/138/138
f 140/140/140 146/146/146 142/142/142
f 143/143/143 140/140/140 141/141/141
f 146/146/146 140/140/140 143/143/143
f 144/144/144 143/143/143 141/141/141
f 149/149/149 146/146/146 143/143/143
f 143/143/143 144/144/144 145/145/145
f 143/143/143 147/147/147 149/149/149
f 147/147/147 143/143/143 145/145/145
f 147/147/147 152/152/152 149/149/149
f 145/145/145 148/148/148 147/147/147
f 147/147/147 150/150/150 152/152/152
f 148/148/148 150/150/150 147/147/147
f 150/150/150 154/154/154 152/152/152
f 148/148/148 151/151/151 150/150/150
f 150/150/150 153/153/153 154/154/154
f 151/151/151 153/153/153 150/150/150
f 153/153/153 155/155/155 154/154/154
f 156/156/156 153/153/153 151/151/151
f 153/153/153 156/156/156 155/155/155
f 156/156/156 158/158/158 155/155/155
f 157/157/157 156/156/156 151/151/151
f 161/161/161 158/158/158 156/156/156
f 159/159/159 156/156/156 157/157/157
f 159/159/159 161/161/161 156/156/156
f 160/160/160 159/159/159 157/157/157
f 159/159/159 162/162/162 161/161/161
f 162/162/162 159/159/159 160/160/160
f 162/162/162 164/164/164 161/161/161
f 163/163/163 162/162/162 160/160/160
f 167/167/167 166/166/166 165/165/165
f 166/166/166 168/168/168 165/165/165
f 166/166/166 169/169/169 168/168/168
f 169/169/169 170/170/170 168/168/168
f 171/171/171 170/170/170 169/169/169
f 172/172/172 171/171/171 169/169/169
f 172/172/172 173/173/173 171/171/171
f 173/173/173 174/174/174 171/171/171
f 173/173/173 175/175/175 174/174/174
f 175/175/175 176/176/176 174/174/174
f 175/175/175 177/177/177 176/176/176
f 177/177/177 178/178/178 176/176/176
f 179/179/179 178/178/178 177/177/177
f 180/180/180 179/179/179 177/177/177
f 179/179/179 180/180/180 181/181/181
f 182/182/182 179/179/179 181/181/181
f 187/187/187 182/182/182 181/181/181
f 191/191/191 187/187/187 181/181/181
f 193/193/193 187/187/187 191/191/191
f 195/195/195 193/193/193 191/191/191
f 198/198/198 193/193/193 195/195/195
f 200/200/200 198/198/198 195/195/195
f 207/207/207 198/198/198 200/200/200
f 209/209/209 207/207/207 200/200/200
f 185/185/185 184/184/184 183/183/183
f 184/184/184 186/186/186 183/183/183
f 188/188/188 185/185/185 183/183/183
f 189/189/189 188/188/188 183/183/183
f 190/190/190 189/189/189 183/183/183
f 192/192/192 190/190/190 183/183/183
f 194/194/194 192/192/192 183/183/183
f 192/192/192 194/194/194 196/196/196
f 197/197/197 192/192/192 196/196/196
f 194/194/194 199/199/199 196/196/196
f 201/201/201 197/197/197 196/196/196
f 197/197/197 201/201/201 202/202/202
f 199/199/199 206/206/206 196/196/196
f 199/199/199 208/208/208 206/206/206
f 212/212/212 211/211/211 210/210/210
f 215/215/215 214/214/214 213/213/213
f 214/214/214 216/216/216 213/213/213
f 214/214/214 217/217/217 216/216/216
f 217/217/217 218/218/218 216/216/216
f 219/219/219 218/218/218 217/217/217
f 220/220/220 219/219/219 217/217/217
f 220/220/220 221/221/221 219/219/219
f 221/221/221 222/222/222 219/219/219
f 221/221/221 223/223/223 222/222/222
f 223/223/223 224/224/224 222/222/222
f 223/223/223 225/225/225 224/224/224
f 225/225/225 226/226/226 224/224/224
f 227/227/227 226/226/226 225/225/225
f 228/228/228 227/227/227 225/225/225
f 227/227/227 228/228/228 229/229/229
f 230/230/230 227/227/227 229/229/229
f 235/235/235 230/230/230 229/229/229
f 239/239/239 235/235/235 229/229/229
f 241/241/241 235/235/235 239/239/239
f 243/243/243 241/241/241 239/239/239
f 246/246/246 241/241/241 243/243/243
f 248/248/248 246/246/246 243/243/243
f 255/255/255 246/246/246 248/248/248
f 257/257/257 255/255/255 248/248/248
f 233/233/233 232/232/232 231/231/231
f 232/232/232 234/234/234 231/231/231
f 236/236/236 233/233/233 231/231/231
f 237/237/237 236/236/236 231/231/231
f 238/238/238 237/237/237 231/231/231
f 240/240/240 238/238/238 231/231/231
f 242/242/242 240/240/240 231/231/231
f 240/240/240 242/242/242 244/244/244
f 245/245/245 240/240/240 244/244/244
f 242/242/242 247/247/247 244/244/244
f 249/249/249 245/245/245 244/244/244
f 245/245/245 249/249/249 250/250/250
f 247/247/247 254/254/254 244/244/244
f 247/247/247 256/256/256 254/254/254
f 253/253/253 252/252/252 251/251/251
f 260/260/260 259/259/259 258/258/258
