# VPXTOOL table OBJ file
# VPXTOOL OBJ file
# numVerts: 56 numFaces: 138
o Primitive55
v 42.5731201171875 -6.1322021484375 -6.642547607421875
v 42.5731201171875 90.189453125 6.642566680908203
v 42.5731201171875 13.132080078125 -6.642539978027344
v 42.5731201171875 -88.1392822265625 -4.592323303222656
v 42.5731201171875 -89.6981201171875 -2.21923828125
v 42.5731201171875 -90.1895751953125 0.35742950439453125
v 42.5731201171875 -83.1895751953125 -6.642570495605469
v 42.5731201171875 -85.7662353515625 -6.151092529296875
v 42.5731201171875 -90.1895751953125 6.642509460449219
v 42.5731201171875 -44.660888671875 -6.6425628662109375
v 42.5731201171875 -63.9251708984375 -6.642570495605469
v 42.5731201171875 70.925048828125 -6.642524719238281
v 42.5731201171875 90.189453125 -6.64251708984375
v 42.5731201171875 51.660888671875 -6.642524719238281
v 42.5731201171875 32.396484375 -6.642539978027344
v 42.5731201171875 -25.396484375 -6.642555236816406
v -42.57305908203125 90.189453125 6.642566680908203
v -42.57305908203125 90.189453125 -6.64251708984375
v -0.0001220703125 90.189453125 -6.64251708984375
v 42.5731201171875 90.189453125 6.642566680908203
v 42.5731201171875 90.189453125 -6.64251708984375
v 42.5731201171875 -85.7662353515625 -6.151092529296875
v 42.5731201171875 -83.1895751953125 -6.642570495605469
v -42.57305908203125 -83.1895751953125 -6.642570495605469
v -42.57305908203125 -85.7662353515625 -6.151092529296875
v 42.5731201171875 -88.1392822265625 -4.592323303222656
v -42.57305908203125 -88.1392822265625 -4.592323303222656
v 42.5731201171875 -89.6981201171875 -2.21923828125
v -42.57305908203125 -89.6981201171875 -2.21923828125
v 42.5731201171875 -90.1895751953125 0.35742950439453125
v -42.57305908203125 -90.1895751953125 0.35742950439453125
v -42.57305908203125 -83.1895751953125 -6.642570495605469
v 42.5731201171875 -83.1895751953125 -6.642570495605469
v 42.5731201171875 -63.9251708984375 -6.642570495605469
v -42.57305908203125 -63.9251708984375 -6.642570495605469
v 42.5731201171875 -44.660888671875 -6.6425628662109375
v -42.57305908203125 -44.660888671875 -6.6425628662109375
v 42.5731201171875 -25.396484375 -6.642555236816406
v -42.57305908203125 -25.396484375 -6.642555236816406
v 42.5731201171875 -6.1322021484375 -6.642547607421875
v -42.57305908203125 -6.1322021484375 -6.642547607421875
v -0.0001220703125 90.189453125 -6.64251708984375
v 42.5731201171875 13.132080078125 -6.642539978027344
v -42.57305908203125 13.132080078125 -6.642539978027344
v 42.5731201171875 32.396484375 -6.642539978027344
v -42.57305908203125 32.396484375 -6.642539978027344
v 42.5731201171875 51.660888671875 -6.642524719238281
v -42.57305908203125 51.660888671875 -6.642524719238281
v 42.5731201171875 70.925048828125 -6.642524719238281
v 42.5731201171875 90.189453125 -6.64251708984375
v -42.57305908203125 70.925048828125 -6.642524719238281
v -42.57305908203125 90.189453125 -6.64251708984375
v 42.5731201171875 -90.1895751953125 0.35742950439453125
v -42.57305908203125 -90.1895751953125 0.35742950439453125
v -42.57305908203125 -90.1895751953125 6.642509460449219
v 42.5731201171875 -90.1895751953125 6.642509460449219
vt 0.4975999891757965 0.1657000184059143
vt 0.41749998927116394 0.19220000505447388
vt 0.48159998655319214 0.1657000184059143
vt 0.5658000111579895 0.16979998350143433
vt 0.5670999884605408 0.1746000051498413
vt 0.5674999952316284 0.17970001697540283
vt 0.5616999864578247 0.1657000184059143
vt 0.5637999773025513 0.16670000553131104
vt 0.5674999952316284 0.19220000505447388
vt 0.5296000242233276 0.1657000184059143
vt 0.5455999970436096 0.1657000184059143
vt 0.4334999918937683 0.1657000184059143
vt 0.41749998927116394 0.1657000184059143
vt 0.4494999945163727 0.1657000184059143
vt 0.46560001373291016 0.1657000184059143
vt 0.5135999917984009 0.1657000184059143
vt 0.5674999952316284 0.19230002164840698
vt 0.5674999952316284 0.21880000829696655
vt 0.5356000065803528 0.21880000829696655
vt 0.5037999749183655 0.19230002164840698
vt 0.5037999749183655 0.21880000829696655
vt 0.6233000159263611 0.23250001668930054
vt 0.6197999715805054 0.23250001668930054
vt 0.6197999715805054 0.44370001554489136
vt 0.6233000159263611 0.44370001554489136
vt 0.626800000667572 0.23250001668930054
vt 0.626800000667572 0.44370001554489136
vt 0.630299985408783 0.23250001668930054
vt 0.630299985408783 0.44370001554489136
vt 0.6338000297546387 0.23250001668930054
vt 0.6338000297546387 0.44370001554489136
vt 0.6197999715805054 0.23250001668930054
vt 0.6197999715805054 0.44370001554489136
vt 0.5945000052452087 0.44370001554489136
vt 0.5945000052452087 0.23250001668930054
vt 0.569100022315979 0.44370001554489136
vt 0.569100022315979 0.23250001668930054
vt 0.5437999963760376 0.44370001554489136
vt 0.5437999963760376 0.23250001668930054
vt 0.5184000134468079 0.44370001554489136
vt 0.5184000134468079 0.23250001668930054
vt 0.39169999957084656 0.33810001611709595
vt 0.49309998750686646 0.44370001554489136
vt 0.49309998750686646 0.23250001668930054
vt 0.46779999136924744 0.44370001554489136
vt 0.46779999136924744 0.23250001668930054
vt 0.4424000084400177 0.44370001554489136
vt 0.4424000084400177 0.23250001668930054
vt 0.4171000123023987 0.44370001554489136
vt 0.39169999957084656 0.44370001554489136
vt 0.4171000123023987 0.23250001668930054
vt 0.39169999957084656 0.23250001668930054
vt 0.6338000297546387 0.44370001554489136
vt 0.6338000297546387 0.23250001668930054
vt 0.6417999863624573 0.23250001668930054
vt 0.6417999863624573 0.44370001554489136
vn 1 0 0
vn 1 0 0
vn 1 0 0
vn 1 0 0
vn 1 0 0
vn 1 0 0
vn 1 0 0
vn 1 -0.00009999999747378752 0
vn 1 0 0
vn 1 0 0
vn 1 0 0
vn 1 0 0
vn 1 0 0
vn 1 0 0
vn 1 0 0
vn 1 0 0
vn 0 1 0
vn 0 1 0
vn 0 1 0
vn 0 1 0
vn 0 1 0
vn 0 -0.37540000677108765 -0.926800012588501
vn 0 -0.0940999984741211 -0.9955000281333923
vn 0 -0.0940999984741211 -0.9955000281333923
vn 0 -0.37540000677108765 -0.926800012588501
vn 0 -0.707099974155426 -0.707099974155426
vn 0 -0.707099974155426 -0.707099974155426
vn 0 -0.926800012588501 -0.37540000677108765
vn 0 -0.926800012588501 -0.37540000677108765
vn 0 -0.9955000281333923 -0.0940999984741211
vn 0 -0.9955000281333923 -0.0940999984741211
vn 0 -0.0940999984741211 -0.9955000281333923
vn 0 -0.0940999984741211 -0.9955000281333923
vn 0 0 -1
vn 0 0 -1
vn 0 0 -1
vn 0 0 -1
vn 0 0 -1
vn 0 0 -1
vn 0 0 -1
vn 0 0 -1
vn 0 0 -1
vn 0 0 -1
vn 0 0 -1
vn 0 0 -1
vn 0 0 -1
vn 0 0 -1
vn 0 0 -1
vn 0 0 -1
vn 0 0 -1
vn 0 0 -1
vn 0 0 -1
vn 0 -0.9955000281333923 -0.0940999984741211
vn 0 -0.9955000281333923 -0.0940999984741211
vn 0 -1 0
vn 0 -1 0
f 55/55/55 54/54/54 53/53/53
f 56/56/56 55/55/55 53/53/53
f 3/3/3 2/2/2 1/1/1
f 15/15/15 2/2/2 3/3/3
f 15/15/15 14/14/14 2/2/2
f 12/12/12 2/2/2 14/14/14
f 13/13/13 2/2/2 12/12/12
f 9/9/9 1/1/1 2/2/2
f 16/16/16 1/1/1 9/9/9
f 9/9/9 10/10/10 16/16/16
f 11/11/11 10/10/10 9/9/9
f 9/9/9 7/7/7 11/11/11
f 9/9/9 6/6/6 7/7/7
f 4/4/4 7/7/7 6/6/6
f 6/6/6 5/5/5 4/4/4
f 4/4/4 8/8/8 7/7/7
f 19/19/19 18/18/18 17/17/17
f 17/17/17 20/20/20 19/19/19
f 20/20/20 21/21/21 19/19/19
f 24/24/24 23/23/23 22/22/22
f 25/25/25 24/24/24 22/22/22
f 25/25/25 22/22/22 26/26/26
f 27/27/27 25/25/25 26/26/26
f 27/27/27 26/26/26 28/28/28
f 29/29/29 27/27/27 28/28/28
f 29/29/29 28/28/28 30/30/30
f 31/31/31 29/29/29 30/30/30
f 34/34/34 33/33/33 32/32/32
f 35/35/35 34/34/34 32/32/32
f 36/36/36 34/34/34 35/35/35
f 37/37/37 36/36/36 35/35/35
f 38/38/38 36/36/36 37/37/37
f 39/39/39 38/38/38 37/37/37
f 40/40/40 38/38/38 39/39/39
f 41/41/41 40/40/40 39/39/39
f 41/41/41 42/42/42 40/40/40
f 40/40/40 42/42/42 43/43/43
f 44/44/44 42/42/42 41/41/41
f 45/45/45 43/43/43 42/42/42
f 42/42/42 44/44/44 46/46/46
f 47/47/47 45/45/45 42/42/42
f 48/48/48 42/42/42 46/46/46
f 42/42/42 49/49/49 47/47/47
f 42/42/42 50/50/50 49/49/49
f 42/42/42 48/48/48 51/51/51
f 42/42/42 51/51/51 52/52/52
