# VPXTOOL table OBJ file
# VPXTOOL OBJ file
# numVerts: 578 numFaces: 1040
o Cards
v -388.16498 69.740845 7.3817215
v -388.16492 61.771362 6.209282
v -355.92883 70.37097 3.271721
v -356.2496 57.33972 1.4887772
v -388.16492 51.393433 4.907364
v -340.23816 57.566772 -0.10876465
v -339.74658 70.617065 1.6689835
v -356.4004 44.700806 0.08139801
v -388.16492 41.09851 3.8545303
v -340.23492 49.743286 -1.0200348
v -324.2011 57.741577 -1.4180145
v -323.7126 70.81604 0.37267303
v -356.24554 33.989014 -0.8418503
v -388.1646 31.125977 3.0622482
v -308.14084 57.881958 -2.4362793
v -307.49002 70.972046 -0.64458466
v -324.19757 49.900757 -2.3315735
v -297.0484 63.895386 -2.188568
v -295.37827 71.05652 -1.1967697
v -304.39432 51.903687 -3.3616028
v -280.95734 63.987427 -2.7128983
v -279.29877 71.13269 -1.6921921
v -292.0678 57.981323 -3.1639557
v -340.49335 41.849487 -1.7927322
v -324.46 41.971313 -3.1125565
v -308.4943 42.064697 -4.1348267
v -340.23486 31.50415 -2.6443863
v -356.2461 26.189453 -1.3619919
v -388.16492 21.073975 2.481369
v -324.19522 31.577759 -3.9635239
v -340.23492 23.656006 -3.1082458
v -356.249 15.780029 -1.8386459
v -388.16492 10.682007 2.1176987
v -324.19757 23.708252 -4.4281616
v -356.24554 7.9084473 -2.0350342
v -388.16498 2.5270996 2.0065308
v -340.23633 15.811157 -3.452423
v -356.06638 -0.040039063 -2.1309052
v -388.16492 -5.4804688 2.0254135
v -340.23492 7.91687 -3.6486435
v -324.201 15.836426 -4.7730026
v -308.13806 31.642822 -4.9891663
v -305.3216 23.888794 -5.6114197
v -296.68256 42.121094 -4.7153015
v -300.37585 31.386963 -5.3972244
v -308.1339 15.855591 -5.801285
v -287.0857 52.0343 -4.0518646
v -324.19757 7.923828 -4.9695816
v -300.1038 15.86853 -6.2047806
v -339.96307 -0.043945313 -3.748703
v -304.152 5.6151123 -6.262146
v -323.92523 -0.056030273 -5.064728
v -292.06482 26.425537 -6.0528564
v -292.0648 15.871338 -6.535324
v -287.78357 32.395874 -5.827675
v -280.00488 23.790527 -6.5559998
v -284.28134 41.982544 -5.152481
v -276.54837 31.71814 -6.1509705
v -275.97125 42.18335 -5.3249435
v -284.02066 15.874512 -6.7925797
v -288.04126 7.936035 -6.8789673
v -275.97168 15.86853 -6.976555
v -263.57556 28.955933 -6.4834976
v -287.43005 -0.043701172 -6.9733276
v -263.7031 34.368042 -6.11351
v -263.57574 23.664185 -6.784233
v -263.5711 39.783813 -5.6788483
v -275.6994 5.064575 -7.226532
v -263.56818 44.794067 -5.219963
v -253.03564 42.18811 -5.4479904
v -252.54263 31.730835 -6.2805557
v -275.97815 50.16272 -4.5187454
v -253.04137 23.824097 -6.7513046
v -275.98428 58.042114 -3.6004486
v -263.66797 50.252808 -4.6571198
v -249.2257 50.350952 -4.5956573
v -263.5633 55.466675 -4.059494
v -263.56537 60.723755 -3.3957443
v -263.5617 65.97937 -2.6711273
v -259.92703 71.16565 -1.9084244
v -253.08585 58.266968 -3.696518
v -249.0646 66.29114 -2.5721588
v -240.4646 71.13269 -1.691925
v -243.79022 58.04602 -3.5999374
v -235.7526 63.278442 -2.7242584
v -224.3956 71.05652 -1.1967621
v -232.68872 52.03479 -4.051819
v -243.80168 42.18506 -5.3247604
v -222.72548 63.895386 -2.1885605
v -212.28415 70.972046 -0.64458466
v -227.70482 57.980835 -3.163971
v -211.63528 57.884155 -2.4361038
v -196.06157 70.81604 0.37267303
v -215.38022 51.904663 -3.361496
v -195.57277 57.74353 -1.4177551
v -180.0275 70.617065 1.6689911
v -235.49225 41.98169 -5.1525497
v -179.53592 57.566772 -0.10876465
v -163.84528 70.37097 3.2717285
v -243.2261 31.720581 -6.1508102
v -131.60922 61.771362 6.209282
v -131.60916 69.740845 7.3817215
v -239.76628 23.791992 -6.555847
v -163.5245 57.33972 1.4887848
v -131.60922 51.393433 4.907364
v -163.37372 44.700806 0.08140564
v -131.60919 41.098633 3.8545303
v -179.53922 49.743286 -1.0200348
v -195.57658 49.900757 -2.3315735
v -163.5286 33.989014 -0.8418503
v -131.6095 31.123657 3.0619965
v -179.27962 41.851196 -1.7924576
v -195.31512 41.97229 -3.1125412
v -163.53156 26.18103 -1.3628845
v -131.60919 21.063965 2.480774
v -179.53998 31.500122 -2.6447754
v -163.53192 15.76709 -1.839859
v -131.60919 10.67395 2.1174698
v -179.53922 23.656006 -3.1082458
v -195.57733 31.578125 -3.9633942
v -211.2823 42.065674 -4.1348877
v -163.5286 7.9084473 -2.0350342
v -131.60916 2.5270996 2.0065308
v -179.54012 15.805176 -3.452835
v -195.57658 23.708252 -4.4281616
v -211.63611 31.642822 -4.9891663
v -223.09225 42.12024 -4.715416
v -214.45285 23.888794 -5.611435
v -231.98955 32.39453 -5.8277283
v -219.3974 31.38623 -5.397232
v -227.70932 26.425537 -6.0528564
v -195.57632 15.833252 -4.7733383
v -179.53922 7.91687 -3.6486435
v -163.70953 -0.039916992 -2.1310577
v -131.60922 -5.477295 2.0253754
v -195.57658 7.923828 -4.9695816
v -211.64072 15.856323 -5.801285
v -219.67029 15.86853 -6.2047806
v -227.70935 15.871338 -6.535324
v -215.6222 5.614868 -6.2621536
v -235.75354 15.874512 -6.7925797
v -179.81494 -0.045776367 -3.7490387
v -243.7987 15.870361 -6.9764175
v -231.73283 7.936035 -6.8789673
v -253.06084 15.886963 -7.0991516
v -244.07698 5.067749 -7.2265625
v -263.57 18.385376 -7.0238647
v -263.5812 13.120117 -7.2027817
v -253.05737 7.953247 -7.2956467
v -263.5614 7.805908 -7.3228226
v -253.58437 -0.05114746 -7.375107
v -232.34535 -0.040893555 -6.973366
v -263.3568 2.5378418 -7.3812103
v -263.5691 -2.506836 -7.3817215
v -275.7114 -5.5966797 -7.217552
v -263.5818 -7.805786 -7.322624
v -244.06412 -5.5949707 -7.217575
v -253.01547 -7.960205 -7.2951508
v -263.5912 -13.120117 -7.20269
v -253.04613 -15.907959 -7.0984573
v -231.7427 -7.935669 -6.879181
v -263.57193 -18.389526 -7.0236588
v -243.79504 -15.90918 -6.975029
v -275.98254 -15.908813 -6.974968
v -263.5642 -23.769531 -6.778908
v -249.06393 -23.868408 -6.7202225
v -235.74773 -15.902344 -6.791458
v -215.39526 -6.0776367 -6.242569
v -227.69908 -15.894897 -6.534195
v -235.75479 -26.460205 -6.308548
v -212.00394 -0.053710938 -6.0935287
v -195.8482 -0.055541992 -5.0646667
v -219.6677 -15.875977 -6.2044525
v -195.57658 -7.9249268 -4.9694977
v -222.73505 -25.754883 -5.901993
v -211.63428 -15.867798 -5.800667
v -179.53922 -7.9177246 -3.64859
v -195.57733 -15.846436 -4.7730865
v -211.32413 -28.674072 -5.174988
v -163.5286 -7.9091797 -2.0349426
v -179.54103 -15.813965 -3.4526672
v -163.5293 -15.787476 -1.8389816
v -131.60919 -15.8967285 2.2702637
v -195.58008 -26.365112 -4.2914352
v -179.53976 -26.308472 -2.9715195
v -163.53305 -26.224731 -1.360527
v -131.60919 -26.22754 2.7499084
v -195.09702 -39.36328 -3.339447
v -179.07112 -39.25293 -2.0153427
v -163.21783 -39.112793 -0.41510773
v -131.60974 -38.75757 3.6405258
v -131.60919 -51.391357 4.9068604
v -163.52936 -52.118774 0.86042786
v -131.60919 -61.720947 6.2024612
v -179.53809 -52.315186 -0.7407837
v -163.53119 -62.514526 2.1702423
v -131.60916 -69.74072 7.381531
v -163.5286 -70.36267 3.3270187
v -179.54355 -62.75122 0.5741272
v -179.53922 -70.60718 1.73246
v -195.57394 -52.474976 -2.0518265
v -195.5768 -62.930786 -0.73389435
v -195.57658 -70.807495 0.42713165
v -211.46555 -41.891968 -4.162575
v -211.63612 -52.604492 -3.0717468
v -211.63817 -63.08362 -1.750351
v -211.63542 -70.96326 -0.58872986
v -223.95317 -32.406128 -5.534973
v -219.4129 -42.36084 -4.52063
v -219.66068 -52.640137 -3.4736633
v -223.70059 -63.168823 -2.3318024
v -224.40836 -71.05664 -1.1973572
v -231.12648 -42.152344 -5.0127487
v -227.6983 -52.69153 -3.800438
v -240.02652 -32.43518 -6.0432205
v -235.75063 -52.747803 -4.0530396
v -239.78554 -63.245728 -2.840004
v -240.47934 -71.13257 -1.6921921
v -243.5379 -42.005615 -5.3372803
v -243.7926 -52.758545 -4.2366486
v -253.05095 -63.256836 -3.036766
v -259.91373 -71.16565 -1.908493
v -253.02809 -52.755005 -4.361023
v -253.0494 -42.18811 -5.448082
v -252.95645 -34.305298 -6.092598
v -256.01477 -29.009644 -6.4786987
v -263.79962 -34.418213 -6.1092606
v -266.75095 -29.053589 -6.452339
v -280.96338 -25.77649 -6.43309
v -279.7411 -32.436523 -6.043274
v -263.6611 -39.726563 -5.6832047
v -284.02893 -15.901855 -6.79142
v -263.47324 -44.73584 -5.2262115
v -276.23108 -42.008423 -5.3371277
v -263.56842 -50.31201 -4.6512756
v -288.0303 -7.93396 -6.8792343
v -275.9816 -52.76111 -4.2363434
v -263.56915 -55.57263 -4.046715
v -292.07104 -15.892334 -6.5344543
v -304.38217 -6.078003 -6.2424088
v -263.5887 -60.843994 -3.379776
v -307.77176 -0.056396484 -6.0934525
v -263.58575 -65.907104 -2.6814575
v -279.289 -71.13257 -1.692337
v -279.98297 -63.24597 -2.8401184
v -295.36548 -71.05664 -1.1973648
v -284.0318 -52.7417 -4.0535126
v -296.07324 -63.168823 -2.33181
v -308.13873 -70.96326 -0.58872986
v -288.6504 -42.14563 -5.01326
v -292.07883 -52.685303 -3.8010712
v -308.136 -63.08362 -1.750351
v -324.19757 -70.807495 0.42713165
v -300.1135 -52.63977 -3.4737015
v -324.19733 -62.930786 -0.73389435
v -340.23492 -70.60718 1.73246
v -308.13806 -52.604492 -3.0717468
v -300.6364 -42.101074 -4.532997
v -340.23056 -62.75122 0.5741272
v -356.24554 -70.36267 3.3270187
v -324.2002 -52.474976 -2.0518265
v -308.49207 -42.07361 -4.1342087
v -356.2489 -62.50598 2.1696777
v -388.16498 -69.74072 7.381531
v -388.16492 -61.715454 6.2017136
v -340.23758 -52.312866 -0.7409134
v -356.2477 -52.10132 0.858757
v -388.16492 -51.37671 4.9052963
v -324.67383 -39.36487 -3.3395615
v -340.70514 -39.25232 -2.0151596
v -356.55447 -39.105103 -0.41591644
v -388.16437 -38.754272 3.6403809
v -388.16492 -26.236572 2.7505264
v -356.24475 -26.23413 -1.3595352
v -388.16492 -15.906128 2.270691
v -340.23505 -26.312744 -2.9712143
v -356.25098 -15.803467 -1.8377686
v -324.19763 -26.369385 -4.2909164
v -356.24554 -7.9091797 -2.0349426
v -340.23755 -15.821777 -3.4519882
v -340.23492 -7.9177246 -3.64859
v -324.20053 -15.851929 -4.772629
v -324.19757 -7.9249268 -4.9694977
v -308.1422 -15.87146 -5.8004
v -308.13867 -26.424927 -5.3172913
v -300.10403 -15.873169 -6.2046432
v -297.03693 -25.755737 -5.9020386
v -305.33075 -34.414795 -4.9463043
v -292.33606 -31.437378 -5.727623
v 131.60919 69.740845 7.3817215
v 131.60925 61.771362 6.209282
v 163.84534 70.37097 3.271721
v 163.52454 57.33972 1.4887772
v 131.60925 51.393433 4.907364
v 179.53601 57.566772 -0.10876465
v 180.02759 70.617065 1.6689835
v 163.37378 44.700806 0.08139801
v 131.60925 41.09851 3.8545303
v 179.53925 49.743286 -1.0200348
v 195.57306 57.741577 -1.4180145
v 196.06158 70.81604 0.37267303
v 163.52863 33.989014 -0.8418503
v 131.60956 31.125977 3.0622482
v 211.6333 57.881958 -2.4362793
v 212.28412 70.972046 -0.64458466
v 195.5766 49.900757 -2.3315735
v 222.72577 63.895386 -2.188568
v 224.39587 71.05652 -1.1967697
v 215.37982 51.903687 -3.3616028
v 238.81683 63.987427 -2.7128983
v 240.4754 71.13269 -1.6921921
v 227.70636 57.981323 -3.1639557
v 179.28082 41.849487 -1.7927322
v 195.31415 41.971313 -3.1125565
v 211.27985 42.064697 -4.1348267
v 179.5393 31.50415 -2.6443863
v 163.52808 26.189453 -1.3619919
v 131.60925 21.073975 2.481369
v 195.57892 31.577759 -3.9635239
v 179.53925 23.656006 -3.1082458
v 163.52515 15.780029 -1.8386459
v 131.60925 10.682007 2.1176987
v 195.5766 23.708252 -4.4281616
v 163.52863 7.9084473 -2.0350342
v 131.60919 2.5270996 2.0065308
v 179.53784 15.811157 -3.452423
v 163.70776 -0.040039063 -2.1309052
v 131.60925 -5.4804688 2.0254135
v 179.53925 7.91687 -3.6486435
v 195.57318 15.836426 -4.7730026
v 211.63611 31.642822 -4.9891663
v 214.45258 23.888794 -5.6114197
v 223.09161 42.121094 -4.7153015
v 219.39832 31.386963 -5.3972244
v 211.64026 15.855591 -5.801285
v 232.68848 52.0343 -4.0518646
v 195.5766 7.923828 -4.9695816
v 219.67035 15.86853 -6.2047806
v 179.8111 -0.043945313 -3.748703
v 215.62213 5.6151123 -6.262146
v 195.84888 -0.056030273 -5.064728
v 227.70935 26.425537 -6.0528564
v 227.70935 15.871338 -6.535324
v 231.9906 32.395874 -5.827675
v 239.76929 23.790527 -6.5559998
v 235.4928 41.982544 -5.152481
v 243.22577 31.71814 -6.1509705
v 243.80292 42.18335 -5.3249435
v 235.75348 15.874512 -6.7925797
v 231.73291 7.936035 -6.8789673
v 243.80249 15.86853 -6.976555
v 256.1986 28.955933 -6.4834976
v 232.34412 -0.043701172 -6.9733276
v 256.07104 34.368042 -6.11351
v 256.19843 23.664185 -6.784233
v 256.20306 39.783813 -5.6788483
v 244.07477 5.064575 -7.226532
v 256.206 44.794067 -5.219963
v 266.73853 42.18811 -5.4479904
v 267.2315 31.730835 -6.2805557
v 243.79602 50.16272 -4.5187454
v 266.7328 23.824097 -6.7513046
v 243.78986 58.042114 -3.6004486
v 256.10614 50.252808 -4.6571198
v 270.54846 50.350952 -4.5956573
v 256.21088 55.466675 -4.059494
v 256.2088 60.723755 -3.3957443
v 256.21246 65.97937 -2.6711273
v 259.8471 71.16565 -1.9084244
v 266.6883 58.266968 -3.696518
v 270.70953 66.29114 -2.5721588
v 279.30957 71.13269 -1.691925
v 275.98395 58.04602 -3.5999374
v 284.02155 63.278442 -2.7242584
v 295.37854 71.05652 -1.1967621
v 287.08545 52.03479 -4.051819
v 275.97247 42.18506 -5.3247604
v 297.0487 63.895386 -2.1885605
v 307.49 70.972046 -0.64458466
v 292.06934 57.980835 -3.163971
v 308.13885 57.884155 -2.4361038
v 323.7126 70.81604 0.37267303
v 304.39392 51.904663 -3.361496
v 324.20142 57.74353 -1.4177551
v 339.74664 70.617065 1.6689911
v 284.28192 41.98169 -5.1525497
v 340.23822 57.566772 -0.10876465
v 355.9289 70.37097 3.2717285
v 276.54803 31.720581 -6.1508102
v 388.16492 61.771362 6.209282
v 388.16498 69.740845 7.3817215
v 280.00787 23.791992 -6.555847
v 356.24963 57.33972 1.4887848
v 388.16492 51.393433 4.907364
v 356.40045 44.700806 0.08140564
v 388.16492 41.098633 3.8545303
v 340.23492 49.743286 -1.0200348
v 324.19757 49.900757 -2.3315735
v 356.24554 33.989014 -0.8418503
v 388.16467 31.123657 3.0619965
v 340.4945 41.851196 -1.7924576
v 324.45905 41.97229 -3.1125412
v 356.2426 26.18103 -1.3628845
v 388.16498 21.063965 2.480774
v 340.2342 31.500122 -2.6447754
v 356.2422 15.76709 -1.839859
v 388.16492 10.67395 2.1174698
v 340.23492 23.656006 -3.1082458
v 324.19684 31.578125 -3.9633942
v 308.49182 42.065674 -4.1348877
v 356.24554 7.9084473 -2.0350342
v 388.16498 2.5270996 2.0065308
v 340.234 15.805176 -3.452835
v 324.19757 23.708252 -4.4281616
v 308.13806 31.642822 -4.9891663
v 296.6819 42.12024 -4.715416
v 305.3213 23.888794 -5.611435
v 287.7846 32.39453 -5.8277283
v 300.37677 31.38623 -5.397232
v 292.06482 26.425537 -6.0528564
v 324.1978 15.833252 -4.7733383
v 340.23492 7.91687 -3.6486435
v 356.06464 -0.039916992 -2.1310577
v 388.16492 -5.477295 2.0253754
v 324.19757 7.923828 -4.9695816
v 308.13342 15.856323 -5.801285
v 300.10388 15.86853 -6.2047806
v 292.06482 15.871338 -6.535324
v 304.15198 5.614868 -6.2621536
v 284.02063 15.874512 -6.7925797
v 339.95923 -0.045776367 -3.7490387
v 275.97546 15.870361 -6.9764175
v 288.04132 7.936035 -6.8789673
v 266.71332 15.886963 -7.0991516
v 275.69714 5.067749 -7.2265625
v 256.20416 18.385376 -7.0238647
v 256.19293 13.120117 -7.2027817
v 266.7168 7.953247 -7.2956467
v 256.2127 7.805908 -7.3228226
v 266.18982 -0.05114746 -7.375107
v 287.42877 -0.040893555 -6.973366
v 256.41736 2.5378418 -7.3812103
v 256.20508 -2.506836 -7.3817215
v 244.06274 -5.5966797 -7.217552
v 256.19232 -7.805786 -7.322624
v 275.71002 -5.5949707 -7.217575
v 266.75867 -7.960205 -7.2951508
v 256.18298 -13.120117 -7.20269
v 266.72803 -15.907959 -7.0984573
v 288.03143 -7.935669 -6.879181
v 256.2022 -18.389526 -7.0236588
v 275.97913 -15.90918 -6.975029
v 243.79163 -15.908813 -6.974968
v 256.20996 -23.769531 -6.778908
v 270.7102 -23.868408 -6.7202225
v 284.02643 -15.902344 -6.791458
v 304.3789 -6.0776367 -6.242569
v 292.07507 -15.894897 -6.534195
v 284.01935 -26.460205 -6.308548
v 307.7702 -0.053710938 -6.0935287
v 323.92596 -0.055541992 -5.0646667
v 300.10645 -15.875977 -6.2044525
v 324.19757 -7.9249268 -4.9694977
v 297.03912 -25.754883 -5.901993
v 308.1399 -15.867798 -5.800667
v 340.23492 -7.9177246 -3.64859
v 324.19684 -15.846436 -4.7730865
v 308.45 -28.674072 -5.174988
v 356.24554 -7.9091797 -2.0349426
v 340.23315 -15.813965 -3.4526672
v 356.24487 -15.787476 -1.8389816
v 388.16492 -15.8967285 2.2702637
v 324.1941 -26.365112 -4.2914352
v 340.23438 -26.308472 -2.9715195
v 356.2411 -26.224731 -1.360527
v 388.16498 -26.22754 2.7499084
v 324.67712 -39.36328 -3.339447
v 340.703 -39.25293 -2.0153427
v 356.55634 -39.112793 -0.41510773
v 388.16443 -38.75757 3.6405258
v 388.16492 -51.391357 4.9068604
v 356.24475 -52.118774 0.86042786
v 388.16492 -61.720947 6.2024612
v 340.23608 -52.315186 -0.7407837
v 356.24298 -62.514526 2.1702423
v 388.16498 -69.74072 7.381531
v 356.24554 -70.36267 3.3270187
v 340.2306 -62.75122 0.5741272
v 340.23492 -70.60718 1.73246
v 324.2002 -52.474976 -2.0518265
v 324.1974 -62.930786 -0.73389435
v 324.19757 -70.807495 0.42713165
v 308.3086 -41.891968 -4.162575
v 308.13806 -52.604492 -3.0717468
v 308.136 -63.08362 -1.750351
v 308.13873 -70.96326 -0.58872986
v 295.82098 -32.406128 -5.534973
v 300.36127 -42.36084 -4.52063
v 300.11346 -52.640137 -3.4736633
v 296.07355 -63.168823 -2.3318024
v 295.36578 -71.05664 -1.1973572
v 288.6477 -42.152344 -5.0127487
v 292.07587 -52.69153 -3.800438
v 279.74762 -32.43518 -6.0432205
v 284.02356 -52.747803 -4.0530396
v 279.98865 -63.245728 -2.840004
v 279.2948 -71.13257 -1.6921921
v 276.23627 -42.005615 -5.3372803
v 275.98157 -52.758545 -4.2366486
v 266.7232 -63.256836 -3.036766
v 259.8604 -71.16565 -1.908493
v 266.7461 -52.755005 -4.361023
v 266.72473 -42.18811 -5.448082
v 266.8177 -34.305298 -6.092598
v 263.7594 -29.009644 -6.4786987
v 255.97449 -34.418213 -6.1092606
v 253.0232 -29.053589 -6.452339
v 238.81079 -25.77649 -6.43309
v 240.03308 -32.436523 -6.043274
v 256.11304 -39.726563 -5.6832047
v 235.74524 -15.901855 -6.79142
v 256.3009 -44.73584 -5.2262115
v 243.54303 -42.008423 -5.3371277
v 256.20575 -50.31201 -4.6512756
v 231.74384 -7.93396 -6.8792343
v 243.79254 -52.76111 -4.2363434
v 256.20496 -55.57263 -4.046715
v 227.70313 -15.892334 -6.5344543
v 215.39197 -6.078003 -6.2424088
v 256.18542 -60.843994 -3.379776
v 212.00238 -0.056396484 -6.0934525
v 256.18842 -65.907104 -2.6814575
v 240.48517 -71.13257 -1.692337
v 239.79114 -63.24597 -2.8401184
v 224.40869 -71.05664 -1.1973648
v 235.74237 -52.7417 -4.0535126
v 223.70093 -63.168823 -2.33181
v 211.63544 -70.96326 -0.58872986
v 231.12378 -42.14563 -5.01326
v 227.69531 -52.685303 -3.8010712
v 211.63818 -63.08362 -1.750351
v 195.5766 -70.807495 0.42713165
v 219.66064 -52.63977 -3.4737015
v 195.57684 -62.930786 -0.73389435
v 179.53925 -70.60718 1.73246
v 211.63611 -52.604492 -3.0717468
v 219.13776 -42.101074 -4.532997
v 179.54358 -62.75122 0.5741272
v 163.52863 -70.36267 3.3270187
v 195.57397 -52.474976 -2.0518265
v 211.2821 -42.07361 -4.1342087
v 163.52527 -62.50598 2.1696777
v 131.60919 -69.74072 7.381531
v 131.60925 -61.715454 6.2017136
v 179.53656 -52.312866 -0.7409134
v 163.52643 -52.10132 0.858757
v 131.60925 -51.37671 4.9052963
v 195.10034 -39.36487 -3.3395615
v 179.06903 -39.25232 -2.0151596
v 163.21967 -39.105103 -0.41591644
v 131.6098 -38.754272 3.6403809
v 131.60925 -26.236572 2.7505264
v 163.52942 -26.23413 -1.3595352
v 131.60925 -15.906128 2.270691
v 179.53912 -26.312744 -2.9712143
v 163.5232 -15.803467 -1.8377686
v 195.57654 -26.369385 -4.2909164
v 163.52863 -7.9091797 -2.0349426
v 179.53662 -15.821777 -3.4519882
v 179.53925 -7.9177246 -3.64859
v 195.57361 -15.851929 -4.772629
v 195.5766 -7.9249268 -4.9694977
v 211.63196 -15.87146 -5.8004
v 211.63544 -26.424927 -5.3172913
v 219.6701 -15.873169 -6.2046432
v 222.73724 -25.755737 -5.9020386
v 214.44342 -34.414795 -4.9463043
v 227.43811 -31.437378 -5.727623
vt 0.0002 0.0041999817
vt 0.0006 0.032400012
vt 0.1264 0.002399981
vt 0.1257 0.048600018
vt 0.0011 0.06919998
vt 0.1882 0.04790002
vt 0.1895 0.0016000271
vt 0.1256 0.09319997
vt 0.0015 0.10549998
vt 0.1884 0.07550001
vt 0.2506 0.047399998
vt 0.252 0.0009999871
vt 0.1265 0.13080001
vt 0.0018 0.14059997
vt 0.313 0.046899974
vt 0.3152 0.00059998035
vt 0.2508 0.07499999
vt 0.3559 0.025699973
vt 0.3623 0.00029999018
vt 0.3276 0.068099976
vt 0.4184 0.025399983
vt 0.4247 0.000100016594
vt 0.3753 0.046599984
vt 0.1877 0.103299975
vt 0.25 0.10290003
vt 0.3119 0.102699995
vt 0.1889 0.13959998
vt 0.1267 0.15820003
vt 0.002 0.17589998
vt 0.2512 0.1394
vt 0.189 0.16710001
vt 0.1268 0.1947
vt 0.0022 0.21240002
vt 0.2513 0.167
vt 0.1269 0.22220004
vt 0.0022 0.24110001
vt 0.1891 0.19459999
vt 0.1276 0.25010002
vt 0.0022 0.26919997
vt 0.1892 0.22220004
vt 0.2513 0.19459999
vt 0.3134 0.13929999
vt 0.3244 0.16640002
vt 0.3577 0.10250002
vt 0.3435 0.14020002
vt 0.3136 0.19449997
vt 0.3947 0.06760001
vt 0.2514 0.22220004
vt 0.3446 0.19449997
vt 0.1903 0.25010002
vt 0.329 0.23030001
vt 0.2525 0.25010002
vt 0.3757 0.15759999
vt 0.3757 0.19449997
vt 0.3922 0.13670003
vt 0.4223 0.16680002
vt 0.4057 0.102999985
vt 0.4357 0.139
vt 0.4378 0.10229999
vt 0.4068 0.19449997
vt 0.3913 0.22220004
vt 0.4379 0.19449997
vt 0.4858 0.1487
vt 0.3937 0.25010002
vt 0.4853 0.12980002
vt 0.4858 0.16729999
vt 0.4858 0.11080003
vt 0.439 0.23229998
vt 0.4858 0.09319997
vt 0.5266 0.10229999
vt 0.5285 0.139
vt 0.4378 0.07429999
vt 0.5265 0.1667
vt 0.4377 0.046500027
vt 0.4854 0.074
vt 0.5413 0.073599994
vt 0.4858 0.055599988
vt 0.4858 0.037
vt 0.4858 0.018400013
vt 0.4999 0
vt 0.5264 0.045700014
vt 0.542 0.01730001
vt 0.5755 0.000100016594
vt 0.5624 0.046500027
vt 0.5937 0.02789998
vt 0.6379 0.00029999018
vt 0.6054 0.06760001
vt 0.5623 0.10229999
vt 0.6442 0.025699973
vt 0.685 0.00059998035
vt 0.6248 0.046599984
vt 0.6872 0.046899974
vt 0.7481 0.0009999871
vt 0.6725 0.068099976
vt 0.7496 0.047399998
vt 0.8106 0.0016000271
vt 0.5945 0.102999985
vt 0.812 0.04790002
vt 0.8738 0.002399981
vt 0.5645 0.139
vt 0.9995 0.03250003
vt 1 0.0041999817
vt 0.5778 0.16680002
vt 0.8744 0.048600018
vt 0.999 0.06919998
vt 0.8745 0.09319997
vt 0.9986 0.10549998
vt 0.8117 0.07550001
vt 0.7494 0.07499999
vt 0.8736 0.13080001
vt 0.9983 0.14059997
vt 0.8125 0.103299975
vt 0.7502 0.10290003
vt 0.8734 0.15820003
vt 0.9981 0.176
vt 0.8112 0.1397
vt 0.8733 0.1947
vt 0.998 0.21249998
vt 0.8111 0.16719997
vt 0.749 0.1394
vt 0.6882 0.102699995
vt 0.8732 0.2223
vt 0.9979 0.24110001
vt 0.811 0.1947
vt 0.7489 0.167
vt 0.6867 0.13929999
vt 0.6425 0.10250002
vt 0.6757 0.16640002
vt 0.6079 0.13670003
vt 0.6567 0.14020002
vt 0.6245 0.15759999
vt 0.7488 0.19459999
vt 0.811 0.2223
vt 0.8725 0.25010002
vt 0.998 0.26919997
vt 0.7487 0.2223
vt 0.6866 0.19449997
vt 0.6555 0.19449997
vt 0.6244 0.19449997
vt 0.6711 0.23030001
vt 0.5933 0.19449997
vt 0.8099 0.25010002
vt 0.5622 0.19449997
vt 0.6088 0.22220004
vt 0.5264 0.19449997
vt 0.5611 0.23229998
vt 0.4858 0.1857
vt 0.4858 0.20410001
vt 0.5264 0.22220004
vt 0.4859 0.2227
vt 0.5244 0.25010002
vt 0.6064 0.25010002
vt 0.4867 0.24110001
vt 0.4858 0.2587
vt 0.4389 0.26950002
vt 0.4858 0.27719998
vt 0.5612 0.26950002
vt 0.5266 0.27779996
vt 0.4858 0.29579997
vt 0.5265 0.30550003
vt 0.6088 0.2777
vt 0.4858 0.31420004
vt 0.5622 0.30550003
vt 0.4379 0.30550003
vt 0.4858 0.333
vt 0.5419 0.3334
vt 0.5933 0.30550003
vt 0.672 0.2712
vt 0.6244 0.30550003
vt 0.5933 0.34249997
vt 0.6851 0.25010002
vt 0.7477 0.25020003
vt 0.6555 0.3054
vt 0.7487 0.2777
vt 0.6437 0.34000003
vt 0.6866 0.3054
vt 0.811 0.2777
vt 0.7488 0.3054
vt 0.6879 0.3503
vt 0.8732 0.2776
vt 0.811 0.3053
vt 0.8733 0.30519998
vt 0.998 0.30579996
vt 0.7489 0.34220004
vt 0.8112 0.342
vt 0.8734 0.34179997
vt 0.9982 0.34210002
vt 0.751 0.38779998
vt 0.8132 0.3875
vt 0.875 0.38709998
vt 0.9985 0.3862
vt 0.999 0.4307
vt 0.8742 0.4329
vt 0.9995 0.4673
vt 0.8118 0.4335
vt 0.8746 0.46969998
vt 1 0.49580002
vt 0.875 0.4975
vt 0.8122 0.47039998
vt 0.8125 0.49829996
vt 0.7494 0.43400002
vt 0.7497 0.4709
vt 0.75 0.4989
vt 0.6875 0.3966
vt 0.6871 0.43439996
vt 0.6873 0.47140002
vt 0.6875 0.4993
vt 0.639 0.36329997
vt 0.6567 0.3983
vt 0.6559 0.43449998
vt 0.6404 0.4716
vt 0.6378 0.4996
vt 0.6114 0.39750004
vt 0.6248 0.4346
vt 0.5768 0.36339998
vt 0.5935 0.43480003
vt 0.578 0.4719
vt 0.5754 0.49989998
vt 0.5633 0.397
vt 0.5624 0.43480003
vt 0.5265 0.4719
vt 0.4999 0.49989998
vt 0.5266 0.43480003
vt 0.5265 0.3976
vt 0.5269 0.3699
vt 0.515 0.35140002
vt 0.4849 0.3703
vt 0.4735 0.35150003
vt 0.4186 0.3401
vt 0.4233 0.36339998
vt 0.4855 0.38890004
vt 0.4068 0.30550003
vt 0.4862 0.40649998
vt 0.4368 0.397
vt 0.4858 0.42620003
vt 0.3913 0.2777
vt 0.4377 0.43480003
vt 0.4858 0.4447
vt 0.3757 0.30550003
vt 0.3281 0.2712
vt 0.4857 0.4633
vt 0.315 0.25010002
vt 0.4857 0.4813
vt 0.4247 0.49979997
vt 0.4221 0.4719
vt 0.3623 0.4996
vt 0.4065 0.43480003
vt 0.3597 0.4716
vt 0.3126 0.4993
vt 0.3887 0.39750004
vt 0.3753 0.4346
vt 0.3128 0.4713
vt 0.2501 0.49880004
vt 0.3442 0.43439996
vt 0.2504 0.4709
vt 0.1876 0.4982
vt 0.313 0.4343
vt 0.3423 0.3973
vt 0.188 0.47029996
vt 0.1251 0.4975
vt 0.2507 0.4339
vt 0.3119 0.3972
vt 0.1255 0.46959996
vt 0.0001 0.4957
vt 0.0006 0.46720004
vt 0.1883 0.43340003
vt 0.1259 0.4328
vt 0.0011 0.4306
vt 0.2492 0.38779998
vt 0.1869 0.38740003
vt 0.1252 0.38699996
vt 0.0016 0.3861
vt 0.0019 0.34210002
vt 0.1267 0.34179997
vt 0.0021 0.30579996
vt 0.189 0.342
vt 0.1268 0.3053
vt 0.2512 0.34220004
vt 0.1269 0.2776
vt 0.1891 0.3053
vt 0.1892 0.2776
vt 0.2513 0.3054
vt 0.2514 0.2776
vt 0.3135 0.3054
vt 0.3135 0.3423
vt 0.3446 0.3054
vt 0.3564 0.34000003
vt 0.3242 0.3703
vt 0.3746 0.3599
vt 0.0002 0.50419998
vt 0.0006 0.53250003
vt 0.1264 0.50239998
vt 0.1257 0.54860002
vt 0.0011 0.56919998
vt 0.1882 0.54790002
vt 0.1895 0.50169998
vt 0.1256 0.59320003
vt 0.0015 0.6056
vt 0.1884 0.57560003
vt 0.2506 0.5474
vt 0.252 0.5011
vt 0.1265 0.63090003
vt 0.0018 0.64069998
vt 0.313 0.547
vt 0.3152 0.50059998
vt 0.2508 0.5751
vt 0.3559 0.5258
vt 0.3623 0.5004
vt 0.3276 0.56809998
vt 0.4184 0.5255
vt 0.4247 0.50010002
vt 0.3753 0.5467
vt 0.1877 0.6034
vt 0.25 0.603
vt 0.3119 0.6027
vt 0.1889 0.6397
vt 0.1267 0.65829998
vt 0.002 0.676
vt 0.2512 0.63950002
vt 0.189 0.66720003
vt 0.1268 0.6947
vt 0.0022 0.71249998
vt 0.2513 0.6671
vt 0.1269 0.7223
vt 0.0022 0.7411
vt 0.1891 0.6947
vt 0.1276 0.75010002
vt 0.0022 0.76920003
vt 0.1892 0.7223
vt 0.2513 0.6946
vt 0.3134 0.6393
vt 0.3244 0.66649997
vt 0.3577 0.60259998
vt 0.3435 0.64020002
vt 0.3136 0.6946
vt 0.3947 0.56770003
vt 0.2514 0.7223
vt 0.3446 0.6946
vt 0.1903 0.75019997
vt 0.329 0.73040003
vt 0.2525 0.75019997
vt 0.3757 0.6576
vt 0.3757 0.6946
vt 0.3922 0.63669997
vt 0.4223 0.66689998
vt 0.4057 0.6031
vt 0.4357 0.63910002
vt 0.4378 0.6024
vt 0.4068 0.6946
vt 0.3913 0.7223
vt 0.4379 0.6946
vt 0.4858 0.64880002
vt 0.3937 0.75019997
vt 0.4853 0.62980002
vt 0.4858 0.6673
vt 0.4858 0.61080003
vt 0.439 0.73229998
vt 0.4858 0.59320003
vt 0.5266 0.6024
vt 0.5285 0.63910002
vt 0.4378 0.5743
vt 0.5265 0.66680002
vt 0.4377 0.54650003
vt 0.4854 0.574
vt 0.5413 0.5737
vt 0.4858 0.5556
vt 0.4858 0.53710002
vt 0.4858 0.51849997
vt 0.4999 0.50010002
vt 0.5264 0.54579997
vt 0.542 0.51740003
vt 0.5755 0.50010002
vt 0.5624 0.54650003
vt 0.5937 0.528
vt 0.6379 0.5004
vt 0.6054 0.56770003
vt 0.5623 0.6024
vt 0.6442 0.5258
vt 0.685 0.50059998
vt 0.6248 0.5467
vt 0.6872 0.547
vt 0.7481 0.5011
vt 0.6725 0.56809998
vt 0.7496 0.5474
vt 0.8106 0.50169998
vt 0.5945 0.6031
vt 0.812 0.54799998
vt 0.8738 0.50239998
vt 0.5645 0.63910002
vt 0.9995 0.53250003
vt 1 0.50419998
vt 0.5778 0.66689998
vt 0.8744 0.54860002
vt 0.999 0.56919998
vt 0.8745 0.59320003
vt 0.9986 0.6056
vt 0.8117 0.57560003
vt 0.7494 0.5751
vt 0.8736 0.63090003
vt 0.9983 0.64069998
vt 0.8125 0.6034
vt 0.7502 0.603
vt 0.8734 0.65829998
vt 0.9981 0.67610002
vt 0.8112 0.6397
vt 0.8733 0.69480002
vt 0.998 0.7126
vt 0.8111 0.66720003
vt 0.749 0.63950002
vt 0.6882 0.6027
vt 0.8732 0.7223
vt 0.9979 0.74119997
vt 0.811 0.6947
vt 0.7489 0.6671
vt 0.6867 0.6393
vt 0.6425 0.60259998
vt 0.6757 0.66649997
vt 0.6079 0.63669997
vt 0.6567 0.64020002
vt 0.6245 0.6576
vt 0.7488 0.6947
vt 0.811 0.7223
vt 0.8725 0.75019997
vt 0.998 0.76920003
vt 0.7487 0.7223
vt 0.6866 0.6946
vt 0.6555 0.6946
vt 0.6244 0.6946
vt 0.6711 0.73040003
vt 0.5933 0.6946
vt 0.8099 0.75019997
vt 0.5622 0.6946
vt 0.6088 0.7223
vt 0.5264 0.69450003
vt 0.5611 0.73229998
vt 0.4858 0.68580002
vt 0.4858 0.70420003
vt 0.5264 0.72219998
vt 0.4859 0.72280002
vt 0.5244 0.75019997
vt 0.6064 0.75019997
vt 0.4867 0.74119997
vt 0.4858 0.75880003
vt 0.4389 0.76959997
vt 0.4858 0.7773
vt 0.5612 0.76959997
vt 0.5266 0.77780002
vt 0.4858 0.79589999
vt 0.5265 0.80559999
vt 0.6088 0.7777
vt 0.4858 0.8143
vt 0.5622 0.80559999
vt 0.4379 0.80559999
vt 0.4858 0.83310002
vt 0.5419 0.83340001
vt 0.5933 0.80559999
vt 0.672 0.77130002
vt 0.6244 0.80559999
vt 0.5933 0.84249997
vt 0.6851 0.75019997
vt 0.7477 0.75019997
vt 0.6555 0.80549997
vt 0.7487 0.7777
vt 0.6437 0.84009999
vt 0.6866 0.80549997
vt 0.811 0.7777
vt 0.7488 0.80540001
vt 0.6879 0.85030001
vt 0.8732 0.7777
vt 0.811 0.80540001
vt 0.8733 0.8053
vt 0.998 0.80580002
vt 0.7489 0.8423
vt 0.8112 0.84210002
vt 0.8734 0.84189999
vt 0.9982 0.84210002
vt 0.751 0.887899995
vt 0.8132 0.88749999
vt 0.875 0.8872
vt 0.9985 0.88620001
vt 0.999 0.93080002
vt 0.8742 0.93300003
vt 0.9995 0.967400014
vt 0.8118 0.93349999
vt 0.8746 0.969699979
vt 1 0.9958000183
vt 0.875 0.997600019
vt 0.8122 0.970399976
vt 0.8125 0.9983000159
vt 0.7494 0.934000015
vt 0.7497 0.971000016
vt 0.75 0.9988999963
vt 0.6875 0.896700025
vt 0.6871 0.93440002
vt 0.6873 0.97149998
vt 0.6875 0.99940001965
vt 0.639 0.86339998
vt 0.6567 0.89829999
vt 0.6559 0.93449998
vt 0.6404 0.971700013
vt 0.6378 0.99970000982
vt 0.6114 0.897599995
vt 0.6248 0.93470001
vt 0.5768 0.8635
vt 0.5935 0.934899986
vt 0.578 0.971899986
vt 0.5754 0.999899983406
vt 0.5633 0.897000015
vt 0.5624 0.934899986
vt 0.5265 0.972000003
vt 0.4999 1
vt 0.5266 0.934899986
vt 0.5265 0.89770001
vt 0.5269 0.87
vt 0.515 0.85140002
vt 0.4849 0.87040001
vt 0.4735 0.85159999
vt 0.4186 0.84009999
vt 0.4233 0.86339998
vt 0.4855 0.889
vt 0.4068 0.80559999
vt 0.4862 0.9066
vt 0.4368 0.897000015
vt 0.4858 0.92619997
vt 0.3913 0.7777
vt 0.4377 0.934899986
vt 0.4858 0.94480002
vt 0.3757 0.80549997
vt 0.3281 0.77130002
vt 0.4857 0.963400006
vt 0.315 0.75019997
vt 0.4857 0.981299996
vt 0.4247 0.999899983406
vt 0.4221 0.971899986
vt 0.3623 0.99970000982
vt 0.4065 0.93480003
vt 0.3597 0.971700013
vt 0.3126 0.99940001965
vt 0.3887 0.89749998
vt 0.3753 0.934599996
vt 0.3128 0.971400023
vt 0.2501 0.9988999963
vt 0.3442 0.93449998
vt 0.2504 0.9709
vt 0.1876 0.9983000159
vt 0.313 0.93440002
vt 0.3423 0.89740002
vt 0.188 0.970399976
vt 0.1251 0.9975000024
vt 0.2507 0.934000015
vt 0.3119 0.897300005
vt 0.1255 0.969600022
vt 0.0001 0.9958000183
vt 0.0006 0.967299998
vt 0.1883 0.93349999
vt 0.1259 0.93290001
vt 0.0011 0.930700004
vt 0.2492 0.88779998
vt 0.1869 0.88749999
vt 0.1252 0.88709998
vt 0.0016 0.88620001
vt 0.0019 0.84210002
vt 0.1267 0.84189999
vt 0.0021 0.80580002
vt 0.189 0.84210002
vt 0.1268 0.8053
vt 0.2512 0.8423
vt 0.1269 0.7777
vt 0.1891 0.80540001
vt 0.1892 0.7777
vt 0.2513 0.80540001
vt 0.2514 0.7777
vt 0.3135 0.80549997
vt 0.3135 0.84240001
vt 0.3446 0.80549997
vt 0.3564 0.84009999
vt 0.3242 0.87040001
vt 0.3746 0.86000001
vn -0.1279 0.1444 -0.9812
vn -0.1279 0.134 -0.9827
vn -0.113 0.1381 -0.9839
vn -0.1137 0.1246 -0.9857
vn -0.1282 0.1122 -0.9854
vn -0.0912 0.1264 -0.9878
vn -0.0905 0.1379 -0.9863
vn -0.1142 0.0974 -0.9886
vn -0.1281 0.0895 -0.9877
vn -0.091 0.1079 -0.99
vn -0.0728 0.1265 -0.9893
vn -0.0723 0.1381 -0.9878
vn -0.114 0.0749 -0.9906
vn -0.1281 0.068 -0.9894
vn -0.0576 0.1266 -0.9903
vn -0.0566 0.14 -0.9885
vn -0.0726 0.1079 -0.9915
vn -0.0425 0.1372 -0.9896
vn -0.0383 0.1465 -0.9885
vn -0.0511 0.1114 -0.9924
vn -0.0242 0.138 -0.9901
vn -0.0211 0.1471 -0.9889
vn -0.0366 0.1249 -0.9915
vn -0.0911 0.0896 -0.9918
vn -0.0733 0.0898 -0.9932
vn -0.0572 0.0905 -0.9942
vn -0.0908 0.0691 -0.9934
vn -0.114 0.0558 -0.9919
vn -0.1282 0.0459 -0.9907
vn -0.0729 0.0691 -0.9949
vn -0.091 0.051 -0.9945
vn -0.1137 0.0349 -0.9929
vn -0.128 0.0239 -0.9915
vn -0.0727 0.0511 -0.996
vn -0.1137 0.017 -0.9933
vn -0.1279 0.0056 -0.9918
vn -0.0912 0.0342 -0.9952
vn -0.1134 0 -0.9935
vn -0.1278 -0.013 -0.9917
vn -0.0912 0.0171 -0.9957
vn -0.0728 0.0343 -0.9967
vn -0.0573 0.0696 -0.9959
vn -0.053 0.0512 -0.9973
vn -0.0418 0.0909 -0.995
vn -0.0456 0.0695 -0.9965
vn -0.0581 0.0336 -0.9977
vn -0.0308 0.1116 -0.9933
vn -0.0727 0.017 -0.9972
vn -0.0444 0.0338 -0.9984
vn -0.0908 -0 -0.9958
vn -0.0504 0.0126 -0.9986
vn -0.0723 -0.0001 -0.9974
vn -0.0368 0.0548 -0.9978
vn -0.0372 0.0348 -0.9987
vn -0.0314 0.0709 -0.997
vn -0.0223 0.0514 -0.9984
vn -0.0276 0.0908 -0.9955
vn -0.018 0.0689 -0.9974
vn -0.0179 0.0905 -0.9957
vn -0.0274 0.0342 -0.999
vn -0.0325 0.0173 -0.9993
vn -0.0172 0.0335 -0.9993
vn -0.0051 0.0619 -0.998
vn -0.0321 -0.0002 -0.9995
vn -0.0049 0.0748 -0.9972
vn -0.0053 0.0509 -0.9987
vn -0.0047 0.0849 -0.9964
vn -0.0178 0.0111 -0.9998
vn -0.0045 0.0974 -0.9952
vn 0.0076 0.0902 -0.9959
vn 0.0089 0.069 -0.9976
vn -0.018 0.1078 -0.994
vn 0.0085 0.0514 -0.9986
vn -0.0175 0.1252 -0.992
vn -0.0045 0.1084 -0.9941
vn 0.0124 0.1083 -0.994
vn -0.0047 0.1188 -0.9929
vn -0.0049 0.1317 -0.9913
vn -0.0059 0.143 -0.9897
vn 0.0001 0.1484 -0.9889
vn 0.0069 0.1258 -0.992
vn 0.0119 0.145 -0.9893
vn 0.0227 0.1474 -0.9888
vn 0.0193 0.1248 -0.992
vn 0.0277 0.1369 -0.9902
vn 0.0385 0.1467 -0.9884
vn 0.0305 0.1114 -0.9933
vn 0.0188 0.0907 -0.9957
vn 0.0428 0.1372 -0.9896
vn 0.0566 0.14 -0.9885
vn 0.037 0.1244 -0.9915
vn 0.0576 0.1266 -0.9903
vn 0.0723 0.1381 -0.9878
vn 0.0511 0.1114 -0.9924
vn 0.0728 0.1265 -0.9893
vn 0.0905 0.1379 -0.9863
vn 0.0276 0.0908 -0.9955
vn 0.0912 0.1264 -0.9878
vn 0.113 0.1381 -0.9839
vn 0.0184 0.0689 -0.9974
vn 0.1279 0.134 -0.9827
vn 0.1279 0.1444 -0.9812
vn 0.0227 0.0515 -0.9984
vn 0.1137 0.1246 -0.9857
vn 0.1282 0.1122 -0.9854
vn 0.1142 0.0974 -0.9886
vn 0.1281 0.0895 -0.9877
vn 0.091 0.1079 -0.99
vn 0.0726 0.1079 -0.9915
vn 0.114 0.0748 -0.9906
vn 0.1281 0.068 -0.9894
vn 0.0911 0.0896 -0.9918
vn 0.0733 0.0898 -0.9932
vn 0.114 0.0558 -0.9919
vn 0.1282 0.0459 -0.9907
vn 0.0908 0.0691 -0.9934
vn 0.1137 0.0349 -0.9929
vn 0.128 0.0239 -0.9915
vn 0.091 0.051 -0.9945
vn 0.0729 0.0691 -0.9949
vn 0.0572 0.0905 -0.9942
vn 0.1137 0.017 -0.9933
vn 0.1279 0.0056 -0.9918
vn 0.0912 0.0342 -0.9952
vn 0.0727 0.0511 -0.996
vn 0.0573 0.0696 -0.9959
vn 0.0418 0.0909 -0.995
vn 0.053 0.0512 -0.9973
vn 0.0314 0.0709 -0.997
vn 0.0456 0.0695 -0.9965
vn 0.0368 0.0548 -0.9978
vn 0.0728 0.0343 -0.9967
vn 0.0912 0.0171 -0.9957
vn 0.1134 0 -0.9935
vn 0.1278 -0.0129 -0.9917
vn 0.0727 0.017 -0.9972
vn 0.0581 0.0336 -0.9977
vn 0.0444 0.0338 -0.9984
vn 0.0372 0.0348 -0.9987
vn 0.0504 0.0126 -0.9986
vn 0.0274 0.0342 -0.999
vn 0.0908 -0 -0.9958
vn 0.0177 0.0331 -0.9993
vn 0.0325 0.0173 -0.9993
vn 0.0083 0.0341 -0.9994
vn 0.0184 0.0114 -0.9998
vn -0.0048 0.0404 -0.9991
vn -0.0051 0.0277 -0.9996
vn 0.0083 0.0178 -0.9998
vn -0.0046 0.017 -0.9998
vn 0.0073 -0.0001 -1
vn 0.0321 -0.0002 -0.9995
vn -0.0044 0.0058 -1
vn -0.0049 -0.0055 -1
vn -0.0178 -0.0122 -0.9998
vn -0.0046 -0.017 -0.9998
vn 0.0184 -0.0125 -0.9997
vn 0.0082 -0.0177 -0.9998
vn -0.005 -0.0277 -0.9996
vn 0.0077 -0.034 -0.9994
vn 0.0325 -0.0172 -0.9993
vn -0.0048 -0.0405 -0.9991
vn 0.019 -0.034 -0.9992
vn -0.0175 -0.0343 -0.9992
vn -0.0049 -0.051 -0.9987
vn 0.0129 -0.052 -0.9985
vn 0.0266 -0.035 -0.999
vn 0.0506 -0.0134 -0.9986
vn 0.0369 -0.0346 -0.9987
vn 0.0279 -0.0553 -0.9981
vn 0.0576 -0.0002 -0.9983
vn 0.0723 -0.0001 -0.9974
vn 0.0455 -0.0341 -0.9984
vn 0.0727 -0.0171 -0.9972
vn 0.0422 -0.0536 -0.9977
vn 0.0575 -0.0352 -0.9977
vn 0.0912 -0.0172 -0.9957
vn 0.0728 -0.0353 -0.9967
vn 0.0571 -0.0619 -0.9964
vn 0.114 -0.0173 -0.9933
vn 0.0912 -0.0352 -0.9952
vn 0.114 -0.035 -0.9929
vn 0.1275 -0.0346 -0.9912
vn 0.0731 -0.0573 -0.9957
vn 0.0911 -0.0577 -0.9941
vn 0.1138 -0.0576 -0.9918
vn 0.1276 -0.0581 -0.9901
vn 0.0737 -0.0852 -0.9936
vn 0.0917 -0.085 -0.9921
vn 0.1143 -0.0848 -0.9898
vn 0.1277 -0.0846 -0.9882
vn 0.1276 -0.1112 -0.9856
vn 0.1138 -0.112 -0.9872
vn 0.1275 -0.1339 -0.9828
vn 0.0911 -0.1123 -0.9895
vn 0.1138 -0.1345 -0.9843
vn 0.1275 -0.1443 -0.9813
vn 0.1139 -0.1448 -0.9829
vn 0.0912 -0.1349 -0.9866
vn 0.0912 -0.1452 -0.9852
vn 0.0731 -0.1126 -0.9909
vn 0.0729 -0.1351 -0.9881
vn 0.0729 -0.1454 -0.9867
vn 0.0569 -0.0898 -0.9943
vn 0.057 -0.1135 -0.9919
vn 0.0564 -0.1354 -0.9892
vn 0.0562 -0.1457 -0.9877
vn 0.0407 -0.0718 -0.9966
vn 0.0457 -0.0916 -0.9947
vn 0.0457 -0.1133 -0.9925
vn 0.0405 -0.1357 -0.9899
vn 0.0395 -0.1459 -0.9885
vn 0.0326 -0.091 -0.9953
vn 0.0364 -0.1138 -0.9928
vn 0.0223 -0.0708 -0.9972
vn 0.0276 -0.114 -0.9931
vn 0.0233 -0.1357 -0.9904
vn 0.0219 -0.1469 -0.9889
vn 0.0187 -0.0913 -0.9956
vn 0.0175 -0.114 -0.9933
vn 0.0092 -0.1366 -0.9906
vn 0.0007 -0.1485 -0.9889
vn 0.0085 -0.1139 -0.9934
vn 0.0081 -0.0918 -0.9957
vn 0.0089 -0.0744 -0.9972
vn 0.0048 -0.0621 -0.998
vn -0.0051 -0.0743 -0.9972
vn -0.0098 -0.0622 -0.998
vn -0.0238 -0.0539 -0.9983
vn -0.022 -0.0714 -0.9972
vn -0.0047 -0.0848 -0.9964
vn -0.0271 -0.0345 -0.999
vn -0.0046 -0.0975 -0.9952
vn -0.0182 -0.0911 -0.9957
vn -0.0048 -0.1075 -0.9942
vn -0.0325 -0.0172 -0.9993
vn -0.0173 -0.1138 -0.9933
vn -0.005 -0.1208 -0.9926
vn -0.0368 -0.0347 -0.9987
vn -0.0506 -0.0134 -0.9986
vn -0.0055 -0.1304 -0.9914
vn -0.0576 -0.0002 -0.9983
vn -0.0065 -0.1435 -0.9896
vn -0.0218 -0.1467 -0.9889
vn -0.0229 -0.1358 -0.9904
vn -0.0395 -0.1459 -0.9885
vn -0.0276 -0.114 -0.9931
vn -0.0405 -0.1357 -0.9899
vn -0.0562 -0.1457 -0.9877
vn -0.0331 -0.0908 -0.9953
vn -0.0364 -0.1138 -0.9928
vn -0.0564 -0.1354 -0.9892
vn -0.0729 -0.1454 -0.9867
vn -0.0457 -0.1133 -0.9925
vn -0.0729 -0.1351 -0.9881
vn -0.0912 -0.1452 -0.9852
vn -0.057 -0.1136 -0.9919
vn -0.0446 -0.0911 -0.9948
vn -0.0911 -0.1349 -0.9866
vn -0.1138 -0.1448 -0.9829
vn -0.0731 -0.1126 -0.9909
vn -0.0579 -0.0921 -0.994
vn -0.1138 -0.1345 -0.9843
vn -0.1275 -0.1443 -0.9813
vn -0.1275 -0.1338 -0.9828
vn -0.0911 -0.1123 -0.9895
vn -0.1138 -0.112 -0.9872
vn -0.1276 -0.1112 -0.9856
vn -0.0737 -0.085 -0.9936
vn -0.0917 -0.085 -0.9921
vn -0.1143 -0.0847 -0.9898
vn -0.1277 -0.0846 -0.9882
vn -0.1276 -0.0581 -0.9901
vn -0.1138 -0.0576 -0.9918
vn -0.1275 -0.0347 -0.9912
vn -0.0911 -0.0578 -0.9941
vn -0.114 -0.035 -0.9929
vn -0.073 -0.0578 -0.9956
vn -0.114 -0.0173 -0.9933
vn -0.0912 -0.0352 -0.9952
vn -0.0912 -0.0172 -0.9957
vn -0.073 -0.0352 -0.9967
vn -0.0727 -0.0171 -0.9972
vn -0.0573 -0.0346 -0.9977
vn -0.0573 -0.0563 -0.9967
vn -0.0455 -0.0341 -0.9984
vn -0.0421 -0.0546 -0.9976
vn -0.0527 -0.074 -0.9958
vn -0.0367 -0.0697 -0.9969
vn -0.1279 0.1444 -0.9812
vn -0.1279 0.134 -0.9827
vn -0.113 0.1381 -0.9839
vn -0.1137 0.1246 -0.9857
vn -0.1282 0.1122 -0.9854
vn -0.0912 0.1264 -0.9878
vn -0.0905 0.1379 -0.9863
vn -0.1142 0.0974 -0.9886
vn -0.1281 0.0895 -0.9877
vn -0.091 0.1079 -0.99
vn -0.0728 0.1265 -0.9893
vn -0.0723 0.1381 -0.9878
vn -0.114 0.0749 -0.9906
vn -0.1281 0.068 -0.9894
vn -0.0576 0.1266 -0.9903
vn -0.0566 0.14 -0.9885
vn -0.0726 0.1079 -0.9915
vn -0.0425 0.1372 -0.9896
vn -0.0383 0.1465 -0.9885
vn -0.0511 0.1114 -0.9924
vn -0.0242 0.138 -0.9901
vn -0.0211 0.1471 -0.9889
vn -0.0366 0.1249 -0.9915
vn -0.0911 0.0896 -0.9918
vn -0.0733 0.0898 -0.9932
vn -0.0572 0.0905 -0.9942
vn -0.0908 0.0691 -0.9934
vn -0.114 0.0558 -0.9919
vn -0.1282 0.0459 -0.9907
vn -0.0729 0.0691 -0.9949
vn -0.091 0.051 -0.9945
vn -0.1137 0.0349 -0.9929
vn -0.128 0.0239 -0.9915
vn -0.0727 0.0511 -0.996
vn -0.1137 0.017 -0.9933
vn -0.1279 0.0056 -0.9918
vn -0.0912 0.0342 -0.9952
vn -0.1134 0 -0.9935
vn -0.1278 -0.013 -0.9917
vn -0.0912 0.0171 -0.9957
vn -0.0728 0.0343 -0.9967
vn -0.0573 0.0696 -0.9959
vn -0.053 0.0512 -0.9973
vn -0.0418 0.0909 -0.995
vn -0.0456 0.0695 -0.9965
vn -0.0581 0.0336 -0.9977
vn -0.0308 0.1116 -0.9933
vn -0.0727 0.017 -0.9972
vn -0.0444 0.0338 -0.9984
vn -0.0908 -0 -0.9958
vn -0.0504 0.0126 -0.9986
vn -0.0723 -0.0001 -0.9974
vn -0.0368 0.0548 -0.9978
vn -0.0372 0.0348 -0.9987
vn -0.0314 0.0709 -0.997
vn -0.0223 0.0514 -0.9984
vn -0.0276 0.0908 -0.9955
vn -0.018 0.0689 -0.9974
vn -0.0179 0.0905 -0.9957
vn -0.0274 0.0342 -0.999
vn -0.0325 0.0173 -0.9993
vn -0.0172 0.0335 -0.9993
vn -0.0051 0.0619 -0.998
vn -0.0321 -0.0002 -0.9995
vn -0.0049 0.0748 -0.9972
vn -0.0053 0.0509 -0.9987
vn -0.0047 0.0849 -0.9964
vn -0.0178 0.0111 -0.9998
vn -0.0045 0.0974 -0.9952
vn 0.0076 0.0902 -0.9959
vn 0.0089 0.069 -0.9976
vn -0.018 0.1078 -0.994
vn 0.0085 0.0514 -0.9986
vn -0.0175 0.1252 -0.992
vn -0.0045 0.1084 -0.9941
vn 0.0124 0.1083 -0.994
vn -0.0047 0.1188 -0.9929
vn -0.0049 0.1317 -0.9913
vn -0.0059 0.143 -0.9897
vn 0.0001 0.1484 -0.9889
vn 0.0069 0.1258 -0.992
vn 0.0119 0.145 -0.9893
vn 0.0227 0.1474 -0.9888
vn 0.0193 0.1248 -0.992
vn 0.0277 0.1369 -0.9902
vn 0.0385 0.1467 -0.9884
vn 0.0305 0.1114 -0.9933
vn 0.0188 0.0907 -0.9957
vn 0.0428 0.1372 -0.9896
vn 0.0566 0.14 -0.9885
vn 0.037 0.1244 -0.9915
vn 0.0576 0.1266 -0.9903
vn 0.0723 0.1381 -0.9878
vn 0.0511 0.1114 -0.9924
vn 0.0728 0.1265 -0.9893
vn 0.0905 0.1379 -0.9863
vn 0.0276 0.0908 -0.9955
vn 0.0912 0.1264 -0.9878
vn 0.113 0.1381 -0.9839
vn 0.0184 0.0689 -0.9974
vn 0.1279 0.134 -0.9827
vn 0.1279 0.1443 -0.9812
vn 0.0227 0.0515 -0.9984
vn 0.1137 0.1246 -0.9857
vn 0.1282 0.1122 -0.9854
vn 0.1142 0.0974 -0.9886
vn 0.1281 0.0895 -0.9877
vn 0.091 0.1079 -0.99
vn 0.0726 0.1079 -0.9915
vn 0.114 0.0748 -0.9906
vn 0.1281 0.068 -0.9894
vn 0.0911 0.0896 -0.9918
vn 0.0733 0.0898 -0.9932
vn 0.114 0.0558 -0.9919
vn 0.1282 0.0459 -0.9907
vn 0.0908 0.0691 -0.9934
vn 0.1137 0.0349 -0.9929
vn 0.128 0.0239 -0.9915
vn 0.091 0.051 -0.9945
vn 0.0729 0.0691 -0.9949
vn 0.0572 0.0905 -0.9942
vn 0.1137 0.017 -0.9933
vn 0.1279 0.0056 -0.9918
vn 0.0912 0.0342 -0.9952
vn 0.0727 0.0511 -0.996
vn 0.0573 0.0696 -0.9959
vn 0.0418 0.0909 -0.995
vn 0.053 0.0512 -0.9973
vn 0.0314 0.0709 -0.997
vn 0.0456 0.0695 -0.9965
vn 0.0368 0.0548 -0.9978
vn 0.0728 0.0343 -0.9967
vn 0.0912 0.0171 -0.9957
vn 0.1134 0 -0.9935
vn 0.1278 -0.0129 -0.9917
vn 0.0727 0.017 -0.9972
vn 0.0581 0.0336 -0.9977
vn 0.0444 0.0338 -0.9984
vn 0.0372 0.0348 -0.9987
vn 0.0504 0.0126 -0.9986
vn 0.0274 0.0342 -0.999
vn 0.0908 -0 -0.9958
vn 0.0177 0.0331 -0.9993
vn 0.0325 0.0173 -0.9993
vn 0.0083 0.0341 -0.9994
vn 0.0184 0.0114 -0.9998
vn -0.0047 0.0404 -0.9991
vn -0.0051 0.0277 -0.9996
vn 0.0083 0.0178 -0.9998
vn -0.0046 0.017 -0.9998
vn 0.0073 -0.0001 -1
vn 0.0321 -0.0002 -0.9995
vn -0.0044 0.0058 -1
vn -0.0049 -0.0055 -1
vn -0.0178 -0.0122 -0.9998
vn -0.0046 -0.017 -0.9998
vn 0.0184 -0.0125 -0.9997
vn 0.0082 -0.0177 -0.9998
vn -0.005 -0.0277 -0.9996
vn 0.0077 -0.034 -0.9994
vn 0.0325 -0.0172 -0.9993
vn -0.0048 -0.0405 -0.9991
vn 0.019 -0.034 -0.9992
vn -0.0175 -0.0343 -0.9992
vn -0.0049 -0.051 -0.9987
vn 0.0129 -0.052 -0.9985
vn 0.0266 -0.035 -0.999
vn 0.0506 -0.0134 -0.9986
vn 0.0369 -0.0346 -0.9987
vn 0.0279 -0.0553 -0.9981
vn 0.0576 -0.0002 -0.9983
vn 0.0723 -0.0001 -0.9974
vn 0.0455 -0.0341 -0.9984
vn 0.0727 -0.0171 -0.9972
vn 0.0422 -0.0536 -0.9977
vn 0.0575 -0.0352 -0.9977
vn 0.0912 -0.0172 -0.9957
vn 0.0728 -0.0353 -0.9967
vn 0.0571 -0.0619 -0.9964
vn 0.114 -0.0173 -0.9933
vn 0.0912 -0.0352 -0.9952
vn 0.114 -0.035 -0.9929
vn 0.1275 -0.0346 -0.9912
vn 0.0731 -0.0573 -0.9957
vn 0.0911 -0.0578 -0.9941
vn 0.1138 -0.0576 -0.9918
vn 0.1276 -0.0581 -0.9901
vn 0.0737 -0.0852 -0.9936
vn 0.0917 -0.085 -0.9921
vn 0.1143 -0.0848 -0.9898
vn 0.1277 -0.0846 -0.9882
vn 0.1276 -0.1112 -0.9856
vn 0.1138 -0.112 -0.9872
vn 0.1275 -0.1339 -0.9828
vn 0.0911 -0.1123 -0.9895
vn 0.1138 -0.1345 -0.9843
vn 0.1275 -0.1443 -0.9813
vn 0.1139 -0.1448 -0.9829
vn 0.0912 -0.1349 -0.9866
vn 0.0912 -0.1452 -0.9852
vn 0.0731 -0.1126 -0.9909
vn 0.0729 -0.1351 -0.9881
vn 0.0729 -0.1454 -0.9867
vn 0.0569 -0.0898 -0.9943
vn 0.057 -0.1135 -0.9919
vn 0.0564 -0.1354 -0.9892
vn 0.0562 -0.1457 -0.9877
vn 0.0407 -0.0718 -0.9966
vn 0.0457 -0.0916 -0.9947
vn 0.0457 -0.1133 -0.9925
vn 0.0405 -0.1357 -0.9899
vn 0.0395 -0.1459 -0.9885
vn 0.0326 -0.091 -0.9953
vn 0.0364 -0.1138 -0.9928
vn 0.0223 -0.0708 -0.9972
vn 0.0276 -0.114 -0.9931
vn 0.0233 -0.1357 -0.9904
vn 0.0219 -0.1469 -0.9889
vn 0.0187 -0.0913 -0.9956
vn 0.0175 -0.114 -0.9933
vn 0.0092 -0.1366 -0.9906
vn 0.0007 -0.1485 -0.9889
vn 0.0085 -0.1139 -0.9934
vn 0.0081 -0.0918 -0.9957
vn 0.0089 -0.0744 -0.9972
vn 0.0048 -0.0621 -0.998
vn -0.0051 -0.0743 -0.9972
vn -0.0098 -0.0622 -0.998
vn -0.0238 -0.0539 -0.9983
vn -0.022 -0.0714 -0.9972
vn -0.0047 -0.0848 -0.9964
vn -0.0271 -0.0345 -0.999
vn -0.0046 -0.0975 -0.9952
vn -0.0182 -0.0911 -0.9957
vn -0.0048 -0.1075 -0.9942
vn -0.0325 -0.0172 -0.9993
vn -0.0173 -0.1138 -0.9933
vn -0.005 -0.1208 -0.9926
vn -0.0368 -0.0347 -0.9987
vn -0.0506 -0.0134 -0.9986
vn -0.0055 -0.1304 -0.9914
vn -0.0576 -0.0002 -0.9983
vn -0.0065 -0.1435 -0.9896
vn -0.0218 -0.1467 -0.9889
vn -0.0229 -0.1358 -0.9904
vn -0.0395 -0.1459 -0.9885
vn -0.0276 -0.114 -0.9931
vn -0.0405 -0.1357 -0.9899
vn -0.0562 -0.1457 -0.9877
vn -0.0331 -0.0908 -0.9953
vn -0.0364 -0.1138 -0.9928
vn -0.0564 -0.1354 -0.9892
vn -0.0729 -0.1454 -0.9867
vn -0.0457 -0.1133 -0.9925
vn -0.0729 -0.1351 -0.9881
vn -0.0912 -0.1452 -0.9852
vn -0.057 -0.1136 -0.9919
vn -0.0446 -0.0911 -0.9948
vn -0.0911 -0.1349 -0.9866
vn -0.1138 -0.1448 -0.9829
vn -0.0731 -0.1126 -0.9909
vn -0.0579 -0.0921 -0.994
vn -0.1138 -0.1345 -0.9843
vn -0.1275 -0.1443 -0.9813
vn -0.1275 -0.1338 -0.9828
vn -0.0911 -0.1123 -0.9895
vn -0.1138 -0.112 -0.9872
vn -0.1276 -0.1112 -0.9856
vn -0.0737 -0.085 -0.9936
vn -0.0917 -0.085 -0.9921
vn -0.1143 -0.0847 -0.9898
vn -0.1277 -0.0846 -0.9882
vn -0.1276 -0.0581 -0.9901
vn -0.1138 -0.0576 -0.9918
vn -0.1275 -0.0347 -0.9912
vn -0.0911 -0.0578 -0.9941
vn -0.114 -0.035 -0.9929
vn -0.073 -0.0578 -0.9956
vn -0.114 -0.0173 -0.9933
vn -0.0912 -0.0352 -0.9952
vn -0.0912 -0.0172 -0.9957
vn -0.073 -0.0352 -0.9967
vn -0.0727 -0.0171 -0.9972
vn -0.0573 -0.0346 -0.9977
vn -0.0573 -0.0563 -0.9967
vn -0.0455 -0.0341 -0.9984
vn -0.0421 -0.0546 -0.9976
vn -0.0527 -0.074 -0.9958
vn -0.0367 -0.0697 -0.9969
f 3/3/3 2/2/2 1/1/1
f 4/4/4 2/2/2 3/3/3
f 4/4/4 5/5/5 2/2/2
f 6/6/6 4/4/4 3/3/3
f 6/6/6 3/3/3 7/7/7
f 8/8/8 5/5/5 4/4/4
f 8/8/8 9/9/9 5/5/5
f 10/10/10 4/4/4 6/6/6
f 10/10/10 8/8/8 4/4/4
f 11/11/11 6/6/6 7/7/7
f 11/11/11 7/7/7 12/12/12
f 13/13/13 9/9/9 8/8/8
f 13/13/13 14/14/14 9/9/9
f 15/15/15 11/11/11 12/12/12
f 15/15/15 12/12/12 16/16/16
f 17/17/17 6/6/6 11/11/11
f 17/17/17 10/10/10 6/6/6
f 18/18/18 15/15/15 16/16/16
f 18/18/18 16/16/16 19/19/19
f 20/20/20 11/11/11 15/15/15
f 20/20/20 15/15/15 18/18/18
f 20/20/20 17/17/17 11/11/11
f 21/21/21 18/18/18 19/19/19
f 21/21/21 19/19/19 22/22/22
f 23/23/23 20/20/20 18/18/18
f 21/21/21 23/23/23 18/18/18
f 24/24/24 8/8/8 10/10/10
f 24/24/24 13/13/13 8/8/8
f 25/25/25 10/10/10 17/17/17
f 25/25/25 24/24/24 10/10/10
f 26/26/26 17/17/17 20/20/20
f 26/26/26 25/25/25 17/17/17
f 24/24/24 27/27/27 13/13/13
f 25/25/25 27/27/27 24/24/24
f 14/14/14 13/13/13 28/28/28
f 28/28/28 13/13/13 27/27/27
f 29/29/29 14/14/14 28/28/28
f 25/25/25 30/30/30 27/27/27
f 30/30/30 25/25/25 26/26/26
f 28/28/28 27/27/27 31/31/31
f 31/31/31 27/27/27 30/30/30
f 29/29/29 28/28/28 32/32/32
f 32/32/32 28/28/28 31/31/31
f 33/33/33 29/29/29 32/32/32
f 31/31/31 30/30/30 34/34/34
f 33/33/33 32/32/32 35/35/35
f 36/36/36 33/33/33 35/35/35
f 32/32/32 31/31/31 37/37/37
f 35/35/35 32/32/32 37/37/37
f 37/37/37 31/31/31 34/34/34
f 36/36/36 35/35/35 38/38/38
f 38/38/38 39/39/39 36/36/36
f 35/35/35 37/37/37 40/40/40
f 38/38/38 35/35/35 40/40/40
f 37/37/37 34/34/34 41/41/41
f 40/40/40 37/37/37 41/41/41
f 42/42/42 34/34/34 30/30/30
f 30/30/30 26/26/26 42/42/42
f 43/43/43 41/41/41 34/34/34
f 42/42/42 43/43/43 34/34/34
f 42/42/42 26/26/26 44/44/44
f 44/44/44 26/26/26 20/20/20
f 45/45/45 43/43/43 42/42/42
f 42/42/42 44/44/44 45/45/45
f 43/43/43 46/46/46 41/41/41
f 44/44/44 20/20/20 47/47/47
f 47/47/47 20/20/20 23/23/23
f 47/47/47 23/23/23 21/21/21
f 46/46/46 48/48/48 41/41/41
f 40/40/40 41/41/41 48/48/48
f 43/43/43 49/49/49 46/46/46
f 48/48/48 50/50/50 40/40/40
f 38/38/38 40/40/40 50/50/50
f 46/46/46 51/51/51 48/48/48
f 49/49/49 51/51/51 46/46/46
f 48/48/48 52/52/52 50/50/50
f 51/51/51 52/52/52 48/48/48
f 53/53/53 49/49/49 43/43/43
f 53/53/53 43/43/43 45/45/45
f 53/53/53 54/54/54 49/49/49
f 54/54/54 51/51/51 49/49/49
f 55/55/55 53/53/53 45/45/45
f 55/55/55 45/45/45 44/44/44
f 56/56/56 54/54/54 53/53/53
f 55/55/55 56/56/56 53/53/53
f 57/57/57 55/55/55 44/44/44
f 57/57/57 44/44/44 47/47/47
f 58/58/58 55/55/55 57/57/57
f 58/58/58 56/56/56 55/55/55
f 59/59/59 57/57/57 47/47/47
f 58/58/58 57/57/57 59/59/59
f 56/56/56 60/60/60 54/54/54
f 60/60/60 61/61/61 54/54/54
f 54/54/54 61/61/61 51/51/51
f 56/56/56 62/62/62 60/60/60
f 62/62/62 61/61/61 60/60/60
f 63/63/63 56/56/56 58/58/58
f 61/61/61 64/64/64 51/51/51
f 65/65/65 63/63/63 58/58/58
f 65/65/65 58/58/58 59/59/59
f 63/63/63 66/66/66 56/56/56
f 66/66/66 62/62/62 56/56/56
f 65/65/65 59/59/59 67/67/67
f 62/62/62 68/68/68 61/61/61
f 68/68/68 64/64/64 61/61/61
f 67/67/67 59/59/59 69/69/69
f 70/70/70 65/65/65 67/67/67
f 70/70/70 67/67/67 69/69/69
f 71/71/71 63/63/63 65/65/65
f 70/70/70 71/71/71 65/65/65
f 69/69/69 59/59/59 72/72/72
f 59/59/59 47/47/47 72/72/72
f 73/73/73 63/63/63 71/71/71
f 73/73/73 66/66/66 63/63/63
f 72/72/72 47/47/47 74/74/74
f 74/74/74 47/47/47 21/21/21
f 69/69/69 72/72/72 75/75/75
f 75/75/75 72/72/72 74/74/74
f 76/76/76 70/70/70 69/69/69
f 76/76/76 69/69/69 75/75/75
f 75/75/75 74/74/74 77/77/77
f 76/76/76 75/75/75 77/77/77
f 78/78/78 74/74/74 21/21/21
f 77/77/77 74/74/74 78/78/78
f 78/78/78 21/21/21 79/79/79
f 79/79/79 21/21/21 22/22/22
f 79/79/79 22/22/22 80/80/80
f 81/81/81 77/77/77 78/78/78
f 81/81/81 78/78/78 79/79/79
f 76/76/76 77/77/77 81/81/81
f 82/82/82 79/79/79 80/80/80
f 81/81/81 79/79/79 82/82/82
f 83/83/83 82/82/82 80/80/80
f 76/76/76 81/81/81 84/84/84
f 82/82/82 84/84/84 81/81/81
f 83/83/83 85/85/85 82/82/82
f 85/85/85 84/84/84 82/82/82
f 86/86/86 85/85/85 83/83/83
f 76/76/76 84/84/84 87/87/87
f 85/85/85 87/87/87 84/84/84
f 70/70/70 76/76/76 88/88/88
f 88/88/88 76/76/76 87/87/87
f 88/88/88 71/71/71 70/70/70
f 86/86/86 89/89/89 85/85/85
f 90/90/90 89/89/89 86/86/86
f 91/91/91 87/87/87 85/85/85
f 89/89/89 91/91/91 85/85/85
f 90/90/90 92/92/92 89/89/89
f 93/93/93 92/92/92 90/90/90
f 89/89/89 94/94/94 91/91/91
f 92/92/92 94/94/94 89/89/89
f 87/87/87 91/91/91 94/94/94
f 93/93/93 95/95/95 92/92/92
f 94/94/94 92/92/92 95/95/95
f 96/96/96 95/95/95 93/93/93
f 88/88/88 87/87/87 97/97/97
f 96/96/96 98/98/98 95/95/95
f 99/99/99 98/98/98 96/96/96
f 97/97/97 100/100/100 88/88/88
f 88/88/88 100/100/100 71/71/71
f 102/102/102 101/101/101 99/99/99
f 103/103/103 71/71/71 100/100/100
f 101/101/101 104/104/104 99/99/99
f 99/99/99 104/104/104 98/98/98
f 101/101/101 105/105/105 104/104/104
f 103/103/103 73/73/73 71/71/71
f 105/105/105 106/106/106 104/104/104
f 105/105/105 107/107/107 106/106/106
f 104/104/104 108/108/108 98/98/98
f 104/104/104 106/106/106 108/108/108
f 98/98/98 109/109/109 95/95/95
f 98/98/98 108/108/108 109/109/109
f 94/94/94 95/95/95 109/109/109
f 107/107/107 110/110/110 106/106/106
f 107/107/107 111/111/111 110/110/110
f 106/106/106 112/112/112 108/108/108
f 110/110/110 112/112/112 106/106/106
f 108/108/108 113/113/113 109/109/109
f 108/108/108 112/112/112 113/113/113
f 111/111/111 114/114/114 110/110/110
f 115/115/115 114/114/114 111/111/111
f 110/110/110 116/116/116 112/112/112
f 114/114/114 116/116/116 110/110/110
f 113/113/113 112/112/112 116/116/116
f 115/115/115 117/117/117 114/114/114
f 118/118/118 117/117/117 115/115/115
f 114/114/114 119/119/119 116/116/116
f 117/117/117 119/119/119 114/114/114
f 113/113/113 116/116/116 120/120/120
f 119/119/119 120/120/120 116/116/116
f 121/121/121 109/109/109 113/113/113
f 121/121/121 113/113/113 120/120/120
f 121/121/121 94/94/94 109/109/109
f 118/118/118 122/122/122 117/117/117
f 123/123/123 122/122/122 118/118/118
f 117/117/117 124/124/124 119/119/119
f 122/122/122 124/124/124 117/117/117
f 119/119/119 125/125/125 120/120/120
f 124/124/124 125/125/125 119/119/119
f 121/121/121 120/120/120 126/126/126
f 125/125/125 126/126/126 120/120/120
f 127/127/127 94/94/94 121/121/121
f 127/127/127 121/121/121 126/126/126
f 127/127/127 87/87/87 94/94/94
f 97/97/97 87/87/87 127/127/127
f 125/125/125 128/128/128 126/126/126
f 97/97/97 127/127/127 129/129/129
f 97/97/97 129/129/129 100/100/100
f 127/127/127 126/126/126 130/130/130
f 129/129/129 127/127/127 130/130/130
f 128/128/128 130/130/130 126/126/126
f 103/103/103 100/100/100 129/129/129
f 130/130/130 131/131/131 129/129/129
f 131/131/131 103/103/103 129/129/129
f 128/128/128 131/131/131 130/130/130
f 124/124/124 132/132/132 125/125/125
f 132/132/132 128/128/128 125/125/125
f 122/122/122 133/133/133 124/124/124
f 133/133/133 132/132/132 124/124/124
f 123/123/123 134/134/134 122/122/122
f 134/134/134 133/133/133 122/122/122
f 134/134/134 123/123/123 135/135/135
f 133/133/133 136/136/136 132/132/132
f 132/132/132 137/137/137 128/128/128
f 136/136/136 137/137/137 132/132/132
f 138/138/138 131/131/131 128/128/128
f 137/137/137 138/138/138 128/128/128
f 138/138/138 139/139/139 131/131/131
f 139/139/139 103/103/103 131/131/131
f 140/140/140 138/138/138 137/137/137
f 140/140/140 139/139/139 138/138/138
f 136/136/136 140/140/140 137/137/137
f 139/139/139 141/141/141 103/103/103
f 142/142/142 136/136/136 133/133/133
f 134/134/134 142/142/142 133/133/133
f 141/141/141 143/143/143 103/103/103
f 143/143/143 73/73/73 103/103/103
f 144/144/144 141/141/141 139/139/139
f 144/144/144 143/143/143 141/141/141
f 140/140/140 144/144/144 139/139/139
f 143/143/143 145/145/145 73/73/73
f 145/145/145 66/66/66 73/73/73
f 144/144/144 146/146/146 143/143/143
f 146/146/146 145/145/145 143/143/143
f 145/145/145 147/147/147 66/66/66
f 66/66/66 147/147/147 62/62/62
f 147/147/147 148/148/148 62/62/62
f 145/145/145 148/148/148 147/147/147
f 148/148/148 68/68/68 62/62/62
f 149/149/149 148/148/148 145/145/145
f 146/146/146 149/149/149 145/145/145
f 149/149/149 150/150/150 148/148/148
f 148/148/148 150/150/150 68/68/68
f 146/146/146 151/151/151 149/149/149
f 151/151/151 150/150/150 149/149/149
f 152/152/152 146/146/146 144/144/144
f 140/140/140 152/152/152 144/144/144
f 150/150/150 153/153/153 68/68/68
f 151/151/151 153/153/153 150/150/150
f 154/154/154 68/68/68 153/153/153
f 151/151/151 154/154/154 153/153/153
f 154/154/154 155/155/155 68/68/68
f 68/68/68 155/155/155 64/64/64
f 151/151/151 156/156/156 154/154/154
f 156/156/156 155/155/155 154/154/154
f 151/151/151 146/146/146 157/157/157
f 146/146/146 152/152/152 157/157/157
f 151/151/151 158/158/158 156/156/156
f 158/158/158 151/151/151 157/157/157
f 159/159/159 156/156/156 158/158/158
f 159/159/159 155/155/155 156/156/156
f 160/160/160 158/158/158 157/157/157
f 159/159/159 158/158/158 160/160/160
f 157/157/157 152/152/152 161/161/161
f 162/162/162 159/159/159 160/160/160
f 163/163/163 157/157/157 161/161/161
f 160/160/160 157/157/157 163/163/163
f 162/162/162 164/164/164 159/159/159
f 159/159/159 164/164/164 155/155/155
f 165/165/165 162/162/162 160/160/160
f 165/165/165 164/164/164 162/162/162
f 166/166/166 160/160/160 163/163/163
f 165/165/165 160/160/160 166/166/166
f 163/163/163 161/161/161 167/167/167
f 166/166/166 163/163/163 167/167/167
f 161/161/161 152/152/152 168/168/168
f 152/152/152 140/140/140 168/168/168
f 167/167/167 161/161/161 169/169/169
f 169/169/169 161/161/161 168/168/168
f 166/166/166 167/167/167 170/170/170
f 170/170/170 167/167/167 169/169/169
f 140/140/140 171/171/171 168/168/168
f 172/172/172 171/171/171 140/140/140
f 168/168/168 171/171/171 172/172/172
f 172/172/172 140/140/140 136/136/136
f 142/142/142 172/172/172 136/136/136
f 169/169/169 168/168/168 173/173/173
f 174/174/174 172/172/172 142/142/142
f 168/168/168 172/172/172 174/174/174
f 175/175/175 169/169/169 173/173/173
f 170/170/170 169/169/169 175/175/175
f 173/173/173 168/168/168 176/176/176
f 176/176/176 175/175/175 173/173/173
f 176/176/176 168/168/168 174/174/174
f 174/174/174 142/142/142 177/177/177
f 177/177/177 142/142/142 134/134/134
f 176/176/176 174/174/174 178/178/178
f 178/178/178 174/174/174 177/177/177
f 176/176/176 179/179/179 175/175/175
f 179/179/179 176/176/176 178/178/178
f 177/177/177 134/134/134 180/180/180
f 180/180/180 134/134/134 135/135/135
f 178/178/178 177/177/177 181/181/181
f 181/181/181 177/177/177 180/180/180
f 182/182/182 180/180/180 135/135/135
f 181/181/181 180/180/180 182/182/182
f 182/182/182 135/135/135 183/183/183
f 184/184/184 178/178/178 181/181/181
f 179/179/179 178/178/178 184/184/184
f 185/185/185 181/181/181 182/182/182
f 184/184/184 181/181/181 185/185/185
f 186/186/186 182/182/182 183/183/183
f 185/185/185 182/182/182 186/186/186
f 186/186/186 183/183/183 187/187/187
f 188/188/188 184/184/184 185/185/185
f 179/179/179 184/184/184 188/188/188
f 189/189/189 185/185/185 186/186/186
f 188/188/188 185/185/185 189/189/189
f 190/190/190 186/186/186 187/187/187
f 189/189/189 186/186/186 190/190/190
f 190/190/190 187/187/187 191/191/191
f 192/192/192 190/190/190 191/191/191
f 192/192/192 193/193/193 190/190/190
f 193/193/193 189/189/189 190/190/190
f 194/194/194 193/193/193 192/192/192
f 193/193/193 195/195/195 189/189/189
f 195/195/195 188/188/188 189/189/189
f 194/194/194 196/196/196 193/193/193
f 196/196/196 195/195/195 193/193/193
f 197/197/197 196/196/196 194/194/194
f 197/197/197 198/198/198 196/196/196
f 198/198/198 199/199/199 196/196/196
f 196/196/196 199/199/199 195/195/195
f 198/198/198 200/200/200 199/199/199
f 195/195/195 201/201/201 188/188/188
f 199/199/199 201/201/201 195/195/195
f 200/200/200 202/202/202 199/199/199
f 199/199/199 202/202/202 201/201/201
f 200/200/200 203/203/203 202/202/202
f 201/201/201 204/204/204 188/188/188
f 204/204/204 179/179/179 188/188/188
f 202/202/202 205/205/205 201/201/201
f 201/201/201 205/205/205 204/204/204
f 203/203/203 206/206/206 202/202/202
f 202/202/202 206/206/206 205/205/205
f 203/203/203 207/207/207 206/206/206
f 204/204/204 208/208/208 179/179/179
f 208/208/208 175/175/175 179/179/179
f 170/170/170 175/175/175 208/208/208
f 205/205/205 209/209/209 204/204/204
f 204/204/204 209/209/209 208/208/208
f 206/206/206 210/210/210 205/205/205
f 205/205/205 210/210/210 209/209/209
f 207/207/207 211/211/211 206/206/206
f 206/206/206 211/211/211 210/210/210
f 207/207/207 212/212/212 211/211/211
f 210/210/210 213/213/213 209/209/209
f 213/213/213 208/208/208 209/209/209
f 211/211/211 214/214/214 210/210/210
f 210/210/210 214/214/214 213/213/213
f 215/215/215 170/170/170 208/208/208
f 213/213/213 215/215/215 208/208/208
f 215/215/215 166/166/166 170/170/170
f 214/214/214 216/216/216 213/213/213
f 211/211/211 216/216/216 214/214/214
f 212/212/212 217/217/217 211/211/211
f 211/211/211 217/217/217 216/216/216
f 212/212/212 218/218/218 217/217/217
f 216/216/216 219/219/219 213/213/213
f 219/219/219 215/215/215 213/213/213
f 217/217/217 220/220/220 216/216/216
f 216/216/216 220/220/220 219/219/219
f 218/218/218 221/221/221 217/217/217
f 218/218/218 222/222/222 221/221/221
f 217/217/217 223/223/223 220/220/220
f 217/217/217 221/221/221 223/223/223
f 220/220/220 224/224/224 219/219/219
f 220/220/220 223/223/223 224/224/224
f 219/219/219 225/225/225 215/215/215
f 219/219/219 224/224/224 225/225/225
f 226/226/226 166/166/166 215/215/215
f 225/225/225 226/226/226 215/215/215
f 226/226/226 165/165/165 166/166/166
f 224/224/224 227/227/227 225/225/225
f 226/226/226 225/225/225 227/227/227
f 165/165/165 226/226/226 228/228/228
f 227/227/227 228/228/228 226/226/226
f 228/228/228 229/229/229 165/165/165
f 165/165/165 229/229/229 164/164/164
f 227/227/227 230/230/230 228/228/228
f 228/228/228 230/230/230 229/229/229
f 224/224/224 231/231/231 227/227/227
f 229/229/229 232/232/232 164/164/164
f 233/233/233 231/231/231 224/224/224
f 223/223/223 233/233/233 224/224/224
f 234/234/234 227/227/227 231/231/231
f 234/234/234 231/231/231 233/233/233
f 234/234/234 230/230/230 227/227/227
f 223/223/223 235/235/235 233/233/233
f 164/164/164 232/232/232 236/236/236
f 164/164/164 236/236/236 155/155/155
f 155/155/155 236/236/236 64/64/64
f 237/237/237 233/233/233 235/235/235
f 237/237/237 234/234/234 233/233/233
f 223/223/223 238/238/238 235/235/235
f 237/237/237 235/235/235 238/238/238
f 221/221/221 238/238/238 223/223/223
f 232/232/232 239/239/239 236/236/236
f 229/229/229 239/239/239 232/232/232
f 236/236/236 240/240/240 64/64/64
f 239/239/239 240/240/240 236/236/236
f 64/64/64 240/240/240 51/51/51
f 221/221/221 241/241/241 238/238/238
f 51/51/51 240/240/240 242/242/242
f 51/51/51 242/242/242 52/52/52
f 240/240/240 52/52/52 242/242/242
f 221/221/221 243/243/243 241/241/241
f 222/222/222 243/243/243 221/221/221
f 243/243/243 222/222/222 244/244/244
f 238/238/238 241/241/241 245/245/245
f 241/241/241 243/243/243 245/245/245
f 243/243/243 244/244/244 245/245/245
f 238/238/238 245/245/245 237/237/237
f 245/245/245 244/244/244 246/246/246
f 237/237/237 245/245/245 247/247/247
f 247/247/247 234/234/234 237/237/237
f 245/245/245 246/246/246 248/248/248
f 247/247/247 245/245/245 248/248/248
f 248/248/248 246/246/246 249/249/249
f 247/247/247 250/250/250 234/234/234
f 230/230/230 234/234/234 250/250/250
f 247/247/247 248/248/248 251/251/251
f 251/251/251 250/250/250 247/247/247
f 248/248/248 249/249/249 252/252/252
f 252/252/252 249/249/249 253/253/253
f 251/251/251 248/248/248 254/254/254
f 254/254/254 248/248/248 252/252/252
f 254/254/254 250/250/250 251/251/251
f 252/252/252 253/253/253 255/255/255
f 255/255/255 253/253/253 256/256/256
f 254/254/254 252/252/252 257/257/257
f 257/257/257 252/252/252 255/255/255
f 254/254/254 258/258/258 250/250/250
f 258/258/258 254/254/254 257/257/257
f 255/255/255 256/256/256 259/259/259
f 259/259/259 256/256/256 260/260/260
f 257/257/257 255/255/255 261/261/261
f 261/261/261 255/255/255 259/259/259
f 258/258/258 257/257/257 262/262/262
f 262/262/262 257/257/257 261/261/261
f 259/259/259 260/260/260 263/263/263
f 263/263/263 260/260/260 264/264/264
f 263/263/263 264/264/264 265/265/265
f 261/261/261 259/259/259 266/266/266
f 266/266/266 259/259/259 263/263/263
f 265/265/265 267/267/267 263/263/263
f 266/266/266 263/263/263 267/267/267
f 265/265/265 268/268/268 267/267/267
f 269/269/269 261/261/261 266/266/266
f 262/262/262 261/261/261 269/269/269
f 267/267/267 270/270/270 266/266/266
f 269/269/269 266/266/266 270/270/270
f 268/268/268 271/271/271 267/267/267
f 267/267/267 271/271/271 270/270/270
f 268/268/268 272/272/272 271/271/271
f 271/271/271 272/272/272 273/273/273
f 271/271/271 273/273/273 274/274/274
f 270/270/270 271/271/271 274/274/274
f 274/274/274 273/273/273 275/275/275
f 270/270/270 274/274/274 276/276/276
f 269/269/269 270/270/270 276/276/276
f 274/274/274 275/275/275 277/277/277
f 276/276/276 274/274/274 277/277/277
f 277/277/277 275/275/275 39/39/39
f 269/269/269 276/276/276 278/278/278
f 277/277/277 39/39/39 279/279/279
f 279/279/279 39/39/39 38/38/38
f 276/276/276 277/277/277 280/280/280
f 280/280/280 277/277/277 279/279/279
f 278/278/278 276/276/276 280/280/280
f 281/281/281 279/279/279 38/38/38
f 280/280/280 279/279/279 281/281/281
f 281/281/281 38/38/38 50/50/50
f 278/278/278 280/280/280 282/282/282
f 282/282/282 280/280/280 281/281/281
f 283/283/283 281/281/281 50/50/50
f 282/282/282 281/281/281 283/283/283
f 283/283/283 50/50/50 52/52/52
f 240/240/240 283/283/283 52/52/52
f 284/284/284 282/282/282 283/283/283
f 284/284/284 283/283/283 240/240/240
f 285/285/285 278/278/278 282/282/282
f 285/285/285 282/282/282 284/284/284
f 286/286/286 284/284/284 240/240/240
f 239/239/239 286/286/286 240/240/240
f 287/287/287 284/284/284 286/286/286
f 287/287/287 286/286/286 239/239/239
f 287/287/287 285/285/285 284/284/284
f 229/229/229 287/287/287 239/239/239
f 288/288/288 278/278/278 285/285/285
f 288/288/288 285/285/285 287/287/287
f 288/288/288 269/269/269 278/278/278
f 262/262/262 269/269/269 288/288/288
f 258/258/258 262/262/262 288/288/288
f 250/250/250 258/258/258 288/288/288
f 229/229/229 289/289/289 287/287/287
f 289/289/289 288/288/288 287/287/287
f 250/250/250 288/288/288 289/289/289
f 230/230/230 289/289/289 229/229/229
f 250/250/250 289/289/289 230/230/230
f 292/292/292 291/291/291 290/290/290
f 293/293/293 291/291/291 292/292/292
f 293/293/293 294/294/294 291/291/291
f 295/295/295 293/293/293 292/292/292
f 295/295/295 292/292/292 296/296/296
f 297/297/297 294/294/294 293/293/293
f 297/297/297 298/298/298 294/294/294
f 299/299/299 293/293/293 295/295/295
f 299/299/299 297/297/297 293/293/293
f 300/300/300 295/295/295 296/296/296
f 300/300/300 296/296/296 301/301/301
f 302/302/302 298/298/298 297/297/297
f 302/302/302 303/303/303 298/298/298
f 304/304/304 300/300/300 301/301/301
f 304/304/304 301/301/301 305/305/305
f 306/306/306 295/295/295 300/300/300
f 306/306/306 299/299/299 295/295/295
f 307/307/307 304/304/304 305/305/305
f 307/307/307 305/305/305 308/308/308
f 309/309/309 300/300/300 304/304/304
f 309/309/309 304/304/304 307/307/307
f 309/309/309 306/306/306 300/300/300
f 310/310/310 307/307/307 308/308/308
f 310/310/310 308/308/308 311/311/311
f 312/312/312 309/309/309 307/307/307
f 310/310/310 312/312/312 307/307/307
f 313/313/313 297/297/297 299/299/299
f 313/313/313 302/302/302 297/297/297
f 314/314/314 299/299/299 306/306/306
f 314/314/314 313/313/313 299/299/299
f 315/315/315 306/306/306 309/309/309
f 315/315/315 314/314/314 306/306/306
f 313/313/313 316/316/316 302/302/302
f 314/314/314 316/316/316 313/313/313
f 303/303/303 302/302/302 317/317/317
f 317/317/317 302/302/302 316/316/316
f 318/318/318 303/303/303 317/317/317
f 314/314/314 319/319/319 316/316/316
f 319/319/319 314/314/314 315/315/315
f 317/317/317 316/316/316 320/320/320
f 320/320/320 316/316/316 319/319/319
f 318/318/318 317/317/317 321/321/321
f 321/321/321 317/317/317 320/320/320
f 322/322/322 318/318/318 321/321/321
f 320/320/320 319/319/319 323/323/323
f 322/322/322 321/321/321 324/324/324
f 325/325/325 322/322/322 324/324/324
f 321/321/321 320/320/320 326/326/326
f 324/324/324 321/321/321 326/326/326
f 326/326/326 320/320/320 323/323/323
f 325/325/325 324/324/324 327/327/327
f 327/327/327 328/328/328 325/325/325
f 324/324/324 326/326/326 329/329/329
f 327/327/327 324/324/324 329/329/329
f 326/326/326 323/323/323 330/330/330
f 329/329/329 326/326/326 330/330/330
f 331/331/331 323/323/323 319/319/319
f 319/319/319 315/315/315 331/331/331
f 332/332/332 330/330/330 323/323/323
f 331/331/331 332/332/332 323/323/323
f 331/331/331 315/315/315 333/333/333
f 333/333/333 315/315/315 309/309/309
f 334/334/334 332/332/332 331/331/331
f 331/331/331 333/333/333 334/334/334
f 332/332/332 335/335/335 330/330/330
f 333/333/333 309/309/309 336/336/336
f 336/336/336 309/309/309 312/312/312
f 336/336/336 312/312/312 310/310/310
f 335/335/335 337/337/337 330/330/330
f 329/329/329 330/330/330 337/337/337
f 332/332/332 338/338/338 335/335/335
f 337/337/337 339/339/339 329/329/329
f 327/327/327 329/329/329 339/339/339
f 335/335/335 340/340/340 337/337/337
f 338/338/338 340/340/340 335/335/335
f 337/337/337 341/341/341 339/339/339
f 340/340/340 341/341/341 337/337/337
f 342/342/342 338/338/338 332/332/332
f 342/342/342 332/332/332 334/334/334
f 342/342/342 343/343/343 338/338/338
f 343/343/343 340/340/340 338/338/338
f 344/344/344 342/342/342 334/334/334
f 344/344/344 334/334/334 333/333/333
f 345/345/345 343/343/343 342/342/342
f 344/344/344 345/345/345 342/342/342
f 346/346/346 344/344/344 333/333/333
f 346/346/346 333/333/333 336/336/336
f 347/347/347 344/344/344 346/346/346
f 347/347/347 345/345/345 344/344/344
f 348/348/348 346/346/346 336/336/336
f 347/347/347 346/346/346 348/348/348
f 345/345/345 349/349/349 343/343/343
f 349/349/349 350/350/350 343/343/343
f 343/343/343 350/350/350 340/340/340
f 345/345/345 351/351/351 349/349/349
f 351/351/351 350/350/350 349/349/349
f 352/352/352 345/345/345 347/347/347
f 350/350/350 353/353/353 340/340/340
f 354/354/354 352/352/352 347/347/347
f 354/354/354 347/347/347 348/348/348
f 352/352/352 355/355/355 345/345/345
f 355/355/355 351/351/351 345/345/345
f 354/354/354 348/348/348 356/356/356
f 351/351/351 357/357/357 350/350/350
f 357/357/357 353/353/353 350/350/350
f 356/356/356 348/348/348 358/358/358
f 359/359/359 354/354/354 356/356/356
f 359/359/359 356/356/356 358/358/358
f 360/360/360 352/352/352 354/354/354
f 359/359/359 360/360/360 354/354/354
f 358/358/358 348/348/348 361/361/361
f 348/348/348 336/336/336 361/361/361
f 362/362/362 352/352/352 360/360/360
f 362/362/362 355/355/355 352/352/352
f 361/361/361 336/336/336 363/363/363
f 363/363/363 336/336/336 310/310/310
f 358/358/358 361/361/361 364/364/364
f 364/364/364 361/361/361 363/363/363
f 365/365/365 359/359/359 358/358/358
f 365/365/365 358/358/358 364/364/364
f 364/364/364 363/363/363 366/366/366
f 365/365/365 364/364/364 366/366/366
f 367/367/367 363/363/363 310/310/310
f 366/366/366 363/363/363 367/367/367
f 367/367/367 310/310/310 368/368/368
f 368/368/368 310/310/310 311/311/311
f 368/368/368 311/311/311 369/369/369
f 370/370/370 366/366/366 367/367/367
f 370/370/370 367/367/367 368/368/368
f 365/365/365 366/366/366 370/370/370
f 371/371/371 368/368/368 369/369/369
f 370/370/370 368/368/368 371/371/371
f 372/372/372 371/371/371 369/369/369
f 365/365/365 370/370/370 373/373/373
f 371/371/371 373/373/373 370/370/370
f 372/372/372 374/374/374 371/371/371
f 374/374/374 373/373/373 371/371/371
f 375/375/375 374/374/374 372/372/372
f 365/365/365 373/373/373 376/376/376
f 374/374/374 376/376/376 373/373/373
f 359/359/359 365/365/365 377/377/377
f 377/377/377 365/365/365 376/376/376
f 377/377/377 360/360/360 359/359/359
f 375/375/375 378/378/378 374/374/374
f 379/379/379 378/378/378 375/375/375
f 380/380/380 376/376/376 374/374/374
f 378/378/378 380/380/380 374/374/374
f 379/379/379 381/381/381 378/378/378
f 382/382/382 381/381/381 379/379/379
f 378/378/378 383/383/383 380/380/380
f 381/381/381 383/383/383 378/378/378
f 376/376/376 380/380/380 383/383/383
f 382/382/382 384/384/384 381/381/381
f 383/383/383 381/381/381 384/384/384
f 385/385/385 384/384/384 382/382/382
f 377/377/377 376/376/376 386/386/386
f 385/385/385 387/387/387 384/384/384
f 388/388/388 387/387/387 385/385/385
f 386/386/386 389/389/389 377/377/377
f 377/377/377 389/389/389 360/360/360
f 391/391/391 390/390/390 388/388/388
f 392/392/392 360/360/360 389/389/389
f 390/390/390 393/393/393 388/388/388
f 388/388/388 393/393/393 387/387/387
f 390/390/390 394/394/394 393/393/393
f 392/392/392 362/362/362 360/360/360
f 394/394/394 395/395/395 393/393/393
f 394/394/394 396/396/396 395/395/395
f 393/393/393 397/397/397 387/387/387
f 393/393/393 395/395/395 397/397/397
f 387/387/387 398/398/398 384/384/384
f 387/387/387 397/397/397 398/398/398
f 383/383/383 384/384/384 398/398/398
f 396/396/396 399/399/399 395/395/395
f 396/396/396 400/400/400 399/399/399
f 395/395/395 401/401/401 397/397/397
f 399/399/399 401/401/401 395/395/395
f 397/397/397 402/402/402 398/398/398
f 397/397/397 401/401/401 402/402/402
f 400/400/400 403/403/403 399/399/399
f 404/404/404 403/403/403 400/400/400
f 399/399/399 405/405/405 401/401/401
f 403/403/403 405/405/405 399/399/399
f 402/402/402 401/401/401 405/405/405
f 404/404/404 406/406/406 403/403/403
f 407/407/407 406/406/406 404/404/404
f 403/403/403 408/408/408 405/405/405
f 406/406/406 408/408/408 403/403/403
f 402/402/402 405/405/405 409/409/409
f 408/408/408 409/409/409 405/405/405
f 410/410/410 398/398/398 402/402/402
f 410/410/410 402/402/402 409/409/409
f 410/410/410 383/383/383 398/398/398
f 407/407/407 411/411/411 406/406/406
f 412/412/412 411/411/411 407/407/407
f 406/406/406 413/413/413 408/408/408
f 411/411/411 413/413/413 406/406/406
f 408/408/408 414/414/414 409/409/409
f 413/413/413 414/414/414 408/408/408
f 410/410/410 409/409/409 415/415/415
f 414/414/414 415/415/415 409/409/409
f 416/416/416 383/383/383 410/410/410
f 416/416/416 410/410/410 415/415/415
f 416/416/416 376/376/376 383/383/383
f 386/386/386 376/376/376 416/416/416
f 414/414/414 417/417/417 415/415/415
f 386/386/386 416/416/416 418/418/418
f 386/386/386 418/418/418 389/389/389
f 416/416/416 415/415/415 419/419/419
f 418/418/418 416/416/416 419/419/419
f 417/417/417 419/419/419 415/415/415
f 392/392/392 389/389/389 418/418/418
f 419/419/419 420/420/420 418/418/418
f 420/420/420 392/392/392 418/418/418
f 417/417/417 420/420/420 419/419/419
f 413/413/413 421/421/421 414/414/414
f 421/421/421 417/417/417 414/414/414
f 411/411/411 422/422/422 413/413/413
f 422/422/422 421/421/421 413/413/413
f 412/412/412 423/423/423 411/411/411
f 423/423/423 422/422/422 411/411/411
f 423/423/423 412/412/412 424/424/424
f 422/422/422 425/425/425 421/421/421
f 421/421/421 426/426/426 417/417/417
f 425/425/425 426/426/426 421/421/421
f 427/427/427 420/420/420 417/417/417
f 426/426/426 427/427/427 417/417/417
f 427/427/427 428/428/428 420/420/420
f 428/428/428 392/392/392 420/420/420
f 429/429/429 427/427/427 426/426/426
f 429/429/429 428/428/428 427/427/427
f 425/425/425 429/429/429 426/426/426
f 428/428/428 430/430/430 392/392/392
f 431/431/431 425/425/425 422/422/422
f 423/423/423 431/431/431 422/422/422
f 430/430/430 432/432/432 392/392/392
f 432/432/432 362/362/362 392/392/392
f 433/433/433 430/430/430 428/428/428
f 433/433/433 432/432/432 430/430/430
f 429/429/429 433/433/433 428/428/428
f 432/432/432 434/434/434 362/362/362
f 434/434/434 355/355/355 362/362/362
f 433/433/433 435/435/435 432/432/432
f 435/435/435 434/434/434 432/432/432
f 434/434/434 436/436/436 355/355/355
f 355/355/355 436/436/436 351/351/351
f 436/436/436 437/437/437 351/351/351
f 434/434/434 437/437/437 436/436/436
f 437/437/437 357/357/357 351/351/351
f 438/438/438 437/437/437 434/434/434
f 435/435/435 438/438/438 434/434/434
f 438/438/438 439/439/439 437/437/437
f 437/437/437 439/439/439 357/357/357
f 435/435/435 440/440/440 438/438/438
f 440/440/440 439/439/439 438/438/438
f 441/441/441 435/435/435 433/433/433
f 429/429/429 441/441/441 433/433/433
f 439/439/439 442/442/442 357/357/357
f 440/440/440 442/442/442 439/439/439
f 443/443/443 357/357/357 442/442/442
f 440/440/440 443/443/443 442/442/442
f 443/443/443 444/444/444 357/357/357
f 357/357/357 444/444/444 353/353/353
f 440/440/440 445/445/445 443/443/443
f 445/445/445 444/444/444 443/443/443
f 440/440/440 435/435/435 446/446/446
f 435/435/435 441/441/441 446/446/446
f 440/440/440 447/447/447 445/445/445
f 447/447/447 440/440/440 446/446/446
f 448/448/448 445/445/445 447/447/447
f 448/448/448 444/444/444 445/445/445
f 449/449/449 447/447/447 446/446/446
f 448/448/448 447/447/447 449/449/449
f 446/446/446 441/441/441 450/450/450
f 451/451/451 448/448/448 449/449/449
f 452/452/452 446/446/446 450/450/450
f 449/449/449 446/446/446 452/452/452
f 451/451/451 453/453/453 448/448/448
f 448/448/448 453/453/453 444/444/444
f 454/454/454 451/451/451 449/449/449
f 454/454/454 453/453/453 451/451/451
f 455/455/455 449/449/449 452/452/452
f 454/454/454 449/449/449 455/455/455
f 452/452/452 450/450/450 456/456/456
f 455/455/455 452/452/452 456/456/456
f 450/450/450 441/441/441 457/457/457
f 441/441/441 429/429/429 457/457/457
f 456/456/456 450/450/450 458/458/458
f 458/458/458 450/450/450 457/457/457
f 455/455/455 456/456/456 459/459/459
f 459/459/459 456/456/456 458/458/458
f 429/429/429 460/460/460 457/457/457
f 461/461/461 460/460/460 429/429/429
f 457/457/457 460/460/460 461/461/461
f 461/461/461 429/429/429 425/425/425
f 431/431/431 461/461/461 425/425/425
f 458/458/458 457/457/457 462/462/462
f 463/463/463 461/461/461 431/431/431
f 457/457/457 461/461/461 463/463/463
f 464/464/464 458/458/458 462/462/462
f 459/459/459 458/458/458 464/464/464
f 462/462/462 457/457/457 465/465/465
f 465/465/465 464/464/464 462/462/462
f 465/465/465 457/457/457 463/463/463
f 463/463/463 431/431/431 466/466/466
f 466/466/466 431/431/431 423/423/423
f 465/465/465 463/463/463 467/467/467
f 467/467/467 463/463/463 466/466/466
f 465/465/465 468/468/468 464/464/464
f 468/468/468 465/465/465 467/467/467
f 466/466/466 423/423/423 469/469/469
f 469/469/469 423/423/423 424/424/424
f 467/467/467 466/466/466 470/470/470
f 470/470/470 466/466/466 469/469/469
f 471/471/471 469/469/469 424/424/424
f 470/470/470 469/469/469 471/471/471
f 471/471/471 424/424/424 472/472/472
f 473/473/473 467/467/467 470/470/470
f 468/468/468 467/467/467 473/473/473
f 474/474/474 470/470/470 471/471/471
f 473/473/473 470/470/470 474/474/474
f 475/475/475 471/471/471 472/472/472
f 474/474/474 471/471/471 475/475/475
f 475/475/475 472/472/472 476/476/476
f 477/477/477 473/473/473 474/474/474
f 468/468/468 473/473/473 477/477/477
f 478/478/478 474/474/474 475/475/475
f 477/477/477 474/474/474 478/478/478
f 479/479/479 475/475/475 476/476/476
f 478/478/478 475/475/475 479/479/479
f 479/479/479 476/476/476 480/480/480
f 481/481/481 479/479/479 480/480/480
f 481/481/481 482/482/482 479/479/479
f 482/482/482 478/478/478 479/479/479
f 483/483/483 482/482/482 481/481/481
f 482/482/482 484/484/484 478/478/478
f 484/484/484 477/477/477 478/478/478
f 483/483/483 485/485/485 482/482/482
f 485/485/485 484/484/484 482/482/482
f 486/486/486 485/485/485 483/483/483
f 486/486/486 487/487/487 485/485/485
f 487/487/487 488/488/488 485/485/485
f 485/485/485 488/488/488 484/484/484
f 487/487/487 489/489/489 488/488/488
f 484/484/484 490/490/490 477/477/477
f 488/488/488 490/490/490 484/484/484
f 489/489/489 491/491/491 488/488/488
f 488/488/488 491/491/491 490/490/490
f 489/489/489 492/492/492 491/491/491
f 490/490/490 493/493/493 477/477/477
f 493/493/493 468/468/468 477/477/477
f 491/491/491 494/494/494 490/490/490
f 490/490/490 494/494/494 493/493/493
f 492/492/492 495/495/495 491/491/491
f 491/491/491 495/495/495 494/494/494
f 492/492/492 496/496/496 495/495/495
f 493/493/493 497/497/497 468/468/468
f 497/497/497 464/464/464 468/468/468
f 459/459/459 464/464/464 497/497/497
f 494/494/494 498/498/498 493/493/493
f 493/493/493 498/498/498 497/497/497
f 495/495/495 499/499/499 494/494/494
f 494/494/494 499/499/499 498/498/498
f 496/496/496 500/500/500 495/495/495
f 495/495/495 500/500/500 499/499/499
f 496/496/496 501/501/501 500/500/500
f 499/499/499 502/502/502 498/498/498
f 502/502/502 497/497/497 498/498/498
f 500/500/500 503/503/503 499/499/499
f 499/499/499 503/503/503 502/502/502
f 504/504/504 459/459/459 497/497/497
f 502/502/502 504/504/504 497/497/497
f 504/504/504 455/455/455 459/459/459
f 503/503/503 505/505/505 502/502/502
f 500/500/500 505/505/505 503/503/503
f 501/501/501 506/506/506 500/500/500
f 500/500/500 506/506/506 505/505/505
f 501/501/501 507/507/507 506/506/506
f 505/505/505 508/508/508 502/502/502
f 508/508/508 504/504/504 502/502/502
f 506/506/506 509/509/509 505/505/505
f 505/505/505 509/509/509 508/508/508
f 507/507/507 510/510/510 506/506/506
f 507/507/507 511/511/511 510/510/510
f 506/506/506 512/512/512 509/509/509
f 506/506/506 510/510/510 512/512/512
f 509/509/509 513/513/513 508/508/508
f 509/509/509 512/512/512 513/513/513
f 508/508/508 514/514/514 504/504/504
f 508/508/508 513/513/513 514/514/514
f 515/515/515 455/455/455 504/504/504
f 514/514/514 515/515/515 504/504/504
f 515/515/515 454/454/454 455/455/455
f 513/513/513 516/516/516 514/514/514
f 515/515/515 514/514/514 516/516/516
f 454/454/454 515/515/515 517/517/517
f 516/516/516 517/517/517 515/515/515
f 517/517/517 518/518/518 454/454/454
f 454/454/454 518/518/518 453/453/453
f 516/516/516 519/519/519 517/517/517
f 517/517/517 519/519/519 518/518/518
f 513/513/513 520/520/520 516/516/516
f 518/518/518 521/521/521 453/453/453
f 522/522/522 520/520/520 513/513/513
f 512/512/512 522/522/522 513/513/513
f 523/523/523 516/516/516 520/520/520
f 523/523/523 520/520/520 522/522/522
f 523/523/523 519/519/519 516/516/516
f 512/512/512 524/524/524 522/522/522
f 453/453/453 521/521/521 525/525/525
f 453/453/453 525/525/525 444/444/444
f 444/444/444 525/525/525 353/353/353
f 526/526/526 522/522/522 524/524/524
f 526/526/526 523/523/523 522/522/522
f 512/512/512 527/527/527 524/524/524
f 526/526/526 524/524/524 527/527/527
f 510/510/510 527/527/527 512/512/512
f 521/521/521 528/528/528 525/525/525
f 518/518/518 528/528/528 521/521/521
f 525/525/525 529/529/529 353/353/353
f 528/528/528 529/529/529 525/525/525
f 353/353/353 529/529/529 340/340/340
f 510/510/510 530/530/530 527/527/527
f 340/340/340 529/529/529 531/531/531
f 340/340/340 531/531/531 341/341/341
f 529/529/529 341/341/341 531/531/531
f 510/510/510 532/532/532 530/530/530
f 511/511/511 532/532/532 510/510/510
f 532/532/532 511/511/511 533/533/533
f 527/527/527 530/530/530 534/534/534
f 530/530/530 532/532/532 534/534/534
f 532/532/532 533/533/533 534/534/534
f 527/527/527 534/534/534 526/526/526
f 534/534/534 533/533/533 535/535/535
f 526/526/526 534/534/534 536/536/536
f 536/536/536 523/523/523 526/526/526
f 534/534/534 535/535/535 537/537/537
f 536/536/536 534/534/534 537/537/537
f 537/537/537 535/535/535 538/538/538
f 536/536/536 539/539/539 523/523/523
f 519/519/519 523/523/523 539/539/539
f 536/536/536 537/537/537 540/540/540
f 540/540/540 539/539/539 536/536/536
f 537/537/537 538/538/538 541/541/541
f 541/541/541 538/538/538 542/542/542
f 540/540/540 537/537/537 543/543/543
f 543/543/543 537/537/537 541/541/541
f 543/543/543 539/539/539 540/540/540
f 541/541/541 542/542/542 544/544/544
f 544/544/544 542/542/542 545/545/545
f 543/543/543 541/541/541 546/546/546
f 546/546/546 541/541/541 544/544/544
f 543/543/543 547/547/547 539/539/539
f 547/547/547 543/543/543 546/546/546
f 544/544/544 545/545/545 548/548/548
f 548/548/548 545/545/545 549/549/549
f 546/546/546 544/544/544 550/550/550
f 550/550/550 544/544/544 548/548/548
f 547/547/547 546/546/546 551/551/551
f 551/551/551 546/546/546 550/550/550
f 548/548/548 549/549/549 552/552/552
f 552/552/552 549/549/549 553/553/553
f 552/552/552 553/553/553 554/554/554
f 550/550/550 548/548/548 555/555/555
f 555/555/555 548/548/548 552/552/552
f 554/554/554 556/556/556 552/552/552
f 555/555/555 552/552/552 556/556/556
f 554/554/554 557/557/557 556/556/556
f 558/558/558 550/550/550 555/555/555
f 551/551/551 550/550/550 558/558/558
f 556/556/556 559/559/559 555/555/555
f 558/558/558 555/555/555 559/559/559
f 557/557/557 560/560/560 556/556/556
f 556/556/556 560/560/560 559/559/559
f 557/557/557 561/561/561 560/560/560
f 560/560/560 561/561/561 562/562/562
f 560/560/560 562/562/562 563/563/563
f 559/559/559 560/560/560 563/563/563
f 563/563/563 562/562/562 564/564/564
f 559/559/559 563/563/563 565/565/565
f 558/558/558 559/559/559 565/565/565
f 563/563/563 564/564/564 566/566/566
f 565/565/565 563/563/563 566/566/566
f 566/566/566 564/564/564 328/328/328
f 558/558/558 565/565/565 567/567/567
f 566/566/566 328/328/328 568/568/568
f 568/568/568 328/328/328 327/327/327
f 565/565/565 566/566/566 569/569/569
f 569/569/569 566/566/566 568/568/568
f 567/567/567 565/565/565 569/569/569
f 570/570/570 568/568/568 327/327/327
f 569/569/569 568/568/568 570/570/570
f 570/570/570 327/327/327 339/339/339
f 567/567/567 569/569/569 571/571/571
f 571/571/571 569/569/569 570/570/570
f 572/572/572 570/570/570 339/339/339
f 571/571/571 570/570/570 572/572/572
f 572/572/572 339/339/339 341/341/341
f 529/529/529 572/572/572 341/341/341
f 573/573/573 571/571/571 572/572/572
f 573/573/573 572/572/572 529/529/529
f 574/574/574 567/567/567 571/571/571
f 574/574/574 571/571/571 573/573/573
f 575/575/575 573/573/573 529/529/529
f 528/528/528 575/575/575 529/529/529
f 576/576/576 573/573/573 575/575/575
f 576/576/576 575/575/575 528/528/528
f 576/576/576 574/574/574 573/573/573
f 518/518/518 576/576/576 528/528/528
f 577/577/577 567/567/567 574/574/574
f 577/577/577 574/574/574 576/576/576
f 577/577/577 558/558/558 567/567/567
f 551/551/551 558/558/558 577/577/577
f 547/547/547 551/551/551 577/577/577
f 539/539/539 547/547/547 577/577/577
f 518/518/518 578/578/578 576/576/576
f 578/578/578 577/577/577 576/576/576
f 539/539/539 577/577/577 578/578/578
f 519/519/519 578/578/578 518/518/518
f 539/539/539 578/578/578 519/519/519
