# VPXTOOL table OBJ file
# VPXTOOL OBJ file
# numVerts: 56 numFaces: 46
o Primitive55
v 42.57312 -6.132202 -6.6425476
v 42.57312 90.18945 6.6425667
v 42.57312 13.13208 -6.64254
v 42.57312 -88.13928 -4.5923233
v 42.57312 -89.69812 -2.2192383
v 42.57312 -90.189575 0.3574295
v 42.57312 -83.189575 -6.6425705
v 42.57312 -85.766235 -6.1510925
v 42.57312 -90.189575 6.6425095
v 42.57312 -44.66089 -6.642563
v 42.57312 -63.92517 -6.6425705
v 42.57312 70.92505 -6.6425247
v 42.57312 90.18945 -6.642517
v 42.57312 51.66089 -6.6425247
v 42.57312 32.396484 -6.64254
v 42.57312 -25.396484 -6.642555
v -42.57306 90.18945 6.6425667
v -42.57306 90.18945 -6.642517
v -0.00012207031 90.18945 -6.642517
v 42.57312 90.18945 6.6425667
v 42.57312 90.18945 -6.642517
v 42.57312 -85.766235 -6.1510925
v 42.57312 -83.189575 -6.6425705
v -42.57306 -83.189575 -6.6425705
v -42.57306 -85.766235 -6.1510925
v 42.57312 -88.13928 -4.5923233
v -42.57306 -88.13928 -4.5923233
v 42.57312 -89.69812 -2.2192383
v -42.57306 -89.69812 -2.2192383
v 42.57312 -90.189575 0.3574295
v -42.57306 -90.189575 0.3574295
v -42.57306 -83.189575 -6.6425705
v 42.57312 -83.189575 -6.6425705
v 42.57312 -63.92517 -6.6425705
v -42.57306 -63.92517 -6.6425705
v 42.57312 -44.66089 -6.642563
v -42.57306 -44.66089 -6.642563
v 42.57312 -25.396484 -6.642555
v -42.57306 -25.396484 -6.642555
v 42.57312 -6.132202 -6.6425476
v -42.57306 -6.132202 -6.6425476
v -0.00012207031 90.18945 -6.642517
v 42.57312 13.13208 -6.64254
v -42.57306 13.13208 -6.64254
v 42.57312 32.396484 -6.64254
v -42.57306 32.396484 -6.64254
v 42.57312 51.66089 -6.6425247
v -42.57306 51.66089 -6.6425247
v 42.57312 70.92505 -6.6425247
v 42.57312 90.18945 -6.642517
v -42.57306 70.92505 -6.6425247
v -42.57306 90.18945 -6.642517
v 42.57312 -90.189575 0.3574295
v -42.57306 -90.189575 0.3574295
v -42.57306 -90.189575 6.6425095
v 42.57312 -90.189575 6.6425095
vt 0.4976 0.83429998
vt 0.4175 0.8078
vt 0.4816 0.83429998
vt 0.5658 0.83020002
vt 0.5671 0.8254
vt 0.5675 0.82029998
vt 0.5617 0.83429998
vt 0.5638 0.8333
vt 0.5675 0.8078
vt 0.5296 0.83429998
vt 0.5456 0.83429998
vt 0.4335 0.83429998
vt 0.4175 0.83429998
vt 0.4495 0.83429998
vt 0.4656 0.83429998
vt 0.5136 0.83429998
vt 0.5675 0.80769998
vt 0.5675 0.78119999
vt 0.5356 0.78119999
vt 0.5038 0.80769998
vt 0.5038 0.78119999
vt 0.6233 0.76749998
vt 0.6198 0.76749998
vt 0.6198 0.55629998
vt 0.6233 0.55629998
vt 0.6268 0.76749998
vt 0.6268 0.55629998
vt 0.6303 0.76749998
vt 0.6303 0.55629998
vt 0.6338 0.76749998
vt 0.6338 0.55629998
vt 0.6198 0.76749998
vt 0.6198 0.55629998
vt 0.5945 0.55629998
vt 0.5945 0.76749998
vt 0.5691 0.55629998
vt 0.5691 0.76749998
vt 0.5438 0.55629998
vt 0.5438 0.76749998
vt 0.5184 0.55629998
vt 0.5184 0.76749998
vt 0.3917 0.66189998
vt 0.4931 0.55629998
vt 0.4931 0.76749998
vt 0.4678 0.55629998
vt 0.4678 0.76749998
vt 0.4424 0.55629998
vt 0.4424 0.76749998
vt 0.4171 0.55629998
vt 0.3917 0.55629998
vt 0.4171 0.76749998
vt 0.3917 0.76749998
vt 0.6338 0.55629998
vt 0.6338 0.76749998
vt 0.6418 0.76749998
vt 0.6418 0.55629998
vn 1 0 0
vn 1 0 0
vn 1 0 0
vn 1 0 0
vn 1 0 0
vn 1 0 0
vn 1 0 0
vn 1 -0.0001 0
vn 1 0 0
vn 1 0 0
vn 1 0 0
vn 1 0 0
vn 1 0 0
vn 1 0 0
vn 1 0 0
vn 1 0 0
vn 0 1 0
vn 0 1 0
vn 0 1 0
vn 0 1 0
vn 0 1 0
vn 0 -0.3754 -0.9268
vn 0 -0.0941 -0.9955
vn 0 -0.0941 -0.9955
vn 0 -0.3754 -0.9268
vn 0 -0.7071 -0.7071
vn 0 -0.7071 -0.7071
vn 0 -0.9268 -0.3754
vn 0 -0.9268 -0.3754
vn 0 -0.9955 -0.0941
vn 0 -0.9955 -0.0941
vn 0 -0.0941 -0.9955
vn 0 -0.0941 -0.9955
vn 0 0 -1
vn 0 0 -1
vn 0 0 -1
vn 0 0 -1
vn 0 0 -1
vn 0 0 -1
vn 0 0 -1
vn 0 0 -1
vn 0 0 -1
vn 0 0 -1
vn 0 0 -1
vn 0 0 -1
vn 0 0 -1
vn 0 0 -1
vn 0 0 -1
vn 0 0 -1
vn 0 0 -1
vn 0 0 -1
vn 0 0 -1
vn 0 -0.9955 -0.0941
vn 0 -0.9955 -0.0941
vn 0 -1 0
vn 0 -1 0
f 55/55/55 54/54/54 53/53/53
f 56/56/56 55/55/55 53/53/53
f 3/3/3 2/2/2 1/1/1
f 15/15/15 2/2/2 3/3/3
f 15/15/15 14/14/14 2/2/2
f 12/12/12 2/2/2 14/14/14
f 13/13/13 2/2/2 12/12/12
f 9/9/9 1/1/1 2/2/2
f 16/16/16 1/1/1 9/9/9
f 9/9/9 10/10/10 16/16/16
f 11/11/11 10/10/10 9/9/9
f 9/9/9 7/7/7 11/11/11
f 9/9/9 6/6/6 7/7/7
f 4/4/4 7/7/7 6/6/6
f 6/6/6 5/5/5 4/4/4
f 4/4/4 8/8/8 7/7/7
f 19/19/19 18/18/18 17/17/17
f 17/17/17 20/20/20 19/19/19
f 20/20/20 21/21/21 19/19/19
f 24/24/24 23/23/23 22/22/22
f 25/25/25 24/24/24 22/22/22
f 25/25/25 22/22/22 26/26/26
f 27/27/27 25/25/25 26/26/26
f 27/27/27 26/26/26 28/28/28
f 29/29/29 27/27/27 28/28/28
f 29/29/29 28/28/28 30/30/30
f 31/31/31 29/29/29 30/30/30
f 34/34/34 33/33/33 32/32/32
f 35/35/35 34/34/34 32/32/32
f 36/36/36 34/34/34 35/35/35
f 37/37/37 36/36/36 35/35/35
f 38/38/38 36/36/36 37/37/37
f 39/39/39 38/38/38 37/37/37
f 40/40/40 38/38/38 39/39/39
f 41/41/41 40/40/40 39/39/39
f 41/41/41 42/42/42 40/40/40
f 40/40/40 42/42/42 43/43/43
f 44/44/44 42/42/42 41/41/41
f 45/45/45 43/43/43 42/42/42
f 42/42/42 44/44/44 46/46/46
f 47/47/47 45/45/45 42/42/42
f 48/48/48 42/42/42 46/46/46
f 42/42/42 49/49/49 47/47/47
f 42/42/42 50/50/50 49/49/49
f 42/42/42 48/48/48 51/51/51
f 42/42/42 51/51/51 52/52/52
