# VPXTOOL table OBJ file
# VPXTOOL OBJ file
# numVerts: 4 numFaces: 6
o PinCab_Backglass
v -1.1155320405960083 0.9458270072937012 -0.06799100339412689
v 0.15495799481868744 0.9458270072937012 -0.06799100339412689
v 0.15495799481868744 1.6639139652252197 -0.028181999921798706
v -1.1155320405960083 1.6639139652252197 -0.028181999921798706
vt 1 1
vt 0 1
vt -0 0
vt 1 0
vn 0 0.055399999022483826 -0.9984999895095825
vn 0 0.055399999022483826 -0.9984999895095825
vn 0 0.055399999022483826 -0.9984999895095825
vn 0 0.055399999022483826 -0.9984999895095825
f 3/3/3 2/2/2 1/1/1
f 4/4/4 3/3/3 1/1/1
