# VPXTOOL table OBJ file
# VPXTOOL OBJ file
# numVerts: 91 numFaces: 51
o p32off
v -0.00136 -0.084016 -0.018569
v -0.00136 -0.072903 -0.018569
v -0.074904 -0.072903 -0.018569
v -0.074904 -0.084016 -0.018569
v -0.074904 -0.084016 0.02267
v -0.074904 -0.072903 0.02267
v -0.00136 -0.072903 0.02267
v -0.00136 -0.084016 0.02267
v -0.058751 -0.084016 -0.034721
v -0.058751 -0.072903 -0.034721
v -0.058751 -0.072903 0.038823
v -0.058751 -0.084016 0.038823
v -0.017512 -0.084016 0.038823
v -0.017512 -0.072903 0.038823
v -0.017512 -0.072903 -0.034721
v -0.017512 -0.084016 -0.034721
v -0.23032 -0.00185 -0.123173
v -0.23032 -0.045849 -0.123173
v -0.248834 -0.045849 -0.108948
v -0.248834 -0.00185 -0.108948
v -0.248834 -0.00185 0.108948
v -0.248834 -0.045849 0.108948
v -0.23032 -0.045849 0.123173
v -0.23032 -0.00185 0.123173
v -0.248834 -0.00185 -0.108948
v -0.248834 -0.045849 -0.108948
v -0.258155 -0.045849 -0.087604
v -0.258155 -0.00185 -0.087604
v -0.23032 -0.00185 0.123173
v -0.23032 -0.045849 0.123173
v -0.207263 -0.045849 0.126464
v -0.207263 -0.00185 0.126464
v -0.23032 -0.00185 -0.123173
v -0.207263 -0.00185 -0.126464
v -0.207263 -0.045849 -0.126464
v -0.23032 -0.045849 -0.123173
v 0.253829 -0.00185 0.018811
v 0.253829 -0.045849 0.018811
v 0.257999 -0.045849 0
v 0.257999 -0.00185 0
v 0.257999 -0.00185 0
v 0.257999 -0.045849 0
v 0.253829 -0.045849 -0.018811
v 0.253829 -0.00185 -0.018811
v 0.224567 -0.00185 0.043309
v 0.224567 -0.045849 0.043309
v 0.241518 -0.045849 0.033894
v 0.241518 -0.00185 0.033894
v 0.224567 -0.00185 -0.043309
v 0.241518 -0.00185 -0.033894
v 0.241518 -0.045849 -0.033894
v 0.224567 -0.045849 -0.043309
v -0.248834 -0.00185 0.108948
v -0.258155 -0.00185 0.087604
v -0.258155 -0.045849 0.087604
v -0.248834 -0.045849 0.108948
v 0.253829 -0.045849 0.018811
v 0.253829 -0.00185 0.018811
v 0.241518 -0.00185 0.033894
v 0.241518 -0.045849 0.033894
v 0.224567 -0.00185 -0.043309
v 0.224567 -0.045849 -0.043309
v -0.207263 -0.045849 -0.126464
v -0.207263 -0.00185 -0.126464
v -0.258155 -0.00185 -0.087604
v -0.258155 -0.045849 -0.087604
v -0.258155 -0.045849 0.087604
v -0.258155 -0.00185 0.087604
v -0.207263 -0.00185 0.126464
v -0.207263 -0.045849 0.126464
v 0.224567 -0.045849 0.043309
v 0.224567 -0.00185 0.043309
v -0.207263 -0.045849 -0.126464
v 0.224567 -0.045849 -0.043309
v 0.241518 -0.045849 -0.033894
v 0.253829 -0.045849 -0.018811
v 0.257999 -0.045849 0
v 0.253829 -0.045849 0.018811
v 0.241518 -0.045849 0.033894
v 0.224567 -0.045849 0.043309
v -0.207263 -0.045849 0.126464
v -0.23032 -0.045849 0.123173
v -0.248834 -0.045849 0.108948
v -0.258155 -0.045849 0.087604
v -0.258155 -0.045849 -0.087604
v -0.248834 -0.045849 -0.108948
v -0.23032 -0.045849 -0.123173
v 0.241518 -0.00185 -0.033894
v 0.253829 -0.00185 -0.018811
v 0.253829 -0.045849 -0.018811
v 0.241518 -0.045849 -0.033894
vt 0 0
vt 0 0
vt 0 0
vt 0 0
vt 0 0
vt 0 0
vt 0 0
vt 0 0
vt 0 0
vt 0 0
vt 0 0
vt 0 0
vt 0 0
vt 0 0
vt 0 0
vt 0 0
vt 0.070319 0.95957899
vt 0.099871 0.927980006
vt 0.067706 0.87855399
vt 0.03578 0.906503975
vt 0.03578 0.093496025
vt 0.067706 0.12144601
vt 0.099871 0.072019994
vt 0.070319 0.04042101
vt 0.03578 0.906503975
vt 0.067706 0.87855399
vt 0.051514 0.80439103
vt 0.018392 0.82686502
vt 0.070319 0.04042101
vt 0.099871 0.072019994
vt 0.139928 0.060585976
vt 0.113334 0.028142989
vt 0.070319 0.95957899
vt 0.113334 0.971857011
vt 0.139928 0.939414024
vt 0.099871 0.927980006
vt 0.973538 0.42981303
vt 0.940988 0.43463898
vt 0.948233 0.5
vt 0.981318 0.5
vt 0.981318 0.5
vt 0.948233 0.5
vt 0.940988 0.56536102
vt 0.973538 0.57018697
vt 0.918947 0.338409
vt 0.89015 0.349519
vt 0.919601 0.382232
vt 0.950572 0.373537
vt 0.918947 0.661591
vt 0.950572 0.626463
vt 0.919601 0.617768
vt 0.89015 0.650481
vt 0.03578 0.093496025
vt 0.018392 0.17313498
vt 0.051514 0.19560897
vt 0.067706 0.12144601
vt 0.940988 0.43463898
vt 0.973538 0.42981303
vt 0.950572 0.373537
vt 0.919601 0.382232
vt 0.918947 0.661591
vt 0.89015 0.650481
vt 0.139928 0.939414024
vt 0.113334 0.971857011
vt 0.018392 0.82686502
vt 0.051514 0.80439103
vt 0.051514 0.19560897
vt 0.018392 0.17313498
vt 0.113334 0.028142989
vt 0.139928 0.060585976
vt 0.89015 0.349519
vt 0.918947 0.338409
vt 0.139928 0.939414024
vt 0.89015 0.650481
vt 0.919601 0.617768
vt 0.940988 0.56536102
vt 0.948233 0.5
vt 0.940988 0.43463898
vt 0.919601 0.382232
vt 0.89015 0.349519
vt 0.139928 0.060585976
vt 0.099871 0.072019994
vt 0.067706 0.12144601
vt 0.051514 0.19560897
vt 0.051514 0.80439103
vt 0.067706 0.87855399
vt 0.099871 0.927980006
vt 0.950572 0.626463
vt 0.973538 0.57018697
vt 0.940988 0.56536102
vt 0.919601 0.617768
vn -0 -0 -1
vn -0 -0 -1
vn -0 -0 -1
vn -0 -0 -1
vn 0 0 1
vn 0 0 1
vn 0 0 1
vn 0 0 1
vn -1 0 0
vn -1 0 0
vn -1 0 0
vn -1 0 0
vn 1 0 0
vn 1 0 0
vn 1 0 0
vn 1 0 0
vn 0.6093 0 0.793
vn 0.6093 0 0.793
vn 0.6093 0 0.793
vn 0.6093 0 0.793
vn 0.6093 0 -0.793
vn 0.6093 0 -0.793
vn 0.6093 0 -0.793
vn 0.6093 0 -0.793
vn 0.9164 0 0.4002
vn 0.9164 0 0.4002
vn 0.9164 0 0.4002
vn 0.9164 0 0.4002
vn 0.1413 0 -0.99
vn 0.1413 0 -0.99
vn 0.1413 0 -0.99
vn 0.1413 0 -0.99
vn 0.1413 0 0.99
vn 0.1413 0 0.99
vn 0.1413 0 0.99
vn 0.1413 0 0.99
vn -0.9763 0 -0.2164
vn -0.9763 0 -0.2164
vn -0.9763 0 -0.2164
vn -0.9763 0 -0.2164
vn -0.9763 0 0.2164
vn -0.9763 0 0.2164
vn -0.9763 0 0.2164
vn -0.9763 0 0.2164
vn -0.4855 0 -0.8742
vn -0.4855 0 -0.8742
vn -0.4855 0 -0.8742
vn -0.4855 0 -0.8742
vn -0.4855 0 0.8742
vn -0.4855 0 0.8742
vn -0.4855 0 0.8742
vn -0.4855 0 0.8742
vn 0.9164 0 -0.4002
vn 0.9164 0 -0.4002
vn 0.9164 0 -0.4002
vn 0.9164 0 -0.4002
vn -0.7747 0 -0.6323
vn -0.7747 0 -0.6323
vn -0.7747 0 -0.6323
vn -0.7747 0 -0.6323
vn -0.1891 0 0.982
vn -0.1891 0 0.982
vn -0.1891 0 0.982
vn -0.1891 0 0.982
vn 1 0 0
vn 1 0 0
vn 1 0 0
vn 1 0 0
vn -0.1891 0 -0.982
vn -0.1891 0 -0.982
vn -0.1891 0 -0.982
vn -0.1891 0 -0.982
vn 0 1 0
vn 0 1 0
vn 0 1 0
vn 0 1 0
vn 0 1 0
vn 0 1 0
vn 0 1 0
vn 0 1 0
vn 0 1 0
vn 0 1 0
vn 0 1 0
vn 0 1 0
vn 0 1 0
vn 0 1 0
vn 0 1 0
vn -0.7747 0 0.6323
vn -0.7747 0 0.6323
vn -0.7747 0 0.6323
vn -0.7747 0 0.6323
f 3/3/3 2/2/2 1/1/1
f 4/4/4 3/3/3 1/1/1
f 7/7/7 6/6/6 5/5/5
f 8/8/8 7/7/7 5/5/5
f 11/11/11 10/10/10 9/9/9
f 12/12/12 11/11/11 9/9/9
f 15/15/15 14/14/14 13/13/13
f 16/16/16 15/15/15 13/13/13
f 19/19/19 18/18/18 17/17/17
f 20/20/20 19/19/19 17/17/17
f 23/23/23 22/22/22 21/21/21
f 24/24/24 23/23/23 21/21/21
f 27/27/27 26/26/26 25/25/25
f 28/28/28 27/27/27 25/25/25
f 31/31/31 30/30/30 29/29/29
f 32/32/32 31/31/31 29/29/29
f 35/35/35 34/34/34 33/33/33
f 36/36/36 35/35/35 33/33/33
f 39/39/39 38/38/38 37/37/37
f 40/40/40 39/39/39 37/37/37
f 43/43/43 42/42/42 41/41/41
f 44/44/44 43/43/43 41/41/41
f 47/47/47 46/46/46 45/45/45
f 48/48/48 47/47/47 45/45/45
f 51/51/51 50/50/50 49/49/49
f 52/52/52 51/51/51 49/49/49
f 55/55/55 54/54/54 53/53/53
f 56/56/56 55/55/55 53/53/53
f 59/59/59 58/58/58 57/57/57
f 60/60/60 59/59/59 57/57/57
f 63/63/63 62/62/62 61/61/61
f 64/64/64 63/63/63 61/61/61
f 67/67/67 66/66/66 65/65/65
f 68/68/68 67/67/67 65/65/65
f 71/71/71 70/70/70 69/69/69
f 72/72/72 71/71/71 69/69/69
f 75/75/75 74/74/74 73/73/73
f 76/76/76 75/75/75 73/73/73
f 77/77/77 76/76/76 73/73/73
f 78/78/78 77/77/77 73/73/73
f 79/79/79 78/78/78 73/73/73
f 80/80/80 79/79/79 73/73/73
f 81/81/81 80/80/80 73/73/73
f 82/82/82 81/81/81 73/73/73
f 83/83/83 82/82/82 73/73/73
f 84/84/84 83/83/83 73/73/73
f 85/85/85 84/84/84 73/73/73
f 86/86/86 85/85/85 73/73/73
f 87/87/87 86/86/86 73/73/73
f 90/90/90 89/89/89 88/88/88
f 91/91/91 90/90/90 88/88/88
