# VPXTOOL table OBJ file
# VPXTOOL OBJ file
# numVerts: 795 numFaces: 780
o Primitive003
v 0.1941 0.1535 -0.1741
v 0.1866 0.2051 -0.1673
v 0.1599 0.2051 -0.1933
v 0.1663 0.1535 -0.2011
v -0.068 -0.1079 -0.2525
v -0.0704 -0.1026 -0.2614
v -0.131 -0.1079 -0.2264
v -0.0003 -0.0845 -0.3019
v -0.0003 -0.1079 -0.2614
v 0.0697 -0.1026 -0.2614
v 0.0673 -0.1079 -0.2525
v 0.1304 -0.1079 -0.2264
v -0.131 -0.1079 -0.2264
v -0.1917 -0.1026 -0.1914
v -0.1852 -0.1079 -0.1849
v -0.2617 -0.0845 -0.1509
v -0.2267 -0.1079 -0.1307
v -0.2617 -0.1026 -0.0701
v -0.2528 -0.1079 -0.0677
v -0.2617 -0.1079 -0
v 0.1845 -0.1079 -0.1849
v 0.191 -0.1026 -0.1914
v 0.1304 -0.1079 -0.2264
v 0.226 -0.1079 -0.1307
v 0.2611 -0.0845 -0.151
v 0.2611 -0.1026 -0.0701
v 0.2521 -0.1079 -0.0677
v 0.2611 -0.1079 -0
v -0.131 -0.1079 0.2263
v -0.0704 -0.1026 0.2613
v -0.068 -0.1079 0.2524
v -0.0003 -0.1079 0.2613
v -0.0003 -0.0845 0.3018
v 0.0673 -0.1079 0.2524
v 0.0697 -0.1026 0.2614
v 0.1304 -0.1079 0.2263
v -0.1852 -0.1079 0.1848
v -0.1917 -0.1026 0.1913
v -0.131 -0.1079 0.2263
v -0.2267 -0.1079 0.1306
v -0.2617 -0.0845 0.1509
v -0.2528 -0.1079 0.0676
v -0.2617 -0.1026 0.07
v -0.2617 -0.1079 -0
v 0.1304 -0.1079 0.2263
v 0.191 -0.1026 0.1913
v 0.1845 -0.1079 0.1848
v 0.226 -0.1079 0.1306
v 0.261 -0.0845 0.1509
v 0.2611 -0.1026 0.07
v 0.2521 -0.1079 0.0676
v 0.2611 -0.1079 -0
v -0.131 0.1618 -0.2264
v -0.0704 0.1565 -0.2614
v -0.068 0.1618 -0.2525
v -0.0003 0.1618 -0.2614
v -0.0003 0.1385 -0.3019
v 0.0697 0.1565 -0.2614
v 0.0673 0.1618 -0.2525
v 0.1304 0.1618 -0.2264
v -0.1852 0.1618 -0.1849
v -0.1917 0.1565 -0.1914
v -0.131 0.1618 -0.2264
v -0.2267 0.1618 -0.1307
v -0.2617 0.1385 -0.1509
v -0.2617 0.1565 -0.0701
v -0.2528 0.1618 -0.0677
v -0.2617 0.1618 0
v 0.1304 0.1618 -0.2264
v 0.191 0.1565 -0.1914
v 0.1845 0.1618 -0.1849
v 0.226 0.1618 -0.1307
v 0.2611 0.1385 -0.151
v 0.2611 0.1565 -0.0701
v 0.2521 0.1618 -0.0677
v 0.2611 0.1618 0
v -0.068 0.1618 0.2524
v -0.0704 0.1565 0.2613
v -0.131 0.1618 0.2263
v -0.0003 0.1618 0.2613
v -0.0003 0.1385 0.3018
v 0.0697 0.1565 0.2614
v 0.0673 0.1618 0.2524
v 0.1304 0.1618 0.2263
v -0.131 0.1618 0.2263
v -0.1917 0.1565 0.1913
v -0.1852 0.1618 0.1848
v -0.2617 0.1385 0.1509
v -0.2267 0.1618 0.1306
v -0.2617 0.1565 0.07
v -0.2528 0.1618 0.0676
v -0.2617 0.1618 0
v 0.1845 0.1618 0.1848
v 0.191 0.1565 0.1913
v 0.1304 0.1618 0.2263
v 0.261 0.1385 0.1509
v 0.226 0.1618 0.1306
v 0.2611 0.1565 0.07
v 0.2521 0.1618 0.0676
v 0.2611 0.1618 0
v -0.131 0.1618 -0.2264
v -0.131 -0.1079 -0.2264
v -0.0704 -0.1026 -0.2614
v -0.1917 -0.1026 -0.1914
v -0.0704 0.1565 -0.2614
v -0.0003 0.1385 -0.3019
v -0.0003 -0.0845 -0.3019
v -0.1917 0.1565 -0.1914
v -0.2617 0.1385 -0.1509
v -0.2617 -0.0845 -0.1509
v 0.0697 -0.1026 -0.2614
v 0.0697 0.1565 -0.2614
v -0.0003 0.1385 -0.3019
v -0.0003 -0.0845 -0.3019
v 0.1304 -0.1079 -0.2264
v 0.1304 0.1618 -0.2264
v 0.191 -0.1026 -0.1914
v 0.191 0.1565 -0.1914
v 0.2611 -0.0845 -0.151
v 0.2611 0.1385 -0.151
v -0.0704 0.1565 0.2613
v -0.0704 -0.1026 0.2613
v -0.131 -0.1079 0.2263
v -0.0003 0.1385 0.3018
v -0.0003 -0.0845 0.3018
v -0.131 0.1618 0.2263
v -0.1917 -0.1026 0.1913
v -0.1917 0.1565 0.1913
v -0.2617 0.1385 0.1509
v -0.2617 -0.0845 0.1509
v 0.0697 0.1565 0.2614
v 0.0697 -0.1026 0.2614
v -0.0003 -0.0845 0.3018
v -0.0003 0.1385 0.3018
v 0.1304 0.1618 0.2263
v 0.1304 -0.1079 0.2263
v 0.191 -0.1026 0.1913
v 0.191 0.1565 0.1913
v 0.261 0.1385 0.1509
v 0.261 -0.0845 0.1509
v 0.2611 -0.1026 -0.0701
v 0.2611 0.1565 -0.0701
v 0.2611 0.1385 -0.151
v 0.2611 -0.0845 -0.151
v 0.2611 -0.1079 -0
v 0.2611 0.1618 0
v 0.2611 -0.1026 0.07
v 0.2611 0.1565 0.07
v 0.261 0.1385 0.1509
v 0.261 -0.0845 0.1509
v -0.2617 0.1385 0.1509
v -0.2617 -0.0845 0.1509
v -0.2617 -0.1026 0.07
v -0.2617 0.1565 0.07
v -0.2617 0.1618 0
v -0.2617 -0.1079 -0
v -0.2617 -0.1026 -0.0701
v -0.2617 0.1565 -0.0701
v -0.2617 0.1385 -0.1509
v -0.2617 -0.0845 -0.1509
v -0.0003 0.1618 -0.2614
v -0.0003 0.1618 -0.1492
v -0.0389 0.1618 -0.1441
v 0.0383 0.1618 -0.1441
v -0.068 0.1618 -0.2525
v 0.0673 0.1618 -0.2525
v -0.0749 0.1618 -0.1293
v 0.1304 0.1618 -0.2264
v -0.131 0.1618 -0.2264
v 0.0743 0.1618 -0.1293
v -0.1852 0.1618 -0.1849
v 0.1845 0.1618 -0.1849
v -0.1058 0.1618 -0.1055
v 0.1052 0.1618 -0.1055
v -0.2267 0.1618 -0.1307
v 0.226 0.1618 -0.1307
v -0.1295 0.1618 -0.0746
v 0.1289 0.1618 -0.0746
v -0.1444 0.1618 -0.0387
v 0.2521 0.1618 -0.0677
v -0.2528 0.1618 -0.0677
v 0.1438 0.1618 -0.0387
v -0.1495 0.1618 0
v 0.1489 0.1618 0
v -0.2617 0.1618 0
v 0.2611 0.1618 0
v -0.2528 0.1618 0.0676
v 0.2521 0.1618 0.0676
v -0.1444 0.1618 0.0386
v 0.1438 0.1618 0.0386
v -0.1295 0.1618 0.0746
v 0.1289 0.1618 0.0746
v -0.2267 0.1618 0.1306
v 0.226 0.1618 0.1306
v -0.1058 0.1618 0.1054
v 0.1052 0.1618 0.1054
v -0.1852 0.1618 0.1848
v 0.1845 0.1618 0.1848
v -0.0749 0.1618 0.1292
v 0.0743 0.1618 0.1292
v -0.131 0.1618 0.2263
v 0.1304 0.1618 0.2263
v -0.0389 0.1618 0.1441
v 0.0673 0.1618 0.2524
v -0.068 0.1618 0.2524
v 0.0383 0.1618 0.1441
v -0.0003 0.1618 0.2613
v -0.0003 0.1618 0.1491
v 0.0001 0.207 0
v 0.0136 0.207 0.0678
v 0.0001 0.207 0.0691
v 0.0266 0.207 0.0638
v -0.0134 0.207 0.0678
v 0.0385 0.207 0.0575
v -0.0264 0.207 0.0638
v 0.049 0.207 0.0489
v -0.0383 0.207 0.0575
v 0.0576 0.207 0.0384
v -0.0488 0.207 0.0489
v 0.064 0.207 0.0264
v -0.0574 0.207 0.0384
v 0.0679 0.207 0.0134
v -0.0638 0.207 0.0264
v 0.0693 0.207 0
v -0.0677 0.207 0.0134
v 0.0679 0.207 -0.0135
v -0.0691 0.207 0
v 0.064 0.207 -0.0265
v -0.0677 0.207 -0.0135
v 0.0576 0.207 -0.0385
v -0.0638 0.207 -0.0265
v 0.049 0.207 -0.0489
v -0.0574 0.207 -0.0385
v 0.0385 0.207 -0.0575
v -0.0488 0.207 -0.0489
v 0.0266 0.207 -0.0639
v -0.0383 0.207 -0.0575
v 0.0136 0.207 -0.0679
v -0.0264 0.207 -0.0639
v 0.0001 0.207 -0.0692
v -0.0134 0.207 -0.0679
v 0.0178 0.1857 0.0887
v 0.0001 0.1857 0.0905
v 0.0001 0.207 0.0691
v 0.0136 0.207 0.0678
v -0.0134 0.207 0.0678
v 0.0347 0.1857 0.0836
v -0.0176 0.1857 0.0887
v 0.0266 0.207 0.0638
v -0.0264 0.207 0.0638
v 0.0504 0.1857 0.0752
v -0.0345 0.1857 0.0836
v 0.0385 0.207 0.0575
v -0.0383 0.207 0.0575
v 0.0641 0.1857 0.064
v -0.0502 0.1857 0.0752
v 0.049 0.207 0.0489
v -0.0488 0.207 0.0489
v 0.0754 0.1857 0.0502
v -0.0639 0.1857 0.064
v 0.0576 0.207 0.0384
v -0.0574 0.207 0.0384
v -0.0752 0.1857 0.0502
v 0.0837 0.1857 0.0346
v 0.064 0.207 0.0264
v -0.0752 0.1857 0.0502
v -0.0835 0.1857 0.0346
v -0.0638 0.207 0.0264
v -0.0574 0.207 0.0384
v -0.0677 0.207 0.0134
v -0.0887 0.1857 0.0176
v -0.0691 0.207 0
v -0.0904 0.1857 0
v -0.0677 0.207 -0.0135
v -0.0887 0.1857 -0.0177
v -0.0638 0.207 -0.0265
v -0.0835 0.1857 -0.0347
v -0.0574 0.207 -0.0385
v -0.0752 0.1857 -0.0503
v -0.0752 0.1857 -0.0503
v -0.0639 0.1857 -0.064
v -0.0488 0.207 -0.0489
v -0.0574 0.207 -0.0385
v -0.0383 0.207 -0.0575
v -0.0502 0.1857 -0.0753
v -0.0264 0.207 -0.0639
v -0.0345 0.1857 -0.0837
v -0.0134 0.207 -0.0679
v -0.0176 0.1857 -0.0888
v 0.0001 0.207 -0.0692
v 0.0001 0.1857 -0.0906
v 0.0136 0.207 -0.0679
v 0.0178 0.1857 -0.0888
v 0.0178 0.1857 -0.0888
v 0.0347 0.1857 -0.0837
v 0.0266 0.207 -0.0639
v 0.0136 0.207 -0.0679
v 0.0385 0.207 -0.0575
v 0.0504 0.1857 -0.0753
v 0.049 0.207 -0.0489
v 0.0641 0.1857 -0.064
v 0.0576 0.207 -0.0385
v 0.0754 0.1857 -0.0503
v 0.064 0.207 -0.0265
v 0.0837 0.1857 -0.0347
v 0.0679 0.207 -0.0135
v 0.0889 0.1857 -0.0177
v 0.0889 0.1857 -0.0177
v 0.0906 0.1857 0
v 0.0693 0.207 0
v 0.0679 0.207 -0.0135
v 0.0679 0.207 0.0134
v 0.0889 0.1857 0.0176
v 0.064 0.207 0.0264
v 0.0837 0.1857 0.0346
v 0.0104 0.1507 -0.2625
v 0.01 0.2001 -0.2523
v 0.0008 0.1976 -0.2531
v 0.0256 0.2039 -0.2496
v 0.0008 0.1492 -0.2634
v 0.0266 0.1528 -0.2597
v -0.0086 0.1507 -0.2626
v 0.0555 0.1535 -0.2545
v -0.0082 0.2001 -0.2524
v 0.0534 0.2051 -0.2447
v -0.0235 0.2039 -0.2497
v 0.0884 0.2051 -0.2347
v -0.0245 0.1528 -0.2598
v 0.092 0.1535 -0.2441
v -0.0537 0.1535 -0.2546
v 0.1306 0.1535 -0.2254
v -0.0516 0.2051 -0.2447
v 0.1255 0.2051 -0.2166
v -0.087 0.2051 -0.2347
v 0.1599 0.2051 -0.1933
v 0.1663 0.1535 -0.2011
v -0.0905 0.1535 -0.2442
v -0.1293 0.1535 -0.2254
v -0.1242 0.2051 -0.2166
v -0.1585 0.2051 -0.1933
v -0.165 0.1535 -0.2011
v 0.0089 0.2166 -0.2217
v 0.0008 0.2137 -0.2225
v 0.0008 0.1976 -0.2531
v 0.01 0.2001 -0.2523
v 0.0256 0.2039 -0.2496
v -0.0072 0.2166 -0.2218
v -0.0082 0.2001 -0.2524
v -0.0235 0.2039 -0.2497
v 0.0008 0.1976 -0.1918
v 0.0078 0.2001 -0.1911
v -0.0061 0.2001 -0.1912
v 0.0195 0.2039 -0.189
v -0.0176 0.2039 -0.1891
v 0.0225 0.2209 -0.2193
v -0.0206 0.2209 -0.2194
v 0.047 0.2223 -0.215
v 0.0534 0.2051 -0.2447
v 0.0406 0.2051 -0.1853
v 0.0884 0.2051 -0.2347
v 0.0671 0.2051 -0.1778
v 0.0778 0.2223 -0.2062
v 0.1104 0.2223 -0.1904
v 0.1255 0.2051 -0.2166
v 0.0952 0.2051 -0.1641
v 0.1599 0.2051 -0.1933
v 0.1212 0.2051 -0.1464
v 0.1405 0.2223 -0.1699
v 0.164 0.2223 -0.147
v 0.1866 0.2051 -0.1673
v 0.1414 0.2051 -0.1268
v 0.2051 0.2039 -0.1452
v 0.1555 0.2039 -0.11
v 0.1803 0.2209 -0.1276
v 0.1889 0.2166 -0.1174
v 0.2149 0.2001 -0.1336
v 0.1629 0.2001 -0.1012
v 0.2196 0.1976 -0.1269
v 0.1664 0.1976 -0.0962
v 0.193 0.2137 -0.1116
v 0.196 0.2166 -0.1053
v 0.223 0.2001 -0.1198
v 0.169 0.2001 -0.0908
v 0.2281 0.2039 -0.1058
v 0.1728 0.2039 -0.0802
v 0.2005 0.2209 -0.093
v 0.2092 0.2223 -0.0689
v 0.238 0.2051 -0.0784
v 0.1804 0.2051 -0.0595
v 0.2473 0.2051 -0.0419
v 0.1874 0.2051 -0.0318
v 0.2174 0.2223 -0.0368
v 0.2201 0.2223 -0.0004
v 0.2504 0.2051 -0.0004
v 0.1898 0.2051 -0.0004
v 0.2472 0.2051 0.0414
v 0.1873 0.2051 0.0313
v 0.2173 0.2223 0.0363
v 0.2089 0.2223 0.069
v 0.2377 0.2051 0.0786
v 0.1801 0.2051 0.0594
v 0.2276 0.2039 0.1064
v 0.1725 0.2039 0.0805
v 0.2 0.2209 0.0934
v 0.1957 0.2166 0.1054
v 0.2226 0.2001 0.12
v 0.1687 0.2001 0.0907
v 0.2195 0.1976 0.1264
v 0.1664 0.1976 0.0956
v 0.193 0.2137 0.111
v 0.189 0.2166 0.1166
v 0.215 0.2001 0.1328
v 0.1629 0.2001 0.1004
v 0.2053 0.2039 0.1444
v 0.1556 0.2039 0.1092
v 0.1804 0.2209 0.1268
v 0.1641 0.2223 0.1462
v 0.1867 0.2051 0.1665
v 0.1415 0.2051 0.126
v 0.1599 0.2051 0.1926
v 0.1212 0.2051 0.1457
v 0.1406 0.2223 0.1691
v 0.1104 0.2223 0.1897
v 0.1255 0.2051 0.2159
v 0.0952 0.2051 0.1634
v 0.088 0.2051 0.234
v 0.0668 0.2051 0.1771
v 0.0774 0.2223 0.2055
v 0.0455 0.2223 0.2145
v 0.0517 0.2051 0.2442
v 0.0393 0.2051 0.1848
v 0.023 0.2039 0.2493
v 0.0175 0.2039 0.1887
v 0.0203 0.2209 0.219
v 0.0074 0.2166 0.2213
v 0.0083 0.2001 0.2519
v 0.0064 0.2001 0.1906
v 0.0011 0.1976 0.2526
v 0.001 0.1976 0.1912
v 0.001 0.2137 0.2219
v -0.0046 0.2166 0.2215
v -0.0054 0.2001 0.2522
v -0.0039 0.2001 0.1908
v -0.0192 0.2039 0.2497
v -0.0144 0.2039 0.189
v -0.0168 0.2209 0.2194
v -0.0427 0.2223 0.2148
v -0.0487 0.2051 0.2445
v -0.0367 0.2051 0.185
v -0.0863 0.2051 0.2341
v -0.0652 0.2051 0.1771
v -0.0757 0.2223 0.2056
v -0.109 0.2223 0.1897
v -0.1242 0.2051 0.2159
v -0.0939 0.2051 0.1634
v -0.1581 0.2051 0.1931
v -0.1195 0.2051 0.1461
v -0.1388 0.2223 0.1696
v -0.1612 0.2223 0.1481
v -0.1836 0.2051 0.1686
v -0.1388 0.2051 0.1276
v -0.2012 0.2039 0.1475
v -0.1522 0.2039 0.1116
v -0.1767 0.2209 0.1296
v -0.186 0.2166 0.1185
v -0.2119 0.2001 0.1349
v -0.1602 0.2001 0.102
v -0.2179 0.1976 0.1266
v -0.1648 0.1976 0.0958
v -0.1913 0.2137 0.1112
v -0.1948 0.2166 0.1042
v -0.2218 0.2001 0.1186
v -0.1678 0.2001 0.0897
v -0.227 0.2039 0.1044
v -0.1717 0.2039 0.0789
v -0.1993 0.2209 0.0917
v -0.208 0.2223 0.0678
v -0.2368 0.2051 0.0773
v -0.1792 0.2051 0.0584
v -0.246 0.2051 0.0411
v -0.1861 0.2051 0.031
v -0.2161 0.2223 0.036
v -0.2187 0.2223 -0.0004
v -0.2491 0.2051 -0.0004
v -0.1884 0.2051 -0.0004
v -0.246 0.2051 -0.0419
v -0.1861 0.2051 -0.0318
v -0.216 0.2223 -0.0368
v -0.2079 0.2223 -0.0688
v -0.2367 0.2051 -0.0783
v -0.1791 0.2051 -0.0594
v -0.2268 0.2039 -0.1056
v -0.1716 0.2039 -0.08
v -0.1992 0.2209 -0.0928
v -0.1947 0.2166 -0.1052
v -0.2217 0.2001 -0.1197
v -0.1677 0.2001 -0.0907
v -0.2183 0.1976 -0.1269
v -0.1651 0.1976 -0.0962
v -0.1917 0.2137 -0.1115
v -0.1875 0.2166 -0.1175
v -0.2135 0.2001 -0.1337
v -0.1615 0.2001 -0.1013
v -0.2037 0.2039 -0.1453
v -0.1541 0.2039 -0.1101
v -0.1789 0.2209 -0.1277
v -0.1626 0.2223 -0.1471
v -0.1852 0.2051 -0.1674
v -0.14 0.2051 -0.1268
v -0.1585 0.2051 -0.1933
v -0.1199 0.2051 -0.1465
v -0.1392 0.2223 -0.1699
v -0.109 0.2223 -0.1904
v -0.1242 0.2051 -0.2166
v -0.0939 0.2051 -0.1641
v -0.087 0.2051 -0.2347
v -0.0657 0.2051 -0.1778
v -0.0763 0.2223 -0.2062
v -0.0453 0.2223 -0.2151
v -0.0516 0.2051 -0.2447
v -0.0389 0.2051 -0.1854
v 0.0074 0.1507 -0.1809
v 0.0008 0.1492 -0.1815
v 0.0008 0.1976 -0.1918
v -0.0057 0.1507 -0.181
v 0.0078 0.2001 -0.1911
v -0.0061 0.2001 -0.1912
v 0.0195 0.2039 -0.189
v -0.0176 0.2039 -0.1891
v 0.0185 0.1528 -0.179
v -0.0167 0.1528 -0.179
v 0.0385 0.1535 -0.1754
v -0.0368 0.1535 -0.1755
v 0.0406 0.2051 -0.1853
v -0.0389 0.2051 -0.1854
v 0.0671 0.2051 -0.1778
v -0.0657 0.2051 -0.1778
v 0.0636 0.1535 -0.1683
v -0.0621 0.1535 -0.1683
v 0.0902 0.1535 -0.1554
v -0.0888 0.1535 -0.1554
v 0.0952 0.2051 -0.1641
v -0.0939 0.2051 -0.1641
v 0.1212 0.2051 -0.1464
v 0.1148 0.1535 -0.1386
v -0.1199 0.2051 -0.1465
v -0.1134 0.1535 -0.1386
v 0.1941 0.1535 -0.1741
v 0.2134 0.1528 -0.1511
v 0.2051 0.2039 -0.1452
v 0.1866 0.2051 -0.1673
v 0.2236 0.1507 -0.139
v 0.2149 0.2001 -0.1336
v 0.2196 0.1976 -0.1269
v 0.2285 0.1492 -0.132
v 0.232 0.1507 -0.1246
v 0.223 0.2001 -0.1198
v 0.2281 0.2039 -0.1058
v 0.2373 0.1528 -0.11
v 0.2476 0.1535 -0.0816
v 0.238 0.2051 -0.0784
v 0.2473 0.2051 -0.0419
v 0.2573 0.1535 -0.0436
v 0.2605 0.1535 -0.0004
v 0.2504 0.2051 -0.0004
v 0.2472 0.2051 0.0414
v 0.2572 0.1535 0.0431
v 0.2473 0.1535 0.0818
v 0.2377 0.2051 0.0786
v 0.2276 0.2039 0.1064
v 0.2368 0.1528 0.1107
v 0.2316 0.1507 0.1248
v 0.2226 0.2001 0.12
v 0.2195 0.1976 0.1264
v 0.2284 0.1492 0.1315
v 0.2237 0.1507 0.1381
v 0.215 0.2001 0.1328
v 0.2053 0.2039 0.1444
v 0.2135 0.1528 0.1502
v 0.1942 0.1535 0.1732
v 0.1867 0.2051 0.1665
v 0.1339 0.1535 -0.12
v 0.1148 0.1535 -0.1386
v 0.1212 0.2051 -0.1464
v 0.1414 0.2051 -0.1268
v 0.1339 0.1535 -0.12
v 0.1414 0.2051 -0.1268
v 0.1555 0.2039 -0.11
v 0.1472 0.1528 -0.1042
v 0.1542 0.1507 -0.0958
v 0.1629 0.2001 -0.1012
v 0.1664 0.1976 -0.0962
v 0.1576 0.1492 -0.0911
v 0.16 0.1507 -0.0859
v 0.169 0.2001 -0.0908
v 0.1728 0.2039 -0.0802
v 0.1636 0.1528 -0.0759
v 0.1708 0.1535 -0.0563
v 0.1804 0.2051 -0.0595
v 0.1874 0.2051 -0.0318
v 0.1774 0.1535 -0.0301
v 0.1796 0.1535 -0.0004
v 0.1898 0.2051 -0.0004
v 0.1873 0.2051 0.0313
v 0.1774 0.1535 0.0296
v 0.1705 0.1535 0.0562
v 0.1801 0.2051 0.0594
v 0.1725 0.2039 0.0805
v 0.1633 0.1528 0.0761
v 0.1597 0.1507 0.0859
v 0.1687 0.2001 0.0907
v 0.1664 0.1976 0.0956
v 0.1575 0.1492 0.0905
v 0.1543 0.1507 0.095
v 0.1629 0.2001 0.1004
v 0.1556 0.2039 0.1092
v 0.1473 0.1528 0.1033
v 0.134 0.1535 0.1192
v 0.1415 0.2051 0.126
v 0.1306 0.1535 0.2247
v 0.1255 0.2051 0.2159
v 0.1599 0.2051 0.1926
v 0.1663 0.1535 0.2004
v 0.088 0.2051 0.234
v 0.0915 0.1535 0.2435
v 0.0537 0.1535 0.2541
v 0.0517 0.2051 0.2442
v 0.023 0.2039 0.2493
v 0.0239 0.1528 0.2594
v 0.0086 0.1507 0.2621
v 0.0083 0.2001 0.2519
v 0.0011 0.1976 0.2526
v 0.0011 0.1492 0.2629
v -0.0056 0.1507 0.2624
v -0.0054 0.2001 0.2522
v -0.0192 0.2039 0.2497
v -0.02 0.1528 0.2598
v -0.0507 0.1535 0.2544
v -0.0487 0.2051 0.2445
v -0.0863 0.2051 0.2341
v -0.0898 0.1535 0.2436
v -0.1293 0.1535 0.2247
v -0.1242 0.2051 0.2159
v -0.1581 0.2051 0.1931
v -0.1645 0.1535 0.2009
v -0.191 0.1535 0.1755
v -0.1836 0.2051 0.1686
v 0.0902 0.1535 0.1546
v 0.1148 0.1535 0.1379
v 0.1212 0.2051 0.1457
v 0.0952 0.2051 0.1634
v 0.0668 0.2051 0.1771
v 0.0633 0.1535 0.1676
v 0.0372 0.1535 0.1749
v 0.0393 0.2051 0.1848
v 0.0175 0.2039 0.1887
v 0.0166 0.1528 0.1786
v 0.0061 0.1507 0.1804
v 0.0064 0.2001 0.1906
v 0.001 0.1976 0.1912
v 0.001 0.1492 0.1809
v -0.0037 0.1507 0.1806
v -0.0039 0.2001 0.1908
v -0.0144 0.2039 0.189
v -0.0136 0.1528 0.1789
v -0.0347 0.1535 0.1751
v -0.0367 0.2051 0.185
v -0.0652 0.2051 0.1771
v -0.0616 0.1535 0.1676
v -0.0888 0.1535 0.1546
v -0.0939 0.2051 0.1634
v -0.1195 0.2051 0.1461
v -0.1131 0.1535 0.1383
v -0.1314 0.1535 0.1207
v -0.1388 0.2051 0.1276
v -0.191 0.1535 0.1755
v -0.2094 0.1528 0.1535
v -0.2012 0.2039 0.1475
v -0.1836 0.2051 0.1686
v -0.2205 0.1507 0.1404
v -0.2119 0.2001 0.1349
v -0.2179 0.1976 0.1266
v -0.2267 0.1492 0.1317
v -0.2308 0.1507 0.1235
v -0.2218 0.2001 0.1186
v -0.227 0.2039 0.1044
v -0.2362 0.1528 0.1086
v -0.2465 0.1535 0.0804
v -0.2368 0.2051 0.0773
v -0.246 0.2051 0.0411
v -0.256 0.1535 0.0427
v -0.2592 0.1535 -0.0004
v -0.2491 0.2051 -0.0004
v -0.246 0.2051 -0.0419
v -0.256 0.1535 -0.0435
v -0.2463 0.1535 -0.0815
v -0.2367 0.2051 -0.0783
v -0.2268 0.2039 -0.1056
v -0.236 0.1528 -0.1099
v -0.2307 0.1507 -0.1245
v -0.2217 0.2001 -0.1197
v -0.2183 0.1976 -0.1269
v -0.2271 0.1492 -0.132
v -0.2222 0.1507 -0.1391
v -0.2135 0.2001 -0.1337
v -0.2037 0.2039 -0.1453
v -0.212 0.1528 -0.1512
v -0.1927 0.1535 -0.1742
v -0.1852 0.2051 -0.1674
v -0.1314 0.1535 0.1207
v -0.1388 0.2051 0.1276
v -0.1522 0.2039 0.1116
v -0.144 0.1528 0.1056
v -0.1516 0.1507 0.0966
v -0.1602 0.2001 0.102
v -0.1648 0.1976 0.0958
v -0.156 0.1492 0.0906
v -0.1588 0.1507 0.0849
v -0.1678 0.2001 0.0897
v -0.1717 0.2039 0.0789
v -0.1625 0.1528 0.0747
v -0.1695 0.1535 0.0553
v -0.1792 0.2051 0.0584
v -0.1861 0.2051 0.031
v -0.1761 0.1535 0.0293
v -0.1783 0.1535 -0.0004
v -0.1884 0.2051 -0.0004
v -0.1861 0.2051 -0.0318
v -0.1761 0.1535 -0.0301
v -0.1695 0.1535 -0.0562
v -0.1791 0.2051 -0.0594
v -0.1716 0.2039 -0.08
v -0.1623 0.1528 -0.0758
v -0.1587 0.1507 -0.0859
v -0.1677 0.2001 -0.0907
v -0.1651 0.1976 -0.0962
v -0.1562 0.1492 -0.0911
v -0.1528 0.1507 -0.0959
v -0.1615 0.2001 -0.1013
v -0.1541 0.2039 -0.1101
v -0.1458 0.1528 -0.1043
v -0.1325 0.1535 -0.1201
v -0.14 0.2051 -0.1268
v -0.1927 0.1535 -0.1742
v -0.165 0.1535 -0.2011
v -0.1585 0.2051 -0.1933
v -0.1852 0.2051 -0.1674
v -0.1325 0.1535 -0.1201
v -0.14 0.2051 -0.1268
v -0.1199 0.2051 -0.1465
v -0.1134 0.1535 -0.1386
v 0.1942 0.1535 0.1732
v 0.1663 0.1535 0.2004
v 0.1599 0.2051 0.1926
v 0.1867 0.2051 0.1665
v 0.134 0.1535 0.1192
v 0.1415 0.2051 0.126
v 0.1212 0.2051 0.1457
v 0.1148 0.1535 0.1379
v 0.0298 0.1799 -0.0821
v 0.0006 0.1799 -0.0873
v 0.0006 0.1826 -0.2478
v 0.0847 0.1826 -0.233
v -0.0834 0.1826 -0.233
v 0.0554 0.1799 -0.0673
v -0.0285 0.1799 -0.0821
v 0.1585 0.1826 -0.1903
v -0.1573 0.1826 -0.1903
v 0.0744 0.1799 -0.0447
v -0.0541 0.1799 -0.0673
v 0.2134 0.1826 -0.125
v -0.2121 0.1826 -0.125
v 0.0845 0.1799 -0.0169
v -0.0731 0.1799 -0.0447
v 0.2426 0.1826 -0.0448
v -0.2413 0.1826 -0.0448
v 0.0845 0.1799 0.0127
v -0.0832 0.1799 -0.0169
v 0.2426 0.1826 0.0405
v -0.2413 0.1826 0.0405
v 0.0744 0.1799 0.0404
v -0.0832 0.1799 0.0127
v 0.2134 0.1826 0.1207
v -0.2121 0.1826 0.1207
v 0.0554 0.1799 0.0631
v -0.0731 0.1799 0.0404
v 0.1585 0.1826 0.1861
v -0.1573 0.1826 0.1861
v 0.0298 0.1799 0.0779
v -0.0541 0.1799 0.0631
v 0.0847 0.1826 0.2287
v -0.0834 0.1826 0.2287
v 0.0006 0.1799 0.083
v -0.0285 0.1799 0.0779
v 0.0006 0.1826 0.2435
vt 0.6142 0.1591
vt 0.6038 0.15960002
vt 0.6041 0.167
vt 0.6145 0.16680002
vt 0.1999 0.86150002
vt 0.1994 0.85970002
vt 0.1871 0.86680001
vt 0.2137 0.85149997
vt 0.2137 0.85970002
vt 0.2279 0.85970002
vt 0.2274 0.86150002
vt 0.2403 0.86680001
vt 0.1871 0.86680001
vt 0.1747 0.87400001
vt 0.176 0.87529999
vt 0.1604 0.8822
vt 0.1676 0.88630003
vt 0.1604 0.89859998
vt 0.1623 0.899100006
vt 0.1604 0.91289997
vt 0.2513 0.87529999
vt 0.2526 0.87400001
vt 0.2403 0.86680001
vt 0.2597 0.88630003
vt 0.2669 0.8822
vt 0.2669 0.89859998
vt 0.2651 0.899100006
vt 0.2669 0.91289997
vt 0.1871 0.95899999
vt 0.1994 0.966099977
vt 0.1999 0.964299977
vt 0.2137 0.966099977
vt 0.2137 0.974399984
vt 0.2274 0.964299977
vt 0.2279 0.966099977
vt 0.2403 0.95899999
vt 0.176 0.95050001
vt 0.1747 0.951900005
vt 0.1871 0.95899999
vt 0.1676 0.939499974
vt 0.1604 0.9436
vt 0.1623 0.926699996
vt 0.1604 0.92720002
vt 0.1604 0.91289997
vt 0.2403 0.95899999
vt 0.2526 0.951900005
vt 0.2513 0.95050001
vt 0.2597 0.939499974
vt 0.2669 0.9436
vt 0.2669 0.92720002
vt 0.2651 0.926699996
vt 0.2669 0.91289997
vt 0.1051 0.86680001
vt 0.0928 0.85970002
vt 0.0923 0.86150002
vt 0.0785 0.85970002
vt 0.0785 0.85149997
vt 0.0643 0.85970002
vt 0.0647 0.86150002
vt 0.0519 0.86680001
vt 0.1161 0.87529999
vt 0.1175 0.87400001
vt 0.1051 0.86680001
vt 0.1246 0.88630003
vt 0.1317 0.8822
vt 0.1317 0.89859998
vt 0.1299 0.899100006
vt 0.1317 0.91289997
vt 0.0519 0.86680001
vt 0.0396 0.87400001
vt 0.0409 0.87529999
vt 0.0324 0.88630003
vt 0.0253 0.8822
vt 0.0253 0.89859998
vt 0.0271 0.899100006
vt 0.0253 0.91289997
vt 0.0923 0.964299977
vt 0.0928 0.966099977
vt 0.1051 0.95899999
vt 0.0785 0.966099977
vt 0.0785 0.974399984
vt 0.0643 0.966099977
vt 0.0647 0.964299977
vt 0.0519 0.95899999
vt 0.1051 0.95899999
vt 0.1175 0.951900005
vt 0.1161 0.95050001
vt 0.1317 0.9436
vt 0.1246 0.939499974
vt 0.1317 0.92720002
vt 0.1299 0.926699996
vt 0.1317 0.91289997
vt 0.0409 0.95050001
vt 0.0396 0.951900005
vt 0.0519 0.95899999
vt 0.0253 0.9436
vt 0.0324 0.939499974
vt 0.0253 0.92720002
vt 0.0271 0.926699996
vt 0.0253 0.91289997
vt 0.3508 0.89359999
vt 0.2932 0.89359999
vt 0.2943 0.90649998
vt 0.2943 0.880599976
vt 0.3497 0.90649998
vt 0.3458 0.92150003
vt 0.2982 0.92150003
vt 0.3497 0.880599976
vt 0.3458 0.86559999
vt 0.2982 0.86559999
vt 0.2943 0.9364
vt 0.3497 0.9364
vt 0.3458 0.92150003
vt 0.2982 0.92150003
vt 0.2932 0.949400008
vt 0.3508 0.949400008
vt 0.2943 0.96240002
vt 0.3497 0.96240002
vt 0.2982 0.977299988
vt 0.3458 0.977299988
vt 0.1592 0.75419998
vt 0.2145 0.75419998
vt 0.2157 0.7413
vt 0.163 0.76920003
vt 0.2107 0.76920003
vt 0.158 0.7413
vt 0.2145 0.72829998
vt 0.1592 0.72829998
vt 0.163 0.7133
vt 0.2107 0.7133
vt 0.1592 0.78420001
vt 0.2145 0.78420001
vt 0.2107 0.76920003
vt 0.163 0.76920003
vt 0.158 0.79710001
vt 0.2157 0.79710001
vt 0.2145 0.81010002
vt 0.1592 0.81010002
vt 0.163 0.82499999
vt 0.2107 0.82499999
vt 0.3053 0.62159997
vt 0.3568 0.62159997
vt 0.3532 0.60549998
vt 0.3089 0.60549998
vt 0.3043 0.6355
vt 0.3579 0.6355
vt 0.3053 0.6494
vt 0.3568 0.6494
vt 0.3532 0.6655
vt 0.3089 0.6655
vt 0.3089 0.75379997
vt 0.3532 0.75379997
vt 0.3568 0.7377
vt 0.3053 0.7377
vt 0.3043 0.7238
vt 0.3579 0.7238
vt 0.3568 0.70990002
vt 0.3053 0.70990002
vt 0.3089 0.69379997
vt 0.3532 0.69379997
vt 0.0785 0.85970002
vt 0.0785 0.88249999
vt 0.0864 0.8836
vt 0.0707 0.8836
vt 0.0923 0.86150002
vt 0.0647 0.86150002
vt 0.0937 0.88660002
vt 0.0519 0.86680001
vt 0.1051 0.86680001
vt 0.0633 0.88660002
vt 0.1161 0.87529999
vt 0.0409 0.87529999
vt 0.1 0.89139998
vt 0.057 0.89139998
vt 0.1246 0.88630003
vt 0.0324 0.88630003
vt 0.1048 0.89770001
vt 0.0522 0.89770001
vt 0.1079 0.90499997
vt 0.0271 0.899100006
vt 0.1299 0.899100006
vt 0.0492 0.90499997
vt 0.1089 0.91289997
vt 0.0481 0.91289997
vt 0.1317 0.91289997
vt 0.0253 0.91289997
vt 0.1299 0.926699996
vt 0.0271 0.926699996
vt 0.1079 0.92079997
vt 0.0492 0.92079997
vt 0.1048 0.92809999
vt 0.0522 0.92809999
vt 0.1246 0.939499974
vt 0.0324 0.939499974
vt 0.1 0.93440002
vt 0.057 0.93440002
vt 0.1161 0.95050001
vt 0.0409 0.95050001
vt 0.0937 0.939199984
vt 0.0633 0.939199984
vt 0.1051 0.95899999
vt 0.0519 0.95899999
vt 0.0864 0.942200005
vt 0.0647 0.964299977
vt 0.0923 0.964299977
vt 0.0707 0.942200005
vt 0.0785 0.966099977
vt 0.0785 0.94330001
vt 0.1993 0.46899998
vt 0.1871 0.4755
vt 0.1887 0.4777
vt 0.1861 0.473
vt 0.1906 0.4796
vt 0.1856 0.47029996
vt 0.1928 0.48109996
vt 0.1856 0.4676
vt 0.1953 0.4821
vt 0.1861 0.46500003
vt 0.1979 0.48259997
vt 0.1871 0.46249998
vt 0.2006 0.48259997
vt 0.1886 0.46029997
vt 0.2033 0.4821
vt 0.1905 0.4583
vt 0.2058 0.48109996
vt 0.1928 0.45679998
vt 0.208 0.4796
vt 0.1952 0.4558
vt 0.2099 0.4777
vt 0.1979 0.45529997
vt 0.2114 0.47539997
vt 0.2006 0.45529997
vt 0.2124 0.47290003
vt 0.2032 0.4558
vt 0.213 0.47029996
vt 0.2057 0.45679998
vt 0.2129 0.4676
vt 0.208 0.4583
vt 0.2124 0.46490002
vt 0.2099 0.4602
vt 0.2114 0.46249998
vt 0.3669 0.26880002
vt 0.3706 0.2687
vt 0.37 0.26240003
vt 0.3672 0.2625
vt 0.3728 0.26199996
vt 0.3632 0.2683
vt 0.3742 0.26810002
vt 0.3644 0.26209998
vt 0.3754 0.2612
vt 0.3598 0.26740003
vt 0.3776 0.26709998
vt 0.3618 0.26139998
vt 0.3777 0.2601
vt 0.3567 0.26600003
vt 0.3806 0.26559997
vt 0.3594 0.26030004
vt 0.3797 0.2586
vt 0.354 0.26409996
vt 0.3832 0.2637
vt 0.3574 0.2589
vt 0.3813 0.2569
vt 0.3853 0.2615
vt 0.352 0.26199996
vt 0.3558 0.25730002
vt 0.2099 0.36329997
vt 0.2065 0.362
vt 0.2047 0.36800003
vt 0.2073 0.36899996
vt 0.202 0.3674
vt 0.2029 0.36119998
vt 0.1993 0.36720002
vt 0.1994 0.361
vt 0.1967 0.3674
vt 0.196 0.36119998
vt 0.1943 0.36800003
vt 0.1929 0.362
vt 0.1923 0.36899996
vt 0.1902 0.36329997
vt 0.2882 0.2959
vt 0.2847 0.2946
vt 0.2829 0.3006
vt 0.2856 0.30159998
vt 0.2802 0.3
vt 0.2811 0.2938
vt 0.2775 0.29980004
vt 0.2776 0.29359996
vt 0.2749 0.3
vt 0.2742 0.2939
vt 0.2726 0.3007
vt 0.2711 0.29470003
vt 0.2705 0.3017
vt 0.2685 0.296
vt 0.2929 0.3196
vt 0.2894 0.31850004
vt 0.2878 0.32449996
vt 0.2905 0.3254
vt 0.2851 0.324
vt 0.2858 0.3178
vt 0.2824 0.32389998
vt 0.2823 0.31770003
vt 0.2798 0.32420003
vt 0.2789 0.31809998
vt 0.2775 0.32490003
vt 0.2758 0.319
vt 0.2755 0.32599998
vt 0.2732 0.3204
vt 0.2401 0.100000024
vt 0.2365 0.09960002
vt 0.2363 0.1056
vt 0.239 0.10589999
vt 0.2336 0.105700016
vt 0.233 0.099699974
vt 0.231 0.10619998
vt 0.2297 0.100300014
vt 0.6126 0.18239999
vt 0.6125 0.17210001
vt 0.6106 0.17260003
vt 0.6157 0.1713
vt 0.6106 0.18269998
vt 0.616 0.18199998
vt 0.6086 0.18239999
vt 0.622 0.18180001
vt 0.6087 0.17210001
vt 0.6216 0.17110002
vt 0.6055 0.1713
vt 0.6289 0.17110002
vt 0.6053 0.18199998
vt 0.6296 0.18180001
vt 0.5992 0.18180001
vt 0.6377 0.18180001
vt 0.5996 0.17110002
vt 0.6366 0.17110002
vt 0.5922 0.17110002
vt 0.6438 0.17110002
vt 0.6452 0.18180001
vt 0.5915 0.18180001
vt 0.5834 0.18180001
vt 0.5844 0.17110002
vt 0.5773 0.17110002
vt 0.5759 0.18180001
vt 0.0299 0.7608
vt 0.0302 0.75910002
vt 0.0239 0.75739998
vt 0.0235 0.7593
vt 0.0232 0.76270002
vt 0.0308 0.7575
vt 0.0246 0.75559998
vt 0.026 0.75260001
vt 0.0365 0.76090002
vt 0.0363 0.76230001
vt 0.037 0.75950003
vt 0.036 0.76490003
vt 0.0381 0.7572
vt 0.0296 0.76380002
vt 0.0321 0.75489998
vt 0.0291 0.76910001
vt 0.0226 0.7687
vt 0.0356 0.7694
vt 0.0227 0.77649999
vt 0.0357 0.77530003
vt 0.0292 0.7759
vt 0.0306 0.78350002
vt 0.0243 0.7852
vt 0.0369 0.78189999
vt 0.0272 0.79360002
vt 0.039 0.78829998
vt 0.0331 0.79089999
vt 0.0365 0.79710001
vt 0.031 0.80059999
vt 0.0419 0.79360002
vt 0.0345 0.80559999
vt 0.0446 0.7974
vt 0.0396 0.80150002
vt 0.0412 0.8039
vt 0.0364 0.80830002
vt 0.046 0.79939997
vt 0.0375 0.80970001
vt 0.0468 0.80040002
vt 0.0421 0.80510002
vt 0.0433 0.806
vt 0.0387 0.81080002
vt 0.0478 0.80129999
vt 0.0414 0.81260002
vt 0.0498 0.80269998
vt 0.0456 0.80760002
vt 0.05 0.81080002
vt 0.0464 0.81620002
vt 0.0536 0.80540001
vt 0.0534 0.82020003
vt 0.0589 0.80839998
vt 0.0562 0.8143
vt 0.0635 0.81699997
vt 0.0618 0.82319999
vt 0.0653 0.8107
vt 0.0706 0.82489997
vt 0.0719 0.81199998
vt 0.0713 0.81849998
vt 0.0785 0.8186
vt 0.0788 0.8251
vt 0.0781 0.8121
vt 0.0851 0.82459998
vt 0.0829 0.81169999
vt 0.084 0.81809998
vt 0.0867 0.8179
vt 0.0882 0.82429999
vt 0.0852 0.81150001
vt 0.0897 0.824
vt 0.0864 0.81129998
vt 0.088 0.81770003
vt 0.0894 0.8172
vt 0.0913 0.82349998
vt 0.0876 0.81089997
vt 0.0942 0.82209998
vt 0.0898 0.80989999
vt 0.092 0.81599998
vt 0.0969 0.81370002
vt 0.0998 0.81950003
vt 0.094 0.80790001
vt 0.1067 0.81550002
vt 0.0993 0.80489999
vt 0.103 0.81019998
vt 0.1089 0.80510002
vt 0.1135 0.80970001
vt 0.1044 0.80049998
vt 0.1194 0.80299997
vt 0.1088 0.79540002
vt 0.1141 0.7992
vt 0.1178 0.79320002
vt 0.1235 0.79610002
vt 0.112 0.7902
vt 0.1262 0.79049999
vt 0.114 0.7859
vt 0.1201 0.78820002
vt 0.1213 0.78570002
vt 0.1276 0.78759998
vt 0.115 0.7838
vt 0.1281 0.78619999
vt 0.1155 0.7827
vt 0.1218 0.78439999
vt 0.122 0.78320003
vt 0.1284 0.7848
vt 0.1157 0.7816
vt 0.1287 0.78179997
vt 0.1159 0.77939999
vt 0.1223 0.78060001
vt 0.1228 0.77499998
vt 0.1293 0.77539998
vt 0.1163 0.77450001
vt 0.1293 0.76709998
vt 0.1163 0.76819998
vt 0.1228 0.76770002
vt 0.1214 0.75989997
vt 0.1277 0.7583
vt 0.1151 0.7615
vt 0.1249 0.75
vt 0.113 0.75529999
vt 0.119 0.75260001
vt 0.1158 0.7468
vt 0.1213 0.74330002
vt 0.1103 0.75019997
vt 0.118 0.7385
vt 0.1078 0.74659997
vt 0.1129 0.7425
vt 0.1111 0.74
vt 0.116 0.7356
vt 0.1063 0.74440002
vt 0.1146 0.7339
vt 0.1052 0.7431
vt 0.1099 0.7385
vt 0.1087 0.7374
vt 0.1132 0.73259997
vt 0.1041 0.7421
vt 0.1105 0.73070002
vt 0.1021 0.7407
vt 0.1063 0.7357
vt 0.1019 0.73259997
vt 0.1055 0.72719997
vt 0.0983 0.73799998
vt 0.0986 0.72320002
vt 0.0931 0.735
vt 0.0958 0.7291
vt 0.0885 0.72649997
vt 0.0902 0.7202
vt 0.0867 0.7327
vt 0.0815 0.71850002
vt 0.0801 0.7314
vt 0.0808 0.72500002
vt 0.0737 0.7248
vt 0.0734 0.71829998
vt 0.074 0.7313
vt 0.0672 0.7188
vt 0.0694 0.7317
vt 0.0683 0.7253
vt 0.0655 0.7255
vt 0.064 0.7191
vt 0.0669 0.73189998
vt 0.0624 0.7194
vt 0.0657 0.7321
vt 0.064 0.72570002
vt 0.0625 0.7263
vt 0.0607 0.72000003
vt 0.0644 0.73259997
vt 0.0577 0.72140002
vt 0.0622 0.73360002
vt 0.0599 0.72750002
vt 0.055 0.72970003
vt 0.0521 0.72390002
vt 0.0579 0.73549998
vt 0.0453 0.72790003
vt 0.0527 0.73860002
vt 0.049 0.73329997
vt 0.0431 0.73830003
vt 0.0385 0.73369998
vt 0.0476 0.7429
vt 0.0327 0.7403
vt 0.0432 0.74800003
vt 0.0379 0.74409997
vt 0.0343 0.75010002
vt 0.0286 0.7471
vt 0.0401 0.75300002
vt 0.7535 0.031400025
vt 0.7521 0.031099975
vt 0.7521 0.0413
vt 0.7507 0.031400025
vt 0.7536 0.041800022
vt 0.7507 0.041800022
vt 0.756 0.042599976
vt 0.7482 0.042599976
vt 0.7558 0.03189999
vt 0.7484 0.03189999
vt 0.76 0.032000005
vt 0.7442 0.032000005
vt 0.7604 0.04280001
vt 0.7438 0.04280001
vt 0.766 0.04280001
vt 0.7382 0.04280001
vt 0.7652 0.032000005
vt 0.7389 0.032000005
vt 0.7708 0.032000005
vt 0.7333 0.032000005
vt 0.7719 0.04280001
vt 0.7323 0.04280001
vt 0.7773 0.04280001
vt 0.7759 0.032000005
vt 0.7269 0.04280001
vt 0.7282 0.032000005
vt 0.5723 0.1986
vt 0.5772 0.19879997
vt 0.5784 0.18809998
vt 0.5738 0.18779999
vt 0.5797 0.19920003
vt 0.5809 0.18879998
vt 0.5823 0.18940002
vt 0.5812 0.19949996
vt 0.5827 0.19920003
vt 0.5838 0.18879998
vt 0.5867 0.18809998
vt 0.5858 0.19879997
vt 0.5918 0.1986
vt 0.5924 0.18779999
vt 0.6001 0.18779999
vt 0.5998 0.1986
vt 0.6089 0.1986
vt 0.6089 0.18779999
vt 0.6176 0.18779999
vt 0.618 0.1986
vt 0.6261 0.1986
vt 0.6255 0.18779999
vt 0.6313 0.18809998
vt 0.6322 0.19879997
vt 0.6352 0.19920003
vt 0.6341 0.18879998
vt 0.6355 0.18940002
vt 0.6366 0.19949996
vt 0.638 0.19920003
vt 0.6368 0.18879998
vt 0.6393 0.18809998
vt 0.6405 0.19879997
vt 0.6453 0.1986
vt 0.6439 0.18779999
vt 0.7666 0.022400022
vt 0.7668 0.027700007
vt 0.7773 0.027499974
vt 0.7771 0.021899998
vt 0.7256 0.048099995
vt 0.7242 0.0589
vt 0.7277 0.058700025
vt 0.729 0.04790002
vt 0.7307 0.047500014
vt 0.7296 0.05790001
vt 0.7307 0.05729997
vt 0.7317 0.047200024
vt 0.7328 0.047500014
vt 0.7318 0.05790001
vt 0.734 0.058700025
vt 0.7349 0.04790002
vt 0.7391 0.048099995
vt 0.7384 0.0589
vt 0.7442 0.0589
vt 0.7446 0.048099995
vt 0.7508 0.048099995
vt 0.7508 0.0589
vt 0.7575 0.0589
vt 0.7571 0.048099995
vt 0.7628 0.048099995
vt 0.7634 0.0589
vt 0.7679 0.058700025
vt 0.767 0.04790002
vt 0.769 0.047500014
vt 0.77 0.05790001
vt 0.7711 0.05729997
vt 0.77 0.047200024
vt 0.7709 0.047500014
vt 0.7721 0.05790001
vt 0.7739 0.058700025
vt 0.7727 0.04790002
vt 0.776 0.048099995
vt 0.7775 0.0589
vt 0.638 0.22100002
vt 0.6369 0.23189998
vt 0.6441 0.23189998
vt 0.6455 0.22100002
vt 0.629 0.23189998
vt 0.6297 0.22100002
vt 0.6217 0.22100002
vt 0.6213 0.23189998
vt 0.6152 0.23159999
vt 0.6154 0.22079998
vt 0.6122 0.22039998
vt 0.6121 0.23080003
vt 0.6106 0.23030001
vt 0.6106 0.22009999
vt 0.6092 0.22039998
vt 0.6092 0.23080003
vt 0.6063 0.23159999
vt 0.6062 0.22079998
vt 0.5997 0.22100002
vt 0.6001 0.23189998
vt 0.5922 0.23189998
vt 0.5914 0.22100002
vt 0.5831 0.22100002
vt 0.5842 0.23189998
vt 0.577 0.23189998
vt 0.5757 0.22100002
vt 0.5701 0.22100002
vt 0.5716 0.23189998
vt 0.771 0.0891
vt 0.7762 0.0891
vt 0.7775 0.07819998
vt 0.772 0.07819998
vt 0.766 0.07819998
vt 0.7653 0.0891
vt 0.7598 0.0891
vt 0.7602 0.07819998
vt 0.7556 0.078400016
vt 0.7554 0.08920002
vt 0.7532 0.08969998
vt 0.7533 0.07920003
vt 0.7521 0.07980001
vt 0.7521 0.09000003
vt 0.7511 0.08969998
vt 0.7511 0.07920003
vt 0.7489 0.078400016
vt 0.749 0.08920002
vt 0.7446 0.0891
vt 0.7442 0.07819998
vt 0.7382 0.07819998
vt 0.7389 0.0891
vt 0.7332 0.0891
vt 0.7321 0.07819998
vt 0.7267 0.07819998
vt 0.728 0.0891
vt 0.7242 0.0891
vt 0.7226 0.07819998
vt 0.6454 0.2055
vt 0.6408 0.20529997
vt 0.6395 0.21600002
vt 0.6439 0.21630001
vt 0.638 0.20490003
vt 0.6368 0.2152
vt 0.6351 0.21469998
vt 0.6362 0.20450002
vt 0.6344 0.20490003
vt 0.6334 0.2152
vt 0.6304 0.21600002
vt 0.6313 0.20529997
vt 0.6254 0.2055
vt 0.6247 0.21630001
vt 0.6171 0.21630001
vt 0.6175 0.2055
vt 0.6084 0.2055
vt 0.6084 0.21630001
vt 0.5997 0.21630001
vt 0.5993 0.2055
vt 0.5913 0.2055
vt 0.592 0.21630001
vt 0.5863 0.21600002
vt 0.5854 0.20529997
vt 0.5823 0.20490003
vt 0.5833 0.2152
vt 0.5818 0.21469998
vt 0.5807 0.20450002
vt 0.5792 0.20490003
vt 0.5803 0.2152
vt 0.5779 0.21600002
vt 0.5767 0.20529997
vt 0.5718 0.2055
vt 0.5733 0.21630001
vt 0.776 0.07410002
vt 0.7775 0.0632
vt 0.7741 0.06349999
vt 0.7728 0.074199975
vt 0.7709 0.0747
vt 0.7721 0.0643
vt 0.7708 0.064800024
vt 0.7697 0.07499999
vt 0.7685 0.0747
vt 0.7695 0.0643
vt 0.7672 0.06349999
vt 0.7663 0.074199975
vt 0.7622 0.07410002
vt 0.7629 0.0632
vt 0.7571 0.0632
vt 0.7568 0.07410002
vt 0.7505 0.07410002
vt 0.7505 0.0632
vt 0.7439 0.0632
vt 0.7442 0.07410002
vt 0.7387 0.07410002
vt 0.7381 0.0632
vt 0.7337 0.06349999
vt 0.7346 0.074199975
vt 0.7325 0.0747
vt 0.7315 0.0643
vt 0.7303 0.064800024
vt 0.7314 0.07499999
vt 0.7304 0.0747
vt 0.7292 0.0643
vt 0.7274 0.06349999
vt 0.7286 0.074199975
vt 0.7253 0.07410002
vt 0.7238 0.0632
vt 0.6195 0.15869999
vt 0.6189 0.16640002
vt 0.6293 0.167
vt 0.6299 0.15960002
vt 0.7195 0.053499997
vt 0.7091 0.052600026
vt 0.7087 0.058099985
vt 0.7191 0.058799982
vt 0.6447 0.167
vt 0.6453 0.15929997
vt 0.6349 0.15869999
vt 0.6343 0.16610003
vt 0.7083 0.073899984
vt 0.7187 0.074800014
vt 0.7191 0.06919998
vt 0.7087 0.0686
vt 0.5197 0.6217
vt 0.5187 0.616
vt 0.4868 0.616
vt 0.4898 0.63270003
vt 0.4898 0.5992
vt 0.5227 0.6268
vt 0.5197 0.6102
vt 0.4982 0.64740002
vt 0.4982 0.58459997
vt 0.5272 0.63059998
vt 0.5227 0.60509998
vt 0.5112 0.65829998
vt 0.5112 0.5736
vt 0.5327 0.6326
vt 0.5272 0.6013
vt 0.5272 0.6641
vt 0.5272 0.5678
vt 0.5386 0.6326
vt 0.5327 0.59930003
vt 0.5441 0.6641
vt 0.5441 0.5678
vt 0.5441 0.63059998
vt 0.5386 0.59930003
vt 0.5601 0.65829998
vt 0.5601 0.5736
vt 0.5486 0.6268
vt 0.5441 0.6013
vt 0.5731 0.64740002
vt 0.5731 0.58459997
vt 0.5516 0.6217
vt 0.5486 0.60509998
vt 0.5816 0.63270003
vt 0.5816 0.5992
vt 0.5526 0.616
vt 0.5516 0.6102
vt 0.5845 0.616
vn 0.7213 0.1929 -0.6652
vn 0.6042 0.5832 -0.5429
vn 0.5176 0.5742 -0.6344
vn 0.6203 0.1926 -0.7603
vn -0.1292 -0.8661 -0.4828
vn -0.115 -0.8659 -0.4868
vn -0.1924 -0.8642 -0.4648
vn -0 -0.8659 -0.5002
vn -0.0001 -0.8659 -0.5002
vn 0.115 -0.8659 -0.4868
vn 0.1293 -0.8661 -0.4829
vn 0.1925 -0.8642 -0.4648
vn -0.3057 -0.8644 -0.3992
vn -0.3641 -0.8659 -0.343
vn -0.3536 -0.8662 -0.3531
vn -0.4331 -0.866 -0.25
vn -0.4339 -0.8655 -0.2505
vn -0.4791 -0.8659 -0.1438
vn -0.483 -0.866 -0.1295
vn -0.4989 -0.8642 -0.0658
vn 0.3535 -0.8662 -0.3533
vn 0.364 -0.8659 -0.343
vn 0.306 -0.8644 -0.3989
vn 0.4329 -0.8661 -0.25
vn 0.4332 -0.866 -0.2499
vn 0.479 -0.8659 -0.1438
vn 0.4829 -0.866 -0.1295
vn 0.4989 -0.8642 -0.0658
vn -0.1925 -0.8643 0.4648
vn -0.1152 -0.866 0.4867
vn -0.1293 -0.8662 0.4827
vn 0.0002 -0.8659 0.5002
vn -0.0001 -0.866 0.5
vn 0.1293 -0.8661 0.4829
vn 0.115 -0.866 0.4867
vn 0.1924 -0.8642 0.4649
vn -0.3535 -0.8661 0.3535
vn -0.364 -0.8659 0.3431
vn -0.3065 -0.8642 0.3991
vn -0.4337 -0.8657 0.2499
vn -0.4335 -0.8657 0.2501
vn -0.4827 -0.8662 0.1295
vn -0.479 -0.866 0.1438
vn -0.4988 -0.8642 0.0658
vn 0.3064 -0.8642 0.3992
vn 0.3637 -0.866 0.3433
vn 0.3534 -0.8663 0.353
vn 0.433 -0.866 0.25
vn 0.4331 -0.866 0.2501
vn 0.4791 -0.8659 0.1438
vn 0.483 -0.866 0.1295
vn 0.4989 -0.8642 0.0658
vn -0.1924 0.8642 -0.4648
vn -0.115 0.866 -0.4867
vn -0.1293 0.8661 -0.4829
vn 0 0.8661 -0.4999
vn 0 0.8661 -0.4999
vn 0.1151 0.8659 -0.4867
vn 0.1294 0.866 -0.483
vn 0.1925 0.8642 -0.4649
vn -0.3537 0.866 -0.3536
vn -0.3619 0.8663 -0.3444
vn -0.3063 0.8642 -0.3992
vn -0.433 0.8661 -0.25
vn -0.4335 0.8656 -0.2505
vn -0.4791 0.8659 -0.1437
vn -0.483 0.866 -0.1295
vn -0.4989 0.8642 -0.0658
vn 0.306 0.8645 -0.3989
vn 0.364 0.8659 -0.343
vn 0.3536 0.8661 -0.3534
vn 0.4328 0.8662 -0.2499
vn 0.4329 0.8661 -0.25
vn 0.479 0.8659 -0.1438
vn 0.4829 0.866 -0.1295
vn 0.4989 0.8642 -0.0658
vn -0.1289 0.8669 0.4815
vn -0.115 0.8659 0.4868
vn -0.1925 0.8642 0.4649
vn -0 0.8661 0.4998
vn -0 0.866 0.5
vn 0.115 0.866 0.4867
vn 0.1293 0.8661 0.4829
vn 0.1924 0.8642 0.4649
vn -0.3057 0.8644 0.3992
vn -0.3641 0.8659 0.343
vn -0.3534 0.8661 0.3534
vn -0.4329 0.8661 0.2499
vn -0.4327 0.8663 0.2497
vn -0.479 0.8659 0.1438
vn -0.4829 0.8661 0.1295
vn -0.4988 0.8642 0.0658
vn 0.3535 0.8661 0.3534
vn 0.3641 0.8659 0.343
vn 0.3063 0.8642 0.3991
vn 0.4321 0.8666 0.2497
vn 0.4329 0.8661 0.25
vn 0.4791 0.8659 0.1438
vn 0.483 0.866 0.1295
vn 0.4989 0.8642 0.0658
vn -0.4998 0 -0.8661
vn -0.4998 0 -0.8661
vn -0.5002 0 -0.8659
vn -0.5001 0 -0.866
vn -0.5002 0 -0.8659
vn -0.5003 0 -0.8659
vn -0.5003 0 -0.8659
vn -0.5001 0 -0.866
vn -0.5002 0 -0.8659
vn -0.5008 0 -0.8656
vn 0.5001 0 -0.866
vn 0.5001 0 -0.866
vn 0.5 0 -0.866
vn 0.5008 0 -0.8656
vn 0.4998 0 -0.8661
vn 0.4998 0 -0.8661
vn 0.4998 0 -0.8662
vn 0.4998 0 -0.8662
vn 0.5001 0 -0.866
vn 0.4993 0 -0.8664
vn -0.5002 -0 0.8659
vn -0.5002 -0 0.8659
vn -0.4998 -0 0.8661
vn -0.5003 -0 0.8659
vn -0.5003 -0 0.8659
vn -0.4998 -0 0.8661
vn -0.4997 -0 0.8662
vn -0.4997 -0 0.8662
vn -0.4999 -0 0.8661
vn -0.4999 -0 0.8661
vn 0.5003 -0 0.8659
vn 0.5003 -0 0.8659
vn 0.4999 -0 0.8661
vn 0.4999 -0 0.8661
vn 0.5004 -0 0.8658
vn 0.5004 -0 0.8658
vn 0.5 -0 0.866
vn 0.5 -0 0.866
vn 0.4999 -0 0.8661
vn 0.4999 -0 0.8661
vn 1 0 0
vn 1 0 0
vn 1 0 0
vn 1 0 0
vn 1 0 0
vn 1 0 0
vn 1 -0 0.0006
vn 1 -0 0.0006
vn 1 -0 -0.0003
vn 1 -0 0.0012
vn -1 0 0
vn -1 0 0
vn -1 0 0
vn -1 0 0
vn -1 0 0
vn -1 0 0
vn -1 0 0
vn -1 0 0
vn -1 0 0
vn -1 0 0
vn -0 1 -0
vn -0 1 -0
vn -0 1 -0
vn -0 1 -0
vn -0 1 -0
vn -0 1 -0
vn -0 1 -0
vn -0 1 -0
vn -0 1 -0
vn -0 1 -0
vn -0 1 -0
vn -0 1 -0
vn -0 1 -0
vn -0 1 -0
vn -0 1 -0
vn -0 1 -0
vn -0 1 -0
vn -0 1 -0
vn -0 1 -0
vn -0 1 -0
vn -0 1 -0
vn -0 1 -0
vn -0 1 -0
vn -0 1 -0
vn -0 1 -0
vn -0 1 -0
vn -0 1 -0
vn -0 1 -0
vn -0 1 -0
vn -0 1 -0
vn -0 1 -0
vn -0 1 -0
vn -0 1 -0
vn -0 1 -0
vn -0 1 -0
vn -0 1 -0
vn -0 1 -0
vn -0 1 -0
vn -0 1 -0
vn -0 1 -0
vn -0 1 -0
vn -0 1 -0
vn -0 1 -0
vn -0 1 -0
vn -0 1 -0
vn -0 1 -0
vn -0 1 -0
vn -0 1 -0
vn -0 1 -0
vn 0.0786 0.9153 0.395
vn -0 0.9153 0.4027
vn 0.1541 0.9153 0.3721
vn -0.0786 0.9153 0.395
vn 0.2237 0.9153 0.3349
vn -0.1541 0.9153 0.3721
vn 0.2848 0.9153 0.2848
vn -0.2237 0.9153 0.3348
vn 0.3349 0.9153 0.2237
vn -0.2848 0.9153 0.2848
vn 0.3721 0.9153 0.1541
vn -0.3349 0.9153 0.2237
vn 0.395 0.9153 0.0786
vn -0.3721 0.9153 0.1541
vn 0.4027 0.9153 0
vn -0.395 0.9153 0.0786
vn 0.395 0.9153 -0.0786
vn -0.4027 0.9153 0
vn 0.3721 0.9153 -0.1541
vn -0.395 0.9153 -0.0786
vn 0.3349 0.9153 -0.2237
vn -0.3721 0.9153 -0.1541
vn 0.2848 0.9153 -0.2848
vn -0.3349 0.9153 -0.2237
vn 0.2237 0.9153 -0.3348
vn -0.2848 0.9153 -0.2848
vn 0.1541 0.9153 -0.3721
vn -0.2237 0.9153 -0.3348
vn 0.0786 0.9153 -0.395
vn -0.1541 0.9153 -0.3721
vn 0 0.9153 -0.4027
vn -0.0786 0.9153 -0.395
vn 0.1944 -0.0833 0.9774
vn 0 -0.0833 0.9965
vn -0 0.9153 0.4027
vn 0.0786 0.9153 0.395
vn -0.0786 0.9153 0.395
vn 0.3814 -0.0833 0.9206
vn -0.1944 -0.0833 0.9774
vn 0.1541 0.9153 0.3721
vn -0.1541 0.9153 0.3721
vn 0.5536 -0.0833 0.8286
vn -0.3814 -0.0833 0.9207
vn 0.2237 0.9153 0.3349
vn -0.2237 0.9153 0.3348
vn 0.7047 -0.0833 0.7046
vn -0.5536 -0.0833 0.8286
vn 0.2848 0.9153 0.2848
vn -0.2848 0.9153 0.2848
vn 0.8286 -0.0833 0.5536
vn -0.7046 -0.0833 0.7047
vn 0.3349 0.9153 0.2237
vn -0.3349 0.9153 0.2237
vn -0.8286 -0.0833 0.5536
vn 0.9206 -0.0833 0.3814
vn 0.3721 0.9153 0.1541
vn -0.8286 -0.0833 0.5536
vn -0.9207 -0.0833 0.3814
vn -0.3721 0.9153 0.1541
vn -0.3349 0.9153 0.2237
vn -0.395 0.9153 0.0786
vn -0.9774 -0.0833 0.1944
vn -0.4027 0.9153 0
vn -0.9965 -0.0833 0
vn -0.395 0.9153 -0.0786
vn -0.9774 -0.0833 -0.1944
vn -0.3721 0.9153 -0.1541
vn -0.9207 -0.0833 -0.3814
vn -0.3349 0.9153 -0.2237
vn -0.8286 -0.0833 -0.5536
vn -0.8286 -0.0833 -0.5536
vn -0.7046 -0.0833 -0.7047
vn -0.2848 0.9153 -0.2848
vn -0.3349 0.9153 -0.2237
vn -0.2237 0.9153 -0.3348
vn -0.5536 -0.0833 -0.8286
vn -0.1541 0.9153 -0.3721
vn -0.3814 -0.0833 -0.9206
vn -0.0786 0.9153 -0.395
vn -0.1944 -0.0833 -0.9774
vn 0 0.9153 -0.4027
vn -0 -0.0833 -0.9965
vn 0.0786 0.9153 -0.395
vn 0.1944 -0.0833 -0.9774
vn 0.1944 -0.0833 -0.9774
vn 0.3814 -0.0833 -0.9207
vn 0.1541 0.9153 -0.3721
vn 0.0786 0.9153 -0.395
vn 0.2237 0.9153 -0.3348
vn 0.5536 -0.0833 -0.8286
vn 0.2848 0.9153 -0.2848
vn 0.7046 -0.0833 -0.7047
vn 0.3349 0.9153 -0.2237
vn 0.8286 -0.0833 -0.5536
vn 0.3721 0.9153 -0.1541
vn 0.9207 -0.0833 -0.3814
vn 0.395 0.9153 -0.0786
vn 0.9774 -0.0833 -0.1943
vn 0.9774 -0.0833 -0.1944
vn 0.9965 -0.0833 -0
vn 0.4027 0.9153 0
vn 0.395 0.9153 -0.0786
vn 0.395 0.9153 0.0786
vn 0.9774 -0.0833 0.1944
vn 0.3721 0.9153 0.1541
vn 0.9207 -0.0833 0.3814
vn 0.0862 0.2017 -0.9756
vn -0.0519 0.5881 -0.8071
vn 0.0047 0.5373 -0.8434
vn 0.0428 0.6048 -0.7952
vn 0.0039 0.205 -0.9788
vn 0.1482 0.1958 -0.9694
vn -0.0817 0.2018 -0.976
vn 0.2165 0.193 -0.957
vn 0.0576 0.5875 -0.8072
vn 0.1688 0.5832 -0.7946
vn -0.0414 0.6052 -0.795
vn 0.2922 0.5743 -0.7648
vn -0.1479 0.1958 -0.9694
vn 0.35 0.1921 -0.9168
vn -0.2164 0.1931 -0.957
vn 0.4914 0.1923 -0.8494
vn -0.1685 0.5832 -0.7946
vn 0.4095 0.5756 -0.7078
vn -0.2915 0.5742 -0.7651
vn 0.5176 0.5742 -0.6344
vn 0.6203 0.1926 -0.7603
vn -0.3494 0.1926 -0.917
vn -0.4914 0.1928 -0.8493
vn -0.4092 0.5755 -0.708
vn -0.5174 0.5742 -0.6345
vn -0.6202 0.1926 -0.7604
vn -0.2929 0.9556 -0.0333
vn 0.0045 0.9993 -0.0365
vn 0.0047 0.5373 -0.8434
vn -0.0519 0.5881 -0.8071
vn 0.0428 0.6048 -0.7952
vn 0.2982 0.9539 -0.0339
vn 0.0576 0.5875 -0.8072
vn -0.0414 0.6052 -0.795
vn -0.0008 0.5471 0.8371
vn -0.2934 0.5762 0.7628
vn 0.295 0.5762 0.7622
vn -0.2424 0.5979 0.764
vn 0.2434 0.5979 0.7637
vn -0.1624 0.9865 -0.019
vn 0.164 0.9863 -0.0189
vn -0.0225 0.9995 -0.0201
vn 0.1688 0.5832 -0.7946
vn -0.1969 0.5962 0.7783
vn 0.2922 0.5743 -0.7647
vn -0.2866 0.5962 0.7499
vn 0.0097 0.9996 -0.0249
vn 0.0117 0.9997 -0.0204
vn 0.4095 0.5756 -0.7078
vn -0.4029 0.5938 0.6964
vn 0.5176 0.5742 -0.6344
vn -0.5075 0.5962 0.6221
vn 0.0173 0.9996 -0.0213
vn 0.0281 0.9996 0.0094
vn 0.6042 0.5832 -0.5429
vn -0.5767 0.5959 0.5589
vn 0.6685 0.6057 -0.4315
vn -0.5384 0.598 0.5937
vn 0.0995 0.9859 0.1348
vn 0.1871 0.9483 0.2564
vn 0.7312 0.5889 -0.3443
vn -0.5015 0.5741 0.6473
vn 0.7313 0.5298 -0.4296
vn -0.73 0.5373 0.4224
vn 0.0292 0.9993 -0.0245
vn -0.1313 0.9459 -0.2968
vn 0.6598 0.5881 -0.4677
vn -0.8117 0.574 0.108
vn 0.7069 0.6062 -0.3645
vn -0.7836 0.5981 0.168
vn -0.0681 0.9855 -0.1553
vn 0.0057 0.9996 -0.0286
vn 0.7722 0.5833 -0.2521
vn -0.7723 0.5958 0.2206
vn 0.8081 0.5741 -0.1318
vn -0.7924 0.5962 0.1292
vn 0.0278 0.9996 -0.0044
vn 0.0236 0.9997 -0
vn 0.818 0.5752 0.0006
vn -0.8043 0.5942 -0.0006
vn 0.8079 0.5741 0.1332
vn -0.7922 0.5961 -0.1306
vn 0.0271 0.9996 0.0043
vn 0.0056 0.9996 0.0283
vn 0.772 0.5833 0.2526
vn -0.7722 0.5955 -0.2217
vn 0.7049 0.607 0.367
vn -0.7841 0.5982 -0.1655
vn -0.0701 0.9849 0.1586
vn -0.14 0.939 0.3142
vn 0.6504 0.5876 0.4814
vn -0.8142 0.5726 -0.0955
vn 0.7277 0.5253 0.4411
vn -0.7325 0.5316 -0.4252
vn 0.0232 0.9991 0.0356
vn 0.1901 0.9461 -0.2623
vn 0.7317 0.5899 0.3415
vn -0.4962 0.573 -0.6523
vn 0.6686 0.6058 0.4312
vn -0.5381 0.598 -0.5939
vn 0.0997 0.9858 -0.1352
vn 0.0272 0.9996 -0.0096
vn 0.6042 0.5832 0.5429
vn -0.5768 0.5959 -0.5588
vn 0.5177 0.5742 0.6343
vn -0.5076 0.5962 -0.622
vn 0.0173 0.9996 0.0215
vn 0.0116 0.9997 0.0201
vn 0.4087 0.5754 0.7085
vn -0.4019 0.594 -0.6968
vn 0.2897 0.5741 0.7658
vn -0.2842 0.5962 -0.7509
vn 0.0098 0.9996 0.0255
vn -0.022 0.9996 0.0194
vn 0.1677 0.5833 0.7948
vn -0.195 0.5958 -0.7791
vn 0.0375 0.6063 0.7944
vn -0.2465 0.5981 -0.7626
vn -0.1689 0.9855 0.0187
vn -0.3355 0.9414 0.0337
vn -0.079 0.5906 0.8031
vn -0.3274 0.5714 -0.7526
vn 0.0238 0.5194 0.8542
vn -0.0021 0.5241 -0.8516
vn 0.0262 0.9989 0.0385
vn 0.3612 0.9318 0.0367
vn 0.1073 0.5875 0.8021
vn 0.3381 0.5707 -0.7483
vn -0.032 0.6077 0.7935
vn 0.2508 0.5982 -0.7611
vn 0.1756 0.9843 0.0184
vn 0.021 0.9996 0.0187
vn -0.1668 0.5833 0.7949
vn 0.1934 0.5953 -0.7799
vn -0.2876 0.574 0.7667
vn 0.2821 0.5961 -0.7517
vn -0.0096 0.9996 0.0252
vn -0.0115 0.9997 0.0203
vn -0.4061 0.5755 0.7099
vn 0.3994 0.5939 -0.6984
vn -0.5143 0.5744 0.6369
vn 0.5043 0.5962 -0.6247
vn -0.0167 0.9996 0.021
vn -0.0297 0.9995 -0.0093
vn -0.6031 0.5831 0.5443
vn 0.574 0.5967 -0.5608
vn -0.6659 0.6036 0.4385
vn 0.5431 0.5977 -0.5898
vn -0.0953 0.9874 -0.1266
vn -0.1647 0.9611 -0.2218
vn -0.7168 0.5889 0.3732
vn 0.5203 0.5769 -0.6297
vn -0.716 0.5392 0.4435
vn 0.7212 0.5494 -0.4219
vn -0.0188 0.9991 0.039
vn 0.1213 0.952 0.281
vn -0.6662 0.5858 0.4615
vn 0.807 0.5768 -0.1267
vn -0.7078 0.6058 0.3634
vn 0.7834 0.598 -0.1692
vn 0.0671 0.9858 0.1538
vn -0.0059 0.9996 0.0291
vn -0.7723 0.5832 0.2518
vn 0.7723 0.5959 -0.2201
vn -0.8082 0.5742 0.1311
vn 0.7925 0.5962 -0.1285
vn -0.0271 0.9996 0.0042
vn -0.0224 0.9997 0
vn -0.8179 0.5754 -0.0002
vn 0.8044 0.594 0.0002
vn -0.8081 0.5742 -0.1317
vn 0.7924 0.5962 0.129
vn -0.0261 0.9997 -0.0041
vn -0.0056 0.9996 -0.0285
vn -0.7722 0.5833 -0.252
vn 0.7723 0.5958 0.2204
vn -0.7071 0.6061 -0.3642
vn 0.7836 0.5981 0.1683
vn 0.0678 0.9856 -0.1549
vn 0.1301 0.9467 -0.2946
vn -0.6609 0.5881 -0.4662
vn 0.8113 0.5743 0.1098
vn -0.7309 0.5306 -0.4292
vn 0.7294 0.5384 0.4221
vn -0.0292 0.9993 -0.0242
vn -0.1859 0.9491 0.2544
vn -0.7305 0.5889 -0.3458
vn 0.5028 0.5743 0.646
vn -0.6684 0.6056 -0.4318
vn 0.5386 0.598 0.5935
vn -0.0993 0.9859 0.1344
vn -0.0283 0.9996 0.0095
vn -0.6041 0.5832 -0.543
vn 0.5766 0.5959 0.559
vn -0.5174 0.5742 -0.6345
vn 0.5073 0.5962 0.6222
vn -0.0173 0.9996 -0.0215
vn -0.0116 0.9997 -0.0197
vn -0.4092 0.5755 -0.708
vn 0.4026 0.5939 0.6966
vn -0.2915 0.5742 -0.765
vn 0.286 0.5962 0.7502
vn -0.0099 0.9996 -0.0256
vn 0.0227 0.9995 -0.0199
vn -0.1685 0.5832 -0.7947
vn 0.1964 0.5961 0.7785
vn -0.1794 0.2 0.9632
vn -0.0028 0.2051 0.9787
vn -0.0008 0.5471 0.8371
vn 0.1769 0.2 0.9637
vn -0.2934 0.5762 0.7628
vn 0.295 0.5762 0.7622
vn -0.2424 0.5979 0.764
vn 0.2434 0.5979 0.7637
vn -0.2005 0.1948 0.9601
vn 0.2009 0.1947 0.9601
vn -0.2241 0.1928 0.9553
vn 0.2237 0.1929 0.9554
vn -0.1969 0.5962 0.7783
vn 0.1964 0.5961 0.7785
vn -0.2866 0.5962 0.7499
vn 0.286 0.5962 0.7502
vn -0.3502 0.1927 0.9166
vn 0.349 0.1932 0.917
vn -0.4916 0.1922 0.8494
vn 0.4911 0.1925 0.8495
vn -0.4029 0.5938 0.6964
vn 0.4026 0.5939 0.6966
vn -0.5075 0.5962 0.6221
vn -0.6202 0.1926 0.7604
vn 0.5073 0.5962 0.6222
vn 0.62 0.1931 0.7604
vn 0.7213 0.1929 -0.6652
vn 0.7658 0.1958 -0.6125
vn 0.6685 0.6057 -0.4315
vn 0.6042 0.5832 -0.5429
vn 0.8039 0.2019 -0.5594
vn 0.7312 0.5889 -0.3443
vn 0.7313 0.5298 -0.4296
vn 0.8451 0.2048 -0.4938
vn 0.8838 0.202 -0.422
vn 0.6598 0.5881 -0.4677
vn 0.7069 0.6062 -0.3645
vn 0.9132 0.1958 -0.3573
vn 0.9367 0.1929 -0.2923
vn 0.7722 0.5833 -0.2521
vn 0.8081 0.5741 -0.1318
vn 0.9684 0.1929 -0.1583
vn 0.9813 0.1924 0.0009
vn 0.818 0.5752 0.0006
vn 0.8079 0.5741 0.1332
vn 0.9682 0.1929 0.1594
vn 0.9363 0.1929 0.2934
vn 0.772 0.5833 0.2526
vn 0.7049 0.607 0.367
vn 0.913 0.1959 0.3578
vn 0.8802 0.2021 0.4295
vn 0.6504 0.5876 0.4814
vn 0.7277 0.5253 0.4411
vn 0.8404 0.2048 0.5018
vn 0.8025 0.2018 0.5615
vn 0.7317 0.5899 0.3415
vn 0.6686 0.6058 0.4312
vn 0.7659 0.1958 0.6124
vn 0.7214 0.1929 0.6651
vn 0.6042 0.5832 0.5429
vn -0.716 0.1928 0.6709
vn -0.6202 0.1926 0.7604
vn -0.5075 0.5962 0.6221
vn -0.5767 0.5959 0.5589
vn -0.716 0.1928 0.6709
vn -0.5767 0.5959 0.5589
vn -0.5384 0.598 0.5937
vn -0.7306 0.1947 0.6544
vn -0.7409 0.1998 0.6412
vn -0.5015 0.5741 0.6473
vn -0.73 0.5373 0.4224
vn -0.8458 0.2052 0.4925
vn -0.9247 0.1999 0.324
vn -0.8117 0.574 0.108
vn -0.7836 0.5981 0.168
vn -0.9322 0.1947 0.3051
vn -0.9388 0.1929 0.2853
vn -0.7723 0.5958 0.2206
vn -0.7924 0.5962 0.1292
vn -0.9685 0.1926 0.1578
vn -0.9813 0.1924 -0.0002
vn -0.8043 0.5942 -0.0006
vn -0.7922 0.5961 -0.1306
vn -0.9682 0.1926 -0.1596
vn -0.9385 0.1927 -0.2866
vn -0.7722 0.5955 -0.2217
vn -0.7841 0.5982 -0.1655
vn -0.9325 0.1946 -0.3043
vn -0.9247 0.1999 -0.3239
vn -0.8142 0.5726 -0.0955
vn -0.7325 0.5316 -0.4252
vn -0.8426 0.2052 -0.4979
vn -0.7373 0.1996 -0.6454
vn -0.4962 0.573 -0.6523
vn -0.5381 0.598 -0.5939
vn -0.7306 0.1947 -0.6545
vn -0.7161 0.1928 -0.6708
vn -0.5768 0.5959 -0.5588
vn 0.4899 0.1926 0.8502
vn 0.4087 0.5754 0.7085
vn 0.5177 0.5742 0.6343
vn 0.6205 0.1926 0.7602
vn 0.2897 0.5741 0.7658
vn 0.3473 0.1926 0.9178
vn 0.215 0.1929 0.9574
vn 0.1677 0.5833 0.7948
vn 0.0375 0.6063 0.7944
vn 0.1471 0.1958 0.9695
vn 0.084 0.2019 0.9758
vn -0.079 0.5906 0.8031
vn 0.0238 0.5194 0.8542
vn 0.0186 0.2048 0.9786
vn -0.062 0.2023 0.9774
vn 0.1073 0.5875 0.8021
vn -0.032 0.6077 0.7935
vn -0.146 0.1959 0.9697
vn -0.2129 0.1927 0.9579
vn -0.1668 0.5833 0.7949
vn -0.2876 0.574 0.7667
vn -0.3437 0.1925 0.9191
vn -0.4878 0.1925 0.8515
vn -0.4061 0.5755 0.7099
vn -0.5143 0.5744 0.6369
vn -0.6167 0.1919 0.7635
vn -0.7195 0.193 0.6671
vn -0.6031 0.5831 0.5443
vn -0.4906 0.1921 -0.85
vn -0.6205 0.1926 -0.7602
vn -0.5076 0.5962 -0.622
vn -0.4019 0.594 -0.6968
vn -0.2842 0.5962 -0.7509
vn -0.3471 0.1925 -0.9179
vn -0.2224 0.1929 -0.9557
vn -0.195 0.5957 -0.7792
vn -0.2465 0.5981 -0.7626
vn -0.2019 0.1947 -0.9599
vn -0.1949 0.1995 -0.9603
vn -0.3274 0.5714 -0.7526
vn -0.0021 0.5241 -0.8516
vn -0.0126 0.2053 -0.9786
vn 0.1845 0.1998 -0.9623
vn 0.3381 0.5707 -0.7483
vn 0.2508 0.5982 -0.7611
vn 0.2034 0.1946 -0.9596
vn 0.2209 0.1928 -0.956
vn 0.1934 0.5953 -0.7799
vn 0.2821 0.5961 -0.7517
vn 0.3446 0.1932 -0.9187
vn 0.4871 0.1924 -0.8519
vn 0.3994 0.5939 -0.6984
vn 0.5043 0.5962 -0.6247
vn 0.6165 0.1928 -0.7634
vn 0.714 0.1929 -0.673
vn 0.574 0.5967 -0.5608
vn -0.7195 0.193 0.6671
vn -0.7649 0.1957 0.6137
vn -0.6659 0.6036 0.4385
vn -0.6031 0.5831 0.5443
vn -0.7956 0.2015 0.5713
vn -0.7168 0.5889 0.3732
vn -0.716 0.5392 0.4435
vn -0.837 0.2052 0.5072
vn -0.8818 0.2019 0.4262
vn -0.6662 0.5858 0.4615
vn -0.7078 0.6058 0.3634
vn -0.9133 0.1958 0.357
vn -0.9368 0.1933 0.2916
vn -0.7723 0.5832 0.2518
vn -0.8082 0.5742 0.1311
vn -0.9687 0.1926 0.1568
vn -0.9813 0.1923 -0
vn -0.8179 0.5754 -0.0002
vn -0.8081 0.5742 -0.1317
vn -0.9686 0.1926 -0.1574
vn -0.9367 0.193 -0.2922
vn -0.7722 0.5833 -0.252
vn -0.7071 0.6061 -0.3642
vn -0.9133 0.1958 -0.3572
vn -0.8841 0.2019 -0.4215
vn -0.6609 0.5881 -0.4662
vn -0.7309 0.5306 -0.4292
vn -0.8452 0.2048 -0.4937
vn -0.8037 0.2018 -0.5598
vn -0.7305 0.5889 -0.3458
vn -0.6684 0.6056 -0.4318
vn -0.7658 0.1958 -0.6126
vn -0.7213 0.193 -0.6652
vn -0.6041 0.5832 -0.543
vn 0.714 0.1929 -0.673
vn 0.574 0.5967 -0.5608
vn 0.5431 0.5977 -0.5898
vn 0.732 0.1948 -0.6529
vn 0.742 0.1998 -0.6399
vn 0.5203 0.5769 -0.6297
vn 0.7212 0.5494 -0.4219
vn 0.8396 0.205 -0.503
vn 0.9203 0.2003 -0.336
vn 0.807 0.5768 -0.1267
vn 0.7834 0.598 -0.1692
vn 0.9321 0.1947 -0.3055
vn 0.939 0.1932 -0.2845
vn 0.7723 0.5959 -0.2201
vn 0.7925 0.5962 -0.1285
vn 0.9685 0.1929 -0.1575
vn 0.9813 0.1924 0
vn 0.8045 0.594 0.0002
vn 0.7924 0.5962 0.129
vn 0.9685 0.1926 0.1577
vn 0.9389 0.1928 0.285
vn 0.7723 0.5958 0.2204
vn 0.7836 0.5981 0.1683
vn 0.9322 0.1947 0.3052
vn 0.9245 0.1999 0.3245
vn 0.8113 0.5743 0.1098
vn 0.7294 0.5384 0.4221
vn 0.8458 0.2052 0.4924
vn 0.7413 0.1998 0.6408
vn 0.5028 0.5743 0.646
vn 0.5386 0.598 0.5935
vn 0.7307 0.1947 0.6543
vn 0.7159 0.1928 0.671
vn 0.5766 0.5959 0.559
vn -0.7213 0.193 -0.6652
vn -0.6202 0.1926 -0.7604
vn -0.5174 0.5742 -0.6345
vn -0.6041 0.5832 -0.543
vn 0.7159 0.1927 0.671
vn 0.5766 0.5959 0.559
vn 0.5073 0.5962 0.6222
vn 0.6201 0.1926 0.7605
vn 0.7214 0.1929 0.6651
vn 0.6205 0.1926 0.7602
vn 0.5177 0.5742 0.6343
vn 0.6042 0.5832 0.5429
vn -0.7161 0.1928 -0.6708
vn -0.5768 0.5959 -0.5588
vn -0.5076 0.5962 -0.622
vn -0.6204 0.1926 -0.7602
vn -0.0058 0.9999 0.0158
vn -0 0.9999 0.0168
vn -0 0.9999 0.0168
vn -0.0058 0.9999 0.0158
vn 0.0058 0.9999 0.0158
vn -0.0108 0.9999 0.0129
vn 0.0058 0.9999 0.0158
vn -0.0108 0.9999 0.0129
vn 0.0108 0.9999 0.0129
vn -0.0142 0.9999 0.0081
vn 0.0108 0.9999 0.0129
vn -0.0146 0.9999 0.0084
vn 0.0146 0.9999 0.0084
vn -0.0166 0.9999 0.0029
vn 0.0146 0.9999 0.0084
vn -0.0166 0.9999 0.0029
vn 0.0166 0.9999 0.0029
vn -0.0166 0.9999 -0.0029
vn 0.0166 0.9999 0.0029
vn -0.0166 0.9999 -0.0029
vn 0.0166 0.9999 -0.0029
vn -0.0146 0.9999 -0.0084
vn 0.0166 0.9999 -0.0029
vn -0.0146 0.9999 -0.0084
vn 0.0146 0.9999 -0.0084
vn -0.0108 0.9999 -0.0129
vn 0.0143 0.9999 -0.0082
vn -0.0108 0.9999 -0.0129
vn 0.0108 0.9999 -0.0129
vn -0.0057 0.9999 -0.0158
vn 0.0108 0.9999 -0.0129
vn -0.0056 0.9999 -0.0154
vn 0.0057 0.9999 -0.0158
vn 0 0.9999 -0.0168
vn 0.0058 0.9999 -0.0158
vn 0 0.9999 -0.0168
f 3/3/3 2/2/2 1/1/1
f 1/1/1 4/4/4 3/3/3
f 7/7/7 6/6/6 5/5/5
f 5/5/5 6/6/6 8/8/8
f 8/8/8 9/9/9 5/5/5
f 9/9/9 8/8/8 10/10/10
f 10/10/10 11/11/11 9/9/9
f 11/11/11 10/10/10 12/12/12
f 15/15/15 14/14/14 13/13/13
f 16/16/16 14/14/14 15/15/15
f 15/15/15 17/17/17 16/16/16
f 18/18/18 16/16/16 17/17/17
f 17/17/17 19/19/19 18/18/18
f 20/20/20 18/18/18 19/19/19
f 23/23/23 22/22/22 21/21/21
f 24/24/24 21/21/21 22/22/22
f 22/22/22 25/25/25 24/24/24
f 24/24/24 25/25/25 26/26/26
f 26/26/26 27/27/27 24/24/24
f 27/27/27 26/26/26 28/28/28
f 31/31/31 30/30/30 29/29/29
f 30/30/30 31/31/31 32/32/32
f 32/32/32 33/33/33 30/30/30
f 33/33/33 32/32/32 34/34/34
f 34/34/34 35/35/35 33/33/33
f 36/36/36 35/35/35 34/34/34
f 39/39/39 38/38/38 37/37/37
f 40/40/40 37/37/37 38/38/38
f 38/38/38 41/41/41 40/40/40
f 42/42/42 40/40/40 41/41/41
f 41/41/41 43/43/43 42/42/42
f 42/42/42 43/43/43 44/44/44
f 47/47/47 46/46/46 45/45/45
f 46/46/46 47/47/47 48/48/48
f 48/48/48 49/49/49 46/46/46
f 50/50/50 49/49/49 48/48/48
f 48/48/48 51/51/51 50/50/50
f 52/52/52 50/50/50 51/51/51
f 55/55/55 54/54/54 53/53/53
f 54/54/54 55/55/55 56/56/56
f 56/56/56 57/57/57 54/54/54
f 58/58/58 57/57/57 56/56/56
f 56/56/56 59/59/59 58/58/58
f 60/60/60 58/58/58 59/59/59
f 63/63/63 62/62/62 61/61/61
f 64/64/64 61/61/61 62/62/62
f 62/62/62 65/65/65 64/64/64
f 64/64/64 65/65/65 66/66/66
f 66/66/66 67/67/67 64/64/64
f 67/67/67 66/66/66 68/68/68
f 71/71/71 70/70/70 69/69/69
f 70/70/70 71/71/71 72/72/72
f 72/72/72 73/73/73 70/70/70
f 74/74/74 73/73/73 72/72/72
f 72/72/72 75/75/75 74/74/74
f 76/76/76 74/74/74 75/75/75
f 79/79/79 78/78/78 77/77/77
f 80/80/80 77/77/77 78/78/78
f 78/78/78 81/81/81 80/80/80
f 80/80/80 81/81/81 82/82/82
f 82/82/82 83/83/83 80/80/80
f 83/83/83 82/82/82 84/84/84
f 87/87/87 86/86/86 85/85/85
f 88/88/88 86/86/86 87/87/87
f 87/87/87 89/89/89 88/88/88
f 90/90/90 88/88/88 89/89/89
f 89/89/89 91/91/91 90/90/90
f 92/92/92 90/90/90 91/91/91
f 95/95/95 94/94/94 93/93/93
f 93/93/93 94/94/94 96/96/96
f 96/96/96 97/97/97 93/93/93
f 97/97/97 96/96/96 98/98/98
f 98/98/98 99/99/99 97/97/97
f 99/99/99 98/98/98 100/100/100
f 103/103/103 102/102/102 101/101/101
f 101/101/101 102/102/102 104/104/104
f 101/101/101 105/105/105 103/103/103
f 103/103/103 105/105/105 106/106/106
f 106/106/106 107/107/107 103/103/103
f 104/104/104 108/108/108 101/101/101
f 109/109/109 108/108/108 104/104/104
f 104/104/104 110/110/110 109/109/109
f 113/113/113 112/112/112 111/111/111
f 111/111/111 114/114/114 113/113/113
f 115/115/115 111/111/111 112/112/112
f 112/112/112 116/116/116 115/115/115
f 117/117/117 115/115/115 116/116/116
f 116/116/116 118/118/118 117/117/117
f 119/119/119 117/117/117 118/118/118
f 118/118/118 120/120/120 119/119/119
f 123/123/123 122/122/122 121/121/121
f 124/124/124 121/121/121 122/122/122
f 122/122/122 125/125/125 124/124/124
f 121/121/121 126/126/126 123/123/123
f 127/127/127 123/123/123 126/126/126
f 126/126/126 128/128/128 127/127/127
f 127/127/127 128/128/128 129/129/129
f 129/129/129 130/130/130 127/127/127
f 133/133/133 132/132/132 131/131/131
f 131/131/131 134/134/134 133/133/133
f 135/135/135 131/131/131 132/132/132
f 132/132/132 136/136/136 135/135/135
f 135/135/135 136/136/136 137/137/137
f 137/137/137 138/138/138 135/135/135
f 139/139/139 138/138/138 137/137/137
f 137/137/137 140/140/140 139/139/139
f 143/143/143 142/142/142 141/141/141
f 141/141/141 144/144/144 143/143/143
f 145/145/145 141/141/141 142/142/142
f 142/142/142 146/146/146 145/145/145
f 147/147/147 145/145/145 146/146/146
f 146/146/146 148/148/148 147/147/147
f 147/147/147 148/148/148 149/149/149
f 149/149/149 150/150/150 147/147/147
f 153/153/153 152/152/152 151/151/151
f 151/151/151 154/154/154 153/153/153
f 153/153/153 154/154/154 155/155/155
f 155/155/155 156/156/156 153/153/153
f 157/157/157 156/156/156 155/155/155
f 155/155/155 158/158/158 157/157/157
f 157/157/157 158/158/158 159/159/159
f 159/159/159 160/160/160 157/157/157
f 163/163/163 162/162/162 161/161/161
f 161/161/161 162/162/162 164/164/164
f 161/161/161 165/165/165 163/163/163
f 164/164/164 166/166/166 161/161/161
f 167/167/167 163/163/163 165/165/165
f 168/168/168 166/166/166 164/164/164
f 165/165/165 169/169/169 167/167/167
f 164/164/164 170/170/170 168/168/168
f 167/167/167 169/169/169 171/171/171
f 172/172/172 168/168/168 170/170/170
f 171/171/171 173/173/173 167/167/167
f 170/170/170 174/174/174 172/172/172
f 173/173/173 171/171/171 175/175/175
f 176/176/176 172/172/172 174/174/174
f 175/175/175 177/177/177 173/173/173
f 174/174/174 178/178/178 176/176/176
f 179/179/179 177/177/177 175/175/175
f 180/180/180 176/176/176 178/178/178
f 175/175/175 181/181/181 179/179/179
f 178/178/178 182/182/182 180/180/180
f 183/183/183 179/179/179 181/181/181
f 180/180/180 182/182/182 184/184/184
f 181/181/181 185/185/185 183/183/183
f 184/184/184 186/186/186 180/180/180
f 183/183/183 185/185/185 187/187/187
f 188/188/188 186/186/186 184/184/184
f 187/187/187 189/189/189 183/183/183
f 184/184/184 190/190/190 188/188/188
f 191/191/191 189/189/189 187/187/187
f 188/188/188 190/190/190 192/192/192
f 187/187/187 193/193/193 191/191/191
f 192/192/192 194/194/194 188/188/188
f 195/195/195 191/191/191 193/193/193
f 194/194/194 192/192/192 196/196/196
f 193/193/193 197/197/197 195/195/195
f 196/196/196 198/198/198 194/194/194
f 199/199/199 195/195/195 197/197/197
f 198/198/198 196/196/196 200/200/200
f 197/197/197 201/201/201 199/199/199
f 200/200/200 202/202/202 198/198/198
f 203/203/203 199/199/199 201/201/201
f 204/204/204 202/202/202 200/200/200
f 201/201/201 205/205/205 203/203/203
f 200/200/200 206/206/206 204/204/204
f 203/203/203 205/205/205 207/207/207
f 204/204/204 206/206/206 208/208/208
f 207/207/207 208/208/208 203/203/203
f 208/208/208 207/207/207 204/204/204
f 211/211/211 210/210/210 209/209/209
f 210/210/210 212/212/212 209/209/209
f 213/213/213 211/211/211 209/209/209
f 212/212/212 214/214/214 209/209/209
f 215/215/215 213/213/213 209/209/209
f 214/214/214 216/216/216 209/209/209
f 217/217/217 215/215/215 209/209/209
f 216/216/216 218/218/218 209/209/209
f 219/219/219 217/217/217 209/209/209
f 218/218/218 220/220/220 209/209/209
f 221/221/221 219/219/219 209/209/209
f 220/220/220 222/222/222 209/209/209
f 223/223/223 221/221/221 209/209/209
f 222/222/222 224/224/224 209/209/209
f 225/225/225 223/223/223 209/209/209
f 224/224/224 226/226/226 209/209/209
f 227/227/227 225/225/225 209/209/209
f 226/226/226 228/228/228 209/209/209
f 229/229/229 227/227/227 209/209/209
f 228/228/228 230/230/230 209/209/209
f 231/231/231 229/229/229 209/209/209
f 230/230/230 232/232/232 209/209/209
f 233/233/233 231/231/231 209/209/209
f 232/232/232 234/234/234 209/209/209
f 235/235/235 233/233/233 209/209/209
f 234/234/234 236/236/236 209/209/209
f 237/237/237 235/235/235 209/209/209
f 236/236/236 238/238/238 209/209/209
f 239/239/239 237/237/237 209/209/209
f 238/238/238 240/240/240 209/209/209
f 241/241/241 239/239/239 209/209/209
f 240/240/240 241/241/241 209/209/209
f 244/244/244 243/243/243 242/242/242
f 242/242/242 245/245/245 244/244/244
f 243/243/243 244/244/244 246/246/246
f 245/245/245 242/242/242 247/247/247
f 246/246/246 248/248/248 243/243/243
f 247/247/247 249/249/249 245/245/245
f 248/248/248 246/246/246 250/250/250
f 249/249/249 247/247/247 251/251/251
f 250/250/250 252/252/252 248/248/248
f 251/251/251 253/253/253 249/249/249
f 252/252/252 250/250/250 254/254/254
f 253/253/253 251/251/251 255/255/255
f 254/254/254 256/256/256 252/252/252
f 255/255/255 257/257/257 253/253/253
f 256/256/256 254/254/254 258/258/258
f 257/257/257 255/255/255 259/259/259
f 258/258/258 260/260/260 256/256/256
f 259/259/259 261/261/261 257/257/257
f 260/260/260 258/258/258 262/262/262
f 262/262/262 263/263/263 260/260/260
f 261/261/261 259/259/259 264/264/264
f 264/264/264 265/265/265 261/261/261
f 268/268/268 267/267/267 266/266/266
f 266/266/266 269/269/269 268/268/268
f 267/267/267 268/268/268 270/270/270
f 270/270/270 271/271/271 267/267/267
f 271/271/271 270/270/270 272/272/272
f 272/272/272 273/273/273 271/271/271
f 273/273/273 272/272/272 274/274/274
f 274/274/274 275/275/275 273/273/273
f 275/275/275 274/274/274 276/276/276
f 276/276/276 277/277/277 275/275/275
f 277/277/277 276/276/276 278/278/278
f 278/278/278 279/279/279 277/277/277
f 282/282/282 281/281/281 280/280/280
f 280/280/280 283/283/283 282/282/282
f 281/281/281 282/282/282 284/284/284
f 284/284/284 285/285/285 281/281/281
f 285/285/285 284/284/284 286/286/286
f 286/286/286 287/287/287 285/285/285
f 287/287/287 286/286/286 288/288/288
f 288/288/288 289/289/289 287/287/287
f 289/289/289 288/288/288 290/290/290
f 290/290/290 291/291/291 289/289/289
f 291/291/291 290/290/290 292/292/292
f 292/292/292 293/293/293 291/291/291
f 296/296/296 295/295/295 294/294/294
f 294/294/294 297/297/297 296/296/296
f 295/295/295 296/296/296 298/298/298
f 298/298/298 299/299/299 295/295/295
f 299/299/299 298/298/298 300/300/300
f 300/300/300 301/301/301 299/299/299
f 301/301/301 300/300/300 302/302/302
f 302/302/302 303/303/303 301/301/301
f 303/303/303 302/302/302 304/304/304
f 304/304/304 305/305/305 303/303/303
f 305/305/305 304/304/304 306/306/306
f 306/306/306 307/307/307 305/305/305
f 310/310/310 309/309/309 308/308/308
f 308/308/308 311/311/311 310/310/310
f 309/309/309 310/310/310 312/312/312
f 312/312/312 313/313/313 309/309/309
f 313/313/313 312/312/312 314/314/314
f 314/314/314 315/315/315 313/313/313
f 318/318/318 317/317/317 316/316/316
f 316/316/316 317/317/317 319/319/319
f 316/316/316 320/320/320 318/318/318
f 319/319/319 321/321/321 316/316/316
f 318/318/318 320/320/320 322/322/322
f 323/323/323 321/321/321 319/319/319
f 322/322/322 324/324/324 318/318/318
f 319/319/319 325/325/325 323/323/323
f 326/326/326 324/324/324 322/322/322
f 323/323/323 325/325/325 327/327/327
f 322/322/322 328/328/328 326/326/326
f 327/327/327 329/329/329 323/323/323
f 326/326/326 328/328/328 330/330/330
f 331/331/331 329/329/329 327/327/327
f 330/330/330 332/332/332 326/326/326
f 327/327/327 333/333/333 331/331/331
f 334/334/334 332/332/332 330/330/330
f 331/331/331 333/333/333 335/335/335
f 335/335/335 336/336/336 331/331/331
f 330/330/330 337/337/337 334/334/334
f 334/334/334 337/337/337 338/338/338
f 338/338/338 339/339/339 334/334/334
f 340/340/340 339/339/339 338/338/338
f 338/338/338 341/341/341 340/340/340
f 344/344/344 343/343/343 342/342/342
f 342/342/342 345/345/345 344/344/344
f 346/346/346 345/345/345 342/342/342
f 347/347/347 343/343/343 344/344/344
f 344/344/344 348/348/348 347/347/347
f 347/347/347 348/348/348 349/349/349
f 342/342/342 343/343/343 350/350/350
f 350/350/350 343/343/343 347/347/347
f 350/350/350 351/351/351 342/342/342
f 347/347/347 352/352/352 350/350/350
f 342/342/342 351/351/351 353/353/353
f 354/354/354 352/352/352 347/347/347
f 353/353/353 355/355/355 342/342/342
f 342/342/342 355/355/355 346/346/346
f 347/347/347 356/356/356 354/354/354
f 349/349/349 356/356/356 347/347/347
f 346/346/346 355/355/355 357/357/357
f 357/357/357 355/355/355 353/353/353
f 357/357/357 358/358/358 346/346/346
f 353/353/353 359/359/359 357/357/357
f 360/360/360 358/358/358 357/357/357
f 357/357/357 359/359/359 361/361/361
f 357/357/357 362/362/362 360/360/360
f 361/361/361 362/362/362 357/357/357
f 360/360/360 362/362/362 363/363/363
f 363/363/363 362/362/362 361/361/361
f 363/363/363 364/364/364 360/360/360
f 361/361/361 365/365/365 363/363/363
f 366/366/366 364/364/364 363/363/363
f 363/363/363 365/365/365 367/367/367
f 363/363/363 368/368/368 366/366/366
f 367/367/367 368/368/368 363/363/363
f 366/366/366 368/368/368 369/369/369
f 369/369/369 368/368/368 367/367/367
f 369/369/369 370/370/370 366/366/366
f 367/367/367 371/371/371 369/369/369
f 372/372/372 370/370/370 369/369/369
f 369/369/369 371/371/371 373/373/373
f 369/369/369 374/374/374 372/372/372
f 373/373/373 374/374/374 369/369/369
f 372/372/372 374/374/374 375/375/375
f 375/375/375 374/374/374 373/373/373
f 375/375/375 376/376/376 372/372/372
f 373/373/373 377/377/377 375/375/375
f 378/378/378 376/376/376 375/375/375
f 375/375/375 377/377/377 379/379/379
f 375/375/375 380/380/380 378/378/378
f 379/379/379 380/380/380 375/375/375
f 378/378/378 380/380/380 381/381/381
f 381/381/381 380/380/380 379/379/379
f 381/381/381 382/382/382 378/378/378
f 379/379/379 383/383/383 381/381/381
f 384/384/384 382/382/382 381/381/381
f 381/381/381 383/383/383 385/385/385
f 381/381/381 386/386/386 384/384/384
f 385/385/385 386/386/386 381/381/381
f 384/384/384 386/386/386 387/387/387
f 387/387/387 386/386/386 385/385/385
f 387/387/387 388/388/388 384/384/384
f 385/385/385 389/389/389 387/387/387
f 390/390/390 388/388/388 387/387/387
f 387/387/387 389/389/389 391/391/391
f 387/387/387 392/392/392 390/390/390
f 391/391/391 392/392/392 387/387/387
f 390/390/390 392/392/392 393/393/393
f 393/393/393 392/392/392 391/391/391
f 393/393/393 394/394/394 390/390/390
f 391/391/391 395/395/395 393/393/393
f 396/396/396 394/394/394 393/393/393
f 393/393/393 395/395/395 397/397/397
f 393/393/393 398/398/398 396/396/396
f 397/397/397 398/398/398 393/393/393
f 396/396/396 398/398/398 399/399/399
f 399/399/399 398/398/398 397/397/397
f 399/399/399 400/400/400 396/396/396
f 397/397/397 401/401/401 399/399/399
f 402/402/402 400/400/400 399/399/399
f 399/399/399 401/401/401 403/403/403
f 399/399/399 404/404/404 402/402/402
f 403/403/403 404/404/404 399/399/399
f 402/402/402 404/404/404 405/405/405
f 405/405/405 404/404/404 403/403/403
f 405/405/405 406/406/406 402/402/402
f 403/403/403 407/407/407 405/405/405
f 408/408/408 406/406/406 405/405/405
f 405/405/405 407/407/407 409/409/409
f 405/405/405 410/410/410 408/408/408
f 409/409/409 410/410/410 405/405/405
f 408/408/408 410/410/410 411/411/411
f 411/411/411 410/410/410 409/409/409
f 411/411/411 412/412/412 408/408/408
f 409/409/409 413/413/413 411/411/411
f 414/414/414 412/412/412 411/411/411
f 411/411/411 413/413/413 415/415/415
f 411/411/411 416/416/416 414/414/414
f 415/415/415 416/416/416 411/411/411
f 414/414/414 416/416/416 417/417/417
f 417/417/417 416/416/416 415/415/415
f 417/417/417 418/418/418 414/414/414
f 415/415/415 419/419/419 417/417/417
f 420/420/420 418/418/418 417/417/417
f 417/417/417 419/419/419 421/421/421
f 417/417/417 422/422/422 420/420/420
f 421/421/421 422/422/422 417/417/417
f 420/420/420 422/422/422 423/423/423
f 423/423/423 422/422/422 421/421/421
f 423/423/423 424/424/424 420/420/420
f 421/421/421 425/425/425 423/423/423
f 426/426/426 424/424/424 423/423/423
f 423/423/423 425/425/425 427/427/427
f 423/423/423 428/428/428 426/426/426
f 427/427/427 428/428/428 423/423/423
f 426/426/426 428/428/428 429/429/429
f 429/429/429 428/428/428 427/427/427
f 429/429/429 430/430/430 426/426/426
f 427/427/427 431/431/431 429/429/429
f 432/432/432 430/430/430 429/429/429
f 429/429/429 431/431/431 433/433/433
f 429/429/429 434/434/434 432/432/432
f 433/433/433 434/434/434 429/429/429
f 432/432/432 434/434/434 435/435/435
f 435/435/435 434/434/434 433/433/433
f 435/435/435 436/436/436 432/432/432
f 433/433/433 437/437/437 435/435/435
f 438/438/438 436/436/436 435/435/435
f 435/435/435 437/437/437 439/439/439
f 435/435/435 440/440/440 438/438/438
f 439/439/439 440/440/440 435/435/435
f 438/438/438 440/440/440 441/441/441
f 441/441/441 440/440/440 439/439/439
f 441/441/441 442/442/442 438/438/438
f 439/439/439 443/443/443 441/441/441
f 444/444/444 442/442/442 441/441/441
f 441/441/441 443/443/443 445/445/445
f 441/441/441 446/446/446 444/444/444
f 445/445/445 446/446/446 441/441/441
f 444/444/444 446/446/446 447/447/447
f 447/447/447 446/446/446 445/445/445
f 447/447/447 448/448/448 444/444/444
f 445/445/445 449/449/449 447/447/447
f 450/450/450 448/448/448 447/447/447
f 447/447/447 449/449/449 451/451/451
f 447/447/447 452/452/452 450/450/450
f 451/451/451 452/452/452 447/447/447
f 450/450/450 452/452/452 453/453/453
f 453/453/453 452/452/452 451/451/451
f 453/453/453 454/454/454 450/450/450
f 451/451/451 455/455/455 453/453/453
f 456/456/456 454/454/454 453/453/453
f 453/453/453 455/455/455 457/457/457
f 453/453/453 458/458/458 456/456/456
f 457/457/457 458/458/458 453/453/453
f 456/456/456 458/458/458 459/459/459
f 459/459/459 458/458/458 457/457/457
f 459/459/459 460/460/460 456/456/456
f 457/457/457 461/461/461 459/459/459
f 462/462/462 460/460/460 459/459/459
f 459/459/459 461/461/461 463/463/463
f 459/459/459 464/464/464 462/462/462
f 463/463/463 464/464/464 459/459/459
f 462/462/462 464/464/464 465/465/465
f 465/465/465 464/464/464 463/463/463
f 465/465/465 466/466/466 462/462/462
f 463/463/463 467/467/467 465/465/465
f 468/468/468 466/466/466 465/465/465
f 465/465/465 467/467/467 469/469/469
f 465/465/465 470/470/470 468/468/468
f 469/469/469 470/470/470 465/465/465
f 468/468/468 470/470/470 471/471/471
f 471/471/471 470/470/470 469/469/469
f 471/471/471 472/472/472 468/468/468
f 469/469/469 473/473/473 471/471/471
f 474/474/474 472/472/472 471/471/471
f 471/471/471 473/473/473 475/475/475
f 471/471/471 476/476/476 474/474/474
f 475/475/475 476/476/476 471/471/471
f 474/474/474 476/476/476 477/477/477
f 477/477/477 476/476/476 475/475/475
f 477/477/477 478/478/478 474/474/474
f 475/475/475 479/479/479 477/477/477
f 480/480/480 478/478/478 477/477/477
f 477/477/477 479/479/479 481/481/481
f 477/477/477 482/482/482 480/480/480
f 481/481/481 482/482/482 477/477/477
f 480/480/480 482/482/482 483/483/483
f 483/483/483 482/482/482 481/481/481
f 483/483/483 484/484/484 480/480/480
f 481/481/481 485/485/485 483/483/483
f 486/486/486 484/484/484 483/483/483
f 483/483/483 485/485/485 487/487/487
f 483/483/483 488/488/488 486/486/486
f 487/487/487 488/488/488 483/483/483
f 486/486/486 488/488/488 489/489/489
f 489/489/489 488/488/488 487/487/487
f 489/489/489 490/490/490 486/486/486
f 487/487/487 491/491/491 489/489/489
f 492/492/492 490/490/490 489/489/489
f 489/489/489 491/491/491 493/493/493
f 489/489/489 494/494/494 492/492/492
f 493/493/493 494/494/494 489/489/489
f 492/492/492 494/494/494 495/495/495
f 495/495/495 494/494/494 493/493/493
f 495/495/495 496/496/496 492/492/492
f 493/493/493 497/497/497 495/495/495
f 498/498/498 496/496/496 495/495/495
f 495/495/495 497/497/497 499/499/499
f 495/495/495 500/500/500 498/498/498
f 499/499/499 500/500/500 495/495/495
f 498/498/498 500/500/500 501/501/501
f 501/501/501 500/500/500 499/499/499
f 501/501/501 502/502/502 498/498/498
f 499/499/499 503/503/503 501/501/501
f 504/504/504 502/502/502 501/501/501
f 501/501/501 503/503/503 505/505/505
f 501/501/501 506/506/506 504/504/504
f 505/505/505 506/506/506 501/501/501
f 504/504/504 506/506/506 507/507/507
f 507/507/507 506/506/506 505/505/505
f 507/507/507 508/508/508 504/504/504
f 505/505/505 509/509/509 507/507/507
f 510/510/510 508/508/508 507/507/507
f 507/507/507 509/509/509 511/511/511
f 507/507/507 512/512/512 510/510/510
f 511/511/511 512/512/512 507/507/507
f 510/510/510 512/512/512 513/513/513
f 513/513/513 512/512/512 511/511/511
f 513/513/513 514/514/514 510/510/510
f 511/511/511 515/515/515 513/513/513
f 516/516/516 514/514/514 513/513/513
f 513/513/513 515/515/515 517/517/517
f 513/513/513 518/518/518 516/516/516
f 517/517/517 518/518/518 513/513/513
f 516/516/516 518/518/518 519/519/519
f 519/519/519 518/518/518 517/517/517
f 519/519/519 520/520/520 516/516/516
f 517/517/517 521/521/521 519/519/519
f 349/349/349 520/520/520 519/519/519
f 519/519/519 521/521/521 354/354/354
f 519/519/519 356/356/356 349/349/349
f 354/354/354 356/356/356 519/519/519
f 524/524/524 523/523/523 522/522/522
f 525/525/525 523/523/523 524/524/524
f 522/522/522 526/526/526 524/524/524
f 524/524/524 527/527/527 525/525/525
f 528/528/528 526/526/526 522/522/522
f 525/525/525 527/527/527 529/529/529
f 522/522/522 530/530/530 528/528/528
f 529/529/529 531/531/531 525/525/525
f 528/528/528 530/530/530 532/532/532
f 533/533/533 531/531/531 529/529/529
f 532/532/532 534/534/534 528/528/528
f 529/529/529 535/535/535 533/533/533
f 536/536/536 534/534/534 532/532/532
f 533/533/533 535/535/535 537/537/537
f 532/532/532 538/538/538 536/536/536
f 537/537/537 539/539/539 533/533/533
f 536/536/536 538/538/538 540/540/540
f 541/541/541 539/539/539 537/537/537
f 540/540/540 542/542/542 536/536/536
f 537/537/537 543/543/543 541/541/541
f 544/544/544 542/542/542 540/540/540
f 540/540/540 545/545/545 544/544/544
f 541/541/541 543/543/543 546/546/546
f 546/546/546 547/547/547 541/541/541
f 550/550/550 549/549/549 548/548/548
f 548/548/548 551/551/551 550/550/550
f 552/552/552 549/549/549 550/550/550
f 550/550/550 553/553/553 552/552/552
f 552/552/552 553/553/553 554/554/554
f 554/554/554 555/555/555 552/552/552
f 556/556/556 555/555/555 554/554/554
f 554/554/554 557/557/557 556/556/556
f 556/556/556 557/557/557 558/558/558
f 558/558/558 559/559/559 556/556/556
f 560/560/560 559/559/559 558/558/558
f 558/558/558 561/561/561 560/560/560
f 560/560/560 561/561/561 562/562/562
f 562/562/562 563/563/563 560/560/560
f 564/564/564 563/563/563 562/562/562
f 562/562/562 565/565/565 564/564/564
f 564/564/564 565/565/565 566/566/566
f 566/566/566 567/567/567 564/564/564
f 568/568/568 567/567/567 566/566/566
f 566/566/566 569/569/569 568/568/568
f 568/568/568 569/569/569 570/570/570
f 570/570/570 571/571/571 568/568/568
f 572/572/572 571/571/571 570/570/570
f 570/570/570 573/573/573 572/572/572
f 572/572/572 573/573/573 574/574/574
f 574/574/574 575/575/575 572/572/572
f 576/576/576 575/575/575 574/574/574
f 574/574/574 577/577/577 576/576/576
f 576/576/576 577/577/577 578/578/578
f 578/578/578 579/579/579 576/576/576
f 580/580/580 579/579/579 578/578/578
f 578/578/578 581/581/581 580/580/580
f 584/584/584 583/583/583 582/582/582
f 582/582/582 585/585/585 584/584/584
f 588/588/588 587/587/587 586/586/586
f 586/586/586 589/589/589 588/588/588
f 588/588/588 589/589/589 590/590/590
f 590/590/590 591/591/591 588/588/588
f 592/592/592 591/591/591 590/590/590
f 590/590/590 593/593/593 592/592/592
f 592/592/592 593/593/593 594/594/594
f 594/594/594 595/595/595 592/592/592
f 596/596/596 595/595/595 594/594/594
f 594/594/594 597/597/597 596/596/596
f 596/596/596 597/597/597 598/598/598
f 598/598/598 599/599/599 596/596/596
f 600/600/600 599/599/599 598/598/598
f 598/598/598 601/601/601 600/600/600
f 600/600/600 601/601/601 602/602/602
f 602/602/602 603/603/603 600/600/600
f 604/604/604 603/603/603 602/602/602
f 602/602/602 605/605/605 604/604/604
f 604/604/604 605/605/605 606/606/606
f 606/606/606 607/607/607 604/604/604
f 608/608/608 607/607/607 606/606/606
f 606/606/606 609/609/609 608/608/608
f 608/608/608 609/609/609 610/610/610
f 610/610/610 611/611/611 608/608/608
f 612/612/612 611/611/611 610/610/610
f 610/610/610 613/613/613 612/612/612
f 612/612/612 613/613/613 614/614/614
f 614/614/614 615/615/615 612/612/612
f 616/616/616 615/615/615 614/614/614
f 614/614/614 617/617/617 616/616/616
f 616/616/616 617/617/617 618/618/618
f 618/618/618 619/619/619 616/616/616
f 622/622/622 621/621/621 620/620/620
f 620/620/620 623/623/623 622/622/622
f 620/620/620 621/621/621 624/624/624
f 624/624/624 625/625/625 620/620/620
f 626/626/626 625/625/625 624/624/624
f 624/624/624 627/627/627 626/626/626
f 626/626/626 627/627/627 628/628/628
f 628/628/628 629/629/629 626/626/626
f 630/630/630 629/629/629 628/628/628
f 628/628/628 631/631/631 630/630/630
f 630/630/630 631/631/631 632/632/632
f 632/632/632 633/633/633 630/630/630
f 634/634/634 633/633/633 632/632/632
f 632/632/632 635/635/635 634/634/634
f 634/634/634 635/635/635 636/636/636
f 636/636/636 637/637/637 634/634/634
f 638/638/638 637/637/637 636/636/636
f 636/636/636 639/639/639 638/638/638
f 638/638/638 639/639/639 640/640/640
f 640/640/640 641/641/641 638/638/638
f 642/642/642 641/641/641 640/640/640
f 640/640/640 643/643/643 642/642/642
f 642/642/642 643/643/643 644/644/644
f 644/644/644 645/645/645 642/642/642
f 646/646/646 645/645/645 644/644/644
f 644/644/644 647/647/647 646/646/646
f 650/650/650 649/649/649 648/648/648
f 648/648/648 651/651/651 650/650/650
f 652/652/652 651/651/651 648/648/648
f 648/648/648 653/653/653 652/652/652
f 652/652/652 653/653/653 654/654/654
f 654/654/654 655/655/655 652/652/652
f 656/656/656 655/655/655 654/654/654
f 654/654/654 657/657/657 656/656/656
f 656/656/656 657/657/657 658/658/658
f 658/658/658 659/659/659 656/656/656
f 660/660/660 659/659/659 658/658/658
f 658/658/658 661/661/661 660/660/660
f 660/660/660 661/661/661 662/662/662
f 662/662/662 663/663/663 660/660/660
f 664/664/664 663/663/663 662/662/662
f 662/662/662 665/665/665 664/664/664
f 664/664/664 665/665/665 666/666/666
f 666/666/666 667/667/667 664/664/664
f 668/668/668 667/667/667 666/666/666
f 666/666/666 669/669/669 668/668/668
f 668/668/668 669/669/669 670/670/670
f 670/670/670 671/671/671 668/668/668
f 672/672/672 671/671/671 670/670/670
f 670/670/670 673/673/673 672/672/672
f 672/672/672 673/673/673 674/674/674
f 674/674/674 675/675/675 672/672/672
f 678/678/678 677/677/677 676/676/676
f 676/676/676 679/679/679 678/678/678
f 680/680/680 677/677/677 678/678/678
f 678/678/678 681/681/681 680/680/680
f 680/680/680 681/681/681 682/682/682
f 682/682/682 683/683/683 680/680/680
f 684/684/684 683/683/683 682/682/682
f 682/682/682 685/685/685 684/684/684
f 684/684/684 685/685/685 686/686/686
f 686/686/686 687/687/687 684/684/684
f 688/688/688 687/687/687 686/686/686
f 686/686/686 689/689/689 688/688/688
f 688/688/688 689/689/689 690/690/690
f 690/690/690 691/691/691 688/688/688
f 692/692/692 691/691/691 690/690/690
f 690/690/690 693/693/693 692/692/692
f 692/692/692 693/693/693 694/694/694
f 694/694/694 695/695/695 692/692/692
f 696/696/696 695/695/695 694/694/694
f 694/694/694 697/697/697 696/696/696
f 696/696/696 697/697/697 698/698/698
f 698/698/698 699/699/699 696/696/696
f 700/700/700 699/699/699 698/698/698
f 698/698/698 701/701/701 700/700/700
f 700/700/700 701/701/701 702/702/702
f 702/702/702 703/703/703 700/700/700
f 704/704/704 703/703/703 702/702/702
f 702/702/702 705/705/705 704/704/704
f 704/704/704 705/705/705 706/706/706
f 706/706/706 707/707/707 704/704/704
f 708/708/708 707/707/707 706/706/706
f 706/706/706 709/709/709 708/708/708
f 712/712/712 711/711/711 710/710/710
f 710/710/710 713/713/713 712/712/712
f 712/712/712 713/713/713 714/714/714
f 714/714/714 715/715/715 712/712/712
f 716/716/716 715/715/715 714/714/714
f 714/714/714 717/717/717 716/716/716
f 716/716/716 717/717/717 718/718/718
f 718/718/718 719/719/719 716/716/716
f 720/720/720 719/719/719 718/718/718
f 718/718/718 721/721/721 720/720/720
f 720/720/720 721/721/721 722/722/722
f 722/722/722 723/723/723 720/720/720
f 724/724/724 723/723/723 722/722/722
f 722/722/722 725/725/725 724/724/724
f 724/724/724 725/725/725 726/726/726
f 726/726/726 727/727/727 724/724/724
f 728/728/728 727/727/727 726/726/726
f 726/726/726 729/729/729 728/728/728
f 728/728/728 729/729/729 730/730/730
f 730/730/730 731/731/731 728/728/728
f 732/732/732 731/731/731 730/730/730
f 730/730/730 733/733/733 732/732/732
f 732/732/732 733/733/733 734/734/734
f 734/734/734 735/735/735 732/732/732
f 736/736/736 735/735/735 734/734/734
f 734/734/734 737/737/737 736/736/736
f 736/736/736 737/737/737 738/738/738
f 738/738/738 739/739/739 736/736/736
f 740/740/740 739/739/739 738/738/738
f 738/738/738 741/741/741 740/740/740
f 740/740/740 741/741/741 742/742/742
f 742/742/742 743/743/743 740/740/740
f 746/746/746 745/745/745 744/744/744
f 744/744/744 747/747/747 746/746/746
f 750/750/750 749/749/749 748/748/748
f 748/748/748 751/751/751 750/750/750
f 754/754/754 753/753/753 752/752/752
f 752/752/752 755/755/755 754/754/754
f 758/758/758 757/757/757 756/756/756
f 756/756/756 759/759/759 758/758/758
f 762/762/762 761/761/761 760/760/760
f 760/760/760 763/763/763 762/762/762
f 761/761/761 762/762/762 764/764/764
f 763/763/763 760/760/760 765/765/765
f 764/764/764 766/766/766 761/761/761
f 765/765/765 767/767/767 763/763/763
f 766/766/766 764/764/764 768/768/768
f 767/767/767 765/765/765 769/769/769
f 768/768/768 770/770/770 766/766/766
f 769/769/769 771/771/771 767/767/767
f 770/770/770 768/768/768 772/772/772
f 771/771/771 769/769/769 773/773/773
f 772/772/772 774/774/774 770/770/770
f 773/773/773 775/775/775 771/771/771
f 774/774/774 772/772/772 776/776/776
f 775/775/775 773/773/773 777/777/777
f 776/776/776 778/778/778 774/774/774
f 777/777/777 779/779/779 775/775/775
f 778/778/778 776/776/776 780/780/780
f 779/779/779 777/777/777 781/781/781
f 780/780/780 782/782/782 778/778/778
f 781/781/781 783/783/783 779/779/779
f 782/782/782 780/780/780 784/784/784
f 783/783/783 781/781/781 785/785/785
f 784/784/784 786/786/786 782/782/782
f 785/785/785 787/787/787 783/783/783
f 786/786/786 784/784/784 788/788/788
f 787/787/787 785/785/785 789/789/789
f 788/788/788 790/790/790 786/786/786
f 789/789/789 791/791/791 787/787/787
f 790/790/790 788/788/788 792/792/792
f 791/791/791 789/789/789 793/793/793
f 792/792/792 794/794/794 790/790/790
f 793/793/793 795/795/795 791/791/791
f 794/794/794 792/792/792 795/795/795
f 795/795/795 793/793/793 794/794/794
