# VPXTOOL table OBJ file
# VPXTOOL OBJ file
# numVerts: 473 numFaces: 611
o p_FL2_
v -0.3122 0.1955 -1.4208
v -0.3122 0.1485 -1.4671
v -0.3122 0.0514 -1.4671
v -0.3122 -0.0027 -1.4208
v -0.3122 -0.0074 -1.1765
v -0.3122 0.2056 -1.2089
v 0 2.1979 -0
v 0.5554 2.1979 0.8313
v 0.3826 2.1979 0.9237
v 0.6341 2.1394 0.949
v 0.8071 2.1394 0.8071
v 0.7069 2.1979 0.7069
v 0.8485 1.9979 0.8485
v 0.8313 2.1979 0.5554
v 0.9237 2.1979 0.3826
v 0.9567 2.1979 0.2902
v 0.9805 2.1979 0.195
v 0.9998 2.1979 -0
v 0.9805 2.1979 -0.195
v 0.9567 2.1979 -0.2902
v 0.9237 2.1979 -0.3826
v 0.8313 2.1979 -0.5554
v 0.7069 2.1979 -0.7069
v 0.5554 2.1979 -0.8313
v 0.3826 2.1979 -0.9237
v 0.195 2.1979 -0.9805
v -0 2.1979 -0.9998
v -0.195 2.1979 -0.9805
v -0.3826 2.1979 -0.9237
v -0.5554 2.1979 -0.8313
v -0.7069 2.1979 -0.7069
v -0.8313 2.1979 -0.5554
v -0.9237 2.1979 -0.3826
v -0.9567 2.1979 -0.2902
v -0.9805 2.1979 -0.195
v -0.9998 2.1979 0
v -0.9805 2.1979 0.195
v -0.9567 2.1979 0.2902
v -0.9237 2.1979 0.3826
v -0.8313 2.1979 0.5554
v -0.7069 2.1979 0.7069
v -0.5554 2.1979 0.8313
v -0.6341 2.1394 0.949
v -0.8071 2.1394 0.8071
v -0.3826 2.1979 0.9237
v -0.6667 1.9979 0.9978
v -0.8485 1.9979 0.8485
v -0.8485 0.3 0.8485
v -0.4368 2.1394 1.0545
v -0.701 0.2076 1.0492
v -0.8922 0.2076 0.8922
v -0.2902 2.1979 0.9567
v -0.6667 0.3 0.9978
v -0.4829 0.2076 1.1658
v -0.4592 1.9979 1.1087
v -0.4592 0.3 1.1087
v -0.3125 0.2056 1.2089
v -0.3313 2.1394 1.0922
v -0.3483 0.3 1.1483
v -0.3483 1.9979 1.1483
v -0.195 2.1979 0.9805
v -0.2227 2.1394 1.1194
v -0.2341 0.3 1.1769
v -0.2341 1.9979 1.1769
v -0.2341 -0.0073 1.1769
v -0.3125 -0.0074 1.1765
v -0.2341 0.2037 1.1769
v 0 -0.0073 1.2
v 0 0.2037 1.2
v 0.2341 -0.0073 1.1769
v 0 0.3 1.2
v 0 1.9979 1.2
v 0 2.1394 1.1414
v 0.2341 0.3 1.1769
v 0.2341 0.2037 1.1769
v 0.3122 0.2056 1.2089
v 0.3122 -0.0074 1.1765
v 0.2341 1.9979 1.1769
v 0.3483 0.3 1.1483
v 0.4829 0.2076 1.1658
v 0 2.1979 0.9998
v 0.4592 0.3 1.1087
v 0.701 0.2076 1.0492
v 0.2227 2.1394 1.1194
v 0.195 2.1979 0.9805
v 0.2902 2.1979 0.9567
v 0.3313 2.1394 1.0922
v 0.4368 2.1394 1.0545
v 0.3483 1.9979 1.1483
v 0.4592 1.9979 1.1087
v 0.6667 1.9979 0.9978
v 0.6667 0.3 0.9978
v 0.8485 0.3 0.8485
v 0.8922 0.2076 0.8922
v -0.8349 0.0514 -1.2411
v -0.8087 -0.0027 -1.2019
v -0.557 -0.0027 -1.3365
v -1.0418 0.0243 -1.0419
v -0.575 0.0514 -1.38
v -0.3122 -0.0027 -1.4208
v -0.3122 0.0514 -1.4671
v -0.8349 0.1485 -1.2411
v -1.0584 0.1485 -1.0586
v -0.575 0.1485 -1.38
v -0.3122 0.1485 -1.4671
v -0.8087 0.1955 -1.2019
v -1.0251 0.1955 -1.0253
v -0.557 0.1955 -1.3365
v -0.3122 0.1955 -1.4208
v -0.701 0.2076 -1.0492
v -0.8922 0.2076 -0.8922
v -0.4829 0.2076 -1.1658
v -0.3122 0.2056 -1.2089
v -0.6667 0.3 -0.9978
v -0.8485 0.3 -0.8485
v -0.8922 0.2076 -0.8922
v -0.701 0.2076 -1.0492
v -0.8485 1.9979 -0.8485
v -0.4592 0.3 -1.1087
v -0.4829 0.2076 -1.1658
v -0.6667 1.9979 -0.9978
v -0.6341 2.1394 -0.949
v -0.8071 2.1394 -0.8071
v -0.5554 2.1979 -0.8313
v -0.7069 2.1979 -0.7069
v -0.3826 2.1979 -0.9237
v -0.4592 1.9979 -1.1087
v -0.4368 2.1394 -1.0545
v -0.3313 2.1394 -1.0922
v -0.2902 2.1979 -0.9567
v -0.3483 1.9979 -1.1483
v -0.3483 0.3 -1.1483
v -0.3122 0.2056 -1.2089
v -0.2341 1.9979 -1.1769
v -0.2227 2.1394 -1.1194
v -0.195 2.1979 -0.9805
v -0 2.1979 -0.9998
v -0 2.1394 -1.1414
v 0.195 2.1979 -0.9805
v -0.2341 0.3 -1.1769
v -0 1.9979 -1.2
v 0.2227 2.1394 -1.1194
v -0.2341 0.2037 -1.1769
v -0.3122 -0.0074 -1.1765
v -0.2341 -0.0073 -1.1769
v -0 0.2037 -1.2
v -0 -0.0073 -1.2
v -0 0.3 -1.2
v 0.2341 1.9979 -1.1769
v 0.2341 0.2037 -1.1769
v 0.2341 -0.0073 -1.1769
v 0.2341 0.3 -1.1769
v 0.3125 0.2056 -1.2089
v 0.3125 -0.0074 -1.1765
v 0.3483 1.9979 -1.1483
v 0.3313 2.1394 -1.0922
v 0.2902 2.1979 -0.9567
v 0.3483 0.3 -1.1483
v 0.4368 2.1394 -1.0545
v 0.3826 2.1979 -0.9237
v 0.5554 2.1979 -0.8313
v 0.4592 1.9979 -1.1087
v 0.6341 2.1394 -0.949
v 0.7069 2.1979 -0.7069
v 0.8071 2.1394 -0.8071
v 0.4592 0.3 -1.1087
v 0.4829 0.2076 -1.1658
v 0.6667 1.9979 -0.9978
v 0.8485 1.9979 -0.8485
v 0.8485 0.3 -0.8485
v 0.6667 0.3 -0.9978
v 0.701 0.2076 -1.0492
v 0.8922 0.2076 -0.8922
v 0.3125 -0.0074 -1.1765
v 0.3125 0.1955 -1.4208
v 0.3125 0.2056 -1.2089
v 0.3125 -0.0027 -1.4208
v 0.3125 0.0514 -1.4671
v 0.3125 0.1485 -1.4671
v 0.3125 0.1955 -1.4208
v 0.4829 0.2076 -1.1658
v 0.3125 0.2056 -1.2089
v 0.5574 0.1955 -1.3365
v 0.701 0.2076 -1.0492
v 0.5754 0.1485 -1.38
v 0.3125 0.1485 -1.4671
v 0.8091 0.1955 -1.2019
v 0.8922 0.2076 -0.8922
v 0.3125 0.0514 -1.4671
v 1.0253 0.1955 -1.0251
v 0.5754 0.0514 -1.38
v 0.8353 0.1485 -1.2411
v 1.0586 0.1485 -1.0584
v 0.5574 -0.0027 -1.3365
v 0.3125 -0.0027 -1.4208
v 0.8353 0.0514 -1.2411
v 0.8091 -0.0027 -1.2019
v 1.0586 0.0514 -1.0584
v 1.0253 -0.0027 -1.0251
v -1.2411 0.0514 0.8349
v -1.2019 -0.0027 0.8087
v -1.3365 -0.0027 0.557
v -1.0253 -0.0027 1.0251
v -1.0586 0.0514 1.0584
v -1.38 0.0514 0.575
v -1.4208 -0.0027 0.3122
v -1.4671 0.0514 0.3122
v -1.2411 0.1485 0.8349
v -1.0586 0.1485 1.0584
v -1.38 0.1485 0.575
v -1.4671 0.1485 0.3122
v -1.2019 0.1955 0.8087
v -1.0253 0.1955 1.0251
v -1.3365 0.1955 0.557
v -1.4208 0.1955 0.3122
v -1.0492 0.2076 0.701
v -0.8922 0.2076 0.8922
v -1.1658 0.2076 0.4829
v -1.2089 0.2056 0.3122
v -0.9978 0.3 0.6667
v -0.8485 0.3 0.8485
v -0.8922 0.2076 0.8922
v -1.0492 0.2076 0.701
v -0.8485 1.9979 0.8485
v -1.1087 0.3 0.4592
v -1.1658 0.2076 0.4829
v -0.9978 1.9979 0.6667
v -0.949 2.1394 0.6341
v -0.8071 2.1394 0.8071
v -0.8313 2.1979 0.5554
v -0.7069 2.1979 0.7069
v -0.9237 2.1979 0.3826
v -1.1087 1.9979 0.4592
v -1.0545 2.1394 0.4368
v -1.0922 2.1394 0.3313
v -0.9567 2.1979 0.2902
v -1.1483 1.9979 0.3483
v -1.1483 0.3 0.3483
v -1.2089 0.2056 0.3122
v -1.1769 1.9979 0.2341
v -1.1194 2.1394 0.2227
v -0.9805 2.1979 0.195
v -0.9998 2.1979 0
v -1.1414 2.1394 0
v -0.9805 2.1979 -0.195
v -1.1769 0.3 0.2341
v -1.2 1.9979 0
v -1.1194 2.1394 -0.2227
v -1.1769 0.2037 0.2341
v -1.1765 -0.0074 0.3122
v -1.1769 -0.0073 0.2341
v -1.2 0.2037 0
v -1.2 -0.0073 0
v -1.2 0.3 0
v -1.1769 1.9979 -0.2341
v -1.1769 0.2037 -0.2341
v -1.1767 -0.0074 -0.2733
v -1.2089 0.2056 -0.3125
v -1.1769 0.3 -0.2341
v -1.1483 1.9979 -0.3483
v -1.0922 2.1394 -0.3313
v -0.9567 2.1979 -0.2902
v -1.1483 0.3 -0.3483
v -1.0545 2.1394 -0.4368
v -0.9237 2.1979 -0.3826
v -0.8313 2.1979 -0.5554
v -1.1087 1.9979 -0.4592
v -0.949 2.1394 -0.6341
v -0.7069 2.1979 -0.7069
v -0.8071 2.1394 -0.8071
v -1.1087 0.3 -0.4592
v -1.1658 0.2076 -0.4829
v -0.9978 1.9979 -0.6667
v -0.8485 1.9979 -0.8485
v -0.8485 0.3 -0.8485
v -0.9978 0.3 -0.6667
v -1.0492 0.2076 -0.701
v -0.8922 0.2076 -0.8922
v -1.4208 0.1955 0.3122
v -1.4671 0.1485 0.3122
v -1.4671 0.0514 0.3122
v -1.4208 -0.0027 0.3122
v -1.1765 -0.0074 0.3122
v -1.2089 0.2056 0.3122
v -1.1767 -0.0074 -0.2733
v -1.4208 0.1955 -0.3125
v -1.2089 0.2056 -0.3125
v -1.4208 -0.0027 -0.3125
v -1.4671 0.0514 -0.3125
v -1.4671 0.1485 -0.3125
v -1.4208 0.1955 -0.3125
v -1.1658 0.2076 -0.4829
v -1.2089 0.2056 -0.3125
v -1.3365 0.1955 -0.5574
v -1.0492 0.2076 -0.701
v -1.38 0.1485 -0.5754
v -1.4671 0.1485 -0.3125
v -1.2019 0.1955 -0.8091
v -0.8922 0.2076 -0.8922
v -1.4671 0.0514 -0.3125
v -1.0251 0.1955 -1.0253
v -1.38 0.0514 -0.5754
v -1.2411 0.1485 -0.8353
v -1.0584 0.1485 -1.0586
v -1.3365 -0.0027 -0.5574
v -1.4208 -0.0027 -0.3125
v -1.2411 0.0514 -0.8353
v -1.2019 -0.0027 -0.8091
v -1.0418 0.0243 -1.0419
v 0.8349 0.0514 1.2411
v 0.8087 -0.0027 1.2019
v 0.557 -0.0027 1.3365
v 1.0251 -0.0027 1.0253
v 1.0584 0.0514 1.0586
v 0.575 0.0514 1.38
v 0.3122 -0.0027 1.4208
v 0.3122 0.0514 1.4671
v 0.8349 0.1485 1.2411
v 1.0584 0.1485 1.0586
v 0.575 0.1485 1.38
v 0.3122 0.1485 1.4671
v 0.8087 0.1955 1.2019
v 1.0251 0.1955 1.0253
v 0.557 0.1955 1.3365
v 0.3122 0.1955 1.4208
v 0.701 0.2076 1.0492
v 0.8922 0.2076 0.8922
v 0.4829 0.2076 1.1658
v 0.3122 0.2056 1.2089
v 0.3122 0.1955 1.4208
v 0.3122 0.1485 1.4671
v 0.3122 0.0514 1.4671
v 0.3122 -0.0027 1.4208
v 0.3122 -0.0074 1.1765
v 0.3122 0.2056 1.2089
v -0.3125 -0.0074 1.1765
v -0.3125 0.1955 1.4208
v -0.3125 0.2056 1.2089
v -0.3125 -0.0027 1.4208
v -0.3125 0.0514 1.4671
v -0.3125 0.1485 1.4671
v -0.3125 0.1955 1.4208
v -0.4829 0.2076 1.1658
v -0.3125 0.2056 1.2089
v -0.5574 0.1955 1.3365
v -0.701 0.2076 1.0492
v -0.5754 0.1485 1.38
v -0.3125 0.1485 1.4671
v -0.8091 0.1955 1.2019
v -0.8922 0.2076 0.8922
v -0.3125 0.0514 1.4671
v -1.0253 0.1955 1.0251
v -0.5754 0.0514 1.38
v -0.8353 0.1485 1.2411
v -1.0586 0.1485 1.0584
v -0.5574 -0.0027 1.3365
v -0.3125 -0.0027 1.4208
v -0.8353 0.0514 1.2411
v -0.8091 -0.0027 1.2019
v -1.0586 0.0514 1.0584
v -1.0253 -0.0027 1.0251
v 1.2411 0.0514 -0.8349
v 1.2019 -0.0027 -0.8087
v 1.3365 -0.0027 -0.557
v 1.0253 -0.0027 -1.0251
v 1.0586 0.0514 -1.0584
v 1.38 0.0514 -0.575
v 1.4208 -0.0027 -0.3122
v 1.4671 0.0514 -0.3122
v 1.2411 0.1485 -0.8349
v 1.0586 0.1485 -1.0584
v 1.38 0.1485 -0.575
v 1.4671 0.1485 -0.3122
v 1.2019 0.1955 -0.8087
v 1.0253 0.1955 -1.0251
v 1.3365 0.1955 -0.557
v 1.4208 0.1955 -0.3122
v 1.0492 0.2076 -0.701
v 0.8922 0.2076 -0.8922
v 1.1658 0.2076 -0.4829
v 1.2089 0.2056 -0.3122
v 0.9978 0.3 -0.6667
v 0.8485 0.3 -0.8485
v 0.8922 0.2076 -0.8922
v 1.0492 0.2076 -0.701
v 0.8485 1.9979 -0.8485
v 1.1087 0.3 -0.4592
v 1.1658 0.2076 -0.4829
v 0.9978 1.9979 -0.6667
v 0.949 2.1394 -0.6341
v 0.8071 2.1394 -0.8071
v 0.8313 2.1979 -0.5554
v 0.7069 2.1979 -0.7069
v 0.9237 2.1979 -0.3826
v 1.1087 1.9979 -0.4592
v 1.0545 2.1394 -0.4368
v 1.0922 2.1394 -0.3313
v 0.9567 2.1979 -0.2902
v 1.1483 1.9979 -0.3483
v 1.1483 0.3 -0.3483
v 1.2089 0.2056 -0.3122
v 1.1769 1.9979 -0.2341
v 1.1194 2.1394 -0.2227
v 0.9805 2.1979 -0.195
v 0.9998 2.1979 -0
v 1.1414 2.1394 -0
v 0.9805 2.1979 0.195
v 1.1769 0.3 -0.2341
v 1.2 1.9979 -0
v 1.1194 2.1394 0.2227
v 1.1769 0.2037 -0.2341
v 1.1765 -0.0074 -0.3122
v 1.1769 -0.0073 -0.2341
v 1.2 0.2037 -0
v 1.2 -0.0073 -0
v 1.2 0.3 -0
v 1.1769 1.9979 0.2341
v 1.1769 0.2037 0.2341
v 1.1769 -0.0073 0.2341
v 1.1769 0.3 0.2341
v 1.2089 0.2056 0.3125
v 1.1765 -0.0074 0.3125
v 1.1483 1.9979 0.3483
v 1.0922 2.1394 0.3313
v 0.9567 2.1979 0.2902
v 1.1483 0.3 0.3483
v 1.0545 2.1394 0.4368
v 0.9237 2.1979 0.3826
v 0.8313 2.1979 0.5554
v 1.1087 1.9979 0.4592
v 0.949 2.1394 0.6341
v 0.7069 2.1979 0.7069
v 0.8071 2.1394 0.8071
v 1.1087 0.3 0.4592
v 1.1658 0.2076 0.4829
v 0.9978 1.9979 0.6667
v 0.8485 1.9979 0.8485
v 0.8485 0.3 0.8485
v 0.9978 0.3 0.6667
v 1.0492 0.2076 0.701
v 0.8922 0.2076 0.8922
v 1.4208 0.1955 -0.3122
v 1.4671 0.1485 -0.3122
v 1.4671 0.0514 -0.3122
v 1.4208 -0.0027 -0.3122
v 1.1765 -0.0074 -0.3122
v 1.2089 0.2056 -0.3122
v 1.1765 -0.0074 0.3125
v 1.4208 0.1955 0.3125
v 1.2089 0.2056 0.3125
v 1.4208 -0.0027 0.3125
v 1.4671 0.0514 0.3125
v 1.4671 0.1485 0.3125
v 1.4208 0.1955 0.3125
v 1.1658 0.2076 0.4829
v 1.2089 0.2056 0.3125
v 1.3365 0.1955 0.5574
v 1.0492 0.2076 0.701
v 1.38 0.1485 0.5754
v 1.4671 0.1485 0.3125
v 1.2019 0.1955 0.8091
v 0.8922 0.2076 0.8922
v 1.4671 0.0514 0.3125
v 1.0251 0.1955 1.0253
v 1.38 0.0514 0.5754
v 1.2411 0.1485 0.8353
v 1.0584 0.1485 1.0586
v 1.3365 -0.0027 0.5574
v 1.4208 -0.0027 0.3125
v 1.2411 0.0514 0.8353
v 1.2019 -0.0027 0.8091
v 1.0584 0.0514 1.0586
v 1.0251 -0.0027 1.0253
vt 0.5892 0.08280003
vt 0.5892 0.06400001
vt 0.5892 0.043500006
vt 0.5892 0.040899992
vt 0.5892 0.086899996
vt 0.5892 0.1257
vt 0.5 0.77920002
vt 0.6587 0.61940002
vt 0.6093 0.6016
vt 0.6812 0.5844
vt 0.7306 0.6117
vt 0.702 0.6433
vt 0.7424 0.57380003
vt 0.7375 0.6724
vt 0.7639 0.70569998
vt 0.7733 0.7234
vt 0.7802 0.7417
vt 0.7856 0.77920002
vt 0.7802 0.81669998
vt 0.7733 0.83499998
vt 0.7639 0.85280001
vt 0.7375 0.88599998
vt 0.702 0.91509998
vt 0.6587 0.93900001
vt 0.6093 0.956799984
vt 0.5557 0.967700005
vt 0.5 0.971400023
vt 0.4443 0.967700005
vt 0.3907 0.956799984
vt 0.3413 0.93900001
vt 0.298 0.91509998
vt 0.2625 0.88599998
vt 0.2361 0.85280001
vt 0.2267 0.83499998
vt 0.2198 0.81669998
vt 0.2144 0.77920002
vt 0.2198 0.7417
vt 0.2267 0.7234
vt 0.2361 0.70569998
vt 0.2625 0.6724
vt 0.298 0.6433
vt 0.3413 0.61940002
vt 0.3188 0.5844
vt 0.2694 0.6117
vt 0.3907 0.6016
vt 0.3095 0.54509997
vt 0.2576 0.57380003
vt 0.2576 0.21490002
vt 0.3752 0.56410003
vt 0.2997 0.15680003
vt 0.2451 0.18700004
vt 0.4171 0.59530002
vt 0.3095 0.18620002
vt 0.362 0.13440001
vt 0.3688 0.52380002
vt 0.3688 0.1649
vt 0.4107 0.1257
vt 0.4053 0.5568
vt 0.4005 0.1573
vt 0.4005 0.5162
vt 0.4443 0.59069997
vt 0.4364 0.55159998
vt 0.4331 0.15180004
vt 0.4331 0.5107
vt 0.4331 0.08679998
vt 0.4107 0.086899996
vt 0.4331 0.13139999
vt 0.5 0.082400024
vt 0.5 0.12699997
vt 0.5669 0.08679998
vt 0.5 0.14740002
vt 0.5 0.50620002
vt 0.5 0.5474
vt 0.5669 0.15180004
vt 0.5669 0.13139999
vt 0.5892 0.1257
vt 0.5892 0.086899996
vt 0.5669 0.5107
vt 0.5995 0.1573
vt 0.638 0.13440001
vt 0.5 0.587
vt 0.6312 0.1649
vt 0.7003 0.15680003
vt 0.5636 0.55159998
vt 0.5557 0.59069997
vt 0.5829 0.59530002
vt 0.5947 0.5568
vt 0.6248 0.56410003
vt 0.5995 0.5162
vt 0.6312 0.52380002
vt 0.6905 0.54509997
vt 0.6905 0.18620002
vt 0.7424 0.21490002
vt 0.7549 0.18700004
vt 0.7385 0.086899996
vt 0.7311 0.083000004
vt 0.6591 0.057099998
vt 0.7989 0.120299995
vt 0.6643 0.060199976
vt 0.5892 0.040899992
vt 0.5892 0.043500006
vt 0.7385 0.1074
vt 0.8036 0.14340001
vt 0.6643 0.08069998
vt 0.5892 0.06400001
vt 0.7311 0.12489998
vt 0.7941 0.15970004
vt 0.6591 0.09899998
vt 0.5892 0.08280003
vt 0.7003 0.15680003
vt 0.7549 0.18700004
vt 0.638 0.13440001
vt 0.5892 0.1257
vt 0.6905 0.18620002
vt 0.7424 0.21490002
vt 0.7549 0.18700004
vt 0.7003 0.15680003
vt 0.7424 0.57380003
vt 0.6312 0.1649
vt 0.638 0.13440001
vt 0.6905 0.54509997
vt 0.6812 0.5844
vt 0.7306 0.6117
vt 0.6587 0.61940002
vt 0.702 0.6433
vt 0.6093 0.6016
vt 0.6312 0.52380002
vt 0.6248 0.56410003
vt 0.5947 0.5568
vt 0.5829 0.59530002
vt 0.5995 0.5162
vt 0.5995 0.1573
vt 0.5892 0.1257
vt 0.5669 0.5107
vt 0.5636 0.55159998
vt 0.5557 0.59069997
vt 0.5 0.587
vt 0.5 0.5474
vt 0.4443 0.59069997
vt 0.5669 0.15180004
vt 0.5 0.50620002
vt 0.4364 0.55159998
vt 0.5669 0.13139999
vt 0.5892 0.086899996
vt 0.5669 0.08679998
vt 0.5 0.12699997
vt 0.5 0.082400024
vt 0.5 0.14740002
vt 0.4331 0.5107
vt 0.4331 0.13139999
vt 0.4331 0.08679998
vt 0.4331 0.15180004
vt 0.4107 0.1257
vt 0.4107 0.086899996
vt 0.4005 0.5162
vt 0.4053 0.5568
vt 0.4171 0.59530002
vt 0.4005 0.1573
vt 0.3752 0.56410003
vt 0.3907 0.6016
vt 0.3413 0.61940002
vt 0.3688 0.52380002
vt 0.3188 0.5844
vt 0.298 0.6433
vt 0.2694 0.6117
vt 0.3688 0.1649
vt 0.362 0.13440001
vt 0.3095 0.54509997
vt 0.2576 0.57380003
vt 0.2576 0.21490002
vt 0.3095 0.18620002
vt 0.2997 0.15680003
vt 0.2451 0.18700004
vt 0.4107 0.086899996
vt 0.4107 0.08280003
vt 0.4107 0.1257
vt 0.4107 0.040899992
vt 0.4107 0.043500006
vt 0.4107 0.06400001
vt 0.4107 0.08280003
vt 0.362 0.13440001
vt 0.4107 0.1257
vt 0.3408 0.09899998
vt 0.2997 0.15680003
vt 0.3356 0.08069998
vt 0.4107 0.06400001
vt 0.2688 0.12489998
vt 0.2451 0.18700004
vt 0.4107 0.043500006
vt 0.2058 0.15970004
vt 0.3356 0.060199976
vt 0.2614 0.1074
vt 0.1963 0.14340001
vt 0.3408 0.057099998
vt 0.4107 0.040899992
vt 0.2614 0.086899996
vt 0.2688 0.083000004
vt 0.1963 0.12279999
vt 0.2058 0.1178
vt 0.7385 0.086899996
vt 0.7311 0.083000004
vt 0.6591 0.057099998
vt 0.7941 0.1178
vt 0.8036 0.12279999
vt 0.6643 0.060199976
vt 0.5892 0.040899992
vt 0.5892 0.043500006
vt 0.7385 0.1074
vt 0.8036 0.14340001
vt 0.6643 0.08069998
vt 0.5892 0.06400001
vt 0.7311 0.12489998
vt 0.7941 0.15970004
vt 0.6591 0.09899998
vt 0.5892 0.08280003
vt 0.7003 0.15680003
vt 0.7549 0.18700004
vt 0.638 0.13440001
vt 0.5892 0.1257
vt 0.6905 0.18620002
vt 0.7424 0.21490002
vt 0.7549 0.18700004
vt 0.7003 0.15680003
vt 0.7424 0.57380003
vt 0.6312 0.1649
vt 0.638 0.13440001
vt 0.6905 0.54509997
vt 0.6812 0.5844
vt 0.7306 0.6117
vt 0.6587 0.61940002
vt 0.702 0.6433
vt 0.6093 0.6016
vt 0.6312 0.52380002
vt 0.6248 0.56410003
vt 0.5947 0.5568
vt 0.5829 0.59530002
vt 0.5995 0.5162
vt 0.5995 0.1573
vt 0.5892 0.1257
vt 0.5669 0.5107
vt 0.5636 0.55159998
vt 0.5557 0.59069997
vt 0.5 0.587
vt 0.5 0.5474
vt 0.4443 0.59069997
vt 0.5669 0.15180004
vt 0.5 0.50620002
vt 0.4364 0.55159998
vt 0.5669 0.13139999
vt 0.5892 0.086899996
vt 0.5669 0.08679998
vt 0.5 0.12699997
vt 0.5 0.082400024
vt 0.5 0.14740002
vt 0.4331 0.5107
vt 0.4331 0.13139999
vt 0.4219 0.086899996
vt 0.4107 0.1257
vt 0.4331 0.15180004
vt 0.4005 0.5162
vt 0.4053 0.5568
vt 0.4171 0.59530002
vt 0.4005 0.1573
vt 0.3752 0.56410003
vt 0.3907 0.6016
vt 0.3413 0.61940002
vt 0.3688 0.52380002
vt 0.3188 0.5844
vt 0.298 0.6433
vt 0.2694 0.6117
vt 0.3688 0.1649
vt 0.362 0.13440001
vt 0.3095 0.54509997
vt 0.2576 0.57380003
vt 0.2576 0.21490002
vt 0.3095 0.18620002
vt 0.2997 0.15680003
vt 0.2451 0.18700004
vt 0.5892 0.08280003
vt 0.5892 0.06400001
vt 0.5892 0.043500006
vt 0.5892 0.040899992
vt 0.5892 0.086899996
vt 0.5892 0.1257
vt 0.4219 0.086899996
vt 0.4107 0.08280003
vt 0.4107 0.1257
vt 0.4107 0.040899992
vt 0.4107 0.043500006
vt 0.4107 0.06400001
vt 0.4107 0.08280003
vt 0.362 0.13440001
vt 0.4107 0.1257
vt 0.3408 0.09899998
vt 0.2997 0.15680003
vt 0.3356 0.08069998
vt 0.4107 0.06400001
vt 0.2688 0.12489998
vt 0.2451 0.18700004
vt 0.4107 0.043500006
vt 0.2058 0.15970004
vt 0.3356 0.060199976
vt 0.2614 0.1074
vt 0.1963 0.14340001
vt 0.3408 0.057099998
vt 0.4107 0.040899992
vt 0.2614 0.086899996
vt 0.2688 0.083000004
vt 0.201 0.120299995
vt 0.7385 0.086899996
vt 0.7311 0.083000004
vt 0.6591 0.057099998
vt 0.7941 0.1178
vt 0.8036 0.12279999
vt 0.6643 0.060199976
vt 0.5892 0.040899992
vt 0.5892 0.043500006
vt 0.7385 0.1074
vt 0.8036 0.14340001
vt 0.6643 0.08069998
vt 0.5892 0.06400001
vt 0.7311 0.12489998
vt 0.7941 0.15970004
vt 0.6591 0.09899998
vt 0.5892 0.08280003
vt 0.7003 0.15680003
vt 0.7549 0.18700004
vt 0.638 0.13440001
vt 0.5892 0.1257
vt 0.5892 0.08280003
vt 0.5892 0.06400001
vt 0.5892 0.043500006
vt 0.5892 0.040899992
vt 0.5892 0.086899996
vt 0.5892 0.1257
vt 0.4107 0.086899996
vt 0.4107 0.08280003
vt 0.4107 0.1257
vt 0.4107 0.040899992
vt 0.4107 0.043500006
vt 0.4107 0.06400001
vt 0.4107 0.08280003
vt 0.362 0.13440001
vt 0.4107 0.1257
vt 0.3408 0.09899998
vt 0.2997 0.15680003
vt 0.3356 0.08069998
vt 0.4107 0.06400001
vt 0.2688 0.12489998
vt 0.2451 0.18700004
vt 0.4107 0.043500006
vt 0.2058 0.15970004
vt 0.3356 0.060199976
vt 0.2614 0.1074
vt 0.1963 0.14340001
vt 0.3408 0.057099998
vt 0.4107 0.040899992
vt 0.2614 0.086899996
vt 0.2688 0.083000004
vt 0.1963 0.12279999
vt 0.2058 0.1178
vt 0.7385 0.086899996
vt 0.7311 0.083000004
vt 0.6591 0.057099998
vt 0.7941 0.1178
vt 0.8036 0.12279999
vt 0.6643 0.060199976
vt 0.5892 0.040899992
vt 0.5892 0.043500006
vt 0.7385 0.1074
vt 0.8036 0.14340001
vt 0.6643 0.08069998
vt 0.5892 0.06400001
vt 0.7311 0.12489998
vt 0.7941 0.15970004
vt 0.6591 0.09899998
vt 0.5892 0.08280003
vt 0.7003 0.15680003
vt 0.7549 0.18700004
vt 0.638 0.13440001
vt 0.5892 0.1257
vt 0.6905 0.18620002
vt 0.7424 0.21490002
vt 0.7549 0.18700004
vt 0.7003 0.15680003
vt 0.7424 0.57380003
vt 0.6312 0.1649
vt 0.638 0.13440001
vt 0.6905 0.54509997
vt 0.6812 0.5844
vt 0.7306 0.6117
vt 0.6587 0.61940002
vt 0.702 0.6433
vt 0.6093 0.6016
vt 0.6312 0.52380002
vt 0.6248 0.56410003
vt 0.5947 0.5568
vt 0.5829 0.59530002
vt 0.5995 0.5162
vt 0.5995 0.1573
vt 0.5892 0.1257
vt 0.5669 0.5107
vt 0.5636 0.55159998
vt 0.5557 0.59069997
vt 0.5 0.587
vt 0.5 0.5474
vt 0.4443 0.59069997
vt 0.5669 0.15180004
vt 0.5 0.50620002
vt 0.4364 0.55159998
vt 0.5669 0.13139999
vt 0.5892 0.086899996
vt 0.5669 0.08679998
vt 0.5 0.12699997
vt 0.5 0.082400024
vt 0.5 0.14740002
vt 0.4331 0.5107
vt 0.4331 0.13139999
vt 0.4331 0.08679998
vt 0.4331 0.15180004
vt 0.4107 0.1257
vt 0.4107 0.086899996
vt 0.4005 0.5162
vt 0.4053 0.5568
vt 0.4171 0.59530002
vt 0.4005 0.1573
vt 0.3752 0.56410003
vt 0.3907 0.6016
vt 0.3413 0.61940002
vt 0.3688 0.52380002
vt 0.3188 0.5844
vt 0.298 0.6433
vt 0.2694 0.6117
vt 0.3688 0.1649
vt 0.362 0.13440001
vt 0.3095 0.54509997
vt 0.2576 0.57380003
vt 0.2576 0.21490002
vt 0.3095 0.18620002
vt 0.2997 0.15680003
vt 0.2451 0.18700004
vt 0.5892 0.08280003
vt 0.5892 0.06400001
vt 0.5892 0.043500006
vt 0.5892 0.040899992
vt 0.5892 0.086899996
vt 0.5892 0.1257
vt 0.4107 0.086899996
vt 0.4107 0.08280003
vt 0.4107 0.1257
vt 0.4107 0.040899992
vt 0.4107 0.043500006
vt 0.4107 0.06400001
vt 0.4107 0.08280003
vt 0.362 0.13440001
vt 0.4107 0.1257
vt 0.3408 0.09899998
vt 0.2997 0.15680003
vt 0.3356 0.08069998
vt 0.4107 0.06400001
vt 0.2688 0.12489998
vt 0.2451 0.18700004
vt 0.4107 0.043500006
vt 0.2058 0.15970004
vt 0.3356 0.060199976
vt 0.2614 0.1074
vt 0.1963 0.14340001
vt 0.3408 0.057099998
vt 0.4107 0.040899992
vt 0.2614 0.086899996
vt 0.2688 0.083000004
vt 0.1963 0.12279999
vt 0.2058 0.1178
vn 1 -0 -0
vn 1 0 -0
vn 1 0 -0
vn 1 0 -0
vn 1 -0 -0
vn 1 -0 -0
vn 0 1 -0
vn 0.1147 0.9784 0.1717
vn 0.0828 0.979 0.1861
vn 0.3991 0.6957 0.5973
vn 0.508 0.6957 0.508
vn 0.146 0.9784 0.146
vn 0.6938 0.193 0.6938
vn 0.1717 0.9784 0.1147
vn 0.1861 0.979 0.0828
vn 0.1921 0.9796 0.0583
vn 0.2007 0.979 0.0346
vn 0.2065 0.9784 0
vn 0.2007 0.979 -0.0346
vn 0.1921 0.9796 -0.0583
vn 0.1861 0.979 -0.0828
vn 0.1717 0.9784 -0.1147
vn 0.146 0.9784 -0.146
vn 0.1147 0.9784 -0.1717
vn 0.0834 0.9787 -0.1876
vn 0.0349 0.9787 -0.2023
vn 0 0.9784 -0.2065
vn -0.0349 0.9787 -0.2023
vn -0.0834 0.9787 -0.1876
vn -0.1147 0.9784 -0.1717
vn -0.146 0.9784 -0.146
vn -0.1717 0.9784 -0.1147
vn -0.1861 0.979 -0.0828
vn -0.1921 0.9796 -0.0583
vn -0.2007 0.979 -0.0346
vn -0.2065 0.9784 0
vn -0.2007 0.979 0.0346
vn -0.1921 0.9796 0.0583
vn -0.1861 0.979 0.0828
vn -0.1717 0.9784 0.1147
vn -0.146 0.9784 0.146
vn -0.1147 0.9784 0.1717
vn -0.3991 0.6957 0.5973
vn -0.508 0.6957 0.508
vn -0.0828 0.979 0.1861
vn -0.5451 0.193 0.8158
vn -0.6938 0.193 0.6938
vn -0.6755 0.2957 0.6755
vn -0.29 0.6985 0.6542
vn -0.4618 0.556 0.6911
vn -0.5877 0.556 0.5877
vn -0.0583 0.9796 0.1921
vn -0.5307 0.2957 0.7943
vn -0.2975 0.5559 0.7762
vn -0.3974 0.1935 0.897
vn -0.3749 0.2822 0.8831
vn 0.0647 0.2346 0.97
vn -0.2069 0.7015 0.682
vn -0.289 0.2295 0.9294
vn -0.2848 0.1941 0.9387
vn -0.0346 0.979 0.2007
vn -0.1223 0.6985 0.7051
vn -0.1009 0.0752 0.992
vn -0.1679 0.1935 0.9666
vn -0.0055 -0.0587 0.9983
vn -0.0049 -0.1501 0.9887
vn 0.1439 0 0.9896
vn 0 0 1
vn 0 -0 1
vn 0.0055 -0.0588 0.9983
vn 0 -0 1
vn 0 0.193 0.9812
vn 0 0.6957 0.7184
vn 0.171 0 0.9853
vn -0.0582 0.0852 0.9947
vn -0.1843 0.3693 0.9108
vn 0.0049 -0.1501 0.9887
vn 0.1679 0.1935 0.9666
vn 0.225 0.2248 0.9481
vn 0.3219 0.5373 0.7796
vn -0 0.9784 0.2065
vn 0.3876 0.2943 0.8736
vn 0.4618 0.556 0.6911
vn 0.1223 0.6985 0.7051
vn 0.0346 0.979 0.2007
vn 0.0583 0.9796 0.1921
vn 0.2069 0.7015 0.682
vn 0.29 0.6985 0.6542
vn 0.2848 0.1941 0.9387
vn 0.3974 0.1935 0.897
vn 0.5451 0.193 0.8158
vn 0.5307 0.2957 0.7943
vn 0.6755 0.2957 0.6755
vn 0.5877 0.556 0.5877
vn -0.5425 -0.3324 -0.7715
vn -0.4154 -0.6573 -0.6288
vn -0.3018 -0.6572 -0.6907
vn -0.6713 -0.2424 -0.7004
vn -0.3719 -0.3435 -0.8624
vn -0.2442 -0.6346 -0.7332
vn -0.2988 -0.3111 -0.9022
vn -0.5304 0.3638 -0.7657
vn -0.6652 0.2957 -0.6857
vn -0.3653 0.3758 -0.8517
vn -0.299 0.3405 -0.8915
vn -0.2383 0.903 -0.3576
vn -0.3041 0.9027 -0.3043
vn -0.1694 0.9038 -0.393
vn -0.1568 0.8713 -0.4651
vn -0.0356 0.9979 -0.0536
vn -0.0453 0.9979 -0.0453
vn -0.0212 0.9982 -0.0563
vn 0.0001 0.9989 -0.0472
vn -0.5307 0.2957 -0.7943
vn -0.6755 0.2957 -0.6755
vn -0.5877 0.556 -0.5877
vn -0.4618 0.556 -0.6911
vn -0.6938 0.193 -0.6938
vn -0.3876 0.2943 -0.8736
vn -0.3219 0.5373 -0.7796
vn -0.5451 0.193 -0.8158
vn -0.3991 0.6957 -0.5973
vn -0.508 0.6957 -0.508
vn -0.1147 0.9784 -0.1717
vn -0.146 0.9784 -0.146
vn -0.0834 0.9787 -0.1876
vn -0.3974 0.1935 -0.897
vn -0.29 0.6985 -0.6542
vn -0.2069 0.7015 -0.682
vn -0.111 0.924 -0.3658
vn -0.2848 0.1941 -0.9387
vn -0.225 0.2248 -0.9481
vn 0.1843 0.3693 -0.9108
vn -0.1679 0.1935 -0.9666
vn -0.1223 0.6985 -0.7051
vn -0.0349 0.9787 -0.2023
vn 0 0.9784 -0.2065
vn -0 0.6957 -0.7184
vn 0.0349 0.9787 -0.2023
vn -0.171 0 -0.9853
vn -0 0.193 -0.9812
vn 0.1223 0.6985 -0.7051
vn 0.0582 0.0852 -0.9947
vn -0.0049 -0.1501 -0.9887
vn -0.0055 -0.0588 -0.9983
vn -0 -0 -1
vn -0 0 -1
vn -0 -0 -1
vn 0.1679 0.1935 -0.9666
vn -0.1439 0 -0.9896
vn 0.0055 -0.0587 -0.9983
vn 0.1009 0.0752 -0.992
vn -0.0647 0.2346 -0.97
vn 0.0049 -0.1501 -0.9887
vn 0.2848 0.1941 -0.9387
vn 0.2069 0.7015 -0.682
vn 0.111 0.924 -0.3658
vn 0.289 0.2295 -0.9294
vn 0.29 0.6985 -0.6542
vn 0.0834 0.9787 -0.1876
vn 0.1147 0.9784 -0.1717
vn 0.3974 0.1935 -0.897
vn 0.3991 0.6957 -0.5973
vn 0.146 0.9784 -0.146
vn 0.508 0.6957 -0.508
vn 0.3749 0.2822 -0.8831
vn 0.2975 0.5559 -0.7762
vn 0.5451 0.193 -0.8158
vn 0.6938 0.193 -0.6938
vn 0.6755 0.2957 -0.6755
vn 0.5307 0.2957 -0.7943
vn 0.4618 0.556 -0.6911
vn 0.5877 0.556 -0.5877
vn -1 0 0
vn -1 0 0
vn -1 0 0
vn -1 0 0
vn -1 0 -0
vn -1 0 -0
vn 0.151 0.8733 -0.4632
vn 0.0211 0.9982 -0.0563
vn -0.0001 0.9989 -0.0472
vn 0.1708 0.9044 -0.3911
vn 0.0357 0.9979 -0.0536
vn 0.3671 0.3746 -0.8514
vn 0.2957 0.3386 -0.8933
vn 0.2385 0.9029 -0.3575
vn 0.0453 0.9979 -0.0453
vn 0.302 -0.3132 -0.9004
vn 0.3043 0.9027 -0.3041
vn 0.3699 -0.3448 -0.8627
vn 0.5144 0.3748 -0.7713
vn 0.6559 0.3746 -0.6553
vn 0.2989 -0.6552 -0.6939
vn 0.253 -0.6292 -0.7349
vn 0.521 -0.344 -0.7811
vn 0.4182 -0.6573 -0.627
vn 0.6643 -0.3438 -0.6637
vn 0.5331 -0.6573 -0.5327
vn -0.7814 -0.344 0.5207
vn -0.6272 -0.6573 0.4179
vn -0.6907 -0.6572 0.3018
vn -0.5331 -0.6573 0.5327
vn -0.6643 -0.3438 0.6637
vn -0.8624 -0.3435 0.3719
vn -0.7332 -0.6346 0.2442
vn -0.9022 -0.3111 0.2988
vn -0.7715 0.3749 0.5141
vn -0.6559 0.3746 0.6553
vn -0.8517 0.3758 0.3653
vn -0.8915 0.3405 0.299
vn -0.3576 0.903 0.2383
vn -0.3043 0.9027 0.3041
vn -0.393 0.9038 0.1694
vn -0.4651 0.8713 0.1568
vn -0.0536 0.9979 0.0356
vn -0.0453 0.9979 0.0453
vn -0.0563 0.9982 0.0212
vn -0.0472 0.9989 -0.0001
vn -0.7943 0.2957 0.5307
vn -0.6755 0.2957 0.6755
vn -0.5877 0.556 0.5877
vn -0.6911 0.556 0.4618
vn -0.6938 0.193 0.6938
vn -0.8736 0.2943 0.3876
vn -0.7796 0.5373 0.3219
vn -0.8158 0.193 0.5451
vn -0.5973 0.6957 0.3991
vn -0.508 0.6957 0.508
vn -0.1717 0.9784 0.1147
vn -0.146 0.9784 0.146
vn -0.1861 0.979 0.0828
vn -0.897 0.1935 0.3974
vn -0.6542 0.6985 0.29
vn -0.682 0.7015 0.2069
vn -0.1921 0.9796 0.0583
vn -0.9387 0.1941 0.2848
vn -0.9481 0.2248 0.225
vn -0.9108 0.3693 -0.1843
vn -0.9666 0.1935 0.1679
vn -0.7051 0.6985 0.1223
vn -0.2007 0.979 0.0346
vn -0.2065 0.9784 0
vn -0.7184 0.6957 0
vn -0.2007 0.979 -0.0346
vn -0.9853 0 0.171
vn -0.9812 0.193 0
vn -0.7051 0.6985 -0.1223
vn -0.9947 0.0852 -0.0582
vn -0.9887 -0.1501 0.0049
vn -0.9983 -0.0588 0.0055
vn -1 -0 0
vn -1 0.0035 0.0031
vn -1 -0 0
vn -0.9666 0.1935 -0.1679
vn -0.9912 -0.0139 0.1318
vn -0.9998 -0.0041 0.0169
vn -0.9682 0.2362 0.0825
vn -0.992 0.0752 -0.1009
vn -0.9387 0.1941 -0.2848
vn -0.682 0.7015 -0.2069
vn -0.1921 0.9796 -0.0583
vn -0.9294 0.2295 -0.289
vn -0.6542 0.6985 -0.29
vn -0.1861 0.979 -0.0828
vn -0.1717 0.9784 -0.1147
vn -0.897 0.1935 -0.3974
vn -0.5973 0.6957 -0.3991
vn -0.146 0.9784 -0.146
vn -0.508 0.6957 -0.508
vn -0.8831 0.2822 -0.3749
vn -0.7762 0.5559 -0.2975
vn -0.8158 0.193 -0.5451
vn -0.6938 0.193 -0.6938
vn -0.6755 0.2957 -0.6755
vn -0.7943 0.2957 -0.5307
vn -0.6911 0.556 -0.4618
vn -0.5877 0.556 -0.5877
vn -0 0 -1
vn -0 0 -1
vn -0 0 -1
vn -0 0 -1
vn -0 0 -1
vn -0 0 -1
vn -0.0812 0.0939 0.9923
vn -0.0611 0.0562 0.9965
vn -0.0085 0.1797 0.9837
vn -0.11 0 0.9939
vn 0 0 1
vn 0 0 1
vn -0.4632 0.8733 -0.151
vn -0.0563 0.9982 -0.0211
vn -0.0472 0.9989 0.0001
vn -0.3911 0.9044 -0.1708
vn -0.0536 0.9979 -0.0357
vn -0.8514 0.3746 -0.3671
vn -0.8933 0.3386 -0.2957
vn -0.3575 0.9029 -0.2385
vn -0.0453 0.9979 -0.0453
vn -0.9004 -0.3132 -0.302
vn -0.3041 0.9027 -0.3043
vn -0.8627 -0.3448 -0.3699
vn -0.7713 0.3748 -0.5144
vn -0.6652 0.2957 -0.6857
vn -0.6939 -0.6552 -0.2989
vn -0.7349 -0.6292 -0.253
vn -0.7786 -0.3439 -0.5249
vn -0.6287 -0.6573 -0.4157
vn -0.6713 -0.2424 -0.7004
vn 0.5207 -0.344 0.7814
vn 0.4179 -0.6573 0.6272
vn 0.3018 -0.6572 0.6907
vn 0.5327 -0.6573 0.5331
vn 0.6637 -0.3438 0.6643
vn 0.3719 -0.3435 0.8624
vn 0.2442 -0.6346 0.7332
vn 0.2988 -0.3111 0.9022
vn 0.5141 0.3749 0.7715
vn 0.6553 0.3746 0.6559
vn 0.3653 0.3758 0.8517
vn 0.299 0.3405 0.8915
vn 0.2383 0.903 0.3576
vn 0.3041 0.9027 0.3043
vn 0.1694 0.9038 0.393
vn 0.1568 0.8713 0.4651
vn 0.0356 0.9979 0.0536
vn 0.0453 0.9979 0.0453
vn 0.0212 0.9982 0.0563
vn -0.0001 0.9989 0.0472
vn -1 -0 0
vn -1 0 -0
vn -1 0 -0
vn -1 0 0
vn -1 -0 0
vn -1 -0 0
vn 1 0 -0
vn 1 0 -0
vn 1 0 -0
vn 1 0 -0
vn 1 0 -0
vn 1 0 -0
vn -0.151 0.8733 0.4632
vn -0.0211 0.9982 0.0563
vn 0.0001 0.9989 0.0472
vn -0.1708 0.9044 0.3911
vn -0.0357 0.9979 0.0536
vn -0.3671 0.3746 0.8514
vn -0.2957 0.3386 0.8933
vn -0.2385 0.9029 0.3575
vn -0.0453 0.9979 0.0453
vn -0.302 -0.3132 0.9004
vn -0.3043 0.9027 0.3041
vn -0.3699 -0.3448 0.8627
vn -0.5144 0.3748 0.7713
vn -0.6559 0.3746 0.6553
vn -0.2989 -0.6552 0.6939
vn -0.253 -0.6292 0.7349
vn -0.521 -0.344 0.7811
vn -0.4182 -0.6573 0.627
vn -0.6643 -0.3438 0.6637
vn -0.5331 -0.6573 0.5327
vn 0.7814 -0.344 -0.5207
vn 0.6272 -0.6573 -0.4179
vn 0.6907 -0.6572 -0.3018
vn 0.5331 -0.6573 -0.5327
vn 0.6643 -0.3438 -0.6637
vn 0.8624 -0.3435 -0.3719
vn 0.7332 -0.6346 -0.2442
vn 0.9022 -0.3111 -0.2988
vn 0.7715 0.3749 -0.5141
vn 0.6559 0.3746 -0.6553
vn 0.8517 0.3758 -0.3653
vn 0.8915 0.3405 -0.299
vn 0.3576 0.903 -0.2383
vn 0.3043 0.9027 -0.3041
vn 0.393 0.9038 -0.1694
vn 0.4651 0.8713 -0.1568
vn 0.0536 0.9979 -0.0356
vn 0.0453 0.9979 -0.0453
vn 0.0563 0.9982 -0.0212
vn 0.0472 0.9989 0.0001
vn 0.7943 0.2957 -0.5307
vn 0.6755 0.2957 -0.6755
vn 0.5877 0.556 -0.5877
vn 0.6911 0.556 -0.4618
vn 0.6938 0.193 -0.6938
vn 0.8736 0.2943 -0.3876
vn 0.7796 0.5373 -0.3219
vn 0.8158 0.193 -0.5451
vn 0.5973 0.6957 -0.3991
vn 0.508 0.6957 -0.508
vn 0.3179 0.924 -0.2124
vn 0.146 0.9784 -0.146
vn 0.1861 0.979 -0.0828
vn 0.897 0.1935 -0.3974
vn 0.6542 0.6985 -0.29
vn 0.682 0.7015 -0.2069
vn 0.3658 0.924 -0.111
vn 0.9387 0.1941 -0.2848
vn 0.9481 0.2248 -0.225
vn 0.9108 0.3693 0.1843
vn 0.9666 0.1935 -0.1679
vn 0.7051 0.6985 -0.1223
vn 0.3768 0.924 -0.0649
vn 0.2065 0.9784 0
vn 0.7184 0.6957 -0
vn 0.2007 0.979 0.0346
vn 0.9853 0 -0.171
vn 0.9812 0.193 -0
vn 0.7051 0.6985 0.1223
vn 0.9947 0.0852 0.0582
vn 0.9887 -0.1501 -0.0049
vn 0.9983 -0.0588 -0.0055
vn 1 -0 -0
vn 1 0 -0
vn 1 -0 -0
vn 0.9666 0.1935 0.1679
vn 0.9896 0 -0.1439
vn 0.9983 -0.0587 0.0055
vn 0.992 0.0752 0.1009
vn 0.97 0.2346 -0.0647
vn 0.9887 -0.1501 0.0049
vn 0.9387 0.1941 0.2848
vn 0.682 0.7015 0.2069
vn 0.1921 0.9796 0.0583
vn 0.9294 0.2295 0.289
vn 0.6542 0.6985 0.29
vn 0.1861 0.979 0.0828
vn 0.1717 0.9784 0.1147
vn 0.897 0.1935 0.3974
vn 0.5973 0.6957 0.3991
vn 0.146 0.9784 0.146
vn 0.508 0.6957 0.508
vn 0.8831 0.2822 0.3749
vn 0.7762 0.5559 0.2975
vn 0.8158 0.193 0.5451
vn 0.6938 0.193 0.6938
vn 0.6755 0.2957 0.6755
vn 0.7943 0.2957 0.5307
vn 0.6911 0.556 0.4618
vn 0.5877 0.556 0.5877
vn 0 0 1
vn 0 0 1
vn 0 0 1
vn 0 0 1
vn 0 0 1
vn 0 0 1
vn -0 -0 -1
vn -0 -0 -1
vn -0 -0 -1
vn -0 0 -1
vn -0 0 -1
vn -0 0 -1
vn 0.4632 0.8733 0.151
vn 0.0563 0.9982 0.0211
vn 0.0472 0.9989 -0.0001
vn 0.3911 0.9044 0.1708
vn 0.0536 0.9979 0.0357
vn 0.8514 0.3746 0.3671
vn 0.8933 0.3386 0.2957
vn 0.3575 0.9029 0.2385
vn 0.0453 0.9979 0.0453
vn 0.9004 -0.3132 0.302
vn 0.3041 0.9027 0.3043
vn 0.8627 -0.3448 0.3699
vn 0.7713 0.3748 0.5144
vn 0.6553 0.3746 0.6559
vn 0.6939 -0.6552 0.2989
vn 0.7349 -0.6292 0.253
vn 0.7811 -0.344 0.521
vn 0.627 -0.6573 0.4182
vn 0.6637 -0.3438 0.6643
vn 0.5327 -0.6573 0.5331
f 3/3/3 2/2/2 1/1/1
f 4/4/4 3/3/3 1/1/1
f 4/4/4 1/1/1 5/5/5
f 1/1/1 6/6/6 5/5/5
f 9/9/9 8/8/8 7/7/7
f 10/10/10 8/8/8 9/9/9
f 10/10/10 11/11/11 8/8/8
f 11/11/11 12/12/12 8/8/8
f 8/8/8 12/12/12 7/7/7
f 13/13/13 11/11/11 10/10/10
f 12/12/12 14/14/14 7/7/7
f 14/14/14 15/15/15 7/7/7
f 15/15/15 16/16/16 7/7/7
f 16/16/16 17/17/17 7/7/7
f 17/17/17 18/18/18 7/7/7
f 18/18/18 19/19/19 7/7/7
f 19/19/19 20/20/20 7/7/7
f 20/20/20 21/21/21 7/7/7
f 21/21/21 22/22/22 7/7/7
f 22/22/22 23/23/23 7/7/7
f 23/23/23 24/24/24 7/7/7
f 24/24/24 25/25/25 7/7/7
f 25/25/25 26/26/26 7/7/7
f 26/26/26 27/27/27 7/7/7
f 27/27/27 28/28/28 7/7/7
f 28/28/28 29/29/29 7/7/7
f 29/29/29 30/30/30 7/7/7
f 30/30/30 31/31/31 7/7/7
f 31/31/31 32/32/32 7/7/7
f 32/32/32 33/33/33 7/7/7
f 33/33/33 34/34/34 7/7/7
f 34/34/34 35/35/35 7/7/7
f 35/35/35 36/36/36 7/7/7
f 36/36/36 37/37/37 7/7/7
f 37/37/37 38/38/38 7/7/7
f 38/38/38 39/39/39 7/7/7
f 39/39/39 40/40/40 7/7/7
f 40/40/40 41/41/41 7/7/7
f 41/41/41 42/42/42 7/7/7
f 43/43/43 42/42/42 41/41/41
f 44/44/44 43/43/43 41/41/41
f 42/42/42 45/45/45 7/7/7
f 46/46/46 43/43/43 44/44/44
f 47/47/47 46/46/46 44/44/44
f 46/46/46 47/47/47 48/48/48
f 43/43/43 49/49/49 42/42/42
f 49/49/49 45/45/45 42/42/42
f 51/51/51 50/50/50 48/48/48
f 45/45/45 49/49/49 52/52/52
f 45/45/45 52/52/52 7/7/7
f 50/50/50 53/53/53 48/48/48
f 53/53/53 46/46/46 48/48/48
f 50/50/50 54/54/54 53/53/53
f 43/43/43 46/46/46 55/55/55
f 55/55/55 46/46/46 53/53/53
f 49/49/49 43/43/43 55/55/55
f 54/54/54 56/56/56 53/53/53
f 56/56/56 55/55/55 53/53/53
f 54/54/54 57/57/57 56/56/56
f 49/49/49 55/55/55 58/58/58
f 49/49/49 58/58/58 52/52/52
f 56/56/56 59/59/59 55/55/55
f 57/57/57 59/59/59 56/56/56
f 55/55/55 60/60/60 58/58/58
f 59/59/59 60/60/60 55/55/55
f 52/52/52 58/58/58 61/61/61
f 52/52/52 61/61/61 7/7/7
f 58/58/58 60/60/60 62/62/62
f 58/58/58 62/62/62 61/61/61
f 60/60/60 59/59/59 63/63/63
f 63/63/63 59/59/59 57/57/57
f 60/60/60 64/64/64 62/62/62
f 64/64/64 60/60/60 63/63/63
f 57/57/57 66/66/66 65/65/65
f 67/67/67 57/57/57 65/65/65
f 67/67/67 63/63/63 57/57/57
f 65/65/65 68/68/68 67/67/67
f 68/68/68 69/69/69 67/67/67
f 63/63/63 67/67/67 69/69/69
f 68/68/68 70/70/70 69/69/69
f 63/63/63 71/71/71 64/64/64
f 71/71/71 63/63/63 69/69/69
f 64/64/64 72/72/72 62/62/62
f 71/71/71 72/72/72 64/64/64
f 62/62/62 73/73/73 61/61/61
f 72/72/72 73/73/73 62/62/62
f 71/71/71 69/69/69 74/74/74
f 71/71/71 74/74/74 72/72/72
f 70/70/70 75/75/75 69/69/69
f 69/69/69 75/75/75 74/74/74
f 70/70/70 77/77/77 76/76/76
f 75/75/75 70/70/70 76/76/76
f 74/74/74 78/78/78 72/72/72
f 72/72/72 78/78/78 73/73/73
f 79/79/79 74/74/74 75/75/75
f 76/76/76 79/79/79 75/75/75
f 78/78/78 74/74/74 79/79/79
f 76/76/76 80/80/80 79/79/79
f 73/73/73 81/81/81 61/61/61
f 61/61/61 81/81/81 7/7/7
f 80/80/80 82/82/82 79/79/79
f 80/80/80 83/83/83 82/82/82
f 73/73/73 84/84/84 81/81/81
f 78/78/78 84/84/84 73/73/73
f 81/81/81 85/85/85 7/7/7
f 84/84/84 85/85/85 81/81/81
f 85/85/85 86/86/86 7/7/7
f 85/85/85 84/84/84 86/86/86
f 86/86/86 9/9/9 7/7/7
f 84/84/84 87/87/87 86/86/86
f 86/86/86 87/87/87 9/9/9
f 84/84/84 78/78/78 87/87/87
f 87/87/87 88/88/88 9/9/9
f 88/88/88 10/10/10 9/9/9
f 78/78/78 89/89/89 87/87/87
f 89/89/89 78/78/78 79/79/79
f 87/87/87 89/89/89 88/88/88
f 79/79/79 82/82/82 89/89/89
f 89/89/89 90/90/90 88/88/88
f 10/10/10 88/88/88 90/90/90
f 82/82/82 90/90/90 89/89/89
f 91/91/91 10/10/10 90/90/90
f 91/91/91 90/90/90 82/82/82
f 91/91/91 13/13/13 10/10/10
f 92/92/92 91/91/91 82/82/82
f 13/13/13 91/91/91 92/92/92
f 83/83/83 92/92/92 82/82/82
f 93/93/93 13/13/13 92/92/92
f 83/83/83 94/94/94 92/92/92
f 94/94/94 93/93/93 92/92/92
f 97/97/97 96/96/96 95/95/95
f 96/96/96 98/98/98 95/95/95
f 99/99/99 97/97/97 95/95/95
f 100/100/100 97/97/97 99/99/99
f 101/101/101 100/100/100 99/99/99
f 95/95/95 98/98/98 102/102/102
f 95/95/95 102/102/102 99/99/99
f 98/98/98 103/103/103 102/102/102
f 99/99/99 104/104/104 101/101/101
f 102/102/102 104/104/104 99/99/99
f 104/104/104 105/105/105 101/101/101
f 102/102/102 103/103/103 106/106/106
f 104/104/104 102/102/102 106/106/106
f 103/103/103 107/107/107 106/106/106
f 105/105/105 104/104/104 108/108/108
f 108/108/108 104/104/104 106/106/106
f 109/109/109 105/105/105 108/108/108
f 110/110/110 106/106/106 107/107/107
f 111/111/111 110/110/110 107/107/107
f 110/110/110 112/112/112 106/106/106
f 112/112/112 108/108/108 106/106/106
f 109/109/109 108/108/108 112/112/112
f 113/113/113 109/109/109 112/112/112
f 116/116/116 115/115/115 114/114/114
f 117/117/117 116/116/116 114/114/114
f 115/115/115 118/118/118 114/114/114
f 117/117/117 114/114/114 119/119/119
f 120/120/120 117/117/117 119/119/119
f 118/118/118 121/121/121 114/114/114
f 114/114/114 121/121/121 119/119/119
f 121/121/121 118/118/118 122/122/122
f 118/118/118 123/123/123 122/122/122
f 123/123/123 125/125/125 124/124/124
f 122/122/122 123/123/123 124/124/124
f 122/122/122 124/124/124 126/126/126
f 121/121/121 122/122/122 127/127/127
f 121/121/121 127/127/127 119/119/119
f 128/128/128 122/122/122 126/126/126
f 122/122/122 128/128/128 127/127/127
f 129/129/129 128/128/128 126/126/126
f 130/130/130 129/129/129 126/126/126
f 131/131/131 127/127/127 128/128/128
f 119/119/119 127/127/127 131/131/131
f 129/129/129 131/131/131 128/128/128
f 120/120/120 119/119/119 132/132/132
f 132/132/132 119/119/119 131/131/131
f 133/133/133 120/120/120 132/132/132
f 134/134/134 131/131/131 129/129/129
f 131/131/131 134/134/134 132/132/132
f 135/135/135 129/129/129 130/130/130
f 135/135/135 134/134/134 129/129/129
f 136/136/136 135/135/135 130/130/130
f 135/135/135 136/136/136 137/137/137
f 138/138/138 135/135/135 137/137/137
f 134/134/134 135/135/135 138/138/138
f 138/138/138 137/137/137 139/139/139
f 134/134/134 140/140/140 132/132/132
f 141/141/141 134/134/134 138/138/138
f 140/140/140 134/134/134 141/141/141
f 142/142/142 138/138/138 139/139/139
f 141/141/141 138/138/138 142/142/142
f 132/132/132 140/140/140 143/143/143
f 133/133/133 132/132/132 143/143/143
f 145/145/145 144/144/144 133/133/133
f 143/143/143 145/145/145 133/133/133
f 145/145/145 143/143/143 146/146/146
f 146/146/146 143/143/143 140/140/140
f 147/147/147 145/145/145 146/146/146
f 148/148/148 140/140/140 141/141/141
f 148/148/148 146/146/146 140/140/140
f 148/148/148 141/141/141 149/149/149
f 149/149/149 141/141/141 142/142/142
f 147/147/147 146/146/146 150/150/150
f 151/151/151 147/147/147 150/150/150
f 148/148/148 152/152/152 146/146/146
f 152/152/152 150/150/150 146/146/146
f 152/152/152 148/148/148 149/149/149
f 150/150/150 153/153/153 151/151/151
f 153/153/153 154/154/154 151/151/151
f 150/150/150 152/152/152 153/153/153
f 155/155/155 149/149/149 142/142/142
f 149/149/149 155/155/155 152/152/152
f 156/156/156 142/142/142 139/139/139
f 156/156/156 155/155/155 142/142/142
f 157/157/157 156/156/156 139/139/139
f 155/155/155 158/158/158 152/152/152
f 152/152/152 158/158/158 153/153/153
f 159/159/159 156/156/156 157/157/157
f 160/160/160 159/159/159 157/157/157
f 159/159/159 160/160/160 161/161/161
f 162/162/162 155/155/155 156/156/156
f 159/159/159 162/162/162 156/156/156
f 158/158/158 155/155/155 162/162/162
f 163/163/163 159/159/159 161/161/161
f 159/159/159 163/163/163 162/162/162
f 163/163/163 161/161/161 164/164/164
f 165/165/165 163/163/163 164/164/164
f 153/153/153 158/158/158 166/166/166
f 166/166/166 158/158/158 162/162/162
f 167/167/167 153/153/153 166/166/166
f 168/168/168 163/163/163 165/165/165
f 163/163/163 168/168/168 162/162/162
f 169/169/169 168/168/168 165/165/165
f 168/168/168 169/169/169 170/170/170
f 166/166/166 162/162/162 171/171/171
f 162/162/162 168/168/168 171/171/171
f 167/167/167 166/166/166 171/171/171
f 171/171/171 168/168/168 170/170/170
f 172/172/172 167/167/167 171/171/171
f 172/172/172 171/171/171 170/170/170
f 173/173/173 172/172/172 170/170/170
f 176/176/176 175/175/175 174/174/174
f 175/175/175 177/177/177 174/174/174
f 177/177/177 175/175/175 178/178/178
f 175/175/175 179/179/179 178/178/178
f 182/182/182 181/181/181 180/180/180
f 181/181/181 183/183/183 180/180/180
f 181/181/181 184/184/184 183/183/183
f 183/183/183 185/185/185 180/180/180
f 185/185/185 186/186/186 180/180/180
f 184/184/184 187/187/187 183/183/183
f 185/185/185 183/183/183 187/187/187
f 184/184/184 188/188/188 187/187/187
f 189/189/189 186/186/186 185/185/185
f 188/188/188 190/190/190 187/187/187
f 191/191/191 189/189/189 185/185/185
f 192/192/192 187/187/187 190/190/190
f 192/192/192 185/185/185 187/187/187
f 191/191/191 185/185/185 192/192/192
f 193/193/193 192/192/192 190/190/190
f 191/191/191 194/194/194 189/189/189
f 194/194/194 195/195/195 189/189/189
f 196/196/196 191/191/191 192/192/192
f 194/194/194 191/191/191 196/196/196
f 196/196/196 192/192/192 193/193/193
f 197/197/197 194/194/194 196/196/196
f 198/198/198 196/196/196 193/193/193
f 197/197/197 196/196/196 198/198/198
f 199/199/199 197/197/197 198/198/198
f 202/202/202 201/201/201 200/200/200
f 201/201/201 203/203/203 200/200/200
f 203/203/203 204/204/204 200/200/200
f 205/205/205 202/202/202 200/200/200
f 206/206/206 202/202/202 205/205/205
f 207/207/207 206/206/206 205/205/205
f 200/200/200 204/204/204 208/208/208
f 200/200/200 208/208/208 205/205/205
f 204/204/204 209/209/209 208/208/208
f 205/205/205 210/210/210 207/207/207
f 208/208/208 210/210/210 205/205/205
f 210/210/210 211/211/211 207/207/207
f 208/208/208 209/209/209 212/212/212
f 210/210/210 208/208/208 212/212/212
f 209/209/209 213/213/213 212/212/212
f 211/211/211 210/210/210 214/214/214
f 214/214/214 210/210/210 212/212/212
f 215/215/215 211/211/211 214/214/214
f 216/216/216 212/212/212 213/213/213
f 217/217/217 216/216/216 213/213/213
f 216/216/216 218/218/218 212/212/212
f 218/218/218 214/214/214 212/212/212
f 215/215/215 214/214/214 218/218/218
f 219/219/219 215/215/215 218/218/218
f 222/222/222 221/221/221 220/220/220
f 223/223/223 222/222/222 220/220/220
f 221/221/221 224/224/224 220/220/220
f 223/223/223 220/220/220 225/225/225
f 226/226/226 223/223/223 225/225/225
f 224/224/224 227/227/227 220/220/220
f 220/220/220 227/227/227 225/225/225
f 227/227/227 224/224/224 228/228/228
f 224/224/224 229/229/229 228/228/228
f 229/229/229 231/231/231 230/230/230
f 228/228/228 229/229/229 230/230/230
f 228/228/228 230/230/230 232/232/232
f 227/227/227 228/228/228 233/233/233
f 227/227/227 233/233/233 225/225/225
f 234/234/234 228/228/228 232/232/232
f 228/228/228 234/234/234 233/233/233
f 235/235/235 234/234/234 232/232/232
f 236/236/236 235/235/235 232/232/232
f 237/237/237 233/233/233 234/234/234
f 225/225/225 233/233/233 237/237/237
f 235/235/235 237/237/237 234/234/234
f 226/226/226 225/225/225 238/238/238
f 238/238/238 225/225/225 237/237/237
f 239/239/239 226/226/226 238/238/238
f 240/240/240 237/237/237 235/235/235
f 237/237/237 240/240/240 238/238/238
f 241/241/241 235/235/235 236/236/236
f 241/241/241 240/240/240 235/235/235
f 242/242/242 241/241/241 236/236/236
f 241/241/241 242/242/242 243/243/243
f 244/244/244 241/241/241 243/243/243
f 240/240/240 241/241/241 244/244/244
f 244/244/244 243/243/243 245/245/245
f 240/240/240 246/246/246 238/238/238
f 247/247/247 240/240/240 244/244/244
f 246/246/246 240/240/240 247/247/247
f 248/248/248 244/244/244 245/245/245
f 247/247/247 244/244/244 248/248/248
f 238/238/238 246/246/246 249/249/249
f 239/239/239 238/238/238 249/249/249
f 251/251/251 250/250/250 239/239/239
f 249/249/249 251/251/251 239/239/239
f 251/251/251 249/249/249 252/252/252
f 252/252/252 249/249/249 246/246/246
f 253/253/253 251/251/251 252/252/252
f 254/254/254 246/246/246 247/247/247
f 254/254/254 252/252/252 246/246/246
f 254/254/254 247/247/247 255/255/255
f 255/255/255 247/247/247 248/248/248
f 253/253/253 252/252/252 256/256/256
f 257/257/257 253/253/253 256/256/256
f 256/256/256 258/258/258 257/257/257
f 254/254/254 259/259/259 252/252/252
f 259/259/259 256/256/256 252/252/252
f 259/259/259 254/254/254 255/255/255
f 256/256/256 259/259/259 258/258/258
f 260/260/260 255/255/255 248/248/248
f 255/255/255 260/260/260 259/259/259
f 261/261/261 248/248/248 245/245/245
f 261/261/261 260/260/260 248/248/248
f 262/262/262 261/261/261 245/245/245
f 260/260/260 263/263/263 259/259/259
f 259/259/259 263/263/263 258/258/258
f 264/264/264 261/261/261 262/262/262
f 265/265/265 264/264/264 262/262/262
f 264/264/264 265/265/265 266/266/266
f 267/267/267 260/260/260 261/261/261
f 264/264/264 267/267/267 261/261/261
f 263/263/263 260/260/260 267/267/267
f 268/268/268 264/264/264 266/266/266
f 264/264/264 268/268/268 267/267/267
f 268/268/268 266/266/266 269/269/269
f 270/270/270 268/268/268 269/269/269
f 258/258/258 263/263/263 271/271/271
f 271/271/271 263/263/263 267/267/267
f 272/272/272 258/258/258 271/271/271
f 273/273/273 268/268/268 270/270/270
f 268/268/268 273/273/273 267/267/267
f 274/274/274 273/273/273 270/270/270
f 273/273/273 274/274/274 275/275/275
f 271/271/271 267/267/267 276/276/276
f 267/267/267 273/273/273 276/276/276
f 272/272/272 271/271/271 276/276/276
f 276/276/276 273/273/273 275/275/275
f 277/277/277 272/272/272 276/276/276
f 277/277/277 276/276/276 275/275/275
f 278/278/278 277/277/277 275/275/275
f 281/281/281 280/280/280 279/279/279
f 282/282/282 281/281/281 279/279/279
f 282/282/282 279/279/279 283/283/283
f 279/279/279 284/284/284 283/283/283
f 287/287/287 286/286/286 285/285/285
f 286/286/286 288/288/288 285/285/285
f 288/288/288 286/286/286 289/289/289
f 286/286/286 290/290/290 289/289/289
f 293/293/293 292/292/292 291/291/291
f 292/292/292 294/294/294 291/291/291
f 292/292/292 295/295/295 294/294/294
f 294/294/294 296/296/296 291/291/291
f 296/296/296 297/297/297 291/291/291
f 295/295/295 298/298/298 294/294/294
f 296/296/296 294/294/294 298/298/298
f 295/295/295 299/299/299 298/298/298
f 300/300/300 297/297/297 296/296/296
f 299/299/299 301/301/301 298/298/298
f 302/302/302 300/300/300 296/296/296
f 303/303/303 298/298/298 301/301/301
f 303/303/303 296/296/296 298/298/298
f 302/302/302 296/296/296 303/303/303
f 304/304/304 303/303/303 301/301/301
f 302/302/302 305/305/305 300/300/300
f 305/305/305 306/306/306 300/300/300
f 307/307/307 302/302/302 303/303/303
f 305/305/305 302/302/302 307/307/307
f 307/307/307 303/303/303 304/304/304
f 308/308/308 305/305/305 307/307/307
f 309/309/309 307/307/307 304/304/304
f 308/308/308 307/307/307 309/309/309
f 312/312/312 311/311/311 310/310/310
f 311/311/311 313/313/313 310/310/310
f 313/313/313 314/314/314 310/310/310
f 315/315/315 312/312/312 310/310/310
f 316/316/316 312/312/312 315/315/315
f 317/317/317 316/316/316 315/315/315
f 310/310/310 314/314/314 318/318/318
f 310/310/310 318/318/318 315/315/315
f 314/314/314 319/319/319 318/318/318
f 315/315/315 320/320/320 317/317/317
f 318/318/318 320/320/320 315/315/315
f 320/320/320 321/321/321 317/317/317
f 318/318/318 319/319/319 322/322/322
f 320/320/320 318/318/318 322/322/322
f 319/319/319 323/323/323 322/322/322
f 321/321/321 320/320/320 324/324/324
f 324/324/324 320/320/320 322/322/322
f 325/325/325 321/321/321 324/324/324
f 326/326/326 322/322/322 323/323/323
f 327/327/327 326/326/326 323/323/323
f 326/326/326 328/328/328 322/322/322
f 328/328/328 324/324/324 322/322/322
f 325/325/325 324/324/324 328/328/328
f 329/329/329 325/325/325 328/328/328
f 332/332/332 331/331/331 330/330/330
f 333/333/333 332/332/332 330/330/330
f 333/333/333 330/330/330 334/334/334
f 330/330/330 335/335/335 334/334/334
f 338/338/338 337/337/337 336/336/336
f 337/337/337 339/339/339 336/336/336
f 339/339/339 337/337/337 340/340/340
f 337/337/337 341/341/341 340/340/340
f 344/344/344 343/343/343 342/342/342
f 343/343/343 345/345/345 342/342/342
f 343/343/343 346/346/346 345/345/345
f 345/345/345 347/347/347 342/342/342
f 347/347/347 348/348/348 342/342/342
f 346/346/346 349/349/349 345/345/345
f 347/347/347 345/345/345 349/349/349
f 346/346/346 350/350/350 349/349/349
f 351/351/351 348/348/348 347/347/347
f 350/350/350 352/352/352 349/349/349
f 353/353/353 351/351/351 347/347/347
f 354/354/354 349/349/349 352/352/352
f 354/354/354 347/347/347 349/349/349
f 353/353/353 347/347/347 354/354/354
f 355/355/355 354/354/354 352/352/352
f 353/353/353 356/356/356 351/351/351
f 356/356/356 357/357/357 351/351/351
f 358/358/358 353/353/353 354/354/354
f 356/356/356 353/353/353 358/358/358
f 358/358/358 354/354/354 355/355/355
f 359/359/359 356/356/356 358/358/358
f 360/360/360 358/358/358 355/355/355
f 359/359/359 358/358/358 360/360/360
f 361/361/361 359/359/359 360/360/360
f 364/364/364 363/363/363 362/362/362
f 363/363/363 365/365/365 362/362/362
f 365/365/365 366/366/366 362/362/362
f 367/367/367 364/364/364 362/362/362
f 368/368/368 364/364/364 367/367/367
f 369/369/369 368/368/368 367/367/367
f 362/362/362 366/366/366 370/370/370
f 362/362/362 370/370/370 367/367/367
f 366/366/366 371/371/371 370/370/370
f 367/367/367 372/372/372 369/369/369
f 370/370/370 372/372/372 367/367/367
f 372/372/372 373/373/373 369/369/369
f 370/370/370 371/371/371 374/374/374
f 372/372/372 370/370/370 374/374/374
f 371/371/371 375/375/375 374/374/374
f 373/373/373 372/372/372 376/376/376
f 376/376/376 372/372/372 374/374/374
f 377/377/377 373/373/373 376/376/376
f 378/378/378 374/374/374 375/375/375
f 379/379/379 378/378/378 375/375/375
f 378/378/378 380/380/380 374/374/374
f 380/380/380 376/376/376 374/374/374
f 377/377/377 376/376/376 380/380/380
f 381/381/381 377/377/377 380/380/380
f 384/384/384 383/383/383 382/382/382
f 385/385/385 384/384/384 382/382/382
f 383/383/383 386/386/386 382/382/382
f 385/385/385 382/382/382 387/387/387
f 388/388/388 385/385/385 387/387/387
f 386/386/386 389/389/389 382/382/382
f 382/382/382 389/389/389 387/387/387
f 389/389/389 386/386/386 390/390/390
f 386/386/386 391/391/391 390/390/390
f 391/391/391 393/393/393 392/392/392
f 390/390/390 391/391/391 392/392/392
f 390/390/390 392/392/392 394/394/394
f 389/389/389 390/390/390 395/395/395
f 389/389/389 395/395/395 387/387/387
f 396/396/396 390/390/390 394/394/394
f 390/390/390 396/396/396 395/395/395
f 397/397/397 396/396/396 394/394/394
f 398/398/398 397/397/397 394/394/394
f 399/399/399 395/395/395 396/396/396
f 387/387/387 395/395/395 399/399/399
f 397/397/397 399/399/399 396/396/396
f 388/388/388 387/387/387 400/400/400
f 400/400/400 387/387/387 399/399/399
f 401/401/401 388/388/388 400/400/400
f 402/402/402 399/399/399 397/397/397
f 399/399/399 402/402/402 400/400/400
f 403/403/403 397/397/397 398/398/398
f 403/403/403 402/402/402 397/397/397
f 404/404/404 403/403/403 398/398/398
f 403/403/403 404/404/404 405/405/405
f 406/406/406 403/403/403 405/405/405
f 402/402/402 403/403/403 406/406/406
f 406/406/406 405/405/405 407/407/407
f 402/402/402 408/408/408 400/400/400
f 409/409/409 402/402/402 406/406/406
f 408/408/408 402/402/402 409/409/409
f 410/410/410 406/406/406 407/407/407
f 409/409/409 406/406/406 410/410/410
f 400/400/400 408/408/408 411/411/411
f 401/401/401 400/400/400 411/411/411
f 413/413/413 412/412/412 401/401/401
f 411/411/411 413/413/413 401/401/401
f 413/413/413 411/411/411 414/414/414
f 414/414/414 411/411/411 408/408/408
f 415/415/415 413/413/413 414/414/414
f 416/416/416 408/408/408 409/409/409
f 416/416/416 414/414/414 408/408/408
f 416/416/416 409/409/409 417/417/417
f 417/417/417 409/409/409 410/410/410
f 415/415/415 414/414/414 418/418/418
f 419/419/419 415/415/415 418/418/418
f 416/416/416 420/420/420 414/414/414
f 420/420/420 418/418/418 414/414/414
f 420/420/420 416/416/416 417/417/417
f 418/418/418 421/421/421 419/419/419
f 421/421/421 422/422/422 419/419/419
f 418/418/418 420/420/420 421/421/421
f 423/423/423 417/417/417 410/410/410
f 417/417/417 423/423/423 420/420/420
f 424/424/424 410/410/410 407/407/407
f 424/424/424 423/423/423 410/410/410
f 425/425/425 424/424/424 407/407/407
f 423/423/423 426/426/426 420/420/420
f 420/420/420 426/426/426 421/421/421
f 427/427/427 424/424/424 425/425/425
f 428/428/428 427/427/427 425/425/425
f 427/427/427 428/428/428 429/429/429
f 430/430/430 423/423/423 424/424/424
f 427/427/427 430/430/430 424/424/424
f 426/426/426 423/423/423 430/430/430
f 431/431/431 427/427/427 429/429/429
f 427/427/427 431/431/431 430/430/430
f 431/431/431 429/429/429 432/432/432
f 433/433/433 431/431/431 432/432/432
f 421/421/421 426/426/426 434/434/434
f 434/434/434 426/426/426 430/430/430
f 435/435/435 421/421/421 434/434/434
f 436/436/436 431/431/431 433/433/433
f 431/431/431 436/436/436 430/430/430
f 437/437/437 436/436/436 433/433/433
f 436/436/436 437/437/437 438/438/438
f 434/434/434 430/430/430 439/439/439
f 430/430/430 436/436/436 439/439/439
f 435/435/435 434/434/434 439/439/439
f 439/439/439 436/436/436 438/438/438
f 440/440/440 435/435/435 439/439/439
f 440/440/440 439/439/439 438/438/438
f 441/441/441 440/440/440 438/438/438
f 444/444/444 443/443/443 442/442/442
f 445/445/445 444/444/444 442/442/442
f 445/445/445 442/442/442 446/446/446
f 442/442/442 447/447/447 446/446/446
f 450/450/450 449/449/449 448/448/448
f 449/449/449 451/451/451 448/448/448
f 451/451/451 449/449/449 452/452/452
f 449/449/449 453/453/453 452/452/452
f 456/456/456 455/455/455 454/454/454
f 455/455/455 457/457/457 454/454/454
f 455/455/455 458/458/458 457/457/457
f 457/457/457 459/459/459 454/454/454
f 459/459/459 460/460/460 454/454/454
f 458/458/458 461/461/461 457/457/457
f 459/459/459 457/457/457 461/461/461
f 458/458/458 462/462/462 461/461/461
f 463/463/463 460/460/460 459/459/459
f 462/462/462 464/464/464 461/461/461
f 465/465/465 463/463/463 459/459/459
f 466/466/466 461/461/461 464/464/464
f 466/466/466 459/459/459 461/461/461
f 465/465/465 459/459/459 466/466/466
f 467/467/467 466/466/466 464/464/464
f 465/465/465 468/468/468 463/463/463
f 468/468/468 469/469/469 463/463/463
f 470/470/470 465/465/465 466/466/466
f 468/468/468 465/465/465 470/470/470
f 470/470/470 466/466/466 467/467/467
f 471/471/471 468/468/468 470/470/470
f 472/472/472 470/470/470 467/467/467
f 471/471/471 470/470/470 472/472/472
f 473/473/473 471/471/471 472/472/472
