# VPXTOOL table OBJ file
# VPXTOOL OBJ file
# numVerts: 64 numFaces: 78
o p01off
v 18.010025 31.768085 3.117339
v 17.776457 33.117935 3.112746
v 17.202625 34.279106 3.105564
v 16.286068 35.188686 3.109056
v 15.12284 35.77735 3.110927
v 13.789144 35.99326 3.121072
v -13.799762 35.992405 3.120245
v -15.125716 35.77034 3.112284
v -16.282654 35.18816 3.10747
v -17.189293 34.27478 3.105585
v -17.757042 33.113865 3.112513
v -17.989876 31.767355 3.116706
v 16.259188 -35.217167 3.109244
v 15.107647 -35.793365 3.111987
v 15.107647 -35.793365 0.098213
v 16.259188 -35.217163 0.097569
v 17.170057 -34.321995 3.106385
v 17.170057 -34.32199 0.092872
v 17.752317 -33.17757 3.113545
v 17.752317 -33.177567 0.10292
v 18.004404 -31.847395 3.114908
v 18.004404 -31.847395 0.104003
v 18.010025 31.768085 0.108911
v 17.776457 33.11794 0.10153
v 17.202625 34.27911 0.091433
v 16.286068 35.18869 0.097366
v 15.12284 35.77735 0.096403
v 13.789144 35.99326 0.114428
v -13.799762 35.992405 0.113028
v -15.125716 35.77034 0.099519
v -16.282654 35.18816 0.094942
v -17.189293 34.27478 0.09217
v -17.757042 33.113865 0.101903
v -17.989876 31.767355 0.108564
v -17.98984 -31.750109 3.116697
v -17.98984 -31.750109 0.108517
v -17.757723 -33.103764 3.112606
v -17.757723 -33.103764 0.101916
v -17.190788 -34.274094 3.105349
v -17.190788 -34.274094 0.091552
v -16.283846 -35.193123 3.108809
v -16.283846 -35.193123 0.097337
v -15.128778 -35.78866 3.110928
v -15.128778 -35.78866 0.09655
v -13.799428 -36.00674 3.121317
v -13.799428 -36.00674 0.11461
v 13.789108 -36.00671 3.12146
v 13.789108 -36.00671 0.114771
v -0.244719 7.957625 5.091429
v -0.244719 7.957623 4.418003
v -13.482681 7.957629 4.418003
v -13.482681 7.957629 5.091429
v -13.482681 15.380674 5.091429
v -13.482677 15.380672 4.418004
v -0.244719 15.380671 4.418004
v -0.244718 15.380671 5.091429
v -10.575217 5.050151 5.091428
v -10.575215 5.050154 4.418003
v -10.575213 18.288145 4.418004
v -10.575213 18.288149 5.09143
v -3.152186 18.288149 5.09143
v -3.152187 18.288145 4.418004
v -3.152185 5.050153 4.418003
v -3.152186 5.050151 5.091428
vt 0.740604 0.10172701
vt 0.737512 0.084755
vt 0.729888 0.07011598
vt 0.71762 0.05874902
vt 0.702067 0.05138898
vt 0.684198 0.04879999
vt 0.315656 0.048801005
vt 0.297902 0.05149299
vt 0.282417 0.058737993
vt 0.27029 0.070169985
vt 0.262746 0.084802985
vt 0.259661 0.10172999
vt 0.71726 0.941605985
vt 0.701858 0.948799014
vt 0.718897 0.986683011
vt 0.735586 0.97885698
vt 0.729448 0.93041301
vt 0.748817 0.966746986
vt 0.737185 0.915983975
vt 0.757182 0.951056004
vt 0.740544 0.89929199
vt 0.760826 0.93295902
vt 0.760872 0.068178
vt 0.757542 0.049736977
vt 0.749299 0.033818007
vt 0.735977 0.021526992
vt 0.719128 0.013509989
vt 0.699702 0.010820985
vt 0.300136 0.010814011
vt 0.280849 0.013647974
vt 0.264056 0.021502018
vt 0.250899 0.033886015
vt 0.242742 0.049797
vt 0.239417 0.06818402
vt 0.259661 0.898054
vt 0.239418 0.931581974
vt 0.262737 0.915068984
vt 0.242732 0.95006597
vt 0.270269 0.92982298
vt 0.250874 0.966112018
vt 0.282409 0.941308975
vt 0.264055 0.97853303
vt 0.297854 0.948753
vt 0.280787 0.986642003
vt 0.315666 0.951366007
vt 0.30015 0.989359021
vt 0.684196 0.95136398
vt 0.6997 0.989356995
vt 0 0
vt 0 0
vt 0 0
vt 0 0
vt 0 0
vt 0 0
vt 0 0
vt 0 0
vt 0 0
vt 0 0
vt 0 0
vt 0 0
vt 0 0
vt 0 0
vt 0 0
vt 0 0
vn -0.7224 -0.0618 -0.6887
vn -0.7003 -0.2277 -0.6765
vn -0.6019 -0.433 -0.671
vn -0.4323 -0.5991 -0.6739
vn -0.2284 -0.7029 -0.6735
vn -0.0578 -0.721 -0.6905
vn 0.0599 -0.7216 -0.6897
vn 0.2291 -0.7015 -0.6748
vn 0.4346 -0.599 -0.6725
vn 0.604 -0.4292 -0.6715
vn 0.7004 -0.2261 -0.6769
vn 0.7224 -0.0618 -0.6887
vn -0.4296 0.6011 -0.6739
vn -0.2266 0.7028 -0.6743
vn -0.3077 0.9514 0
vn -0.5815 0.8136 0
vn -0.5978 0.4373 -0.6718
vn -0.8065 0.5912 0
vn -0.6965 0.2369 -0.6773
vn -0.9462 0.3234 0
vn -0.7237 0.0677 -0.6868
vn -0.9956 0.0936 0
vn -0.9963 -0.0856 0
vn -0.9505 -0.3105 0
vn -0.8114 -0.5845 0
vn -0.5853 -0.8108 0
vn -0.3099 -0.9507 0
vn -0.0805 -0.9967 0
vn 0.0831 -0.9965 0
vn 0.3114 -0.9503 0
vn 0.5875 -0.8092 0
vn 0.8147 -0.5799 0
vn 0.9512 -0.3085 0
vn 0.9963 -0.0856 0
vn 0.7223 0.0611 -0.6888
vn 0.9964 0.0849 0
vn 0.7008 0.224 -0.6772
vn 0.952 0.306 0
vn 0.6057 0.4271 -0.6713
vn 0.8167 0.577 0
vn 0.4379 0.5953 -0.6737
vn 0.5925 0.8055 0
vn 0.232 0.7022 -0.6731
vn 0.3145 0.9492 0
vn 0.0587 0.721 -0.6904
vn 0.0815 0.9966 0
vn -0.0578 0.7209 -0.6906
vn -0.0804 0.9967 0
vn -0 -1 0
vn -0 -1 0
vn -0 -1 0
vn -0 -1 0
vn 0 1 -0
vn 0 1 -0
vn 0 1 -0
vn 0 1 -0
vn -1 0 -0
vn -1 0 -0
vn -1 0 -0
vn -1 0 -0
vn 1 0 -0
vn 1 0 -0
vn 1 0 -0
vn 1 0 -0
f 51/51/51 50/50/50 49/49/49
f 52/52/52 51/51/51 49/49/49
f 3/3/3 2/2/2 1/1/1
f 24/24/24 2/2/2 3/3/3
f 24/24/24 23/23/23 2/2/2
f 23/23/23 1/1/1 2/2/2
f 25/25/25 24/24/24 3/3/3
f 23/23/23 22/22/22 1/1/1
f 25/25/25 3/3/3 4/4/4
f 4/4/4 3/3/3 1/1/1
f 26/26/26 25/25/25 4/4/4
f 26/26/26 4/4/4 5/5/5
f 5/5/5 4/4/4 1/1/1
f 27/27/27 26/26/26 5/5/5
f 27/27/27 5/5/5 6/6/6
f 6/6/6 5/5/5 1/1/1
f 28/28/28 27/27/27 6/6/6
f 28/28/28 6/6/6 7/7/7
f 7/7/7 6/6/6 1/1/1
f 29/29/29 28/28/28 7/7/7
f 29/29/29 7/7/7 8/8/8
f 8/8/8 7/7/7 1/1/1
f 30/30/30 29/29/29 8/8/8
f 30/30/30 8/8/8 9/9/9
f 9/9/9 8/8/8 1/1/1
f 31/31/31 30/30/30 9/9/9
f 31/31/31 9/9/9 10/10/10
f 10/10/10 9/9/9 1/1/1
f 32/32/32 31/31/31 10/10/10
f 32/32/32 10/10/10 11/11/11
f 11/11/11 10/10/10 1/1/1
f 33/33/33 32/32/32 11/11/11
f 33/33/33 11/11/11 12/12/12
f 12/12/12 11/11/11 1/1/1
f 34/34/34 33/33/33 12/12/12
f 22/22/22 21/21/21 1/1/1
f 12/12/12 1/1/1 21/21/21
f 22/22/22 20/20/20 21/21/21
f 34/34/34 12/12/12 35/35/35
f 35/35/35 12/12/12 21/21/21
f 36/36/36 34/34/34 35/35/35
f 20/20/20 19/19/19 21/21/21
f 20/20/20 18/18/18 19/19/19
f 36/36/36 35/35/35 37/37/37
f 38/38/38 36/36/36 37/37/37
f 18/18/18 17/17/17 19/19/19
f 21/21/21 19/19/19 17/17/17
f 35/35/35 21/21/21 17/17/17
f 37/37/37 35/35/35 17/17/17
f 18/18/18 16/16/16 17/17/17
f 38/38/38 37/37/37 39/39/39
f 39/39/39 37/37/37 17/17/17
f 40/40/40 38/38/38 39/39/39
f 40/40/40 39/39/39 41/41/41
f 41/41/41 39/39/39 17/17/17
f 42/42/42 40/40/40 41/41/41
f 42/42/42 41/41/41 43/43/43
f 43/43/43 41/41/41 17/17/17
f 44/44/44 42/42/42 43/43/43
f 44/44/44 43/43/43 45/45/45
f 45/45/45 43/43/43 17/17/17
f 46/46/46 44/44/44 45/45/45
f 16/16/16 13/13/13 17/17/17
f 16/16/16 15/15/15 13/13/13
f 46/46/46 45/45/45 47/47/47
f 47/47/47 45/45/45 17/17/17
f 48/48/48 46/46/46 47/47/47
f 13/13/13 14/14/14 17/17/17
f 14/14/14 47/47/47 17/17/17
f 15/15/15 14/14/14 13/13/13
f 48/48/48 47/47/47 14/14/14
f 15/15/15 48/48/48 14/14/14
f 55/55/55 54/54/54 53/53/53
f 56/56/56 55/55/55 53/53/53
f 59/59/59 58/58/58 57/57/57
f 60/60/60 59/59/59 57/57/57
f 63/63/63 62/62/62 61/61/61
f 64/64/64 63/63/63 61/61/61
