# VPXTOOL table OBJ file
# VPXTOOL OBJ file
# numVerts: 116 numFaces: 156
o p_L19_
v 7.668015 -10.712938 5.231663
v 5.189192 -10.731734 5.231662
v 5.189193 -10.731734 0.141149
v 7.668016 -10.712938 0.141149
v 10.500637 -8.235911 5.231663
v 10.500637 -8.235911 0.141149
v 10.462558 -6.817786 0.141149
v 10.462558 -6.817786 5.231663
v 8.964611 -10.367502 0.141149
v 8.964611 -10.367502 5.231663
v 39.74256 8.215226 0.14115
v 39.264587 9.629736 0.14115
v 39.264587 9.629736 5.231664
v 39.74256 8.215226 5.231665
v 38.758125 5.517281 0.14115
v 39.587803 6.730682 0.14115
v 39.587803 6.730682 5.231665
v 38.758125 5.517281 5.231664
v -7.552344 10.701118 5.231661
v 3.534139 10.782377 5.231663
v 3.53414 10.782377 0.14115
v -7.552343 10.701118 0.141148
v 37.481354 4.786492 5.231665
v 37.481354 4.786492 0.14115
v 9.71549 -5.48997 0.141149
v 8.748216 -4.635521 0.141149
v 8.748216 -4.635521 5.231663
v 9.715489 -5.48997 5.231663
v 10.006527 -9.504134 5.231663
v 10.006527 -9.504134 0.141149
v 8.306586 -3.734848 5.231663
v 8.306587 -3.734848 0.141149
v 8.262285 -2.708693 0.141149
v 8.262284 -2.708693 5.231663
v -8.146612 2.696871 5.231661
v -8.146611 2.696871 0.141148
v -8.694051 1.878146 0.141148
v -8.694051 1.878146 5.231661
v 8.809723 -1.889968 0.141149
v 9.853842 -1.339014 0.14115
v 9.853841 -1.339014 5.231663
v 8.809722 -1.889968 5.231663
v 8.450527 -2.270837 0.141149
v 8.450527 -2.270837 5.231663
v 38.16956 10.615076 0.14115
v 38.16956 10.615076 5.231664
v -10.384964 8.224091 5.231661
v -10.384964 8.224091 0.141147
v -10.346884 6.805964 0.141147
v -10.346885 6.805964 5.231661
v -8.848938 10.355682 0.141148
v -8.848939 10.355682 5.231661
v -39.626892 -8.227044 0.141143
v -39.148922 -9.641551 0.141143
v -39.148922 -9.641551 5.231658
v -39.626892 -8.227044 5.231658
v -38.64246 -5.529098 0.141143
v -39.472137 -6.742499 0.141143
v -39.472137 -6.742499 5.231658
v -38.64246 -5.529098 5.231658
v -2.188803 -10.785273 5.231662
v -2.188802 -10.785273 0.141148
v 28.249605 2.738456 5.231664
v 28.249607 2.738456 0.14115
v -37.36569 -4.798311 5.231658
v -37.36569 -4.798311 0.141144
v -9.599813 5.478148 0.141147
v -9.599814 5.478148 5.231661
v -9.890853 9.492314 5.231661
v -9.890852 9.492314 0.141147
v -8.632541 4.623698 0.141148
v -8.344876 4.256916 0.141148
v -8.344876 4.256916 5.231661
v -8.632541 4.623698 5.231661
v -38.05389 -10.626891 0.141144
v -38.05389 -10.626891 5.231658
v -9.738172 1.327192 5.231661
v 36.757893 11.022369 5.231665
v 25.668121 10.942996 5.231665
v 25.668123 10.942996 0.14115
v 36.757893 11.022369 0.14115
v 14.601132 10.862687 5.231663
v 14.601132 10.862687 0.14115
v 19.041273 0.696894 0.14115
v 19.041273 0.696894 5.231664
v -33.65657 -3.974688 5.231659
v -31.700785 -10.99943 5.231658
v -21.863457 -10.928044 5.23166
v -25.763714 -2.224778 5.231655
v -31.700785 -10.99943 0.141145
v -21.863457 -10.928044 0.141146
v -12.02613 -10.856658 5.231661
v -12.026131 -10.856658 0.141147
v -17.870853 -0.474869 0.141147
v -17.870853 -0.474869 5.231656
v -9.738171 1.327192 0.141147
v -25.763714 -2.224778 0.141146
v -33.656574 -3.974688 0.141145
v -36.642227 -11.034185 5.231658
v -36.642227 -11.034185 0.141144
v -6.471347 7.283727 6.432892
v -6.471354 -5.94917 6.432894
v -6.471353 -5.94917 7.091508
v -6.471353 7.283727 7.091506
v -6.471354 -5.94917 6.432894
v 6.761487 -5.94917 6.432896
v 6.761489 -5.949171 7.09151
v -6.471353 -5.94917 7.091508
v 6.761487 -5.94917 6.432896
v 6.76149 7.283726 6.432892
v 6.761491 7.283726 7.091507
v 6.761489 -5.949171 7.09151
v 6.76149 7.283726 6.432892
v -6.471347 7.283727 6.432892
v -6.471353 7.283727 7.091506
v 6.761491 7.283726 7.091507
vt 0.413361 0.262559
vt 0.441225 0.262155
vt 0.435538 0.23913902
vt 0.404977 0.23958302
vt 0.383656 0.31429
vt 0.372398 0.29631996
vt 0.372814 0.32903397
vt 0.384035 0.344118
vt 0.389872 0.247612
vt 0.399588 0.26988
vt 0.009051 0.703538
vt 0.014548 0.73617798
vt 0.057378 0.71534002
vt 0.052366 0.68558002
vt 0.020311 0.64151
vt 0.010827 0.66921097
vt 0.053986 0.65428102
vt 0.062633 0.62902498
vt 0.585329 0.73717302
vt 0.459938 0.738993
vt 0.456062 0.762119
vt 0.593585 0.76012301
vt 0.076176 0.613528
vt 0.035164 0.62451297
vt 0.381482 0.35972202
vt 0.393364 0.38066
vt 0.402772 0.39118898
vt 0.391939 0.37209797
vt 0.388814 0.28768802
vt 0.378055 0.267143
vt 0.40849 0.41420197
vt 0.399635 0.4059
vt 0.400168 0.43410397
vt 0.408976 0.43991804
vt 0.589713 0.55981398
vt 0.598394 0.565602
vt 0.606162 0.54218
vt 0.596796 0.538459
vt 0.3924 0.45752597
vt 0.378445 0.472297
vt 0.38917 0.47474098
vt 0.401894 0.46127403
vt 0.397439 0.44677103
vt 0.406487 0.45146704
vt 0.027046 0.75862998
vt 0.068774 0.735811
vt 0.615033 0.68544197
vt 0.626165 0.703386
vt 0.625749 0.670672
vt 0.614654 0.65561402
vt 0.608691 0.75209397
vt 0.599101 0.72985297
vt 0.989512 0.29616797
vt 0.984015 0.263529
vt 0.941311 0.284392
vt 0.946323 0.314152
vt 0.978252 0.35819602
vt 0.987736 0.330496
vt 0.944704 0.345451
vt 0.936057 0.37070704
vt 0.524819 0.26094103
vt 0.52722 0.237809
vt 0.180507 0.56726497
vt 0.149591 0.57377398
vt 0.922514 0.38620496
vt 0.963399 0.375193
vt 0.617081 0.63998502
vt 0.606751 0.627634
vt 0.609875 0.712044
vt 0.620507 0.73256302
vt 0.605199 0.61904597
vt 0.601092 0.60846698
vt 0.592173 0.59889698
vt 0.595918 0.60854298
vt 0.971517 0.241076
vt 0.929915 0.26392102
vt 0.60952 0.52499098
vt 0.083768 0.744452
vt 0.209158 0.742633
vt 0.181015 0.76611102
vt 0.043491 0.768107
vt 0.334548 0.74081302
vt 0.318538 0.76411498
vt 0.264018 0.523036
vt 0.284838 0.521003
vt 0.880754 0.40472102
vt 0.859192 0.25608897
vt 0.747734 0.257706
vt 0.791328 0.44437504
vt 0.89395 0.23248601
vt 0.771707 0.23425996
vt 0.636277 0.259324
vt 0.649463 0.23603499
vt 0.721438 0.48248196
vt 0.701901 0.48402798
vt 0.620118 0.52740902
vt 0.819518 0.43899202
vt 0.917598 0.39550197
vt 0.914921 0.25528002
vt 0.955071 0.23159897
vt 0 0
vt 0 0
vt 0 0
vt 0 0
vt 0 0
vt 0 0
vt 0 0
vt 0 0
vt 0 0
vt 0 0
vt 0 0
vt 0 0
vt 0 0
vt 0 0
vt 0 0
vt 0 0
vn -0.0979 0.7268 -0.6798
vn -0.0052 0.7071 -0.7071
vn -0.0074 1 0
vn -0.1335 0.991 0
vn -0.7356 0.128 -0.6652
vn -0.9852 0.1715 0
vn -0.9638 -0.2664 0
vn -0.7268 -0.2009 -0.6568
vn -0.4584 0.8887 0
vn -0.3436 0.6662 -0.6619
vn -0.9938 -0.1108 0
vn -0.8354 -0.5497 0
vn -0.6317 -0.4157 -0.6543
vn -0.7448 -0.083 -0.6621
vn -0.6783 0.7348 0
vn -0.9387 0.3446 0
vn -0.7087 0.2601 -0.6558
vn -0.5095 0.552 -0.66
vn 0.0979 -0.7268 -0.6798
vn 0.0051 -0.7071 -0.7071
vn 0.0073 -1 0
vn 0.1334 -0.991 0
vn -0.2662 0.6883 -0.6748
vn -0.3608 0.9326 0
vn -0.7776 -0.6287 0
vn -0.7951 -0.6064 0
vn -0.5227 -0.3986 -0.7536
vn -0.5763 -0.4659 -0.6714
vn -0.6129 0.4423 -0.6547
vn -0.8108 0.5852 0
vn -0.7248 -0.1847 -0.6637
vn -0.969 -0.2469 0
vn -0.9836 0.1804 0
vn -0.6383 0.1171 -0.7608
vn 0.5903 -0.1391 -0.7951
vn 0.9733 -0.2294 0
vn 0.6695 -0.7428 0
vn 0.4298 -0.4769 -0.7667
vn -0.6052 0.796 0
vn -0.3446 0.9387 0
vn -0.2324 0.633 -0.7384
vn -0.4031 0.5302 -0.7459
vn -0.8359 0.5489 0
vn -0.5543 0.364 -0.7485
vn -0.4854 -0.8743 0
vn -0.3646 -0.6568 -0.66
vn 0.7356 -0.128 -0.6652
vn 0.9852 -0.1715 0
vn 0.9638 0.2664 0
vn 0.7268 0.2009 -0.6568
vn 0.4584 -0.8887 0
vn 0.3436 -0.6662 -0.6619
vn 0.9938 0.1108 0
vn 0.8354 0.5497 0
vn 0.6317 0.4157 -0.6543
vn 0.7448 0.083 -0.6621
vn 0.6783 -0.7348 0
vn 0.9387 -0.3446 0
vn 0.7087 -0.2601 -0.6558
vn 0.5095 -0.552 -0.66
vn -0.0051 0.7071 -0.7071
vn -0.0072 1 0
vn -0.1531 0.6903 -0.7071
vn -0.2165 0.9763 0
vn 0.2663 -0.6882 -0.6748
vn 0.3609 -0.9326 0
vn 0.7776 0.6287 0
vn 0.5763 0.4659 -0.6714
vn 0.6129 -0.4423 -0.6547
vn 0.8108 -0.5852 0
vn 0.7274 0.6861 0
vn 0.9227 0.3855 0
vn 0.5863 0.2449 -0.7722
vn 0.4986 0.4703 -0.7281
vn 0.4854 0.8743 0
vn 0.3646 0.6568 -0.66
vn 0.2324 -0.633 -0.7384
vn -0.1005 -0.7298 -0.6762
vn 0.0051 -0.7071 -0.7071
vn 0.0072 -1 0
vn -0.1364 -0.9906 0
vn 0.0051 -0.7071 -0.7071
vn 0.0072 -1 0
vn -0.2164 0.9763 0
vn -0.153 0.6904 -0.7071
vn 0.1532 -0.6903 -0.7071
vn -0.005 0.7071 -0.7071
vn -0.0051 0.7071 -0.7071
vn 0.1531 -0.6903 -0.7071
vn -0.0071 1 0
vn -0.0072 1 0
vn -0.0051 0.7071 -0.7071
vn -0.0072 1 0
vn 0.2164 -0.9763 0
vn 0.153 -0.6904 -0.7071
vn 0.3446 -0.9387 0
vn 0.2164 -0.9763 0
vn 0.2166 -0.9763 0
vn 0.1006 0.7298 -0.6762
vn 0.1365 0.9906 0
vn 1 -0 0
vn 1 -0 0
vn 1 -0 0
vn 1 -0 0
vn 0 1 0
vn 0 1 0
vn 0 1 0
vn 0 1 0
vn -1 0 0
vn -1 0 0
vn -1 0 0
vn -1 0 0
vn -0 -1 -0
vn -0 -1 -0
vn -0 -1 -0
vn -0 -1 -0
f 103/103/103 102/102/102 101/101/101
f 104/104/104 103/103/103 101/101/101
f 3/3/3 2/2/2 1/1/1
f 4/4/4 3/3/3 1/1/1
f 3/3/3 62/62/62 2/2/2
f 9/9/9 4/4/4 1/1/1
f 62/62/62 61/61/61 2/2/2
f 61/61/61 62/62/62 93/93/93
f 10/10/10 9/9/9 1/1/1
f 30/30/30 9/9/9 10/10/10
f 92/92/92 61/61/61 93/93/93
f 93/93/93 91/91/91 92/92/92
f 29/29/29 30/30/30 10/10/10
f 6/6/6 30/30/30 29/29/29
f 5/5/5 6/6/6 29/29/29
f 5/5/5 29/29/29 10/10/10
f 7/7/7 6/6/6 5/5/5
f 8/8/8 5/5/5 10/10/10
f 8/8/8 7/7/7 5/5/5
f 8/8/8 28/28/28 7/7/7
f 28/28/28 8/8/8 10/10/10
f 28/28/28 25/25/25 7/7/7
f 27/27/27 28/28/28 10/10/10
f 28/28/28 27/27/27 25/25/25
f 1/1/1 27/27/27 10/10/10
f 27/27/27 26/26/26 25/25/25
f 32/32/32 26/26/26 27/27/27
f 27/27/27 1/1/1 38/38/38
f 1/1/1 2/2/2 38/38/38
f 31/31/31 32/32/32 27/27/27
f 31/31/31 27/27/27 38/38/38
f 33/33/33 32/32/32 31/31/31
f 38/38/38 2/2/2 77/77/77
f 2/2/2 61/61/61 77/77/77
f 34/34/34 33/33/33 31/31/31
f 34/34/34 31/31/31 38/38/38
f 77/77/77 61/61/61 95/95/95
f 61/61/61 92/92/92 95/95/95
f 34/34/34 44/44/44 33/33/33
f 44/44/44 43/43/43 33/33/33
f 35/35/35 34/34/34 38/38/38
f 44/44/44 34/34/34 35/35/35
f 38/38/38 77/77/77 37/37/37
f 38/38/38 37/37/37 35/35/35
f 77/77/77 96/96/96 37/37/37
f 37/37/37 36/36/36 35/35/35
f 96/96/96 77/77/77 94/94/94
f 77/77/77 95/95/95 94/94/94
f 35/35/35 36/36/36 73/73/73
f 73/73/73 44/44/44 35/35/35
f 36/36/36 72/72/72 73/73/73
f 73/73/73 72/72/72 71/71/71
f 94/94/94 95/95/95 89/89/89
f 95/95/95 92/92/92 89/89/89
f 97/97/97 94/94/94 89/89/89
f 74/74/74 73/73/73 71/71/71
f 44/44/44 73/73/73 74/74/74
f 74/74/74 71/71/71 67/67/67
f 97/97/97 89/89/89 86/86/86
f 98/98/98 97/97/97 86/86/86
f 92/92/92 88/88/88 89/89/89
f 89/89/89 88/88/88 86/86/86
f 91/91/91 88/88/88 92/92/92
f 91/91/91 90/90/90 88/88/88
f 98/98/98 86/86/86 65/65/65
f 66/66/66 98/98/98 65/65/65
f 88/88/88 87/87/87 86/86/86
f 90/90/90 87/87/87 88/88/88
f 86/86/86 87/87/87 65/65/65
f 90/90/90 100/100/100 87/87/87
f 57/57/57 66/66/66 65/65/65
f 100/100/100 99/99/99 87/87/87
f 87/87/87 99/99/99 65/65/65
f 99/99/99 100/100/100 75/75/75
f 60/60/60 57/57/57 65/65/65
f 65/65/65 99/99/99 60/60/60
f 76/76/76 99/99/99 75/75/75
f 99/99/99 76/76/76 60/60/60
f 76/76/76 75/75/75 54/54/54
f 60/60/60 59/59/59 57/57/57
f 59/59/59 58/58/58 57/57/57
f 53/53/53 58/58/58 59/59/59
f 55/55/55 76/76/76 54/54/54
f 55/55/55 54/54/54 53/53/53
f 76/76/76 55/55/55 60/60/60
f 56/56/56 53/53/53 59/59/59
f 56/56/56 59/59/59 60/60/60
f 56/56/56 55/55/55 53/53/53
f 55/55/55 56/56/56 60/60/60
f 44/44/44 42/42/42 43/43/43
f 42/42/42 44/44/44 74/74/74
f 42/42/42 39/39/39 43/43/43
f 68/68/68 74/74/74 67/67/67
f 68/68/68 67/67/67 49/49/49
f 42/42/42 41/41/41 39/39/39
f 41/41/41 40/40/40 39/39/39
f 40/40/40 41/41/41 84/84/84
f 50/50/50 68/68/68 49/49/49
f 41/41/41 85/85/85 84/84/84
f 50/50/50 49/49/49 47/47/47
f 49/49/49 48/48/48 47/47/47
f 68/68/68 50/50/50 52/52/52
f 50/50/50 47/47/47 52/52/52
f 74/74/74 68/68/68 52/52/52
f 47/47/47 48/48/48 69/69/69
f 47/47/47 69/69/69 52/52/52
f 48/48/48 70/70/70 69/69/69
f 69/69/69 70/70/70 52/52/52
f 70/70/70 51/51/51 52/52/52
f 19/19/19 74/74/74 52/52/52
f 52/52/52 51/51/51 19/19/19
f 19/19/19 42/42/42 74/74/74
f 51/51/51 22/22/22 19/19/19
f 22/22/22 21/21/21 19/19/19
f 42/42/42 19/19/19 20/20/20
f 21/21/21 20/20/20 19/19/19
f 41/41/41 42/42/42 20/20/20
f 21/21/21 83/83/83 20/20/20
f 41/41/41 20/20/20 82/82/82
f 83/83/83 82/82/82 20/20/20
f 85/85/85 41/41/41 82/82/82
f 83/83/83 80/80/80 82/82/82
f 84/84/84 85/85/85 63/63/63
f 85/85/85 82/82/82 63/63/63
f 64/64/64 84/84/84 63/63/63
f 80/80/80 79/79/79 82/82/82
f 82/82/82 79/79/79 63/63/63
f 64/64/64 63/63/63 23/23/23
f 63/63/63 79/79/79 23/23/23
f 24/24/24 64/64/64 23/23/23
f 78/78/78 79/79/79 80/80/80
f 79/79/79 78/78/78 23/23/23
f 81/81/81 78/78/78 80/80/80
f 15/15/15 24/24/24 23/23/23
f 78/78/78 81/81/81 45/45/45
f 18/18/18 15/15/15 23/23/23
f 46/46/46 78/78/78 45/45/45
f 46/46/46 45/45/45 12/12/12
f 23/23/23 78/78/78 13/13/13
f 78/78/78 46/46/46 13/13/13
f 13/13/13 46/46/46 12/12/12
f 18/18/18 23/23/23 13/13/13
f 13/13/13 12/12/12 11/11/11
f 18/18/18 17/17/17 15/15/15
f 17/17/17 18/18/18 13/13/13
f 17/17/17 16/16/16 15/15/15
f 11/11/11 16/16/16 17/17/17
f 14/14/14 17/17/17 13/13/13
f 14/14/14 13/13/13 11/11/11
f 14/14/14 11/11/11 17/17/17
f 107/107/107 106/106/106 105/105/105
f 108/108/108 107/107/107 105/105/105
f 111/111/111 110/110/110 109/109/109
f 112/112/112 111/111/111 109/109/109
f 115/115/115 114/114/114 113/113/113
f 116/116/116 115/115/115 113/113/113
