# VPXTOOL table OBJ file
# VPXTOOL OBJ file
# numVerts: 4 numFaces: 6
o PinCab_DMD
v -1.1285489797592163 0.4096960127353668 -0.15890899300575256
v 0.16338500380516052 0.4096960127353668 -0.15890899300575256
v 0.16338500380516052 0.9410200119018555 -0.10006699711084366
v -1.1285489797592163 0.9410200119018555 -0.10006699711084366
vt 1 1
vt 0 1
vt -0 0
vt 1 0
vn 0 0.11010000109672546 -0.9939000010490417
vn 0 0.11010000109672546 -0.9939000010490417
vn 0 0.11010000109672546 -0.9939000010490417
vn 0 0.11010000109672546 -0.9939000010490417
f 3/3/3 2/2/2 1/1/1
f 4/4/4 3/3/3 1/1/1
