# VPXTOOL table OBJ file
# VPXTOOL OBJ file
# numVerts: 611 numFaces: 448
o Primitive26
v 9 -13.5 -0
v 6.933175 -13 -0.91026
v 8.693333 -13.5 -2.326862
v 6.46069 -13 -2.673596
v 7.794229 -13.5 -4.49749
v 5.54792 -13 -4.254559
v 6.363961 -13.5 -6.361451
v 4.257069 -13 -5.545411
v 4.5 -13.5 -7.791719
v 2.676105 -13 -6.45818
v 2.329371 -13.5 -8.690824
v 0.912769 -13 -6.930665
v -0 -13.5 -8.997491
v 2.329371 -13.5 -8.690824
v -0.91277 -13 -6.930665
v -2.329372 -13.5 -8.690824
v -2.676105 -13 -6.45818
v -4.5 -13.5 -7.791719
v -4.257069 -13 -5.54541
v -6.363961 -13.5 -6.361451
v -5.54792 -13 -4.254559
v -7.794229 -13.5 -4.49749
v -6.46069 -13 -2.673596
v -8.693333 -13.5 -2.326862
v -6.933174 -13 -0.91026
v -9 -13.5 -0
v 6.993001 0.5 -0
v 6.75472 0.5 -1.807412
v 6.933175 -13 -0.91026
v 6.056116 0.5 -3.493991
v 6.46069 -13 -2.673596
v 4.944798 0.5 -4.942287
v 5.54792 -13 -4.254559
v 3.4965 0.5 -6.053606
v 4.257069 -13 -5.545411
v 1.809922 0.5 -6.752211
v 2.676105 -13 -6.45818
v 1.809922 0.5 -6.752211
v -0 0.5 -6.990491
v 0.912769 -13 -6.930665
v -1.809922 0.5 -6.752211
v -0.91277 -13 -6.930665
v -3.4965 0.5 -6.053606
v -2.676105 -13 -6.45818
v -4.944798 0.5 -4.942288
v -4.257069 -13 -5.54541
v -6.056116 0.5 -3.49399
v -5.54792 -13 -4.254559
v -6.75472 0.5 -1.807412
v -6.46069 -13 -2.673596
v -6.993001 0.5 -0
v -6.933174 -13 -0.91026
v -0 0.5 -6.990491
v -0.91277 -13 -6.930665
v -0 -13.5 -8.997491
v -0 -13.5 -8.997491
v 0.912769 -13 -6.930665
v -0 0.5 -6.990491
v -1.809922 0.5 -6.752211
v -2.676105 -13 -6.45818
v -2.329372 -13.5 -8.690824
v -2.329372 -13.5 -8.690824
v -0.91277 -13 -6.930665
v -1.809922 0.5 -6.752211
v -3.4965 0.5 -6.053606
v -4.257069 -13 -5.54541
v -4.5 -13.5 -7.791719
v -4.5 -13.5 -7.791719
v -2.676105 -13 -6.45818
v -3.4965 0.5 -6.053606
v -4.944798 0.5 -4.942288
v -5.54792 -13 -4.254559
v -6.363961 -13.5 -6.361451
v -6.363961 -13.5 -6.361451
v -4.257069 -13 -5.54541
v -4.944798 0.5 -4.942288
v -7.794229 -13.5 -4.49749
v -5.54792 -13 -4.254559
v -6.056116 0.5 -3.49399
v -6.056116 0.5 -3.49399
v -6.46069 -13 -2.673596
v -7.794229 -13.5 -4.49749
v -8.693333 -13.5 -2.326862
v -6.46069 -13 -2.673596
v -6.75472 0.5 -1.807412
v -6.75472 0.5 -1.807412
v -6.933174 -13 -0.91026
v -8.693333 -13.5 -2.326862
v -9 -13.5 -0
v -6.933174 -13 -0.91026
v -6.993001 0.5 -0
v 1.809922 0.5 -6.752211
v 0.912769 -13 -6.930665
v 2.329371 -13.5 -8.690824
v 2.329371 -13.5 -8.690824
v 2.676105 -13 -6.45818
v 1.809922 0.5 -6.752211
v 3.4965 0.5 -6.053606
v 2.676105 -13 -6.45818
v 4.5 -13.5 -7.791719
v 4.5 -13.5 -7.791719
v 4.257069 -13 -5.545411
v 3.4965 0.5 -6.053606
v 4.944798 0.5 -4.942287
v 4.257069 -13 -5.545411
v 6.363961 -13.5 -6.361451
v 6.363961 -13.5 -6.361451
v 5.54792 -13 -4.254559
v 4.944798 0.5 -4.942287
v 6.056116 0.5 -3.493991
v 5.54792 -13 -4.254559
v 7.794229 -13.5 -4.49749
v 7.794229 -13.5 -4.49749
v 6.46069 -13 -2.673596
v 6.056116 0.5 -3.493991
v 6.75472 0.5 -1.807412
v 6.46069 -13 -2.673596
v 8.693333 -13.5 -2.326862
v 6.933175 -13 -0.91026
v 6.75472 0.5 -1.807412
v 8.693333 -13.5 -2.326862
v 6.993001 0.5 -0
v 6.933175 -13 -0.91026
v 9 -13.5 -0
v 8.693333 -13.5 2.326862
v 6.933175 -13 0.91026
v 7.794229 -13.5 4.49749
v 6.46069 -13 2.673596
v 6.363961 -13.5 6.361451
v 5.54792 -13 4.254559
v 4.5 -13.5 7.791719
v 4.257069 -13 5.545411
v 2.329371 -13.5 8.690824
v 2.676105 -13 6.45818
v -0 -13.5 8.997491
v 0.912769 -13 6.930665
v -2.329372 -13.5 8.690824
v -0.91277 -13 6.930665
v -4.5 -13.5 7.791719
v -2.676105 -13 6.45818
v -6.363961 -13.5 6.361451
v -4.257069 -13 5.54541
v -7.794229 -13.5 4.49749
v -5.54792 -13 4.254559
v -8.693333 -13.5 2.326862
v -6.46069 -13 2.673596
v -6.933174 -13 0.91026
v 6.933175 -13 0.91026
v 6.75472 0.5 1.807412
v 6.46069 -13 2.673596
v 6.056116 0.5 3.493991
v 5.54792 -13 4.254559
v 4.944798 0.5 4.942287
v 4.257069 -13 5.545411
v 3.4965 0.5 6.053606
v 2.676105 -13 6.45818
v 1.809922 0.5 6.752211
v 0.912769 -13 6.930665
v -0 0.5 6.990491
v -0.91277 -13 6.930665
v -1.809922 0.5 6.752211
v -2.676105 -13 6.45818
v -3.4965 0.5 6.053606
v -4.257069 -13 5.54541
v -4.944798 0.5 4.942288
v -5.54792 -13 4.254559
v -6.056116 0.5 3.49399
v -6.46069 -13 2.673596
v -6.75472 0.5 1.807412
v -6.933174 -13 0.91026
v -0 -13.5 8.997491
v -0.91277 -13 6.930665
v -0 0.5 6.990491
v -0 0.5 6.990491
v 0.912769 -13 6.930665
v -0 -13.5 8.997491
v -2.329372 -13.5 8.690824
v -2.676105 -13 6.45818
v -1.809922 0.5 6.752211
v -1.809922 0.5 6.752211
v -0.91277 -13 6.930665
v -2.329372 -13.5 8.690824
v -4.5 -13.5 7.791719
v -4.257069 -13 5.54541
v -3.4965 0.5 6.053606
v -3.4965 0.5 6.053606
v -2.676105 -13 6.45818
v -4.5 -13.5 7.791719
v -6.363961 -13.5 6.361451
v -5.54792 -13 4.254559
v -4.944798 0.5 4.942288
v -4.944798 0.5 4.942288
v -4.257069 -13 5.54541
v -6.363961 -13.5 6.361451
v -6.056116 0.5 3.49399
v -5.54792 -13 4.254559
v -7.794229 -13.5 4.49749
v -7.794229 -13.5 4.49749
v -6.46069 -13 2.673596
v -6.056116 0.5 3.49399
v -6.75472 0.5 1.807412
v -6.46069 -13 2.673596
v -8.693333 -13.5 2.326862
v -8.693333 -13.5 2.326862
v -6.933174 -13 0.91026
v -6.75472 0.5 1.807412
v -6.993001 0.5 -0
v -6.933174 -13 0.91026
v -9 -13.5 -0
v 2.329371 -13.5 8.690824
v 0.912769 -13 6.930665
v 1.809922 0.5 6.752211
v 1.809922 0.5 6.752211
v 2.676105 -13 6.45818
v 2.329371 -13.5 8.690824
v 4.5 -13.5 7.791719
v 2.676105 -13 6.45818
v 3.4965 0.5 6.053606
v 3.4965 0.5 6.053606
v 4.257069 -13 5.545411
v 4.5 -13.5 7.791719
v 6.363961 -13.5 6.361451
v 4.257069 -13 5.545411
v 4.944798 0.5 4.942287
v 4.944798 0.5 4.942287
v 5.54792 -13 4.254559
v 6.363961 -13.5 6.361451
v 7.794229 -13.5 4.49749
v 5.54792 -13 4.254559
v 6.056116 0.5 3.493991
v 6.056116 0.5 3.493991
v 6.46069 -13 2.673596
v 7.794229 -13.5 4.49749
v 8.693333 -13.5 2.326862
v 6.46069 -13 2.673596
v 6.75472 0.5 1.807412
v 8.693333 -13.5 2.326862
v 6.75472 0.5 1.807412
v 6.933175 -13 0.91026
v 9 -13.5 -0
v 6.933175 -13 0.91026
v 6.993001 0.5 -0
v 6.75472 5.3 -1.807412
v 6.993001 5.3 -0
v 6.993001 6.05 -0
v 6.75472 6.05 -1.807412
v 6.056116 5.3 -3.493991
v 6.056116 6.05 -3.493991
v 4.944798 5.3 -4.942287
v 4.944798 6.05 -4.942287
v 3.4965 5.3 -6.053606
v 3.4965 6.05 -6.053606
v 1.809922 5.3 -6.752211
v 1.809922 6.05 -6.752211
v -0 5.3 -6.990491
v 1.809922 5.3 -6.752211
v 1.809922 6.05 -6.752211
v -0 6.05 -6.990491
v -1.809922 5.3 -6.752211
v -1.809922 6.05 -6.752211
v -3.4965 5.3 -6.053606
v -3.4965 6.05 -6.053606
v -4.944798 5.3 -4.942288
v -4.944798 6.05 -4.942288
v -6.056116 5.3 -3.49399
v -6.056116 6.05 -3.49399
v -6.75472 5.3 -1.807412
v -6.75472 6.05 -1.807412
v -6.993001 5.3 -0
v -6.993001 6.05 -0
v 6.75472 5.3 1.807412
v 6.75472 6.05 1.807412
v 6.056116 5.3 3.493991
v 6.056116 6.05 3.493991
v 4.944798 5.3 4.942287
v 4.944798 6.05 4.942287
v 3.4965 5.3 6.053606
v 3.4965 6.05 6.053606
v 1.809922 5.3 6.752211
v 1.809922 6.05 6.752211
v -0 5.3 6.990491
v -0 6.05 6.990491
v -1.809922 5.3 6.752211
v -1.809922 6.05 6.752211
v -3.4965 5.3 6.053606
v -3.4965 6.05 6.053606
v -4.944798 5.3 4.942288
v -4.944798 6.05 4.942288
v -6.056116 5.3 3.49399
v -6.056116 6.05 3.49399
v -6.75472 5.3 1.807412
v -6.75472 6.05 1.807412
v 1.809922 6.05 6.752211
v -0 6.05 6.990491
v 1.340676 6.05 3.23541
v 3.4965 6.05 6.053606
v 4.944798 6.05 4.942287
v 6.056116 6.05 3.493991
v 3.236679 6.05 1.339408
v 6.75472 6.05 1.807412
v 6.993001 6.05 -0
v 3.236679 6.05 -1.339408
v 6.75472 6.05 -1.807412
v 6.056116 6.05 -3.493991
v 4.944798 6.05 -4.942287
v 1.340676 6.05 -3.23541
v 3.4965 6.05 -6.053606
v 1.809922 6.05 -6.752211
v -0 6.05 -6.990491
v -1.340676 6.05 -3.23541
v -1.809922 6.05 -6.752211
v -3.4965 6.05 -6.053606
v -4.944798 6.05 -4.942288
v -3.236679 6.05 -1.339408
v -6.056116 6.05 -3.49399
v -6.75472 6.05 -1.807412
v -6.993001 6.05 -0
v -3.236679 6.05 1.339408
v -6.75472 6.05 1.807412
v -6.056116 6.05 3.49399
v -4.944798 6.05 4.942288
v -3.4965 6.05 6.053606
v -1.340676 6.05 3.23541
v -1.809922 6.05 6.752211
v -1.047605 10.75 3.908263
v -0 6.05 6.990491
v -1.340676 6.05 3.23541
v 1.340676 6.05 3.23541
v -0 6.05 6.990491
v 1.047605 10.75 3.908263
v 4.944798 6.05 4.942287
v 1.340676 6.05 3.23541
v 2.023818 10.75 3.503902
v 3.236679 6.05 1.339408
v 4.944798 6.05 4.942287
v 3.505355 10.75 2.022365
v 6.993001 6.05 -0
v 3.236679 6.05 1.339408
v 3.909716 10.75 1.046153
v 3.236679 6.05 -1.339408
v 6.993001 6.05 -0
v 3.909716 10.75 -1.046153
v 4.944798 6.05 -4.942287
v 3.236679 6.05 -1.339408
v 3.505355 10.75 -2.022365
v 1.340676 6.05 -3.23541
v 4.944798 6.05 -4.942287
v 2.023818 10.75 -3.503902
v -0 6.05 -6.990491
v 1.340676 6.05 -3.23541
v 1.047605 10.75 -3.908263
v -1.340676 6.05 -3.23541
v -0 6.05 -6.990491
v -1.047605 10.75 -3.908263
v -4.944798 6.05 -4.942288
v -1.340676 6.05 -3.23541
v -2.023818 10.75 -3.503902
v -3.236679 6.05 -1.339408
v -4.944798 6.05 -4.942288
v -3.505355 10.75 -2.022365
v -6.993001 6.05 -0
v -3.236679 6.05 -1.339408
v -3.909716 10.75 -1.046153
v -3.236679 6.05 1.339408
v -6.993001 6.05 -0
v -3.909716 10.75 1.046153
v -4.944798 6.05 4.942288
v -3.236679 6.05 1.339408
v -3.505355 10.75 2.022365
v -1.340676 6.05 3.23541
v -4.944798 6.05 4.942288
v -2.023818 10.75 3.503902
v -1.047605 10.75 3.908263
v 1.047605 10.75 3.908263
v -0 6.05 6.990491
v 2.023818 10.75 3.503902
v 3.505355 10.75 2.022365
v 4.944798 6.05 4.942287
v 3.909716 10.75 1.046153
v 3.909716 10.75 -1.046153
v 6.993001 6.05 -0
v 4.944798 6.05 -4.942287
v 3.505355 10.75 -2.022365
v 2.023818 10.75 -3.503902
v -0 6.05 -6.990491
v 1.047605 10.75 -3.908263
v -1.047605 10.75 -3.908263
v -4.944798 6.05 -4.942288
v -2.023818 10.75 -3.503902
v -3.505355 10.75 -2.022365
v -6.993001 6.05 -0
v -3.909716 10.75 -1.046153
v -3.909716 10.75 1.046153
v -3.505355 10.75 2.022365
v -2.023818 10.75 3.503902
v -4.944798 6.05 4.942288
v 0 10.75 3.558952
v -1.047605 10.75 3.908263
v -1.340676 10.75 3.23541
v 1.047605 10.75 3.908263
v 2.517545 10.75 2.51615
v 2.023818 10.75 3.503902
v 1.340676 10.75 3.23541
v 3.505355 10.75 2.022365
v 3.560347 10.75 -0
v 3.909716 10.75 1.046153
v 3.236679 10.75 1.339408
v 3.909716 10.75 -1.046153
v 2.517545 10.75 -2.51615
v 3.505355 10.75 -2.022365
v 3.236679 10.75 -1.339408
v 2.023818 10.75 -3.503902
v 0 10.75 -3.558952
v 1.047605 10.75 -3.908263
v 1.340676 10.75 -3.23541
v -1.047605 10.75 -3.908263
v -2.517545 10.75 -2.51615
v -2.023818 10.75 -3.503902
v -1.340676 10.75 -3.23541
v -3.505355 10.75 -2.022365
v -3.560347 10.75 -0
v -3.909716 10.75 -1.046153
v -3.236679 10.75 -1.339408
v -3.909716 10.75 1.046153
v -2.517545 10.75 2.51615
v -3.505355 10.75 2.022365
v -3.236679 10.75 1.339408
v -2.023818 10.75 3.503902
v -1.340676 10.75 -3.23541
v -3.236679 10.75 1.339408
v -1.340676 10.75 3.23541
v -1.340676 10.75 3.23541
v 1.340676 10.75 3.23541
v 1.340676 10.75 3.23541
v 3.236679 10.75 1.339408
v 3.236679 10.75 1.339408
v 3.236679 10.75 -1.339408
v 3.236679 10.75 -1.339408
v 1.340676 10.75 -3.23541
v 1.340676 10.75 -3.23541
v -1.340676 10.75 -3.23541
v -1.340676 10.75 -3.23541
v -3.236679 10.75 -1.339408
v -3.236679 10.75 -1.339408
v -3.236679 10.75 1.339408
v 0 10.75 3.558952
v -1.340676 10.75 3.23541
v -1.340676 13.5 3.23541
v 0 13.5 3.558952
v 2.517545 10.75 2.51615
v 1.340676 10.75 3.23541
v 1.340676 13.5 3.23541
v 2.517545 13.5 2.51615
v 3.560347 10.75 -0
v 3.236679 10.75 1.339408
v 3.236679 13.5 1.339408
v 3.560347 13.5 -0
v 2.517545 10.75 -2.51615
v 3.236679 10.75 -1.339408
v 3.236679 13.5 -1.339408
v 2.517545 13.5 -2.51615
v 0 10.75 -3.558952
v 1.340676 10.75 -3.23541
v 1.340676 13.5 -3.23541
v 0 13.5 -3.558952
v -2.517545 10.75 -2.51615
v -1.340676 10.75 -3.23541
v -1.340676 13.5 -3.23541
v -2.517545 13.5 -2.51615
v -3.560347 10.75 -0
v -3.236679 10.75 -1.339408
v -3.236679 13.5 -1.339408
v -3.560347 13.5 -0
v -2.517545 10.75 2.51615
v -3.236679 10.75 1.339408
v -3.236679 13.5 1.339408
v -2.517545 13.5 2.51615
v -1.340676 10.75 -3.23541
v -1.340676 13.5 -3.23541
v 0 13.5 3.558952
v -1.340676 13.5 3.23541
v 0 13.5 -0
v 2.517545 13.5 2.51615
v 1.340676 13.5 3.23541
v 3.560347 13.5 -0
v 3.236679 13.5 1.339408
v 2.517545 13.5 -2.51615
v 3.236679 13.5 -1.339408
v 0 13.5 -3.558952
v 1.340676 13.5 -3.23541
v -2.517545 13.5 -2.51615
v -1.340676 13.5 -3.23541
v -3.560347 13.5 -0
v -3.236679 13.5 -1.339408
v -2.517545 13.5 2.51615
v -3.236679 13.5 1.339408
v 1.250658 2.9 4.665785
v -1.250658 2.9 4.665785
v -0 4.15 4.984972
v -0 1.65 4.984972
v 3.416861 2.9 3.415126
v 2.493381 4.15 4.316872
v 2.493381 1.65 4.316872
v 4.66752 2.9 1.248924
v 4.318662 4.15 2.491591
v 4.318662 1.65 2.491591
v -3.416861 2.9 3.415127
v -2.493381 4.15 4.316872
v -2.493381 1.65 4.316872
v -4.667519 2.9 1.248924
v -4.318662 4.15 2.491591
v -4.318662 1.65 2.491591
v -4.986762 4.15 -0
v -4.667519 2.9 -1.248924
v -4.986762 1.65 -0
v -4.318662 4.15 -2.491591
v -3.416861 2.9 -3.415127
v -4.318662 1.65 -2.491591
v -2.493381 4.15 -4.316872
v -1.250658 2.9 -4.665785
v -2.493381 1.65 -4.316872
v 4.318662 4.15 -2.491591
v 3.416861 2.9 -3.415126
v 4.66752 2.9 -1.248924
v 4.318662 1.65 -2.491591
v 2.493381 4.15 -4.316872
v 1.250658 2.9 -4.665785
v 2.493381 1.65 -4.316872
v 4.986762 4.15 -0
v 4.986762 1.65 -0
v -0 4.15 -4.984972
v 1.250658 2.9 -4.665785
v -0 1.65 -4.984972
v 1.538433 0.5 5.739379
v -1.538434 0.5 5.739379
v -4.203078 0.5 4.200945
v -5.741512 0.5 1.5363
v 4.203078 0.5 4.200944
v 5.741512 0.5 1.5363
v -5.741512 0.5 -1.5363
v -4.203078 0.5 -4.200945
v -1.538434 0.5 -5.739379
v 1.538433 0.5 -5.739379
v 2.493381 1.65 -4.316872
v 4.203078 0.5 -4.200944
v 5.741512 0.5 -1.5363
v -1.538434 5.3 -5.739379
v -4.203078 5.3 -4.200945
v -5.741512 5.3 -1.5363
v 2.493381 4.15 -4.316872
v 1.538433 5.3 -5.739379
v 4.203078 5.3 -4.200944
v 5.741512 5.3 -1.5363
v 5.741512 5.3 1.5363
v 4.203078 5.3 4.200944
v 1.538433 5.3 5.739379
v -1.538434 5.3 5.739379
v -4.203078 5.3 4.200945
v -5.741512 5.3 1.5363
v 1.538433 0.5 -5.739379
v -0 0.5 -6.990491
v 3.4965 0.5 -6.053606
v 6.056116 0.5 -3.493991
v 6.993001 0.5 -0
v 6.056116 0.5 3.493991
v 3.4965 0.5 6.053606
v -0 0.5 6.990491
v -3.4965 0.5 6.053606
v -6.056116 0.5 3.49399
v -6.993001 0.5 -0
v -6.056116 0.5 -3.49399
v -3.4965 0.5 -6.053606
v -1.809922 0.5 -6.752211
v 1.809922 0.5 -6.752211
v 1.809922 0.5 -6.752211
v 4.944798 0.5 -4.942287
v 6.75472 0.5 -1.807412
v 6.75472 0.5 1.807412
v 4.944798 0.5 4.942287
v 1.809922 0.5 6.752211
v -1.809922 0.5 6.752211
v -4.944798 0.5 4.942288
v -6.75472 0.5 1.807412
v -6.75472 0.5 -1.807412
v -4.944798 0.5 -4.942288
v 1.538433 5.3 -5.739379
v -0 5.3 -6.990491
v 3.4965 5.3 -6.053606
v 6.056116 5.3 -3.493991
v 6.993001 5.3 -0
v 6.056116 5.3 3.493991
v 3.4965 5.3 6.053606
v -0 5.3 6.990491
v -3.4965 5.3 6.053606
v -6.056116 5.3 3.49399
v -6.993001 5.3 -0
v -6.056116 5.3 -3.49399
v -3.4965 5.3 -6.053606
v -1.809922 5.3 -6.752211
v 1.809922 5.3 -6.752211
v 1.809922 5.3 -6.752211
v 4.944798 5.3 -4.942287
v 6.75472 5.3 -1.807412
v 6.75472 5.3 1.807412
v 4.944798 5.3 4.942287
v 1.809922 5.3 6.752211
v -1.809922 5.3 6.752211
v -4.944798 5.3 4.942288
v -6.75472 5.3 1.807412
v -6.75472 5.3 -1.807412
v -4.944798 5.3 -4.942288
vt 0.200519 0.007790029
vt 0.181243 0.024883986
vt 0.162086 0.007790029
vt 0.142779 0.024883986
vt 0.123124 0.007790029
vt 0.104312 0.024883986
vt 0.08498 0.007790029
vt 0.065842 0.024883986
vt 0.04614 0.007790029
vt 0.027369 0.024883986
vt 0.008059 0.007790029
vt 0.911895 0.024883986
vt 0.892578 0.007790029
vt 0.930757 0.007790029
vt 0.873474 0.024883986
vt 0.854093 0.007790029
vt 0.835 0.024883986
vt 0.815431 0.007790029
vt 0.796527 0.024883986
vt 0.777279 0.007790029
vt 0.758057 0.024883986
vt 0.738783 0.007790029
vt 0.71959 0.024883986
vt 0.699938 0.007790029
vt 0.681126 0.024883986
vt 0.661723 0.007790029
vt 0.200519 0.28228104
vt 0.162086 0.28228104
vt 0.181243 0.024883986
vt 0.123124 0.28228104
vt 0.142779 0.024883986
vt 0.08498 0.28228104
vt 0.104312 0.024883986
vt 0.04614 0.28228104
vt 0.065842 0.024883986
vt 0.008059 0.28228104
vt 0.027369 0.024883986
vt 0.930757 0.28228104
vt 0.892578 0.28228104
vt 0.911895 0.024883986
vt 0.854093 0.28228104
vt 0.873474 0.024883986
vt 0.815431 0.28228104
vt 0.835 0.024883986
vt 0.777279 0.28228104
vt 0.796527 0.024883986
vt 0.738783 0.28228104
vt 0.758057 0.024883986
vt 0.699938 0.28228104
vt 0.71959 0.024883986
vt 0.661723 0.28228104
vt 0.681126 0.024883986
vt 0.892578 0.28228104
vt 0.873474 0.024883986
vt 0.892578 0.007790029
vt 0.892578 0.007790029
vt 0.911895 0.024883986
vt 0.892578 0.28228104
vt 0.854093 0.28228104
vt 0.835 0.024883986
vt 0.854093 0.007790029
vt 0.854093 0.007790029
vt 0.873474 0.024883986
vt 0.854093 0.28228104
vt 0.815431 0.28228104
vt 0.796527 0.024883986
vt 0.815431 0.007790029
vt 0.815431 0.007790029
vt 0.835 0.024883986
vt 0.815431 0.28228104
vt 0.777279 0.28228104
vt 0.758057 0.024883986
vt 0.777279 0.007790029
vt 0.777279 0.007790029
vt 0.796527 0.024883986
vt 0.777279 0.28228104
vt 0.738783 0.007790029
vt 0.758057 0.024883986
vt 0.738783 0.28228104
vt 0.738783 0.28228104
vt 0.71959 0.024883986
vt 0.738783 0.007790029
vt 0.699938 0.007790029
vt 0.71959 0.024883986
vt 0.699938 0.28228104
vt 0.699938 0.28228104
vt 0.681126 0.024883986
vt 0.699938 0.007790029
vt 0.661723 0.007790029
vt 0.681126 0.024883986
vt 0.661723 0.28228104
vt 0.930757 0.28228104
vt 0.911895 0.024883986
vt 0.930757 0.007790029
vt 0.008059 0.007790029
vt 0.027369 0.024883986
vt 0.008059 0.28228104
vt 0.04614 0.28228104
vt 0.027369 0.024883986
vt 0.04614 0.007790029
vt 0.04614 0.007790029
vt 0.065842 0.024883986
vt 0.04614 0.28228104
vt 0.08498 0.28228104
vt 0.065842 0.024883986
vt 0.08498 0.007790029
vt 0.08498 0.007790029
vt 0.104312 0.024883986
vt 0.08498 0.28228104
vt 0.123124 0.28228104
vt 0.104312 0.024883986
vt 0.123124 0.007790029
vt 0.123124 0.007790029
vt 0.142779 0.024883986
vt 0.123124 0.28228104
vt 0.162086 0.28228104
vt 0.142779 0.024883986
vt 0.162086 0.007790029
vt 0.181243 0.024883986
vt 0.162086 0.28228104
vt 0.162086 0.007790029
vt 0.200519 0.28228104
vt 0.181243 0.024883986
vt 0.200519 0.007790029
vt 0.238901 0.007790029
vt 0.219599 0.024883986
vt 0.277105 0.007790029
vt 0.258063 0.024883986
vt 0.315674 0.007790029
vt 0.296531 0.024883986
vt 0.354118 0.007790029
vt 0.335001 0.024883986
vt 0.392626 0.007790029
vt 0.373473 0.024883986
vt 0.431119 0.007790029
vt 0.411947 0.024883986
vt 0.469712 0.007790029
vt 0.450422 0.024883986
vt 0.508132 0.007790029
vt 0.488895 0.024883986
vt 0.546655 0.007790029
vt 0.527368 0.024883986
vt 0.585072 0.007790029
vt 0.565838 0.024883986
vt 0.623448 0.007790029
vt 0.604306 0.024883986
vt 0.64277 0.024883986
vt 0.219599 0.024883986
vt 0.238901 0.28228104
vt 0.258063 0.024883986
vt 0.277105 0.28228104
vt 0.296531 0.024883986
vt 0.315674 0.28228104
vt 0.335001 0.024883986
vt 0.354118 0.28228104
vt 0.373473 0.024883986
vt 0.392626 0.28228104
vt 0.411947 0.024883986
vt 0.431119 0.28228104
vt 0.450422 0.024883986
vt 0.469712 0.28228104
vt 0.488895 0.024883986
vt 0.508132 0.28228104
vt 0.527368 0.024883986
vt 0.546655 0.28228104
vt 0.565838 0.024883986
vt 0.585072 0.28228104
vt 0.604306 0.024883986
vt 0.623448 0.28228104
vt 0.64277 0.024883986
vt 0.431119 0.007790029
vt 0.450422 0.024883986
vt 0.431119 0.28228104
vt 0.431119 0.28228104
vt 0.411947 0.024883986
vt 0.431119 0.007790029
vt 0.469712 0.007790029
vt 0.488895 0.024883986
vt 0.469712 0.28228104
vt 0.469712 0.28228104
vt 0.450422 0.024883986
vt 0.469712 0.007790029
vt 0.508132 0.007790029
vt 0.527368 0.024883986
vt 0.508132 0.28228104
vt 0.508132 0.28228104
vt 0.488895 0.024883986
vt 0.508132 0.007790029
vt 0.546655 0.007790029
vt 0.565838 0.024883986
vt 0.546655 0.28228104
vt 0.546655 0.28228104
vt 0.527368 0.024883986
vt 0.546655 0.007790029
vt 0.585072 0.28228104
vt 0.565838 0.024883986
vt 0.585072 0.007790029
vt 0.585072 0.007790029
vt 0.604306 0.024883986
vt 0.585072 0.28228104
vt 0.623448 0.28228104
vt 0.604306 0.024883986
vt 0.623448 0.007790029
vt 0.623448 0.007790029
vt 0.64277 0.024883986
vt 0.623448 0.28228104
vt 0.661723 0.28228104
vt 0.64277 0.024883986
vt 0.661723 0.007790029
vt 0.392626 0.007790029
vt 0.411947 0.024883986
vt 0.392626 0.28228104
vt 0.392626 0.28228104
vt 0.373473 0.024883986
vt 0.392626 0.007790029
vt 0.354118 0.007790029
vt 0.373473 0.024883986
vt 0.354118 0.28228104
vt 0.354118 0.28228104
vt 0.335001 0.024883986
vt 0.354118 0.007790029
vt 0.315674 0.007790029
vt 0.335001 0.024883986
vt 0.315674 0.28228104
vt 0.315674 0.28228104
vt 0.296531 0.024883986
vt 0.315674 0.007790029
vt 0.277105 0.007790029
vt 0.296531 0.024883986
vt 0.277105 0.28228104
vt 0.277105 0.28228104
vt 0.258063 0.024883986
vt 0.277105 0.007790029
vt 0.238901 0.007790029
vt 0.258063 0.024883986
vt 0.238901 0.28228104
vt 0.238901 0.007790029
vt 0.238901 0.28228104
vt 0.219599 0.024883986
vt 0.200519 0.007790029
vt 0.219599 0.024883986
vt 0.200519 0.28228104
vt 0.162086 0.466191
vt 0.200519 0.466191
vt 0.200519 0.491961
vt 0.162086 0.491961
vt 0.123124 0.466191
vt 0.123124 0.491961
vt 0.08498 0.466191
vt 0.08498 0.491961
vt 0.04614 0.466191
vt 0.04614 0.491961
vt 0.008059 0.466191
vt 0.008059 0.491961
vt 0.892578 0.466191
vt 0.930757 0.466191
vt 0.930757 0.491961
vt 0.892578 0.491961
vt 0.854093 0.466191
vt 0.854093 0.491961
vt 0.815431 0.466191
vt 0.815431 0.491961
vt 0.777279 0.466191
vt 0.777279 0.491961
vt 0.738783 0.466191
vt 0.738783 0.491961
vt 0.699938 0.466191
vt 0.699938 0.491961
vt 0.661723 0.466191
vt 0.661723 0.491961
vt 0.238901 0.466191
vt 0.238901 0.491961
vt 0.277105 0.466191
vt 0.277105 0.491961
vt 0.315674 0.466191
vt 0.315674 0.491961
vt 0.354118 0.466191
vt 0.354118 0.491961
vt 0.392626 0.466191
vt 0.392626 0.491961
vt 0.431119 0.466191
vt 0.431119 0.491961
vt 0.469712 0.466191
vt 0.469712 0.491961
vt 0.508132 0.466191
vt 0.508132 0.491961
vt 0.546655 0.466191
vt 0.546655 0.491961
vt 0.585072 0.466191
vt 0.585072 0.491961
vt 0.623448 0.466191
vt 0.623448 0.491961
vt 0.144684 1.54872096
vt 0.079979 1.557243
vt 0.127909 1.42295003
vt 0.204979 1.52373695
vt 0.256756 1.48399305
vt 0.296486 1.43219805
vt 0.195691 1.35514295
vt 0.321461 1.371881
vt 0.329979 1.30724204
vt 0.195691 1.259341
vt 0.321461 1.24260402
vt 0.296486 1.18228698
vt 0.256756 1.13049197
vt 0.127909 1.191535
vt 0.204979 1.09074795
vt 0.144684 1.06576395
vt 0.079979 1.057242036
vt 0.03205 1.191535
vt 0.015275 1.06576395
vt -0.045021 1.09074795
vt -0.096797 1.13049197
vt -0.035732 1.259341
vt -0.136527 1.18228698
vt -0.161502 1.24260402
vt -0.170021 1.30724204
vt -0.035732 1.35514295
vt -0.161502 1.371881
vt -0.136527 1.43219805
vt -0.096797 1.48399305
vt -0.045021 1.52373695
vt 0.03205 1.42295003
vt 0.015275 1.54872096
vt 0.598225 0.70275998
vt 0.557847 0.572204
vt 0.618136 0.572204
vt 0.497193 0.572204
vt 0.557847 0.572204
vt 0.51754 0.70275998
vt 0.436668 0.572204
vt 0.497193 0.572204
vt 0.477197 0.70275998
vt 0.376151 0.572204
vt 0.436668 0.572204
vt 0.39652 0.70275998
vt 0.315697 0.572204
vt 0.376151 0.572204
vt 0.356186 0.70275998
vt 0.255243 0.572204
vt 0.315697 0.572204
vt 0.275635 0.70275998
vt 0.194727 0.572204
vt 0.255243 0.572204
vt 0.235301 0.70275998
vt 0.134343 0.572204
vt 0.194727 0.572204
vt 0.154624 0.70275998
vt 0.073808 0.572204
vt 0.134343 0.572204
vt 0.114226 0.70275998
vt 0.013282 0.572204
vt 0.073808 0.572204
vt 0.033525 0.70275998
vt 0.920713 0.572204
vt 0.981239 0.572204
vt 0.96114 0.70275998
vt 0.860197 0.572204
vt 0.920713 0.572204
vt 0.880463 0.70275998
vt 0.799743 0.572204
vt 0.860197 0.572204
vt 0.840129 0.70275998
vt 0.739289 0.572204
vt 0.799743 0.572204
vt 0.759579 0.70275998
vt 0.678773 0.572204
vt 0.739289 0.572204
vt 0.719245 0.70275998
vt 0.618136 0.572204
vt 0.678773 0.572204
vt 0.638567 0.70275998
vt 0.598225 0.70275998
vt 0.51754 0.70275998
vt 0.557847 0.572204
vt 0.477197 0.70275998
vt 0.39652 0.70275998
vt 0.436668 0.572204
vt 0.356186 0.70275998
vt 0.275635 0.70275998
vt 0.315697 0.572204
vt 0.194727 0.572204
vt 0.235301 0.70275998
vt 0.154624 0.70275998
vt 0.073808 0.572204
vt 0.114226 0.70275998
vt 0.033525 0.70275998
vt 0.920713 0.572204
vt 0.96114 0.70275998
vt 0.880463 0.70275998
vt 0.799743 0.572204
vt 0.840129 0.70275998
vt 0.759579 0.70275998
vt 0.719245 0.70275998
vt 0.638567 0.70275998
vt 0.678773 0.572204
vt 0.557847 0.719162
vt 0.598225 0.70275998
vt 0.618136 0.719162
vt 0.51754 0.70275998
vt 0.436668 0.719162
vt 0.477197 0.70275998
vt 0.497193 0.719162
vt 0.39652 0.70275998
vt 0.315697 0.719162
vt 0.356186 0.70275998
vt 0.376151 0.719162
vt 0.275635 0.70275998
vt 0.194727 0.719162
vt 0.235301 0.70275998
vt 0.255243 0.719162
vt 0.154624 0.70275998
vt 0.073808 0.719162
vt 0.114226 0.70275998
vt 0.134201 0.719162
vt 0.033525 0.70275998
vt 0.920713 0.719162
vt 0.96114 0.70275998
vt 0.981239 0.719162
vt 0.880463 0.70275998
vt 0.799743 0.719162
vt 0.840129 0.70275998
vt 0.860197 0.719162
vt 0.759579 0.70275998
vt 0.678773 0.719162
vt 0.719245 0.70275998
vt 0.739289 0.719162
vt 0.638567 0.70275998
vt 0.013282 0.719162
vt 0.739289 0.70275998
vt 0.618136 0.70275998
vt 0.618136 0.70275998
vt 0.497193 0.70275998
vt 0.497193 0.70275998
vt 0.376151 0.70275998
vt 0.376151 0.70275998
vt 0.255243 0.70275998
vt 0.255243 0.70275998
vt 0.134343 0.70275998
vt 0.134343 0.70275998
vt 0.013282 0.70275998
vt 0.981239 0.70275998
vt 0.860197 0.70275998
vt 0.860197 0.70275998
vt 0.739289 0.70275998
vt 0.557847 0.719162
vt 0.618136 0.719162
vt 0.618136 0.85213
vt 0.557847 0.85222
vt 0.436668 0.719162
vt 0.497193 0.719162
vt 0.497193 0.85230303
vt 0.436668 0.85230303
vt 0.315697 0.719162
vt 0.376151 0.719162
vt 0.376151 0.85230303
vt 0.315697 0.85230303
vt 0.194727 0.719162
vt 0.255243 0.719162
vt 0.255243 0.85230303
vt 0.194727 0.85230303
vt 0.073808 0.719162
vt 0.134201 0.719162
vt 0.134201 0.85230303
vt 0.073808 0.85230303
vt 0.920713 0.719162
vt 0.981239 0.719162
vt 0.981239 0.85230303
vt 0.920713 0.85230303
vt 0.799743 0.719162
vt 0.860197 0.719162
vt 0.860197 0.85230303
vt 0.799743 0.85230303
vt 0.678773 0.719162
vt 0.739289 0.719162
vt 0.739289 0.85230303
vt 0.678773 0.85230303
vt 0.013282 0.719162
vt 0.013282 0.85230303
vt 0.557847 0.85222
vt 0.618136 0.85213
vt 0.585205 1.0031659603
vt 0.456206 0.913524985
vt 0.501692 0.87308103
vt 0.430588 1.030985951
vt 0.434174 0.970265985
vt 0.495543 1.13215101
vt 0.455114 1.08664799
vt 0.613024 1.15778303
vt 0.552274 1.15420198
vt 0.714203 1.092807055
vt 0.668717 1.13325095
vt 0.739821 0.975346029
vt 0.736234 1.036064982
vt 0.674866 0.87418199
vt 0.715295 0.919685006
vt 0.392626 0.374272
vt 0.469712 0.374272
vt 0.431119 0.40700603
vt 0.431119 0.341538
vt 0.315674 0.374272
vt 0.354118 0.40700603
vt 0.354118 0.341538
vt 0.238901 0.374272
vt 0.277105 0.40700603
vt 0.277105 0.341538
vt 0.546655 0.374272
vt 0.508132 0.40700603
vt 0.508132 0.341538
vt 0.623448 0.374272
vt 0.585072 0.40700603
vt 0.585072 0.341538
vt 0.661723 0.40700603
vt 0.699938 0.374272
vt 0.661723 0.341538
vt 0.738783 0.40700603
vt 0.777279 0.374272
vt 0.738783 0.341538
vt 0.815431 0.40700603
vt 0.854093 0.374272
vt 0.815431 0.341538
vt 0.123124 0.40700603
vt 0.08498 0.374272
vt 0.162086 0.374272
vt 0.123124 0.341538
vt 0.04614 0.40700603
vt 0.008059 0.374272
vt 0.04614 0.341538
vt 0.200519 0.40700603
vt 0.200519 0.341538
vt 0.892578 0.40700603
vt 0.930757 0.374272
vt 0.892578 0.341538
vt 0.392626 0.312191
vt 0.469712 0.312191
vt 0.546655 0.312191
vt 0.623448 0.312191
vt 0.315674 0.312191
vt 0.238901 0.312191
vt 0.699938 0.312191
vt 0.777279 0.312191
vt 0.854093 0.312191
vt 0.930757 0.312191
vt 0.969658 0.341538
vt 0.08498 0.312191
vt 0.162086 0.312191
vt 0.854093 0.43628204
vt 0.777279 0.43628204
vt 0.699938 0.43628204
vt 0.969658 0.40700603
vt 0.930757 0.43628204
vt 0.08498 0.43628204
vt 0.162086 0.43628204
vt 0.238901 0.43628204
vt 0.315674 0.43628097
vt 0.392626 0.43628204
vt 0.469712 0.43628097
vt 0.546655 0.43628204
vt 0.623448 0.43628204
vt 0.008059 0.312191
vt 0.892578 0.28228104
vt 0.04614 0.28228104
vt 0.123124 0.28228104
vt 0.200519 0.28228104
vt 0.277105 0.28228104
vt 0.354118 0.28228104
vt 0.431119 0.28228104
vt 0.508132 0.28228104
vt 0.585072 0.28228104
vt 0.661723 0.28228104
vt 0.738783 0.28228104
vt 0.815431 0.28228104
vt 0.854093 0.28228104
vt 0.930757 0.28228104
vt 0.008059 0.28228104
vt 0.08498 0.28228104
vt 0.162086 0.28228104
vt 0.238901 0.28228104
vt 0.315674 0.28228104
vt 0.392626 0.28228104
vt 0.469712 0.28228104
vt 0.546655 0.28228104
vt 0.623448 0.28228104
vt 0.699938 0.28228104
vt 0.777279 0.28228104
vt 0.008059 0.43628204
vt 0.892578 0.466191
vt 0.04614 0.466191
vt 0.123124 0.466191
vt 0.200519 0.466191
vt 0.277105 0.466191
vt 0.354118 0.466191
vt 0.431119 0.466191
vt 0.508132 0.466191
vt 0.585072 0.466191
vt 0.661723 0.466191
vt 0.738783 0.466191
vt 0.815431 0.466191
vt 0.854093 0.466191
vt 0.930757 0.466191
vt 0.008059 0.466191
vt 0.08498 0.466191
vt 0.162086 0.466191
vt 0.238901 0.466191
vt 0.315674 0.466191
vt 0.392626 0.466191
vt 0.469712 0.466191
vt 0.546655 0.466191
vt 0.623448 0.466191
vt 0.699938 0.466191
vt 0.777279 0.466191
vn 0.248751 0.968567 -0
vn 0.248618 0.968047 -0.032766
vn 0.240286 0.968563 -0.064404
vn 0.231698 0.968042 -0.095972
vn 0.215446 0.968561 -0.124388
vn 0.198963 0.968042 -0.15267
vn 0.175911 0.968561 -0.175911
vn 0.15267 0.968042 -0.198963
vn 0.124388 0.968561 -0.215446
vn 0.095972 0.968042 -0.231698
vn 0.064388 0.968561 -0.240299
vn 0.032734 0.968042 -0.248642
vn -0 0.968561 -0.248775
vn 0.064388 0.968561 -0.240299
vn -0.032734 0.968042 -0.248642
vn -0.064388 0.968561 -0.240299
vn -0.095972 0.968042 -0.231697
vn -0.124388 0.968561 -0.215446
vn -0.15267 0.968042 -0.198963
vn -0.175911 0.968561 -0.175911
vn -0.198963 0.968042 -0.15267
vn -0.215446 0.968561 -0.124388
vn -0.231698 0.968042 -0.095972
vn -0.240286 0.968563 -0.064404
vn -0.248618 0.968047 -0.032766
vn -0.248751 0.968567 -0
vn 0.99999 0.004458 -0
vn 0.965893 0.004464 -0.258903
vn 0.991412 0.004419 -0.130703
vn 0.866017 0.00447 -0.499995
vn 0.92387 0.004431 -0.38268
vn 0.7071 0.00447 -0.7071
vn 0.793345 0.004432 -0.608756
vn 0.499995 0.00447 -0.866017
vn 0.608756 0.004432 -0.793345
vn 0.258817 0.00447 -0.965916
vn 0.38268 0.004432 -0.92387
vn 0.258817 0.00447 -0.965916
vn 0 0.00447 -0.99999
vn 0.130525 0.004431 -0.991435
vn -0.258817 0.00447 -0.965916
vn -0.130525 0.004432 -0.991435
vn -0.499995 0.00447 -0.866017
vn -0.38268 0.004431 -0.92387
vn -0.7071 0.00447 -0.7071
vn -0.608755 0.004431 -0.793346
vn -0.866017 0.00447 -0.499995
vn -0.793346 0.004432 -0.608755
vn -0.965893 0.004464 -0.258903
vn -0.92387 0.004432 -0.38268
vn -0.99999 0.004458 -0
vn -0.991412 0.004419 -0.130703
vn -0.90774 0.059534 -0.415287
vn -0.90774 0.059534 -0.415287
vn -0.90774 0.059534 -0.415287
vn 0.90774 0.059534 -0.415287
vn 0.90774 0.059534 -0.415287
vn 0.90774 0.059534 -0.415287
vn -0.984294 0.059534 -0.166195
vn -0.984294 0.059534 -0.166195
vn -0.984294 0.059534 -0.166195
vn 0.769326 0.059534 -0.636077
vn 0.769326 0.059534 -0.636077
vn 0.769326 0.059534 -0.636077
vn -0.99377 0.059534 0.094222
vn -0.99377 0.059534 0.094222
vn -0.99377 0.059534 0.094222
vn 0.578483 0.059534 -0.813519
vn 0.578483 0.059534 -0.813519
vn 0.578483 0.059534 -0.813519
vn -0.935521 0.059534 0.348217
vn -0.935521 0.059534 0.348217
vn -0.935521 0.059534 0.348217
vn 0.348217 0.059534 -0.935521
vn 0.348217 0.059534 -0.935521
vn 0.348217 0.059534 -0.935521
vn 0.094222 0.059534 -0.99377
vn 0.094222 0.059534 -0.99377
vn 0.094222 0.059534 -0.99377
vn -0.813519 0.059534 0.578483
vn -0.813519 0.059534 0.578483
vn -0.813519 0.059534 0.578483
vn -0.166195 0.059534 -0.984294
vn -0.166195 0.059534 -0.984294
vn -0.166195 0.059534 -0.984294
vn -0.636077 0.059534 0.769326
vn -0.636077 0.059534 0.769326
vn -0.636077 0.059534 0.769326
vn -0.414345 0.059399 -0.908179
vn -0.414345 0.059399 -0.908179
vn -0.414345 0.059399 -0.908179
vn -0.769326 0.059534 -0.636076
vn -0.769326 0.059534 -0.636076
vn -0.769326 0.059534 -0.636076
vn 0.984294 0.059534 -0.166196
vn 0.984294 0.059534 -0.166196
vn 0.984294 0.059534 -0.166196
vn -0.578483 0.059534 -0.813519
vn -0.578483 0.059534 -0.813519
vn -0.578483 0.059534 -0.813519
vn 0.99377 0.059534 0.094221
vn 0.99377 0.059534 0.094221
vn 0.99377 0.059534 0.094221
vn -0.348217 0.059534 -0.935521
vn -0.348217 0.059534 -0.935521
vn -0.348217 0.059534 -0.935521
vn 0.935521 0.059534 0.348217
vn 0.935521 0.059534 0.348217
vn 0.935521 0.059534 0.348217
vn -0.094222 0.059534 -0.99377
vn -0.094222 0.059534 -0.99377
vn -0.094222 0.059534 -0.99377
vn 0.813519 0.059534 0.578483
vn 0.813519 0.059534 0.578483
vn 0.813519 0.059534 0.578483
vn 0.166196 0.059534 -0.984294
vn 0.166196 0.059534 -0.984294
vn 0.166196 0.059534 -0.984294
vn 0.636077 0.059534 0.769326
vn 0.636077 0.059534 0.769326
vn 0.636077 0.059534 0.769326
vn 0.414345 0.059399 -0.908179
vn 0.414345 0.059399 -0.908179
vn 0.414345 0.059399 -0.908179
vn 0.240286 0.968563 0.064404
vn 0.248618 0.968047 0.032766
vn 0.215446 0.968561 0.124388
vn 0.231698 0.968042 0.095972
vn 0.175911 0.968561 0.175911
vn 0.198963 0.968042 0.15267
vn 0.124388 0.968561 0.215446
vn 0.15267 0.968042 0.198963
vn 0.064388 0.968561 0.240299
vn 0.095972 0.968042 0.231698
vn -0 0.968561 0.248775
vn 0.032734 0.968042 0.248642
vn -0.064388 0.968561 0.240299
vn -0.032734 0.968042 0.248642
vn -0.124388 0.968561 0.215446
vn -0.095972 0.968042 0.231697
vn -0.175911 0.968561 0.175911
vn -0.15267 0.968042 0.198963
vn -0.215446 0.968561 0.124388
vn -0.198963 0.968042 0.15267
vn -0.240286 0.968563 0.064404
vn -0.231698 0.968042 0.095972
vn -0.248618 0.968047 0.032766
vn 0.991412 0.004419 0.130703
vn 0.965893 0.004464 0.258903
vn 0.92387 0.004431 0.38268
vn 0.866017 0.00447 0.499995
vn 0.793345 0.004432 0.608756
vn 0.7071 0.00447 0.7071
vn 0.608756 0.004432 0.793345
vn 0.499995 0.00447 0.866017
vn 0.38268 0.004432 0.92387
vn 0.258817 0.00447 0.965916
vn 0.130525 0.004431 0.991435
vn 0 0.00447 0.99999
vn -0.130525 0.004432 0.991435
vn -0.258817 0.00447 0.965916
vn -0.38268 0.004431 0.92387
vn -0.499995 0.00447 0.866017
vn -0.608755 0.004431 0.793346
vn -0.7071 0.00447 0.7071
vn -0.793346 0.004432 0.608755
vn -0.866017 0.00447 0.499995
vn -0.92387 0.004432 0.38268
vn -0.965893 0.004464 0.258903
vn -0.991412 0.004419 0.130703
vn -0.90774 0.059534 0.415287
vn -0.90774 0.059534 0.415287
vn -0.90774 0.059534 0.415287
vn 0.90774 0.059534 0.415287
vn 0.90774 0.059534 0.415287
vn 0.90774 0.059534 0.415287
vn -0.984294 0.059534 0.166195
vn -0.984294 0.059534 0.166195
vn -0.984294 0.059534 0.166195
vn 0.769326 0.059534 0.636077
vn 0.769326 0.059534 0.636077
vn 0.769326 0.059534 0.636077
vn -0.99377 0.059534 -0.094222
vn -0.99377 0.059534 -0.094222
vn -0.99377 0.059534 -0.094222
vn 0.578483 0.059534 0.813519
vn 0.578483 0.059534 0.813519
vn 0.578483 0.059534 0.813519
vn -0.935521 0.059534 -0.348217
vn -0.935521 0.059534 -0.348217
vn -0.935521 0.059534 -0.348217
vn 0.348217 0.059534 0.935521
vn 0.348217 0.059534 0.935521
vn 0.348217 0.059534 0.935521
vn 0.094222 0.059534 0.99377
vn 0.094222 0.059534 0.99377
vn 0.094222 0.059534 0.99377
vn -0.813519 0.059534 -0.578483
vn -0.813519 0.059534 -0.578483
vn -0.813519 0.059534 -0.578483
vn -0.166195 0.059534 0.984294
vn -0.166195 0.059534 0.984294
vn -0.166195 0.059534 0.984294
vn -0.636077 0.059534 -0.769326
vn -0.636077 0.059534 -0.769326
vn -0.636077 0.059534 -0.769326
vn -0.414345 0.059399 0.908179
vn -0.414345 0.059399 0.908179
vn -0.414345 0.059399 0.908179
vn -0.769326 0.059534 0.636076
vn -0.769326 0.059534 0.636076
vn -0.769326 0.059534 0.636076
vn 0.984294 0.059534 0.166196
vn 0.984294 0.059534 0.166196
vn 0.984294 0.059534 0.166196
vn -0.578483 0.059534 0.813519
vn -0.578483 0.059534 0.813519
vn -0.578483 0.059534 0.813519
vn 0.99377 0.059534 -0.094221
vn 0.99377 0.059534 -0.094221
vn 0.99377 0.059534 -0.094221
vn -0.348217 0.059534 0.935521
vn -0.348217 0.059534 0.935521
vn -0.348217 0.059534 0.935521
vn 0.935521 0.059534 -0.348217
vn 0.935521 0.059534 -0.348217
vn 0.935521 0.059534 -0.348217
vn -0.094222 0.059534 0.99377
vn -0.094222 0.059534 0.99377
vn -0.094222 0.059534 0.99377
vn 0.813519 0.059534 -0.578483
vn 0.813519 0.059534 -0.578483
vn 0.813519 0.059534 -0.578483
vn 0.166196 0.059534 0.984294
vn 0.166196 0.059534 0.984294
vn 0.166196 0.059534 0.984294
vn 0.636077 0.059534 -0.769326
vn 0.636077 0.059534 -0.769326
vn 0.636077 0.059534 -0.769326
vn 0.414345 0.059399 0.908179
vn 0.414345 0.059399 0.908179
vn 0.414345 0.059399 0.908179
vn 0.976318 0 -0.216339
vn 0.999036 0 0.043903
vn 0.999036 0 -0.043903
vn 0.953632 0 -0.300975
vn 0.887114 0 -0.461551
vn 0.843271 0 -0.537488
vn 0.737428 0 -0.675426
vn 0.675426 0 -0.737428
vn 0.537488 0 -0.843271
vn 0.461551 0 -0.887114
vn 0.300918 0 -0.95365
vn 0.216222 0 -0.976344
vn 0.043842 0 -0.999038
vn 0.300918 0 -0.95365
vn 0.216222 0 -0.976344
vn -0.043842 0 -0.999038
vn -0.216222 0 -0.976344
vn -0.300918 0 -0.95365
vn -0.461551 0 -0.887114
vn -0.537488 0 -0.843272
vn -0.675426 0 -0.737428
vn -0.737428 0 -0.675426
vn -0.843272 0 -0.537488
vn -0.887114 0 -0.461551
vn -0.953632 0 -0.300975
vn -0.976318 0 -0.21634
vn -0.999036 0 -0.043903
vn -0.999036 0 0.043903
vn 0.953632 0 0.300975
vn 0.976318 0 0.216339
vn 0.843271 0 0.537488
vn 0.887114 0 0.461551
vn 0.675426 0 0.737428
vn 0.737428 0 0.675426
vn 0.461551 0 0.887114
vn 0.537488 0 0.843271
vn 0.216222 0 0.976344
vn 0.300918 0 0.95365
vn -0.043842 0 0.999038
vn 0.043842 0 0.999038
vn -0.300918 0 0.95365
vn -0.216222 0 0.976344
vn -0.537488 0 0.843272
vn -0.461551 0 0.887114
vn -0.737428 0 0.675426
vn -0.675426 0 0.737428
vn -0.887114 0 0.461551
vn -0.843272 0 0.537488
vn -0.976318 0 0.21634
vn -0.953632 0 0.300975
vn 0 1 -0
vn 0 1 -0
vn 0 1 -0
vn 0 1 -0
vn 0 1 -0
vn 0 1 -0
vn 0 1 -0
vn 0 1 -0
vn 0 1 -0
vn 0 1 -0
vn 0 1 -0
vn 0 1 -0
vn 0 1 -0
vn 0 1 -0
vn 0 1 -0
vn 0 1 -0
vn 0 1 -0
vn 0 1 -0
vn 0 1 -0
vn 0 1 -0
vn 0 1 -0
vn 0 1 -0
vn 0 1 -0
vn 0 1 -0
vn 0 1 -0
vn 0 1 -0
vn 0 1 -0
vn 0 1 -0
vn 0 1 -0
vn 0 1 -0
vn 0 1 -0
vn 0 1 -0
vn -0.929813 0.005297 0.367993
vn -0.941723 0.010588 0.336223
vn -0.929813 0.005297 0.367993
vn 0.929813 0.005297 0.367993
vn 0.941723 0.010588 0.336223
vn 0.929813 0.005297 0.367993
vn -0.427993 0.010583 0.90372
vn -0.397124 0.005294 0.91775
vn -0.397124 0.005294 0.91775
vn 0.917602 0.005301 -0.397464
vn 0.903542 0.010595 -0.428368
vn 0.917602 0.005301 -0.397464
vn 0.335842 0.010675 0.941858
vn 0.367866 0.00534 0.929864
vn 0.367866 0.00534 0.929864
vn 0.367866 0.00534 -0.929864
vn 0.335842 0.010675 -0.941858
vn 0.367866 0.00534 -0.929864
vn 0.903542 0.010595 0.428368
vn 0.917602 0.005301 0.397464
vn 0.917602 0.005301 0.397464
vn -0.397124 0.005294 -0.91775
vn -0.427993 0.010583 -0.90372
vn -0.397124 0.005294 -0.91775
vn 0.941723 0.010588 -0.336223
vn 0.929813 0.005297 -0.367993
vn 0.929813 0.005297 -0.367993
vn -0.929813 0.005297 -0.367993
vn -0.941723 0.010588 -0.336223
vn -0.929813 0.005297 -0.367993
vn 0.427993 0.010583 -0.90372
vn 0.397124 0.005294 -0.91775
vn 0.397124 0.005294 -0.91775
vn -0.917602 0.005301 0.397464
vn -0.903542 0.010595 0.428368
vn -0.917602 0.005301 0.397464
vn -0.335842 0.010675 -0.941858
vn -0.367866 0.00534 -0.929864
vn -0.367866 0.00534 -0.929864
vn -0.367866 0.00534 0.929864
vn -0.335842 0.010675 0.941858
vn -0.367866 0.00534 0.929864
vn -0.903542 0.010595 -0.428368
vn -0.917602 0.005301 -0.397464
vn -0.917602 0.005301 -0.397464
vn 0.397124 0.005294 0.91775
vn 0.427993 0.010583 0.90372
vn 0.397124 0.005294 0.91775
vn 0 0.548389 0.836223
vn 0 0.548389 0.836223
vn 0 0.548389 0.836223
vn 0.591281 0.548428 0.591281
vn 0.591281 0.548428 0.591281
vn 0.591281 0.548428 0.591281
vn 0.836137 0.548521 -0
vn 0.836137 0.548521 -0
vn 0.836137 0.548521 -0
vn 0.591281 0.548428 -0.591281
vn 0.591281 0.548428 -0.591281
vn 0.591281 0.548428 -0.591281
vn 0 0.548389 -0.836223
vn 0 0.548389 -0.836223
vn 0 0.548389 -0.836223
vn -0.591281 0.548428 -0.591281
vn -0.591281 0.548428 -0.591281
vn -0.591281 0.548428 -0.591281
vn -0.836137 0.548521 -0
vn -0.836137 0.548521 -0
vn -0.836137 0.548521 -0
vn -0.591281 0.548428 0.591281
vn -0.591281 0.548428 0.591281
vn -0.591281 0.548428 0.591281
vn 0 1 -0
vn 0 1 -0
vn 0 1 -0
vn 0 1 -0
vn 0 1 -0
vn 0 1 -0
vn 0 1 -0
vn 0 1 -0
vn 0 1 -0
vn 0 1 -0
vn 0 1 -0
vn 0 1 -0
vn 0 1 -0
vn 0 1 -0
vn 0 1 -0
vn 0 1 -0
vn 0 1 -0
vn 0 1 -0
vn 0 1 -0
vn 0 1 -0
vn 0 1 -0
vn 0 1 -0
vn 0 1 -0
vn 0 1 -0
vn 0 1 -0
vn 0 1 -0
vn 0 1 -0
vn 0 1 -0
vn 0 1 -0
vn 0 1 -0
vn 0 1 -0
vn 0 1 -0
vn 0 1 -0
vn -0.930579 0 -0.366092
vn 0.365788 0 0.930698
vn -0.916808 -0 0.399329
vn 0.916808 -0 0.399329
vn -0.365788 0 0.930698
vn 0.930579 0 -0.366091
vn 0.399448 0 0.916756
vn 0.399448 0 -0.916756
vn 0.930579 0 0.366091
vn -0.365788 0 -0.930698
vn 0.916808 -0 -0.399329
vn -0.916808 -0 -0.399329
vn 0.365788 0 -0.930698
vn -0.930579 0 0.366092
vn -0.399448 0 -0.916756
vn -0.399448 0 0.916756
vn -0.080183 0 0.99678
vn -0.43049 0 0.902595
vn -0.333819 0 0.942637
vn 0.080183 0 0.99678
vn 0.648136 0 0.761524
vn 0.333818 0 0.942637
vn 0.43049 0 0.902595
vn 0.761544 0 0.648113
vn 0.996772 0 0.08029
vn 0.902561 0 0.430562
vn 0.942572 0 0.334002
vn 0.996772 0 -0.08029
vn 0.761544 0 -0.648113
vn 0.942572 0 -0.334002
vn 0.902561 0 -0.430562
vn 0.648136 0 -0.761524
vn 0.080183 0 -0.99678
vn 0.43049 0 -0.902595
vn 0.333819 0 -0.942637
vn -0.080183 0 -0.99678
vn -0.648137 0 -0.761524
vn -0.333819 0 -0.942637
vn -0.43049 0 -0.902595
vn -0.761544 0 -0.648113
vn -0.996772 0 -0.08029
vn -0.902561 0 -0.430562
vn -0.942572 0 -0.334002
vn -0.996772 0 0.08029
vn -0.761544 0 0.648113
vn -0.942572 0 0.334002
vn -0.902561 0 0.430562
vn -0.648137 0 0.761524
vn -0.333819 0 -0.942637
vn -0.43049 0 -0.902595
vn 0 1 -0
vn 0 1 -0
vn 0 1 -0
vn 0 1 -0
vn 0 1 -0
vn 0 1 -0
vn 0 1 -0
vn 0 1 -0
vn 0 1 -0
vn 0 1 -0
vn 0 1 -0
vn 0 1 -0
vn 0 1 -0
vn 0 1 -0
vn 0 1 -0
vn 0 1 -0
vn 0 1 -0
vn 0.258819 -0 0.965926
vn -0.258819 -0 0.965926
vn 0 -0.390614 0.920555
vn -0 0.390614 0.920555
vn 0.707106 -0 0.707107
vn 0.460274 -0.390627 0.797219
vn 0.460274 0.390627 0.797219
vn 0.965909 -0 0.25888
vn 0.797177 -0.390671 0.460311
vn 0.797177 0.390671 0.460311
vn -0.707107 -0 0.707107
vn -0.460273 -0.390627 0.797219
vn -0.460274 0.390627 0.797219
vn -0.96591 -0 0.25888
vn -0.797177 -0.390671 0.460311
vn -0.797177 0.390671 0.460311
vn -0.920504 -0.390732 -0
vn -0.96591 -0 -0.25888
vn -0.920504 0.390732 -0
vn -0.797177 -0.390671 -0.460311
vn -0.707107 -0 -0.707107
vn -0.797177 0.390671 -0.460311
vn -0.460273 -0.390627 -0.797219
vn -0.258819 -0 -0.965926
vn -0.460274 0.390627 -0.797219
vn 0.797177 -0.390671 -0.460311
vn 0.707107 -0 -0.707107
vn 0.965909 -0 -0.25888
vn 0.797177 0.390671 -0.460311
vn 0.460274 -0.390627 -0.797219
vn 0.258819 -0 -0.965926
vn 0.460274 0.390627 -0.797219
vn 0.920504 -0.390732 -0
vn 0.920504 0.390732 -0
vn -0 -0.390614 -0.920555
vn 0.258819 -0 -0.965926
vn -0 0.390614 -0.920555
vn 0.096507 0.927882 0.36017
vn -0.096507 0.927882 0.36017
vn -0.263649 0.927889 0.263651
vn -0.36013 0.927895 0.09652
vn 0.263649 0.927889 0.263651
vn 0.36013 0.927895 0.09652
vn -0.36013 0.927895 -0.09652
vn -0.263649 0.927889 -0.263651
vn -0.096507 0.927882 -0.36017
vn 0.096507 0.927882 -0.36017
vn 0.460274 0.390627 -0.797219
vn 0.263649 0.927889 -0.263651
vn 0.36013 0.927896 -0.09652
vn -0.096507 -0.927882 -0.36017
vn -0.263649 -0.927889 -0.263651
vn -0.36013 -0.927895 -0.09652
vn 0.460274 -0.390627 -0.797219
vn 0.096507 -0.927882 -0.36017
vn 0.263649 -0.927889 -0.263651
vn 0.36013 -0.927895 -0.09652
vn 0.36013 -0.927895 0.09652
vn 0.263649 -0.927889 0.263651
vn 0.096507 -0.927882 0.36017
vn -0.096507 -0.927882 0.36017
vn -0.263649 -0.927889 0.263651
vn -0.36013 -0.927895 0.09652
vn 0.096507 0.927882 -0.36017
vn 0 1 -0
vn 0 1 -0
vn 0 1 -0
vn 0 1 -0
vn 0 1 -0
vn 0 1 -0
vn 0 1 -0
vn 0 1 -0
vn 0 1 -0
vn 0 1 -0
vn 0 1 -0
vn 0 1 -0
vn 0 1 -0
vn 0 1 -0
vn 0 1 -0
vn 0 1 -0
vn 0 1 -0
vn 0 1 -0
vn 0 1 -0
vn 0 1 -0
vn 0 1 -0
vn 0 1 -0
vn 0 1 -0
vn 0 1 -0
vn 0 1 -0
vn 0.096507 -0.927882 -0.36017
vn 0 -1 -0
vn 0 -1 -0
vn 0 -1 -0
vn 0 -1 -0
vn 0 -1 -0
vn 0 -1 -0
vn 0 -1 -0
vn 0 -1 -0
vn 0 -1 -0
vn 0 -1 -0
vn 0 -1 -0
vn 0 -1 -0
vn 0 -1 -0
vn 0 -1 -0
vn 0 -1 -0
vn 0 -1 -0
vn 0 -1 -0
vn 0 -1 -0
vn 0 -1 -0
vn 0 -1 -0
vn 0 -1 -0
vn 0 -1 -0
vn 0 -1 -0
vn 0 -1 -0
vn 0 -1 -0
f 55/55/55 54/54/54 53/53/53
f 3/3/3 2/2/2 1/1/1
f 1/1/1 126/126/126 125/125/125
f 3/3/3 5/5/5 4/4/4
f 128/128/128 127/127/127 125/125/125
f 5/5/5 7/7/7 6/6/6
f 130/130/130 129/129/129 127/127/127
f 7/7/7 9/9/9 8/8/8
f 9/9/9 11/11/11 10/10/10
f 132/132/132 131/131/131 129/129/129
f 134/134/134 133/133/133 131/131/131
f 136/136/136 135/135/135 133/133/133
f 138/138/138 137/137/137 135/135/135
f 140/140/140 139/139/139 137/137/137
f 142/142/142 141/141/141 139/139/139
f 144/144/144 143/143/143 141/141/141
f 146/146/146 145/145/145 143/143/143
f 147/147/147 26/26/26 145/145/145
f 24/24/24 26/26/26 25/25/25
f 22/22/22 24/24/24 23/23/23
f 20/20/20 22/22/22 21/21/21
f 18/18/18 20/20/20 19/19/19
f 16/16/16 18/18/18 17/17/17
f 13/13/13 16/16/16 15/15/15
f 14/14/14 13/13/13 12/12/12
f 29/29/29 28/28/28 27/27/27
f 27/27/27 149/149/149 148/148/148
f 31/31/31 30/30/30 28/28/28
f 149/149/149 151/151/151 150/150/150
f 33/33/33 32/32/32 30/30/30
f 151/151/151 153/153/153 152/152/152
f 35/35/35 34/34/34 32/32/32
f 37/37/37 36/36/36 34/34/34
f 153/153/153 155/155/155 154/154/154
f 155/155/155 157/157/157 156/156/156
f 157/157/157 159/159/159 158/158/158
f 159/159/159 161/161/161 160/160/160
f 161/161/161 163/163/163 162/162/162
f 163/163/163 165/165/165 164/164/164
f 165/165/165 167/167/167 166/166/166
f 167/167/167 169/169/169 168/168/168
f 169/169/169 51/51/51 170/170/170
f 52/52/52 51/51/51 49/49/49
f 50/50/50 49/49/49 47/47/47
f 48/48/48 47/47/47 45/45/45
f 46/46/46 45/45/45 43/43/43
f 44/44/44 43/43/43 41/41/41
f 42/42/42 41/41/41 39/39/39
f 40/40/40 39/39/39 38/38/38
f 58/58/58 57/57/57 56/56/56
f 61/61/61 60/60/60 59/59/59
f 64/64/64 63/63/63 62/62/62
f 67/67/67 66/66/66 65/65/65
f 70/70/70 69/69/69 68/68/68
f 73/73/73 72/72/72 71/71/71
f 76/76/76 75/75/75 74/74/74
f 79/79/79 78/78/78 77/77/77
f 82/82/82 81/81/81 80/80/80
f 85/85/85 84/84/84 83/83/83
f 88/88/88 87/87/87 86/86/86
f 91/91/91 90/90/90 89/89/89
f 94/94/94 93/93/93 92/92/92
f 97/97/97 96/96/96 95/95/95
f 100/100/100 99/99/99 98/98/98
f 103/103/103 102/102/102 101/101/101
f 106/106/106 105/105/105 104/104/104
f 109/109/109 108/108/108 107/107/107
f 112/112/112 111/111/111 110/110/110
f 115/115/115 114/114/114 113/113/113
f 118/118/118 117/117/117 116/116/116
f 121/121/121 120/120/120 119/119/119
f 124/124/124 123/123/123 122/122/122
f 173/173/173 172/172/172 171/171/171
f 176/176/176 175/175/175 174/174/174
f 179/179/179 178/178/178 177/177/177
f 182/182/182 181/181/181 180/180/180
f 185/185/185 184/184/184 183/183/183
f 188/188/188 187/187/187 186/186/186
f 191/191/191 190/190/190 189/189/189
f 194/194/194 193/193/193 192/192/192
f 197/197/197 196/196/196 195/195/195
f 200/200/200 199/199/199 198/198/198
f 203/203/203 202/202/202 201/201/201
f 206/206/206 205/205/205 204/204/204
f 209/209/209 208/208/208 207/207/207
f 212/212/212 211/211/211 210/210/210
f 215/215/215 214/214/214 213/213/213
f 218/218/218 217/217/217 216/216/216
f 221/221/221 220/220/220 219/219/219
f 224/224/224 223/223/223 222/222/222
f 227/227/227 226/226/226 225/225/225
f 230/230/230 229/229/229 228/228/228
f 233/233/233 232/232/232 231/231/231
f 236/236/236 235/235/235 234/234/234
f 239/239/239 238/238/238 237/237/237
f 242/242/242 241/241/241 240/240/240
f 245/245/245 244/244/244 243/243/243
f 243/243/243 246/246/246 245/245/245
f 244/244/244 245/245/245 272/272/272
f 246/246/246 243/243/243 247/247/247
f 272/272/272 271/271/271 244/244/244
f 247/247/247 248/248/248 246/246/246
f 271/271/271 272/272/272 274/274/274
f 248/248/248 247/247/247 249/249/249
f 274/274/274 273/273/273 271/271/271
f 249/249/249 250/250/250 248/248/248
f 273/273/273 274/274/274 276/276/276
f 250/250/250 249/249/249 251/251/251
f 276/276/276 275/275/275 273/273/273
f 251/251/251 252/252/252 250/250/250
f 275/275/275 276/276/276 278/278/278
f 252/252/252 251/251/251 253/253/253
f 253/253/253 254/254/254 252/252/252
f 278/278/278 277/277/277 275/275/275
f 277/277/277 278/278/278 280/280/280
f 280/280/280 279/279/279 277/277/277
f 279/279/279 280/280/280 282/282/282
f 282/282/282 281/281/281 279/279/279
f 281/281/281 282/282/282 284/284/284
f 284/284/284 283/283/283 281/281/281
f 283/283/283 284/284/284 286/286/286
f 286/286/286 285/285/285 283/283/283
f 285/285/285 286/286/286 288/288/288
f 288/288/288 287/287/287 285/285/285
f 287/287/287 288/288/288 290/290/290
f 290/290/290 289/289/289 287/287/287
f 289/289/289 290/290/290 292/292/292
f 292/292/292 291/291/291 289/289/289
f 291/291/291 292/292/292 270/270/270
f 270/270/270 269/269/269 291/291/291
f 269/269/269 270/270/270 268/268/268
f 268/268/268 267/267/267 269/269/269
f 267/267/267 268/268/268 266/266/266
f 266/266/266 265/265/265 267/267/267
f 265/265/265 266/266/266 264/264/264
f 264/264/264 263/263/263 265/265/265
f 263/263/263 264/264/264 262/262/262
f 262/262/262 261/261/261 263/263/263
f 261/261/261 262/262/262 260/260/260
f 260/260/260 259/259/259 261/261/261
f 259/259/259 260/260/260 258/258/258
f 258/258/258 255/255/255 259/259/259
f 255/255/255 258/258/258 257/257/257
f 257/257/257 256/256/256 255/255/255
f 295/295/295 294/294/294 293/293/293
f 295/295/295 293/293/293 296/296/296
f 295/295/295 296/296/296 297/297/297
f 323/323/323 324/324/324 294/294/294
f 324/324/324 323/323/323 322/322/322
f 323/323/323 321/321/321 322/322/322
f 299/299/299 297/297/297 298/298/298
f 300/300/300 299/299/299 298/298/298
f 299/299/299 300/300/300 301/301/301
f 318/318/318 320/320/320 321/321/321
f 318/318/318 319/319/319 320/320/320
f 317/317/317 319/319/319 318/318/318
f 301/301/301 303/303/303 302/302/302
f 302/302/302 303/303/303 304/304/304
f 304/304/304 305/305/305 302/302/302
f 316/316/316 317/317/317 314/314/314
f 315/315/315 316/316/316 314/314/314
f 313/313/313 315/315/315 314/314/314
f 305/305/305 307/307/307 306/306/306
f 306/306/306 307/307/307 308/308/308
f 308/308/308 309/309/309 306/306/306
f 312/312/312 313/313/313 310/310/310
f 309/309/309 311/311/311 310/310/310
f 310/310/310 311/311/311 312/312/312
f 327/327/327 326/326/326 325/325/325
f 327/327/327 325/325/325 432/432/432
f 330/330/330 329/329/329 328/328/328
f 433/433/433 330/330/330 328/328/328
f 333/333/333 332/332/332 331/331/331
f 332/332/332 333/333/333 434/434/434
f 336/336/336 335/335/335 334/334/334
f 435/435/435 336/336/336 334/334/334
f 339/339/339 338/338/338 337/337/337
f 338/338/338 339/339/339 436/436/436
f 342/342/342 341/341/341 340/340/340
f 437/437/437 342/342/342 340/340/340
f 345/345/345 344/344/344 343/343/343
f 344/344/344 345/345/345 438/438/438
f 348/348/348 347/347/347 346/346/346
f 439/439/439 348/348/348 346/346/346
f 351/351/351 350/350/350 349/349/349
f 350/350/350 351/351/351 440/440/440
f 354/354/354 353/353/353 352/352/352
f 441/441/441 354/354/354 352/352/352
f 357/357/357 356/356/356 355/355/355
f 356/356/356 357/357/357 442/442/442
f 360/360/360 359/359/359 358/358/358
f 443/443/443 360/360/360 358/358/358
f 363/363/363 362/362/362 361/361/361
f 362/362/362 363/363/363 444/444/444
f 366/366/366 365/365/365 364/364/364
f 445/445/445 366/366/366 364/364/364
f 369/369/369 368/368/368 367/367/367
f 368/368/368 369/369/369 430/430/430
f 372/372/372 371/371/371 370/370/370
f 431/431/431 372/372/372 370/370/370
f 375/375/375 374/374/374 373/373/373
f 378/378/378 377/377/377 376/376/376
f 381/381/381 380/380/380 379/379/379
f 384/384/384 383/383/383 382/382/382
f 387/387/387 386/386/386 385/385/385
f 390/390/390 389/389/389 388/388/388
f 393/393/393 392/392/392 391/391/391
f 396/396/396 395/395/395 394/394/394
f 399/399/399 398/398/398 397/397/397
f 400/400/400 397/397/397 398/398/398
f 400/400/400 403/403/403 397/397/397
f 428/428/428 399/399/399 425/425/425
f 428/428/428 425/425/425 426/426/426
f 427/427/427 426/426/426 425/425/425
f 403/403/403 402/402/402 401/401/401
f 404/404/404 401/401/401 402/402/402
f 404/404/404 407/407/407 401/401/401
f 424/424/424 427/427/427 421/421/421
f 424/424/424 421/421/421 422/422/422
f 423/423/423 422/422/422 421/421/421
f 407/407/407 406/406/406 405/405/405
f 408/408/408 405/405/405 406/406/406
f 408/408/408 411/411/411 405/405/405
f 420/420/420 423/423/423 417/417/417
f 420/420/420 417/417/417 418/418/418
f 419/419/419 418/418/418 417/417/417
f 411/411/411 410/410/410 409/409/409
f 412/412/412 409/409/409 410/410/410
f 412/412/412 415/415/415 409/409/409
f 415/415/415 414/414/414 413/413/413
f 416/416/416 413/413/413 414/414/414
f 416/416/416 429/429/429 413/413/413
f 448/448/448 447/447/447 446/446/446
f 446/446/446 449/449/449 448/448/448
f 447/447/447 448/448/448 477/477/477
f 449/449/449 446/446/446 451/451/451
f 477/477/477 474/474/474 447/447/447
f 451/451/451 452/452/452 449/449/449
f 474/474/474 477/477/477 476/476/476
f 452/452/452 451/451/451 450/450/450
f 476/476/476 475/475/475 474/474/474
f 450/450/450 453/453/453 452/452/452
f 475/475/475 476/476/476 473/473/473
f 453/453/453 450/450/450 455/455/455
f 473/473/473 470/470/470 475/475/475
f 455/455/455 456/456/456 453/453/453
f 470/470/470 473/473/473 472/472/472
f 456/456/456 455/455/455 454/454/454
f 472/472/472 471/471/471 470/470/470
f 454/454/454 457/457/457 456/456/456
f 471/471/471 472/472/472 469/469/469
f 457/457/457 454/454/454 459/459/459
f 469/469/469 466/466/466 471/471/471
f 459/459/459 460/460/460 457/457/457
f 466/466/466 469/469/469 468/468/468
f 468/468/468 467/467/467 466/466/466
f 460/460/460 459/459/459 458/458/458
f 458/458/458 461/461/461 460/460/460
f 461/461/461 458/458/458 463/463/463
f 463/463/463 464/464/464 461/461/461
f 464/464/464 463/463/463 462/462/462
f 462/462/462 465/465/465 464/464/464
f 465/465/465 462/462/462 478/478/478
f 478/478/478 479/479/479 465/465/465
f 482/482/482 481/481/481 480/480/480
f 482/482/482 480/480/480 484/484/484
f 482/482/482 495/495/495 481/481/481
f 482/482/482 484/484/484 483/483/483
f 482/482/482 496/496/496 495/495/495
f 482/482/482 483/483/483 486/486/486
f 482/482/482 493/493/493 496/496/496
f 482/482/482 486/486/486 485/485/485
f 482/482/482 494/494/494 493/493/493
f 482/482/482 485/485/485 488/488/488
f 482/482/482 491/491/491 494/494/494
f 482/482/482 488/488/488 487/487/487
f 482/482/482 492/492/492 491/491/491
f 482/482/482 487/487/487 490/490/490
f 482/482/482 489/489/489 492/492/492
f 482/482/482 490/490/490 489/489/489
f 499/499/499 498/498/498 497/497/497
f 502/502/502 499/499/499 497/497/497
f 500/500/500 497/497/497 498/498/498
f 502/502/502 556/556/556 499/499/499
f 497/497/497 500/500/500 503/503/503
f 502/502/502 497/497/497 501/501/501
f 503/503/503 501/501/501 497/497/497
f 499/499/499 508/508/508 498/498/498
f 505/505/505 502/502/502 501/501/501
f 499/499/499 557/557/557 508/508/508
f 499/499/499 556/556/556 557/557/557
f 505/505/505 555/555/555 502/502/502
f 502/502/502 555/555/555 556/556/556
f 505/505/505 501/501/501 504/504/504
f 592/592/592 556/556/556 555/555/555
f 592/592/592 606/606/606 556/556/556
f 605/605/605 592/592/592 555/555/555
f 606/606/606 593/593/593 556/556/556
f 557/557/557 556/556/556 593/593/593
f 591/591/591 605/605/605 555/555/555
f 593/593/593 607/607/607 557/557/557
f 607/607/607 594/594/594 557/557/557
f 591/591/591 555/555/555 554/554/554
f 505/505/505 554/554/554 555/555/555
f 604/604/604 591/591/591 554/554/554
f 590/590/590 604/604/604 554/554/554
f 558/558/558 557/557/557 594/594/594
f 508/508/508 557/557/557 558/558/558
f 594/594/594 608/608/608 558/558/558
f 608/608/608 595/595/595 558/558/558
f 590/590/590 554/554/554 553/553/553
f 603/603/603 590/590/590 553/553/553
f 553/553/553 589/589/589 603/603/603
f 529/529/529 554/554/554 505/505/505
f 529/529/529 553/553/553 554/554/554
f 529/529/529 505/505/505 504/504/504
f 553/553/553 552/552/552 589/589/589
f 552/552/552 602/602/602 589/589/589
f 552/552/552 588/588/588 602/602/602
f 586/586/586 601/601/601 588/588/588
f 552/552/552 586/586/586 588/588/588
f 526/526/526 586/586/586 552/552/552
f 522/522/522 552/552/552 553/553/553
f 526/526/526 552/552/552 522/522/522
f 522/522/522 553/553/553 529/529/529
f 523/523/523 526/526/526 522/522/522
f 523/523/523 527/527/527 526/526/526
f 524/524/524 522/522/522 529/529/529
f 524/524/524 523/523/523 522/522/522
f 529/529/529 504/504/504 524/524/524
f 527/527/527 523/523/523 528/528/528
f 523/523/523 524/524/524 525/525/525
f 525/525/525 528/528/528 523/523/523
f 530/530/530 524/524/524 504/504/504
f 530/530/530 525/525/525 524/524/524
f 525/525/525 545/545/545 528/528/528
f 545/545/545 560/560/560 528/528/528
f 562/562/562 575/575/575 560/560/560
f 562/562/562 560/560/560 545/545/545
f 576/576/576 562/562/562 545/545/545
f 563/563/563 576/576/576 545/545/545
f 546/546/546 545/545/545 525/525/525
f 563/563/563 545/545/545 546/546/546
f 546/546/546 525/525/525 530/530/530
f 577/577/577 563/563/563 546/546/546
f 546/546/546 564/564/564 577/577/577
f 504/504/504 506/506/506 530/530/530
f 506/506/506 504/504/504 501/501/501
f 501/501/501 503/503/503 506/506/506
f 530/530/530 539/539/539 546/546/546
f 546/546/546 539/539/539 564/564/564
f 506/506/506 539/539/539 530/530/530
f 539/539/539 578/578/578 564/564/564
f 539/539/539 565/565/565 578/578/578
f 506/506/506 538/538/538 539/539/539
f 539/539/539 538/538/538 565/565/565
f 503/503/503 538/538/538 506/506/506
f 538/538/538 579/579/579 565/565/565
f 538/538/538 566/566/566 579/579/579
f 503/503/503 534/534/534 538/538/538
f 538/538/538 534/534/534 566/566/566
f 534/534/534 580/580/580 566/566/566
f 500/500/500 534/534/534 503/503/503
f 534/534/534 567/567/567 580/580/580
f 567/567/567 534/534/534 535/535/535
f 535/535/535 534/534/534 500/500/500
f 535/535/535 581/581/581 567/567/567
f 535/535/535 568/568/568 581/581/581
f 509/509/509 535/535/535 500/500/500
f 498/498/498 509/509/509 500/500/500
f 568/568/568 535/535/535 536/536/536
f 536/536/536 535/535/535 509/509/509
f 536/536/536 582/582/582 568/568/568
f 536/536/536 569/569/569 582/582/582
f 509/509/509 498/498/498 507/507/507
f 508/508/508 507/507/507 498/498/498
f 512/512/512 536/536/536 509/509/509
f 507/507/507 512/512/512 509/509/509
f 569/569/569 536/536/536 537/537/537
f 537/537/537 536/536/536 512/512/512
f 537/537/537 583/583/583 569/569/569
f 570/570/570 583/583/583 537/537/537
f 508/508/508 511/511/511 507/507/507
f 508/508/508 558/558/558 511/511/511
f 512/512/512 507/507/507 510/510/510
f 511/511/511 510/510/510 507/507/507
f 537/537/537 512/512/512 515/515/515
f 515/515/515 512/512/512 510/510/510
f 570/570/570 537/537/537 540/540/540
f 540/540/540 537/537/537 515/515/515
f 584/584/584 570/570/570 540/540/540
f 571/571/571 584/584/584 540/540/540
f 510/510/510 514/514/514 515/515/515
f 571/571/571 540/540/540 541/541/541
f 585/585/585 571/571/571 541/541/541
f 518/518/518 540/540/540 515/515/515
f 541/541/541 540/540/540 518/518/518
f 518/518/518 515/515/515 514/514/514
f 572/572/572 585/585/585 541/541/541
f 514/514/514 510/510/510 513/513/513
f 510/510/510 511/511/511 513/513/513
f 572/572/572 541/541/541 542/542/542
f 573/573/573 572/572/572 542/542/542
f 561/561/561 573/573/573 542/542/542
f 521/521/521 541/541/541 518/518/518
f 542/542/542 541/541/541 521/521/521
f 574/574/574 561/561/561 543/543/543
f 561/561/561 542/542/542 543/543/543
f 543/543/543 542/542/542 533/533/533
f 533/533/533 542/542/542 521/521/521
f 544/544/544 543/543/543 533/533/533
f 544/544/544 533/533/533 532/532/532
f 521/521/521 518/518/518 517/517/517
f 514/514/514 517/517/517 518/518/518
f 533/533/533 521/521/521 520/520/520
f 520/520/520 532/532/532 533/533/533
f 517/517/517 520/520/520 521/521/521
f 532/532/532 520/520/520 531/531/531
f 532/532/532 531/531/531 550/550/550
f 531/531/531 551/551/551 550/550/550
f 520/520/520 517/517/517 519/519/519
f 520/520/520 519/519/519 531/531/531
f 517/517/517 514/514/514 516/516/516
f 517/517/517 516/516/516 519/519/519
f 514/514/514 513/513/513 516/516/516
f 519/519/519 547/547/547 531/531/531
f 531/531/531 547/547/547 551/551/551
f 551/551/551 587/587/587 600/600/600
f 551/551/551 547/547/547 587/587/587
f 547/547/547 599/599/599 587/587/587
f 547/547/547 598/598/598 599/599/599
f 548/548/548 547/547/547 519/519/519
f 547/547/547 548/548/548 598/598/598
f 516/516/516 548/548/548 519/519/519
f 548/548/548 611/611/611 598/598/598
f 548/548/548 597/597/597 611/611/611
f 549/549/549 548/548/548 516/516/516
f 548/548/548 549/549/549 597/597/597
f 513/513/513 549/549/549 516/516/516
f 549/549/549 610/610/610 597/597/597
f 549/549/549 596/596/596 610/610/610
f 559/559/559 549/549/549 513/513/513
f 549/549/549 559/559/559 596/596/596
f 513/513/513 511/511/511 559/559/559
f 559/559/559 609/609/609 596/596/596
f 511/511/511 558/558/558 559/559/559
f 595/595/595 609/609/609 559/559/559
f 559/559/559 558/558/558 595/595/595
