# VPXTOOL table OBJ file
# VPXTOOL OBJ file
# numVerts: 163 numFaces: 102
o Sling2
v -0.03792 -0.015664 -0.693405
v -0.03792 -0.015665 -0.465325
v -0.094892 -0.015665 -0.465325
v -0.094892 -0.015664 -0.693405
v -0.094892 -0.015664 -0.693405
v -0.094892 -0.015665 -0.465325
v -0.094892 -0.053745 -0.693405
v -0.094892 -0.053746 -0.465325
v -0.094891 -0.114504 -0.769365
v -0.094891 -0.114504 -0.731365
v -0.03792 -0.114504 -0.769365
v 0.09508 -0.015665 -0.465325
v 0.03808 -0.015664 -0.693405
v 0.09508 -0.015664 -0.693405
v 0.03808 -0.015665 -0.465325
v 0.09508 -0.015665 -0.465325
v 0.09508 -0.015664 -0.693405
v 0.09508 -0.053745 -0.693405
v 0.09508 -0.053746 -0.465325
v -0.094891 -0.060494 -0.71192
v -0.094891 -0.027515 -0.730961
v -0.03792 -0.027515 -0.730961
v -0.03792 -0.015664 -0.693405
v -0.094892 -0.015664 -0.693405
v -0.094891 -0.027515 -0.730961
v 0.09508 -0.060494 -0.71192
v 0.09508 -0.027515 -0.730961
v 0.03808 -0.027515 -0.730961
v 0.09508 -0.015664 -0.693405
v 0.03808 -0.015664 -0.693405
v 0.09508 -0.027515 -0.730961
v -0.094891 -0.083504 -0.728879
v -0.094891 -0.067411 -0.763392
v -0.03792 -0.067411 -0.763392
v -0.03792 -0.027515 -0.730961
v -0.094891 -0.027515 -0.730961
v -0.094891 -0.067411 -0.763392
v 0.09508 -0.083504 -0.728879
v 0.09508 -0.067411 -0.763392
v 0.03808 -0.067411 -0.763392
v 0.09508 -0.027515 -0.730961
v 0.03808 -0.027515 -0.730961
v 0.09508 -0.067411 -0.763392
v -0.094891 -0.114504 -0.769365
v -0.094891 -0.114504 -0.731365
v -0.03792 -0.114504 -0.769365
v -0.03792 -0.067411 -0.763392
v -0.094891 -0.067411 -0.763392
v -0.094891 -0.114504 -0.769365
v 0.09508 -0.114504 -0.769365
v 0.09508 -0.114504 -0.731365
v 0.03808 -0.114504 -0.769365
v 0.09508 -0.067411 -0.763392
v 0.03808 -0.067411 -0.763392
v 0.09508 -0.114504 -0.769365
v 0.03808 -0.015664 -0.693405
v 0.03808 -0.015665 -0.465325
v 0.03808 0.107835 -0.465325
v 0.03808 0.079336 -0.750379
v 0.03808 0.060336 -0.769365
v 0.03808 -0.027515 -0.730961
v 0.03808 -0.067411 -0.763392
v -0.03792 -0.015664 -0.693405
v -0.03792 -0.027515 -0.730961
v -0.03792 0.060336 -0.769365
v -0.03792 -0.067411 -0.763392
v 0.01908 0.079336 -0.750379
v 0.03808 0.107835 -0.465325
v 0.01908 0.107835 -0.465325
v -0.03792 0.079336 -0.750379
v -0.03792 0.060336 -0.769365
v -0.01892 0.060336 -0.769365
v -0.01892 0.079336 -0.750379
v -0.03792 0.107835 -0.465325
v -0.03792 0.079336 -0.750379
v 0.03808 -0.114504 -0.769365
v -0.094891 -0.114504 -0.731365
v -0.094891 -0.083504 -0.728879
v 0.09508 -0.114504 -0.731365
v 0.09508 -0.083504 -0.728879
v 0.09508 -0.083504 -0.728879
v -0.094891 -0.083504 -0.728879
v -0.094891 -0.060494 -0.71192
v 0.09508 -0.060494 -0.71192
v 0.09508 -0.060494 -0.71192
v -0.094891 -0.060494 -0.71192
v -0.094892 -0.053745 -0.693405
v 0.09508 -0.053745 -0.693405
v -0.094892 -0.053745 -0.693405
v -0.094892 -0.053746 -0.465325
v 0.09508 -0.053745 -0.693405
v 0.09508 -0.053746 -0.465325
v 0.03808 -0.015665 -0.465325
v 0.09508 -0.015665 -0.465325
v 0.09508 -0.053746 -0.465325
v 0.01908 -0.025184 -0.769365
v -0.01892 -0.025184 -0.769365
v -0.03792 -0.114504 -0.769365
v -0.01892 0.079336 -0.750379
v 0.01908 0.060336 -0.769365
v 0.03808 0.060336 -0.769365
v 0.03808 0.079336 -0.750379
v 0.01908 0.079336 -0.750379
v -0.01892 0.107835 -0.465325
v 0.03808 0.079336 -0.750379
v -0.03792 -0.015665 -0.465325
v -0.03792 0.107835 -0.465325
v -0.01892 0.107835 -0.465325
v 0.01908 0.107835 -0.465325
v 0.03808 0.107835 -0.465325
v -0.01892 -0.025184 -0.769365
v 0.01908 -0.025184 -0.769365
v 0.01908 0.060336 -0.769365
v -0.01892 0.060336 -0.769365
v 0.01908 0.060336 -0.769365
v 0.01908 0.079336 -0.750379
v -0.01892 0.060336 -0.769365
v -0.01892 0.079336 -0.750379
v 0.01908 0.107835 -0.465325
v -0.01892 0.079336 -0.750379
v 0.01908 0.079336 -0.750379
v -0.01892 0.107835 -0.465325
v 0.01908 -0.015665 -0.465325
v -0.01892 -0.015665 -0.465325
v -0.01892 -0.015665 -0.315883
v 0.01908 -0.015665 -0.315883
v -0.01892 -0.015665 -0.465325
v -0.01892 0.107835 -0.465325
v -0.01892 0.122115 -0.330376
v -0.01892 -0.015665 -0.315883
v 0.01908 0.122115 -0.330376
v 0.01908 -0.015665 -0.465325
v 0.01908 -0.015665 -0.315883
v 0.01908 0.107835 -0.465325
v 0.01908 0.122115 -0.330376
v -0.01892 0.122115 -0.330376
v -0.03792 0.079336 -0.750379
v -0.03792 0.107835 -0.465325
v -0.03792 -0.015665 -0.465325
v 0.09508 -0.114504 -0.731365
v 0.09508 -0.114504 -0.769365
v 0.03808 -0.114504 -0.769365
v -0.03792 0.060336 -0.769365
v 0.03808 0.060336 -0.769365
v -0.01892 0.060336 -0.769365
v 0.01908 0.060336 -0.769365
v 0.03808 -0.114504 -0.769365
v -0.03792 -0.114504 -0.769365
v -0.01892 -0.015665 -0.465325
v 0.01908 -0.015665 -0.465325
v -0.094892 -0.053746 -0.465325
v -0.094892 -0.015665 -0.465325
v -0.01892 -0.015665 0.096751
v 0.01908 -0.015665 0.096751
v -0.019 0.151515 0.134751
v -0.019 0.151515 0.134751
v -0.01892 -0.015665 0.096751
v -0.01892 -0.015665 -0.315883
v 0.019 0.151515 0.134751
v 0.01908 -0.015665 0.096751
v 0.019 0.151515 0.134751
v -0.019 0.151515 0.134751
v -0.01892 0.122115 -0.330376
vt 0.861322 0.84312999
vt 0.861322 1
vt 0.80725 1
vt 0.80725 0.84312999
vt 0.737405 0.21649802
vt 0.737405 0.38248003
vt 0.713159 0.216456
vt 0.713159 0.38247204
vt 0.80725 0.701711
vt 0.80725 0.68682897
vt 0.861322 0.701594
vt 0.97944 1
vt 0.925629 0.84312999
vt 0.97944 0.84312999
vt 0.925629 1
vt 0.737405 0.38248003
vt 0.737405 0.21649802
vt 0.713159 0.216456
vt 0.713159 0.38247204
vt 0.707797 0.19129503
vt 0.727989 0.17966104
vt 0.861322 0.79876399
vt 0.861322 0.84312999
vt 0.80725 0.84312999
vt 0.80725 0.79876399
vt 0.707797 0.19129503
vt 0.727989 0.17966104
vt 0.925629 0.79876399
vt 0.97944 0.84312999
vt 0.925629 0.84312999
vt 0.97944 0.79876399
vt 0.689515 0.16869497
vt 0.702259 0.14785099
vt 0.861322 0.73650002
vt 0.861322 0.79876399
vt 0.80725 0.79876399
vt 0.80725 0.73650002
vt 0.689515 0.16869497
vt 0.702259 0.14785099
vt 0.925629 0.73650002
vt 0.97944 0.79876399
vt 0.925629 0.79876399
vt 0.97944 0.73650002
vt 0.669922 0.14182103
vt 0.670148 0.16625702
vt 0.861322 0.701594
vt 0.861322 0.73650002
vt 0.80725 0.73650002
vt 0.80725 0.701711
vt 0.669922 0.14182103
vt 0.670148 0.16625702
vt 0.925629 0.701594
vt 0.97944 0.73650002
vt 0.925629 0.73650002
vt 0.97944 0.701594
vt 0.759952 0.19580102
vt 0.759952 0.361782
vt 0.852106 0.361782
vt 0.829463 0.13991702
vt 0.814368 0.12112403
vt 0.750537 0.15896398
vt 0.724806 0.12715298
vt 0.759952 0.19580102
vt 0.750537 0.15896398
vt 0.814368 0.12112403
vt 0.724806 0.12715298
vt 0.911069 0.13926202
vt 0.925629 0.362186
vt 0.911069 0.362186
vt 0.861219 0.13926202
vt 0.861219 0.121897995
vt 0.87614 0.121922016
vt 0.87614 0.13926202
vt 0.861219 0.362186
vt 0.861219 0.13926202
vt 0.925629 0.701594
vt 0.80725 0.68682897
vt 0.80725 0.66688102
vt 0.97944 0.68682897
vt 0.97944 0.66688102
vt 0.97944 0.66688102
vt 0.80725 0.66688102
vt 0.80725 0.64435798
vt 0.97944 0.64435798
vt 0.97944 0.64435798
vt 0.80725 0.64435798
vt 0.80725 0.63168
vt 0.97944 0.63168
vt 0.80725 0.63168
vt 0.80725 0.45251596
vt 0.97944 0.63168
vt 0.97944 0.45251596
vt 0.925629 0.428181
vt 0.97944 0.428181
vt 0.97944 0.45251596
vt 0.911069 0.05991
vt 0.87614 0.05991
vt 0.861219 0
vt 0.87614 0.13926202
vt 0.911069 0.121922016
vt 0.925732 0.12179798
vt 0.925629 0.13926202
vt 0.911069 0.13926202
vt 0.87614 0.362186
vt 0.925629 0.13926202
vt 0.861219 0.428181
vt 0.861219 0.362186
vt 0.87614 0.362186
vt 0.911069 0.362186
vt 0.925629 0.362186
vt 0.061727 1
vt 0.000273 1
vt 0.000273 0.887638986
vt 0.061727 0.887638986
vt 0.000273 0.887638986
vt 0.000273 0.86263102
vt 0.061727 0.887638986
vt 0.061727 0.86263102
vt 0.000273 0.52203298
vt 0.061727 0.86263102
vt 0.000273 0.86263102
vt 0.061727 0.52203298
vt 0.58369 0.19921899
vt 0.58369 0.24338299
vt 0.411045 0.24338299
vt 0.411045 0.19921899
vt 0.58369 0.24338299
vt 0.58369 0.386059
vt 0.427849 0.402556
vt 0.411045 0.24338299
vt 0.4277 0.03974098
vt 0.58369 0.19921899
vt 0.411045 0.19921899
vt 0.58369 0.056237996
vt 0.000273 0.360811
vt 0.061727 0.360811
vt 0.829463 0.13991702
vt 0.852106 0.361782
vt 0.759952 0.361782
vt 0.97944 0.68682897
vt 0.97944 0.701594
vt 0.925732 0
vt 0.861219 0.121897995
vt 0.925732 0.12179798
vt 0.87614 0.121922016
vt 0.911069 0.121922016
vt 0.69247 0.12112403
vt 0.69247 0.12112403
vt 0.87614 0.428181
vt 0.911069 0.428181
vt 0.80725 0.45251596
vt 0.80725 0.428181
vt 0.122783 0.24338299
vt 0.122783 0.19921899
vt 0.078943 0.436521
vt 0.078943 0.436521
vt 0.122783 0.24338299
vt 0.411045 0.24338299
vt 0.078795 0.005775988
vt 0.122783 0.19921899
vt 0.000273 0
vt 0.061727 0
vt 0.061727 0.360811
vn 0 1 0
vn 0 1 0
vn 0 1 0
vn 0 1 0
vn -1 0 -0
vn -1 0 -0
vn -1 0 -0
vn -1 0 -0
vn 0 -1 0
vn 0 -1 0
vn 0 -1 0
vn 0 1 0
vn 0 1 0
vn 0 1 0
vn 0 1 0
vn 1 0 0
vn 1 0 0
vn 1 0 0
vn 1 0 0
vn -1 0 -0
vn -1 0 -0
vn 0 0.9536 -0.3009
vn 0 0.9536 -0.3009
vn 0 0.9536 -0.3009
vn 0 0.9536 -0.3009
vn 1 0 0
vn 1 0 0
vn 0 0.9536 -0.3009
vn 0 0.9536 -0.3009
vn 0 0.9536 -0.3009
vn 0 0.9536 -0.3009
vn -1 0 -0
vn -1 0 -0
vn 0 0.6308 -0.776
vn 0 0.6308 -0.776
vn 0 0.6308 -0.776
vn 0 0.6308 -0.776
vn 1 0 0
vn 1 0 0
vn 0 0.6308 -0.776
vn 0 0.6308 -0.776
vn 0 0.6308 -0.776
vn 0 0.6308 -0.776
vn -1 0 -0
vn -1 0 -0
vn 0 0.1258 -0.9921
vn 0 0.1258 -0.9921
vn 0 0.1258 -0.9921
vn 0 0.1258 -0.9921
vn 1 0 0
vn 1 0 0
vn 0 0.1258 -0.9921
vn 0 0.1258 -0.9921
vn 0 0.1258 -0.9921
vn 0 0.1258 -0.9921
vn 1 0 0
vn 1 0 0
vn 1 0 0
vn 1 0 0
vn 1 0 0
vn 1 0 0
vn 1 0 0
vn -1 0 -0
vn -1 0 -0
vn -1 0 -0
vn -1 0 -0
vn 0 0.995 -0.0995
vn 0 0.995 -0.0995
vn 0 0.9951 -0.0989
vn 0 0.7068 -0.7074
vn 0 0.7068 -0.7074
vn 0 0.7068 -0.7074
vn 0 0.995 -0.0995
vn 0 0.995 -0.0995
vn 0 0.995 -0.0995
vn 0 -1 0
vn 0 -0.0799 0.9968
vn 0 -0.0799 0.9968
vn 0 -0.0799 0.9968
vn 0 -0.0799 0.9968
vn 0 -0.5933 0.805
vn 0 -0.5933 0.805
vn 0 -0.5933 0.805
vn 0 -0.5933 0.805
vn 0 -0.9395 0.3425
vn 0 -0.9395 0.3425
vn 0 -0.9395 0.3425
vn 0 -0.9395 0.3425
vn 0 -1 0
vn 0 -1 0
vn 0 -1 0
vn 0 -1 0
vn 0 0 1
vn 0 0 1
vn 0 0 1
vn 0 0 -1
vn 0 0 -1
vn 0 0 -1
vn 0 0.7068 -0.7074
vn 0 0.7068 -0.7074
vn 0 0.7068 -0.7074
vn 0 0.7068 -0.7074
vn 0 0.7068 -0.7074
vn -0 0.9945 -0.1044
vn 0 0.995 -0.0995
vn 0 0 1
vn 0 0 1
vn 0 0 1
vn 0 0 1
vn 0 0 1
vn 0 0 -1
vn 0 0 -1
vn 0 0 -1
vn 0 0 -1
vn 0 0.7068 -0.7074
vn 0 0.7068 -0.7074
vn 0 0.7068 -0.7074
vn 0 0.7068 -0.7074
vn 0 0.9951 -0.0989
vn 0 0.995 -0.0995
vn 0 0.995 -0.0995
vn -0 0.9945 -0.1044
vn 0 -1 0
vn 0 -1 0
vn 0 -1 0
vn 0 -1 0
vn -1 0 -0
vn -1 0 -0
vn -1 -0 -0.0001
vn -1 -0 -0.0001
vn 1 0 0.0001
vn 1 0 0
vn 1 0.0001 0.0001
vn 1 0 0
vn 0 0.9961 -0.0883
vn -0.0002 0.9968 -0.0805
vn -1 0 -0
vn -1 0 -0
vn -1 0 -0
vn 0 -1 0
vn 0 -1 0
vn 0 0 -1
vn 0 0 -1
vn 0 0 -1
vn 0 0 -1
vn 0 0 -1
vn 1 0 0
vn -1 0 -0
vn 0 0 1
vn 0 0 1
vn 0 0 1
vn 0 0 1
vn 0 -1 0
vn 0 -1 0
vn -1 -0 -0.0002
vn -1 -0.0005 -0
vn -1 -0.0005 -0
vn -1 -0.0005 -0
vn 1 0.0004 0
vn 1 0.0005 0
vn 0 0.998 -0.0631
vn 0 0.998 -0.0631
vn 0 0.998 -0.0631
f 158/158/158 157/157/157 156/156/156
f 3/3/3 2/2/2 1/1/1
f 4/4/4 3/3/3 1/1/1
f 7/7/7 6/6/6 5/5/5
f 8/8/8 6/6/6 7/7/7
f 7/7/7 5/5/5 20/20/20
f 20/20/20 5/5/5 21/21/21
f 20/20/20 21/21/21 32/32/32
f 32/32/32 21/21/21 33/33/33
f 32/32/32 33/33/33 44/44/44
f 45/45/45 32/32/32 44/44/44
f 11/11/11 10/10/10 9/9/9
f 11/11/11 76/76/76 10/10/10
f 76/76/76 140/140/140 10/10/10
f 76/76/76 141/141/141 140/140/140
f 14/14/14 13/13/13 12/12/12
f 15/15/15 12/12/12 13/13/13
f 18/18/18 17/17/17 16/16/16
f 19/19/19 18/18/18 16/16/16
f 17/17/17 18/18/18 26/26/26
f 27/27/27 17/17/17 26/26/26
f 27/27/27 26/26/26 38/38/38
f 39/39/39 27/27/27 38/38/38
f 39/39/39 38/38/38 50/50/50
f 50/50/50 38/38/38 51/51/51
f 24/24/24 23/23/23 22/22/22
f 25/25/25 24/24/24 22/22/22
f 30/30/30 29/29/29 28/28/28
f 28/28/28 29/29/29 31/31/31
f 36/36/36 35/35/35 34/34/34
f 37/37/37 36/36/36 34/34/34
f 42/42/42 41/41/41 40/40/40
f 40/40/40 41/41/41 43/43/43
f 48/48/48 47/47/47 46/46/46
f 49/49/49 48/48/48 46/46/46
f 54/54/54 53/53/53 52/52/52
f 52/52/52 53/53/53 55/55/55
f 58/58/58 57/57/57 56/56/56
f 56/56/56 59/59/59 58/58/58
f 56/56/56 60/60/60 59/59/59
f 56/56/56 61/61/61 60/60/60
f 61/61/61 62/62/62 60/60/60
f 62/62/62 147/147/147 60/60/60
f 65/65/65 64/64/64 63/63/63
f 65/65/65 66/66/66 64/64/64
f 148/148/148 66/66/66 65/65/65
f 137/137/137 65/65/65 63/63/63
f 138/138/138 137/137/137 63/63/63
f 138/138/138 63/63/63 139/139/139
f 69/69/69 68/68/68 67/67/67
f 67/67/67 68/68/68 105/105/105
f 72/72/72 71/71/71 70/70/70
f 99/99/99 72/72/72 70/70/70
f 75/75/75 74/74/74 73/73/73
f 104/104/104 73/73/73 74/74/74
f 79/79/79 78/78/78 77/77/77
f 79/79/79 80/80/80 78/78/78
f 83/83/83 82/82/82 81/81/81
f 81/81/81 84/84/84 83/83/83
f 87/87/87 86/86/86 85/85/85
f 85/85/85 88/88/88 87/87/87
f 91/91/91 90/90/90 89/89/89
f 90/90/90 91/91/91 92/92/92
f 95/95/95 94/94/94 93/93/93
f 110/110/110 109/109/109 93/93/93
f 93/93/93 109/109/109 150/150/150
f 150/150/150 95/95/95 93/93/93
f 95/95/95 150/150/150 149/149/149
f 151/151/151 95/95/95 149/149/149
f 106/106/106 151/151/151 149/149/149
f 152/152/152 151/151/151 106/106/106
f 149/149/149 108/108/108 106/106/106
f 108/108/108 107/107/107 106/106/106
f 98/98/98 97/97/97 96/96/96
f 98/98/98 143/143/143 97/97/97
f 143/143/143 145/145/145 97/97/97
f 96/96/96 142/142/142 98/98/98
f 96/96/96 144/144/144 142/142/142
f 144/144/144 96/96/96 146/146/146
f 102/102/102 101/101/101 100/100/100
f 102/102/102 100/100/100 103/103/103
f 113/113/113 112/112/112 111/111/111
f 113/113/113 111/111/111 114/114/114
f 117/117/117 116/116/116 115/115/115
f 117/117/117 118/118/118 116/116/116
f 121/121/121 120/120/120 119/119/119
f 119/119/119 120/120/120 122/122/122
f 135/135/135 119/119/119 122/122/122
f 122/122/122 136/136/136 135/135/135
f 161/161/161 135/135/135 136/136/136
f 163/163/163 162/162/162 161/161/161
f 125/125/125 124/124/124 123/123/123
f 123/123/123 126/126/126 125/125/125
f 153/153/153 125/125/125 126/126/126
f 126/126/126 154/154/154 153/153/153
f 129/129/129 128/128/128 127/127/127
f 127/127/127 130/130/130 129/129/129
f 155/155/155 129/129/129 130/130/130
f 133/133/133 132/132/132 131/131/131
f 134/134/134 131/131/131 132/132/132
f 131/131/131 159/159/159 133/133/133
f 160/160/160 133/133/133 159/159/159
