# VPXTOOL table OBJ file
# VPXTOOL OBJ file
# numVerts: 24 numFaces: 12
o VR_Wall_Left
v 4.190563 -1.646237 -3.767562
v -0.505914 -2.015647 1.396259
v -0.492299 3.231656 1.784024
v 4.204178 3.601066 -3.379797
v 4.131124 -1.639258 -3.821121
v 4.14474 3.608044 -3.433357
v -0.551737 3.238635 1.730464
v -0.565353 -2.008668 1.3427
v 4.14474 3.608044 -3.433357
v 4.204178 3.601066 -3.379797
v -0.492299 3.231656 1.784024
v -0.551737 3.238635 1.730464
v 4.131124 -1.639258 -3.821121
v 4.190563 -1.646237 -3.767562
v 4.204178 3.601066 -3.379797
v 4.14474 3.608044 -3.433357
v -0.565353 -2.008668 1.3427
v -0.505914 -2.015647 1.396259
v 4.190563 -1.646237 -3.767562
v 4.131124 -1.639258 -3.821121
v -0.551737 3.238635 1.730464
v -0.492299 3.231656 1.784024
v -0.505914 -2.015647 1.396259
v -0.565353 -2.008668 1.3427
vt 0.994564 1
vt 0.005436 1
vt 0.005436 0
vt 0.994564 0
vt 0.994564 1
vt 0.994564 0
vt 0.005436 0
vt 0.005436 1
vt 0.994564 0
vt 0.994564 0
vt 0.005436 0
vt 0.005436 0
vt 0.994564 1
vt 0.994564 1
vt 0.994564 0
vt 0.994564 0
vt 0.005436 1
vt 0.005436 1
vt 0.994564 1
vt 0.994564 1
vt 0.005436 0
vt 0.005436 0
vt 0.005436 1
vt 0.005436 1
vn 0.74 -0.0899 0.6666
vn 0.74 -0.0899 0.6666
vn 0.74 -0.0899 0.6666
vn 0.74 -0.0899 0.6666
vn -0.74 0.0899 -0.6666
vn -0.74 0.0899 -0.6666
vn -0.74 0.0899 -0.6666
vn -0.74 0.0899 -0.6666
vn 0.0003 0.9974 0.0717
vn 0.0003 0.9974 0.0717
vn 0.0003 0.9974 0.0717
vn 0.0003 0.9974 0.0717
vn 0.6719 0.0528 -0.7388
vn 0.6719 0.0528 -0.7388
vn 0.6719 0.0528 -0.7388
vn 0.6719 0.0528 -0.7388
vn -0.0003 -0.9974 -0.0717
vn -0.0003 -0.9974 -0.0717
vn -0.0003 -0.9974 -0.0717
vn -0.0003 -0.9974 -0.0717
vn -0.6719 -0.0528 0.7388
vn -0.6719 -0.0528 0.7388
vn -0.6719 -0.0528 0.7388
vn -0.6719 -0.0528 0.7388
f 3/3/3 2/2/2 1/1/1
f 1/1/1 4/4/4 3/3/3
f 7/7/7 6/6/6 5/5/5
f 5/5/5 8/8/8 7/7/7
f 11/11/11 10/10/10 9/9/9
f 9/9/9 12/12/12 11/11/11
f 15/15/15 14/14/14 13/13/13
f 13/13/13 16/16/16 15/15/15
f 19/19/19 18/18/18 17/17/17
f 17/17/17 20/20/20 19/19/19
f 23/23/23 22/22/22 21/21/21
f 21/21/21 24/24/24 23/23/23
