# VPXTOOL table OBJ file
# VPXTOOL OBJ file
# numVerts: 156 numFaces: 90
o p_L36_
v -0.131729 -0.045146 -0.10292
v -0.131725 -0.001642 -0.10292
v -0.127761 -0.001642 -0.113857
v -0.127767 -0.045135 -0.11386
v 0.131815 -0.045145 -0.103681
v 0.131811 -0.001642 -0.10368
v 0.133492 -0.001642 -0.091679
v 0.133494 -0.045161 -0.091679
v -0.127767 -0.045135 -0.11386
v -0.127761 -0.001642 -0.113857
v -0.121637 -0.001642 -0.122438
v -0.121644 -0.045123 -0.122445
v -0.121644 -0.045123 -0.122445
v -0.121637 -0.001642 -0.122438
v -0.112912 -0.001642 -0.128324
v -0.112914 -0.045136 -0.12833
v -0.112914 -0.045136 -0.12833
v -0.112912 -0.001642 -0.128324
v -0.101956 -0.001642 -0.132007
v -0.101957 -0.045147 -0.132011
v 0.133535 -0.045161 0.091646
v 0.133533 -0.001642 0.091646
v 0.131839 -0.001642 0.103594
v 0.131843 -0.045145 0.103595
v 0.101959 -0.045147 0.132167
v 0.101958 -0.001642 0.132164
v 0.089888 -0.001642 0.133509
v 0.089888 -0.045168 0.13351
v 0.112968 -0.045136 0.12858
v 0.112965 -0.001642 0.128575
v 0.101958 -0.001642 0.132164
v 0.101959 -0.045147 0.132167
v -0.131719 -0.045145 0.103586
v -0.131715 -0.001642 0.103585
v -0.133385 -0.001642 0.091663
v -0.133387 -0.045161 0.091663
v 0.121726 -0.045123 0.122792
v 0.121719 -0.001642 0.122785
v 0.112965 -0.001642 0.128575
v 0.112968 -0.045136 0.12858
v 0.089886 -0.045169 -0.133436
v 0.089886 -0.001642 -0.133435
v 0.101917 -0.001642 -0.132149
v 0.101918 -0.045147 -0.132152
v -0.089925 -0.045166 -0.133436
v -0.089924 -0.001642 -0.133435
v 0.089886 -0.001642 -0.133435
v 0.089886 -0.045169 -0.133436
v 0.127859 -0.045135 0.114343
v 0.127854 -0.001642 0.11434
v 0.121719 -0.001642 0.122785
v 0.121726 -0.045123 0.122792
v 0.101918 -0.045147 -0.132152
v 0.101917 -0.001642 -0.132149
v 0.112907 -0.001642 -0.128618
v 0.112909 -0.045136 -0.128623
v -0.089922 -0.045168 0.133505
v -0.089922 -0.001642 0.133503
v -0.101968 -0.001642 0.13215
v -0.101968 -0.045147 0.132153
v 0.089888 -0.045168 0.13351
v 0.089888 -0.001642 0.133509
v -0.089922 -0.001642 0.133503
v -0.089922 -0.045168 0.133505
v 0.131843 -0.045145 0.103595
v 0.131839 -0.001642 0.103594
v 0.127854 -0.001642 0.11434
v 0.127859 -0.045135 0.114343
v 0.112909 -0.045136 -0.128623
v 0.112907 -0.001642 -0.128618
v 0.121661 -0.001642 -0.122874
v 0.121668 -0.045123 -0.122881
v -0.101968 -0.045147 0.132153
v -0.101968 -0.001642 0.13215
v -0.112942 -0.001642 0.128551
v -0.112945 -0.045136 0.128556
v -0.101957 -0.045147 -0.132011
v -0.101956 -0.001642 -0.132007
v -0.089924 -0.001642 -0.133435
v -0.089925 -0.045166 -0.133436
v 0.121668 -0.045123 -0.122881
v 0.121661 -0.001642 -0.122874
v 0.127812 -0.001642 -0.114449
v 0.127817 -0.045135 -0.114451
v -0.112945 -0.045136 0.128556
v -0.112942 -0.001642 0.128551
v -0.121661 -0.001642 0.122757
v -0.121668 -0.045123 0.122764
v 0.127817 -0.045135 -0.114451
v 0.127812 -0.001642 -0.114449
v 0.131811 -0.001642 -0.10368
v 0.131815 -0.045145 -0.103681
v -0.133387 -0.045161 0.091663
v -0.133385 -0.001642 0.091663
v -0.133385 -0.001642 -0.090769
v -0.133386 -0.045162 -0.090769
v -0.121668 -0.045123 0.122764
v -0.121661 -0.001642 0.122757
v -0.127762 -0.001642 0.114317
v -0.127768 -0.045135 0.11432
v -0.133386 -0.045162 -0.090769
v -0.133385 -0.001642 -0.090769
v -0.131725 -0.001642 -0.10292
v -0.131729 -0.045146 -0.10292
v 0.133494 -0.045161 -0.091679
v 0.133492 -0.001642 -0.091679
v 0.133533 -0.001642 0.091646
v 0.133535 -0.045161 0.091646
v -0.121644 -0.045123 -0.122445
v -0.112914 -0.045136 -0.12833
v -0.101957 -0.045147 -0.132011
v -0.089925 -0.045166 -0.133436
v 0.089886 -0.045169 -0.133436
v 0.101918 -0.045147 -0.132152
v 0.112909 -0.045136 -0.128623
v 0.121668 -0.045123 -0.122881
v 0.127817 -0.045135 -0.114451
v 0.131815 -0.045145 -0.103681
v 0.133494 -0.045161 -0.091679
v 0.133535 -0.045161 0.091646
v 0.131843 -0.045145 0.103595
v 0.127859 -0.045135 0.114343
v 0.121726 -0.045123 0.122792
v 0.112968 -0.045136 0.12858
v 0.101959 -0.045147 0.132167
v 0.089888 -0.045168 0.13351
v -0.089922 -0.045168 0.133505
v -0.101968 -0.045147 0.132153
v -0.112945 -0.045136 0.128556
v -0.121668 -0.045123 0.122764
v -0.127768 -0.045135 0.11432
v -0.131719 -0.045145 0.103586
v -0.133387 -0.045161 0.091663
v -0.133386 -0.045162 -0.090769
v -0.131729 -0.045146 -0.10292
v -0.127767 -0.045135 -0.11386
v -0.127768 -0.045135 0.11432
v -0.127762 -0.001642 0.114317
v -0.131715 -0.001642 0.103585
v -0.131719 -0.045145 0.103586
v -0.086951 -0.092786 0.085128
v -0.086951 -0.092786 0.028556
v -0.086951 -0.106929 0.028556
v -0.086951 -0.106929 0.085128
v -0.086951 -0.092786 0.028556
v -0.030378 -0.092786 0.028556
v -0.030378 -0.106929 0.028556
v -0.086951 -0.106929 0.028556
v -0.030378 -0.092786 0.028556
v -0.030378 -0.092786 0.085128
v -0.030378 -0.106929 0.085128
v -0.030378 -0.106929 0.028556
v -0.030378 -0.092786 0.085128
v -0.086951 -0.092786 0.085128
v -0.086951 -0.106929 0.085128
v -0.030378 -0.106929 0.085128
vt 0.057698 0.84734601
vt 0.020176 0.876812994
vt 0.034417 0.916112006
vt 0.070826 0.88357198
vt 0.942597 0.8499
vt 0.980145 0.879584014
vt 0.986222 0.83618999
vt 0.948199 0.80989897
vt 0.070826 0.88357198
vt 0.034417 0.916112006
vt 0.056215 0.94665402
vt 0.09092 0.911726
vt 0.09092 0.911726
vt 0.056215 0.94665402
vt 0.087275 0.96760702
vt 0.11955 0.93103999
vt 0.11955 0.93103999
vt 0.087275 0.96760702
vt 0.126648 0.980843008
vt 0.155844 0.943241
vt 0.948339 0.19021499
vt 0.986373 0.163935
vt 0.980249 0.12073398
vt 0.942693 0.15039301
vt 0.844189 0.056235015
vt 0.873388 0.018588006
vt 0.829669 0.013715029
vt 0.803888 0.05174303
vt 0.880659 0.06812602
vt 0.912952 0.031488
vt 0.873388 0.018588006
vt 0.844189 0.056235015
vt 0.057728 0.15041602
vt 0.020208 0.12076002
vt 0.014171 0.16386998
vt 0.052163 0.19015503
vt 0.909379 0.08712101
vt 0.944109 0.052094996
vt 0.912952 0.031488
vt 0.880659 0.06812602
vt 0.803888 0.94800502
vt 0.829669 0.986011028
vt 0.873254 0.981351972
vt 0.844065 0.94371003
vt 0.196 0.948005974
vt 0.17021 0.986011982
vt 0.829669 0.986011028
vt 0.803888 0.94800502
vt 0.929499 0.11481899
vt 0.965936 0.082141995
vt 0.944109 0.052094996
vt 0.909379 0.08712101
vt 0.844065 0.94371003
vt 0.873254 0.981351972
vt 0.91275 0.968662977
vt 0.880473 0.932012975
vt 0.195999 0.051761985
vt 0.170209 0.01373601
vt 0.126582 0.018638015
vt 0.155783 0.05628097
vt 0.803888 0.05174303
vt 0.829669 0.013715029
vt 0.170209 0.01373601
vt 0.195999 0.051761985
vt 0.942693 0.15039301
vt 0.980249 0.12073398
vt 0.965936 0.082141995
vt 0.929499 0.11481899
vt 0.880473 0.932012975
vt 0.91275 0.968662977
vt 0.943905 0.948224008
vt 0.909191 0.91317302
vt 0.155783 0.05628097
vt 0.126582 0.018638015
vt 0.087138 0.031572998
vt 0.119424 0.068203986
vt 0.155844 0.943241
vt 0.126648 0.980843008
vt 0.17021 0.986011982
vt 0.196 0.948005974
vt 0.909191 0.91317302
vt 0.943905 0.948224008
vt 0.965783 0.91825199
vt 0.929358 0.885544
vt 0.119424 0.068203986
vt 0.087138 0.031572998
vt 0.05611 0.05219102
vt 0.090823 0.08721
vt 0.929358 0.885544
vt 0.965783 0.91825199
vt 0.980145 0.879584014
vt 0.942597 0.8499
vt 0.052163 0.19015503
vt 0.014171 0.16386998
vt 0.014172 0.83285701
vt 0.052164 0.80682701
vt 0.090823 0.08721
vt 0.05611 0.05219102
vt 0.034405 0.082219005
vt 0.070815 0.11488998
vt 0.052164 0.80682701
vt 0.014172 0.83285701
vt 0.020176 0.876812994
vt 0.057698 0.84734601
vt 0.948199 0.80989897
vt 0.986222 0.83618999
vt 0.986373 0.163935
vt 0.948339 0.19021499
vt 0.09092 0.911726
vt 0.11955 0.93103999
vt 0.155844 0.943241
vt 0.196 0.948005974
vt 0.803888 0.94800502
vt 0.844065 0.94371003
vt 0.880473 0.932012975
vt 0.909191 0.91317302
vt 0.929358 0.885544
vt 0.942597 0.8499
vt 0.948199 0.80989897
vt 0.948339 0.19021499
vt 0.942693 0.15039301
vt 0.929499 0.11481899
vt 0.909379 0.08712101
vt 0.880659 0.06812602
vt 0.844189 0.056235015
vt 0.803888 0.05174303
vt 0.195999 0.051761985
vt 0.155783 0.05628097
vt 0.119424 0.068203986
vt 0.090823 0.08721
vt 0.070815 0.11488998
vt 0.057728 0.15041602
vt 0.052163 0.19015503
vt 0.052164 0.80682701
vt 0.057698 0.84734601
vt 0.070826 0.88357198
vt 0.070815 0.11488998
vt 0.034405 0.082219005
vt 0.020208 0.12076002
vt 0.057728 0.15041602
vt 0 0
vt 0 0
vt 0 0
vt 0 0
vt 0 0
vt 0 0
vt 0 0
vt 0 0
vt 0 0
vt 0 0
vt 0 0
vt 0 0
vt 0 0
vt 0 0
vt 0 0
vt 0 0
vn 0.9402 -0.0001 0.3406
vn 0.9402 -0.0001 0.3406
vn 0.9402 -0.0001 0.3406
vn 0.9402 -0.0001 0.3406
vn -0.9903 -0.0001 0.1386
vn -0.9903 -0.0001 0.1386
vn -0.9903 -0.0001 0.1386
vn -0.9903 -0.0001 0.1386
vn 0.8141 -0.0002 0.5808
vn 0.8141 -0.0002 0.5808
vn 0.8141 -0.0002 0.5808
vn 0.8141 -0.0002 0.5808
vn 0.5591 -0.0002 0.8291
vn 0.5591 -0.0002 0.8291
vn 0.5591 -0.0002 0.8291
vn 0.5591 -0.0002 0.8291
vn 0.3185 -0.0001 0.9479
vn 0.3185 -0.0001 0.9479
vn 0.3185 -0.0001 0.9479
vn 0.3185 -0.0001 0.9479
vn -0.9901 -0.0001 -0.1403
vn -0.9901 -0.0001 -0.1403
vn -0.9901 -0.0001 -0.1403
vn -0.9901 -0.0001 -0.1403
vn -0.1107 -0.0001 -0.9939
vn -0.1107 -0.0001 -0.9939
vn -0.1107 -0.0001 -0.9939
vn -0.1107 -0.0001 -0.9939
vn -0.3099 -0.0001 -0.9508
vn -0.3099 -0.0001 -0.9508
vn -0.3099 -0.0001 -0.9508
vn -0.3099 -0.0001 -0.9508
vn 0.9903 -0.0001 -0.1386
vn 0.9903 -0.0001 -0.1386
vn 0.9903 -0.0001 -0.1386
vn 0.9903 -0.0001 -0.1386
vn -0.5515 -0.0002 -0.8342
vn -0.5515 -0.0002 -0.8342
vn -0.5515 -0.0002 -0.8342
vn -0.5515 -0.0002 -0.8342
vn -0.1062 -0.0001 0.9943
vn -0.1062 -0.0001 0.9943
vn -0.1062 -0.0001 0.9943
vn -0.1062 -0.0001 0.9943
vn -0 -0 1
vn -0 -0 1
vn -0 -0 1
vn -0 -0 1
vn -0.8092 -0.0002 -0.5876
vn -0.8092 -0.0002 -0.5876
vn -0.8092 -0.0002 -0.5876
vn -0.8092 -0.0002 -0.5876
vn -0.3058 -0.0001 0.9521
vn -0.3058 -0.0001 0.9521
vn -0.3058 -0.0001 0.9521
vn -0.3058 -0.0001 0.9521
vn 0.1116 -0.0001 -0.9938
vn 0.1116 -0.0001 -0.9938
vn 0.1116 -0.0001 -0.9938
vn 0.1116 -0.0001 -0.9938
vn 0 -0 -1
vn 0 -0 -1
vn 0 -0 -1
vn 0 -0 -1
vn -0.9376 -0.0001 -0.3477
vn -0.9376 -0.0001 -0.3477
vn -0.9376 -0.0001 -0.3477
vn -0.9376 -0.0001 -0.3477
vn -0.5484 -0.0002 0.8362
vn -0.5484 -0.0002 0.8362
vn -0.5484 -0.0002 0.8362
vn -0.5484 -0.0002 0.8362
vn 0.3115 -0.0001 -0.9502
vn 0.3115 -0.0001 -0.9502
vn 0.3115 -0.0001 -0.9502
vn 0.3115 -0.0001 -0.9502
vn 0.1177 -0.0001 0.993
vn 0.1177 -0.0001 0.993
vn 0.1177 -0.0001 0.993
vn 0.1177 -0.0001 0.993
vn -0.8078 -0.0002 0.5894
vn -0.8078 -0.0002 0.5894
vn -0.8078 -0.0002 0.5894
vn -0.8078 -0.0002 0.5894
vn 0.5533 -0.0002 -0.833
vn 0.5533 -0.0002 -0.833
vn 0.5533 -0.0002 -0.833
vn 0.5533 -0.0002 -0.833
vn -0.9375 -0.0001 0.3481
vn -0.9375 -0.0001 0.3481
vn -0.9375 -0.0001 0.3481
vn -0.9375 -0.0001 0.3481
vn 1 -0 0
vn 1 -0 0
vn 1 -0 0
vn 1 -0 0
vn 0.8105 -0.0002 -0.5857
vn 0.8105 -0.0002 -0.5857
vn 0.8105 -0.0002 -0.5857
vn 0.8105 -0.0002 -0.5857
vn 0.9908 -0.0001 0.1352
vn 0.9908 -0.0001 0.1352
vn 0.9908 -0.0001 0.1352
vn 0.9908 -0.0001 0.1352
vn -1 -0 0.0002
vn -1 -0 0.0002
vn -1 -0 0.0002
vn -1 -0 0.0002
vn -0 1 0
vn -0 1 0
vn -0 1 0
vn -0 1 0
vn -0 1 0
vn -0 1 0
vn -0 1 0
vn -0 1 0
vn -0 1 0
vn -0 1 0
vn -0 1 0
vn -0 1 0
vn -0 1 0
vn -0 1 0
vn -0 1 0
vn -0 1 0
vn -0 1 0
vn -0 1 0
vn -0 1 0
vn -0 1 0
vn -0 1 0
vn -0 1 0
vn -0 1 0
vn -0 1 0
vn -0 1 0
vn -0 1 0
vn -0 1 0
vn -0 1 0
vn 0.9384 -0.0001 -0.3456
vn 0.9384 -0.0001 -0.3456
vn 0.9384 -0.0001 -0.3456
vn 0.9384 -0.0001 -0.3456
vn 1 -0 0
vn 1 -0 0
vn 1 -0 0
vn 1 -0 0
vn -0 -0 1
vn -0 -0 1
vn -0 -0 1
vn -0 -0 1
vn -1 -0 0
vn -1 -0 0
vn -1 -0 0
vn -1 -0 0
vn 0 -0 -1
vn 0 -0 -1
vn 0 -0 -1
vn 0 -0 -1
f 3/3/3 2/2/2 1/1/1
f 4/4/4 3/3/3 1/1/1
f 7/7/7 6/6/6 5/5/5
f 8/8/8 7/7/7 5/5/5
f 11/11/11 10/10/10 9/9/9
f 12/12/12 11/11/11 9/9/9
f 15/15/15 14/14/14 13/13/13
f 16/16/16 15/15/15 13/13/13
f 19/19/19 18/18/18 17/17/17
f 20/20/20 19/19/19 17/17/17
f 23/23/23 22/22/22 21/21/21
f 24/24/24 23/23/23 21/21/21
f 27/27/27 26/26/26 25/25/25
f 28/28/28 27/27/27 25/25/25
f 31/31/31 30/30/30 29/29/29
f 32/32/32 31/31/31 29/29/29
f 35/35/35 34/34/34 33/33/33
f 36/36/36 35/35/35 33/33/33
f 39/39/39 38/38/38 37/37/37
f 40/40/40 39/39/39 37/37/37
f 43/43/43 42/42/42 41/41/41
f 44/44/44 43/43/43 41/41/41
f 47/47/47 46/46/46 45/45/45
f 48/48/48 47/47/47 45/45/45
f 51/51/51 50/50/50 49/49/49
f 52/52/52 51/51/51 49/49/49
f 55/55/55 54/54/54 53/53/53
f 56/56/56 55/55/55 53/53/53
f 59/59/59 58/58/58 57/57/57
f 60/60/60 59/59/59 57/57/57
f 63/63/63 62/62/62 61/61/61
f 64/64/64 63/63/63 61/61/61
f 67/67/67 66/66/66 65/65/65
f 68/68/68 67/67/67 65/65/65
f 71/71/71 70/70/70 69/69/69
f 72/72/72 71/71/71 69/69/69
f 75/75/75 74/74/74 73/73/73
f 76/76/76 75/75/75 73/73/73
f 79/79/79 78/78/78 77/77/77
f 80/80/80 79/79/79 77/77/77
f 83/83/83 82/82/82 81/81/81
f 84/84/84 83/83/83 81/81/81
f 87/87/87 86/86/86 85/85/85
f 88/88/88 87/87/87 85/85/85
f 91/91/91 90/90/90 89/89/89
f 92/92/92 91/91/91 89/89/89
f 95/95/95 94/94/94 93/93/93
f 96/96/96 95/95/95 93/93/93
f 99/99/99 98/98/98 97/97/97
f 100/100/100 99/99/99 97/97/97
f 103/103/103 102/102/102 101/101/101
f 104/104/104 103/103/103 101/101/101
f 107/107/107 106/106/106 105/105/105
f 108/108/108 107/107/107 105/105/105
f 111/111/111 110/110/110 109/109/109
f 112/112/112 111/111/111 109/109/109
f 113/113/113 112/112/112 109/109/109
f 114/114/114 113/113/113 109/109/109
f 115/115/115 114/114/114 109/109/109
f 116/116/116 115/115/115 109/109/109
f 117/117/117 116/116/116 109/109/109
f 118/118/118 117/117/117 109/109/109
f 119/119/119 118/118/118 109/109/109
f 120/120/120 119/119/119 109/109/109
f 121/121/121 120/120/120 109/109/109
f 122/122/122 121/121/121 109/109/109
f 123/123/123 122/122/122 109/109/109
f 124/124/124 123/123/123 109/109/109
f 125/125/125 124/124/124 109/109/109
f 126/126/126 125/125/125 109/109/109
f 127/127/127 126/126/126 109/109/109
f 128/128/128 127/127/127 109/109/109
f 129/129/129 128/128/128 109/109/109
f 130/130/130 129/129/129 109/109/109
f 131/131/131 130/130/130 109/109/109
f 132/132/132 131/131/131 109/109/109
f 133/133/133 132/132/132 109/109/109
f 134/134/134 133/133/133 109/109/109
f 135/135/135 134/134/134 109/109/109
f 136/136/136 135/135/135 109/109/109
f 139/139/139 138/138/138 137/137/137
f 140/140/140 139/139/139 137/137/137
f 143/143/143 142/142/142 141/141/141
f 144/144/144 143/143/143 141/141/141
f 147/147/147 146/146/146 145/145/145
f 148/148/148 147/147/147 145/145/145
f 151/151/151 150/150/150 149/149/149
f 152/152/152 151/151/151 149/149/149
f 155/155/155 154/154/154 153/153/153
f 156/156/156 155/155/155 153/153/153
