# VPXTOOL table OBJ file
# VPXTOOL OBJ file
# numVerts: 64 numFaces: 78
o p_L01_
v 18.131832 31.779911 3.133209
v 17.892075 33.16047 3.128616
v 17.299816 34.358242 3.121434
v 16.354734 35.296547 3.124926
v 15.158523 35.90202 3.126797
v 13.798301 36.123234 3.136942
v -13.809242 36.122353 3.136115
v -15.161564 35.894955 3.128154
v -16.351576 35.295834 3.12334
v -17.28693 34.353287 3.121455
v -17.872744 33.15613 3.128383
v -18.111683 31.779184 3.132576
v 16.327385 -35.32536 3.125122
v 15.143068 -35.918118 3.127865
v 15.143363 -35.918022 0.098217
v 16.327492 -35.325287 0.097573
v 17.266619 -34.401993 3.122262
v 17.26654 -34.402096 0.092876
v 17.86733 -33.22192 3.129423
v 17.867252 -33.22215 0.102924
v 18.12611 -31.860355 3.130786
v 18.126108 -31.860376 0.104007
v 18.131824 31.779997 0.108907
v 17.891962 33.16081 0.101526
v 17.299751 34.358334 0.091429
v 16.354836 35.29648 0.097362
v 15.158813 35.901924 0.096399
v 13.798449 36.123222 0.114423
v -13.809361 36.12234 0.113024
v -15.16187 35.894855 0.099515
v -16.351715 35.29573 0.094938
v -17.286835 34.35342 0.092166
v -17.872643 33.15645 0.101899
v -18.111675 31.779263 0.10856
v -18.111656 -31.76184 3.132575
v -18.111649 -31.761919 0.108521
v -17.873531 -33.1457 3.128484
v -17.873428 -33.146023 0.10192
v -17.288664 -34.352257 3.121228
v -17.288599 -34.352352 0.091556
v -16.353403 -35.30033 3.124688
v -16.353506 -35.300255 0.097341
v -15.164993 -35.91315 3.126806
v -15.165298 -35.913048 0.096554
v -13.808704 -36.136703 3.137195
v -13.808857 -36.13669 0.114614
v 13.798265 -36.136684 3.137338
v 13.798404 -36.136673 0.114775
v -13.471346 18.283728 4.432892
v -13.471353 5.050831 4.432894
v -13.471353 5.050831 5.091508
v -13.471354 18.283728 5.091506
v -13.471353 5.050831 4.432894
v -0.238512 5.05083 4.432895
v -0.238511 5.05083 5.09151
v -13.471353 5.050831 5.091508
v -0.238512 5.05083 4.432895
v -0.23851 18.283726 4.432893
v -0.23851 18.283726 5.091507
v -0.238511 5.05083 5.09151
v -0.23851 18.283726 4.432893
v -13.471346 18.283728 4.432892
v -13.471354 18.283728 5.091506
v -0.23851 18.283726 5.091507
vt 0.740604 0.10172701
vt 0.737512 0.084755
vt 0.729888 0.07011598
vt 0.71762 0.05874902
vt 0.702067 0.05138898
vt 0.684198 0.04879999
vt 0.315656 0.048801005
vt 0.297902 0.05149299
vt 0.282417 0.058737993
vt 0.27029 0.070169985
vt 0.262746 0.084802985
vt 0.259661 0.10172999
vt 0.71726 0.941605985
vt 0.701858 0.948799014
vt 0.718897 0.986683011
vt 0.735586 0.97885698
vt 0.729448 0.93041301
vt 0.748817 0.966746986
vt 0.737185 0.915983975
vt 0.757182 0.951056004
vt 0.740544 0.89929199
vt 0.760826 0.93295902
vt 0.760872 0.068178
vt 0.757542 0.049736977
vt 0.749299 0.033818007
vt 0.735977 0.021526992
vt 0.719128 0.013509989
vt 0.699702 0.010820985
vt 0.300136 0.010814011
vt 0.280849 0.013647974
vt 0.264056 0.021502018
vt 0.250899 0.033886015
vt 0.242742 0.049797
vt 0.239417 0.06818402
vt 0.259661 0.898054
vt 0.239418 0.931581974
vt 0.262737 0.915068984
vt 0.242732 0.95006597
vt 0.270269 0.92982298
vt 0.250874 0.966112018
vt 0.282409 0.941308975
vt 0.264055 0.97853303
vt 0.297854 0.948753
vt 0.280787 0.986642003
vt 0.315666 0.951366007
vt 0.30015 0.989359021
vt 0.684196 0.95136398
vt 0.6997 0.989356995
vt 0 0
vt 0 0
vt 0 0
vt 0 0
vt 0 0
vt 0 0
vt 0 0
vt 0 0
vt 0 0
vt 0 0
vt 0 0
vt 0 0
vt 0 0
vt 0 0
vt 0 0
vt 0 0
vn -0.7224 -0.062 -0.6887
vn -0.7002 -0.2281 -0.6765
vn -0.6018 -0.433 -0.6711
vn -0.4324 -0.5991 -0.6738
vn -0.2286 -0.7028 -0.6736
vn -0.0581 -0.7211 -0.6904
vn 0.0602 -0.7216 -0.6896
vn 0.2294 -0.7014 -0.6748
vn 0.4347 -0.599 -0.6725
vn 0.6039 -0.4292 -0.6716
vn 0.7003 -0.2265 -0.6769
vn 0.7224 -0.062 -0.6886
vn -0.4297 0.601 -0.6739
vn -0.2269 0.7027 -0.6743
vn -0.3081 0.9513 0
vn -0.5816 0.8135 0
vn -0.5977 0.4373 -0.6719
vn -0.8065 0.5912 0
vn -0.6964 0.2373 -0.6773
vn -0.9461 0.3238 0
vn -0.7237 0.0679 -0.6867
vn -0.9956 0.0938 0
vn -0.9963 -0.086 0
vn -0.9504 -0.311 0
vn -0.8114 -0.5845 0
vn -0.5854 -0.8107 0
vn -0.3103 -0.9506 0
vn -0.0808 -0.9967 0
vn 0.0835 -0.9965 0
vn 0.3119 -0.9501 0
vn 0.5876 -0.8091 0
vn 0.8147 -0.5799 0
vn 0.9511 -0.3089 0
vn 0.9963 -0.0859 0
vn 0.7223 0.0614 -0.6888
vn 0.9963 0.0852 0
vn 0.7007 0.2243 -0.6773
vn 0.9519 0.3064 0
vn 0.6056 0.4271 -0.6714
vn 0.8166 0.5771 0
vn 0.438 0.5952 -0.6737
vn 0.5926 0.8054 0
vn 0.2322 0.702 -0.6732
vn 0.3149 0.9491 0
vn 0.0589 0.7211 -0.6903
vn 0.0819 0.9966 0
vn -0.0581 0.721 -0.6905
vn -0.0808 0.9967 0
vn 1 -0 0
vn 1 -0 0
vn 1 -0 0
vn 1 -0 0
vn 0 1 0
vn 0 1 0
vn 0 1 0
vn 0 1 0
vn -1 0 0
vn -1 0 0
vn -1 0 0
vn -1 0 0
vn -0 -1 0
vn -0 -1 0
vn -0 -1 0
vn -0 -1 0
f 51/51/51 50/50/50 49/49/49
f 52/52/52 51/51/51 49/49/49
f 3/3/3 2/2/2 1/1/1
f 24/24/24 2/2/2 3/3/3
f 24/24/24 23/23/23 2/2/2
f 23/23/23 1/1/1 2/2/2
f 25/25/25 24/24/24 3/3/3
f 23/23/23 22/22/22 1/1/1
f 25/25/25 3/3/3 4/4/4
f 4/4/4 3/3/3 1/1/1
f 26/26/26 25/25/25 4/4/4
f 26/26/26 4/4/4 5/5/5
f 5/5/5 4/4/4 1/1/1
f 27/27/27 26/26/26 5/5/5
f 27/27/27 5/5/5 6/6/6
f 6/6/6 5/5/5 1/1/1
f 28/28/28 27/27/27 6/6/6
f 28/28/28 6/6/6 7/7/7
f 7/7/7 6/6/6 1/1/1
f 29/29/29 28/28/28 7/7/7
f 29/29/29 7/7/7 8/8/8
f 8/8/8 7/7/7 1/1/1
f 30/30/30 29/29/29 8/8/8
f 30/30/30 8/8/8 9/9/9
f 9/9/9 8/8/8 1/1/1
f 31/31/31 30/30/30 9/9/9
f 31/31/31 9/9/9 10/10/10
f 10/10/10 9/9/9 1/1/1
f 32/32/32 31/31/31 10/10/10
f 32/32/32 10/10/10 11/11/11
f 11/11/11 10/10/10 1/1/1
f 33/33/33 32/32/32 11/11/11
f 33/33/33 11/11/11 12/12/12
f 12/12/12 11/11/11 1/1/1
f 34/34/34 33/33/33 12/12/12
f 22/22/22 21/21/21 1/1/1
f 12/12/12 1/1/1 21/21/21
f 22/22/22 20/20/20 21/21/21
f 34/34/34 12/12/12 35/35/35
f 35/35/35 12/12/12 21/21/21
f 36/36/36 34/34/34 35/35/35
f 20/20/20 19/19/19 21/21/21
f 20/20/20 18/18/18 19/19/19
f 36/36/36 35/35/35 37/37/37
f 38/38/38 36/36/36 37/37/37
f 18/18/18 17/17/17 19/19/19
f 21/21/21 19/19/19 17/17/17
f 35/35/35 21/21/21 17/17/17
f 37/37/37 35/35/35 17/17/17
f 18/18/18 16/16/16 17/17/17
f 38/38/38 37/37/37 39/39/39
f 39/39/39 37/37/37 17/17/17
f 40/40/40 38/38/38 39/39/39
f 40/40/40 39/39/39 41/41/41
f 41/41/41 39/39/39 17/17/17
f 42/42/42 40/40/40 41/41/41
f 42/42/42 41/41/41 43/43/43
f 43/43/43 41/41/41 17/17/17
f 44/44/44 42/42/42 43/43/43
f 44/44/44 43/43/43 45/45/45
f 45/45/45 43/43/43 17/17/17
f 46/46/46 44/44/44 45/45/45
f 16/16/16 13/13/13 17/17/17
f 16/16/16 15/15/15 13/13/13
f 46/46/46 45/45/45 47/47/47
f 47/47/47 45/45/45 17/17/17
f 48/48/48 46/46/46 47/47/47
f 13/13/13 14/14/14 17/17/17
f 14/14/14 47/47/47 17/17/17
f 15/15/15 14/14/14 13/13/13
f 48/48/48 47/47/47 14/14/14
f 15/15/15 48/48/48 14/14/14
f 55/55/55 54/54/54 53/53/53
f 56/56/56 55/55/55 53/53/53
f 59/59/59 58/58/58 57/57/57
f 60/60/60 59/59/59 57/57/57
f 63/63/63 62/62/62 61/61/61
f 64/64/64 63/63/63 61/61/61
