# VPXTOOL table OBJ file
# VPXTOOL OBJ file
# numVerts: 616 numFaces: 448
o Peg6
v 0 -0.12513 -0.252302
v -0.016339 -0.12406 -0.010652
v 0 -0.161055 -0.001702
v 0.1611 0 -0.001702
v 0.124104 -0.016294 -0.010652
v 0.15561 -0.041652 -0.001702
v 0.15561 0.041652 -0.001702
v 0.124104 0.016294 -0.010652
v 0.115647 -0.047857 -0.010652
v 0.139516 -0.080505 -0.001702
v 0.139516 0.080505 -0.001702
v 0.115647 0.047857 -0.010652
v 0.099307 -0.076157 -0.010652
v 0.113916 -0.113869 -0.001702
v 0.113916 0.113869 -0.001702
v 0.099307 0.076157 -0.010652
v 0.076202 -0.099263 -0.010652
v 0.08055 -0.139471 -0.001702
v 0.047902 -0.115602 -0.010652
v 0.041696 -0.155565 -0.001702
v 0.08055 0.139471 -0.001702
v 0.076202 0.099263 -0.010652
v 0.041696 0.155565 -0.001702
v 0.047902 0.115602 -0.010652
v 0 0.161055 -0.001702
v 0.016339 0.12406 -0.010652
v -0.041696 0.155565 -0.001702
v -0.016339 0.12406 -0.010652
v -0.08055 0.139471 -0.001702
v -0.047902 0.115602 -0.010652
v -0.113916 0.113869 -0.001702
v -0.076202 0.099263 -0.010652
v -0.139516 0.080505 -0.001702
v -0.099307 0.076157 -0.010652
v -0.15561 0.041652 -0.001702
v -0.115647 0.047857 -0.010652
v -0.1611 0 -0.001702
v -0.124104 0.016294 -0.010652
v -0.124104 -0.016294 -0.010652
v -0.15561 -0.041652 -0.001702
v -0.115647 -0.047857 -0.010652
v -0.139516 -0.080505 -0.001702
v -0.099307 -0.076157 -0.010652
v -0.113916 -0.113869 -0.001702
v -0.076202 -0.099263 -0.010652
v -0.08055 -0.139471 -0.001702
v -0.047902 -0.115602 -0.010652
v -0.041696 -0.155565 -0.001702
v -0.016339 -0.12406 -0.010652
v 0 -0.161055 -0.001702
v 0.016339 -0.12406 -0.010652
v 0.041696 -0.155565 -0.001702
v 0.125175 0 -0.252302
v 0.120909 -0.032352 -0.252302
v 0.124104 -0.016294 -0.010652
v 0.124104 0.016294 -0.010652
v 0.120909 0.032352 -0.252302
v 0.108404 -0.062543 -0.252302
v 0.115647 -0.047857 -0.010652
v 0.115647 0.047857 -0.010652
v 0.108404 0.062543 -0.252302
v 0.088512 -0.088467 -0.252302
v 0.099307 -0.076157 -0.010652
v 0.099307 0.076157 -0.010652
v 0.088512 0.088467 -0.252302
v 0.108404 0.062543 -0.252302
v 0.088512 -0.088467 -0.252302
v 0.062587 -0.108359 -0.252302
v 0.076202 -0.099263 -0.010652
v 0.062587 -0.108359 -0.252302
v 0.032397 -0.120864 -0.252302
v 0.047902 -0.115602 -0.010652
v 0.076202 0.099263 -0.010652
v 0.062587 0.108359 -0.252302
v 0.047902 0.115602 -0.010652
v 0.032397 0.120864 -0.252302
v 0.016339 0.12406 -0.010652
v 0 0.12513 -0.252302
v -0.016339 0.12406 -0.010652
v -0.032397 0.120864 -0.252302
v -0.047902 0.115602 -0.010652
v -0.062587 0.108359 -0.252302
v -0.076202 0.099263 -0.010652
v -0.088512 0.088467 -0.252302
v -0.062587 0.108359 -0.252302
v -0.099307 0.076157 -0.010652
v -0.108404 0.062543 -0.252302
v -0.115647 0.047857 -0.010652
v -0.120909 0.032352 -0.252302
v -0.124104 0.016294 -0.010652
v -0.125175 0 -0.252302
v -0.120909 -0.032352 -0.252302
v -0.124104 -0.016294 -0.010652
v -0.108404 -0.062543 -0.252302
v -0.115647 -0.047857 -0.010652
v -0.088512 -0.088467 -0.252302
v -0.099307 -0.076157 -0.010652
v -0.062587 -0.108359 -0.252302
v -0.076202 -0.099263 -0.010652
v -0.032397 -0.120864 -0.252302
v -0.047902 -0.115602 -0.010652
v 0 -0.12513 -0.252302
v -0.016339 -0.12406 -0.010652
v 0.032397 -0.120864 -0.252302
v 0 -0.12513 -0.252302
v 0.016339 -0.12406 -0.010652
v 0 -0.161055 -0.001702
v 0.016339 -0.12406 -0.010652
v 0 -0.12513 -0.252302
v -0.032397 -0.120864 -0.252302
v -0.047902 -0.115602 -0.010652
v -0.041696 -0.155565 -0.001702
v -0.041696 -0.155565 -0.001702
v -0.016339 -0.12406 -0.010652
v -0.032397 -0.120864 -0.252302
v -0.062587 -0.108359 -0.252302
v -0.076202 -0.099263 -0.010652
v -0.08055 -0.139471 -0.001702
v -0.08055 -0.139471 -0.001702
v -0.047902 -0.115602 -0.010652
v -0.062587 -0.108359 -0.252302
v -0.088512 -0.088467 -0.252302
v -0.099307 -0.076157 -0.010652
v -0.113916 -0.113869 -0.001702
v -0.113916 -0.113869 -0.001702
v -0.076202 -0.099263 -0.010652
v -0.088512 -0.088467 -0.252302
v -0.139516 -0.080505 -0.001702
v -0.099307 -0.076157 -0.010652
v -0.108404 -0.062543 -0.252302
v -0.108404 -0.062543 -0.252302
v -0.115647 -0.047857 -0.010652
v -0.139516 -0.080505 -0.001702
v -0.15561 -0.041652 -0.001702
v -0.115647 -0.047857 -0.010652
v -0.120909 -0.032352 -0.252302
v -0.120909 -0.032352 -0.252302
v -0.124104 -0.016294 -0.010652
v -0.15561 -0.041652 -0.001702
v -0.1611 0 -0.001702
v -0.124104 -0.016294 -0.010652
v -0.125175 0 -0.252302
v 0.032397 -0.120864 -0.252302
v 0.016339 -0.12406 -0.010652
v 0.041696 -0.155565 -0.001702
v 0.041696 -0.155565 -0.001702
v 0.047902 -0.115602 -0.010652
v 0.032397 -0.120864 -0.252302
v 0.062587 -0.108359 -0.252302
v 0.047902 -0.115602 -0.010652
v 0.08055 -0.139471 -0.001702
v 0.08055 -0.139471 -0.001702
v 0.076202 -0.099263 -0.010652
v 0.062587 -0.108359 -0.252302
v 0.088512 -0.088467 -0.252302
v 0.076202 -0.099263 -0.010652
v 0.113916 -0.113869 -0.001702
v 0.113916 -0.113869 -0.001702
v 0.099307 -0.076157 -0.010652
v 0.088512 -0.088467 -0.252302
v 0.108404 -0.062543 -0.252302
v 0.099307 -0.076157 -0.010652
v 0.139516 -0.080505 -0.001702
v 0.139516 -0.080505 -0.001702
v 0.115647 -0.047857 -0.010652
v 0.108404 -0.062543 -0.252302
v 0.120909 -0.032352 -0.252302
v 0.115647 -0.047857 -0.010652
v 0.15561 -0.041652 -0.001702
v 0.124104 -0.016294 -0.010652
v 0.120909 -0.032352 -0.252302
v 0.15561 -0.041652 -0.001702
v 0.125175 0 -0.252302
v 0.124104 -0.016294 -0.010652
v 0.1611 0 -0.001702
v 0 0.161055 -0.001702
v -0.016339 0.12406 -0.010652
v 0 0.12513 -0.252302
v 0 0.12513 -0.252302
v 0.016339 0.12406 -0.010652
v 0 0.161055 -0.001702
v -0.041696 0.155565 -0.001702
v -0.047902 0.115602 -0.010652
v -0.032397 0.120864 -0.252302
v -0.032397 0.120864 -0.252302
v -0.016339 0.12406 -0.010652
v -0.041696 0.155565 -0.001702
v -0.08055 0.139471 -0.001702
v -0.076202 0.099263 -0.010652
v -0.062587 0.108359 -0.252302
v -0.062587 0.108359 -0.252302
v -0.047902 0.115602 -0.010652
v -0.08055 0.139471 -0.001702
v -0.113916 0.113869 -0.001702
v -0.099307 0.076157 -0.010652
v -0.088512 0.088467 -0.252302
v -0.088512 0.088467 -0.252302
v -0.076202 0.099263 -0.010652
v -0.113916 0.113869 -0.001702
v -0.108404 0.062543 -0.252302
v -0.099307 0.076157 -0.010652
v -0.139516 0.080505 -0.001702
v -0.139516 0.080505 -0.001702
v -0.115647 0.047857 -0.010652
v -0.108404 0.062543 -0.252302
v -0.120909 0.032352 -0.252302
v -0.115647 0.047857 -0.010652
v -0.15561 0.041652 -0.001702
v -0.15561 0.041652 -0.001702
v -0.124104 0.016294 -0.010652
v -0.120909 0.032352 -0.252302
v -0.125175 0 -0.252302
v -0.124104 0.016294 -0.010652
v -0.1611 0 -0.001702
v 0.041696 0.155565 -0.001702
v 0.016339 0.12406 -0.010652
v 0.032397 0.120864 -0.252302
v 0.032397 0.120864 -0.252302
v 0.047902 0.115602 -0.010652
v 0.041696 0.155565 -0.001702
v 0.08055 0.139471 -0.001702
v 0.047902 0.115602 -0.010652
v 0.062587 0.108359 -0.252302
v 0.062587 0.108359 -0.252302
v 0.076202 0.099263 -0.010652
v 0.08055 0.139471 -0.001702
v 0.113916 0.113869 -0.001702
v 0.076202 0.099263 -0.010652
v 0.088512 0.088467 -0.252302
v 0.088512 0.088467 -0.252302
v 0.099307 0.076157 -0.010652
v 0.113916 0.113869 -0.001702
v 0.139516 0.080505 -0.001702
v 0.099307 0.076157 -0.010652
v 0.108404 0.062543 -0.252302
v 0.108404 0.062543 -0.252302
v 0.115647 0.047857 -0.010652
v 0.139516 0.080505 -0.001702
v 0.15561 0.041652 -0.001702
v 0.115647 0.047857 -0.010652
v 0.120909 0.032352 -0.252302
v 0.15561 0.041652 -0.001702
v 0.120909 0.032352 -0.252302
v 0.124104 0.016294 -0.010652
v 0.1611 0 -0.001702
v 0.124104 0.016294 -0.010652
v 0.125175 0 -0.252302
v 0.120909 -0.032352 -0.338222
v 0.125175 0 -0.338222
v 0.125175 0 -0.351647
v 0.120909 -0.032352 -0.351647
v 0.120909 0.032353 -0.351647
v 0.108404 -0.062543 -0.338222
v 0.120909 0.032353 -0.338222
v 0.108404 -0.062543 -0.351647
v 0.108404 0.062543 -0.351647
v 0.088512 -0.088467 -0.338222
v 0.108404 0.062543 -0.338222
v 0.088512 -0.088467 -0.351647
v 0.088512 0.088467 -0.351647
v 0.062587 -0.108359 -0.338222
v 0.088512 0.088467 -0.338222
v 0.062587 -0.108359 -0.351647
v 0.062587 0.10836 -0.351647
v 0.032397 -0.120864 -0.338222
v 0.032397 -0.120864 -0.351647
v 0.062587 0.108359 -0.338222
v 0.032397 0.120864 -0.351647
v 0.032397 0.120864 -0.338222
v 0 0.12513 -0.351647
v 0 0.12513 -0.338222
v -0.032397 0.120864 -0.351647
v -0.032397 0.120864 -0.338222
v -0.062587 0.10836 -0.351647
v -0.062587 0.108359 -0.338222
v -0.088512 0.088467 -0.351647
v -0.088512 0.088467 -0.338222
v -0.108404 0.062543 -0.351647
v -0.108404 0.062543 -0.338222
v -0.120909 0.032353 -0.351647
v -0.120909 0.032353 -0.338222
v -0.125175 0 -0.351647
v -0.125175 0 -0.338222
v -0.120909 -0.032352 -0.351647
v -0.120909 -0.032352 -0.338222
v -0.108404 -0.062543 -0.351647
v -0.108404 -0.062543 -0.338222
v -0.088512 -0.088467 -0.351647
v -0.088512 -0.088467 -0.338222
v -0.062587 -0.108359 -0.351647
v -0.062587 -0.108359 -0.338222
v -0.032397 -0.120864 -0.351647
v -0.032397 -0.120864 -0.338222
v 0 -0.12513 -0.351647
v 0 -0.12513 -0.338222
v 0.032397 -0.120864 -0.351647
v 0.032397 -0.120864 -0.338222
v 0.032397 0.120864 -0.351647
v 0 0.12513 -0.351647
v 0.023999 0.057914 -0.351647
v 0.062587 0.10836 -0.351647
v 0.088512 0.088467 -0.351647
v -0.032397 0.120864 -0.351647
v -0.023999 0.057914 -0.351647
v -0.062587 0.10836 -0.351647
v -0.088512 0.088467 -0.351647
v 0.108404 0.062543 -0.351647
v 0.057937 0.023975 -0.351647
v 0.120909 0.032353 -0.351647
v 0.125175 0 -0.351647
v -0.108404 0.062543 -0.351647
v -0.057937 0.023975 -0.351647
v -0.120909 0.032353 -0.351647
v -0.125175 0 -0.351647
v 0.057937 -0.023975 -0.351647
v 0.120909 -0.032352 -0.351647
v 0.108404 -0.062543 -0.351647
v 0.088512 -0.088467 -0.351647
v -0.057937 -0.023975 -0.351647
v -0.120909 -0.032352 -0.351647
v -0.108404 -0.062543 -0.351647
v -0.088512 -0.088467 -0.351647
v 0.023999 -0.057914 -0.351647
v 0.062587 -0.108359 -0.351647
v 0.032397 -0.120864 -0.351647
v 0 -0.12513 -0.351647
v -0.023999 -0.057914 -0.351647
v -0.062587 -0.108359 -0.351647
v -0.032397 -0.120864 -0.351647
v -0.018752 0.069959 -0.435777
v 0 0.12513 -0.351647
v -0.023999 0.057914 -0.351647
v -0.023999 0.057914 -0.435777
v 0.023999 0.057914 -0.351647
v 0 0.12513 -0.351647
v 0.018752 0.069959 -0.435777
v 0.023999 0.057914 -0.435777
v 0.088512 0.088467 -0.351647
v 0.023999 0.057914 -0.351647
v 0.036226 0.06272 -0.435777
v 0.023999 0.057914 -0.435777
v 0.057937 0.023975 -0.351647
v 0.088512 0.088467 -0.351647
v 0.062747 0.036201 -0.435777
v 0.057937 0.023975 -0.435777
v 0.125175 0 -0.351647
v 0.057937 0.023975 -0.351647
v 0.069984 0.018727 -0.435777
v 0.057937 0.023975 -0.435777
v 0.057937 -0.023975 -0.351647
v 0.125175 0 -0.351647
v 0.069984 -0.018727 -0.435777
v 0.057937 -0.023975 -0.435777
v 0.088512 -0.088467 -0.351647
v 0.057937 -0.023975 -0.351647
v 0.062747 -0.036201 -0.435777
v 0.057937 -0.023975 -0.435777
v 0.023999 -0.057914 -0.351647
v 0.088512 -0.088467 -0.351647
v 0.036226 -0.06272 -0.435777
v 0.023999 -0.057914 -0.435777
v 0 -0.12513 -0.351647
v 0.023999 -0.057914 -0.351647
v 0.018752 -0.069958 -0.435777
v 0.023999 -0.057914 -0.435777
v -0.023999 -0.057914 -0.351647
v 0 -0.12513 -0.351647
v -0.018752 -0.069958 -0.435777
v -0.023999 -0.057914 -0.435777
v -0.088512 -0.088467 -0.351647
v -0.023999 -0.057914 -0.351647
v -0.036226 -0.06272 -0.435777
v -0.023999 -0.057914 -0.435777
v -0.057937 -0.023975 -0.351647
v -0.088512 -0.088467 -0.351647
v -0.062747 -0.036201 -0.435777
v -0.057937 -0.023975 -0.435777
v -0.125175 0 -0.351647
v -0.057937 -0.023975 -0.351647
v -0.069984 -0.018727 -0.435777
v -0.057937 -0.023975 -0.435777
v -0.057937 0.023975 -0.351647
v -0.125175 0 -0.351647
v -0.069984 0.018727 -0.435777
v -0.057937 0.023975 -0.435777
v -0.088512 0.088467 -0.351647
v -0.057937 0.023975 -0.351647
v -0.062747 0.036201 -0.435777
v -0.057937 0.023975 -0.435777
v -0.023999 0.057914 -0.351647
v -0.088512 0.088467 -0.351647
v -0.036226 0.06272 -0.435777
v -0.023999 0.057914 -0.435777
v -0.018752 0.069959 -0.435777
v 0.018752 0.069959 -0.435777
v 0 0.12513 -0.351647
v 0.036226 0.06272 -0.435777
v 0.062747 0.036201 -0.435777
v 0.088512 0.088467 -0.351647
v 0.069984 0.018727 -0.435777
v 0.069984 -0.018727 -0.435777
v 0.125175 0 -0.351647
v 0.088512 -0.088467 -0.351647
v 0.062747 -0.036201 -0.435777
v 0.036226 -0.06272 -0.435777
v 0 -0.12513 -0.351647
v 0.018752 -0.069958 -0.435777
v -0.018752 -0.069958 -0.435777
v -0.088512 -0.088467 -0.351647
v -0.036226 -0.06272 -0.435777
v -0.062747 -0.036201 -0.435777
v -0.125175 0 -0.351647
v -0.069984 -0.018727 -0.435777
v -0.069984 0.018727 -0.435777
v -0.062747 0.036201 -0.435777
v -0.036226 0.06272 -0.435777
v -0.088512 0.088467 -0.351647
v 0 0.063704 -0.435777
v -0.018752 0.069959 -0.435777
v -0.023999 0.057914 -0.435777
v 0.018752 0.069959 -0.435777
v 0.023999 0.057914 -0.435777
v -0.045063 0.045038 -0.435777
v -0.036226 0.06272 -0.435777
v -0.062747 0.036201 -0.435777
v -0.057937 0.023975 -0.435777
v 0.045063 0.045038 -0.435777
v 0.036226 0.06272 -0.435777
v 0.062747 0.036201 -0.435777
v 0.057937 0.023975 -0.435777
v -0.063729 0 -0.435777
v -0.069984 0.018727 -0.435777
v -0.069984 -0.018727 -0.435777
v -0.057937 -0.023975 -0.435777
v 0.063729 0 -0.435777
v 0.069984 0.018727 -0.435777
v 0.069984 -0.018727 -0.435777
v 0.057937 -0.023975 -0.435777
v -0.045063 -0.045038 -0.435777
v -0.062747 -0.036201 -0.435777
v -0.036226 -0.06272 -0.435777
v -0.023999 -0.057914 -0.435777
v 0.045063 -0.045038 -0.435777
v 0.062747 -0.036201 -0.435777
v 0.036226 -0.06272 -0.435777
v 0.023999 -0.057914 -0.435777
v 0 -0.063704 -0.435777
v 0.018752 -0.069958 -0.435777
v -0.018752 -0.069958 -0.435777
v -0.023999 -0.057914 -0.435777
v 0 0.063704 -0.435777
v -0.023999 0.057914 -0.435777
v -0.023999 0.057914 -0.485002
v 0 0.063704 -0.485002
v -0.045063 0.045038 -0.485002
v 0.023999 0.057914 -0.435777
v -0.045063 0.045038 -0.435777
v 0.023999 0.057914 -0.485002
v -0.057937 0.023975 -0.485002
v 0.045063 0.045038 -0.435777
v -0.057937 0.023975 -0.435777
v 0.045063 0.045038 -0.485002
v -0.063729 0 -0.485002
v 0.057937 0.023975 -0.435777
v -0.063729 0 -0.435777
v 0.057937 0.023975 -0.485002
v -0.057937 -0.023975 -0.485002
v 0.063729 0 -0.435777
v -0.057937 -0.023975 -0.435777
v 0.063729 0 -0.485002
v -0.045063 -0.045038 -0.485002
v 0.057937 -0.023975 -0.435777
v -0.045063 -0.045038 -0.435777
v 0.057937 -0.023975 -0.485002
v -0.023999 -0.057914 -0.485002
v -0.023999 -0.057914 -0.435777
v 0.045063 -0.045038 -0.435777
v 0.045063 -0.045038 -0.485002
v 0.023999 -0.057914 -0.435777
v 0.023999 -0.057914 -0.485002
v 0 -0.063704 -0.435777
v 0 -0.063704 -0.485002
v -0.023999 -0.057914 -0.435777
v -0.023999 -0.057914 -0.485002
v 0 0.063704 -0.485002
v -0.023999 0.057914 -0.485002
v 0 0 -0.485002
v 0.023999 0.057914 -0.485002
v -0.045063 0.045038 -0.485002
v 0.045063 0.045038 -0.485002
v -0.057937 0.023975 -0.485002
v 0.057937 0.023975 -0.485002
v -0.063729 0 -0.485002
v 0.063729 0 -0.485002
v -0.057937 -0.023975 -0.485002
v 0.057937 -0.023975 -0.485002
v -0.045063 -0.045038 -0.485002
v 0.045063 -0.045038 -0.485002
v -0.023999 -0.057914 -0.485002
v 0.023999 -0.057914 -0.485002
v 0 -0.063704 -0.485002
v 0.022388 0.083518 -0.295262
v -0.022388 0.083518 -0.295262
v 0 0.089232 -0.317637
v 0.044632 0.077273 -0.317637
v 0 0.089232 -0.272887
v 0.027537 0.102735 -0.338222
v 0.044632 0.077273 -0.272887
v 0.061163 0.06113 -0.295262
v -0.044632 0.077273 -0.317637
v 0.077305 0.0446 -0.317637
v -0.027537 0.102735 -0.338222
v 0.075235 0.075196 -0.338222
v 0.083548 0.022355 -0.295262
v 0.062587 0.108359 -0.338222
v 0.032397 0.120864 -0.338222
v 0.088512 0.088467 -0.338222
v 0 0.12513 -0.338222
v 0.108404 0.062543 -0.338222
v -0.032397 0.120864 -0.338222
v -0.062587 0.108359 -0.338222
v 0.102773 0.0275 -0.338222
v 0.120909 0.032353 -0.338222
v 0.125175 0 -0.338222
v -0.075235 0.075196 -0.338222
v -0.088512 0.088467 -0.338222
v -0.108404 0.062543 -0.338222
v 0.102773 -0.0275 -0.338222
v 0.120909 -0.032352 -0.338222
v 0.108404 -0.062543 -0.338222
v 0.089264 0 -0.317637
v 0.075235 -0.075196 -0.338222
v 0.088512 -0.088467 -0.338222
v 0.062587 -0.108359 -0.338222
v 0.032397 -0.120864 -0.338222
v 0.027537 -0.102735 -0.338222
v 0.044632 -0.077272 -0.317637
v 0.077305 -0.0446 -0.317637
v 0.061163 -0.06113 -0.295262
v 0.022388 -0.083518 -0.295262
v 0.083548 -0.022355 -0.295262
v 0.044632 -0.077272 -0.272887
v 0.077305 -0.0446 -0.272887
v 0.089264 0 -0.272887
v 0.075235 -0.075196 -0.252302
v 0.027537 -0.102735 -0.252302
v 0.032397 -0.120864 -0.252302
v 0.062587 -0.108359 -0.252302
v 0.088512 -0.088467 -0.252302
v 0.108404 -0.062543 -0.252302
v 0.102773 -0.0275 -0.252302
v 0.120909 -0.032352 -0.252302
v 0.125175 0 -0.252302
v 0.077305 0.0446 -0.272887
v 0.102773 0.0275 -0.252302
v 0.120909 0.032352 -0.252302
v 0.108404 0.062543 -0.252302
v 0.075235 0.075196 -0.252302
v 0.088512 0.088467 -0.252302
v 0.062587 0.108359 -0.252302
v 0.027537 0.102735 -0.252302
v 0.032397 0.120864 -0.252302
v 0 0.12513 -0.252302
v -0.027537 0.102735 -0.252302
v -0.032397 0.120864 -0.252302
v -0.062587 0.108359 -0.252302
v -0.044632 0.077273 -0.272887
v -0.075235 0.075196 -0.252302
v -0.088512 0.088467 -0.252302
v -0.108404 0.062543 -0.252302
v -0.061163 0.06113 -0.295262
v -0.077305 0.0446 -0.272887
v -0.102773 0.0275 -0.252302
v -0.120909 0.032352 -0.252302
v -0.125175 0 -0.252302
v -0.077305 0.0446 -0.317637
v -0.083548 0.022355 -0.295262
v -0.089264 0 -0.272887
v -0.102773 -0.0275 -0.252302
v -0.120909 -0.032352 -0.252302
v -0.108404 -0.062543 -0.252302
v -0.083548 -0.022355 -0.295262
v -0.075235 -0.075196 -0.252302
v -0.088512 -0.088467 -0.252302
v -0.077305 -0.0446 -0.272887
v -0.062587 -0.108359 -0.252302
v -0.089264 0 -0.317637
v -0.027537 -0.102735 -0.252302
v -0.032397 -0.120864 -0.252302
v 0 -0.12513 -0.252302
v -0.044632 -0.077272 -0.272887
v 0.027537 -0.102735 -0.252302
v 0.032397 -0.120864 -0.252302
v 0 -0.089231 -0.272887
v 0.044632 -0.077272 -0.272887
v 0.022388 -0.083518 -0.295262
v -0.061163 -0.06113 -0.295262
v -0.022388 -0.083518 -0.295262
v 0 -0.089231 -0.317637
v 0.044632 -0.077272 -0.317637
v 0.027537 -0.102735 -0.338222
v -0.044632 -0.077272 -0.317637
v -0.077305 -0.0446 -0.317637
v -0.027537 -0.102735 -0.338222
v 0.032397 -0.120864 -0.338222
v 0 -0.12513 -0.338222
v -0.032397 -0.120864 -0.338222
v -0.062587 -0.108359 -0.338222
v -0.075235 -0.075196 -0.338222
v -0.088512 -0.088467 -0.338222
v -0.108404 -0.062543 -0.338222
v -0.102773 -0.0275 -0.338222
v -0.120909 -0.032352 -0.338222
v -0.125175 0 -0.338222
v -0.102773 0.0275 -0.338222
v -0.120909 0.032353 -0.338222
vt 0.892578 0.28228104
vt 0.873474 0.024883986
vt 0.892578 0.007790029
vt 0.200519 0.007790029
vt 0.181243 0.024883986
vt 0.162086 0.007790029
vt 0.238901 0.007790029
vt 0.219599 0.024883986
vt 0.142779 0.024883986
vt 0.123124 0.007790029
vt 0.277105 0.007790029
vt 0.258063 0.024883986
vt 0.104312 0.024883986
vt 0.08498 0.007790029
vt 0.315674 0.007790029
vt 0.296531 0.024883986
vt 0.065842 0.024883986
vt 0.04614 0.007790029
vt 0.027369 0.024883986
vt 0.008059 0.007790029
vt 0.354118 0.007790029
vt 0.335001 0.024883986
vt 0.392626 0.007790029
vt 0.373473 0.024883986
vt 0.431119 0.007790029
vt 0.411947 0.024883986
vt 0.469712 0.007790029
vt 0.450422 0.024883986
vt 0.508132 0.007790029
vt 0.488895 0.024883986
vt 0.546655 0.007790029
vt 0.527368 0.024883986
vt 0.585072 0.007790029
vt 0.565838 0.024883986
vt 0.623448 0.007790029
vt 0.604306 0.024883986
vt 0.661723 0.007790029
vt 0.64277 0.024883986
vt 0.681126 0.024883986
vt 0.699938 0.007790029
vt 0.71959 0.024883986
vt 0.738783 0.007790029
vt 0.758057 0.024883986
vt 0.777279 0.007790029
vt 0.796527 0.024883986
vt 0.815431 0.007790029
vt 0.835 0.024883986
vt 0.854093 0.007790029
vt 0.873474 0.024883986
vt 0.892578 0.007790029
vt 0.911895 0.024883986
vt 0.930757 0.007790029
vt 0.200519 0.28228104
vt 0.162086 0.28228104
vt 0.181243 0.024883986
vt 0.219599 0.024883986
vt 0.238901 0.28228104
vt 0.123124 0.28228104
vt 0.142779 0.024883986
vt 0.258063 0.024883986
vt 0.277105 0.28228104
vt 0.08498 0.28228104
vt 0.104312 0.024883986
vt 0.296531 0.024883986
vt 0.315674 0.28228104
vt 0.277105 0.28228104
vt 0.08498 0.28228104
vt 0.04614 0.28228104
vt 0.065842 0.024883986
vt 0.04614 0.28228104
vt 0.008059 0.28228104
vt 0.027369 0.024883986
vt 0.335001 0.024883986
vt 0.354118 0.28228104
vt 0.373473 0.024883986
vt 0.392626 0.28228104
vt 0.411947 0.024883986
vt 0.431119 0.28228104
vt 0.450422 0.024883986
vt 0.469712 0.28228104
vt 0.488895 0.024883986
vt 0.508132 0.28228104
vt 0.527368 0.024883986
vt 0.546655 0.28228104
vt 0.508132 0.28228104
vt 0.565838 0.024883986
vt 0.585072 0.28228104
vt 0.604306 0.024883986
vt 0.623448 0.28228104
vt 0.64277 0.024883986
vt 0.661723 0.28228104
vt 0.699938 0.28228104
vt 0.681126 0.024883986
vt 0.738783 0.28228104
vt 0.71959 0.024883986
vt 0.777279 0.28228104
vt 0.758057 0.024883986
vt 0.815431 0.28228104
vt 0.796527 0.024883986
vt 0.854093 0.28228104
vt 0.835 0.024883986
vt 0.892578 0.28228104
vt 0.873474 0.024883986
vt 0.930757 0.28228104
vt 0.892578 0.28228104
vt 0.911895 0.024883986
vt 0.892578 0.007790029
vt 0.911895 0.024883986
vt 0.892578 0.28228104
vt 0.854093 0.28228104
vt 0.835 0.024883986
vt 0.854093 0.007790029
vt 0.854093 0.007790029
vt 0.873474 0.024883986
vt 0.854093 0.28228104
vt 0.815431 0.28228104
vt 0.796527 0.024883986
vt 0.815431 0.007790029
vt 0.815431 0.007790029
vt 0.835 0.024883986
vt 0.815431 0.28228104
vt 0.777279 0.28228104
vt 0.758057 0.024883986
vt 0.777279 0.007790029
vt 0.777279 0.007790029
vt 0.796527 0.024883986
vt 0.777279 0.28228104
vt 0.738783 0.007790029
vt 0.758057 0.024883986
vt 0.738783 0.28228104
vt 0.738783 0.28228104
vt 0.71959 0.024883986
vt 0.738783 0.007790029
vt 0.699938 0.007790029
vt 0.71959 0.024883986
vt 0.699938 0.28228104
vt 0.699938 0.28228104
vt 0.681126 0.024883986
vt 0.699938 0.007790029
vt 0.661723 0.007790029
vt 0.681126 0.024883986
vt 0.661723 0.28228104
vt 0.930757 0.28228104
vt 0.911895 0.024883986
vt 0.930757 0.007790029
vt 0.008059 0.007790029
vt 0.027369 0.024883986
vt 0.008059 0.28228104
vt 0.04614 0.28228104
vt 0.027369 0.024883986
vt 0.04614 0.007790029
vt 0.04614 0.007790029
vt 0.065842 0.024883986
vt 0.04614 0.28228104
vt 0.08498 0.28228104
vt 0.065842 0.024883986
vt 0.08498 0.007790029
vt 0.08498 0.007790029
vt 0.104312 0.024883986
vt 0.08498 0.28228104
vt 0.123124 0.28228104
vt 0.104312 0.024883986
vt 0.123124 0.007790029
vt 0.123124 0.007790029
vt 0.142779 0.024883986
vt 0.123124 0.28228104
vt 0.162086 0.28228104
vt 0.142779 0.024883986
vt 0.162086 0.007790029
vt 0.181243 0.024883986
vt 0.162086 0.28228104
vt 0.162086 0.007790029
vt 0.200519 0.28228104
vt 0.181243 0.024883986
vt 0.200519 0.007790029
vt 0.431119 0.007790029
vt 0.450422 0.024883986
vt 0.431119 0.28228104
vt 0.431119 0.28228104
vt 0.411947 0.024883986
vt 0.431119 0.007790029
vt 0.469712 0.007790029
vt 0.488895 0.024883986
vt 0.469712 0.28228104
vt 0.469712 0.28228104
vt 0.450422 0.024883986
vt 0.469712 0.007790029
vt 0.508132 0.007790029
vt 0.527368 0.024883986
vt 0.508132 0.28228104
vt 0.508132 0.28228104
vt 0.488895 0.024883986
vt 0.508132 0.007790029
vt 0.546655 0.007790029
vt 0.565838 0.024883986
vt 0.546655 0.28228104
vt 0.546655 0.28228104
vt 0.527368 0.024883986
vt 0.546655 0.007790029
vt 0.585072 0.28228104
vt 0.565838 0.024883986
vt 0.585072 0.007790029
vt 0.585072 0.007790029
vt 0.604306 0.024883986
vt 0.585072 0.28228104
vt 0.623448 0.28228104
vt 0.604306 0.024883986
vt 0.623448 0.007790029
vt 0.623448 0.007790029
vt 0.64277 0.024883986
vt 0.623448 0.28228104
vt 0.661723 0.28228104
vt 0.64277 0.024883986
vt 0.661723 0.007790029
vt 0.392626 0.007790029
vt 0.411947 0.024883986
vt 0.392626 0.28228104
vt 0.392626 0.28228104
vt 0.373473 0.024883986
vt 0.392626 0.007790029
vt 0.354118 0.007790029
vt 0.373473 0.024883986
vt 0.354118 0.28228104
vt 0.354118 0.28228104
vt 0.335001 0.024883986
vt 0.354118 0.007790029
vt 0.315674 0.007790029
vt 0.335001 0.024883986
vt 0.315674 0.28228104
vt 0.315674 0.28228104
vt 0.296531 0.024883986
vt 0.315674 0.007790029
vt 0.277105 0.007790029
vt 0.296531 0.024883986
vt 0.277105 0.28228104
vt 0.277105 0.28228104
vt 0.258063 0.024883986
vt 0.277105 0.007790029
vt 0.238901 0.007790029
vt 0.258063 0.024883986
vt 0.238901 0.28228104
vt 0.238901 0.007790029
vt 0.238901 0.28228104
vt 0.219599 0.024883986
vt 0.200519 0.007790029
vt 0.219599 0.024883986
vt 0.200519 0.28228104
vt 0.162086 0.466191
vt 0.200519 0.466191
vt 0.200519 0.491961
vt 0.162086 0.491961
vt 0.238901 0.491961
vt 0.123124 0.466191
vt 0.238901 0.466191
vt 0.123124 0.491961
vt 0.277105 0.491961
vt 0.08498 0.466191
vt 0.277105 0.466191
vt 0.08498 0.491961
vt 0.315674 0.491961
vt 0.04614 0.466191
vt 0.315674 0.466191
vt 0.04614 0.491961
vt 0.354118 0.491961
vt 0.008059 0.466191
vt 0.008059 0.491961
vt 0.354118 0.466191
vt 0.392626 0.491961
vt 0.392626 0.466191
vt 0.431119 0.491961
vt 0.431119 0.466191
vt 0.469712 0.491961
vt 0.469712 0.466191
vt 0.508132 0.491961
vt 0.508132 0.466191
vt 0.546655 0.491961
vt 0.546655 0.466191
vt 0.585072 0.491961
vt 0.585072 0.466191
vt 0.623448 0.491961
vt 0.623448 0.466191
vt 0.661723 0.491961
vt 0.661723 0.466191
vt 0.699938 0.491961
vt 0.699938 0.466191
vt 0.738783 0.491961
vt 0.738783 0.466191
vt 0.777279 0.491961
vt 0.777279 0.466191
vt 0.815431 0.491961
vt 0.815431 0.466191
vt 0.854093 0.491961
vt 0.854093 0.466191
vt 0.892578 0.491961
vt 0.892578 0.466191
vt 0.930757 0.491961
vt 0.930757 0.466191
vt 0.144684 1.54872096
vt 0.079979 1.557243
vt 0.127909 1.42295003
vt 0.204979 1.52373695
vt 0.256756 1.48399305
vt 0.015275 1.54872096
vt 0.03205 1.42295003
vt -0.045021 1.52373695
vt -0.096797 1.48399305
vt 0.296486 1.43219805
vt 0.195691 1.35514295
vt 0.321461 1.371881
vt 0.329979 1.30724204
vt -0.136527 1.43219805
vt -0.035732 1.35514295
vt -0.161502 1.371881
vt -0.170021 1.30724204
vt 0.195691 1.259341
vt 0.321461 1.24260402
vt 0.296486 1.18228698
vt 0.256756 1.13049197
vt -0.035732 1.259341
vt -0.161502 1.24260402
vt -0.136527 1.18228698
vt -0.096797 1.13049197
vt 0.127909 1.191535
vt 0.204979 1.09074795
vt 0.144684 1.06576395
vt 0.079979 1.057242036
vt 0.03205 1.191535
vt -0.045021 1.09074795
vt 0.015275 1.06576395
vt 0.598225 0.70275998
vt 0.557847 0.572204
vt 0.618136 0.572204
vt 0.618136 0.70275998
vt 0.497193 0.572204
vt 0.557847 0.572204
vt 0.51754 0.70275998
vt 0.497193 0.70275998
vt 0.436668 0.572204
vt 0.497193 0.572204
vt 0.477197 0.70275998
vt 0.497193 0.70275998
vt 0.376151 0.572204
vt 0.436668 0.572204
vt 0.39652 0.70275998
vt 0.376151 0.70275998
vt 0.315697 0.572204
vt 0.376151 0.572204
vt 0.356186 0.70275998
vt 0.376151 0.70275998
vt 0.255243 0.572204
vt 0.315697 0.572204
vt 0.275635 0.70275998
vt 0.255243 0.70275998
vt 0.194727 0.572204
vt 0.255243 0.572204
vt 0.235301 0.70275998
vt 0.255243 0.70275998
vt 0.134343 0.572204
vt 0.194727 0.572204
vt 0.154624 0.70275998
vt 0.134343 0.70275998
vt 0.073808 0.572204
vt 0.134343 0.572204
vt 0.114226 0.70275998
vt 0.134343 0.70275998
vt 0.013282 0.572204
vt 0.073808 0.572204
vt 0.033525 0.70275998
vt 0.013282 0.70275998
vt 0.920713 0.572204
vt 0.981239 0.572204
vt 0.96114 0.70275998
vt 0.981239 0.70275998
vt 0.860197 0.572204
vt 0.920713 0.572204
vt 0.880463 0.70275998
vt 0.860197 0.70275998
vt 0.799743 0.572204
vt 0.860197 0.572204
vt 0.840129 0.70275998
vt 0.860197 0.70275998
vt 0.739289 0.572204
vt 0.799743 0.572204
vt 0.759579 0.70275998
vt 0.739289 0.70275998
vt 0.678773 0.572204
vt 0.739289 0.572204
vt 0.719245 0.70275998
vt 0.739289 0.70275998
vt 0.618136 0.572204
vt 0.678773 0.572204
vt 0.638567 0.70275998
vt 0.618136 0.70275998
vt 0.598225 0.70275998
vt 0.51754 0.70275998
vt 0.557847 0.572204
vt 0.477197 0.70275998
vt 0.39652 0.70275998
vt 0.436668 0.572204
vt 0.356186 0.70275998
vt 0.275635 0.70275998
vt 0.315697 0.572204
vt 0.194727 0.572204
vt 0.235301 0.70275998
vt 0.154624 0.70275998
vt 0.073808 0.572204
vt 0.114226 0.70275998
vt 0.033525 0.70275998
vt 0.920713 0.572204
vt 0.96114 0.70275998
vt 0.880463 0.70275998
vt 0.799743 0.572204
vt 0.840129 0.70275998
vt 0.759579 0.70275998
vt 0.719245 0.70275998
vt 0.638567 0.70275998
vt 0.678773 0.572204
vt 0.557847 0.719162
vt 0.598225 0.70275998
vt 0.618136 0.719162
vt 0.51754 0.70275998
vt 0.497193 0.719162
vt 0.678773 0.719162
vt 0.638567 0.70275998
vt 0.719245 0.70275998
vt 0.739289 0.719162
vt 0.436668 0.719162
vt 0.477197 0.70275998
vt 0.39652 0.70275998
vt 0.376151 0.719162
vt 0.799743 0.719162
vt 0.759579 0.70275998
vt 0.840129 0.70275998
vt 0.860197 0.719162
vt 0.315697 0.719162
vt 0.356186 0.70275998
vt 0.275635 0.70275998
vt 0.255243 0.719162
vt 0.920713 0.719162
vt 0.880463 0.70275998
vt 0.96114 0.70275998
vt 0.981239 0.719162
vt 0.194727 0.719162
vt 0.235301 0.70275998
vt 0.154624 0.70275998
vt 0.134201 0.719162
vt 0.073808 0.719162
vt 0.114226 0.70275998
vt 0.033525 0.70275998
vt 0.013282 0.719162
vt 0.557847 0.719162
vt 0.618136 0.719162
vt 0.618136 0.85213
vt 0.557847 0.85222
vt 0.678773 0.85230303
vt 0.497193 0.719162
vt 0.678773 0.719162
vt 0.497193 0.85230303
vt 0.739289 0.85230303
vt 0.436668 0.719162
vt 0.739289 0.719162
vt 0.436668 0.85230303
vt 0.799743 0.85230303
vt 0.376151 0.719162
vt 0.799743 0.719162
vt 0.376151 0.85230303
vt 0.860197 0.85230303
vt 0.315697 0.719162
vt 0.860197 0.719162
vt 0.315697 0.85230303
vt 0.920713 0.85230303
vt 0.255243 0.719162
vt 0.920713 0.719162
vt 0.255243 0.85230303
vt 0.981239 0.85230303
vt 0.981239 0.719162
vt 0.194727 0.719162
vt 0.194727 0.85230303
vt 0.134201 0.719162
vt 0.134201 0.85230303
vt 0.073808 0.719162
vt 0.073808 0.85230303
vt 0.013282 0.719162
vt 0.013282 0.85230303
vt 0.557847 0.85222
vt 0.618136 0.85213
vt 0.585205 1.0031659603
vt 0.501692 0.87308103
vt 0.674866 0.87418199
vt 0.456206 0.913524985
vt 0.715295 0.919685006
vt 0.434174 0.970265985
vt 0.739821 0.975346029
vt 0.430588 1.030985951
vt 0.736234 1.036064982
vt 0.455114 1.08664799
vt 0.714203 1.092807055
vt 0.495543 1.13215101
vt 0.668717 1.13325095
vt 0.552274 1.15420198
vt 0.613024 1.15778303
vt 0.392626 0.374272
vt 0.469712 0.374272
vt 0.431119 0.40700603
vt 0.354118 0.40700603
vt 0.431119 0.341538
vt 0.392626 0.43628204
vt 0.354118 0.341538
vt 0.315674 0.374272
vt 0.508132 0.40700603
vt 0.277105 0.40700603
vt 0.469712 0.43628097
vt 0.315674 0.43628097
vt 0.238901 0.374272
vt 0.354118 0.466191
vt 0.392626 0.466191
vt 0.315674 0.466191
vt 0.431119 0.466191
vt 0.277105 0.466191
vt 0.469712 0.466191
vt 0.508132 0.466191
vt 0.238901 0.43628204
vt 0.238901 0.466191
vt 0.200519 0.466191
vt 0.546655 0.43628204
vt 0.546655 0.466191
vt 0.585072 0.466191
vt 0.162086 0.43628204
vt 0.162086 0.466191
vt 0.123124 0.466191
vt 0.200519 0.40700603
vt 0.08498 0.43628204
vt 0.08498 0.466191
vt 0.04614 0.466191
vt 0.008059 0.466191
vt 0.008059 0.43628204
vt 0.04614 0.40700603
vt 0.123124 0.40700603
vt 0.08498 0.374272
vt 0.008059 0.374272
vt 0.162086 0.374272
vt 0.04614 0.341538
vt 0.123124 0.341538
vt 0.200519 0.341538
vt 0.08498 0.312191
vt 0.008059 0.312191
vt 0.008059 0.28228104
vt 0.04614 0.28228104
vt 0.08498 0.28228104
vt 0.123124 0.28228104
vt 0.162086 0.312191
vt 0.162086 0.28228104
vt 0.200519 0.28228104
vt 0.277105 0.341538
vt 0.238901 0.312191
vt 0.238901 0.28228104
vt 0.277105 0.28228104
vt 0.315674 0.312191
vt 0.315674 0.28228104
vt 0.354118 0.28228104
vt 0.392626 0.312191
vt 0.392626 0.28228104
vt 0.431119 0.28228104
vt 0.469712 0.312191
vt 0.469712 0.28228104
vt 0.508132 0.28228104
vt 0.508132 0.341538
vt 0.546655 0.312191
vt 0.546655 0.28228104
vt 0.585072 0.28228104
vt 0.546655 0.374272
vt 0.585072 0.341538
vt 0.623448 0.312191
vt 0.623448 0.28228104
vt 0.661723 0.28228104
vt 0.585072 0.40700603
vt 0.623448 0.374272
vt 0.661723 0.341538
vt 0.699938 0.312191
vt 0.699938 0.28228104
vt 0.738783 0.28228104
vt 0.699938 0.374272
vt 0.777279 0.312191
vt 0.777279 0.28228104
vt 0.738783 0.341538
vt 0.815431 0.28228104
vt 0.661723 0.40700603
vt 0.854093 0.312191
vt 0.854093 0.28228104
vt 0.892578 0.28228104
vt 0.815431 0.341538
vt 0.930757 0.312191
vt 0.930757 0.28228104
vt 0.892578 0.341538
vt 0.969658 0.341538
vt 0.930757 0.374272
vt 0.777279 0.374272
vt 0.854093 0.374272
vt 0.892578 0.40700603
vt 0.969658 0.40700603
vt 0.930757 0.43628204
vt 0.815431 0.40700603
vt 0.738783 0.40700603
vt 0.854093 0.43628204
vt 0.930757 0.466191
vt 0.892578 0.466191
vt 0.854093 0.466191
vt 0.815431 0.466191
vt 0.777279 0.43628204
vt 0.777279 0.466191
vt 0.738783 0.466191
vt 0.699938 0.43628204
vt 0.699938 0.466191
vt 0.661723 0.466191
vt 0.623448 0.43628204
vt 0.623448 0.466191
vn -0.9077 -0.4153 -0.0595
vn -0.9077 -0.4153 -0.0595
vn -0.9077 -0.4153 -0.0595
vn 0.2488 0 -0.9686
vn 0.2486 -0.0328 -0.968
vn 0.2403 -0.0644 -0.9686
vn 0.2403 0.0644 -0.9686
vn 0.2486 0.0328 -0.968
vn 0.2317 -0.096 -0.968
vn 0.2154 -0.1244 -0.9686
vn 0.2154 0.1244 -0.9686
vn 0.2317 0.096 -0.968
vn 0.199 -0.1527 -0.968
vn 0.1759 -0.1759 -0.9686
vn 0.1759 0.1759 -0.9686
vn 0.199 0.1527 -0.968
vn 0.1527 -0.199 -0.968
vn 0.1244 -0.2154 -0.9686
vn 0.096 -0.2317 -0.968
vn 0.0644 -0.2403 -0.9686
vn 0.1244 0.2154 -0.9686
vn 0.1527 0.199 -0.968
vn 0.0644 0.2403 -0.9686
vn 0.096 0.2317 -0.968
vn 0 0.2488 -0.9686
vn 0.0327 0.2486 -0.968
vn -0.0644 0.2403 -0.9686
vn -0.0327 0.2486 -0.968
vn -0.1244 0.2154 -0.9686
vn -0.096 0.2317 -0.968
vn -0.1759 0.1759 -0.9686
vn -0.1527 0.199 -0.968
vn -0.2154 0.1244 -0.9686
vn -0.199 0.1527 -0.968
vn -0.2403 0.0644 -0.9686
vn -0.2317 0.096 -0.968
vn -0.2488 -0 -0.9686
vn -0.2486 0.0328 -0.968
vn -0.2486 -0.0328 -0.968
vn -0.2403 -0.0644 -0.9686
vn -0.2317 -0.096 -0.968
vn -0.2154 -0.1244 -0.9686
vn -0.199 -0.1527 -0.968
vn -0.1759 -0.1759 -0.9686
vn -0.1527 -0.199 -0.968
vn -0.1244 -0.2154 -0.9686
vn -0.096 -0.2317 -0.968
vn -0.0644 -0.2403 -0.9686
vn -0.0327 -0.2486 -0.968
vn -0 -0.2488 -0.9686
vn 0.0327 -0.2486 -0.968
vn 0.0644 -0.2403 -0.9686
vn 1 0 -0.0045
vn 0.9659 -0.2589 -0.0045
vn 0.9914 -0.1307 -0.0044
vn 0.9914 0.1307 -0.0044
vn 0.9659 0.2589 -0.0045
vn 0.866 -0.5 -0.0045
vn 0.9239 -0.3827 -0.0044
vn 0.9239 0.3827 -0.0044
vn 0.866 0.5 -0.0045
vn 0.7071 -0.7071 -0.0044
vn 0.7934 -0.6087 -0.0044
vn 0.7934 0.6087 -0.0044
vn 0.7071 0.7071 -0.0045
vn 0.866 0.5 -0.0044
vn 0.7071 -0.7071 -0.0045
vn 0.5 -0.866 -0.0044
vn 0.6087 -0.7934 -0.0044
vn 0.5 -0.866 -0.0045
vn 0.2588 -0.9659 -0.0045
vn 0.3827 -0.9239 -0.0044
vn 0.6087 0.7934 -0.0044
vn 0.5 0.866 -0.0045
vn 0.3827 0.9239 -0.0044
vn 0.2588 0.9659 -0.0045
vn 0.1305 0.9914 -0.0044
vn -0 1 -0.0045
vn -0.1305 0.9914 -0.0044
vn -0.2588 0.9659 -0.0045
vn -0.3827 0.9239 -0.0044
vn -0.5 0.866 -0.0045
vn -0.6087 0.7934 -0.0044
vn -0.7071 0.7071 -0.0045
vn -0.5 0.866 -0.0044
vn -0.7934 0.6087 -0.0044
vn -0.866 0.5 -0.0045
vn -0.9239 0.3827 -0.0044
vn -0.9659 0.2589 -0.0045
vn -0.9914 0.1307 -0.0044
vn -1 -0 -0.0045
vn -0.9659 -0.2589 -0.0045
vn -0.9914 -0.1307 -0.0044
vn -0.866 -0.5 -0.0045
vn -0.9239 -0.3827 -0.0044
vn -0.7071 -0.7071 -0.0045
vn -0.7934 -0.6087 -0.0044
vn -0.5 -0.866 -0.0045
vn -0.6087 -0.7934 -0.0044
vn -0.2588 -0.9659 -0.0045
vn -0.3827 -0.9239 -0.0044
vn 0 -1 -0.0045
vn -0.1305 -0.9914 -0.0044
vn 0.2588 -0.9659 -0.0045
vn -0 -1 -0.0044
vn 0.1305 -0.9914 -0.0044
vn 0.9077 -0.4153 -0.0595
vn 0.9077 -0.4153 -0.0595
vn 0.9077 -0.4153 -0.0595
vn -0.9843 -0.1662 -0.0595
vn -0.9843 -0.1662 -0.0595
vn -0.9843 -0.1662 -0.0595
vn 0.7693 -0.6361 -0.0595
vn 0.7693 -0.6361 -0.0595
vn 0.7693 -0.6361 -0.0595
vn -0.9938 0.0942 -0.0595
vn -0.9938 0.0942 -0.0595
vn -0.9938 0.0942 -0.0595
vn 0.5785 -0.8135 -0.0595
vn 0.5785 -0.8135 -0.0595
vn 0.5785 -0.8135 -0.0595
vn -0.9355 0.3483 -0.0595
vn -0.9355 0.3483 -0.0595
vn -0.9355 0.3483 -0.0595
vn 0.3482 -0.9355 -0.0595
vn 0.3482 -0.9355 -0.0595
vn 0.3482 -0.9355 -0.0595
vn 0.0942 -0.9938 -0.0595
vn 0.0942 -0.9938 -0.0595
vn 0.0942 -0.9938 -0.0595
vn -0.8135 0.5785 -0.0595
vn -0.8135 0.5785 -0.0595
vn -0.8135 0.5785 -0.0595
vn -0.1662 -0.9843 -0.0595
vn -0.1662 -0.9843 -0.0595
vn -0.1662 -0.9843 -0.0595
vn -0.6361 0.7693 -0.0595
vn -0.6361 0.7693 -0.0595
vn -0.6361 0.7693 -0.0595
vn -0.4144 -0.9082 -0.0594
vn -0.4144 -0.9082 -0.0594
vn -0.4144 -0.9082 -0.0594
vn -0.7693 -0.6361 -0.0595
vn -0.7693 -0.6361 -0.0595
vn -0.7693 -0.6361 -0.0595
vn 0.9843 -0.1662 -0.0595
vn 0.9843 -0.1662 -0.0595
vn 0.9843 -0.1662 -0.0595
vn -0.5785 -0.8135 -0.0595
vn -0.5785 -0.8135 -0.0595
vn -0.5785 -0.8135 -0.0595
vn 0.9938 0.0942 -0.0595
vn 0.9938 0.0942 -0.0595
vn 0.9938 0.0942 -0.0595
vn -0.3482 -0.9355 -0.0595
vn -0.3482 -0.9355 -0.0595
vn -0.3482 -0.9355 -0.0595
vn 0.9355 0.3483 -0.0595
vn 0.9355 0.3483 -0.0595
vn 0.9355 0.3483 -0.0595
vn -0.0942 -0.9938 -0.0595
vn -0.0942 -0.9938 -0.0595
vn -0.0942 -0.9938 -0.0595
vn 0.8135 0.5785 -0.0595
vn 0.8135 0.5785 -0.0595
vn 0.8135 0.5785 -0.0595
vn 0.1662 -0.9843 -0.0595
vn 0.1662 -0.9843 -0.0595
vn 0.1662 -0.9843 -0.0595
vn 0.6361 0.7693 -0.0595
vn 0.6361 0.7693 -0.0595
vn 0.6361 0.7693 -0.0595
vn 0.4144 -0.9082 -0.0594
vn 0.4144 -0.9082 -0.0594
vn 0.4144 -0.9082 -0.0594
vn -0.9077 0.4153 -0.0595
vn -0.9077 0.4153 -0.0595
vn -0.9077 0.4153 -0.0595
vn 0.9077 0.4153 -0.0595
vn 0.9077 0.4153 -0.0595
vn 0.9077 0.4153 -0.0595
vn -0.9843 0.1662 -0.0595
vn -0.9843 0.1662 -0.0595
vn -0.9843 0.1662 -0.0595
vn 0.7693 0.6361 -0.0595
vn 0.7693 0.6361 -0.0595
vn 0.7693 0.6361 -0.0595
vn -0.9938 -0.0942 -0.0595
vn -0.9938 -0.0942 -0.0595
vn -0.9938 -0.0942 -0.0595
vn 0.5785 0.8135 -0.0595
vn 0.5785 0.8135 -0.0595
vn 0.5785 0.8135 -0.0595
vn -0.9355 -0.3483 -0.0595
vn -0.9355 -0.3483 -0.0595
vn -0.9355 -0.3483 -0.0595
vn 0.3482 0.9355 -0.0595
vn 0.3482 0.9355 -0.0595
vn 0.3482 0.9355 -0.0595
vn 0.0942 0.9938 -0.0595
vn 0.0942 0.9938 -0.0595
vn 0.0942 0.9938 -0.0595
vn -0.8135 -0.5785 -0.0595
vn -0.8135 -0.5785 -0.0595
vn -0.8135 -0.5785 -0.0595
vn -0.1662 0.9843 -0.0595
vn -0.1662 0.9843 -0.0595
vn -0.1662 0.9843 -0.0595
vn -0.6361 -0.7693 -0.0595
vn -0.6361 -0.7693 -0.0595
vn -0.6361 -0.7693 -0.0595
vn -0.4144 0.9082 -0.0594
vn -0.4144 0.9082 -0.0594
vn -0.4144 0.9082 -0.0594
vn -0.7693 0.6361 -0.0595
vn -0.7693 0.6361 -0.0595
vn -0.7693 0.6361 -0.0595
vn 0.9843 0.1662 -0.0595
vn 0.9843 0.1662 -0.0595
vn 0.9843 0.1662 -0.0595
vn -0.5785 0.8135 -0.0595
vn -0.5785 0.8135 -0.0595
vn -0.5785 0.8135 -0.0595
vn 0.9938 -0.0942 -0.0595
vn 0.9938 -0.0942 -0.0595
vn 0.9938 -0.0942 -0.0595
vn -0.3482 0.9355 -0.0595
vn -0.3482 0.9355 -0.0595
vn -0.3482 0.9355 -0.0595
vn 0.9355 -0.3483 -0.0595
vn 0.9355 -0.3483 -0.0595
vn 0.9355 -0.3483 -0.0595
vn -0.0942 0.9938 -0.0595
vn -0.0942 0.9938 -0.0595
vn -0.0942 0.9938 -0.0595
vn 0.8135 -0.5785 -0.0595
vn 0.8135 -0.5785 -0.0595
vn 0.8135 -0.5785 -0.0595
vn 0.1662 0.9843 -0.0595
vn 0.1662 0.9843 -0.0595
vn 0.1662 0.9843 -0.0595
vn 0.6361 -0.7693 -0.0595
vn 0.6361 -0.7693 -0.0595
vn 0.6361 -0.7693 -0.0595
vn 0.4144 0.9082 -0.0594
vn 0.4144 0.9082 -0.0594
vn 0.4144 0.9082 -0.0594
vn 0.9763 -0.2163 0
vn 0.999 0.0439 -0
vn 0.999 -0.0439 -0
vn 0.9536 -0.301 -0
vn 0.9763 0.2163 -0
vn 0.8871 -0.4616 -0
vn 0.9536 0.301 0
vn 0.8433 -0.5375 -0
vn 0.8871 0.4616 0
vn 0.7374 -0.6754 -0
vn 0.8433 0.5375 0
vn 0.6754 -0.7374 -0
vn 0.7374 0.6754 -0
vn 0.5375 -0.8433 -0
vn 0.6754 0.7374 0
vn 0.4616 -0.8871 -0
vn 0.5375 0.8433 0
vn 0.3009 -0.9537 -0
vn 0.2162 -0.9764 0
vn 0.4616 0.8871 0
vn 0.3009 0.9537 0
vn 0.2162 0.9764 0
vn 0.0438 0.999 0
vn -0.0438 0.999 -0
vn -0.2162 0.9764 0
vn -0.3009 0.9537 0
vn -0.4616 0.8871 -0
vn -0.5375 0.8433 -0
vn -0.6754 0.7374 -0
vn -0.7374 0.6754 -0
vn -0.8433 0.5375 0
vn -0.8871 0.4616 -0
vn -0.9536 0.301 -0
vn -0.9763 0.2163 0
vn -0.999 0.0439 -0
vn -0.999 -0.0439 -0
vn -0.9763 -0.2163 0
vn -0.9536 -0.301 -0
vn -0.8871 -0.4616 0
vn -0.8433 -0.5375 -0
vn -0.7374 -0.6754 -0
vn -0.6754 -0.7374 -0
vn -0.5375 -0.8433 -0
vn -0.4616 -0.8871 -0
vn -0.3009 -0.9537 -0
vn -0.2162 -0.9764 0
vn -0.0438 -0.999 -0
vn 0.0438 -0.999 0
vn 0.2162 -0.9763 0
vn 0.3009 -0.9537 -0
vn -0 0 -1
vn -0 0 -1
vn -0 0 -1
vn -0 0 -1
vn -0 0 -1
vn -0 0 -1
vn -0 0 -1
vn -0 0 -1
vn -0 0 -1
vn -0 0 -1
vn -0 0 -1
vn -0 0 -1
vn -0 0 -1
vn -0 0 -1
vn -0 0 -1
vn -0 0 -1
vn -0 0 -1
vn -0 0 -1
vn -0 0 -1
vn -0 0 -1
vn -0 0 -1
vn -0 0 -1
vn -0 0 -1
vn -0 0 -1
vn -0 0 -1
vn -0 0 -1
vn -0 0 -1
vn -0 0 -1
vn -0 0 -1
vn -0 0 -1
vn -0 0 -1
vn -0 0 -1
vn -0.9298 0.368 -0.0053
vn -0.9417 0.3362 -0.0106
vn -0.9298 0.368 -0.0053
vn -0.9168 0.3993 0
vn 0.9298 0.368 -0.0053
vn 0.9417 0.3362 -0.0106
vn 0.9298 0.368 -0.0053
vn 0.9168 0.3993 0
vn -0.428 0.9037 -0.0106
vn -0.3971 0.9178 -0.0053
vn -0.3971 0.9178 -0.0053
vn -0.3658 0.9307 0
vn 0.9176 -0.3975 -0.0053
vn 0.9035 -0.4284 -0.0106
vn 0.9176 -0.3975 -0.0053
vn 0.9306 -0.3661 -0
vn 0.3358 0.9419 -0.0107
vn 0.3679 0.9299 -0.0053
vn 0.3679 0.9299 -0.0053
vn 0.3994 0.9168 0
vn 0.3679 -0.9299 -0.0053
vn 0.3358 -0.9419 -0.0107
vn 0.3679 -0.9299 -0.0053
vn 0.3994 -0.9168 -0
vn 0.9035 0.4284 -0.0106
vn 0.9176 0.3975 -0.0053
vn 0.9176 0.3975 -0.0053
vn 0.9306 0.3661 0
vn -0.3971 -0.9178 -0.0053
vn -0.428 -0.9037 -0.0106
vn -0.3971 -0.9178 -0.0053
vn -0.3658 -0.9307 -0
vn 0.9417 -0.3362 -0.0106
vn 0.9298 -0.368 -0.0053
vn 0.9298 -0.368 -0.0053
vn 0.9168 -0.3993 -0
vn -0.9298 -0.368 -0.0053
vn -0.9417 -0.3362 -0.0106
vn -0.9298 -0.368 -0.0053
vn -0.9168 -0.3993 -0
vn 0.428 -0.9037 -0.0106
vn 0.3971 -0.9178 -0.0053
vn 0.3971 -0.9178 -0.0053
vn 0.3658 -0.9307 -0
vn -0.9176 0.3975 -0.0053
vn -0.9035 0.4284 -0.0106
vn -0.9176 0.3975 -0.0053
vn -0.9306 0.3661 0
vn -0.3358 -0.9419 -0.0107
vn -0.3679 -0.9299 -0.0053
vn -0.3679 -0.9299 -0.0053
vn -0.3994 -0.9168 -0
vn -0.3679 0.9299 -0.0053
vn -0.3358 0.9419 -0.0107
vn -0.3679 0.9299 -0.0053
vn -0.3994 0.9168 0
vn -0.9035 -0.4284 -0.0106
vn -0.9176 -0.3975 -0.0053
vn -0.9176 -0.3975 -0.0053
vn -0.9306 -0.3661 -0
vn 0.3971 0.9178 -0.0053
vn 0.428 0.9037 -0.0106
vn 0.3971 0.9178 -0.0053
vn 0.3658 0.9307 0
vn 0 0.8362 -0.5484
vn 0 0.8362 -0.5484
vn 0 0.8362 -0.5484
vn 0.5913 0.5913 -0.5484
vn 0.5913 0.5913 -0.5484
vn 0.5913 0.5913 -0.5484
vn 0.8361 0 -0.5485
vn 0.8361 0 -0.5485
vn 0.8361 0 -0.5485
vn 0.5913 -0.5913 -0.5484
vn 0.5913 -0.5913 -0.5484
vn 0.5913 -0.5913 -0.5484
vn 0 -0.8362 -0.5484
vn 0 -0.8362 -0.5484
vn 0 -0.8362 -0.5484
vn -0.5913 -0.5913 -0.5484
vn -0.5913 -0.5913 -0.5484
vn -0.5913 -0.5913 -0.5484
vn -0.8361 0 -0.5485
vn -0.8361 0 -0.5485
vn -0.8361 0 -0.5485
vn -0.5913 0.5913 -0.5484
vn -0.5913 0.5913 -0.5484
vn -0.5913 0.5913 -0.5484
vn -0 0 -1
vn -0 0 -1
vn -0 0 -1
vn -0 0 -1
vn -0 0 -1
vn -0 0 -1
vn -0 0 -1
vn -0 0 -1
vn -0 0 -1
vn -0 0 -1
vn -0 0 -1
vn -0 0 -1
vn -0 0 -1
vn -0 0 -1
vn -0 0 -1
vn -0 0 -1
vn -0 0 -1
vn -0 0 -1
vn -0 0 -1
vn -0 0 -1
vn -0 0 -1
vn -0 0 -1
vn -0 0 -1
vn -0 0 -1
vn -0 0 -1
vn -0 0 -1
vn -0 0 -1
vn -0 0 -1
vn -0 0 -1
vn -0 0 -1
vn -0 0 -1
vn -0 0 -1
vn -0 0 -1
vn -0.0802 0.9968 0
vn -0.4305 0.9026 0
vn -0.3338 0.9426 0
vn 0.0802 0.9968 0
vn -0.6481 0.7615 0
vn 0.3338 0.9426 0
vn -0.7615 0.6481 -0
vn 0.4305 0.9026 0
vn -0.9026 0.4305 0
vn 0.6481 0.7615 0
vn -0.9426 0.334 0
vn 0.7615 0.6481 0
vn -0.9968 0.0803 0
vn 0.9026 0.4305 0
vn -0.9968 -0.0803 0
vn 0.9426 0.334 0
vn -0.9426 -0.334 -0
vn 0.9968 0.0803 0
vn -0.9026 -0.4305 -0
vn 0.9968 -0.0803 0
vn -0.7615 -0.6481 0
vn 0.9426 -0.334 -0
vn -0.6481 -0.7615 -0
vn 0.9026 -0.4305 0
vn -0.4305 -0.9026 0
vn -0.3338 -0.9426 -0
vn 0.7615 -0.6481 -0
vn 0.6481 -0.7615 0
vn 0.4305 -0.9026 -0
vn 0.3338 -0.9426 0
vn 0.0802 -0.9968 -0
vn -0.0802 -0.9968 -0
vn -0.3338 -0.9426 -0
vn -0.4305 -0.9026 0
vn -0 0 -1
vn -0 0 -1
vn -0 0 -1
vn -0 0 -1
vn -0 0 -1
vn -0 0 -1
vn -0 0 -1
vn -0 0 -1
vn -0 0 -1
vn -0 0 -1
vn -0 0 -1
vn -0 0 -1
vn -0 0 -1
vn -0 0 -1
vn -0 0 -1
vn -0 0 -1
vn -0 0 -1
vn 0.2588 0.9659 0
vn -0.2588 0.9659 0
vn 0 0.9206 0.3906
vn 0.4603 0.7972 0.3906
vn -0 0.9206 -0.3906
vn 0.0965 0.3601 0.9279
vn 0.4603 0.7972 -0.3906
vn 0.7071 0.7071 0
vn -0.4603 0.7972 0.3906
vn 0.7972 0.4603 0.3907
vn -0.0965 0.3601 0.9279
vn 0.2636 0.2636 0.9279
vn 0.9659 0.2589 0
vn 0 -0 1
vn 0 -0 1
vn 0 -0 1
vn 0 -0 1
vn 0 -0 1
vn 0 -0 1
vn 0 -0 1
vn 0.3601 0.0965 0.9279
vn 0 -0 1
vn 0 -0 1
vn -0.2636 0.2636 0.9279
vn 0 -0 1
vn 0 -0 1
vn 0.3601 -0.0965 0.9279
vn 0 -0 1
vn 0 -0 1
vn 0.9205 0 0.3907
vn 0.2636 -0.2636 0.9279
vn 0 -0 1
vn 0 -0 1
vn 0 -0 1
vn 0.0965 -0.3602 0.9279
vn 0.4603 -0.7972 0.3906
vn 0.7972 -0.4603 0.3907
vn 0.7071 -0.7071 -0
vn 0.2588 -0.9659 0
vn 0.9659 -0.2589 -0
vn 0.4603 -0.7972 -0.3906
vn 0.7972 -0.4603 -0.3907
vn 0.9205 0 -0.3907
vn 0.2636 -0.2636 -0.9279
vn 0.0965 -0.3602 -0.9279
vn -0 0 -1
vn -0 0 -1
vn -0 0 -1
vn -0 0 -1
vn 0.3601 -0.0965 -0.9279
vn -0 0 -1
vn -0 0 -1
vn 0.7972 0.4603 -0.3907
vn 0.3601 0.0965 -0.9279
vn -0 0 -1
vn -0 0 -1
vn 0.2636 0.2636 -0.9279
vn -0 0 -1
vn -0 0 -1
vn 0.0965 0.3601 -0.9279
vn -0 0 -1
vn -0 0 -1
vn -0.0965 0.3601 -0.9279
vn -0 0 -1
vn -0 0 -1
vn -0.4603 0.7972 -0.3906
vn -0.2636 0.2636 -0.9279
vn -0 0 -1
vn -0 0 -1
vn -0.7071 0.7071 0
vn -0.7972 0.4603 -0.3907
vn -0.3601 0.0965 -0.9279
vn -0 0 -1
vn -0 0 -1
vn -0.7972 0.4603 0.3907
vn -0.9659 0.2589 0
vn -0.9205 0 -0.3907
vn -0.3601 -0.0965 -0.9279
vn -0 0 -1
vn -0 0 -1
vn -0.9659 -0.2589 0
vn -0.2636 -0.2636 -0.9279
vn -0 0 -1
vn -0.7972 -0.4603 -0.3907
vn -0 0 -1
vn -0.9205 0 0.3907
vn -0.0965 -0.3601 -0.9279
vn -0 0 -1
vn -0 0 -1
vn -0.4603 -0.7972 -0.3906
vn 0.0965 -0.3602 -0.9279
vn -0 0 -1
vn 0 -0.9206 -0.3906
vn 0.4603 -0.7972 -0.3906
vn 0.2588 -0.9659 0
vn -0.7071 -0.7071 -0
vn -0.2588 -0.9659 0
vn -0 -0.9206 0.3906
vn 0.4603 -0.7972 0.3906
vn 0.0965 -0.3602 0.9279
vn -0.4603 -0.7972 0.3906
vn -0.7972 -0.4603 0.3907
vn -0.0965 -0.3601 0.9279
vn 0 -0 1
vn 0 -0 1
vn 0 -0 1
vn 0 -0 1
vn -0.2636 -0.2636 0.9279
vn 0 -0 1
vn 0 -0 1
vn -0.3601 -0.0965 0.9279
vn 0 -0 1
vn 0 -0 1
vn -0.3601 0.0965 0.9279
vn 0 -0 1
f 3/3/3 2/2/2 1/1/1
f 6/6/6 5/5/5 4/4/4
f 4/4/4 8/8/8 7/7/7
f 6/6/6 10/10/10 9/9/9
f 12/12/12 11/11/11 7/7/7
f 10/10/10 14/14/14 13/13/13
f 16/16/16 15/15/15 11/11/11
f 14/14/14 18/18/18 17/17/17
f 18/18/18 20/20/20 19/19/19
f 22/22/22 21/21/21 15/15/15
f 24/24/24 23/23/23 21/21/21
f 26/26/26 25/25/25 23/23/23
f 28/28/28 27/27/27 25/25/25
f 30/30/30 29/29/29 27/27/27
f 32/32/32 31/31/31 29/29/29
f 34/34/34 33/33/33 31/31/31
f 36/36/36 35/35/35 33/33/33
f 38/38/38 37/37/37 35/35/35
f 40/40/40 37/37/37 39/39/39
f 42/42/42 40/40/40 41/41/41
f 44/44/44 42/42/42 43/43/43
f 46/46/46 44/44/44 45/45/45
f 48/48/48 46/46/46 47/47/47
f 50/50/50 48/48/48 49/49/49
f 52/52/52 50/50/50 51/51/51
f 55/55/55 54/54/54 53/53/53
f 53/53/53 57/57/57 56/56/56
f 57/57/57 61/61/61 60/60/60
f 59/59/59 58/58/58 54/54/54
f 63/63/63 62/62/62 58/58/58
f 66/66/66 65/65/65 64/64/64
f 65/65/65 74/74/74 73/73/73
f 74/74/74 76/76/76 75/75/75
f 76/76/76 78/78/78 77/77/77
f 78/78/78 80/80/80 79/79/79
f 80/80/80 82/82/82 81/81/81
f 69/69/69 68/68/68 67/67/67
f 72/72/72 71/71/71 70/70/70
f 85/85/85 84/84/84 83/83/83
f 84/84/84 87/87/87 86/86/86
f 87/87/87 89/89/89 88/88/88
f 89/89/89 91/91/91 90/90/90
f 93/93/93 91/91/91 92/92/92
f 95/95/95 92/92/92 94/94/94
f 97/97/97 94/94/94 96/96/96
f 99/99/99 96/96/96 98/98/98
f 101/101/101 98/98/98 100/100/100
f 103/103/103 100/100/100 102/102/102
f 106/106/106 105/105/105 104/104/104
f 109/109/109 108/108/108 107/107/107
f 112/112/112 111/111/111 110/110/110
f 115/115/115 114/114/114 113/113/113
f 118/118/118 117/117/117 116/116/116
f 121/121/121 120/120/120 119/119/119
f 124/124/124 123/123/123 122/122/122
f 127/127/127 126/126/126 125/125/125
f 130/130/130 129/129/129 128/128/128
f 133/133/133 132/132/132 131/131/131
f 136/136/136 135/135/135 134/134/134
f 139/139/139 138/138/138 137/137/137
f 142/142/142 141/141/141 140/140/140
f 145/145/145 144/144/144 143/143/143
f 148/148/148 147/147/147 146/146/146
f 151/151/151 150/150/150 149/149/149
f 154/154/154 153/153/153 152/152/152
f 157/157/157 156/156/156 155/155/155
f 160/160/160 159/159/159 158/158/158
f 163/163/163 162/162/162 161/161/161
f 166/166/166 165/165/165 164/164/164
f 169/169/169 168/168/168 167/167/167
f 172/172/172 171/171/171 170/170/170
f 175/175/175 174/174/174 173/173/173
f 178/178/178 177/177/177 176/176/176
f 181/181/181 180/180/180 179/179/179
f 184/184/184 183/183/183 182/182/182
f 187/187/187 186/186/186 185/185/185
f 190/190/190 189/189/189 188/188/188
f 193/193/193 192/192/192 191/191/191
f 196/196/196 195/195/195 194/194/194
f 199/199/199 198/198/198 197/197/197
f 202/202/202 201/201/201 200/200/200
f 205/205/205 204/204/204 203/203/203
f 208/208/208 207/207/207 206/206/206
f 211/211/211 210/210/210 209/209/209
f 214/214/214 213/213/213 212/212/212
f 217/217/217 216/216/216 215/215/215
f 220/220/220 219/219/219 218/218/218
f 223/223/223 222/222/222 221/221/221
f 226/226/226 225/225/225 224/224/224
f 229/229/229 228/228/228 227/227/227
f 232/232/232 231/231/231 230/230/230
f 235/235/235 234/234/234 233/233/233
f 238/238/238 237/237/237 236/236/236
f 241/241/241 240/240/240 239/239/239
f 244/244/244 243/243/243 242/242/242
f 247/247/247 246/246/246 245/245/245
f 250/250/250 249/249/249 248/248/248
f 248/248/248 251/251/251 250/250/250
f 249/249/249 250/250/250 252/252/252
f 251/251/251 248/248/248 253/253/253
f 252/252/252 254/254/254 249/249/249
f 253/253/253 255/255/255 251/251/251
f 254/254/254 252/252/252 256/256/256
f 255/255/255 253/253/253 257/257/257
f 256/256/256 258/258/258 254/254/254
f 257/257/257 259/259/259 255/255/255
f 258/258/258 256/256/256 260/260/260
f 259/259/259 257/257/257 261/261/261
f 260/260/260 262/262/262 258/258/258
f 261/261/261 263/263/263 259/259/259
f 262/262/262 260/260/260 264/264/264
f 263/263/263 261/261/261 265/265/265
f 265/265/265 266/266/266 263/263/263
f 264/264/264 267/267/267 262/262/262
f 267/267/267 264/264/264 268/268/268
f 268/268/268 269/269/269 267/267/267
f 269/269/269 268/268/268 270/270/270
f 270/270/270 271/271/271 269/269/269
f 271/271/271 270/270/270 272/272/272
f 272/272/272 273/273/273 271/271/271
f 273/273/273 272/272/272 274/274/274
f 274/274/274 275/275/275 273/273/273
f 275/275/275 274/274/274 276/276/276
f 276/276/276 277/277/277 275/275/275
f 277/277/277 276/276/276 278/278/278
f 278/278/278 279/279/279 277/277/277
f 279/279/279 278/278/278 280/280/280
f 280/280/280 281/281/281 279/279/279
f 281/281/281 280/280/280 282/282/282
f 282/282/282 283/283/283 281/281/281
f 283/283/283 282/282/282 284/284/284
f 284/284/284 285/285/285 283/283/283
f 285/285/285 284/284/284 286/286/286
f 286/286/286 287/287/287 285/285/285
f 287/287/287 286/286/286 288/288/288
f 288/288/288 289/289/289 287/287/287
f 289/289/289 288/288/288 290/290/290
f 290/290/290 291/291/291 289/289/289
f 291/291/291 290/290/290 292/292/292
f 292/292/292 293/293/293 291/291/291
f 293/293/293 292/292/292 294/294/294
f 294/294/294 295/295/295 293/293/293
f 295/295/295 294/294/294 296/296/296
f 296/296/296 297/297/297 295/295/295
f 300/300/300 299/299/299 298/298/298
f 300/300/300 298/298/298 301/301/301
f 300/300/300 301/301/301 302/302/302
f 304/304/304 303/303/303 299/299/299
f 303/303/303 304/304/304 305/305/305
f 304/304/304 306/306/306 305/305/305
f 308/308/308 302/302/302 307/307/307
f 309/309/309 308/308/308 307/307/307
f 308/308/308 309/309/309 310/310/310
f 312/312/312 311/311/311 306/306/306
f 312/312/312 313/313/313 311/311/311
f 314/314/314 313/313/313 312/312/312
f 310/310/310 316/316/316 315/315/315
f 315/315/315 316/316/316 317/317/317
f 317/317/317 318/318/318 315/315/315
f 320/320/320 314/314/314 319/319/319
f 321/321/321 320/320/320 319/319/319
f 322/322/322 321/321/321 319/319/319
f 318/318/318 324/324/324 323/323/323
f 323/323/323 324/324/324 325/325/325
f 325/325/325 326/326/326 323/323/323
f 328/328/328 322/322/322 327/327/327
f 326/326/326 329/329/329 327/327/327
f 327/327/327 329/329/329 328/328/328
f 332/332/332 331/331/331 330/330/330
f 332/332/332 330/330/330 333/333/333
f 336/336/336 335/335/335 334/334/334
f 337/337/337 336/336/336 334/334/334
f 340/340/340 339/339/339 338/338/338
f 339/339/339 340/340/340 341/341/341
f 344/344/344 343/343/343 342/342/342
f 345/345/345 344/344/344 342/342/342
f 348/348/348 347/347/347 346/346/346
f 347/347/347 348/348/348 349/349/349
f 352/352/352 351/351/351 350/350/350
f 353/353/353 352/352/352 350/350/350
f 356/356/356 355/355/355 354/354/354
f 355/355/355 356/356/356 357/357/357
f 360/360/360 359/359/359 358/358/358
f 361/361/361 360/360/360 358/358/358
f 364/364/364 363/363/363 362/362/362
f 363/363/363 364/364/364 365/365/365
f 368/368/368 367/367/367 366/366/366
f 369/369/369 368/368/368 366/366/366
f 372/372/372 371/371/371 370/370/370
f 371/371/371 372/372/372 373/373/373
f 376/376/376 375/375/375 374/374/374
f 377/377/377 376/376/376 374/374/374
f 380/380/380 379/379/379 378/378/378
f 379/379/379 380/380/380 381/381/381
f 384/384/384 383/383/383 382/382/382
f 385/385/385 384/384/384 382/382/382
f 388/388/388 387/387/387 386/386/386
f 387/387/387 388/388/388 389/389/389
f 392/392/392 391/391/391 390/390/390
f 393/393/393 392/392/392 390/390/390
f 396/396/396 395/395/395 394/394/394
f 399/399/399 398/398/398 397/397/397
f 402/402/402 401/401/401 400/400/400
f 405/405/405 404/404/404 403/403/403
f 408/408/408 407/407/407 406/406/406
f 411/411/411 410/410/410 409/409/409
f 414/414/414 413/413/413 412/412/412
f 417/417/417 416/416/416 415/415/415
f 420/420/420 419/419/419 418/418/418
f 421/421/421 418/418/418 419/419/419
f 421/421/421 422/422/422 418/418/418
f 424/424/424 420/420/420 423/423/423
f 424/424/424 423/423/423 425/425/425
f 426/426/426 425/425/425 423/423/423
f 422/422/422 428/428/428 427/427/427
f 429/429/429 427/427/427 428/428/428
f 429/429/429 430/430/430 427/427/427
f 432/432/432 426/426/426 431/431/431
f 432/432/432 431/431/431 433/433/433
f 434/434/434 433/433/433 431/431/431
f 430/430/430 436/436/436 435/435/435
f 437/437/437 435/435/435 436/436/436
f 437/437/437 438/438/438 435/435/435
f 440/440/440 434/434/434 439/439/439
f 440/440/440 439/439/439 441/441/441
f 442/442/442 441/441/441 439/439/439
f 438/438/438 444/444/444 443/443/443
f 445/445/445 443/443/443 444/444/444
f 445/445/445 446/446/446 443/443/443
f 446/446/446 448/448/448 447/447/447
f 449/449/449 447/447/447 448/448/448
f 449/449/449 450/450/450 447/447/447
f 453/453/453 452/452/452 451/451/451
f 451/451/451 454/454/454 453/453/453
f 452/452/452 453/453/453 455/455/455
f 454/454/454 451/451/451 456/456/456
f 455/455/455 457/457/457 452/452/452
f 456/456/456 458/458/458 454/454/454
f 457/457/457 455/455/455 459/459/459
f 458/458/458 456/456/456 460/460/460
f 459/459/459 461/461/461 457/457/457
f 460/460/460 462/462/462 458/458/458
f 461/461/461 459/459/459 463/463/463
f 462/462/462 460/460/460 464/464/464
f 463/463/463 465/465/465 461/461/461
f 464/464/464 466/466/466 462/462/462
f 465/465/465 463/463/463 467/467/467
f 466/466/466 464/464/464 468/468/468
f 467/467/467 469/469/469 465/465/465
f 468/468/468 470/470/470 466/466/466
f 469/469/469 467/467/467 471/471/471
f 470/470/470 468/468/468 472/472/472
f 471/471/471 473/473/473 469/469/469
f 472/472/472 474/474/474 470/470/470
f 473/473/473 471/471/471 475/475/475
f 475/475/475 476/476/476 473/473/473
f 474/474/474 472/472/472 477/477/477
f 477/477/477 478/478/478 474/474/474
f 478/478/478 477/477/477 479/479/479
f 479/479/479 480/480/480 478/478/478
f 480/480/480 479/479/479 481/481/481
f 481/481/481 482/482/482 480/480/480
f 482/482/482 481/481/481 483/483/483
f 483/483/483 484/484/484 482/482/482
f 487/487/487 486/486/486 485/485/485
f 487/487/487 485/485/485 488/488/488
f 487/487/487 489/489/489 486/486/486
f 487/487/487 488/488/488 490/490/490
f 487/487/487 491/491/491 489/489/489
f 487/487/487 490/490/490 492/492/492
f 487/487/487 493/493/493 491/491/491
f 487/487/487 492/492/492 494/494/494
f 487/487/487 495/495/495 493/493/493
f 487/487/487 494/494/494 496/496/496
f 487/487/487 497/497/497 495/495/495
f 487/487/487 496/496/496 498/498/498
f 487/487/487 499/499/499 497/497/497
f 487/487/487 498/498/498 500/500/500
f 487/487/487 501/501/501 499/499/499
f 487/487/487 500/500/500 501/501/501
f 504/504/504 503/503/503 502/502/502
f 505/505/505 504/504/504 502/502/502
f 506/506/506 502/502/502 503/503/503
f 505/505/505 507/507/507 504/504/504
f 502/502/502 506/506/506 508/508/508
f 505/505/505 502/502/502 509/509/509
f 508/508/508 509/509/509 502/502/502
f 504/504/504 510/510/510 503/503/503
f 511/511/511 505/505/505 509/509/509
f 504/504/504 512/512/512 510/510/510
f 504/504/504 507/507/507 512/512/512
f 511/511/511 513/513/513 505/505/505
f 505/505/505 513/513/513 507/507/507
f 511/511/511 509/509/509 514/514/514
f 515/515/515 507/507/507 513/513/513
f 515/515/515 516/516/516 507/507/507
f 517/517/517 515/515/515 513/513/513
f 516/516/516 518/518/518 507/507/507
f 512/512/512 507/507/507 518/518/518
f 519/519/519 517/517/517 513/513/513
f 518/518/518 520/520/520 512/512/512
f 520/520/520 521/521/521 512/512/512
f 519/519/519 513/513/513 522/522/522
f 511/511/511 522/522/522 513/513/513
f 523/523/523 519/519/519 522/522/522
f 524/524/524 523/523/523 522/522/522
f 525/525/525 512/512/512 521/521/521
f 510/510/510 512/512/512 525/525/525
f 521/521/521 526/526/526 525/525/525
f 526/526/526 527/527/527 525/525/525
f 524/524/524 522/522/522 528/528/528
f 529/529/529 524/524/524 528/528/528
f 528/528/528 530/530/530 529/529/529
f 531/531/531 522/522/522 511/511/511
f 531/531/531 528/528/528 522/522/522
f 531/531/531 511/511/511 514/514/514
f 528/528/528 532/532/532 530/530/530
f 532/532/532 533/533/533 530/530/530
f 532/532/532 534/534/534 533/533/533
f 536/536/536 535/535/535 534/534/534
f 532/532/532 536/536/536 534/534/534
f 537/537/537 536/536/536 532/532/532
f 538/538/538 532/532/532 528/528/528
f 537/537/537 532/532/532 538/538/538
f 538/538/538 528/528/528 531/531/531
f 539/539/539 537/537/537 538/538/538
f 539/539/539 540/540/540 537/537/537
f 541/541/541 538/538/538 531/531/531
f 541/541/541 539/539/539 538/538/538
f 531/531/531 514/514/514 541/541/541
f 540/540/540 539/539/539 542/542/542
f 539/539/539 541/541/541 543/543/543
f 543/543/543 542/542/542 539/539/539
f 544/544/544 541/541/541 514/514/514
f 544/544/544 543/543/543 541/541/541
f 543/543/543 545/545/545 542/542/542
f 545/545/545 546/546/546 542/542/542
f 548/548/548 547/547/547 546/546/546
f 548/548/548 546/546/546 545/545/545
f 549/549/549 548/548/548 545/545/545
f 550/550/550 549/549/549 545/545/545
f 551/551/551 545/545/545 543/543/543
f 550/550/550 545/545/545 551/551/551
f 551/551/551 543/543/543 544/544/544
f 552/552/552 550/550/550 551/551/551
f 551/551/551 553/553/553 552/552/552
f 514/514/514 554/554/554 544/544/544
f 554/554/554 514/514/514 509/509/509
f 509/509/509 508/508/508 554/554/554
f 544/544/544 555/555/555 551/551/551
f 551/551/551 555/555/555 553/553/553
f 554/554/554 555/555/555 544/544/544
f 555/555/555 556/556/556 553/553/553
f 555/555/555 557/557/557 556/556/556
f 554/554/554 558/558/558 555/555/555
f 555/555/555 558/558/558 557/557/557
f 508/508/508 558/558/558 554/554/554
f 558/558/558 559/559/559 557/557/557
f 558/558/558 560/560/560 559/559/559
f 508/508/508 561/561/561 558/558/558
f 558/558/558 561/561/561 560/560/560
f 561/561/561 562/562/562 560/560/560
f 506/506/506 561/561/561 508/508/508
f 561/561/561 563/563/563 562/562/562
f 563/563/563 561/561/561 564/564/564
f 564/564/564 561/561/561 506/506/506
f 564/564/564 565/565/565 563/563/563
f 564/564/564 566/566/566 565/565/565
f 567/567/567 564/564/564 506/506/506
f 503/503/503 567/567/567 506/506/506
f 566/566/566 564/564/564 568/568/568
f 568/568/568 564/564/564 567/567/567
f 568/568/568 569/569/569 566/566/566
f 568/568/568 570/570/570 569/569/569
f 567/567/567 503/503/503 571/571/571
f 510/510/510 571/571/571 503/503/503
f 572/572/572 568/568/568 567/567/567
f 571/571/571 572/572/572 567/567/567
f 570/570/570 568/568/568 573/573/573
f 573/573/573 568/568/568 572/572/572
f 573/573/573 574/574/574 570/570/570
f 575/575/575 574/574/574 573/573/573
f 510/510/510 576/576/576 571/571/571
f 510/510/510 525/525/525 576/576/576
f 572/572/572 571/571/571 577/577/577
f 576/576/576 577/577/577 571/571/571
f 573/573/573 572/572/572 578/578/578
f 578/578/578 572/572/572 577/577/577
f 575/575/575 573/573/573 579/579/579
f 579/579/579 573/573/573 578/578/578
f 580/580/580 575/575/575 579/579/579
f 581/581/581 580/580/580 579/579/579
f 577/577/577 582/582/582 578/578/578
f 581/581/581 579/579/579 583/583/583
f 584/584/584 581/581/581 583/583/583
f 585/585/585 579/579/579 578/578/578
f 583/583/583 579/579/579 585/585/585
f 585/585/585 578/578/578 582/582/582
f 586/586/586 584/584/584 583/583/583
f 582/582/582 577/577/577 587/587/587
f 577/577/577 576/576/576 587/587/587
f 586/586/586 583/583/583 588/588/588
f 589/589/589 586/586/586 588/588/588
f 590/590/590 589/589/589 588/588/588
f 591/591/591 583/583/583 585/585/585
f 588/588/588 583/583/583 591/591/591
f 593/593/593 590/590/590 592/592/592
f 590/590/590 588/588/588 592/592/592
f 592/592/592 588/588/588 594/594/594
f 594/594/594 588/588/588 591/591/591
f 595/595/595 592/592/592 594/594/594
f 595/595/595 594/594/594 596/596/596
f 591/591/591 585/585/585 597/597/597
f 582/582/582 597/597/597 585/585/585
f 594/594/594 591/591/591 598/598/598
f 598/598/598 596/596/596 594/594/594
f 597/597/597 598/598/598 591/591/591
f 596/596/596 598/598/598 599/599/599
f 596/596/596 599/599/599 600/600/600
f 599/599/599 601/601/601 600/600/600
f 598/598/598 597/597/597 602/602/602
f 598/598/598 602/602/602 599/599/599
f 597/597/597 582/582/582 603/603/603
f 597/597/597 603/603/603 602/602/602
f 582/582/582 587/587/587 603/603/603
f 602/602/602 604/604/604 599/599/599
f 599/599/599 604/604/604 601/601/601
f 601/601/601 606/606/606 605/605/605
f 601/601/601 604/604/604 606/606/606
f 604/604/604 607/607/607 606/606/606
f 604/604/604 608/608/608 607/607/607
f 609/609/609 604/604/604 602/602/602
f 604/604/604 609/609/609 608/608/608
f 603/603/603 609/609/609 602/602/602
f 609/609/609 610/610/610 608/608/608
f 609/609/609 611/611/611 610/610/610
f 612/612/612 609/609/609 603/603/603
f 609/609/609 612/612/612 611/611/611
f 587/587/587 612/612/612 603/603/603
f 612/612/612 613/613/613 611/611/611
f 612/612/612 614/614/614 613/613/613
f 615/615/615 612/612/612 587/587/587
f 612/612/612 615/615/615 614/614/614
f 587/587/587 576/576/576 615/615/615
f 615/615/615 616/616/616 614/614/614
f 576/576/576 525/525/525 615/615/615
f 527/527/527 616/616/616 615/615/615
f 615/615/615 525/525/525 527/527/527
