# VPXTOOL table OBJ file
# VPXTOOL OBJ file
# numVerts: 16 numFaces: 8
o PinCab_Blades
v -0.982748 0.3992 0.018181
v -0.982748 -0.005898 0.024686
v 0.012285 -0.005898 0.024686
v 0.012285 0.3992 0.018181
v -0.982748 0.140468 -2.181505
v 0.012285 0.140468 -2.181505
v 0.012285 -0.041279 -2.178587
v -0.982748 -0.041279 -2.178587
v 0.012285 0.140468 -2.181505
v 0.012285 0.3992 0.018181
v 0.012285 -0.005898 0.024686
v 0.012285 -0.041279 -2.178587
v -0.982748 0.3992 0.018181
v -0.982748 -0.041279 -2.178587
v -0.982748 -0.005898 0.024686
v -0.982748 0.140468 -2.181505
vt 0.992807 0.9933699965
vt 0.992807 0.82459003
vt 0.477218 0.82459003
vt 0.477218 0.9933699965
vt 0.992807 0.73561
vt 0.477218 0.73561
vt 0.477218 0.81133997
vt 0.992807 0.81133997
vt 0.10146 0.9933699965
vt 0.21611 0.0066300035
vt 0.00817 0.0066300035
vt 0.00817 0.9933699965
vt 0.23244 0.0066300035
vt 0.44038 0.9933699965
vt 0.44038 0.0066300035
vt 0.34708 0.9933699965
vn 0 -0.0161 -0.9999
vn 0 -0.0161 -0.9999
vn 0 -0.0161 -0.9999
vn 0 -0.0161 -0.9999
vn 0 0.0161 0.9999
vn 0 0.0161 0.9999
vn 0 0.0161 0.9999
vn 0 0.0161 0.9999
vn -1 -0 0
vn -1 -0 0
vn -1 -0 0
vn -1 -0 0
vn 1 -0 0
vn 1 -0 0
vn 1 -0 0
vn 1 -0 0
f 3/3/3 2/2/2 1/1/1
f 4/4/4 3/3/3 1/1/1
f 7/7/7 6/6/6 5/5/5
f 8/8/8 7/7/7 5/5/5
f 11/11/11 10/10/10 9/9/9
f 12/12/12 11/11/11 9/9/9
f 15/15/15 14/14/14 13/13/13
f 14/14/14 16/16/16 13/13/13
