# VPXTOOL table OBJ file
# VPXTOOL OBJ file
# numVerts: 136 numFaces: 110
o p_L04_
v 5.705456 1.990438 0.01012
v 5.705456 1.990438 -0.491281
v 5.657535 2.288516 -0.491281
v 5.657535 2.288516 0.01012
v 5.50655 2.570207 -0.491281
v 5.50655 2.570207 0.01012
v 5.272453 2.783666 -0.491281
v 5.272453 2.783666 0.01012
v 5.033396 2.893267 -0.491281
v 5.033396 2.893267 0.01012
v 4.763603 2.932291 -0.491281
v 4.763603 2.932291 0.01012
v 4.763603 2.932291 0.01012
v 4.763603 2.932291 -0.491281
v -4.763603 2.932291 -0.491281
v -4.763603 2.932291 0.01012
v -4.763603 2.932291 0.01012
v -4.763603 2.932291 -0.491281
v -5.061681 2.88437 -0.491281
v -5.061681 2.88437 0.01012
v -5.343372 2.733385 -0.491281
v -5.343372 2.733385 0.01012
v -5.556831 2.499289 -0.491281
v -5.556831 2.499289 0.01012
v -5.666432 2.260231 -0.491281
v -5.666432 2.260231 0.01012
v -5.705456 1.990438 -0.491281
v -5.705456 1.990438 0.01012
v -5.705456 1.990438 0.01012
v -5.705456 1.990438 -0.491281
v -5.705456 -1.994325 -0.491281
v -5.705456 -1.994325 0.01012
v -5.705456 -1.994325 0.01012
v -5.705456 -1.994325 -0.491281
v -5.657534 -2.292402 -0.491281
v -5.657534 -2.292402 0.01012
v -5.50655 -2.574094 -0.491281
v -5.50655 -2.574094 0.01012
v -5.272453 -2.787552 -0.491281
v -5.272453 -2.787552 0.01012
v -5.033396 -2.897154 -0.491281
v -5.033396 -2.897154 0.01012
v -4.763603 -2.936178 -0.491281
v -4.763603 -2.936178 0.01012
v -4.763603 -2.936178 0.01012
v -4.763603 -2.936178 -0.491281
v 4.763603 -2.936178 -0.491281
v 4.763603 -2.936178 0.01012
v 4.763603 -2.936178 0.01012
v 4.763603 -2.936178 -0.491281
v 5.061681 -2.888256 -0.491281
v 5.061681 -2.888256 0.01012
v 5.343372 -2.737271 -0.491281
v 5.343372 -2.737271 0.01012
v 5.556831 -2.503175 -0.491281
v 5.556831 -2.503175 0.01012
v 5.666432 -2.264118 -0.491281
v 5.666432 -2.264118 0.01012
v 5.705456 -1.994325 -0.491281
v 5.705456 -1.994325 0.01012
v 5.705456 -1.994325 0.01012
v 5.705456 -1.994325 -0.491281
v 5.705456 1.990438 -0.491281
v 5.705456 1.990438 0.01012
v -4.763603 2.932291 -0.491281
v -4.763603 -2.936178 -0.491281
v -5.705456 -1.994325 -0.491281
v -5.705456 1.990438 -0.491281
v 5.556831 -2.503175 -0.491281
v 5.343372 -2.737271 -0.491281
v 5.061681 -2.888256 -0.491281
v 4.763603 -2.936178 -0.491281
v -5.556831 2.499289 -0.491281
v -5.343372 2.733385 -0.491281
v -5.061681 2.88437 -0.491281
v 5.272453 2.783666 -0.491281
v 5.50655 2.570207 -0.491281
v 5.657535 2.288516 -0.491281
v 5.705456 1.990438 -0.491281
v -5.272453 -2.787552 -0.491281
v -5.50655 -2.574094 -0.491281
v -5.657534 -2.292402 -0.491281
v 4.763603 2.932291 -0.491281
v 5.705456 -1.994325 -0.491281
v 5.033396 2.893267 -0.491281
v -5.033396 -2.897154 -0.491281
v -5.666432 2.260231 -0.491281
v 5.666432 -2.264118 -0.491281
v 0.749927 -1.247049 -0.859719
v 0.749927 -1.247049 -0.98276
v 0.249976 -1.247049 -0.98276
v 0.249976 -1.247049 -0.859719
v -0.249975 -1.247049 -0.98276
v -0.249975 -1.247049 -0.859719
v -0.749925 -1.247049 -0.98276
v -0.749925 -1.247049 -0.859719
v -1.249876 -1.247049 -0.98276
v -1.249876 -1.247049 -0.859719
v -1.249876 -1.247049 -0.859719
v -1.249876 -1.247049 -0.98276
v -1.249876 -0.747099 -0.98276
v -1.249876 -0.747099 -0.859719
v -1.249876 -0.247148 -0.98276
v -1.249876 -0.247148 -0.859719
v -1.249876 0.252802 -0.98276
v -1.249876 0.252802 -0.859719
v -1.249876 0.752753 -0.98276
v -1.249876 0.752753 -0.859719
v -1.249876 1.252703 -0.98276
v -1.249876 1.252703 -0.859719
v -1.249876 1.252703 -0.859719
v -1.249876 1.252703 -0.98276
v -0.749925 1.252703 -0.98276
v -0.749925 1.252703 -0.859719
v 1.249877 0.752753 -0.859719
v 1.249877 0.752753 -0.98276
v 1.249877 0.252802 -0.98276
v 1.249877 0.252802 -0.859719
v -0.249975 1.252703 -0.98276
v -0.249975 1.252703 -0.859719
v 0.249976 1.252703 -0.98276
v 0.249976 1.252703 -0.859719
v 0.749927 1.252703 -0.98276
v 0.749927 1.252703 -0.859719
v 1.249877 1.252703 -0.98276
v 1.249877 1.252703 -0.859719
v 1.249877 -0.247148 -0.859719
v 1.249877 -0.247148 -0.98276
v 1.249877 -0.747099 -0.98276
v 1.249877 -0.747099 -0.859719
v 1.249877 1.252703 -0.859719
v 1.249877 1.252703 -0.98276
v 1.249877 -1.247049 -0.98276
v 1.249877 -1.247049 -0.859719
v 1.249877 -1.247049 -0.859719
v 1.249877 -1.247049 -0.98276
vt 0.968885 0.827371
vt 0.941591 0.80835402
vt 0.937882 0.854496
vt 0.964947 0.876365006
vt 0.926196 0.89810002
vt 0.952538 0.92266399
vt 0.908077 0.931142986
vt 0.9333 0.95774901
vt 0.889574 0.94810897
vt 0.913654 0.975763977
vt 0.868693 0.954149008
vt 0.891482 0.982177973
vt 0.891482 0.982177973
vt 0.868693 0.954149008
vt 0.131307 0.954149008
vt 0.108518 0.982177973
vt 0.108518 0.982177973
vt 0.131307 0.954149008
vt 0.108236 0.94673097
vt 0.084022 0.97430098
vt 0.086434 0.92335999
vt 0.060872 0.949485004
vt 0.069913 0.887121975
vt 0.04333 0.911008
vt 0.06143 0.85011703
vt 0.034322 0.87171602
vt 0.058409 0.80835402
vt 0.031115 0.827371
vt 0.031115 0.827371
vt 0.058409 0.80835402
vt 0.058409 0.19152999
vt 0.031115 0.17242098
vt 0.031115 0.17242098
vt 0.058409 0.19152999
vt 0.062118 0.145388
vt 0.035053 0.12342799
vt 0.073804 0.10178399
vt 0.047462 0.07712799
vt 0.091923 0.06874102
vt 0.0667 0.04204297
vt 0.110426 0.05177498
vt 0.086346 0.024029016
vt 0.131307 0.045735
vt 0.108518 0.01761502
vt 0.108518 0.01761502
vt 0.131307 0.045735
vt 0.868693 0.045735
vt 0.891482 0.01761502
vt 0.891482 0.01761502
vt 0.868693 0.045735
vt 0.891764 0.05315298
vt 0.915978 0.025491
vt 0.913566 0.07652402
vt 0.939128 0.05030799
vt 0.930087 0.112761974
vt 0.956671 0.08878499
vt 0.93857 0.14976698
vt 0.965678 0.12807703
vt 0.941591 0.19152999
vt 0.968885 0.17242098
vt 0.968885 0.17242098
vt 0.941591 0.19152999
vt 0.941591 0.80835402
vt 0.968885 0.827371
vt 0.131307 0.954149008
vt 0.131307 0.045735
vt 0.058409 0.19152999
vt 0.058409 0.80835402
vt 0.930087 0.112761974
vt 0.913566 0.07652402
vt 0.891764 0.05315298
vt 0.868693 0.045735
vt 0.069913 0.887121975
vt 0.086434 0.92335999
vt 0.108236 0.94673097
vt 0.908077 0.931142986
vt 0.926196 0.89810002
vt 0.937882 0.854496
vt 0.941591 0.80835402
vt 0.091923 0.06874102
vt 0.073804 0.10178399
vt 0.062118 0.145388
vt 0.868693 0.954149008
vt 0.941591 0.19152999
vt 0.889574 0.94810897
vt 0.110426 0.05177498
vt 0.06143 0.85011703
vt 0.93857 0.14976698
vt 0.555662 0.31514096
vt 0.55491 0.317648
vt 0.518303 0.317648
vt 0.518554 0.31514096
vt 0.481697 0.317648
vt 0.481446 0.31514096
vt 0.44509 0.317648
vt 0.444338 0.31514096
vt 0.408484 0.317648
vt 0.40723 0.31514096
vt 0.40723 0.31514096
vt 0.408484 0.317648
vt 0.408484 0.39086103
vt 0.40723 0.38935697
vt 0.408484 0.46407402
vt 0.40723 0.46357298
vt 0.408484 0.537287
vt 0.40723 0.53778797
vt 0.408484 0.61049998
vt 0.40723 0.61200398
vt 0.408484 0.683712
vt 0.40723 0.68622
vt 0.40723 0.68622
vt 0.408484 0.683712
vt 0.44509 0.683712
vt 0.444338 0.68622
vt 0.59277 0.61200398
vt 0.591516 0.61049998
vt 0.591516 0.537287
vt 0.59277 0.53778797
vt 0.481697 0.683712
vt 0.481446 0.68622
vt 0.518303 0.683712
vt 0.518554 0.68622
vt 0.55491 0.683712
vt 0.555662 0.68622
vt 0.591516 0.683712
vt 0.59277 0.68622
vt 0.59277 0.46357298
vt 0.591516 0.46407402
vt 0.591516 0.39086103
vt 0.59277 0.38935697
vt 0.59277 0.68622
vt 0.591516 0.683712
vt 0.591516 0.317648
vt 0.59277 0.31514096
vt 0.59277 0.31514096
vt 0.591516 0.317648
vn -0.987322 -0.158731 0
vn -0.987322 -0.158731 0
vn -0.947422 -0.319987 0
vn -0.947422 -0.319987 0
vn -0.788917 -0.6145 0
vn -0.788917 -0.6145 0
vn -0.551864 -0.833934 0
vn -0.551864 -0.833934 0
vn -0.282849 -0.959164 0
vn -0.282849 -0.959164 0
vn -0.143155 -0.9897 0
vn -0.143155 -0.9897 0
vn 0 -1 0
vn 0 -1 0
vn 0 -1 0
vn 0 -1 0
vn 0.158731 -0.987322 0
vn 0.158731 -0.987322 0
vn 0.319987 -0.947422 0
vn 0.319987 -0.947422 0
vn 0.6145 -0.788917 0
vn 0.6145 -0.788917 0
vn 0.833934 -0.551864 0
vn 0.833934 -0.551864 0
vn 0.959165 -0.282849 0
vn 0.959165 -0.282849 0
vn 0.9897 -0.143154 0
vn 0.9897 -0.143154 0
vn 1 0 0
vn 1 0 0
vn 1 0 0
vn 1 0 0
vn 0.987322 0.158729 0
vn 0.987322 0.158729 0
vn 0.947422 0.319986 0
vn 0.947422 0.319986 0
vn 0.788917 0.6145 0
vn 0.788917 0.6145 0
vn 0.551864 0.833934 0
vn 0.551864 0.833934 0
vn 0.282849 0.959165 0
vn 0.282849 0.959165 0
vn 0.143154 0.9897 0
vn 0.143154 0.9897 0
vn 0 1 0
vn 0 1 0
vn 0 1 0
vn 0 1 0
vn -0.15873 0.987322 0
vn -0.15873 0.987322 0
vn -0.319986 0.947422 0
vn -0.319986 0.947422 0
vn -0.6145 0.788917 0
vn -0.6145 0.788917 0
vn -0.833934 0.551864 0
vn -0.833934 0.551864 0
vn -0.959164 0.282849 0
vn -0.959164 0.282849 0
vn -0.9897 0.143154 0
vn -0.9897 0.143154 0
vn -1 0 0
vn -1 0 0
vn -1 0 0
vn -1 0 0
vn 0 0 1
vn 0 0 1
vn 0 0 1
vn 0 0 1
vn 0 0 1
vn 0 0 1
vn 0 0 1
vn 0 0 1
vn 0 0 1
vn 0 0 1
vn 0 0 1
vn 0 0 1
vn 0 0 1
vn 0 0 1
vn 0 0 1
vn 0 0 1
vn 0 0 1
vn 0 0 1
vn 0 0 1
vn 0 0 1
vn 0 0 1
vn 0 0 1
vn 0 0 1
vn 0 0 1
vn 0 -1 0
vn 0 -1 0
vn 0 -1 0
vn 0 -1 0
vn 0 -1 0
vn 0 -1 0
vn 0 -1 0
vn 0 -1 0
vn 0 -1 0
vn 0 -1 0
vn -1 0 0
vn -1 0 0
vn -1 0 0
vn -1 0 0
vn -1 0 0
vn -1 0 0
vn -1 0 0
vn -1 0 0
vn -1 0 0
vn -1 0 0
vn -1 0 0
vn -1 0 0
vn 0 1 0
vn 0 1 0
vn 0 1 0
vn 0 1 0
vn 1 0 0
vn 1 0 0
vn 1 0 0
vn 1 0 0
vn 0 1 0
vn 0 1 0
vn 0 1 0
vn 0 1 0
vn 0 1 0
vn 0 1 0
vn 0 1 0
vn 0 1 0
vn 1 0 0
vn 1 0 0
vn 1 0 0
vn 1 0 0
vn 1 0 0
vn 1 0 0
vn 1 0 0
vn 1 0 0
vn 0 -1 0
vn 0 -1 0
f 15/15/15 14/14/14 13/13/13
f 16/16/16 15/15/15 13/13/13
f 3/3/3 2/2/2 1/1/1
f 4/4/4 3/3/3 1/1/1
f 5/5/5 3/3/3 4/4/4
f 6/6/6 5/5/5 4/4/4
f 7/7/7 5/5/5 6/6/6
f 8/8/8 7/7/7 6/6/6
f 9/9/9 7/7/7 8/8/8
f 10/10/10 9/9/9 8/8/8
f 11/11/11 9/9/9 10/10/10
f 12/12/12 11/11/11 10/10/10
f 19/19/19 18/18/18 17/17/17
f 20/20/20 19/19/19 17/17/17
f 21/21/21 19/19/19 20/20/20
f 22/22/22 21/21/21 20/20/20
f 23/23/23 21/21/21 22/22/22
f 24/24/24 23/23/23 22/22/22
f 25/25/25 23/23/23 24/24/24
f 26/26/26 25/25/25 24/24/24
f 27/27/27 25/25/25 26/26/26
f 28/28/28 27/27/27 26/26/26
f 31/31/31 30/30/30 29/29/29
f 32/32/32 31/31/31 29/29/29
f 35/35/35 34/34/34 33/33/33
f 36/36/36 35/35/35 33/33/33
f 37/37/37 35/35/35 36/36/36
f 38/38/38 37/37/37 36/36/36
f 39/39/39 37/37/37 38/38/38
f 40/40/40 39/39/39 38/38/38
f 41/41/41 39/39/39 40/40/40
f 42/42/42 41/41/41 40/40/40
f 43/43/43 41/41/41 42/42/42
f 44/44/44 43/43/43 42/42/42
f 47/47/47 46/46/46 45/45/45
f 48/48/48 47/47/47 45/45/45
f 51/51/51 50/50/50 49/49/49
f 52/52/52 51/51/51 49/49/49
f 53/53/53 51/51/51 52/52/52
f 54/54/54 53/53/53 52/52/52
f 55/55/55 53/53/53 54/54/54
f 56/56/56 55/55/55 54/54/54
f 57/57/57 55/55/55 56/56/56
f 58/58/58 57/57/57 56/56/56
f 59/59/59 57/57/57 58/58/58
f 60/60/60 59/59/59 58/58/58
f 63/63/63 62/62/62 61/61/61
f 64/64/64 63/63/63 61/61/61
f 67/67/67 66/66/66 65/65/65
f 66/66/66 67/67/67 86/86/86
f 67/67/67 80/80/80 86/86/86
f 67/67/67 82/82/82 80/80/80
f 82/82/82 81/81/81 80/80/80
f 68/68/68 67/67/67 65/65/65
f 68/68/68 65/65/65 87/87/87
f 65/65/65 73/73/73 87/87/87
f 65/65/65 75/75/75 73/73/73
f 75/75/75 74/74/74 73/73/73
f 65/65/65 66/66/66 83/83/83
f 66/66/66 79/79/79 83/83/83
f 83/83/83 79/79/79 85/85/85
f 79/79/79 76/76/76 85/85/85
f 66/66/66 72/72/72 79/79/79
f 79/79/79 78/78/78 76/76/76
f 78/78/78 77/77/77 76/76/76
f 72/72/72 84/84/84 79/79/79
f 84/84/84 72/72/72 88/88/88
f 72/72/72 69/69/69 88/88/88
f 72/72/72 71/71/71 69/69/69
f 71/71/71 70/70/70 69/69/69
f 91/91/91 90/90/90 89/89/89
f 89/89/89 90/90/90 135/135/135
f 90/90/90 136/136/136 135/135/135
f 92/92/92 91/91/91 89/89/89
f 93/93/93 91/91/91 92/92/92
f 94/94/94 93/93/93 92/92/92
f 95/95/95 93/93/93 94/94/94
f 96/96/96 95/95/95 94/94/94
f 97/97/97 95/95/95 96/96/96
f 98/98/98 97/97/97 96/96/96
f 101/101/101 100/100/100 99/99/99
f 102/102/102 101/101/101 99/99/99
f 103/103/103 101/101/101 102/102/102
f 104/104/104 103/103/103 102/102/102
f 105/105/105 103/103/103 104/104/104
f 106/106/106 105/105/105 104/104/104
f 107/107/107 105/105/105 106/106/106
f 108/108/108 107/107/107 106/106/106
f 109/109/109 107/107/107 108/108/108
f 110/110/110 109/109/109 108/108/108
f 113/113/113 112/112/112 111/111/111
f 114/114/114 113/113/113 111/111/111
f 119/119/119 113/113/113 114/114/114
f 120/120/120 119/119/119 114/114/114
f 121/121/121 119/119/119 120/120/120
f 122/122/122 121/121/121 120/120/120
f 123/123/123 121/121/121 122/122/122
f 124/124/124 123/123/123 122/122/122
f 125/125/125 123/123/123 124/124/124
f 126/126/126 125/125/125 124/124/124
f 117/117/117 116/116/116 115/115/115
f 115/115/115 116/116/116 131/131/131
f 116/116/116 132/132/132 131/131/131
f 118/118/118 117/117/117 115/115/115
f 128/128/128 117/117/117 118/118/118
f 127/127/127 128/128/128 118/118/118
f 129/129/129 128/128/128 127/127/127
f 130/130/130 129/129/129 127/127/127
f 133/133/133 129/129/129 130/130/130
f 134/134/134 133/133/133 130/130/130
