# VPXTOOL table OBJ file
# VPXTOOL OBJ file
# numVerts: 226 numFaces: 309
o RFLogo
v -2.410978 21.64453 -45.405083
v -2.410978 21.64453 -21.550108
v -6.412664 20.719595 -21.550108
v -6.412664 20.719595 -45.405083
v -19.109482 7.780334 -45.405083
v -19.109482 7.780334 -21.550108
v -19.856665 3.139974 -21.550108
v -19.856665 3.139974 -45.405083
v 2.171814 -123.73916 -45.405083
v -0.006166 -124.19111 -45.405083
v 0.002997 -130.68062 -45.405083
v 5.297367 -129.2414 -45.405083
v -9.454451 -125.63943 -45.405083
v -9.454451 -125.63943 -21.550108
v -5.337039 -129.30212 -21.550108
v -5.337039 -129.30212 -45.405083
v 10.562784 18.688889 -45.405083
v 10.562784 18.688889 -21.550108
v 6.410578 20.70787 -21.550108
v 6.410578 20.70787 -45.405083
v 17.344624 12.090379 -45.405083
v 17.344624 12.090379 -21.550108
v 14.369212 15.772633 -21.550108
v 14.369212 15.772633 -45.405083
v 19.16238 7.799165 -45.405083
v 19.16238 7.799165 -21.550108
v -10.547676 18.666176 -45.405083
v -10.547676 18.666176 -21.550108
v -14.329679 15.733538 -21.550108
v -14.329679 15.733538 -45.405083
v 0.002997 -130.68062 -21.550144
v 19.092575 -13.4732 -21.550108
v 19.959934 -1.585579 -21.550108
v 19.959934 -1.585579 -45.405083
v 19.092575 -13.4732 -45.405083
v -17.297403 12.060843 -21.550144
v -17.297403 12.060843 -45.405083
v 5.297367 -129.2414 -21.550108
v 9.463096 -125.63382 -21.550108
v 9.463096 -125.63382 -45.405083
v 19.912193 3.147336 -21.550108
v 19.912193 3.147336 -45.405083
v 11.286335 -120.46179 -21.550108
v 11.286335 -120.46179 -45.405083
v 2.382529 21.580832 -21.550144
v 2.382529 21.580832 -45.405083
v -19.903389 -1.581414 -21.550108
v -19.903389 -1.581414 -45.405083
v -7.405143 13.064881 -50.687065
v -4.77944 14.447534 -50.68712
v -4.718946 14.277514 -40.387756
v -7.304705 12.913939 -40.387756
v -13.621724 2.249314 -50.687023
v -13.145013 5.482646 -50.687218
v -12.97236 5.432964 -40.387756
v -13.440173 2.238933 -40.387756
v 13.568018 2.229044 -50.686996
v 13.487976 -1.180837 -50.686996
v 13.304842 -1.172036 -40.387756
v 13.385981 2.219631 -40.387756
v -2.159272 -123.71467 -50.687317
v -3.860484 -122.31117 -50.687057
v -3.720547 -122.19579 -40.387756
v -2.081231 -123.5539 -40.387756
v 2.145715 -123.7169 -50.68728
v 2.067632 -123.555756 -40.387756
v 3.701804 -122.19545 -40.387756
v 3.843057 -122.30923 -50.687057
v -0.007049 -124.15634 -50.687042
v -0.006465 -123.974785 -40.387756
v -4.869668 -120.35556 -50.6873
v -4.695151 -120.31644 -40.387756
v -11.840411 8.448509 -50.687103
v -11.68402 8.357639 -40.387756
v -6.196765 -120.653076 -20.935501
v -6.196765 -120.653076 -7.041829
v -4.907928 -123.17473 -7.041829
v -4.907928 -123.17473 -20.935501
v 4.97955 -118.93875 -50.687065
v 4.797206 -118.91682 -40.387756
v 8.139492 -72.659935 -40.387756
v 8.320256 -72.70381 -50.687065
v -10.008733 10.918769 -50.68715
v -9.877983 10.794546 -40.387756
v -1.678687 15.175272 -50.687164
v -1.648365 14.99724 -40.387756
v 7.404834 13.065394 -50.687057
v 9.938717 10.994286 -50.687164
v 9.808202 10.870076 -40.387756
v 7.304669 12.914161 -40.387756
v 1.679354 15.175274 -50.687172
v 1.649157 14.99724 -40.387756
v 11.9244 8.30198 -50.687103
v 13.147644 5.480869 -50.687256
v 12.974795 5.4333 -40.387756
v 11.767714 8.211741 -40.387756
v 4.779521 14.447658 -50.68712
v 4.718935 14.277684 -40.387756
v -13.514089 -1.271065 -50.687004
v -13.330958 -1.261569 -40.387756
v 12.624681 -13.131021 -50.687065
v 12.443951 -13.086684 -40.387756
v 4.868985 -120.35984 -50.687405
v 4.695927 -120.31854 -40.387756
v -4.796743 -118.9158 -40.387756
v -4.966137 -119.11636 -50.687065
v -8.330346 -72.736786 -50.687065
v -8.149475 -72.69449 -40.387756
v 10.337867 -13.106686 -52.96637
v -10.362147 -13.172978 -52.966385
v -6.036628 -72.694145 -52.967285
v 6.026019 -72.668785 -52.967285
v -12.648283 -13.208884 -50.687065
v -12.467378 -13.167057 -40.387756
v 9.963764 7.175955 -52.961815
v 10.964907 4.88373 -52.961037
v -1.459262 12.915838 -52.962837
v 1.459383 12.915841 -52.962837
v 3.973658 12.32702 -52.96279
v 6.154629 11.178997 -52.962563
v -3.97318 12.327104 -52.96279
v -6.150249 11.181007 -52.962578
v 11.328061 2.116655 -52.95965
v 11.253272 -1.074096 -52.959465
v -11.278992 -1.155818 -52.95965
v -11.379845 2.124311 -52.959793
v -2.620136 -119.85124 -52.966797
v -2.088716 -120.85046 -52.96694
v 0.000522 -121.86073 -52.966957
v 1.14085 -121.64296 -52.966805
v -1.152385 -121.640175 -52.96679
v 2.054825 -120.868774 -52.96694
v -10.970921 4.860312 -52.961052
v 8.296558 9.433081 -52.96218
v -9.884202 7.315098 -52.96183
v -8.364417 9.35983 -52.962303
v 2.623182 -119.82392 -52.96675
v 2.687817 -118.86923 -52.967285
v -2.67767 -119.00139 -52.967285
v 6.296294 -119.25954 -20.935501
v 6.296294 -119.25954 -7.041829
v 9.674377 -72.77084 -7.041829
v 9.674377 -72.77084 -20.935501
v 8.154428 14.197163 -20.935501
v 8.154428 14.197163 -7.041829
v 5.257813 15.719141 -7.041829
v 5.257813 15.719141 -20.935501
v -14.45124 5.858514 -20.935501
v -14.45124 5.858514 -7.041829
v -14.976556 2.326789 -7.041829
v -14.976556 2.326789 -20.935501
v -14.867785 -1.341248 -20.935501
v -14.867785 -1.341248 -7.041829
v -14.002236 -13.27839 -7.041829
v -14.002236 -13.27839 -20.935501
v 1.825927 16.525946 -7.041829
v 1.825927 16.525946 -20.935501
v 13.10126 8.979758 -20.935501
v 13.10126 8.979758 -7.041829
v 10.922959 11.930973 -7.041829
v 10.922959 11.930973 -20.935501
v -1.825128 16.525946 -20.935501
v -1.825128 16.525946 -7.041829
v -5.257831 15.718967 -7.041829
v -5.257831 15.718967 -20.935501
v -13.014605 9.130764 -20.935501
v -13.014605 9.130764 -7.041829
v -8.157208 14.195118 -7.041829
v -8.157208 14.195118 -20.935501
v -10.993632 11.854505 -7.041829
v -10.993632 11.854505 -20.935501
v 14.841959 -1.245912 -20.935501
v 14.841959 -1.245912 -7.041829
v 14.922818 2.299109 -7.041829
v 14.922818 2.299109 -20.935501
v 14.458527 5.84162 -7.041829
v 14.458527 5.84162 -20.935501
v 6.192788 -120.67575 -20.935501
v 6.192788 -120.67575 -7.041829
v 4.900249 -123.16081 -20.935501
v 4.900249 -123.16081 -7.041829
v 13.978839 -13.197589 -7.041829
v 13.978839 -13.197589 -20.935501
v 2.738648 -124.94065 -20.935501
v 2.738648 -124.94065 -7.041829
v -2.753186 -124.93834 -7.041829
v -2.753186 -124.93834 -20.935501
v -0.011517 -125.51367 -20.935501
v -0.011517 -125.51367 -7.041829
v -9.684331 -72.805824 -7.041829
v -9.684331 -72.805824 -20.935501
v -14.726204 -72.911934 -21.550108
v -14.726204 -72.911934 -45.405083
v -19.040527 -13.469833 -45.405083
v -19.040527 -13.469833 -21.550108
v -11.274744 -120.46561 -21.550108
v -11.274744 -120.46561 -45.405083
v -12.679415 -13.176824 -45.405083
v -13.542972 -1.271886 -45.405083
v 14.755779 -72.91131 -45.405083
v 8.352916 -72.668045 -45.405083
v 4.908518 -120.32316 -45.405083
v -4.907393 -120.32125 -45.405083
v -8.361625 -72.70151 -45.405083
v -11.865097 8.477098 -45.405083
v -10.021586 10.953868 -45.405083
v -3.90551 -122.30688 -45.405083
v 3.887655 -122.306366 -45.405083
v -2.186267 -123.73933 -45.405083
v 7.40977 13.100443 -45.405083
v 9.955331 11.028224 -45.405083
v -7.409318 13.099493 -45.405083
v -13.17033 5.508687 -45.405083
v 11.947617 8.336858 -45.405083
v -13.658456 2.269305 -45.405083
v 13.519523 -1.185376 -45.405083
v 12.658421 -13.099154 -45.405083
v 13.174397 5.509618 -45.405083
v 13.607828 2.250864 -45.405083
v -4.773582 14.485324 -45.405083
v -1.672966 15.211671 -45.405083
v 1.672815 15.209615 -45.405083
v 4.773504 14.485109 -45.405083
v 14.755779 -72.91131 -21.550108
v -6.300321 -119.23918 -7.041829
v -6.300321 -119.23918 -20.935501
vt 0.894503 0.55384803
vt 0.947938 0.503658
vt 0.925483 0.483162
vt 0.881609 0.54302
vt 0.812349 0.52740002
vt 0.798649 0.451119
vt 0.759811 0.46107
vt 0.791993 0.53151202
vt 0.511202 0.89750898
vt 0.503722 0.891870975
vt 0.487254 0.906322
vt 0.501387 0.91843498
vt 0.472737 0.87033099
vt 0.405827 0.862611
vt 0.411166 0.91047001
vt 0.477295 0.89041698
vt 0.919177 0.596915
vt 0.993623 0.581196
vt 0.983315 0.553908
vt 0.913543 0.58104903
vt 0.920798 0.631858
vt 0.995415 0.644814
vt 0.998099 0.61413902
vt 0.921785 0.61404097
vt 0.916496 0.650095
vt 0.988286 0.67431498
vt 0.866564 0.53458
vt 0.897529 0.465411
vt 0.866348 0.45414197
vt 0.849729 0.528822
vt 0.435499 0.94821602
vt 0.910825 0.770019
vt 0.948616 0.742872
vt 0.896242 0.688213
vt 0.861338 0.712043
vt 0.832544 0.44967604
vt 0.831555 0.526465
vt 0.468722 0.975905001
vt 0.518978 0.995119989
vt 0.520545 0.92622101
vt 0.975564 0.70422697
vt 0.909166 0.66897303
vt 0.575615 0.982773006
vt 0.5472 0.92651701
vt 0.966276 0.52752203
vt 0.905043 0.566746
vt 0.728409 0.48026502
vt 0.771004 0.541358
vt 0.065261 0.85098398
vt 0.075397 0.87619001
vt 0.016977 0.89866799
vt 0.004346 0.85764003
vt 0.088724 0.73740798
vt 0.072064 0.76299798
vt 0.028457 0.72566998
vt 0.052154 0.69194603
vt 0.270479 0.91091901
vt 0.291089 0.88944399
vt 0.337499 0.916311026
vt 0.313036 0.940841973
vt 0.907942 0.056728005
vt 0.883722 0.054691017
vt 0.877896 0.0033159852
vt 0.92724 0.01029098
vt 0.942061 0.09079498
vt 0.992886 0.07635498
vt 0.996239 0.118206024
vt 0.944176 0.11464101
vt 0.929321 0.069490016
vt 0.967213 0.03396499
vt 0.862783 0.062421024
vt 0.838261 0.013970971
vt 0.062427 0.791852
vt 0.010765 0.766024
vt 0.534912 0.056728005
vt 0.526966 0.0063269734
vt 0.566726 0.012561977
vt 0.542731 0.05871302
vt 0.929237 0.144993
vt 0.976797 0.17136002
vt 0.717406 0.47239304
vt 0.676143 0.43865204
vt 0.060489 0.82044297
vt 0.002041 0.80875897
vt 0.091993 0.89971298
vt 0.041518 0.937839985
vt 0.164153 0.940872014
vt 0.192934 0.942762017
vt 0.20585 0.9948899746
vt 0.160203 0.9970480204
vt 0.114155 0.91953701
vt 0.077499 0.969799995
vt 0.22205 0.938336015
vt 0.247196 0.927959025
vt 0.28321 0.963899016
vt 0.249217 0.982380986
vt 0.138766 0.933442
vt 0.118864 0.9893760085
vt 0.111552 0.71447998
vt 0.079787 0.66335303
vt 0.354474 0.81307602
vt 0.394627 0.84608501
vt 0.936979 0.13598502
vt 0.984773 0.16153902
vt 0.828222 0.022123992
vt 0.853831 0.07020599
vt 0.561965 0.324803
vt 0.523737 0.28505504
vt 0.327271 0.78778899
vt 0.215173 0.67569602
vt 0.587542 0.35157204
vt 0.649279 0.41316998
vt 0.189326 0.64831102
vt 0.151743 0.60701
vt 0.211993 0.902455986
vt 0.229099 0.895808995
vt 0.119892 0.87420201
vt 0.136591 0.88953
vt 0.153231 0.89903599
vt 0.17086 0.90394002
vt 0.10899 0.85830897
vt 0.102566 0.84090698
vt 0.245931 0.88288301
vt 0.263271 0.86413401
vt 0.138479 0.742662
vt 0.119129 0.76173401
vt 0.881496 0.09570402
vt 0.887638 0.093862
vt 0.90072 0.098318994
vt 0.904574 0.103854
vt 0.895042 0.09442198
vt 0.905141 0.11096001
vt 0.106983 0.77988398
vt 0.191387 0.905662
vt 0.10069 0.79967898
vt 0.09909 0.81910598
vt 0.903223 0.117734015
vt 0.895861 0.12629801
vt 0.872967 0.103128016
vt 0.550126 0.09341401
vt 0.608717 0.11158198
vt 0.481652 0.296233
vt 0.426785 0.24440503
vt 0.097582 0.49001098
vt 0.076684 0.543292
vt 0.059955 0.53566098
vt 0.089069 0.486252
vt 0.070646 0.41988504
vt 0.006181 0.41094196
vt 0.010975 0.39059198
vt 0.076332 0.407723
vt 0.083913 0.39568198
vt 0.017991 0.37065196
vt 0.057116 0.31017697
vt 0.115682 0.357441
vt 0.043087 0.524014
vt 0.081358 0.48025703
vt 0.118963 0.49172604
vt 0.116807 0.54991502
vt 0.096348 0.54834002
vt 0.107703 0.49219298
vt 0.074889 0.47247303
vt 0.028126 0.50845402
vt 0.016969 0.49085903
vt 0.070216 0.46358097
vt 0.067456 0.43184698
vt 0.00412 0.43184
vt 0.009738 0.473121
vt 0.06753 0.45411098
vt 0.005071 0.451724
vt 0.066456 0.44291496
vt 0.154899 0.478562
vt 0.172246 0.541301
vt 0.154241 0.545717
vt 0.142273 0.48453903
vt 0.135406 0.548827
vt 0.129945 0.488608
vt 0.552827 0.08941001
vt 0.611334 0.10640401
vt 0.553749 0.081083
vt 0.612489 0.072236
vt 0.233304 0.51276898
vt 0.198309 0.452159
vt 0.552282 0.073347986
vt 0.60554 0.047892988
vt 0.58639 0.02533102
vt 0.547951 0.06188798
vt 0.550963 0.066838026
vt 0.595247 0.031512976
vt 0.319944 0.103367984
vt 0.360168 0.16592199
vt 0.543379 0.67971098
vt 0.594493 0.722892
vt 0.741585 0.57161403
vt 0.695915 0.50959498
vt 0.425584 0.81296802
vt 0.476819 0.84391499
vt 0.764445 0.60134703
vt 0.793278 0.57221
vt 0.686817 0.831195
vt 0.667381 0.80189598
vt 0.5326 0.896028996
vt 0.504942 0.86357802
vt 0.620276 0.74703097
vt 0.831198 0.55795503
vt 0.843291 0.558805
vt 0.499306 0.87372601
vt 0.521604 0.89953399
vt 0.499316 0.883670986
vt 0.891409 0.60306197
vt 0.892275 0.61451697
vt 0.85536 0.561866
vt 0.818332 0.55947602
vt 0.890563 0.626984
vt 0.805862 0.56397903
vt 0.869552 0.66069698
vt 0.835856 0.68423003
vt 0.88638 0.638282
vt 0.879478 0.649835
vt 0.865886 0.56720603
vt 0.875086 0.574044
vt 0.882495 0.582546
vt 0.887916 0.59235603
vt 0.723556 0.887670994
vt 0.521419 0.008216977
vt 0.530288 0.059439003
vn -0.0781 0.728 -0.6811
vn -0.1067 0.9943 0
vn -0.3373 0.9414 0
vn -0.2467 0.6887 -0.6818
vn -0.7037 0.2024 -0.681
vn -0.961 0.2764 0
vn -0.9964 0.0847 0
vn -0.7206 0.0612 -0.6906
vn 0 0 -1
vn 0 0 -1
vn 0.0048 -0.7567 -0.6537
vn 0.3531 -0.6627 -0.6603
vn -0.6275 -0.4211 -0.6549
vn -0.8303 -0.5572 0
vn -0.4704 -0.8824 0
vn -0.3543 -0.6646 -0.6578
vn 0.3827 0.6197 -0.6852
vn 0.5254 0.8509 0
vn 0.3269 0.945 0
vn 0.2393 0.6919 -0.6812
vn 0.6311 0.3784 -0.6771
vn 0.8576 0.5143 0
vn 0.6979 0.7162 0
vn 0.5108 0.5242 -0.6814
vn 0.7037 0.2025 -0.681
vn 0.961 0.2766 0
vn -0.3869 0.6168 -0.6854
vn -0.5314 0.8471 0
vn -0.7 0.7141 0
vn -0.5119 0.5223 -0.682
vn 0.0064 -1 0
vn 0.9973 -0.0728 0
vn 0.9995 -0.0313 0
vn 0.7158 -0.0225 -0.6979
vn 0.7052 -0.0515 -0.7071
vn -0.8577 0.5141 0
vn -0.6312 0.3784 -0.6771
vn 0.4702 -0.8825 0
vn 0.8264 -0.563 0
vn 0.6254 -0.426 -0.6537
vn 0.9964 0.0848 0
vn 0.7206 0.0613 -0.6906
vn 0.9789 -0.2044 0
vn 0.7191 -0.1502 -0.6784
vn 0.1131 0.9936 0
vn 0.0824 0.7236 -0.6853
vn -0.9995 -0.0313 0
vn -0.7158 -0.0224 -0.698
vn -0.5157 0.7752 -0.3648
vn -0.3262 0.8726 -0.3634
vn -0.35 0.9366 0.0176
vn -0.5538 0.8324 0.0175
vn -0.9296 0.0537 -0.3645
vn -0.8956 0.2581 -0.3623
vn -0.9608 0.2766 0.0175
vn -0.9982 0.0575 0.0176
vn 0.9296 0.0487 -0.3652
vn 0.928 -0.0447 -0.3698
vn 0.9987 -0.0479 0.0178
vn 0.9985 0.0521 0.0176
vn -0.4028 -0.8421 -0.3585
vn -0.7262 -0.5862 -0.359
vn -0.7783 -0.6276 0.0174
vn -0.4313 -0.902 0.0176
vn 0.4035 -0.8419 -0.3581
vn 0.432 -0.9017 0.0176
vn 0.7764 -0.63 0.0174
vn 0.7246 -0.588 -0.3594
vn -0.0005 -0.9334 -0.3589
vn -0.0004 -0.9998 0.0174
vn -0.8975 -0.2529 -0.3612
vn -0.9619 -0.2727 0.0176
vn -0.8053 0.4681 -0.3638
vn -0.8645 0.5022 0.0175
vn -0.963 -0.2694 0
vn -0.963 -0.2694 0
vn -0.7784 -0.6278 0
vn -0.7784 -0.6278 0
vn 0.9245 -0.0678 -0.375
vn 0.9971 -0.0734 0.0176
vn 0.9972 -0.0721 0.0178
vn 0.9245 -0.0668 -0.3753
vn -0.6753 0.6417 -0.3635
vn -0.7249 0.6886 0.0175
vn -0.1067 0.9251 -0.3644
vn -0.1148 0.9932 0.0175
vn 0.514 0.7763 -0.3648
vn 0.6748 0.6423 -0.3634
vn 0.7243 0.6892 0.0175
vn 0.5521 0.8336 0.0175
vn 0.1067 0.9251 -0.3644
vn 0.1148 0.9932 0.0175
vn 0.8072 0.4649 -0.3637
vn 0.8986 0.2477 -0.362
vn 0.964 0.2654 0.0175
vn 0.8665 0.4989 0.0175
vn 0.3262 0.8726 -0.3634
vn 0.35 0.9366 0.0176
vn -0.9277 -0.0482 -0.3701
vn -0.9985 -0.0516 0.0177
vn 0.925 -0.0671 -0.3739
vn 0.9972 -0.072 0.0178
vn 0.8963 -0.2569 -0.3615
vn 0.9608 -0.2767 0.0176
vn -0.9971 -0.0735 0.0176
vn -0.9245 -0.068 -0.3751
vn -0.9244 -0.067 -0.3753
vn -0.9972 -0.0723 0.0178
vn 0.3817 -0.0277 -0.9239
vn -0.3817 -0.0278 -0.9239
vn -0.3807 -0.0276 -0.9243
vn 0.3808 -0.0275 -0.9243
vn -0.925 -0.0674 -0.3739
vn -0.9972 -0.0723 0.0178
vn 0.3526 0.2032 -0.9134
vn 0.3973 0.1097 -0.9111
vn -0.0472 0.404 -0.9135
vn 0.0471 0.404 -0.9135
vn 0.143 0.3833 -0.9124
vn 0.2232 0.3372 -0.9146
vn -0.1431 0.3833 -0.9124
vn -0.2241 0.337 -0.9144
vn 0.4009 0.0211 -0.9159
vn 0.3903 -0.0188 -0.9205
vn -0.3894 -0.0202 -0.9208
vn -0.4031 0.0234 -0.9149
vn -0.405 -0.1178 -0.9067
vn -0.3271 -0.2633 -0.9075
vn -0 -0.4198 -0.9076
vn 0.1854 -0.3879 -0.9028
vn -0.1848 -0.3877 -0.903
vn 0.3251 -0.2642 -0.908
vn -0.395 0.114 -0.9116
vn 0.2962 0.282 -0.9125
vn -0.3517 0.2045 -0.9135
vn -0.2959 0.2813 -0.9128
vn 0.4048 -0.1193 -0.9066
vn 0.3809 -0.0278 -0.9242
vn -0.3809 -0.0279 -0.9242
vn 0.9973 -0.0727 0
vn 0.9973 -0.0727 0
vn 0.9974 -0.0723 0
vn 0.9974 -0.0723 0
vn 0.5521 0.8338 0
vn 0.5521 0.8338 0
vn 0.3498 0.9368 0
vn 0.3498 0.9368 0
vn -0.9608 0.277 0
vn -0.9608 0.277 0
vn -0.9982 0.059 0
vn -0.9982 0.059 0
vn -0.9987 -0.051 0
vn -0.9987 -0.051 0
vn -0.9974 -0.0723 0
vn -0.9974 -0.0723 0
vn 0.1152 0.9933 0
vn 0.1152 0.9933 0
vn 0.8668 0.4986 0
vn 0.8668 0.4986 0
vn 0.7246 0.6892 0
vn 0.7246 0.6892 0
vn -0.1152 0.9933 0
vn -0.1152 0.9933 0
vn -0.3498 0.9368 0
vn -0.3498 0.9368 0
vn -0.8648 0.5021 0
vn -0.8648 0.5021 0
vn -0.5538 0.8326 0
vn -0.5538 0.8326 0
vn -0.7251 0.6886 0
vn -0.7251 0.6886 0
vn 0.9989 -0.0474 0
vn 0.9989 -0.0474 0
vn 0.9985 0.0537 0
vn 0.9985 0.0537 0
vn 0.964 0.266 0
vn 0.964 0.266 0
vn 0.9621 -0.2728 0
vn 0.9621 -0.2728 0
vn 0.7771 -0.6294 0
vn 0.7771 -0.6294 0
vn 0.9974 -0.072 0
vn 0.9974 -0.072 0
vn 0.4324 -0.9017 0
vn 0.4324 -0.9017 0
vn -0.4317 -0.902 0
vn -0.4317 -0.902 0
vn -0.0007 -1 0
vn -0.0007 -1 0
vn -0.9973 -0.0725 0
vn -0.9973 -0.0725 0
vn -0.9974 -0.0724 0
vn -0.7052 -0.0512 -0.7071
vn -0.7052 -0.0512 -0.7071
vn -0.9974 -0.0724 0
vn -0.979 -0.2039 0
vn -0.7192 -0.1498 -0.6785
vn 0 0 -1
vn 0 0 -1
vn 0.7052 -0.0515 -0.7071
vn 0 0 -1
vn 0 0 -1
vn 0 0 -1
vn 0 0 -1
vn 0 0 -1
vn 0 0 -1
vn 0 0 -1
vn 0 0 -1
vn 0 0 -1
vn 0 0 -1
vn 0 0 -1
vn 0 0 -1
vn 0 0 -1
vn 0 0 -1
vn 0 0 -1
vn 0 0 -1
vn 0 0 -1
vn 0 0 -1
vn 0 0 -1
vn 0 0 -1
vn 0 0 -1
vn 0 0 -1
vn 0 0 -1
vn 0.9973 -0.0728 0
vn -0.9973 -0.0728 0
vn -0.9973 -0.0728 0
f 143/143/143 142/142/142 140/140/140
f 143/143/143 183/183/183 142/142/142
f 142/142/142 141/141/141 140/140/140
f 183/183/183 182/182/182 142/142/142
f 140/140/140 141/141/141 178/178/178
f 173/173/173 182/182/182 183/183/183
f 141/141/141 179/179/179 178/178/178
f 172/172/172 173/173/173 183/183/183
f 178/178/178 179/179/179 180/180/180
f 174/174/174 173/173/173 172/172/172
f 179/179/179 181/181/181 180/180/180
f 175/175/175 174/174/174 172/172/172
f 180/180/180 181/181/181 184/184/184
f 176/176/176 174/174/174 175/175/175
f 181/181/181 185/185/185 184/184/184
f 177/177/177 176/176/176 175/175/175
f 184/184/184 185/185/185 188/188/188
f 159/159/159 176/176/176 177/177/177
f 185/185/185 189/189/189 188/188/188
f 158/158/158 159/159/159 177/177/177
f 188/188/188 189/189/189 187/187/187
f 160/160/160 159/159/159 158/158/158
f 189/189/189 186/186/186 187/187/187
f 161/161/161 160/160/160 158/158/158
f 187/187/187 186/186/186 78/78/78
f 145/145/145 160/160/160 161/161/161
f 186/186/186 77/77/77 78/78/78
f 144/144/144 145/145/145 161/161/161
f 78/78/78 77/77/77 75/75/75
f 146/146/146 145/145/145 144/144/144
f 77/77/77 76/76/76 75/75/75
f 147/147/147 146/146/146 144/144/144
f 75/75/75 76/76/76 226/226/226
f 156/156/156 146/146/146 147/147/147
f 76/76/76 225/225/225 226/226/226
f 157/157/157 156/156/156 147/147/147
f 191/191/191 226/226/226 225/225/225
f 163/163/163 156/156/156 157/157/157
f 190/190/190 191/191/191 225/225/225
f 162/162/162 163/163/163 157/157/157
f 191/191/191 190/190/190 154/154/154
f 164/164/164 163/163/163 162/162/162
f 155/155/155 191/191/191 154/154/154
f 165/165/165 164/164/164 162/162/162
f 155/155/155 154/154/154 152/152/152
f 168/168/168 164/164/164 165/165/165
f 154/154/154 153/153/153 152/152/152
f 169/169/169 168/168/168 165/165/165
f 152/152/152 153/153/153 151/151/151
f 170/170/170 168/168/168 169/169/169
f 153/153/153 150/150/150 151/151/151
f 171/171/171 170/170/170 169/169/169
f 151/151/151 150/150/150 148/148/148
f 167/167/167 170/170/170 171/171/171
f 150/150/150 149/149/149 148/148/148
f 166/166/166 167/167/167 171/171/171
f 148/148/148 149/149/149 166/166/166
f 149/149/149 167/167/167 166/166/166
f 3/3/3 2/2/2 1/1/1
f 1/1/1 2/2/2 46/46/46
f 2/2/2 45/45/45 46/46/46
f 4/4/4 3/3/3 1/1/1
f 28/28/28 3/3/3 4/4/4
f 46/46/46 45/45/45 20/20/20
f 45/45/45 19/19/19 20/20/20
f 46/46/46 222/222/222 1/1/1
f 46/46/46 20/20/20 222/222/222
f 222/222/222 221/221/221 1/1/1
f 1/1/1 221/221/221 220/220/220
f 4/4/4 1/1/1 220/220/220
f 20/20/20 223/223/223 222/222/222
f 4/4/4 220/220/220 212/212/212
f 223/223/223 20/20/20 17/17/17
f 20/20/20 19/19/19 17/17/17
f 210/210/210 223/223/223 17/17/17
f 19/19/19 18/18/18 17/17/17
f 27/27/27 4/4/4 212/212/212
f 27/27/27 28/28/28 4/4/4
f 27/27/27 212/212/212 206/206/206
f 29/29/29 28/28/28 27/27/27
f 17/17/17 18/18/18 24/24/24
f 210/210/210 17/17/17 24/24/24
f 211/211/211 210/210/210 24/24/24
f 18/18/18 23/23/23 24/24/24
f 214/214/214 211/211/211 24/24/24
f 24/24/24 23/23/23 21/21/21
f 21/21/21 214/214/214 24/24/24
f 23/23/23 22/22/22 21/21/21
f 21/21/21 25/25/25 214/214/214
f 21/21/21 22/22/22 25/25/25
f 25/25/25 218/218/218 214/214/214
f 22/22/22 26/26/26 25/25/25
f 218/218/218 25/25/25 42/42/42
f 25/25/25 26/26/26 42/42/42
f 219/219/219 218/218/218 42/42/42
f 26/26/26 41/41/41 42/42/42
f 219/219/219 42/42/42 34/34/34
f 42/42/42 41/41/41 34/34/34
f 41/41/41 33/33/33 34/34/34
f 216/216/216 219/219/219 34/34/34
f 34/34/34 33/33/33 32/32/32
f 216/216/216 34/34/34 35/35/35
f 35/35/35 34/34/34 32/32/32
f 217/217/217 216/216/216 35/35/35
f 201/201/201 217/217/217 35/35/35
f 200/200/200 35/35/35 32/32/32
f 200/200/200 201/201/201 35/35/35
f 224/224/224 200/200/200 32/32/32
f 202/202/202 201/201/201 200/200/200
f 44/44/44 200/200/200 224/224/224
f 44/44/44 202/202/202 200/200/200
f 43/43/43 44/44/44 224/224/224
f 208/208/208 202/202/202 44/44/44
f 44/44/44 43/43/43 40/40/40
f 40/40/40 208/208/208 44/44/44
f 43/43/43 39/39/39 40/40/40
f 40/40/40 12/12/12 208/208/208
f 40/40/40 39/39/39 12/12/12
f 12/12/12 9/9/9 208/208/208
f 39/39/39 38/38/38 12/12/12
f 12/12/12 11/11/11 9/9/9
f 12/12/12 38/38/38 11/11/11
f 38/38/38 31/31/31 11/11/11
f 11/11/11 10/10/10 9/9/9
f 31/31/31 15/15/15 11/11/11
f 11/11/11 16/16/16 10/10/10
f 15/15/15 16/16/16 11/11/11
f 16/16/16 209/209/209 10/10/10
f 207/207/207 209/209/209 16/16/16
f 16/16/16 15/15/15 13/13/13
f 13/13/13 207/207/207 16/16/16
f 15/15/15 14/14/14 13/13/13
f 13/13/13 197/197/197 207/207/207
f 13/13/13 14/14/14 197/197/197
f 14/14/14 196/196/196 197/197/197
f 197/197/197 203/203/203 207/207/207
f 197/197/197 196/196/196 192/192/192
f 197/197/197 193/193/193 203/203/203
f 193/193/193 197/197/197 192/192/192
f 193/193/193 204/204/204 203/203/203
f 198/198/198 204/204/204 193/193/193
f 194/194/194 193/193/193 192/192/192
f 194/194/194 198/198/198 193/193/193
f 195/195/195 194/194/194 192/192/192
f 199/199/199 198/198/198 194/194/194
f 194/194/194 195/195/195 47/47/47
f 48/48/48 199/199/199 194/194/194
f 48/48/48 194/194/194 47/47/47
f 48/48/48 8/8/8 199/199/199
f 48/48/48 47/47/47 8/8/8
f 8/8/8 215/215/215 199/199/199
f 47/47/47 7/7/7 8/8/8
f 8/8/8 5/5/5 215/215/215
f 8/8/8 7/7/7 5/5/5
f 5/5/5 213/213/213 215/215/215
f 7/7/7 6/6/6 5/5/5
f 205/205/205 213/213/213 5/5/5
f 5/5/5 6/6/6 37/37/37
f 37/37/37 205/205/205 5/5/5
f 6/6/6 36/36/36 37/37/37
f 37/37/37 30/30/30 205/205/205
f 37/37/37 36/36/36 30/30/30
f 30/30/30 206/206/206 205/205/205
f 36/36/36 29/29/29 30/30/30
f 30/30/30 27/27/27 206/206/206
f 30/30/30 29/29/29 27/27/27
f 51/51/51 50/50/50 49/49/49
f 52/52/52 51/51/51 49/49/49
f 51/51/51 86/86/86 50/50/50
f 52/52/52 49/49/49 83/83/83
f 84/84/84 52/52/52 83/83/83
f 86/86/86 85/85/85 50/50/50
f 86/86/86 92/92/92 85/85/85
f 84/84/84 83/83/83 73/73/73
f 74/74/74 84/84/84 73/73/73
f 92/92/92 91/91/91 85/85/85
f 92/92/92 98/98/98 91/91/91
f 74/74/74 73/73/73 54/54/54
f 55/55/55 74/74/74 54/54/54
f 98/98/98 97/97/97 91/91/91
f 98/98/98 90/90/90 97/97/97
f 55/55/55 54/54/54 53/53/53
f 56/56/56 55/55/55 53/53/53
f 90/90/90 87/87/87 97/97/97
f 90/90/90 89/89/89 87/87/87
f 91/91/91 97/97/97 118/118/118
f 89/89/89 88/88/88 87/87/87
f 89/89/89 96/96/96 88/88/88
f 91/91/91 118/118/118 117/117/117
f 85/85/85 91/91/91 117/117/117
f 97/97/97 119/119/119 118/118/118
f 117/117/117 118/118/118 119/119/119
f 97/97/97 87/87/87 119/119/119
f 85/85/85 117/117/117 121/121/121
f 121/121/121 117/117/117 119/119/119
f 50/50/50 85/85/85 121/121/121
f 87/87/87 120/120/120 119/119/119
f 121/121/121 119/119/119 120/120/120
f 87/87/87 88/88/88 120/120/120
f 50/50/50 121/121/121 122/122/122
f 122/122/122 121/121/121 120/120/120
f 49/49/49 50/50/50 122/122/122
f 88/88/88 134/134/134 120/120/120
f 122/122/122 120/120/120 134/134/134
f 96/96/96 93/93/93 88/88/88
f 88/88/88 93/93/93 134/134/134
f 96/96/96 95/95/95 93/93/93
f 49/49/49 122/122/122 136/136/136
f 136/136/136 122/122/122 134/134/134
f 83/83/83 49/49/49 136/136/136
f 93/93/93 115/115/115 134/134/134
f 136/136/136 134/134/134 115/115/115
f 95/95/95 94/94/94 93/93/93
f 93/93/93 94/94/94 115/115/115
f 95/95/95 60/60/60 94/94/94
f 83/83/83 136/136/136 135/135/135
f 135/135/135 136/136/136 115/115/115
f 73/73/73 83/83/83 135/135/135
f 60/60/60 57/57/57 94/94/94
f 73/73/73 135/135/135 133/133/133
f 135/135/135 115/115/115 133/133/133
f 54/54/54 73/73/73 133/133/133
f 60/60/60 59/59/59 57/57/57
f 94/94/94 116/116/116 115/115/115
f 115/115/115 116/116/116 133/133/133
f 94/94/94 57/57/57 116/116/116
f 54/54/54 133/133/133 126/126/126
f 133/133/133 116/116/116 126/126/126
f 53/53/53 54/54/54 126/126/126
f 57/57/57 123/123/123 116/116/116
f 116/116/116 123/123/123 126/126/126
f 59/59/59 58/58/58 57/57/57
f 57/57/57 58/58/58 123/123/123
f 59/59/59 102/102/102 58/58/58
f 126/126/126 123/123/123 125/125/125
f 53/53/53 126/126/126 125/125/125
f 58/58/58 124/124/124 123/123/123
f 123/123/123 124/124/124 125/125/125
f 102/102/102 101/101/101 58/58/58
f 58/58/58 101/101/101 124/124/124
f 101/101/101 102/102/102 81/81/81
f 99/99/99 53/53/53 125/125/125
f 56/56/56 53/53/53 99/99/99
f 100/100/100 56/56/56 99/99/99
f 125/125/125 124/124/124 110/110/110
f 99/99/99 125/125/125 110/110/110
f 100/100/100 99/99/99 113/113/113
f 113/113/113 99/99/99 110/110/110
f 114/114/114 100/100/100 113/113/113
f 124/124/124 109/109/109 110/110/110
f 101/101/101 109/109/109 124/124/124
f 110/110/110 111/111/111 113/113/113
f 111/111/111 110/110/110 109/109/109
f 113/113/113 107/107/107 114/114/114
f 111/111/111 107/107/107 113/113/113
f 107/107/107 108/108/108 114/114/114
f 108/108/108 107/107/107 105/105/105
f 109/109/109 101/101/101 82/82/82
f 82/82/82 101/101/101 81/81/81
f 107/107/107 106/106/106 105/105/105
f 107/107/107 111/111/111 106/106/106
f 112/112/112 109/109/109 82/82/82
f 112/112/112 111/111/111 109/109/109
f 82/82/82 81/81/81 79/79/79
f 81/81/81 80/80/80 79/79/79
f 80/80/80 104/104/104 79/79/79
f 112/112/112 82/82/82 138/138/138
f 82/82/82 79/79/79 138/138/138
f 111/111/111 112/112/112 139/139/139
f 112/112/112 138/138/138 139/139/139
f 111/111/111 139/139/139 106/106/106
f 138/138/138 79/79/79 137/137/137
f 138/138/138 137/137/137 139/139/139
f 104/104/104 103/103/103 79/79/79
f 79/79/79 103/103/103 137/137/137
f 103/103/103 104/104/104 68/68/68
f 104/104/104 67/67/67 68/68/68
f 137/137/137 103/103/103 132/132/132
f 103/103/103 68/68/68 132/132/132
f 137/137/137 132/132/132 139/139/139
f 68/68/68 67/67/67 65/65/65
f 67/67/67 66/66/66 65/65/65
f 132/132/132 68/68/68 130/130/130
f 68/68/68 65/65/65 130/130/130
f 132/132/132 130/130/130 139/139/139
f 65/65/65 66/66/66 69/69/69
f 66/66/66 70/70/70 69/69/69
f 130/130/130 65/65/65 129/129/129
f 65/65/65 69/69/69 129/129/129
f 130/130/130 129/129/129 139/139/139
f 70/70/70 64/64/64 69/69/69
f 129/129/129 131/131/131 139/139/139
f 129/129/129 69/69/69 131/131/131
f 64/64/64 61/61/61 69/69/69
f 69/69/69 61/61/61 131/131/131
f 64/64/64 63/63/63 61/61/61
f 131/131/131 128/128/128 139/139/139
f 61/61/61 62/62/62 131/131/131
f 62/62/62 128/128/128 131/131/131
f 63/63/63 62/62/62 61/61/61
f 128/128/128 127/127/127 139/139/139
f 128/128/128 62/62/62 127/127/127
f 106/106/106 139/139/139 127/127/127
f 62/62/62 63/63/63 71/71/71
f 62/62/62 71/71/71 127/127/127
f 71/71/71 106/106/106 127/127/127
f 105/105/105 106/106/106 71/71/71
f 63/63/63 72/72/72 71/71/71
f 72/72/72 105/105/105 71/71/71
