# VPXTOOL table OBJ file
# VPXTOOL OBJ file
# numVerts: 190 numFaces: 126
o PinCab_Cabinet
v 974.65106 -290.48215 776.94196
v 974.652 -107.721794 -367.83502
v 974.65106 -360.6425 -353.55606
v 240.47969 2222.9116 7.518259
v -24.548035 2215.1094 -118.19475
v 966.64935 2215.1094 -118.19475
v 231.78345 2249.856 441.6613
v 699.3736 2222.9324 7.859258
v -24.548038 2261.5588 630.24725
v 966.64935 2261.5588 630.24725
v 706.18463 2249.5771 437.18527
v 11.704264 112.46064 -349.02
v 11.704272 10.144422 -361.796
v 11.704264 112.56569 -352.69897
v 11.704265 105.48642 -355.72495
v 11.704272 10.37425 -367.03
v 11.704273 4.113457 -327.445
v 11.704272 10.156899 -327.493
v 11.704272 10.179778 -376.96298
v 11.704273 4.900756 -379.371
v 11.704272 13.503632 -380.74698
v 11.704268 52.09491 -376.5
v 11.704268 59.36241 -374.272
v 11.704268 59.084732 -371.349
v 938.4382 10.144504 -361.796
v 938.4382 112.460724 -349.02
v 938.4382 112.56577 -352.69897
v 938.4382 105.4865 -355.72397
v 938.4382 10.374331 -367.03
v 938.4382 4.113538 -327.445
v 938.4382 10.156981 -327.493
v 938.4382 10.179859 -376.96298
v 938.4382 4.900837 -379.371
v 938.4382 13.503712 -380.74698
v 938.4382 52.09499 -376.5
v 938.4382 59.36249 -374.272
v 938.4382 59.084812 -371.349
v 4.551659 -29.505579 -316.35098
v 4.551659 -29.315254 -325.242
v 4.551656 3.720344 -318.611
v 4.551656 2.93411 -368.559
v 4.551658 -23.02325 -365.534
v 4.551656 -2.571657 -373.09702
v 4.551658 -23.023249 -371.58398
v 4.55166 -39.540527 -364.777
v 4.551662 -59.205887 -364.021
v 4.55166 -41.114044 -373.09702
v 4.551662 -57.632362 -370.828
v 4.551662 -58.727493 -336.675
v 4.551662 -58.571495 -325.242
v 4.551666 -107.97356 -359.48303
v 4.551688 -357.31772 -353.43207
v 4.551666 -108.759796 -368.55902
v 4.551688 -356.53143 -318.64108
v 943.45667 -29.315172 -325.242
v 943.45667 -29.505497 -316.35098
v 943.45575 3.720426 -318.611
v 943.45667 2.934192 -368.559
v 943.45667 -23.023169 -365.533
v 943.45667 -2.571575 -373.09702
v 943.45667 -23.023167 -371.58398
v 943.45667 -39.541485 -364.777
v 943.45667 -59.205807 -364.021
v 943.45667 -41.113964 -373.09702
v 943.45667 -57.632282 -370.828
v 943.45667 -58.727413 -336.675
v 943.45667 -58.57141 -325.242
v 943.45667 -107.97347 -359.48303
v 943.45667 -357.31763 -353.43207
v 943.45667 -108.75971 -368.55902
v 943.45667 -356.53137 -318.64108
v 966.64935 2261.5588 630.24725
v 966.64935 2215.1094 -118.19475
v 974.652 -107.721794 -367.83502
v 974.65106 -290.48215 776.94196
v 938.4382 13.503712 -380.74698
v 938.4382 52.09499 -376.5
v 11.704268 52.09491 -376.5
v 938.4382 59.36249 -374.272
v 11.704268 59.36241 -374.272
v 11.704272 13.503632 -380.74698
v 11.704273 4.900756 -379.371
v 938.4382 4.900837 -379.371
v 11.704273 4.113457 -327.445
v 938.4382 4.113538 -327.445
v 11.704264 112.56569 -352.69897
v 938.4382 112.56577 -352.69897
v 938.4382 112.460724 -349.02
v 11.704264 112.46064 -349.02
v 11.704273 4.113457 -327.445
v 11.704272 10.156899 -327.493
v 938.4382 10.156981 -327.493
v 938.4382 4.113538 -327.445
v 11.704264 112.46064 -349.02
v 938.4382 112.460724 -349.02
v 938.4382 10.144504 -361.796
v 11.704272 10.144422 -361.796
v 974.65106 -290.48215 776.94196
v -28.247581 -290.48224 776.943
v -27.570063 176.95297 750.07404
v -24.548038 2261.5588 630.24725
v 966.64935 2261.5588 630.24725
v 11.704268 59.084732 -371.349
v 938.4382 59.084812 -371.349
v 938.4382 10.179859 -376.96298
v 11.704272 10.179778 -376.96298
v 4.55166 -39.540527 -364.777
v 943.45667 -39.541485 -364.777
v 943.45667 -23.023169 -365.533
v 4.551658 -23.02325 -365.534
v 4.551658 -23.023249 -371.58398
v 943.45667 -23.023167 -371.58398
v 943.45667 -2.571575 -373.09702
v 4.551656 -2.571657 -373.09702
v 4.551658 -23.02325 -365.534
v 943.45667 -23.023169 -365.533
v 943.45667 -23.023167 -371.58398
v 4.551658 -23.023249 -371.58398
v 4.551662 -57.632362 -370.828
v 943.45667 -57.632282 -370.828
v 943.45667 -41.113964 -373.09702
v 4.55166 -41.114044 -373.09702
v 943.45667 -58.57141 -325.242
v 943.45667 -58.727413 -336.675
v 4.551662 -58.727493 -336.675
v 4.551662 -58.571495 -325.242
v 4.551656 3.720344 -318.611
v 943.45575 3.720426 -318.611
v 943.45667 -29.505497 -316.35098
v 4.551659 -29.505579 -316.35098
v 4.55166 -41.114044 -373.09702
v 943.45667 -41.113964 -373.09702
v 943.45667 -39.541485 -364.777
v 4.55166 -39.540527 -364.777
v 4.551666 -107.97356 -359.48303
v 943.45667 -107.97347 -359.48303
v 943.45667 -59.205807 -364.021
v 4.551662 -59.205887 -364.021
v 938.4382 10.374331 -367.03
v 938.4382 105.4865 -355.72397
v 11.704265 105.48642 -355.72495
v 11.704272 10.37425 -367.03
v 938.4382 112.56577 -352.69897
v 11.704264 112.56569 -352.69897
v 4.551666 -108.759796 -368.55902
v 943.45667 -108.75971 -368.55902
v 943.45667 -107.97347 -359.48303
v 4.551666 -107.97356 -359.48303
v -24.548038 2261.5588 630.24725
v -27.570063 176.95297 750.07404
v -28.24855 -107.72292 -367.83502
v -24.548035 2215.1094 -118.19475
v 4.551656 -2.571657 -373.09702
v 943.45667 -2.571575 -373.09702
v 943.45667 2.934192 -368.559
v 4.551656 2.93411 -368.559
v 943.45575 3.720426 -318.611
v 4.551656 3.720344 -318.611
v 11.704272 10.144422 -361.796
v 938.4382 10.144504 -361.796
v 938.4382 10.156981 -327.493
v 11.704272 10.156899 -327.493
v 4.551662 -59.205887 -364.021
v 943.45667 -59.205807 -364.021
v 943.45667 -57.632282 -370.828
v 4.551662 -57.632362 -370.828
v 4.551659 -29.315254 -325.242
v 943.45667 -29.315172 -325.242
v 943.45667 -58.57141 -325.242
v 4.551662 -58.571495 -325.242
v -28.248528 -360.64258 -353.55606
v -28.247581 -290.48224 776.943
v 974.65106 -290.48215 776.94196
v 974.65106 -360.6425 -353.55606
v 11.704272 10.179778 -376.96298
v 938.4382 10.179859 -376.96298
v 938.4382 10.374331 -367.03
v 11.704272 10.37425 -367.03
v -28.248528 -360.64258 -353.55606
v -28.24855 -107.72292 -367.83502
v -27.570063 176.95297 750.07404
v -28.247581 -290.48224 776.943
v 11.704268 59.36241 -374.272
v 938.4382 59.36249 -374.272
v 938.4382 59.084812 -371.349
v 11.704268 59.084732 -371.349
v 4.551659 -29.505579 -316.35098
v 943.45667 -29.505497 -316.35098
v 943.45667 -29.315172 -325.242
v 4.551659 -29.315254 -325.242
vt 0.004352 0.0052790046
vt 0.381817 0.08675599
vt 0.381948 0.00553298
vt 0.399442 0.936159015
vt 0.288422 0.986599028
vt 0.704162 0.9868119955
vt 0.395787 0.76139599
vt 0.592037 0.936048985
vt 0.288176 0.68539602
vt 0.704365 0.68562198
vt 0.594967 0.763268
vt 0.302797 0.58420902
vt 0.34196 0.581838
vt 0.302779 0.58344
vt 0.305501 0.582828
vt 0.341902 0.58074403
vt 0.344065 0.589036
vt 0.341756 0.58900797
vt 0.342034 0.578668
vt 0.344065 0.57818002
vt 0.340786 0.57786697
vt 0.326018 0.578642
vt 0.323229 0.579086
vt 0.323318 0.57969803
vt 0.383245 0.585065
vt 0.344083 0.582694
vt 0.344065 0.583463
vt 0.346786 0.58407497
vt 0.383188 0.58616
vt 0.38535 0.57786697
vt 0.383042 0.577895
vt 0.38332 0.58823502
vt 0.38535 0.588723
vt 0.382072 0.589036
vt 0.367304 0.588261
vt 0.364515 0.587817
vt 0.364604 0.587205
vt 0.5022 0.22788703
vt 0.504934 0.227786
vt 0.502895 0.210222
vt 0.518252 0.21064001
vt 0.517321 0.22444099
vt 0.519647 0.21356702
vt 0.519181 0.22444099
vt 0.517089 0.23322201
vt 0.516856 0.24367702
vt 0.519647 0.23405898
vt 0.518949 0.242841
vt 0.508448 0.24342299
vt 0.504934 0.24334002
vt 0.515461 0.26960397
vt 0.513601 0.40216804
vt 0.518252 0.27002203
vt 0.502904 0.401749
vt 0.504934 0.19265902
vt 0.5022 0.19255799
vt 0.502895 0.210222
vt 0.518252 0.209804
vt 0.517321 0.19600403
vt 0.519647 0.206877
vt 0.519181 0.19600403
vt 0.517089 0.187222
vt 0.516856 0.176768
vt 0.519647 0.18638599
vt 0.518949 0.17760402
vt 0.508448 0.17702198
vt 0.504934 0.17710501
vt 0.515461 0.150841
vt 0.513601 0.01827699
vt 0.518252 0.15042299
vt 0.502904 0.018694997
vt 0.003888 0.824907
vt 0.253874 0.82507497
vt 0.381817 0.08675599
vt 0.004352 0.0052790046
vt 0.302779 0.621898
vt 0.302779 0.62969798
vt 0.687568 0.62969798
vt 0.302779 0.63121402
vt 0.687568 0.63121402
vt 0.687568 0.621898
vt 0.687568 0.620237
vt 0.302779 0.620237
vt 0.687568 0.60938102
vt 0.302779 0.60938102
vt 0.687568 0.577098
vt 0.302779 0.577098
vt 0.302779 0.57786697
vt 0.687568 0.57786697
vt 0.302779 0.589036
vt 0.302779 0.59024602
vt 0.687568 0.59024602
vt 0.687568 0.589036
vt 0.302779 0.651927
vt 0.687568 0.651927
vt 0.687568 0.63121402
vt 0.302779 0.63121402
vt 0.468914 0.77017498
vt 0.468914 0.81191802
vt 0.486849 0.81189
vt 0.566833 0.811764
vt 0.566833 0.77050799
vt 0.302779 0.60938102
vt 0.687568 0.60938102
vt 0.687568 0.59948897
vt 0.302779 0.59948897
vt 0.53552 0.560736
vt 0.53552 0.01827699
vt 0.530635 0.01827699
vt 0.530635 0.560736
vt 0.52571 0.560736
vt 0.52571 0.01827699
vt 0.519647 0.01827699
vt 0.519647 0.560736
vt 0.551123 0.560736
vt 0.551123 0.01827699
vt 0.549265 0.01827699
vt 0.549265 0.560736
vt 0.530635 0.560736
vt 0.530635 0.01827699
vt 0.52571 0.01827699
vt 0.52571 0.560736
vt 0.53552 0.560736
vt 0.539031 0.560736
vt 0.539031 0.01827699
vt 0.53552 0.01827699
vt 0.49356 0.560736
vt 0.49356 0.01827699
vt 0.483716 0.01827699
vt 0.483716 0.560736
vt 0.547155 0.560736
vt 0.547155 0.01827699
vt 0.544564 0.01827699
vt 0.544564 0.560736
vt 0.473038 0.560736
vt 0.473038 0.01827699
vt 0.458554 0.01827699
vt 0.458554 0.560736
vt 0.302779 0.651927
vt 0.302779 0.67117703
vt 0.687568 0.67117703
vt 0.687568 0.651927
vt 0.302779 0.672683
vt 0.687568 0.672683
vt 0.539031 0.01827699
vt 0.539031 0.560736
vt 0.541831 0.560736
vt 0.541831 0.01827699
vt 0.990084 0.82678097
vt 0.989633 0.15713102
vt 0.611985 0.088521
vt 0.740088 0.826985
vt 0.458554 0.560736
vt 0.458554 0.01827699
vt 0.457014 0.01827699
vt 0.457014 0.560736
vt 0.441702 0.01827699
vt 0.441702 0.560736
vt 0.302779 0.59948897
vt 0.687568 0.59948897
vt 0.687568 0.59232098
vt 0.302779 0.59232098
vt 0.549265 0.560736
vt 0.549264 0.01827699
vt 0.547155 0.01827699
vt 0.547155 0.560736
vt 0.49356 0.01827699
vt 0.49356 0.560736
vt 0.5022 0.560736
vt 0.5022 0.01827699
vt 0.423803 0.81191802
vt 0.468914 0.81191802
vt 0.468914 0.77017498
vt 0.423803 0.77017498
vt 0.687568 0.59024602
vt 0.302779 0.59024602
vt 0.302779 0.59232098
vt 0.687568 0.59232098
vt 0.611837 0.0072649717
vt 0.611985 0.088521
vt 0.989633 0.15713102
vt 0.989529 0.0069699883
vt 0.687568 0.576486
vt 0.302779 0.576486
vt 0.302779 0.577098
vt 0.687568 0.577098
vt 0.541831 0.01827699
vt 0.541831 0.560736
vt 0.544564 0.560736
vt 0.544564 0.01827699
vn 1 -0 0
vn 1 -0 0
vn 1 -0 0
vn 0.0452 0.9955 -0.0836
vn -0.0423 0.9907 -0.1296
vn -0 0.9984 -0.0573
vn 0.0245 0.9989 -0.0389
vn -0 0.9984 -0.0573
vn -0.0095 0.9994 -0.0327
vn -0 0.9984 -0.0574
vn -0 0.9984 -0.0573
vn -0.5488 0.5554 0.6248
vn -0.9101 0.2795 0.3058
vn -0.5729 0.7009 -0.4249
vn -0.6581 0.2087 -0.7235
vn -0.8745 0.3667 -0.3175
vn -0.5516 -0.6031 0.5763
vn -0.5531 0.603 0.5749
vn -0.911 0.2825 0.3003
vn -0.5617 -0.6376 -0.5272
vn -0.6609 -0.0198 -0.7502
vn -0.6692 0.1618 -0.7253
vn -0.5622 0.6973 -0.4446
vn -0.5529 0.5365 0.6375
vn 0.9101 0.2795 0.3058
vn 0.5488 0.5554 0.6248
vn 0.5729 0.7008 -0.4251
vn 0.6581 0.2087 -0.7234
vn 0.8745 0.3665 -0.3176
vn 0.5516 -0.6031 0.5763
vn 0.5531 0.603 0.5749
vn 0.911 0.2825 0.3003
vn 0.5617 -0.6376 -0.5272
vn 0.6609 -0.0198 -0.7502
vn 0.6692 0.1618 -0.7253
vn 0.5622 0.6973 -0.4446
vn 0.5529 0.5365 0.6375
vn -0.5485 -0.5881 0.5944
vn -0.8961 -0.3231 0.3044
vn -0.5551 0.6238 0.5503
vn -0.596 0.7319 -0.3302
vn -0.8872 -0.3401 -0.3118
vn -0.612 0.2546 -0.7488
vn -0.5563 -0.6206 -0.5527
vn -0.8771 0.306 -0.3702
vn -0.8518 -0.3546 -0.3855
vn -0.5572 0.498 -0.6645
vn -0.5747 -0.5677 -0.5895
vn -0.9414 -0.3374 0.0042
vn -0.5536 -0.5965 0.5811
vn -0.8959 0.2913 -0.3356
vn -1 -0 0
vn -0.6818 0.7292 -0.0583
vn -1 -0 0
vn 0.8961 -0.3231 0.3044
vn 0.5485 -0.5881 0.5944
vn 0.5551 0.6237 0.5504
vn 0.596 0.732 -0.3301
vn 0.8872 -0.3401 -0.3118
vn 0.6121 0.2545 -0.7487
vn 0.5563 -0.6206 -0.5527
vn 0.8771 0.306 -0.3701
vn 0.8518 -0.3546 -0.3855
vn 0.5572 0.498 -0.6645
vn 0.5747 -0.5677 -0.5895
vn 0.9414 -0.3374 0.0042
vn 0.5535 -0.5965 0.5812
vn 0.8959 0.2913 -0.3356
vn 1 -0 0
vn 0.6818 0.7292 -0.0583
vn 1 -0 0
vn 1 0.004 -0
vn 1 0.004 -0.0002
vn 1 0.0038 0.0004
vn 1 0.0041 0.0005
vn 0.6609 -0.0199 -0.7502
vn 0.6691 0.1618 -0.7253
vn -0.6692 0.1617 -0.7253
vn 0.5621 0.6974 -0.4446
vn -0.5621 0.6974 -0.4446
vn -0.6609 -0.0197 -0.7502
vn -0.5616 -0.6377 -0.5271
vn 0.5617 -0.6376 -0.5272
vn -0.5515 -0.6031 0.5762
vn 0.5515 -0.6031 0.5762
vn -0.573 0.7008 -0.4249
vn 0.573 0.7008 -0.4249
vn 0.5489 0.5553 0.6248
vn -0.5489 0.5553 0.6248
vn -0.5516 -0.603 0.5763
vn -0.5531 0.603 0.5749
vn 0.5531 0.603 0.5749
vn 0.5516 -0.603 0.5763
vn -0.5489 0.5553 0.6248
vn 0.5489 0.5553 0.6248
vn 0.9102 0.2795 0.3058
vn -0.9102 0.2795 0.3058
vn -0 0.0621 0.9981
vn -0 0.0621 0.9981
vn -0 0.0621 0.9981
vn -0 0.0621 0.9981
vn -0 0.0621 0.9981
vn -0.5528 0.5366 0.6375
vn 0.5528 0.5366 0.6375
vn 0.911 0.2825 0.3003
vn -0.911 0.2825 0.3003
vn -0.8771 0.3061 -0.3701
vn 0.8771 0.306 -0.3702
vn 0.8872 -0.3401 -0.3118
vn -0.8872 -0.3402 -0.3118
vn -0.5563 -0.6206 -0.5526
vn 0.5563 -0.6206 -0.5526
vn 0.612 0.2545 -0.7487
vn -0.6119 0.2546 -0.7488
vn -0.8872 -0.3401 -0.3117
vn 0.8872 -0.3401 -0.3117
vn 0.5564 -0.6206 -0.5526
vn -0.5564 -0.6206 -0.5526
vn -0.5747 -0.5676 -0.5895
vn 0.5747 -0.5676 -0.5895
vn 0.5573 0.498 -0.6644
vn -0.5573 0.498 -0.6644
vn 0.5535 -0.5965 0.5812
vn 0.9414 -0.3374 0.0044
vn -0.9414 -0.3374 0.0042
vn -0.5535 -0.5966 0.5811
vn -0.5551 0.6238 0.5503
vn 0.5551 0.6237 0.5503
vn 0.5485 -0.588 0.5944
vn -0.5485 -0.588 0.5944
vn -0.5572 0.498 -0.6645
vn 0.5572 0.498 -0.6644
vn 0.8771 0.3061 -0.3702
vn -0.8771 0.306 -0.3702
vn -0.8958 0.2913 -0.3356
vn 0.8958 0.2913 -0.3356
vn 0.8519 -0.3546 -0.3855
vn -0.8519 -0.3546 -0.3855
vn 0.8745 0.3665 -0.3177
vn 0.658 0.2084 -0.7236
vn -0.6581 0.2087 -0.7235
vn -0.8745 0.3666 -0.3176
vn 0.5729 0.7009 -0.4249
vn -0.573 0.7008 -0.4249
vn -0.6818 0.7292 -0.0584
vn 0.6818 0.7292 -0.0584
vn 0.8959 0.2913 -0.3355
vn -0.8959 0.2913 -0.3355
vn -1 0.002 0
vn -1 0.0015 0.0002
vn -1 0.0015 0.0002
vn -1 0.0016 -0.0001
vn -0.6119 0.2545 -0.7488
vn 0.6121 0.2545 -0.7487
vn 0.596 0.732 -0.3301
vn -0.596 0.7319 -0.3303
vn 0.555 0.6237 0.5504
vn -0.5552 0.6237 0.5503
vn -0.9101 0.2795 0.3059
vn 0.9101 0.2795 0.3059
vn 0.5531 0.603 0.5749
vn -0.5531 0.603 0.5749
vn -0.8518 -0.3546 -0.3855
vn 0.8518 -0.3546 -0.3855
vn 0.5747 -0.5677 -0.5895
vn -0.5747 -0.5677 -0.5895
vn -0.8961 -0.3231 0.3044
vn 0.8961 -0.3231 0.3044
vn 0.5535 -0.5966 0.5811
vn -0.5535 -0.5966 0.5811
vn 0 -0.9984 0.0573
vn 0 -0.9984 0.0573
vn 0 -0.9984 0.0573
vn 0 -0.9984 0.0573
vn -0.9111 0.2825 0.3003
vn 0.9111 0.2825 0.3003
vn 0.8745 0.3666 -0.3176
vn -0.8745 0.3666 -0.3176
vn -1 0.0004 0.0004
vn -1 0.0008 0.0003
vn -1 0.0012 0
vn -1 0.0014 -0.0001
vn -0.5621 0.6975 -0.4446
vn 0.5621 0.6975 -0.4446
vn 0.5529 0.5366 0.6375
vn -0.5529 0.5366 0.6375
vn -0.5485 -0.5881 0.5945
vn 0.5485 -0.5881 0.5945
vn 0.8961 -0.3231 0.3044
vn -0.8961 -0.3231 0.3044
f 3/3/3 2/2/2 1/1/1
f 6/6/6 5/5/5 4/4/4
f 5/5/5 7/7/7 4/4/4
f 8/8/8 6/6/6 4/4/4
f 5/5/5 9/9/9 7/7/7
f 6/6/6 8/8/8 10/10/10
f 11/11/11 7/7/7 9/9/9
f 8/8/8 11/11/11 10/10/10
f 10/10/10 11/11/11 9/9/9
f 14/14/14 13/13/13 12/12/12
f 15/15/15 13/13/13 14/14/14
f 16/16/16 13/13/13 15/15/15
f 17/17/17 13/13/13 16/16/16
f 17/17/17 18/18/18 13/13/13
f 17/17/17 16/16/16 19/19/19
f 17/17/17 19/19/19 20/20/20
f 20/20/20 19/19/19 21/21/21
f 21/21/21 19/19/19 22/22/22
f 22/22/22 19/19/19 23/23/23
f 23/23/23 19/19/19 24/24/24
f 27/27/27 26/26/26 25/25/25
f 28/28/28 27/27/27 25/25/25
f 29/29/29 28/28/28 25/25/25
f 30/30/30 29/29/29 25/25/25
f 30/30/30 25/25/25 31/31/31
f 30/30/30 32/32/32 29/29/29
f 30/30/30 33/33/33 32/32/32
f 33/33/33 34/34/34 32/32/32
f 34/34/34 35/35/35 32/32/32
f 35/35/35 36/36/36 32/32/32
f 36/36/36 37/37/37 32/32/32
f 40/40/40 39/39/39 38/38/38
f 40/40/40 41/41/41 39/39/39
f 41/41/41 42/42/42 39/39/39
f 43/43/43 42/42/42 41/41/41
f 44/44/44 42/42/42 43/43/43
f 39/39/39 42/42/42 45/45/45
f 39/39/39 45/45/45 46/46/46
f 46/46/46 45/45/45 47/47/47
f 48/48/48 46/46/46 47/47/47
f 49/49/49 39/39/39 46/46/46
f 39/39/39 49/49/49 50/50/50
f 49/49/49 46/46/46 51/51/51
f 49/49/49 51/51/51 52/52/52
f 52/52/52 51/51/51 53/53/53
f 49/49/49 52/52/52 54/54/54
f 57/57/57 56/56/56 55/55/55
f 57/57/57 55/55/55 58/58/58
f 55/55/55 59/59/59 58/58/58
f 60/60/60 58/58/58 59/59/59
f 61/61/61 60/60/60 59/59/59
f 55/55/55 62/62/62 59/59/59
f 62/62/62 55/55/55 63/63/63
f 62/62/62 63/63/63 64/64/64
f 63/63/63 65/65/65 64/64/64
f 55/55/55 66/66/66 63/63/63
f 55/55/55 67/67/67 66/66/66
f 66/66/66 68/68/68 63/63/63
f 66/66/66 69/69/69 68/68/68
f 69/69/69 70/70/70 68/68/68
f 66/66/66 71/71/71 69/69/69
f 74/74/74 73/73/73 72/72/72
f 75/75/75 74/74/74 72/72/72
f 78/78/78 77/77/77 76/76/76
f 79/79/79 77/77/77 78/78/78
f 80/80/80 79/79/79 78/78/78
f 81/81/81 78/78/78 76/76/76
f 81/81/81 76/76/76 82/82/82
f 76/76/76 83/83/83 82/82/82
f 82/82/82 83/83/83 84/84/84
f 83/83/83 85/85/85 84/84/84
f 88/88/88 87/87/87 86/86/86
f 89/89/89 88/88/88 86/86/86
f 92/92/92 91/91/91 90/90/90
f 93/93/93 92/92/92 90/90/90
f 96/96/96 95/95/95 94/94/94
f 97/97/97 96/96/96 94/94/94
f 100/100/100 99/99/99 98/98/98
f 100/100/100 98/98/98 101/101/101
f 98/98/98 102/102/102 101/101/101
f 105/105/105 104/104/104 103/103/103
f 106/106/106 105/105/105 103/103/103
f 109/109/109 108/108/108 107/107/107
f 110/110/110 109/109/109 107/107/107
f 113/113/113 112/112/112 111/111/111
f 114/114/114 113/113/113 111/111/111
f 117/117/117 116/116/116 115/115/115
f 118/118/118 117/117/117 115/115/115
f 121/121/121 120/120/120 119/119/119
f 122/122/122 121/121/121 119/119/119
f 125/125/125 124/124/124 123/123/123
f 126/126/126 125/125/125 123/123/123
f 129/129/129 128/128/128 127/127/127
f 130/130/130 129/129/129 127/127/127
f 133/133/133 132/132/132 131/131/131
f 134/134/134 133/133/133 131/131/131
f 137/137/137 136/136/136 135/135/135
f 138/138/138 137/137/137 135/135/135
f 141/141/141 140/140/140 139/139/139
f 142/142/142 141/141/141 139/139/139
f 143/143/143 140/140/140 141/141/141
f 144/144/144 143/143/143 141/141/141
f 147/147/147 146/146/146 145/145/145
f 148/148/148 147/147/147 145/145/145
f 151/151/151 150/150/150 149/149/149
f 152/152/152 151/151/151 149/149/149
f 155/155/155 154/154/154 153/153/153
f 156/156/156 155/155/155 153/153/153
f 157/157/157 155/155/155 156/156/156
f 158/158/158 157/157/157 156/156/156
f 161/161/161 160/160/160 159/159/159
f 162/162/162 161/161/161 159/159/159
f 165/165/165 164/164/164 163/163/163
f 166/166/166 165/165/165 163/163/163
f 169/169/169 168/168/168 167/167/167
f 170/170/170 169/169/169 167/167/167
f 173/173/173 172/172/172 171/171/171
f 174/174/174 173/173/173 171/171/171
f 177/177/177 176/176/176 175/175/175
f 178/178/178 177/177/177 175/175/175
f 181/181/181 180/180/180 179/179/179
f 182/182/182 181/181/181 179/179/179
f 185/185/185 184/184/184 183/183/183
f 186/186/186 185/185/185 183/183/183
f 189/189/189 188/188/188 187/187/187
f 190/190/190 189/189/189 187/187/187
