# VPXTOOL table OBJ file
# VPXTOOL OBJ file
# numVerts: 166 numFaces: 96
o p07off
v 0.02864 -0.084016 -0.073569
v 0.02864 -0.072903 -0.073569
v -0.044904 -0.072903 -0.073569
v -0.044904 -0.084016 -0.073569
v -0.044904 -0.084016 -0.03233
v -0.044904 -0.072903 -0.03233
v 0.02864 -0.072903 -0.03233
v 0.02864 -0.084016 -0.03233
v -0.028751 -0.084016 -0.089721
v -0.028751 -0.072903 -0.089721
v -0.028751 -0.072903 -0.016177
v -0.028751 -0.084016 -0.016177
v 0.012488 -0.084016 -0.016177
v 0.012488 -0.072903 -0.016177
v 0.012488 -0.072903 -0.089721
v 0.012488 -0.084016 -0.089721
v 0.040651 -0.001852 0.031257
v 0.040651 -0.001852 0.162485
v 0.040651 -0.045852 0.162485
v 0.040651 -0.045852 0.031257
v -0.027186 -0.001852 -0.178237
v -0.017161 -0.001852 -0.188587
v -0.017161 -0.045852 -0.188587
v -0.027186 -0.045852 -0.178237
v 0.072015 -0.001852 -0.000982
v 0.072015 -0.045852 -0.000982
v 0.086437 -0.045852 -0.004578
v 0.086437 -0.001852 -0.004578
v -0.051412 -0.001852 0.006884
v -0.072015 -0.001852 -0.000982
v -0.072015 -0.045852 -0.000982
v -0.051412 -0.045852 0.006884
v -0.051412 -0.001852 0.006884
v -0.051412 -0.045852 0.006884
v -0.042637 -0.045852 0.018843
v -0.042637 -0.001852 0.018843
v -0.02136 -0.001852 0.190044
v -0.02136 -0.045852 0.190044
v -0.004347 -0.045852 0.192985
v -0.004347 -0.001852 0.192985
v 0.034403 -0.001852 0.178707
v 0.034403 -0.045852 0.178707
v 0.040651 -0.045852 0.162485
v 0.040651 -0.001852 0.162485
v -0.003625 -0.001852 -0.193603
v -0.003625 -0.045852 -0.193603
v -0.017161 -0.045852 -0.188587
v -0.017161 -0.001852 -0.188587
v 0.027186 -0.001852 -0.178237
v 0.027186 -0.045852 -0.178237
v 0.017161 -0.045852 -0.188587
v 0.017161 -0.001852 -0.188587
v 0.02136 -0.001852 0.190044
v 0.02136 -0.045852 0.190044
v 0.034403 -0.045852 0.178707
v 0.034403 -0.001852 0.178707
v 0.02136 -0.001852 0.190044
v 0.004347 -0.001852 0.192985
v 0.004347 -0.045852 0.192985
v 0.02136 -0.045852 0.190044
v -0.02136 -0.001852 0.190044
v -0.034403 -0.001852 0.178707
v -0.034403 -0.045852 0.178707
v -0.02136 -0.045852 0.190044
v 0.003625 -0.001852 -0.193603
v 0.017161 -0.001852 -0.188587
v 0.017161 -0.045852 -0.188587
v 0.003625 -0.045852 -0.193603
v 0.102553 -0.001852 -0.042442
v 0.102553 -0.045852 -0.042442
v 0.027186 -0.045852 -0.178237
v 0.027186 -0.001852 -0.178237
v -0.027186 -0.001852 -0.178237
v -0.027186 -0.045852 -0.178237
v -0.102553 -0.045852 -0.042442
v -0.102553 -0.001852 -0.042442
v -0.072015 -0.001852 -0.000982
v -0.086437 -0.001852 -0.004578
v -0.086437 -0.045852 -0.004578
v -0.072015 -0.045852 -0.000982
v 0.10375 -0.001852 -0.027708
v 0.10375 -0.045852 -0.027708
v 0.102553 -0.045852 -0.042442
v 0.102553 -0.001852 -0.042442
v -0.040651 -0.001852 0.031257
v -0.042637 -0.001852 0.018843
v -0.042637 -0.045852 0.018843
v -0.040651 -0.045852 0.031257
v -0.004347 -0.001852 0.192985
v -0.004347 -0.045852 0.192985
v 0.004347 -0.045852 0.192985
v 0.004347 -0.001852 0.192985
v -0.10375 -0.001852 -0.027708
v -0.102553 -0.001852 -0.042442
v -0.102553 -0.045852 -0.042442
v -0.10375 -0.045852 -0.027708
v 0.072015 -0.001852 -0.000982
v 0.051412 -0.001852 0.006884
v 0.051412 -0.045852 0.006884
v 0.072015 -0.045852 -0.000982
v 0.003625 -0.001852 -0.193603
v 0.003625 -0.045852 -0.193603
v -0.003625 -0.045852 -0.193603
v -0.003625 -0.001852 -0.193603
v -0.034403 -0.001852 0.178707
v -0.040651 -0.001852 0.162485
v -0.040651 -0.045852 0.162485
v -0.034403 -0.045852 0.178707
v 0.086437 -0.001852 -0.004578
v 0.086437 -0.045852 -0.004578
v 0.097763 -0.045852 -0.014179
v 0.097763 -0.001852 -0.014179
v 0.042637 -0.001852 0.018843
v 0.040651 -0.001852 0.031257
v 0.040651 -0.045852 0.031257
v 0.042637 -0.045852 0.018843
v 0.097763 -0.001852 -0.014179
v 0.097763 -0.045852 -0.014179
v 0.10375 -0.045852 -0.027708
v 0.10375 -0.001852 -0.027708
v -0.040651 -0.001852 0.031257
v -0.040651 -0.045852 0.031257
v -0.040651 -0.045852 0.162485
v -0.040651 -0.001852 0.162485
v 0.051412 -0.001852 0.006884
v 0.042637 -0.001852 0.018843
v 0.042637 -0.045852 0.018843
v 0.051412 -0.045852 0.006884
v -0.086437 -0.001852 -0.004578
v -0.097763 -0.001852 -0.014179
v -0.097763 -0.045852 -0.014179
v -0.086437 -0.045852 -0.004578
v 0.034403 -0.045852 0.178707
v 0.02136 -0.045852 0.190044
v 0.004347 -0.045852 0.192985
v -0.004347 -0.045852 0.192985
v -0.02136 -0.045852 0.190044
v -0.034403 -0.045852 0.178707
v -0.040651 -0.045852 0.162485
v 0.040651 -0.045852 0.162485
v -0.097763 -0.001852 -0.014179
v -0.10375 -0.001852 -0.027708
v -0.10375 -0.045852 -0.027708
v -0.097763 -0.045852 -0.014179
v -0.042637 -0.045852 0.018843
v -0.051412 -0.045852 0.006884
v -0.072015 -0.045852 -0.000982
v -0.027186 -0.045852 -0.178237
v -0.017161 -0.045852 -0.188587
v -0.003625 -0.045852 -0.193603
v 0.003625 -0.045852 -0.193603
v 0.017161 -0.045852 -0.188587
v 0.027186 -0.045852 -0.178237
v 0.072015 -0.045852 -0.000982
v 0.051412 -0.045852 0.006884
v 0.042637 -0.045852 0.018843
v 0.040651 -0.045852 0.031257
v -0.040651 -0.045852 0.031257
v 0.102553 -0.045852 -0.042442
v 0.10375 -0.045852 -0.027708
v 0.097763 -0.045852 -0.014179
v 0.086437 -0.045852 -0.004578
v -0.086437 -0.045852 -0.004578
v -0.097763 -0.045852 -0.014179
v -0.10375 -0.045852 -0.027708
v -0.102553 -0.045852 -0.042442
vt 0 0
vt 0 0
vt 0 0
vt 0 0
vt 0 0
vt 0 0
vt 0 0
vt 0 0
vt 0 0
vt 0 0
vt 0 0
vt 0 0
vt 0 0
vt 0 0
vt 0 0
vt 0 0
vt 0.694187 0.42534304
vt 0.694187 0.111911
vt 0.680957 0.13835001
vt 0.680957 0.43042898
vt 0.370135 0.92571199
vt 0.418024 0.95043403
vt 0.423609 0.919746995
vt 0.378983 0.89670998
vt 0.84401 0.50234503
vt 0.820573 0.502185
vt 0.884774 0.510189
vt 0.912904 0.510934
vt 0.25441 0.483557
vt 0.155991 0.50234503
vt 0.179427 0.502185
vt 0.271141 0.48467696
vt 0.25441 0.483557
vt 0.271141 0.48467696
vt 0.310204 0.458059
vt 0.296329 0.454993
vt 0.397965 0.046087027
vt 0.404917 0.07701099
vt 0.48065 0.07046497
vt 0.479235 0.039062023
vt 0.664342 0.073163986
vt 0.653145 0.102243006
vt 0.680957 0.13835001
vt 0.694187 0.111911
vt 0.482684 0.962413013
vt 0.483864 0.930911005
vt 0.423609 0.919746995
vt 0.418024 0.95043403
vt 0.629865 0.92571199
vt 0.621017 0.89670998
vt 0.576391 0.919746995
vt 0.581976 0.95043403
vt 0.602035 0.046087027
vt 0.595083 0.07701099
vt 0.653145 0.102243006
vt 0.664342 0.073163986
vt 0.602035 0.046087027
vt 0.520765 0.039062023
vt 0.51935 0.07046497
vt 0.595083 0.07701099
vt 0.397965 0.046087027
vt 0.335658 0.073163986
vt 0.346855 0.102243006
vt 0.404917 0.07701099
vt 0.517316 0.962413013
vt 0.581976 0.95043403
vt 0.576391 0.919746995
vt 0.516136 0.930911005
vt 0.98989 0.601371
vt 0.956515 0.59446502
vt 0.621017 0.89670998
vt 0.629865 0.92571199
vt 0.370135 0.92571199
vt 0.378983 0.89670998
vt 0.043485 0.59446502
vt 0.01011 0.601371
vt 0.155991 0.50234503
vt 0.087096 0.510934
vt 0.115226 0.510189
vt 0.179427 0.502185
vt 0.995606 0.56618
vt 0.961842 0.56167102
vt 0.956515 0.59446502
vt 0.98989 0.601371
vt 0.305813 0.42534304
vt 0.296329 0.454993
vt 0.310204 0.458059
vt 0.319043 0.43042898
vt 0.479235 0.039062023
vt 0.48065 0.07046497
vt 0.51935 0.07046497
vt 0.520765 0.039062023
vt 0.004394 0.56618
vt 0.01011 0.601371
vt 0.043485 0.59446502
vt 0.038158 0.56167102
vt 0.84401 0.50234503
vt 0.74559 0.483557
vt 0.728859 0.48467696
vt 0.820573 0.502185
vt 0.517316 0.962413013
vt 0.516136 0.930911005
vt 0.483864 0.930911005
vt 0.482684 0.962413013
vt 0.335658 0.073163986
vt 0.305813 0.111911
vt 0.319043 0.13835001
vt 0.346855 0.102243006
vt 0.912904 0.510934
vt 0.884774 0.510189
vt 0.935189 0.53155798
vt 0.967005 0.533866
vt 0.703671 0.454993
vt 0.694187 0.42534304
vt 0.680957 0.43042898
vt 0.689796 0.458059
vt 0.967005 0.533866
vt 0.935189 0.53155798
vt 0.961842 0.56167102
vt 0.995606 0.56618
vt 0.305813 0.42534304
vt 0.319043 0.43042898
vt 0.319043 0.13835001
vt 0.305813 0.111911
vt 0.74559 0.483557
vt 0.703671 0.454993
vt 0.689796 0.458059
vt 0.728859 0.48467696
vt 0.087096 0.510934
vt 0.032995 0.533866
vt 0.064811 0.53155798
vt 0.115226 0.510189
vt 0.653145 0.102243006
vt 0.595083 0.07701099
vt 0.51935 0.07046497
vt 0.48065 0.07046497
vt 0.404917 0.07701099
vt 0.346855 0.102243006
vt 0.319043 0.13835001
vt 0.680957 0.13835001
vt 0.032995 0.533866
vt 0.004394 0.56618
vt 0.038158 0.56167102
vt 0.064811 0.53155798
vt 0.310204 0.458059
vt 0.271141 0.48467696
vt 0.179427 0.502185
vt 0.378983 0.89670998
vt 0.423609 0.919746995
vt 0.483864 0.930911005
vt 0.516136 0.930911005
vt 0.576391 0.919746995
vt 0.621017 0.89670998
vt 0.820573 0.502185
vt 0.728859 0.48467696
vt 0.689796 0.458059
vt 0.680957 0.43042898
vt 0.319043 0.43042898
vt 0.956515 0.59446502
vt 0.961842 0.56167102
vt 0.935189 0.53155798
vt 0.884774 0.510189
vt 0.115226 0.510189
vt 0.064811 0.53155798
vt 0.038158 0.56167102
vt 0.043485 0.59446502
vn -0 -0 -1
vn -0 -0 -1
vn -0 -0 -1
vn -0 -0 -1
vn 0 0 1
vn 0 0 1
vn 0 0 1
vn 0 0 1
vn -1 0 0
vn -1 0 0
vn -1 0 0
vn -1 0 0
vn 1 0 0
vn 1 0 0
vn 1 0 0
vn 1 0 0
vn -1 0 0
vn -1 0 0
vn -1 0 0
vn -1 0 0
vn 0.7183 0 0.6957
vn 0.7183 0 0.6957
vn 0.7183 0 0.6957
vn 0.7183 0 0.6957
vn -0.2419 0 -0.9703
vn -0.2419 0 -0.9703
vn -0.2419 0 -0.9703
vn -0.2419 0 -0.9703
vn 0.3567 0 -0.9342
vn 0.3567 0 -0.9342
vn 0.3567 0 -0.9342
vn 0.3567 0 -0.9342
vn 0.8062 0 -0.5916
vn 0.8062 0 -0.5916
vn 0.8062 0 -0.5916
vn 0.8062 0 -0.5916
vn 0.1704 0 -0.9854
vn 0.1704 0 -0.9854
vn 0.1704 0 -0.9854
vn 0.1704 0 -0.9854
vn -0.9332 0 -0.3594
vn -0.9332 0 -0.3594
vn -0.9332 0 -0.3594
vn -0.9332 0 -0.3594
vn 0.3475 0 0.9377
vn 0.3475 0 0.9377
vn 0.3475 0 0.9377
vn 0.3475 0 0.9377
vn -0.7183 0 0.6957
vn -0.7183 0 0.6957
vn -0.7183 0 0.6957
vn -0.7183 0 0.6957
vn -0.656 0 -0.7548
vn -0.656 0 -0.7548
vn -0.656 0 -0.7548
vn -0.656 0 -0.7548
vn -0.1704 0 -0.9854
vn -0.1704 0 -0.9854
vn -0.1704 0 -0.9854
vn -0.1704 0 -0.9854
vn 0.656 0 -0.7548
vn 0.656 0 -0.7548
vn 0.656 0 -0.7548
vn 0.656 0 -0.7548
vn -0.3475 0 0.9377
vn -0.3475 0 0.9377
vn -0.3475 0 0.9377
vn -0.3475 0 0.9377
vn -0.8744 0 0.4853
vn -0.8744 0 0.4853
vn -0.8744 0 0.4853
vn -0.8744 0 0.4853
vn 0.8744 0 0.4853
vn 0.8744 0 0.4853
vn 0.8744 0 0.4853
vn 0.8744 0 0.4853
vn 0.2419 0 -0.9703
vn 0.2419 0 -0.9703
vn 0.2419 0 -0.9703
vn 0.2419 0 -0.9703
vn -0.9967 0 0.081
vn -0.9967 0 0.081
vn -0.9967 0 0.081
vn -0.9967 0 0.081
vn 0.9874 0 -0.1579
vn 0.9874 0 -0.1579
vn 0.9874 0 -0.1579
vn 0.9874 0 -0.1579
vn -0 -0 -1
vn -0 -0 -1
vn -0 -0 -1
vn -0 -0 -1
vn 0.9967 0 0.081
vn 0.9967 0 0.081
vn 0.9967 0 0.081
vn 0.9967 0 0.081
vn -0.3567 0 -0.9342
vn -0.3567 0 -0.9342
vn -0.3567 0 -0.9342
vn -0.3567 0 -0.9342
vn 0 0 1
vn 0 0 1
vn 0 0 1
vn 0 0 1
vn 0.9332 0 -0.3594
vn 0.9332 0 -0.3594
vn 0.9332 0 -0.3594
vn 0.9332 0 -0.3594
vn -0.6466 0 -0.7628
vn -0.6466 0 -0.7628
vn -0.6466 0 -0.7628
vn -0.6466 0 -0.7628
vn -0.9874 0 -0.1579
vn -0.9874 0 -0.1579
vn -0.9874 0 -0.1579
vn -0.9874 0 -0.1579
vn -0.9145 0 -0.4047
vn -0.9145 0 -0.4047
vn -0.9145 0 -0.4047
vn -0.9145 0 -0.4047
vn 1 0 0
vn 1 0 0
vn 1 0 0
vn 1 0 0
vn -0.8062 0 -0.5916
vn -0.8062 0 -0.5916
vn -0.8062 0 -0.5916
vn -0.8062 0 -0.5916
vn 0.6466 0 -0.7628
vn 0.6466 0 -0.7628
vn 0.6466 0 -0.7628
vn 0.6466 0 -0.7628
vn 0 1 0
vn 0 1 0
vn 0 1 0
vn 0 1 0
vn 0 1 0
vn 0 1 0
vn 0 1 0
vn 0 1 0
vn 0.9145 0 -0.4047
vn 0.9145 0 -0.4047
vn 0.9145 0 -0.4047
vn 0.9145 0 -0.4047
vn 0 1 0
vn 0 1 0
vn 0 1 0
vn 0 1 0
vn 0 1 0
vn 0 1 0
vn 0 1 0
vn 0 1 0
vn 0 1 0
vn 0 1 0
vn 0 1 0
vn 0 1 0
vn 0 1 0
vn 0 1 0
vn 0 1 0
vn 0 1 0
vn 0 1 0
vn 0 1 0
vn 0 1 0
vn 0 1 0
vn 0 1 0
vn 0 1 0
f 3/3/3 2/2/2 1/1/1
f 4/4/4 3/3/3 1/1/1
f 7/7/7 6/6/6 5/5/5
f 8/8/8 7/7/7 5/5/5
f 11/11/11 10/10/10 9/9/9
f 12/12/12 11/11/11 9/9/9
f 15/15/15 14/14/14 13/13/13
f 16/16/16 15/15/15 13/13/13
f 19/19/19 18/18/18 17/17/17
f 20/20/20 19/19/19 17/17/17
f 23/23/23 22/22/22 21/21/21
f 24/24/24 23/23/23 21/21/21
f 27/27/27 26/26/26 25/25/25
f 28/28/28 27/27/27 25/25/25
f 31/31/31 30/30/30 29/29/29
f 32/32/32 31/31/31 29/29/29
f 35/35/35 34/34/34 33/33/33
f 36/36/36 35/35/35 33/33/33
f 39/39/39 38/38/38 37/37/37
f 40/40/40 39/39/39 37/37/37
f 43/43/43 42/42/42 41/41/41
f 44/44/44 43/43/43 41/41/41
f 47/47/47 46/46/46 45/45/45
f 48/48/48 47/47/47 45/45/45
f 51/51/51 50/50/50 49/49/49
f 52/52/52 51/51/51 49/49/49
f 55/55/55 54/54/54 53/53/53
f 56/56/56 55/55/55 53/53/53
f 59/59/59 58/58/58 57/57/57
f 60/60/60 59/59/59 57/57/57
f 63/63/63 62/62/62 61/61/61
f 64/64/64 63/63/63 61/61/61
f 67/67/67 66/66/66 65/65/65
f 68/68/68 67/67/67 65/65/65
f 71/71/71 70/70/70 69/69/69
f 72/72/72 71/71/71 69/69/69
f 75/75/75 74/74/74 73/73/73
f 76/76/76 75/75/75 73/73/73
f 79/79/79 78/78/78 77/77/77
f 80/80/80 79/79/79 77/77/77
f 83/83/83 82/82/82 81/81/81
f 84/84/84 83/83/83 81/81/81
f 87/87/87 86/86/86 85/85/85
f 88/88/88 87/87/87 85/85/85
f 91/91/91 90/90/90 89/89/89
f 92/92/92 91/91/91 89/89/89
f 95/95/95 94/94/94 93/93/93
f 96/96/96 95/95/95 93/93/93
f 99/99/99 98/98/98 97/97/97
f 100/100/100 99/99/99 97/97/97
f 103/103/103 102/102/102 101/101/101
f 104/104/104 103/103/103 101/101/101
f 107/107/107 106/106/106 105/105/105
f 108/108/108 107/107/107 105/105/105
f 111/111/111 110/110/110 109/109/109
f 112/112/112 111/111/111 109/109/109
f 115/115/115 114/114/114 113/113/113
f 116/116/116 115/115/115 113/113/113
f 119/119/119 118/118/118 117/117/117
f 120/120/120 119/119/119 117/117/117
f 123/123/123 122/122/122 121/121/121
f 124/124/124 123/123/123 121/121/121
f 127/127/127 126/126/126 125/125/125
f 128/128/128 127/127/127 125/125/125
f 131/131/131 130/130/130 129/129/129
f 132/132/132 131/131/131 129/129/129
f 135/135/135 134/134/134 133/133/133
f 136/136/136 135/135/135 133/133/133
f 137/137/137 136/136/136 133/133/133
f 138/138/138 137/137/137 133/133/133
f 139/139/139 138/138/138 133/133/133
f 140/140/140 139/139/139 133/133/133
f 139/139/139 140/140/140 158/158/158
f 140/140/140 157/157/157 158/158/158
f 158/158/158 157/157/157 145/145/145
f 157/157/157 156/156/156 145/145/145
f 156/156/156 155/155/155 145/145/145
f 155/155/155 154/154/154 145/145/145
f 147/147/147 146/146/146 145/145/145
f 154/154/154 153/153/153 145/145/145
f 153/153/153 154/154/154 159/159/159
f 154/154/154 162/162/162 159/159/159
f 162/162/162 161/161/161 159/159/159
f 161/161/161 160/160/160 159/159/159
f 153/153/153 152/152/152 145/145/145
f 152/152/152 151/151/151 145/145/145
f 151/151/151 150/150/150 145/145/145
f 150/150/150 149/149/149 145/145/145
f 149/149/149 148/148/148 145/145/145
f 148/148/148 147/147/147 145/145/145
f 147/147/147 148/148/148 163/163/163
f 148/148/148 166/166/166 163/163/163
f 166/166/166 165/165/165 163/163/163
f 165/165/165 164/164/164 163/163/163
f 143/143/143 142/142/142 141/141/141
f 144/144/144 143/143/143 141/141/141
