# VPXTOOL table OBJ file
# VPXTOOL OBJ file
# numVerts: 91 numFaces: 51
o p_L26_
v 0.162218 -0.005877 0.075634
v 0.128067 -0.005877 0.093394
v 0.128067 -0.048827 0.093395
v 0.162228 -0.048768 0.075643
v -0.107853 -0.048761 -0.221134
v -0.107848 -0.005877 -0.221117
v -0.088329 -0.005877 -0.221063
v -0.088326 -0.048768 -0.221076
v -0.124733 -0.048768 -0.211318
v -0.124724 -0.005877 -0.211308
v -0.107848 -0.005877 -0.221117
v -0.107853 -0.048761 -0.221134
v -0.088329 -0.005877 -0.221063
v -0.05587 -0.005877 -0.200369
v -0.05587 -0.048827 -0.20037
v -0.088326 -0.048768 -0.221076
v -0.154901 -0.048827 0.169213
v -0.154901 -0.005877 0.169212
v -0.193353 -0.005877 0.170906
v -0.193357 -0.048768 0.170918
v -0.218303 -0.048827 0.105811
v -0.218302 -0.005877 0.105811
v -0.142484 -0.005877 -0.177157
v -0.142485 -0.048827 -0.177157
v -0.193357 -0.048768 0.170918
v -0.193353 -0.005877 0.170906
v -0.210284 -0.005877 0.161194
v -0.210297 -0.048761 0.161207
v -0.05587 -0.048827 -0.20037
v -0.05587 -0.005877 -0.200369
v 0.151279 -0.005877 0.006781
v 0.15128 -0.048827 0.00678
v -0.218302 -0.005877 0.105811
v -0.218303 -0.048827 0.105811
v -0.220008 -0.048768 0.144268
v -0.219995 -0.005877 0.144264
v -0.210297 -0.048761 0.161207
v -0.210284 -0.005877 0.161194
v -0.219995 -0.005877 0.144264
v -0.220008 -0.048768 0.144268
v 0.128067 -0.005877 0.093394
v -0.154901 -0.005877 0.169212
v -0.154901 -0.048827 0.169213
v 0.128067 -0.048827 0.093395
v 0.171986 -0.048768 0.039236
v 0.171973 -0.005877 0.039239
v 0.172027 -0.005877 0.058758
v 0.172044 -0.048761 0.058763
v 0.15128 -0.048827 0.00678
v 0.151279 -0.005877 0.006781
v 0.171973 -0.005877 0.039239
v 0.171986 -0.048768 0.039236
v 0.172044 -0.048761 0.058763
v 0.172027 -0.005877 0.058758
v 0.162218 -0.005877 0.075634
v 0.162228 -0.048768 0.075643
v -0.086951 -0.092786 0.085128
v -0.086951 -0.092786 0.028556
v -0.086951 -0.106929 0.028556
v -0.086951 -0.106929 0.085128
v -0.086951 -0.092786 0.028556
v -0.030378 -0.092786 0.028556
v -0.030378 -0.106929 0.028556
v -0.086951 -0.106929 0.028556
v -0.030378 -0.092786 0.028556
v -0.030378 -0.092786 0.085128
v -0.030378 -0.106929 0.085128
v -0.030378 -0.106929 0.028556
v -0.030378 -0.092786 0.085128
v -0.086951 -0.092786 0.085128
v -0.086951 -0.106929 0.085128
v -0.030378 -0.106929 0.085128
v -0.142485 -0.048827 -0.177157
v -0.124733 -0.048768 -0.211318
v -0.107853 -0.048761 -0.221134
v -0.088326 -0.048768 -0.221076
v -0.05587 -0.048827 -0.20037
v 0.15128 -0.048827 0.00678
v 0.171986 -0.048768 0.039236
v 0.172044 -0.048761 0.058763
v 0.162228 -0.048768 0.075643
v 0.128067 -0.048827 0.093395
v -0.154901 -0.048827 0.169213
v -0.193357 -0.048768 0.170918
v -0.210297 -0.048761 0.161207
v -0.220008 -0.048768 0.144268
v -0.218303 -0.048827 0.105811
v -0.142485 -0.048827 -0.177157
v -0.142484 -0.005877 -0.177157
v -0.124724 -0.005877 -0.211308
v -0.124733 -0.048768 -0.211318
vt 0.024811 0.24843901
vt 0.111307 0.20345801
vt 0.14642 0.221968
vt 0.066619 0.26339102
vt 0.697198 0.956305027
vt 0.708816 1.000028014183
vt 0.659379 0.99989300966
vt 0.651605 0.95616299
vt 0.736607 0.933378994
vt 0.751558 0.97518599
vt 0.708816 1.000028014183
vt 0.697198 0.956305027
vt 0.659379 0.99989300966
vt 0.577171 0.947480977
vt 0.575826 0.90776801
vt 0.651605 0.95616299
vt 0.807015 0.04496801
vt 0.827988 0.011430979
vt 0.925377 0.0071430206
vt 0.896829 0.040944993
vt 0.955029 0.19298202
vt 0.988566 0.17200899
vt 0.796539 0.888689995
vt 0.77803 0.85357702
vt 0.896829 0.040944993
vt 0.925377 0.0071430206
vt 0.968258 0.031738997
vt 0.936384 0.063613
vt 0.575826 0.90776801
vt 0.577171 0.947480977
vt 0.052516 0.422826
vt 0.09223 0.42417204
vt 0.988566 0.17200899
vt 0.955029 0.19298202
vt 0.959052 0.10316801
vt 0.992854 0.074618995
vt 0.936384 0.063613
vt 0.968258 0.031738997
vt 0.992854 0.074618995
vt 0.959052 0.10316801
vt 0.111307 0.20345801
vt 0.827988 0.011430979
vt 0.807015 0.04496801
vt 0.14642 0.221968
vt 0.043835 0.34839296
vt 0.000104 0.340618
vt -0.000031 0.29118097
vt 0.043693 0.3028
vt 0.09223 0.42417204
vt 0.052516 0.422826
vt 0.000104 0.340618
vt 0.043835 0.34839296
vt 0.043693 0.3028
vt -0.000031 0.29118097
vt 0.024811 0.24843901
vt 0.066619 0.26339102
vt 0 0
vt 0 0
vt 0 0
vt 0 0
vt 0 0
vt 0 0
vt 0 0
vt 0 0
vt 0 0
vt 0 0
vt 0 0
vt 0 0
vt 0 0
vt 0 0
vt 0 0
vt 0 0
vt 0.77803 0.85357702
vt 0.736607 0.933378994
vt 0.697198 0.956305027
vt 0.651605 0.95616299
vt 0.575826 0.90776801
vt 0.09223 0.42417204
vt 0.043835 0.34839296
vt 0.043693 0.3028
vt 0.066619 0.26339102
vt 0.14642 0.221968
vt 0.807015 0.04496801
vt 0.896829 0.040944993
vt 0.936384 0.063613
vt 0.959052 0.10316801
vt 0.955029 0.19298202
vt 0.77803 0.85357702
vt 0.796539 0.888689995
vt 0.751558 0.97518599
vt 0.736607 0.933378994
vn -0.4612 -0.0002 -0.8873
vn -0.4612 -0.0002 -0.8873
vn -0.4612 -0.0002 -0.8873
vn -0.4612 -0.0002 -0.8873
vn -0.0028 -0.0004 1
vn -0.0028 -0.0004 1
vn -0.0028 -0.0004 1
vn -0.0028 -0.0004 1
vn 0.5026 -0.0004 0.8645
vn 0.5026 -0.0004 0.8645
vn 0.5026 -0.0004 0.8645
vn 0.5026 -0.0004 0.8645
vn -0.5377 -0.0002 0.8431
vn -0.5377 -0.0002 0.8431
vn -0.5377 -0.0002 0.8431
vn -0.5377 -0.0002 0.8431
vn -0.0441 -0.0002 -0.999
vn -0.0441 -0.0002 -0.999
vn -0.0441 -0.0002 -0.999
vn -0.0441 -0.0002 -0.999
vn 0.9659 -0 0.2588
vn 0.9659 -0 0.2588
vn 0.9659 -0 0.2588
vn 0.9659 -0 0.2588
vn 0.4975 -0.0004 -0.8675
vn 0.4975 -0.0004 -0.8675
vn 0.4975 -0.0004 -0.8675
vn 0.4975 -0.0004 -0.8675
vn -0.7071 -0 0.7071
vn -0.7071 -0 0.7071
vn -0.7071 -0 0.7071
vn -0.7071 -0 0.7071
vn 0.999 -0.0002 0.0441
vn 0.999 -0.0002 0.0441
vn 0.999 -0.0002 0.0441
vn 0.999 -0.0002 0.0441
vn 0.8675 -0.0004 -0.4975
vn 0.8675 -0.0004 -0.4975
vn 0.8675 -0.0004 -0.4975
vn 0.8675 -0.0004 -0.4975
vn -0.2588 -0 -0.9659
vn -0.2588 -0 -0.9659
vn -0.2588 -0 -0.9659
vn -0.2588 -0 -0.9659
vn -1 -0.0004 0.0028
vn -1 -0.0004 0.0028
vn -1 -0.0004 0.0028
vn -1 -0.0004 0.0028
vn -0.8431 -0.0002 0.5377
vn -0.8431 -0.0002 0.5377
vn -0.8431 -0.0002 0.5377
vn -0.8431 -0.0002 0.5377
vn -0.8645 -0.0004 -0.5026
vn -0.8645 -0.0004 -0.5026
vn -0.8645 -0.0004 -0.5026
vn -0.8645 -0.0004 -0.5026
vn 1 -0 -0
vn 1 -0 -0
vn 1 -0 -0
vn 1 -0 -0
vn 0 -0 1
vn 0 -0 1
vn 0 -0 1
vn 0 -0 1
vn -1 0 0
vn -1 0 0
vn -1 0 0
vn -1 0 0
vn -0 0 -1
vn -0 0 -1
vn -0 0 -1
vn -0 0 -1
vn 0 1 -0
vn 0 1 -0
vn 0 1 -0
vn 0 1 -0
vn 0 1 -0
vn 0 1 -0
vn 0 1 -0
vn 0 1 -0
vn 0 1 -0
vn 0 1 -0
vn 0 1 -0
vn 0 1 -0
vn 0 1 -0
vn 0 1 -0
vn 0 1 -0
vn 0.8873 -0.0002 0.4612
vn 0.8873 -0.0002 0.4612
vn 0.8873 -0.0002 0.4612
vn 0.8873 -0.0002 0.4612
f 3/3/3 2/2/2 1/1/1
f 4/4/4 3/3/3 1/1/1
f 7/7/7 6/6/6 5/5/5
f 8/8/8 7/7/7 5/5/5
f 11/11/11 10/10/10 9/9/9
f 12/12/12 11/11/11 9/9/9
f 15/15/15 14/14/14 13/13/13
f 16/16/16 15/15/15 13/13/13
f 19/19/19 18/18/18 17/17/17
f 20/20/20 19/19/19 17/17/17
f 23/23/23 22/22/22 21/21/21
f 24/24/24 23/23/23 21/21/21
f 27/27/27 26/26/26 25/25/25
f 28/28/28 27/27/27 25/25/25
f 31/31/31 30/30/30 29/29/29
f 32/32/32 31/31/31 29/29/29
f 35/35/35 34/34/34 33/33/33
f 36/36/36 35/35/35 33/33/33
f 39/39/39 38/38/38 37/37/37
f 40/40/40 39/39/39 37/37/37
f 43/43/43 42/42/42 41/41/41
f 44/44/44 43/43/43 41/41/41
f 47/47/47 46/46/46 45/45/45
f 48/48/48 47/47/47 45/45/45
f 51/51/51 50/50/50 49/49/49
f 52/52/52 51/51/51 49/49/49
f 55/55/55 54/54/54 53/53/53
f 56/56/56 55/55/55 53/53/53
f 59/59/59 58/58/58 57/57/57
f 60/60/60 59/59/59 57/57/57
f 63/63/63 62/62/62 61/61/61
f 64/64/64 63/63/63 61/61/61
f 67/67/67 66/66/66 65/65/65
f 68/68/68 67/67/67 65/65/65
f 71/71/71 70/70/70 69/69/69
f 72/72/72 71/71/71 69/69/69
f 75/75/75 74/74/74 73/73/73
f 76/76/76 75/75/75 73/73/73
f 77/77/77 76/76/76 73/73/73
f 78/78/78 77/77/77 73/73/73
f 79/79/79 78/78/78 73/73/73
f 80/80/80 79/79/79 73/73/73
f 81/81/81 80/80/80 73/73/73
f 82/82/82 81/81/81 73/73/73
f 83/83/83 82/82/82 73/73/73
f 84/84/84 83/83/83 73/73/73
f 85/85/85 84/84/84 73/73/73
f 86/86/86 85/85/85 73/73/73
f 87/87/87 86/86/86 73/73/73
f 90/90/90 89/89/89 88/88/88
f 91/91/91 90/90/90 88/88/88
