# VPXTOOL table OBJ file
# VPXTOOL OBJ file
# numVerts: 117 numFaces: 224
o Primitive18
v -0.148 -0.351499 -0.3772
v -0.148 -0.351499 -0.354075
v -0.142957 -0.389804 -0.354075
v -0.142957 -0.389804 -0.3772
v -0.128172 -0.425499 -0.354075
v -0.128172 -0.425499 -0.3772
v -0.104652 -0.456151 -0.354075
v -0.104652 -0.456151 -0.3772
v -0.074 -0.479671 -0.354075
v -0.074 -0.479671 -0.3772
v -0.038305 -0.494456 -0.354075
v -0.038305 -0.494456 -0.3772
v 0 -0.499499 -0.354075
v 0 -0.499499 -0.3772
v 0.038305 -0.494456 -0.354075
v 0.038305 -0.494456 -0.3772
v 0.074 -0.479671 -0.354075
v 0.074 -0.479671 -0.3772
v 0.104652 -0.456151 -0.354075
v 0.104652 -0.456151 -0.3772
v 0.128172 -0.425499 -0.354075
v 0.128172 -0.425499 -0.3772
v 0.142957 -0.389804 -0.354075
v 0.142957 -0.389804 -0.3772
v 0.148 -0.351499 -0.354075
v 0.148 -0.351499 -0.3772
v 0 -0.351499 -0.3772
v 0 -0.351499 -0.354075
v -0.148 -0.314499 -0.354075
v -0.148 -0.314499 -0.3772
v 0.148 -0.314499 -0.3772
v 0.148 -0.314499 -0.354075
v -0.148 0.3145 -0.377199
v 0.148 0.3145 -0.377199
v 0.148 0.3145 -0.354074
v -0.148 0.3145 -0.354074
v 0.148 0.3515 -0.377198
v 0.148 0.3515 -0.354074
v 0.142957 0.389805 -0.354073
v 0.142957 0.389805 -0.377198
v 0.128172 0.4255 -0.354073
v 0.128172 0.4255 -0.377198
v 0.104652 0.456151 -0.354073
v 0.104652 0.456151 -0.377198
v 0.074 0.479671 -0.354073
v 0.074 0.479671 -0.377198
v 0.038305 0.494457 -0.354073
v 0.038305 0.494457 -0.377198
v 0 0.4995 -0.354073
v 0 0.4995 -0.377198
v -0.038305 0.494457 -0.354073
v -0.038305 0.494457 -0.377198
v -0.074 0.479671 -0.354073
v -0.074 0.479671 -0.377198
v -0.104652 0.456151 -0.354073
v -0.104652 0.456151 -0.377198
v -0.128172 0.4255 -0.354073
v -0.128172 0.4255 -0.377198
v -0.142957 0.389805 -0.354073
v -0.142957 0.389805 -0.377198
v -0.148 0.3515 -0.354074
v -0.148 0.3515 -0.377198
v 0 0.3515 -0.377198
v 0 0.3515 -0.354074
v 0.17575 -0.314499 -0.3772
v 0.17575 -0.314499 -0.354075
v 0.17575 0.3145 -0.377199
v 0.17575 0.3145 -0.354074
v 0.198875 -0.314499 -0.3772
v 0.198875 -0.314499 -0.354075
v 0.198875 0.3145 -0.354074
v 0.198875 0.3145 -0.377199
v 0.17575 0.3145 -0.391074
v 0.17575 -0.314499 -0.391075
v 0.198875 -0.314499 -0.391075
v 0.198875 0.3145 -0.391074
v 0.17575 -0.26825 -0.037725
v 0.17575 0.268249 -0.037724
v 0.198875 -0.26825 -0.037725
v 0.198875 0.268249 -0.037724
v 0.17575 -0.257428 -0.011548
v 0.17575 0.257427 -0.011547
v 0.198875 -0.257428 -0.011548
v 0.198875 0.257427 -0.011547
v 0.17575 -0.23125 -0.000725
v 0.17575 0.231249 -0.000724
v 0.198875 -0.23125 -0.000725
v 0.198875 0.231249 -0.000724
v -0.02775 0 -0.377199
v 0 -0.221999 -0.3772
v 0 0 -0.407724
v 0.02775 0 -0.377199
v 0 0.222 -0.377199
v -0.17575 0.3145 -0.377199
v -0.17575 0.3145 -0.354074
v -0.17575 -0.314499 -0.3772
v -0.17575 -0.314499 -0.354075
v -0.198875 0.3145 -0.377199
v -0.198875 0.3145 -0.354074
v -0.198875 -0.314499 -0.354075
v -0.198875 -0.314499 -0.3772
v -0.17575 -0.314499 -0.391075
v -0.17575 0.3145 -0.391074
v -0.198875 0.3145 -0.391074
v -0.198875 -0.314499 -0.391075
v -0.17575 0.268249 -0.037724
v -0.17575 -0.26825 -0.037725
v -0.198875 0.268249 -0.037724
v -0.198875 -0.26825 -0.037725
v -0.17575 0.257427 -0.011547
v -0.17575 -0.257428 -0.011548
v -0.198875 0.257427 -0.011547
v -0.198875 -0.257428 -0.011548
v -0.17575 0.231249 -0.000724
v -0.17575 -0.23125 -0.000725
v -0.198875 0.231249 -0.000724
v -0.198875 -0.23125 -0.000725
vt 0.5 0.5
vt 0.5 0.5
vt 0.5 0.5
vt 0.5 0.5
vt 0.5 0.5
vt 0.5 0.5
vt 0.5 0.5
vt 0.5 0.5
vt 0.5 0.5
vt 0.5 0.5
vt 0.5 0.5
vt 0.5 0.5
vt 0.5 0.5
vt 0.5 0.5
vt 0.5 0.5
vt 0.5 0.5
vt 0.5 0.5
vt 0.5 0.5
vt 0.5 0.5
vt 0.5 0.5
vt 0.5 0.5
vt 0.5 0.5
vt 0.5 0.5
vt 0.5 0.5
vt 0.5 0.5
vt 0.5 0.5
vt 0.5 0.5
vt 0.5 0.5
vt 0.5 0.5
vt 0.5 0.5
vt 0.5 0.5
vt 0.5 0.5
vt 0.5 0.5
vt 0.5 0.5
vt 0.5 0.5
vt 0.5 0.5
vt 0.5 0.5
vt 0.5 0.5
vt 0.5 0.5
vt 0.5 0.5
vt 0.5 0.5
vt 0.5 0.5
vt 0.5 0.5
vt 0.5 0.5
vt 0.5 0.5
vt 0.5 0.5
vt 0.5 0.5
vt 0.5 0.5
vt 0.5 0.5
vt 0.5 0.5
vt 0.5 0.5
vt 0.5 0.5
vt 0.5 0.5
vt 0.5 0.5
vt 0.5 0.5
vt 0.5 0.5
vt 0.5 0.5
vt 0.5 0.5
vt 0.5 0.5
vt 0.5 0.5
vt 0.5 0.5
vt 0.5 0.5
vt 0.5 0.5
vt 0.5 0.5
vt 0.5 0.5
vt 0.5 0.5
vt 0.5 0.5
vt 0.5 0.5
vt 0.5 0.5
vt 0.5 0.5
vt 0.5 0.5
vt 0.5 0.5
vt 0.5 0.5
vt 0.5 0.5
vt 0.5 0.5
vt 0.5 0.5
vt 0.5 0.5
vt 0.5 0.5
vt 0.5 0.5
vt 0.5 0.5
vt 0.5 0.5
vt 0.5 0.5
vt 0.5 0.5
vt 0.5 0.5
vt 0.5 0.5
vt 0.5 0.5
vt 0.5 0.5
vt 0.5 0.5
vt 0.5 0.5
vt 0.5 0.5
vt 0.5 0.5
vt 0.5 0.5
vt 0.5 0.5
vt 0.5 0.5
vt 0.5 0.5
vt 0.5 0.5
vt 0.5 0.5
vt 0.5 0.5
vt 0.5 0.5
vt 0.5 0.5
vt 0.5 0.5
vt 0.5 0.5
vt 0.5 0.5
vt 0.5 0.5
vt 0.5 0.5
vt 0.5 0.5
vt 0.5 0.5
vt 0.5 0.5
vt 0.5 0.5
vt 0.5 0.5
vt 0.5 0.5
vt 0.5 0.5
vt 0.5 0.5
vt 0.5 0.5
vt 0.5 0.5
vt 0.5 0.5
vt 0.5 0.5
vn -0.719687 -0.047151 -0.692648
vn -0.719687 -0.047151 0.692648
vn -0.70922 -0.190039 0.678854
vn -0.70922 -0.190008 -0.678854
vn -0.635853 -0.367107 0.678854
vn -0.635853 -0.367107 -0.678854
vn -0.519181 -0.519181 0.678854
vn -0.519181 -0.519181 -0.678854
vn -0.367107 -0.635884 0.678854
vn -0.367107 -0.635853 -0.678854
vn -0.190039 -0.70922 0.678854
vn -0.190039 -0.70922 -0.678854
vn 0 -0.734245 0.678854
vn 0 -0.734245 -0.678854
vn 0.190039 -0.70922 0.678854
vn 0.190039 -0.70922 -0.678854
vn 0.367107 -0.635884 0.678854
vn 0.367107 -0.635853 -0.678854
vn 0.519181 -0.519181 0.678854
vn 0.519181 -0.519181 -0.678854
vn 0.635853 -0.367107 0.678854
vn 0.635853 -0.367107 -0.678854
vn 0.70922 -0.190039 0.678854
vn 0.70922 -0.190008 -0.678854
vn 0.719687 -0.047151 0.692648
vn 0.719687 -0.047151 -0.692648
vn 0 0 -0.999969
vn 0 0 0.999969
vn -0.301492 -0.301492 0.904508
vn -0.301492 -0.301492 -0.904508
vn 0.301492 -0.301492 -0.904508
vn 0.301492 -0.301492 0.904508
vn -0.301492 0.301492 -0.904508
vn 0.301492 0.301492 -0.904508
vn 0.301492 0.301492 0.904508
vn -0.301492 0.301492 0.904508
vn 0.719687 0.047151 -0.692648
vn 0.719687 0.047151 0.692648
vn 0.70922 0.190008 0.678854
vn 0.70922 0.190039 -0.678854
vn 0.635853 0.367107 0.678854
vn 0.635853 0.367107 -0.678854
vn 0.519181 0.519181 0.678854
vn 0.519181 0.519181 -0.678854
vn 0.367107 0.635853 0.678854
vn 0.367107 0.635884 -0.678854
vn 0.190039 0.70922 0.678854
vn 0.190008 0.70922 -0.678854
vn 0 0.734245 0.678854
vn 0 0.734245 -0.678854
vn -0.190039 0.70922 0.678854
vn -0.190008 0.70922 -0.678854
vn -0.367107 0.635853 0.678854
vn -0.367107 0.635884 -0.678854
vn -0.519181 0.519181 0.678854
vn -0.519181 0.519181 -0.678854
vn -0.635853 0.367107 0.678854
vn -0.635853 0.367107 -0.678854
vn -0.70922 0.190008 0.678854
vn -0.70922 0.190039 -0.678854
vn -0.719687 0.047151 0.692648
vn -0.719687 0.047151 -0.692648
vn 0 0 -1
vn 0 0 1
vn -0.301492 -0.904508 -0.301492
vn -0.272744 -0.898465 0.344005
vn -0.301492 0.904508 -0.301492
vn -0.272744 0.898465 0.344005
vn 0.707083 -0.707083 0
vn 0.691122 -0.720786 0.0524
vn 0.691122 0.720786 0.0524
vn 0.707083 0.707083 0
vn -0.577349 0.577349 -0.577319
vn -0.577349 -0.577349 -0.577349
vn 0.577349 -0.577319 -0.577349
vn 0.577349 0.577349 -0.577349
vn -0.68041 -0.706534 0.194464
vn -0.68041 0.706534 0.194464
vn 0.68041 -0.706534 0.194464
vn 0.68041 0.706534 0.194464
vn -0.630146 -0.549028 0.549028
vn -0.630146 0.549028 0.549028
vn 0.630146 -0.549028 0.549028
vn 0.630146 0.549028 0.549028
vn -0.665761 -0.145299 0.731834
vn -0.665761 0.145299 0.731834
vn 0.665761 -0.145299 0.731834
vn 0.665761 0.145299 0.731834
vn -0.73994 0.000001 -0.672673
vn 0 -0.136216 -0.990679
vn 0 0 -1
vn 0.73994 0.000001 -0.672673
vn 0 0.13622 -0.990678
vn 0.301492 0.904508 -0.301492
vn 0.272744 0.898465 0.344005
vn 0.301492 -0.904508 -0.301492
vn 0.272744 -0.898465 0.344005
vn -0.707083 0.707083 0
vn -0.691122 0.720786 0.0524
vn -0.691122 -0.720786 0.0524
vn -0.707083 -0.707083 0
vn 0.577349 -0.577319 -0.577349
vn 0.577349 0.577349 -0.577349
vn -0.577349 0.577349 -0.577319
vn -0.577349 -0.577349 -0.577349
vn 0.68041 0.706534 0.194464
vn 0.68041 -0.706534 0.194464
vn -0.68041 0.706534 0.194464
vn -0.68041 -0.706534 0.194464
vn 0.630146 0.549028 0.549028
vn 0.630146 -0.549028 0.549028
vn -0.630146 0.549028 0.549028
vn -0.630146 -0.549028 0.549028
vn 0.665761 0.145299 0.731834
vn 0.665761 -0.145299 0.731834
vn -0.665761 0.145299 0.731834
vn -0.665761 -0.145299 0.731834
f 91/91/91 90/90/90 89/89/89
f 89/89/89 93/93/93 91/91/91
f 92/92/92 90/90/90 91/91/91
f 91/91/91 93/93/93 92/92/92
f 3/3/3 2/2/2 1/1/1
f 4/4/4 3/3/3 1/1/1
f 2/2/2 30/30/30 1/1/1
f 5/5/5 3/3/3 4/4/4
f 4/4/4 1/1/1 27/27/27
f 27/27/27 1/1/1 30/30/30
f 4/4/4 6/6/6 5/5/5
f 6/6/6 4/4/4 27/27/27
f 3/3/3 5/5/5 28/28/28
f 2/2/2 3/3/3 28/28/28
f 7/7/7 5/5/5 6/6/6
f 5/5/5 7/7/7 28/28/28
f 6/6/6 8/8/8 7/7/7
f 8/8/8 6/6/6 27/27/27
f 9/9/9 7/7/7 8/8/8
f 7/7/7 9/9/9 28/28/28
f 8/8/8 10/10/10 9/9/9
f 10/10/10 8/8/8 27/27/27
f 11/11/11 9/9/9 10/10/10
f 9/9/9 11/11/11 28/28/28
f 10/10/10 12/12/12 11/11/11
f 12/12/12 10/10/10 27/27/27
f 13/13/13 11/11/11 12/12/12
f 11/11/11 13/13/13 28/28/28
f 12/12/12 14/14/14 13/13/13
f 14/14/14 12/12/12 27/27/27
f 15/15/15 13/13/13 14/14/14
f 13/13/13 15/15/15 28/28/28
f 14/14/14 16/16/16 15/15/15
f 16/16/16 14/14/14 27/27/27
f 17/17/17 15/15/15 16/16/16
f 15/15/15 17/17/17 28/28/28
f 16/16/16 18/18/18 17/17/17
f 18/18/18 16/16/16 27/27/27
f 19/19/19 17/17/17 18/18/18
f 17/17/17 19/19/19 28/28/28
f 18/18/18 20/20/20 19/19/19
f 20/20/20 18/18/18 27/27/27
f 21/21/21 19/19/19 20/20/20
f 19/19/19 21/21/21 28/28/28
f 20/20/20 22/22/22 21/21/21
f 22/22/22 20/20/20 27/27/27
f 23/23/23 21/21/21 22/22/22
f 21/21/21 23/23/23 28/28/28
f 24/24/24 22/22/22 27/27/27
f 22/22/22 24/24/24 23/23/23
f 23/23/23 25/25/25 28/28/28
f 25/25/25 23/23/23 24/24/24
f 26/26/26 24/24/24 27/27/27
f 24/24/24 26/26/26 25/25/25
f 27/27/27 31/31/31 26/26/26
f 27/27/27 30/30/30 31/31/31
f 26/26/26 32/32/32 25/25/25
f 28/28/28 25/25/25 32/32/32
f 32/32/32 26/26/26 31/31/31
f 28/28/28 29/29/29 2/2/2
f 32/32/32 29/29/29 28/28/28
f 30/30/30 2/2/2 29/29/29
f 31/31/31 66/66/66 32/32/32
f 29/29/29 96/96/96 30/30/30
f 68/68/68 32/32/32 66/66/66
f 32/32/32 35/35/35 29/29/29
f 32/32/32 68/68/68 35/35/35
f 31/31/31 30/30/30 33/33/33
f 36/36/36 29/29/29 35/35/35
f 30/30/30 94/94/94 33/33/33
f 94/94/94 30/30/30 96/96/96
f 36/36/36 97/97/97 29/29/29
f 96/96/96 29/29/29 97/97/97
f 33/33/33 34/34/34 31/31/31
f 97/97/97 101/101/101 96/96/96
f 34/34/34 65/65/65 31/31/31
f 66/66/66 31/31/31 65/65/65
f 96/96/96 101/101/101 105/105/105
f 105/105/105 102/102/102 96/96/96
f 96/96/96 102/102/102 94/94/94
f 104/104/104 105/105/105 101/101/101
f 105/105/105 104/104/104 102/102/102
f 104/104/104 103/103/103 102/102/102
f 103/103/103 94/94/94 102/102/102
f 104/104/104 98/98/98 103/103/103
f 101/101/101 98/98/98 104/104/104
f 94/94/94 103/103/103 98/98/98
f 98/98/98 101/101/101 100/100/100
f 101/101/101 97/97/97 100/100/100
f 99/99/99 94/94/94 98/98/98
f 100/100/100 99/99/99 98/98/98
f 94/94/94 99/99/99 95/95/95
f 95/95/95 33/33/33 94/94/94
f 99/99/99 100/100/100 109/109/109
f 33/33/33 95/95/95 36/36/36
f 97/97/97 36/36/36 95/95/95
f 100/100/100 97/97/97 107/107/107
f 107/107/107 109/109/109 100/100/100
f 95/95/95 106/106/106 97/97/97
f 107/107/107 97/97/97 106/106/106
f 95/95/95 99/99/99 108/108/108
f 108/108/108 106/106/106 95/95/95
f 109/109/109 108/108/108 99/99/99
f 107/107/107 106/106/106 110/110/110
f 106/106/106 108/108/108 112/112/112
f 112/112/112 110/110/110 106/106/106
f 108/108/108 109/109/109 113/113/113
f 113/113/113 112/112/112 108/108/108
f 109/109/109 107/107/107 111/111/111
f 111/111/111 113/113/113 109/109/109
f 110/110/110 111/111/111 107/107/107
f 112/112/112 113/113/113 117/117/117
f 111/111/111 110/110/110 114/114/114
f 113/113/113 111/111/111 115/115/115
f 114/114/114 115/115/115 111/111/111
f 115/115/115 117/117/117 113/113/113
f 116/116/116 114/114/114 110/110/110
f 116/116/116 115/115/115 114/114/114
f 110/110/110 112/112/112 116/116/116
f 115/115/115 116/116/116 117/117/117
f 117/117/117 116/116/116 112/112/112
f 36/36/36 62/62/62 33/33/33
f 62/62/62 36/36/36 61/61/61
f 63/63/63 33/33/33 62/62/62
f 63/63/63 34/34/34 33/33/33
f 60/60/60 62/62/62 61/61/61
f 62/62/62 60/60/60 63/63/63
f 64/64/64 61/61/61 36/36/36
f 36/36/36 35/35/35 64/64/64
f 61/61/61 59/59/59 60/60/60
f 59/59/59 61/61/61 64/64/64
f 58/58/58 60/60/60 59/59/59
f 60/60/60 58/58/58 63/63/63
f 59/59/59 57/57/57 58/58/58
f 57/57/57 59/59/59 64/64/64
f 56/56/56 58/58/58 57/57/57
f 58/58/58 56/56/56 63/63/63
f 57/57/57 55/55/55 56/56/56
f 55/55/55 57/57/57 64/64/64
f 54/54/54 56/56/56 55/55/55
f 56/56/56 54/54/54 63/63/63
f 55/55/55 53/53/53 54/54/54
f 53/53/53 55/55/55 64/64/64
f 52/52/52 54/54/54 53/53/53
f 54/54/54 52/52/52 63/63/63
f 53/53/53 51/51/51 52/52/52
f 51/51/51 53/53/53 64/64/64
f 50/50/50 52/52/52 51/51/51
f 52/52/52 50/50/50 63/63/63
f 51/51/51 49/49/49 50/50/50
f 49/49/49 51/51/51 64/64/64
f 48/48/48 50/50/50 49/49/49
f 50/50/50 48/48/48 63/63/63
f 49/49/49 47/47/47 48/48/48
f 47/47/47 49/49/49 64/64/64
f 46/46/46 48/48/48 47/47/47
f 48/48/48 46/46/46 63/63/63
f 47/47/47 45/45/45 46/46/46
f 45/45/45 47/47/47 64/64/64
f 44/44/44 46/46/46 45/45/45
f 46/46/46 44/44/44 63/63/63
f 45/45/45 43/43/43 44/44/44
f 43/43/43 45/45/45 64/64/64
f 44/44/44 42/42/42 63/63/63
f 42/42/42 44/44/44 43/43/43
f 41/41/41 43/43/43 64/64/64
f 43/43/43 41/41/41 42/42/42
f 42/42/42 40/40/40 63/63/63
f 40/40/40 42/42/42 41/41/41
f 40/40/40 37/37/37 63/63/63
f 63/63/63 37/37/37 34/34/34
f 41/41/41 39/39/39 40/40/40
f 37/37/37 40/40/40 39/39/39
f 39/39/39 41/41/41 64/64/64
f 39/39/39 38/38/38 37/37/37
f 38/38/38 39/39/39 64/64/64
f 38/38/38 34/34/34 37/37/37
f 64/64/64 35/35/35 38/38/38
f 34/34/34 38/38/38 35/35/35
f 35/35/35 67/67/67 34/34/34
f 65/65/65 34/34/34 67/67/67
f 67/67/67 35/35/35 68/68/68
f 67/67/67 73/73/73 65/65/65
f 76/76/76 73/73/73 67/67/67
f 74/74/74 65/65/65 73/73/73
f 67/67/67 72/72/72 76/76/76
f 68/68/68 72/72/72 67/67/67
f 76/76/76 75/75/75 73/73/73
f 75/75/75 74/74/74 73/73/73
f 75/75/75 76/76/76 72/72/72
f 75/75/75 69/69/69 74/74/74
f 72/72/72 69/69/69 75/75/75
f 65/65/65 74/74/74 69/69/69
f 69/69/69 72/72/72 71/71/71
f 72/72/72 68/68/68 71/71/71
f 70/70/70 65/65/65 69/69/69
f 71/71/71 70/70/70 69/69/69
f 65/65/65 70/70/70 66/66/66
f 71/71/71 68/68/68 78/78/78
f 66/66/66 77/77/77 68/68/68
f 78/78/78 68/68/68 77/77/77
f 66/66/66 70/70/70 79/79/79
f 79/79/79 77/77/77 66/66/66
f 70/70/70 71/71/71 80/80/80
f 80/80/80 79/79/79 70/70/70
f 78/78/78 80/80/80 71/71/71
f 77/77/77 79/79/79 83/83/83
f 79/79/79 80/80/80 84/84/84
f 84/84/84 83/83/83 79/79/79
f 80/80/80 78/78/78 82/82/82
f 82/82/82 84/84/84 80/80/80
f 78/78/78 77/77/77 81/81/81
f 81/81/81 82/82/82 78/78/78
f 83/83/83 81/81/81 77/77/77
f 84/84/84 82/82/82 86/86/86
f 82/82/82 81/81/81 85/85/85
f 85/85/85 86/86/86 82/82/82
f 87/87/87 85/85/85 81/81/81
f 87/87/87 86/86/86 85/85/85
f 81/81/81 83/83/83 87/87/87
f 86/86/86 88/88/88 84/84/84
f 86/86/86 87/87/87 88/88/88
f 83/83/83 84/84/84 88/88/88
f 88/88/88 87/87/87 83/83/83
