# VPXTOOL table OBJ file
# VPXTOOL OBJ file
# numVerts: 136 numFaces: 178
o playfield_mesh_vis
v 806.17096 2117.6467 -0.00007
v 806.17096 1925.1334 -0.00007
v 952.9409 2117.6467 -0.000083
v 806.17096 1732.6201 -0.00007
v 952.9409 1925.1334 -0.000083
v 806.17096 192.51335 -0.00007
v 806.17096 0 -0.00007
v 952.9409 192.51335 -0.000083
v 806.17096 1540.1068 -0.00007
v 952.9409 1732.6201 -0.000083
v 806.17096 1347.5934 -0.00007
v 952.9409 1540.1068 -0.000083
v 806.17096 1155.0801 -0.00007
v 952.9409 1347.5934 -0.000083
v 806.17096 962.5668 -0.00007
v 952.9409 1155.0801 -0.000083
v 806.17096 770.0534 -0.00007
v 952.9409 962.5668 -0.000083
v 806.17096 577.54004 -0.00007
v 952.9409 770.0534 -0.000083
v 806.17096 385.0267 -0.00007
v 952.9409 577.54004 -0.000083
v 952.9409 385.0267 -0.000083
v 736.3908 326.71237 -0.000064
v 741.3679 327.20258 -0.000065
v 670.3948 385.0267 -0.000059
v 746.34503 276.6688 -0.000065
v 741.3679 276.1786 -0.000065
v 670.3948 577.54004 -0.000059
v 670.3948 770.0534 -0.000059
v 670.3948 962.5668 -0.000059
v 670.3948 1155.0801 -0.000059
v 670.3948 1347.5934 -0.000059
v 670.3948 1540.1068 -0.000059
v 670.3948 1732.6201 -0.000059
v 718.52277 87.84237 -0.000063
v 723.4999 88.33257 -0.000063
v 670.3948 192.51335 -0.000059
v 670.3948 1925.1334 -0.000059
v 670.3948 2117.6467 -0.000059
v 432.78653 2117.6467 -0.000038
v 432.78653 1925.1334 -0.000038
v 432.78653 1732.6201 -0.000038
v 432.78653 192.51335 -0.000038
v 432.78653 0 -0.000038
v 432.78653 1540.1068 -0.000038
v 432.78653 1347.5934 -0.000038
v 432.78653 1155.0801 -0.000038
v 432.78653 962.5668 -0.000038
v 432.78653 770.0534 -0.000038
v 432.78653 577.54004 -0.000038
v 432.78653 385.0267 -0.000038
v 154.86967 385.0267 -0.000014
v 154.86967 192.51335 -0.000014
v 154.86967 577.54004 -0.000014
v 154.86967 770.0534 -0.000014
v 154.86967 962.5668 -0.000014
v 154.86967 1155.0801 -0.000014
v 154.86967 1347.5934 -0.000014
v 154.86967 1540.1068 -0.000014
v 154.86967 1732.6201 -0.000014
v 154.86967 0 -0.000014
v 154.86967 1925.1334 -0.000014
v 154.86967 2117.6467 -0.000014
v 0 2117.6467 0
v 0 1925.1334 0
v 0 1732.6201 0
v 0 192.51335 0
v 0 0 0
v 0 1540.1068 0
v 0 1347.5934 0
v 0 1155.0801 0
v 0 962.5668 0
v 0 770.0534 0
v 0 577.54004 0
v 0 385.0267 0
v 728.477 37.79881 -0.000064
v 723.4999 37.3086 -0.000063
v 670.3948 0 -0.000059
v 952.9409 0 -0.000083
v 751.1309 325.2606 -0.000066
v 755.5416 322.903 -0.000066
v 746.34503 326.71237 -0.000065
v 723.32825 319.7303 -0.000063
v 727.1942 322.903 -0.000064
v 731.6049 325.2606 -0.000064
v 759.4076 319.7303 -0.000066
v 720.15546 315.8643 -0.000063
v 717.7979 311.4536 -0.000063
v 762.5804 315.8643 -0.000067
v 764.9379 311.4536 -0.000067
v 715.85596 301.69058 -0.000063
v 716.3461 306.66772 -0.000063
v 766.3897 306.66772 -0.000067
v 766.8799 301.69058 -0.000067
v 716.3461 296.71344 -0.000063
v 766.3897 296.71344 -0.000067
v 717.7979 291.92755 -0.000063
v 720.15546 287.51688 -0.000063
v 764.9379 291.92755 -0.000067
v 762.5804 287.51688 -0.000067
v 723.32825 283.65088 -0.000063
v 727.1942 280.47815 -0.000064
v 759.4076 283.65088 -0.000066
v 755.5416 280.47815 -0.000066
v 731.6049 278.12057 -0.000064
v 736.3908 276.6688 -0.000064
v 751.1309 278.12057 -0.000066
v 728.477 87.84237 -0.000064
v 748.52167 67.79773 -0.000067
v 747.0699 72.5836 -0.000067
v 744.71234 76.994286 -0.000067
v 749.01184 62.82059 -0.000067
v 698.4781 67.79773 -0.000061
v 697.9879 62.82059 -0.000061
v 741.5396 80.86029 -0.000067
v 699.9299 72.5836 -0.000061
v 702.2874 76.994286 -0.000061
v 737.6736 84.03303 -0.000066
v 733.2629 86.39059 -0.000064
v 705.46014 80.86029 -0.000062
v 709.3262 84.03303 -0.000062
v 713.7369 86.39059 -0.000062
v 698.4781 57.84345 -0.000061
v 699.9299 53.057575 -0.000061
v 748.52167 57.84345 -0.000067
v 747.0699 53.057575 -0.000067
v 702.2874 48.64689 -0.000061
v 705.46014 44.780888 -0.000062
v 744.71234 48.64689 -0.000067
v 741.5396 44.780888 -0.000067
v 709.3262 41.608147 -0.000062
v 713.7369 39.250587 -0.000062
v 737.6736 41.608147 -0.000066
v 733.2629 39.250587 -0.000064
v 718.52277 37.79881 -0.000063
vt 0.845982 0
vt 0.845982 0.090909004
vt 1 0
vt 0.845982 0.18181801
vt 1 0.090909004
vt 0.845982 0.909090996
vt 0.845982 1
vt 1 0.909090996
vt 0.845982 0.272727
vt 1 0.18181801
vt 0.845982 0.36363602
vt 1 0.272727
vt 0.845982 0.45454502
vt 1 0.36363602
vt 0.845982 0.54545498
vt 1 0.45454502
vt 0.845982 0.63636398
vt 1 0.54545498
vt 0.845982 0.727273
vt 1 0.63636398
vt 0.845982 0.81818199
vt 1 0.727273
vt 1 0.81818199
vt 0.772756 0.84571898
vt 0.777979 0.84548801
vt 0.703501 0.81818199
vt 0.783202 0.86935103
vt 0.777979 0.869582
vt 0.703501 0.727273
vt 0.703501 0.63636398
vt 0.703501 0.54545498
vt 0.703501 0.45454502
vt 0.703501 0.36363602
vt 0.703501 0.272727
vt 0.703501 0.18181801
vt 0.754006 0.958518982
vt 0.759228 0.958287
vt 0.703501 0.909090996
vt 0.703501 0.090909004
vt 0.703501 0
vt 0.454159 0
vt 0.454159 0.090909004
vt 0.454159 0.18181801
vt 0.454159 0.909090996
vt 0.454159 1
vt 0.454159 0.272727
vt 0.454159 0.36363602
vt 0.454159 0.45454502
vt 0.454159 0.54545498
vt 0.454159 0.63636398
vt 0.454159 0.727273
vt 0.454159 0.81818199
vt 0.162518 0.81818199
vt 0.162518 0.909090996
vt 0.162518 0.727273
vt 0.162518 0.63636398
vt 0.162518 0.54545498
vt 0.162518 0.45454502
vt 0.162518 0.36363602
vt 0.162518 0.272727
vt 0.162518 0.18181801
vt 0.162518 1
vt 0.162518 0.090909004
vt 0.162518 0
vt 0 0
vt 0 0.090909004
vt 0 0.18181801
vt 0 0.909090996
vt 0 1
vt 0 0.272727
vt 0 0.36363602
vt 0 0.45454502
vt 0 0.54545498
vt 0 0.63636398
vt 0 0.727273
vt 0 0.81818199
vt 0.764451 0.982150018
vt 0.759228 0.982382
vt 0.703501 1
vt 1 1
vt 0.788224 0.84640503
vt 0.792853 0.84751803
vt 0.783202 0.84571898
vt 0.759048 0.84901601
vt 0.763105 0.84751803
vt 0.767734 0.84640503
vt 0.796909 0.84901601
vt 0.755719 0.850842
vt 0.753245 0.852925
vt 0.800239 0.850842
vt 0.802713 0.852925
vt 0.751207 0.857535
vt 0.751721 0.85518497
vt 0.804236 0.85518497
vt 0.804751 0.857535
vt 0.751721 0.85988498
vt 0.804236 0.85988498
vt 0.753245 0.862145
vt 0.755719 0.86422801
vt 0.802713 0.862145
vt 0.800239 0.86422801
vt 0.759048 0.866054
vt 0.763105 0.86755198
vt 0.796909 0.866054
vt 0.792853 0.86755198
vt 0.767734 0.86866498
vt 0.772756 0.86935103
vt 0.788224 0.86866498
vt 0.764451 0.958518982
vt 0.785486 0.96798402
vt 0.783962 0.96572399
vt 0.781488 0.963642
vt 0.786 0.970335007
vt 0.732971 0.96798402
vt 0.732457 0.970335007
vt 0.778159 0.961816013
vt 0.734495 0.96572399
vt 0.736968 0.963642
vt 0.774102 0.96031803
vt 0.769474 0.95920497
vt 0.740298 0.961816013
vt 0.744355 0.96031803
vt 0.748983 0.959204018
vt 0.732971 0.97268498
vt 0.734494 0.974945009
vt 0.785486 0.97268498
vt 0.783962 0.974945009
vt 0.736968 0.977028012
vt 0.740298 0.978852987
vt 0.781488 0.977028012
vt 0.778159 0.978852987
vt 0.744355 0.980351985
vt 0.748983 0.981464982
vt 0.774102 0.980351985
vt 0.769474 0.981464982
vt 0.754006 0.982150972
vn -0 -0 -1
vn -0 -0 -1
vn -0 -0 -1
vn -0 -0 -1
vn -0 -0 -1
vn -0 -0 -1
vn -0 -0 -1
vn -0 -0 -1
vn -0 -0 -1
vn -0 -0 -1
vn -0 -0 -1
vn -0 -0 -1
vn -0 -0 -1
vn -0 -0 -1
vn -0 -0 -1
vn -0 -0 -1
vn -0 -0 -1
vn -0 -0 -1
vn -0 -0 -1
vn -0 -0 -1
vn -0 -0 -1
vn -0 -0 -1
vn -0 -0 -1
vn -0 -0 -1
vn -0 -0 -1
vn -0 -0 -1
vn -0 -0 -1
vn -0 -0 -1
vn -0 -0 -1
vn -0 -0 -1
vn -0 -0 -1
vn -0 -0 -1
vn -0 -0 -1
vn -0 -0 -1
vn -0 -0 -1
vn -0 -0 -1
vn -0 -0 -1
vn -0 -0 -1
vn -0 -0 -1
vn -0 -0 -1
vn -0 -0 -1
vn -0 -0 -1
vn -0 -0 -1
vn -0 -0 -1
vn -0 -0 -1
vn -0 -0 -1
vn -0 -0 -1
vn -0 -0 -1
vn -0 -0 -1
vn -0 -0 -1
vn -0 -0 -1
vn -0 -0 -1
vn -0 -0 -1
vn -0 -0 -1
vn -0 -0 -1
vn -0 -0 -1
vn -0 -0 -1
vn -0 -0 -1
vn -0 -0 -1
vn -0 -0 -1
vn -0 -0 -1
vn -0 -0 -1
vn -0 -0 -1
vn -0 -0 -1
vn -0 -0 -1
vn -0 -0 -1
vn -0 -0 -1
vn -0 -0 -1
vn -0 -0 -1
vn -0 -0 -1
vn -0 -0 -1
vn -0 -0 -1
vn -0 -0 -1
vn -0 -0 -1
vn -0 -0 -1
vn -0 -0 -1
vn -0 -0 -1
vn -0 -0 -1
vn -0 -0 -1
vn -0 -0 -1
vn -0 -0 -1
vn -0 -0 -1
vn -0 -0 -1
vn -0 -0 -1
vn -0 -0 -1
vn -0 -0 -1
vn -0 -0 -1
vn -0 -0 -1
vn -0 -0 -1
vn -0 -0 -1
vn -0 -0 -1
vn -0 -0 -1
vn -0 -0 -1
vn -0 -0 -1
vn -0 -0 -1
vn -0 -0 -1
vn -0 -0 -1
vn -0 -0 -1
vn -0 -0 -1
vn -0 -0 -1
vn -0 -0 -1
vn -0 -0 -1
vn -0 -0 -1
vn -0 -0 -1
vn -0 -0 -1
vn -0 -0 -1
vn -0 -0 -1
vn -0 -0 -1
vn -0 -0 -1
vn -0 -0 -1
vn -0 -0 -1
vn -0 -0 -1
vn -0 -0 -1
vn -0 -0 -1
vn -0 -0 -1
vn -0 -0 -1
vn -0 -0 -1
vn -0 -0 -1
vn -0 -0 -1
vn -0 -0 -1
vn -0 -0 -1
vn -0 -0 -1
vn -0 -0 -1
vn -0 -0 -1
vn -0 -0 -1
vn -0 -0 -1
vn -0 -0 -1
vn -0 -0 -1
vn -0 -0 -1
vn -0 -0 -1
vn -0 -0 -1
vn -0 -0 -1
vn -0 -0 -1
vn -0 -0 -1
vn -0 -0 -1
vn -0 -0 -1
f 64/64/64 66/66/66 65/65/65
f 64/64/64 63/63/63 66/66/66
f 63/63/63 67/67/67 66/66/66
f 41/41/41 63/63/63 64/64/64
f 63/63/63 61/61/61 67/67/67
f 61/61/61 70/70/70 67/67/67
f 41/41/41 42/42/42 63/63/63
f 42/42/42 61/61/61 63/63/63
f 40/40/40 42/42/42 41/41/41
f 61/61/61 60/60/60 70/70/70
f 60/60/60 71/71/71 70/70/70
f 42/42/42 43/43/43 61/61/61
f 43/43/43 60/60/60 61/61/61
f 40/40/40 39/39/39 42/42/42
f 39/39/39 43/43/43 42/42/42
f 1/1/1 39/39/39 40/40/40
f 60/60/60 59/59/59 71/71/71
f 59/59/59 72/72/72 71/71/71
f 43/43/43 46/46/46 60/60/60
f 46/46/46 59/59/59 60/60/60
f 39/39/39 35/35/35 43/43/43
f 35/35/35 46/46/46 43/43/43
f 1/1/1 2/2/2 39/39/39
f 2/2/2 35/35/35 39/39/39
f 3/3/3 2/2/2 1/1/1
f 3/3/3 5/5/5 2/2/2
f 5/5/5 4/4/4 2/2/2
f 2/2/2 4/4/4 35/35/35
f 5/5/5 10/10/10 4/4/4
f 35/35/35 34/34/34 46/46/46
f 4/4/4 34/34/34 35/35/35
f 10/10/10 9/9/9 4/4/4
f 4/4/4 9/9/9 34/34/34
f 10/10/10 12/12/12 9/9/9
f 34/34/34 47/47/47 46/46/46
f 46/46/46 47/47/47 59/59/59
f 9/9/9 33/33/33 34/34/34
f 34/34/34 33/33/33 47/47/47
f 12/12/12 11/11/11 9/9/9
f 9/9/9 11/11/11 33/33/33
f 12/12/12 14/14/14 11/11/11
f 47/47/47 58/58/58 59/59/59
f 59/59/59 58/58/58 72/72/72
f 58/58/58 73/73/73 72/72/72
f 14/14/14 13/13/13 11/11/11
f 14/14/14 16/16/16 13/13/13
f 58/58/58 57/57/57 73/73/73
f 57/57/57 74/74/74 73/73/73
f 47/47/47 48/48/48 58/58/58
f 48/48/48 57/57/57 58/58/58
f 33/33/33 48/48/48 47/47/47
f 57/57/57 56/56/56 74/74/74
f 56/56/56 75/75/75 74/74/74
f 11/11/11 32/32/32 33/33/33
f 33/33/33 32/32/32 48/48/48
f 11/11/11 13/13/13 32/32/32
f 48/48/48 49/49/49 57/57/57
f 32/32/32 49/49/49 48/48/48
f 49/49/49 56/56/56 57/57/57
f 13/13/13 31/31/31 32/32/32
f 32/32/32 31/31/31 49/49/49
f 16/16/16 15/15/15 13/13/13
f 13/13/13 15/15/15 31/31/31
f 16/16/16 18/18/18 15/15/15
f 31/31/31 50/50/50 49/49/49
f 49/49/49 50/50/50 56/56/56
f 15/15/15 30/30/30 31/31/31
f 31/31/31 30/30/30 50/50/50
f 18/18/18 17/17/17 15/15/15
f 15/15/15 17/17/17 30/30/30
f 18/18/18 20/20/20 17/17/17
f 50/50/50 55/55/55 56/56/56
f 56/56/56 55/55/55 75/75/75
f 55/55/55 76/76/76 75/75/75
f 20/20/20 19/19/19 17/17/17
f 20/20/20 22/22/22 19/19/19
f 55/55/55 53/53/53 76/76/76
f 53/53/53 68/68/68 76/76/76
f 50/50/50 51/51/51 55/55/55
f 51/51/51 53/53/53 55/55/55
f 30/30/30 51/51/51 50/50/50
f 53/53/53 54/54/54 68/68/68
f 54/54/54 69/69/69 68/68/68
f 54/54/54 62/62/62 69/69/69
f 17/17/17 29/29/29 30/30/30
f 30/30/30 29/29/29 51/51/51
f 17/17/17 19/19/19 29/29/29
f 51/51/51 52/52/52 53/53/53
f 29/29/29 52/52/52 51/51/51
f 52/52/52 54/54/54 53/53/53
f 44/44/44 62/62/62 54/54/54
f 52/52/52 44/44/44 54/54/54
f 44/44/44 45/45/45 62/62/62
f 29/29/29 26/26/26 52/52/52
f 26/26/26 44/44/44 52/52/52
f 19/19/19 26/26/26 29/29/29
f 38/38/38 45/45/45 44/44/44
f 26/26/26 38/38/38 44/44/44
f 22/22/22 21/21/21 19/19/19
f 19/19/19 21/21/21 26/26/26
f 22/22/22 23/23/23 21/21/21
f 38/38/38 79/79/79 45/45/45
f 21/21/21 82/82/82 81/81/81
f 21/21/21 81/81/81 83/83/83
f 87/87/87 82/82/82 21/21/21
f 90/90/90 87/87/87 21/21/21
f 91/91/91 90/90/90 21/21/21
f 91/91/91 21/21/21 94/94/94
f 21/21/21 83/83/83 25/25/25
f 94/94/94 21/21/21 95/95/95
f 26/26/26 21/21/21 25/25/25
f 26/26/26 25/25/25 24/24/24
f 24/24/24 86/86/86 26/26/26
f 86/86/86 85/85/85 26/26/26
f 85/85/85 84/84/84 26/26/26
f 26/26/26 84/84/84 88/88/88
f 26/26/26 88/88/88 89/89/89
f 26/26/26 89/89/89 93/93/93
f 26/26/26 93/93/93 92/92/92
f 38/38/38 26/26/26 92/92/92
f 38/38/38 92/92/92 96/96/96
f 38/38/38 96/96/96 98/98/98
f 38/38/38 98/98/98 99/99/99
f 38/38/38 99/99/99 102/102/102
f 38/38/38 102/102/102 103/103/103
f 38/38/38 103/103/103 106/106/106
f 38/38/38 106/106/106 107/107/107
f 38/38/38 107/107/107 28/28/28
f 21/21/21 6/6/6 95/95/95
f 23/23/23 6/6/6 21/21/21
f 97/97/97 95/95/95 6/6/6
f 100/100/100 97/97/97 6/6/6
f 101/101/101 100/100/100 6/6/6
f 104/104/104 101/101/101 6/6/6
f 105/105/105 104/104/104 6/6/6
f 108/108/108 105/105/105 6/6/6
f 27/27/27 108/108/108 6/6/6
f 28/28/28 27/27/27 6/6/6
f 6/6/6 38/38/38 28/28/28
f 23/23/23 8/8/8 6/6/6
f 8/8/8 80/80/80 7/7/7
f 8/8/8 7/7/7 6/6/6
f 38/38/38 37/37/37 36/36/36
f 36/36/36 123/123/123 38/38/38
f 123/123/123 122/122/122 38/38/38
f 122/122/122 121/121/121 38/38/38
f 121/121/121 118/118/118 38/38/38
f 118/118/118 117/117/117 38/38/38
f 38/38/38 109/109/109 37/37/37
f 117/117/117 114/114/114 38/38/38
f 38/38/38 6/6/6 109/109/109
f 79/79/79 38/38/38 114/114/114
f 6/6/6 120/120/120 109/109/109
f 115/115/115 79/79/79 114/114/114
f 6/6/6 119/119/119 120/120/120
f 79/79/79 115/115/115 124/124/124
f 6/6/6 116/116/116 119/119/119
f 79/79/79 124/124/124 125/125/125
f 6/6/6 112/112/112 116/116/116
f 79/79/79 125/125/125 128/128/128
f 112/112/112 6/6/6 111/111/111
f 79/79/79 128/128/128 129/129/129
f 110/110/110 111/111/111 6/6/6
f 79/79/79 129/129/129 132/132/132
f 6/6/6 7/7/7 110/110/110
f 79/79/79 132/132/132 133/133/133
f 7/7/7 113/113/113 110/110/110
f 79/79/79 133/133/133 136/136/136
f 79/79/79 136/136/136 78/78/78
f 79/79/79 78/78/78 77/77/77
f 7/7/7 79/79/79 77/77/77
f 126/126/126 113/113/113 7/7/7
f 77/77/77 135/135/135 7/7/7
f 127/127/127 126/126/126 7/7/7
f 135/135/135 134/134/134 7/7/7
f 130/130/130 127/127/127 7/7/7
f 134/134/134 131/131/131 7/7/7
f 131/131/131 130/130/130 7/7/7
