# VPXTOOL table OBJ file
# VPXTOOL OBJ file
# numVerts: 608 numFaces: 1024
o PinCab_MagnaButtonRight
v -354.61377 -327.17923 -7.602921
v -354.61377 -327.17908 -7.604492
v -359.5201 -327.15854 -7.604492
v -359.5201 -327.1591 -7.598914
v -354.5292 -324.95392 -7.160276
v -354.5292 -324.91016 -7.604492
v -354.61377 -327.17908 -7.604492
v -354.61377 -327.17923 -7.602921
v -354.3467 -323.32645 -6.836554
v -354.3467 -323.25082 -7.604492
v -354.07162 -321.9377 -6.560317
v -354.07162 -321.83487 -7.604492
v -353.70944 -320.42856 -6.260126
v -353.70944 -320.29614 -7.604492
v -353.6856 -320.32968 -6.240458
v -353.6856 -320.1953 -7.604492
v -353.66388 -320.23053 -6.220738
v -353.66388 -320.09424 -7.604492
v -353.64804 -320.1312 -6.200976
v -353.64804 -319.99295 -7.604492
v -353.6419 -320.03168 -6.181182
v -353.6419 -319.89148 -7.604492
v -353.6419 -320.02966 -6.180781
v -353.6419 -319.88943 -7.604492
v -353.70218 -319.73703 -6.122571
v -353.70218 -319.59106 -7.604492
v -353.86655 -319.49783 -6.074992
v -353.86655 -319.34717 -7.604492
v -354.11023 -319.33636 -6.042874
v -354.11023 -319.18256 -7.604492
v -354.40854 -319.2769 -6.031048
v -354.40854 -319.12192 -7.604492
v -359.53528 -319.27115 -6.029903
v -359.53528 -319.11606 -7.604492
v -359.5201 -327.1591 -7.598914
v -359.5201 -327.15854 -7.604492
v -359.53528 -319.11606 -7.604492
v -359.53528 -319.27115 -6.029903
v -354.61377 -327.1797 -7.601409
v -359.5201 -327.1607 -7.593549
v -354.5292 -325.08347 -6.73313
v -354.61377 -327.1797 -7.601409
v -354.3467 -323.55045 -6.098127
v -354.07162 -322.24228 -5.556268
v -353.70944 -320.82068 -4.967423
v -353.6856 -320.72754 -4.928842
v -353.66388 -320.63416 -4.89016
v -353.64804 -320.5406 -4.851397
v -353.6419 -320.44684 -4.812569
v -353.6419 -320.44495 -4.811783
v -353.70218 -320.16928 -4.6976
v -353.86655 -319.94397 -4.60427
v -354.11023 -319.79187 -4.541269
v -354.40854 -319.73584 -4.51807
v -359.53528 -319.73044 -4.515825
v -359.5201 -327.1607 -7.593549
v -359.53528 -319.73044 -4.515825
v -354.61377 -327.18042 -7.600016
v -359.5201 -327.16336 -7.588606
v -354.5292 -325.29388 -6.339471
v -354.61377 -327.18042 -7.600016
v -354.3467 -323.9142 -5.417589
v -354.07162 -322.73688 -4.630932
v -353.70944 -321.4575 -3.776062
v -353.6856 -321.37366 -3.72005
v -353.66388 -321.2896 -3.663893
v -353.64804 -321.20538 -3.607617
v -353.6419 -321.12103 -3.551248
v -353.6419 -321.11932 -3.550107
v -353.70218 -320.87122 -3.384339
v -353.86655 -320.66846 -3.248845
v -354.11023 -320.53156 -3.157381
v -354.40854 -320.48117 -3.123702
v -359.53528 -320.4763 -3.120443
v -359.5201 -327.16336 -7.588606
v -359.53528 -320.4763 -3.120443
v -354.61377 -327.18143 -7.598795
v -359.5201 -327.1669 -7.584272
v -354.5292 -325.57706 -5.994425
v -354.61377 -327.18143 -7.598795
v -354.3467 -324.40375 -4.821092
v -354.07162 -323.4025 -3.819868
v -353.70944 -322.31445 -2.731824
v -353.6856 -322.24316 -2.660535
v -353.66388 -322.1717 -2.589061
v -353.64804 -322.10007 -2.517435
v -353.6419 -322.02832 -2.445691
v -353.6419 -322.0269 -2.444239
v -353.70218 -321.8159 -2.233256
v -353.86655 -321.64343 -2.060805
v -354.11023 -321.52704 -1.944394
v -354.40854 -321.48416 -1.901528
v -359.53528 -321.48 -1.89738
v -359.5201 -327.1669 -7.584272
v -359.53528 -321.48 -1.89738
v -354.61377 -327.18265 -7.597794
v -359.5201 -327.17123 -7.580716
v -354.5292 -325.92212 -5.711254
v -354.61377 -327.18265 -7.597794
v -354.3467 -325.00024 -4.33156
v -354.07162 -324.21356 -3.154244
v -353.70944 -323.3587 -1.874841
v -353.6856 -323.3027 -1.791014
v -353.66388 -323.24652 -1.706968
v -353.64804 -323.19025 -1.622746
v -353.6419 -323.13388 -1.538383
v -353.6419 -323.13275 -1.536676
v -353.70218 -322.96698 -1.288586
v -353.86655 -322.83148 -1.085805
v -354.11023 -322.74002 -0.94892
v -354.40854 -322.70633 -0.898516
v -359.53528 -322.7031 -0.893638
v -359.5201 -327.17123 -7.580716
v -359.53528 -322.7031 -0.893638
v -354.61377 -327.18405 -7.597049
v -359.5201 -327.17618 -7.578074
v -354.5292 -326.31577 -5.500839
v -354.61377 -327.18405 -7.597049
v -354.3467 -325.68076 -3.967805
v -354.07162 -325.13892 -2.659643
v -353.70944 -324.55008 -1.238045
v -353.6856 -324.51147 -1.144902
v -353.66388 -324.4728 -1.051516
v -353.64804 -324.43405 -0.957932
v -353.6419 -324.3952 -0.864194
v -353.6419 -324.39444 -0.862297
v -353.70218 -324.28024 -0.586634
v -353.86655 -324.18692 -0.361317
v -354.11023 -324.1239 -0.209218
v -354.40854 -324.1007 -0.153212
v -359.53528 -324.09848 -0.147791
v -359.5201 -327.17618 -7.578074
v -359.53528 -324.09848 -0.147791
v -354.61377 -327.18555 -7.59659
v -359.5201 -327.18155 -7.576447
v -354.5292 -326.74292 -5.371265
v -354.61377 -327.18555 -7.59659
v -354.3467 -326.4192 -3.743805
v -354.07162 -326.14294 -2.355067
v -353.70944 -325.84277 -0.845907
v -353.6856 -325.8231 -0.747026
v -353.66388 -325.80338 -0.647889
v -353.64804 -325.78363 -0.548541
v -353.6419 -325.76382 -0.449029
v -353.6419 -325.76343 -0.447015
v -353.70218 -325.7052 -0.154373
v -353.86655 -325.65762 0.084823
v -354.11023 -325.62552 0.24629
v -354.40854 -325.61368 0.305746
v -359.53528 -325.61255 0.3115
v -359.5201 -327.18155 -7.576447
v -359.53528 -325.61255 0.3115
v -354.61377 -327.18713 -7.596436
v -359.5201 -327.18713 -7.575897
v -354.5292 -327.18713 -5.327514
v -354.61377 -327.18713 -7.596436
v -354.3467 -327.18713 -3.66817
v -354.07162 -327.18713 -2.252225
v -353.70944 -327.18713 -0.713499
v -353.6856 -327.18713 -0.612681
v -353.66388 -327.18713 -0.511601
v -353.64804 -327.18713 -0.410306
v -353.6419 -327.18713 -0.308846
v -353.6419 -327.18713 -0.306792
v -353.70218 -327.18713 -0.008416
v -353.86655 -327.18713 0.235466
v -354.11023 -327.18713 0.400096
v -354.40854 -327.18713 0.460716
v -359.53528 -327.18713 0.466583
v -359.5201 -327.18713 -7.575897
v -359.53528 -327.18713 0.466583
v -354.61377 -327.18872 -7.596591
v -359.5201 -327.19272 -7.576447
v -354.5292 -327.63135 -5.371265
v -354.61377 -327.18872 -7.596591
v -354.3467 -327.95508 -3.743805
v -354.07162 -328.23132 -2.355067
v -353.70944 -328.5315 -0.845908
v -353.6856 -328.55118 -0.747027
v -353.66388 -328.5709 -0.647889
v -353.64804 -328.59064 -0.548541
v -353.6419 -328.61044 -0.449029
v -353.6419 -328.61084 -0.447015
v -353.70218 -328.66907 -0.154373
v -353.86655 -328.71664 0.084823
v -354.11023 -328.74875 0.24629
v -354.40854 -328.7606 0.305745
v -359.53528 -328.76172 0.3115
v -359.5201 -327.19272 -7.576447
v -359.53528 -328.76172 0.3115
v -354.61377 -327.19022 -7.597049
v -359.5201 -327.1981 -7.578074
v -354.5292 -328.0585 -5.500838
v -354.61377 -327.19022 -7.597049
v -354.3467 -328.6935 -3.967805
v -354.07162 -329.23535 -2.659642
v -353.70944 -329.8242 -1.238045
v -353.6856 -329.8628 -1.144901
v -353.66388 -329.90146 -1.051516
v -353.64804 -329.94022 -0.957932
v -353.6419 -329.97906 -0.864194
v -353.6419 -329.97986 -0.862297
v -353.70218 -330.09402 -0.586634
v -353.86655 -330.18735 -0.361316
v -354.11023 -330.25037 -0.209217
v -354.40854 -330.27356 -0.153211
v -359.53528 -330.2758 -0.147791
v -359.5201 -327.1981 -7.578074
v -359.53528 -330.2758 -0.147791
v -354.61377 -327.19162 -7.597793
v -359.5201 -327.20303 -7.580717
v -354.5292 -328.45215 -5.711254
v -354.61377 -327.19162 -7.597793
v -354.3467 -329.37402 -4.33156
v -354.07162 -330.1607 -3.154245
v -353.70944 -331.01556 -1.874841
v -353.6856 -331.07156 -1.791014
v -353.66388 -331.12775 -1.706969
v -353.64804 -331.18402 -1.622746
v -353.6419 -331.2404 -1.538384
v -353.6419 -331.24152 -1.536676
v -353.70218 -331.4073 -1.288587
v -353.86655 -331.5428 -1.085806
v -354.11023 -331.63425 -0.948921
v -354.40854 -331.66794 -0.898517
v -359.53528 -331.67117 -0.893639
v -359.5201 -327.20303 -7.580717
v -359.53528 -331.67117 -0.893639
v -354.61377 -327.19284 -7.598795
v -359.5201 -327.20737 -7.584273
v -354.5292 -328.7972 -5.994425
v -354.61377 -327.19284 -7.598795
v -354.3467 -329.97052 -4.821092
v -354.07162 -330.97177 -3.819868
v -353.70944 -332.0598 -2.731824
v -353.6856 -332.1311 -2.660535
v -353.66388 -332.20258 -2.589061
v -353.64804 -332.2742 -2.517435
v -353.6419 -332.34595 -2.445691
v -353.6419 -332.34738 -2.444239
v -353.70218 -332.55838 -2.233255
v -353.86655 -332.73083 -2.060805
v -354.11023 -332.84723 -1.944394
v -354.40854 -332.8901 -1.901528
v -359.53528 -332.89426 -1.89738
v -359.5201 -327.20737 -7.584273
v -359.53528 -332.89426 -1.89738
v -354.61377 -327.19385 -7.600016
v -359.5201 -327.2109 -7.588606
v -354.5292 -329.08038 -6.339471
v -354.61377 -327.19385 -7.600016
v -354.3467 -330.46005 -5.417589
v -354.07162 -331.6374 -4.630932
v -353.70944 -332.91678 -3.776062
v -353.6856 -333.0006 -3.72005
v -353.66388 -333.08466 -3.663893
v -353.64804 -333.16888 -3.607617
v -353.6419 -333.25323 -3.551248
v -353.6419 -333.25494 -3.550107
v -353.70218 -333.50305 -3.384339
v -353.86655 -333.7058 -3.248845
v -354.11023 -333.8427 -3.157382
v -354.40854 -333.8931 -3.123703
v -359.53528 -333.89798 -3.120444
v -359.5201 -327.2109 -7.588606
v -359.53528 -333.89798 -3.120444
v -354.61377 -327.19458 -7.601409
v -359.5201 -327.21356 -7.59355
v -354.5292 -329.2908 -6.73313
v -354.61377 -327.19458 -7.601409
v -354.3467 -330.82382 -6.098127
v -354.07162 -332.132 -5.556269
v -353.70944 -333.5536 -4.967424
v -353.6856 -333.64673 -4.928843
v -353.66388 -333.7401 -4.890162
v -353.64804 -333.8337 -4.851398
v -353.6419 -333.92743 -4.81257
v -353.6419 -333.92932 -4.811784
v -353.70218 -334.205 -4.697601
v -353.86655 -334.4303 -4.604271
v -354.11023 -334.5824 -4.54127
v -354.40854 -334.63843 -4.518072
v -359.53528 -334.64383 -4.515827
v -359.5201 -327.21356 -7.59355
v -359.53528 -334.64383 -4.515827
v -354.61377 -327.19504 -7.60292
v -359.5201 -327.21518 -7.598914
v -354.5292 -329.42035 -7.160275
v -354.61377 -327.19504 -7.60292
v -354.3467 -331.04782 -6.836554
v -354.07162 -332.43655 -6.560317
v -353.70944 -333.9457 -6.260126
v -353.6856 -334.0446 -6.240458
v -353.66388 -334.14374 -6.220737
v -353.64804 -334.24307 -6.200976
v -353.6419 -334.3426 -6.181182
v -353.6419 -334.3446 -6.180781
v -353.70218 -334.63727 -6.122571
v -353.86655 -334.87646 -6.074992
v -354.11023 -335.0379 -6.042874
v -354.40854 -335.09738 -6.031048
v -359.53528 -335.10312 -6.029904
v -359.5201 -327.21518 -7.598914
v -359.53528 -335.10312 -6.029904
v -354.61377 -327.1952 -7.604492
v -359.5201 -327.21573 -7.604493
v -354.5292 -329.4641 -7.604492
v -354.61377 -327.1952 -7.604492
v -354.3467 -331.12344 -7.604492
v -354.07162 -332.5394 -7.604493
v -353.70944 -334.07813 -7.604493
v -353.6856 -334.17896 -7.604493
v -353.66388 -334.28003 -7.604493
v -353.64804 -334.38132 -7.604493
v -353.6419 -334.4828 -7.604493
v -353.6419 -334.48483 -7.604493
v -353.70218 -334.7832 -7.604493
v -353.86655 -335.0271 -7.604493
v -354.11023 -335.1917 -7.604493
v -354.40854 -335.25235 -7.604493
v -359.53528 -335.2582 -7.604493
v -359.5201 -327.21573 -7.604493
v -359.53528 -335.2582 -7.604493
v -354.61377 -327.19504 -7.606064
v -359.5201 -327.21518 -7.610071
v -354.5292 -329.42035 -8.048709
v -354.61377 -327.19504 -7.606064
v -354.3467 -331.04782 -8.372431
v -354.07162 -332.43655 -8.648668
v -353.70944 -333.9457 -8.948859
v -353.6856 -334.0446 -8.968528
v -353.66388 -334.14374 -8.988247
v -353.64804 -334.24307 -9.008009
v -353.6419 -334.3426 -9.027803
v -353.6419 -334.3446 -9.028204
v -353.70218 -334.63727 -9.086414
v -353.86655 -334.87643 -9.133993
v -354.11023 -335.0379 -9.166111
v -354.40854 -335.09738 -9.177938
v -359.53528 -335.10312 -9.179083
v -359.5201 -327.21518 -7.610071
v -359.53528 -335.10312 -9.179083
v -354.61377 -327.19458 -7.607575
v -359.5201 -327.21356 -7.615436
v -354.5292 -329.2908 -8.475854
v -354.61377 -327.19458 -7.607575
v -354.3467 -330.82382 -9.110857
v -354.07162 -332.132 -9.652716
v -353.70944 -333.5536 -10.241561
v -353.6856 -333.64673 -10.280142
v -353.66388 -333.7401 -10.318824
v -353.64804 -333.83368 -10.357588
v -353.6419 -333.92743 -10.396415
v -353.6419 -333.92932 -10.397201
v -353.70218 -334.205 -10.511384
v -353.86655 -334.4303 -10.604713
v -354.11023 -334.5824 -10.667715
v -354.40854 -334.63843 -10.690914
v -359.53528 -334.64383 -10.693159
v -359.5201 -327.21356 -7.615436
v -359.53528 -334.64383 -10.693159
v -354.61377 -327.19385 -7.608968
v -359.5201 -327.2109 -7.620378
v -354.5292 -329.08038 -8.869514
v -354.61377 -327.19385 -7.608968
v -354.3467 -330.46005 -9.791395
v -354.07162 -331.6374 -10.578053
v -353.70944 -332.91678 -11.432922
v -353.6856 -333.0006 -11.488935
v -353.66388 -333.08466 -11.545092
v -353.64804 -333.16888 -11.601368
v -353.6419 -333.25323 -11.657737
v -353.6419 -333.25494 -11.658877
v -353.70218 -333.50305 -11.824646
v -353.86655 -333.7058 -11.960139
v -354.11023 -333.8427 -12.051603
v -354.40854 -333.8931 -12.085282
v -359.53528 -333.89798 -12.088543
v -359.5201 -327.2109 -7.620378
v -359.53528 -333.89798 -12.088543
v -354.61377 -327.19284 -7.610189
v -359.5201 -327.20737 -7.624712
v -354.5292 -328.7972 -9.21456
v -354.61377 -327.19284 -7.610189
v -354.3467 -329.97052 -10.387893
v -354.07162 -330.97177 -11.389117
v -353.70944 -332.0598 -12.47716
v -353.6856 -332.1311 -12.54845
v -353.66388 -332.20258 -12.619925
v -353.64804 -332.2742 -12.69155
v -353.6419 -332.34595 -12.763294
v -353.6419 -332.34738 -12.764746
v -353.70218 -332.55838 -12.975729
v -353.86655 -332.73083 -13.14818
v -354.11023 -332.84723 -13.264591
v -354.40854 -332.8901 -13.307457
v -359.53528 -332.89426 -13.311605
v -359.5201 -327.20737 -7.624712
v -359.53528 -332.89426 -13.311605
v -354.61377 -327.19162 -7.611191
v -359.5201 -327.20303 -7.628268
v -354.5292 -328.45215 -9.497731
v -354.61377 -327.19162 -7.611191
v -354.34668 -329.37402 -10.877424
v -354.07162 -330.1607 -12.054741
v -353.70944 -331.01556 -13.334145
v -353.6856 -331.07156 -13.417971
v -353.66388 -331.12775 -13.502016
v -353.64804 -331.18402 -13.58624
v -353.6419 -331.2404 -13.670602
v -353.6419 -331.24152 -13.672309
v -353.70218 -331.4073 -13.920399
v -353.86655 -331.5428 -14.123179
v -354.11023 -331.63425 -14.260065
v -354.40854 -331.6679 -14.310469
v -359.53528 -331.67117 -14.315348
v -359.5201 -327.20303 -7.628268
v -359.53528 -331.67117 -14.315348
v -354.61377 -327.19022 -7.611936
v -359.5201 -327.1981 -7.630911
v -354.5292 -328.0585 -9.708146
v -354.61377 -327.19022 -7.611936
v -354.34668 -328.6935 -11.24118
v -354.07162 -329.23535 -12.549343
v -353.70944 -329.8242 -13.97094
v -353.6856 -329.8628 -14.064084
v -353.66388 -329.90146 -14.15747
v -353.64804 -329.94022 -14.251054
v -353.6419 -329.97906 -14.344791
v -353.6419 -329.97983 -14.346689
v -353.70218 -330.09402 -14.622352
v -353.86655 -330.18735 -14.84767
v -354.11023 -330.25037 -14.999768
v -354.40854 -330.27356 -15.055775
v -359.53528 -330.2758 -15.061195
v -359.5201 -327.1981 -7.630911
v -359.53528 -330.2758 -15.061195
v -354.61377 -327.18872 -7.612394
v -359.5201 -327.19272 -7.632538
v -354.5292 -327.63135 -9.837719
v -354.61377 -327.18872 -7.612394
v -354.34668 -327.95508 -11.465178
v -354.07162 -328.23132 -12.853916
v -353.70944 -328.5315 -14.363076
v -353.6856 -328.55118 -14.461957
v -353.66388 -328.5709 -14.561094
v -353.64804 -328.59064 -14.660442
v -353.6419 -328.61044 -14.759954
v -353.6419 -328.61084 -14.761969
v -353.70218 -328.66907 -15.054611
v -353.86655 -328.71664 -15.293806
v -354.11023 -328.74875 -15.455274
v -354.40854 -328.7606 -15.514729
v -359.53528 -328.76172 -15.520484
v -359.5201 -327.19272 -7.632538
v -359.53528 -328.76172 -15.520484
v -354.61377 -327.18713 -7.612549
v -359.5201 -327.18713 -7.633087
v -354.5292 -327.18713 -9.881471
v -354.61377 -327.18713 -7.612549
v -354.34668 -327.18713 -11.540814
v -354.07162 -327.18713 -12.956758
v -353.70944 -327.18713 -14.495485
v -353.6856 -327.18713 -14.596303
v -353.66388 -327.18713 -14.697383
v -353.64804 -327.18713 -14.798677
v -353.6419 -327.18713 -14.900139
v -353.6419 -327.18713 -14.902192
v -353.70218 -327.18713 -15.200567
v -353.86655 -327.18713 -15.444449
v -354.11023 -327.18713 -15.60908
v -354.40854 -327.18713 -15.669701
v -359.53528 -327.18713 -15.675568
v -359.5201 -327.18713 -7.633087
v -359.53528 -327.18713 -15.675568
v -354.61377 -327.18555 -7.612394
v -359.5201 -327.18155 -7.632538
v -354.5292 -326.74292 -9.837719
v -354.61377 -327.18555 -7.612394
v -354.34668 -326.4192 -11.465178
v -354.07162 -326.14294 -12.853916
v -353.70944 -325.84277 -14.363076
v -353.6856 -325.8231 -14.461957
v -353.66388 -325.80338 -14.561095
v -353.64804 -325.78363 -14.660443
v -353.6419 -325.76382 -14.759954
v -353.6419 -325.76343 -14.761969
v -353.70218 -325.7052 -15.054611
v -353.86655 -325.65762 -15.293807
v -354.11023 -325.62552 -15.455275
v -354.40854 -325.61368 -15.514729
v -359.53528 -325.61255 -15.520484
v -359.5201 -327.18155 -7.632538
v -359.53528 -325.61255 -15.520484
v -354.61377 -327.18405 -7.611936
v -359.5201 -327.17618 -7.63091
v -354.5292 -326.31577 -9.708146
v -354.61377 -327.18405 -7.611936
v -354.34668 -325.68076 -11.241179
v -354.07162 -325.13892 -12.549341
v -353.70944 -324.55005 -13.970939
v -353.6856 -324.51147 -14.064083
v -353.66388 -324.4728 -14.157469
v -353.64804 -324.43405 -14.251053
v -353.6419 -324.3952 -14.34479
v -353.6419 -324.3944 -14.346687
v -353.70218 -324.28024 -14.622351
v -353.86655 -324.18692 -14.847668
v -354.11023 -324.1239 -14.999766
v -354.40854 -324.1007 -15.055773
v -359.53528 -324.09848 -15.061193
v -359.5201 -327.17618 -7.63091
v -359.53528 -324.09848 -15.061193
v -354.61377 -327.18265 -7.611191
v -359.5201 -327.17123 -7.628268
v -354.5292 -325.92212 -9.49773
v -354.61377 -327.18265 -7.611191
v -354.34668 -325.00024 -10.877424
v -354.07162 -324.21356 -12.054739
v -353.70944 -323.3587 -13.334143
v -353.6856 -323.3027 -13.417969
v -353.66388 -323.24652 -13.502014
v -353.64804 -323.19025 -13.586238
v -353.6419 -323.13388 -13.6706
v -353.6419 -323.13275 -13.672307
v -353.70218 -322.96698 -13.920397
v -353.86655 -322.83148 -14.123178
v -354.11023 -322.74002 -14.260063
v -354.40854 -322.70633 -14.310467
v -359.53528 -322.7031 -14.315345
v -359.5201 -327.17123 -7.628268
v -359.53528 -322.7031 -14.315345
v -354.61377 -327.18143 -7.610189
v -359.5201 -327.1669 -7.624712
v -354.5292 -325.57706 -9.214559
v -354.61377 -327.18143 -7.610189
v -354.3467 -324.40375 -10.387892
v -354.07162 -323.4025 -11.389115
v -353.70944 -322.31445 -12.477159
v -353.6856 -322.24316 -12.548448
v -353.66388 -322.1717 -12.619922
v -353.64804 -322.10007 -12.691547
v -353.6419 -322.02832 -12.763292
v -353.6419 -322.0269 -12.764744
v -353.70218 -321.8159 -12.975727
v -353.86655 -321.64343 -13.148177
v -354.11023 -321.52704 -13.264589
v -354.40854 -321.48416 -13.307454
v -359.53528 -321.48 -13.311603
v -359.5201 -327.1669 -7.624712
v -359.53528 -321.48 -13.311603
v -354.61377 -327.18042 -7.608968
v -359.5201 -327.16336 -7.620378
v -354.5292 -325.29388 -8.869514
v -354.61377 -327.18042 -7.608968
v -354.3467 -323.9142 -9.791395
v -354.07162 -322.73688 -10.578053
v -353.70944 -321.4575 -11.432923
v -353.6856 -321.37366 -11.488935
v -353.66388 -321.2896 -11.545092
v -353.64804 -321.20538 -11.601368
v -353.6419 -321.12103 -11.657737
v -353.6419 -321.11932 -11.658877
v -353.70218 -320.87122 -11.824646
v -353.86655 -320.66846 -11.96014
v -354.11023 -320.53156 -12.051603
v -354.40854 -320.48117 -12.085282
v -359.53528 -320.4763 -12.088542
v -359.5201 -327.16336 -7.620378
v -359.53528 -320.4763 -12.088542
v -354.61377 -327.1797 -7.607575
v -359.5201 -327.1607 -7.615435
v -354.5292 -325.08347 -8.475854
v -354.61377 -327.1797 -7.607575
v -354.3467 -323.55045 -9.110857
v -354.07162 -322.24228 -9.652716
v -353.70944 -320.82068 -10.241561
v -353.6856 -320.72754 -10.280142
v -353.66388 -320.63416 -10.318824
v -353.64804 -320.54056 -10.357588
v -353.6419 -320.44684 -10.396416
v -353.6419 -320.44495 -10.397202
v -353.70218 -320.16928 -10.511385
v -353.86655 -319.94397 -10.604713
v -354.11023 -319.79187 -10.667715
v -354.40854 -319.73584 -10.690914
v -359.53528 -319.73044 -10.693159
v -359.5201 -327.1607 -7.615435
v -359.53528 -319.73044 -10.693159
v -354.61377 -327.17923 -7.606064
v -359.5201 -327.1591 -7.610071
v -354.5292 -324.95392 -8.048708
v -354.61377 -327.17923 -7.606064
v -354.3467 -323.32645 -8.37243
v -354.07162 -321.9377 -8.648667
v -353.70944 -320.42856 -8.948857
v -353.6856 -320.32968 -8.968526
v -353.66388 -320.23053 -8.988246
v -353.64804 -320.1312 -9.008007
v -353.6419 -320.03168 -9.027802
v -353.6419 -320.02966 -9.028202
v -353.70218 -319.737 -9.086412
v -353.86655 -319.49783 -9.133991
v -354.11023 -319.33636 -9.166109
v -354.40854 -319.2769 -9.177936
v -359.53528 -319.27115 -9.17908
v -359.5201 -327.1591 -7.610071
v -359.53528 -319.27115 -9.17908
vt 0.835092 0.500489
vt 0.835092 0.500499
vt 0.002574 0.50177097
vt 0.002574 0.501737
vt 0.84944 0.63834703
vt 0.84944 0.64105803
vt 0.835092 0.500499
vt 0.835092 0.500489
vt 0.88041 0.739168
vt 0.88041 0.743854
vt 0.927083 0.82520002
vt 0.927083 0.83157098
vt 0.988539 0.91869199
vt 0.988539 0.92689401
vt 0.992584 0.924817026
vt 0.992584 0.93313998
vt 0.996273 0.93095899
vt 0.996273 0.939401984
vt 0.99896 0.93711299
vt 0.99896 0.945676982
vt 1 0.943278015
vt 1 0.951961994
vt 1 0.943403006
vt 1 0.952090025
vt 0.989772 0.961531997
vt 0.989772 0.970574021
vt 0.961884 0.97635001
vt 0.961884 0.985682011
vt 0.920534 0.98635298
vt 0.920534 0.995881021
vt 0.869917 0.990036011
vt 0.869917 0.99963599443
vt 0.000001 0.990392983
vt 0.000001 1
vt 0.002574 0.501737
vt 0.002574 0.50177097
vt 0.000001 1
vt 0.000001 0.990392983
vt 0.835092 0.50046098
vt 0.002574 0.50163698
vt 0.84944 0.63032
vt 0.835092 0.50046098
vt 0.88041 0.725291
vt 0.927083 0.80633098
vt 0.988539 0.89439899
vt 0.992584 0.900169015
vt 0.996273 0.905954
vt 0.99896 0.911751986
vt 1 0.91755903
vt 1 0.91767597
vt 0.989772 0.934754014
vt 0.961884 0.94871199
vt 0.920534 0.958133996
vt 0.869917 0.961604
vt 0.000001 0.96193999
vt 0.002574 0.50163698
vt 0.000001 0.96193999
vt 0.835092 0.50041503
vt 0.002574 0.501473
vt 0.84944 0.617285
vt 0.835092 0.50041503
vt 0.88041 0.702757
vt 0.927082 0.77569097
vt 0.988539 0.85495001
vt 0.992584 0.860143
vt 0.996273 0.865349
vt 0.99896 0.87056702
vt 1 0.87579298
vt 1 0.87589902
vt 0.989772 0.891268015
vt 0.961884 0.90382999
vt 0.920534 0.912310004
vt 0.869917 0.91543299
vt 0.000001 0.91573501
vt 0.002574 0.501473
vt 0.000001 0.91573501
vt 0.835092 0.50035298
vt 0.002574 0.501253
vt 0.84944 0.599743
vt 0.835092 0.50035298
vt 0.88041 0.672431
vt 0.927082 0.734456
vt 0.988539 0.80185997
vt 0.992583 0.80627602
vt 0.996273 0.810704
vt 0.99896 0.81514102
vt 1 0.81958598
vt 1 0.81967598
vt 0.989772 0.83274603
vt 0.961884 0.84342903
vt 0.920534 0.85064101
vt 0.869917 0.85329598
vt 0.000001 0.853553
vt 0.002574 0.501253
vt 0.000001 0.853553
vt 0.835092 0.50027698
vt 0.002574 0.500984
vt 0.84944 0.578367
vt 0.835092 0.50027698
vt 0.88041 0.63547802
vt 0.927082 0.68421102
vt 0.988539 0.73716998
vt 0.992583 0.74063998
vt 0.996273 0.744119
vt 0.99896 0.74760503
vt 1 0.75109702
vt 1 0.751167
vt 0.989771 0.761437
vt 0.961884 0.769831
vt 0.920534 0.77549702
vt 0.869917 0.777583
vt 0 0.777785
vt 0.002574 0.500984
vt 0 0.777785
vt 0.835092 0.50019097
vt 0.002574 0.500678
vt 0.84944 0.55398
vt 0.835092 0.50019097
vt 0.88041 0.593319
vt 0.927082 0.62688702
vt 0.988539 0.663365
vt 0.992583 0.66575497
vt 0.996273 0.66815197
vt 0.99896 0.67055303
vt 1 0.67295802
vt 1 0.673007
vt 0.989771 0.680081
vt 0.961884 0.68586302
vt 0.920534 0.68976498
vt 0.869916 0.691203
vt 0 0.691342
vt 0.002574 0.500678
vt 0 0.691342
vt 0.835092 0.50009698
vt 0.002574 0.500346
vt 0.84944 0.527519
vt 0.835092 0.50009698
vt 0.88041 0.54757297
vt 0.927082 0.564686
vt 0.988539 0.583283
vt 0.992583 0.58450103
vt 0.996273 0.58572298
vt 0.99896 0.58694702
vt 1 0.58817297
vt 1 0.588198
vt 0.989771 0.59180403
vt 0.961884 0.594752
vt 0.920534 0.59674102
vt 0.869916 0.59747398
vt 0 0.59754503
vt 0.002574 0.500346
vt 0 0.59754503
vt 0.835092 0.5
vt 0.002574 0.5
vt 0.84944 0.5
vt 0.835092 0.5
vt 0.88041 0.5
vt 0.927082 0.5
vt 0.988539 0.5
vt 0.992583 0.5
vt 0.996273 0.5
vt 0.99896 0.5
vt 1 0.5
vt 1 0.5
vt 0.989771 0.5
vt 0.961884 0.5
vt 0.920533 0.5
vt 0.869916 0.5
vt 0 0.5
vt 0.002574 0.5
vt 0 0.5
vt 0.835092 0.49990296
vt 0.002574 0.499654
vt 0.84944 0.472481
vt 0.835092 0.49990296
vt 0.88041 0.45242596
vt 0.927082 0.435314
vt 0.988539 0.416717
vt 0.992583 0.41549897
vt 0.996272 0.41427696
vt 0.99896 0.41305304
vt 1 0.411826
vt 1 0.411802
vt 0.989771 0.40819597
vt 0.961884 0.405248
vt 0.920533 0.40325797
vt 0.869916 0.40252602
vt 0 0.40245497
vt 0.002574 0.499654
vt 0 0.40245497
vt 0.835092 0.49980903
vt 0.002574 0.499322
vt 0.84944 0.446019
vt 0.835092 0.49980903
vt 0.88041 0.406681
vt 0.927082 0.37311304
vt 0.988539 0.336635
vt 0.992583 0.334244
vt 0.996272 0.33184803
vt 0.99896 0.32944703
vt 1 0.32704103
vt 1 0.326993
vt 0.989771 0.319919
vt 0.961884 0.31413698
vt 0.920533 0.310234
vt 0.869916 0.308797
vt 0 0.308658
vt 0.002574 0.499322
vt 0 0.308658
vt 0.835092 0.49972296
vt 0.002574 0.499016
vt 0.84944 0.421632
vt 0.835092 0.49972296
vt 0.88041 0.36452198
vt 0.927082 0.31578898
vt 0.988539 0.26283002
vt 0.992583 0.25935996
vt 0.996272 0.255881
vt 0.99896 0.25239503
vt 1 0.24890304
vt 1 0.24883199
vt 0.989771 0.238563
vt 0.961884 0.230169
vt 0.920533 0.22450298
vt 0.869916 0.222417
vt 0 0.222215
vt 0.002574 0.499016
vt 0 0.222215
vt 0.835092 0.49964702
vt 0.002574 0.498747
vt 0.84944 0.400257
vt 0.835092 0.49964702
vt 0.88041 0.327569
vt 0.927082 0.265544
vt 0.988539 0.19814003
vt 0.992583 0.19372404
vt 0.996272 0.189296
vt 0.99896 0.18485898
vt 1 0.18041402
vt 1 0.18032402
vt 0.989771 0.16725397
vt 0.961884 0.15657103
vt 0.920533 0.14935899
vt 0.869916 0.14670402
vt 0 0.146447
vt 0.002574 0.498747
vt 0 0.146447
vt 0.835092 0.49958503
vt 0.002574 0.498527
vt 0.84944 0.382715
vt 0.835092 0.49958503
vt 0.88041 0.297243
vt 0.927082 0.22430897
vt 0.988539 0.14504999
vt 0.992583 0.139857
vt 0.996272 0.134651
vt 0.99896 0.12943304
vt 0.999999 0.12420702
vt 0.999999 0.12410098
vt 0.989771 0.108731985
vt 0.961884 0.09617001
vt 0.920533 0.087689996
vt 0.869916 0.08456701
vt -0 0.08426499
vt 0.002574 0.498527
vt -0 0.08426499
vt 0.835092 0.49953902
vt 0.002574 0.49836302
vt 0.84944 0.36967897
vt 0.835092 0.49953902
vt 0.88041 0.274709
vt 0.927082 0.19366801
vt 0.988539 0.10560101
vt 0.992583 0.099830985
vt 0.996272 0.09404498
vt 0.99896 0.088248014
vt 0.999999 0.08244097
vt 0.999999 0.082323015
vt 0.989771 0.065245986
vt 0.961884 0.05128801
vt 0.920533 0.04186499
vt 0.869916 0.038396
vt 0 0.03806001
vt 0.002574 0.49836302
vt 0 0.03806001
vt 0.835092 0.49951
vt 0.002574 0.498263
vt 0.84944 0.36165202
vt 0.835092 0.49951
vt 0.88041 0.260832
vt 0.927082 0.17479998
vt 0.988539 0.08130801
vt 0.992583 0.075182974
vt 0.996272 0.06904101
vt 0.99896 0.062886
vt 0.999999 0.056721985
vt 0.999999 0.056596994
vt 0.989771 0.038468003
vt 0.961884 0.02364999
vt 0.920533 0.01364702
vt 0.869916 0.009963989
vt -0 0.009607017
vt 0.002574 0.498263
vt -0 0.009607017
vt 0.835092 0.499501
vt 0.002574 0.49822903
vt 0.84944 0.35894203
vt 0.835092 0.499501
vt 0.88041 0.256146
vt 0.927082 0.16842902
vt 0.988539 0.07310599
vt 0.992583 0.06686002
vt 0.996272 0.060598016
vt 0.99896 0.054323018
vt 0.999999 0.048036993
vt 0.999999 0.047909975
vt 0.989771 0.029425979
vt 0.961884 0.014317989
vt 0.920533 0.004118979
vt 0.869916 0.0003629923
vt -0 0
vt 0.002574 0.49822903
vt -0 0
vt 0.835092 0.49951
vt 0.002574 0.498263
vt 0.84944 0.36165202
vt 0.835092 0.49951
vt 0.88041 0.260832
vt 0.927082 0.17479998
vt 0.988539 0.08130801
vt 0.992583 0.075182974
vt 0.996272 0.06904101
vt 0.99896 0.062886
vt 0.999999 0.056721985
vt 0.999999 0.056596994
vt 0.989771 0.038468003
vt 0.961884 0.02364999
vt 0.920533 0.01364702
vt 0.869916 0.009963989
vt -0 0.009607017
vt 0.002574 0.498263
vt -0 0.009607017
vt 0.835092 0.49953902
vt 0.002574 0.49836302
vt 0.84944 0.36967897
vt 0.835092 0.49953902
vt 0.88041 0.274709
vt 0.927082 0.19366801
vt 0.988539 0.10560101
vt 0.992583 0.099830985
vt 0.996272 0.094046
vt 0.99896 0.088248014
vt 0.999999 0.08244097
vt 0.999999 0.082323015
vt 0.989771 0.065245986
vt 0.961884 0.05128801
vt 0.920533 0.04186499
vt 0.869916 0.038396
vt 0 0.03806001
vt 0.002574 0.49836302
vt 0 0.03806001
vt 0.835092 0.49958503
vt 0.002574 0.498527
vt 0.84944 0.382715
vt 0.835092 0.49958503
vt 0.88041 0.297243
vt 0.927082 0.22430897
vt 0.988539 0.14504999
vt 0.992583 0.139857
vt 0.996272 0.134651
vt 0.99896 0.12943304
vt 1 0.12420702
vt 1 0.12410098
vt 0.989771 0.108731985
vt 0.961884 0.09617001
vt 0.920533 0.087689996
vt 0.869916 0.08456701
vt 0 0.08426499
vt 0.002574 0.498527
vt 0 0.08426499
vt 0.835092 0.49964702
vt 0.002574 0.498747
vt 0.84944 0.400257
vt 0.835092 0.49964702
vt 0.88041 0.327569
vt 0.927082 0.265544
vt 0.988539 0.19814003
vt 0.992583 0.19372404
vt 0.996272 0.189296
vt 0.99896 0.18485898
vt 1 0.18041402
vt 1 0.18032402
vt 0.989771 0.16725397
vt 0.961884 0.15657103
vt 0.920533 0.14935899
vt 0.869916 0.14670402
vt 0 0.146447
vt 0.002574 0.498747
vt 0 0.146447
vt 0.835092 0.49972296
vt 0.002574 0.499016
vt 0.84944 0.421632
vt 0.835092 0.49972296
vt 0.88041 0.36452198
vt 0.927082 0.31578898
vt 0.988539 0.26283002
vt 0.992583 0.25935996
vt 0.996272 0.255881
vt 0.99896 0.25239503
vt 1 0.24890304
vt 1 0.24883199
vt 0.989771 0.238563
vt 0.961884 0.230169
vt 0.920533 0.22450298
vt 0.869916 0.222417
vt 0 0.222215
vt 0.002574 0.499016
vt 0 0.222215
vt 0.835092 0.49980903
vt 0.002574 0.499322
vt 0.84944 0.446019
vt 0.835092 0.49980903
vt 0.88041 0.406681
vt 0.927082 0.37311304
vt 0.988539 0.336635
vt 0.992583 0.33424497
vt 0.996273 0.33184803
vt 0.99896 0.32944703
vt 1 0.32704198
vt 1 0.326993
vt 0.989771 0.319919
vt 0.961884 0.31413698
vt 0.920533 0.31023502
vt 0.869916 0.308797
vt 0 0.308658
vt 0.002574 0.499322
vt 0 0.308658
vt 0.835092 0.49990296
vt 0.002574 0.499654
vt 0.84944 0.472481
vt 0.835092 0.49990296
vt 0.88041 0.45242596
vt 0.927082 0.435314
vt 0.988539 0.416717
vt 0.992583 0.41549802
vt 0.996273 0.41427696
vt 0.99896 0.41305304
vt 1 0.411826
vt 1 0.411802
vt 0.989771 0.40819502
vt 0.961884 0.405248
vt 0.920534 0.40325797
vt 0.869916 0.40252602
vt 0 0.40245497
vt 0.002574 0.499654
vt 0 0.40245497
vt 0.835092 0.5
vt 0.002574 0.5
vt 0.84944 0.5
vt 0.835092 0.5
vt 0.88041 0.5
vt 0.927082 0.5
vt 0.988539 0.5
vt 0.992583 0.5
vt 0.996273 0.5
vt 0.99896 0.5
vt 1 0.5
vt 1 0.5
vt 0.989771 0.5
vt 0.961884 0.5
vt 0.920534 0.5
vt 0.869916 0.5
vt 0 0.5
vt 0.002574 0.5
vt 0 0.5
vt 0.835092 0.50009698
vt 0.002574 0.500346
vt 0.84944 0.527519
vt 0.835092 0.50009698
vt 0.88041 0.54757297
vt 0.927082 0.564686
vt 0.988539 0.583283
vt 0.992583 0.58450103
vt 0.996273 0.58572298
vt 0.99896 0.58694702
vt 1 0.58817297
vt 1 0.588198
vt 0.989772 0.59180403
vt 0.961884 0.594752
vt 0.920534 0.59674197
vt 0.869917 0.59747398
vt 0 0.59754503
vt 0.002574 0.500346
vt 0 0.59754503
vt 0.835092 0.50019097
vt 0.002574 0.500678
vt 0.84944 0.55398
vt 0.835092 0.50019097
vt 0.88041 0.593319
vt 0.927082 0.62688702
vt 0.988539 0.663365
vt 0.992583 0.665756
vt 0.996273 0.66815197
vt 0.99896 0.67055303
vt 1 0.67295903
vt 1 0.673007
vt 0.989772 0.680081
vt 0.961884 0.68586302
vt 0.920534 0.689766
vt 0.869917 0.691203
vt 0.000001 0.691342
vt 0.002574 0.500678
vt 0.000001 0.691342
vt 0.835092 0.50027698
vt 0.002574 0.500984
vt 0.84944 0.578368
vt 0.835092 0.50027698
vt 0.88041 0.63547802
vt 0.927083 0.68421102
vt 0.988539 0.73716998
vt 0.992584 0.74063998
vt 0.996273 0.744119
vt 0.99896 0.74760503
vt 1 0.75109702
vt 1 0.75116801
vt 0.989772 0.761437
vt 0.961884 0.769831
vt 0.920534 0.77549702
vt 0.869917 0.777583
vt 0.000001 0.777785
vt 0.002574 0.500984
vt 0.000001 0.777785
vt 0.835092 0.50035298
vt 0.002574 0.501253
vt 0.84944 0.599743
vt 0.835092 0.50035298
vt 0.88041 0.672431
vt 0.927083 0.734456
vt 0.988539 0.80185997
vt 0.992584 0.80627602
vt 0.996273 0.810704
vt 0.99896 0.81514102
vt 1 0.81958598
vt 1 0.81967598
vt 0.989772 0.83274603
vt 0.961884 0.84342903
vt 0.920534 0.85064101
vt 0.869917 0.85329598
vt 0.000001 0.85355401
vt 0.002574 0.501253
vt 0.000001 0.85355401
vt 0.835092 0.50041503
vt 0.002574 0.501473
vt 0.84944 0.617285
vt 0.835092 0.50041503
vt 0.88041 0.702757
vt 0.927083 0.77569097
vt 0.988539 0.85495001
vt 0.992584 0.860143
vt 0.996273 0.865349
vt 0.99896 0.87056702
vt 1 0.87579298
vt 1 0.87589902
vt 0.989772 0.891268015
vt 0.961884 0.90382999
vt 0.920534 0.912310004
vt 0.869917 0.91543299
vt 0.000001 0.91573501
vt 0.002574 0.501473
vt 0.000001 0.91573501
vt 0.835092 0.50046098
vt 0.002574 0.50163698
vt 0.84944 0.63032
vt 0.835092 0.50046098
vt 0.88041 0.725291
vt 0.927083 0.80633199
vt 0.988539 0.89439899
vt 0.992584 0.900169015
vt 0.996273 0.905954
vt 0.99896 0.911751986
vt 1 0.91755903
vt 1 0.91767597
vt 0.989772 0.934754014
vt 0.961884 0.94871199
vt 0.920534 0.958133996
vt 0.869917 0.961604
vt 0.000001 0.96193999
vt 0.002574 0.50163698
vt 0.000001 0.96193999
vt 0.835092 0.500489
vt 0.002574 0.501737
vt 0.84944 0.63834798
vt 0.835092 0.500489
vt 0.88041 0.739168
vt 0.927083 0.82520002
vt 0.988539 0.91869199
vt 0.992584 0.924817026
vt 0.996273 0.93095899
vt 0.99896 0.93711299
vt 1 0.943278015
vt 1 0.943403006
vt 0.989772 0.961531997
vt 0.961884 0.97635001
vt 0.920534 0.98635298
vt 0.869917 0.990036011
vt 0.000001 0.990392983
vt 0.002574 0.501737
vt 0.000001 0.990392983
vn -0.004186 -0.980751 -0.195219
vn -0.004186 -0.999991 -0.000138
vn -0.004186 -0.999991 -0.000001
vn -0.004186 -0.980775 -0.195095
vn 0.99714 -0.074129 -0.014745
vn 0.99714 -0.075581 0
vn 0.999306 -0.037242 -0.000006
vn 0.999306 -0.036525 -0.007269
vn 0.98828 -0.149719 -0.029781
vn 0.98828 -0.152652 -0
vn 0.97746 -0.207063 -0.041188
vn 0.97746 -0.21112 -0
vn 0.973278 -0.225218 -0.044799
vn 0.973278 -0.22963 -0
vn 0.975591 -0.215376 -0.042841
vn 0.975591 -0.219595 -0
vn 0.98353 -0.177275 -0.035262
vn 0.98353 -0.180748 -0
vn 0.994517 -0.102562 -0.020401
vn 0.994517 -0.104571 -0
vn 0.9996 -0.027724 -0.005515
vn 0.9996 -0.028267 -0
vn 0.994403 0.103626 0.020612
vn 0.994403 0.105656 0
vn 0.91817 0.388575 0.077292
vn 0.91817 0.396188 0
vn 0.701607 0.698872 0.139014
vn 0.701607 0.712564 0
vn 0.382652 0.90614 0.180243
vn 0.382652 0.923892 0
vn 0.100028 0.975866 0.194112
vn 0.100028 0.994985 0
vn 0.001144 0.980785 0.19509
vn 0.001144 0.999999 0
vn -0.999998 -0.00185 -0.000368
vn -0.999998 -0.001886 0
vn -0.999998 -0.001886 0
vn -0.999998 -0.00185 -0.000368
vn -0.004186 -0.923915 -0.382576
vn -0.004186 -0.923874 -0.382675
vn 0.99714 -0.069828 -0.028923
vn 0.999306 -0.034409 -0.014249
vn 0.98828 -0.141033 -0.058417
vn 0.97746 -0.19505 -0.080792
vn 0.973278 -0.21215 -0.087875
vn 0.975591 -0.20288 -0.084035
vn 0.98353 -0.166989 -0.069169
vn 0.994517 -0.096612 -0.040018
vn 0.9996 -0.026115 -0.010817
vn 0.994403 0.097613 0.040433
vn 0.91817 0.36603 0.151614
vn 0.701607 0.658323 0.272687
vn 0.382653 0.853565 0.353558
vn 0.100029 0.919246 0.380764
vn 0.001144 0.923879 0.382683
vn -0.999998 -0.001742 -0.000722
vn -0.999998 -0.001742 -0.000722
vn -0.004186 -0.8315 -0.55551
vn -0.004186 -0.831449 -0.555586
vn 0.99714 -0.062844 -0.041991
vn 0.999306 -0.030967 -0.020688
vn 0.98828 -0.126926 -0.084809
vn 0.97746 -0.17554 -0.117292
vn 0.973278 -0.19093 -0.127576
vn 0.975591 -0.182587 -0.122001
vn 0.98353 -0.150286 -0.100418
vn 0.994517 -0.086948 -0.058097
vn 0.9996 -0.023503 -0.015704
vn 0.994403 0.08785 0.058699
vn 0.918169 0.329418 0.22011
vn 0.701607 0.592475 0.39588
vn 0.382653 0.768188 0.513287
vn 0.100029 0.827299 0.552784
vn 0.001144 0.831469 0.55557
vn -0.999998 -0.001568 -0.001048
vn -0.999998 -0.001568 -0.001048
vn -0.004186 -0.707059 -0.707142
vn -0.004186 -0.707077 -0.707124
vn 0.99714 -0.053445 -0.053444
vn 0.999306 -0.026332 -0.026337
vn 0.98828 -0.107942 -0.107942
vn 0.97746 -0.149284 -0.149284
vn 0.973278 -0.162373 -0.162373
vn 0.975591 -0.155277 -0.155277
vn 0.983529 -0.127808 -0.127808
vn 0.994517 -0.073943 -0.073943
vn 0.9996 -0.019988 -0.019988
vn 0.994403 0.07471 0.07471
vn 0.918169 0.280147 0.280147
vn 0.701607 0.503859 0.503859
vn 0.382653 0.65329 0.65329
vn 0.100029 0.70356 0.70356
vn 0.001144 0.707106 0.707106
vn -0.999998 -0.001334 -0.001334
vn -0.999998 -0.001334 -0.001334
vn -0.004186 -0.55553 -0.831486
vn -0.004186 -0.555568 -0.83146
vn 0.99714 -0.041992 -0.062845
vn 0.999306 -0.020688 -0.030965
vn 0.98828 -0.084809 -0.126926
vn 0.97746 -0.117292 -0.17554
vn 0.973278 -0.127575 -0.19093
vn 0.975591 -0.122 -0.182587
vn 0.98353 -0.100418 -0.150286
vn 0.994517 -0.058097 -0.086948
vn 0.9996 -0.015704 -0.023503
vn 0.994403 0.058699 0.08785
vn 0.918169 0.22011 0.329418
vn 0.701607 0.39588 0.592476
vn 0.382653 0.513287 0.768188
vn 0.100029 0.552784 0.827299
vn 0.001144 0.55557 0.831469
vn -0.999998 -0.001048 -0.001568
vn -0.999998 -0.001048 -0.001568
vn -0.004186 -0.382766 -0.923836
vn -0.004186 -0.382693 -0.923866
vn 0.99714 -0.028924 -0.069829
vn 0.999306 -0.014254 -0.034407
vn 0.98828 -0.058418 -0.141032
vn 0.97746 -0.080792 -0.195049
vn 0.973278 -0.087876 -0.21215
vn 0.975591 -0.084035 -0.202878
vn 0.98353 -0.069169 -0.166988
vn 0.994517 -0.040018 -0.096612
vn 0.9996 -0.010817 -0.026115
vn 0.994403 0.040433 0.097613
vn 0.918169 0.151615 0.36603
vn 0.701607 0.272686 0.658323
vn 0.382653 0.353558 0.853565
vn 0.100028 0.380764 0.919246
vn 0.001144 0.382683 0.923879
vn -0.999998 -0.000722 -0.001742
vn -0.999998 -0.000722 -0.001742
vn -0.004186 -0.195207 -0.980753
vn -0.004186 -0.195114 -0.980772
vn 0.99714 -0.014745 -0.07413
vn 0.999306 -0.007272 -0.036525
vn 0.98828 -0.029781 -0.149719
vn 0.97746 -0.041188 -0.207063
vn 0.973278 -0.044798 -0.225216
vn 0.975591 -0.042841 -0.215375
vn 0.983529 -0.035262 -0.177275
vn 0.994517 -0.020401 -0.102562
vn 0.9996 -0.005514 -0.027723
vn 0.994403 0.020612 0.103626
vn 0.918169 0.077292 0.388575
vn 0.701607 0.139015 0.698873
vn 0.382652 0.180243 0.90614
vn 0.100029 0.194112 0.975866
vn 0.001144 0.19509 0.980785
vn -0.999998 -0.000368 -0.00185
vn -0.999998 -0.000368 -0.00185
vn -0.004186 0.00011 -0.999991
vn -0.004186 0.000001 -0.999991
vn 0.99714 -0 -0.075581
vn 0.999306 0.000003 -0.037241
vn 0.98828 0 -0.152652
vn 0.97746 0 -0.21112
vn 0.973278 0 -0.22963
vn 0.975591 0 -0.219595
vn 0.98353 0 -0.180747
vn 0.994517 0 -0.104572
vn 0.9996 0 -0.028268
vn 0.994403 -0 0.105656
vn 0.918169 -0 0.396188
vn 0.701607 -0 0.712564
vn 0.382652 -0 0.923893
vn 0.100028 -0 0.994985
vn 0.001144 -0 0.999999
vn -0.999998 -0 -0.001886
vn -0.999998 0 -0.001886
vn -0.004186 0.195187 -0.980757
vn -0.004186 0.195131 -0.980768
vn 0.99714 0.014745 -0.074129
vn 0.999306 0.007268 -0.036525
vn 0.98828 0.029781 -0.149719
vn 0.97746 0.041187 -0.207063
vn 0.973278 0.044798 -0.225216
vn 0.975591 0.042841 -0.215374
vn 0.98353 0.035262 -0.177274
vn 0.994517 0.020401 -0.102562
vn 0.9996 0.005515 -0.027723
vn 0.994403 -0.020612 0.103626
vn 0.91817 -0.077292 0.388575
vn 0.701607 -0.139014 0.698872
vn 0.382652 -0.180242 0.90614
vn 0.100027 -0.194112 0.975866
vn 0.001144 -0.19509 0.980785
vn -0.999998 0.000368 -0.00185
vn -0.999998 0.000368 -0.00185
vn -0.004186 0.382638 -0.923889
vn -0.004186 0.382722 -0.923854
vn 0.99714 0.028924 -0.069828
vn 0.999306 0.01425 -0.034407
vn 0.98828 0.058418 -0.141032
vn 0.97746 0.080792 -0.195049
vn 0.973278 0.087876 -0.21215
vn 0.975591 0.084035 -0.202879
vn 0.98353 0.069169 -0.166988
vn 0.994517 0.040018 -0.096611
vn 0.9996 0.010817 -0.026115
vn 0.994403 -0.040433 0.097613
vn 0.918169 -0.151614 0.36603
vn 0.701607 -0.272686 0.658323
vn 0.382653 -0.353558 0.853565
vn 0.100028 -0.380764 0.919246
vn 0.001144 -0.382683 0.923879
vn -0.999998 0.000722 -0.001742
vn -0.999998 0.000722 -0.001742
vn -0.004186 0.555455 -0.831536
vn -0.004186 0.555548 -0.831474
vn 0.99714 0.041991 -0.062844
vn 0.999306 0.020685 -0.030968
vn 0.98828 0.084809 -0.126926
vn 0.97746 0.117292 -0.17554
vn 0.973278 0.127576 -0.19093
vn 0.975591 0.122001 -0.182587
vn 0.98353 0.100418 -0.150286
vn 0.994517 0.058097 -0.086948
vn 0.9996 0.015704 -0.023503
vn 0.994403 -0.058699 0.08785
vn 0.91817 -0.22011 0.329418
vn 0.701607 -0.39588 0.592476
vn 0.382653 -0.513287 0.768188
vn 0.100029 -0.552784 0.827299
vn 0.001144 -0.55557 0.831469
vn -0.999998 0.001048 -0.001568
vn -0.999998 0.001048 -0.001568
vn -0.004186 0.706992 -0.707209
vn -0.004186 0.707082 -0.707119
vn 0.99714 0.053445 -0.053445
vn 0.999306 0.026329 -0.026339
vn 0.98828 0.107942 -0.107942
vn 0.97746 0.149284 -0.149284
vn 0.973278 0.162373 -0.162373
vn 0.975591 0.155277 -0.155277
vn 0.98353 0.127808 -0.127808
vn 0.994517 0.073943 -0.073943
vn 0.9996 0.019987 -0.019987
vn 0.994403 -0.07471 0.07471
vn 0.918169 -0.280147 0.280148
vn 0.701606 -0.503859 0.503859
vn 0.382653 -0.65329 0.65329
vn 0.100029 -0.70356 0.70356
vn 0.001144 -0.707106 0.707106
vn -0.999998 0.001334 -0.001334
vn -0.999998 0.001334 -0.001334
vn -0.004186 0.831436 -0.555604
vn -0.004186 0.83145 -0.555584
vn 0.99714 0.062844 -0.041991
vn 0.999306 0.030964 -0.020693
vn 0.98828 0.126926 -0.084809
vn 0.97746 0.17554 -0.117292
vn 0.973278 0.19093 -0.127576
vn 0.975591 0.182587 -0.122
vn 0.98353 0.150286 -0.100418
vn 0.994517 0.086948 -0.058097
vn 0.9996 0.023503 -0.015704
vn 0.994403 -0.08785 0.058699
vn 0.91817 -0.329418 0.22011
vn 0.701607 -0.592475 0.39588
vn 0.382652 -0.768188 0.513287
vn 0.100028 -0.827299 0.552784
vn 0.001144 -0.831469 0.55557
vn -0.999998 0.001568 -0.001048
vn -0.999998 0.001568 -0.001048
vn -0.004186 0.923869 -0.382686
vn -0.004186 0.923877 -0.382666
vn 0.99714 0.069828 -0.028924
vn 0.999306 0.034408 -0.014252
vn 0.98828 0.141033 -0.058418
vn 0.97746 0.19505 -0.080792
vn 0.973278 0.21215 -0.087876
vn 0.975591 0.20288 -0.084036
vn 0.98353 0.166989 -0.069169
vn 0.994517 0.096611 -0.040018
vn 0.9996 0.026115 -0.010817
vn 0.994403 -0.097613 0.040433
vn 0.91817 -0.366029 0.151614
vn 0.701607 -0.658324 0.272686
vn 0.382653 -0.853565 0.353558
vn 0.100029 -0.919246 0.380764
vn 0.001144 -0.923879 0.382683
vn -0.999998 0.001742 -0.000722
vn -0.999998 0.001742 -0.000722
vn -0.004186 0.98078 -0.195074
vn -0.004186 0.980781 -0.195066
vn 0.99714 0.07413 -0.014745
vn 0.999306 0.036525 -0.007264
vn 0.98828 0.149719 -0.029781
vn 0.97746 0.207063 -0.041187
vn 0.973278 0.225218 -0.044798
vn 0.975591 0.215375 -0.042841
vn 0.98353 0.177274 -0.035262
vn 0.994517 0.102562 -0.020401
vn 0.9996 0.027724 -0.005515
vn 0.994403 -0.103626 0.020612
vn 0.91817 -0.388574 0.077292
vn 0.701607 -0.698873 0.139014
vn 0.382652 -0.90614 0.180242
vn 0.100029 -0.975866 0.194112
vn 0.001144 -0.980785 0.19509
vn -0.999998 0.00185 -0.000368
vn -0.999998 0.00185 -0.000368
vn -0.004186 0.999991 -0.00001
vn -0.004186 0.999991 -0.000042
vn 0.99714 0.075581 -0
vn 0.999306 0.037243 0.000001
vn 0.98828 0.152652 0
vn 0.97746 0.21112 -0
vn 0.973278 0.22963 -0
vn 0.975591 0.219596 0
vn 0.983529 0.180748 0
vn 0.994517 0.104571 0
vn 0.9996 0.028267 0
vn 0.994403 -0.105656 -0
vn 0.91817 -0.396188 -0
vn 0.701607 -0.712564 -0
vn 0.382652 -0.923892 -0
vn 0.100028 -0.994985 0
vn 0.001144 -0.999999 0
vn -0.999998 0.001886 -0
vn -0.999998 0.001886 -0
vn -0.004186 0.980753 0.195208
vn -0.004186 0.980776 0.195094
vn 0.99714 0.07413 0.014745
vn 0.999306 0.036525 0.007268
vn 0.98828 0.149719 0.029781
vn 0.97746 0.207063 0.041188
vn 0.973278 0.225217 0.044799
vn 0.975591 0.215376 0.042841
vn 0.983529 0.177275 0.035262
vn 0.994517 0.102562 0.020401
vn 0.9996 0.027723 0.005515
vn 0.994403 -0.103626 -0.020612
vn 0.918169 -0.388575 -0.077292
vn 0.701607 -0.698872 -0.139014
vn 0.382653 -0.90614 -0.180243
vn 0.100029 -0.975866 -0.194112
vn 0.001144 -0.980785 -0.19509
vn -0.999998 0.00185 0.000368
vn -0.999998 0.00185 0.000368
vn -0.004186 0.92379 0.382877
vn -0.004186 0.923852 0.382726
vn 0.99714 0.069828 0.028924
vn 0.999306 0.034404 0.014261
vn 0.98828 0.141032 0.058418
vn 0.97746 0.195049 0.080792
vn 0.973278 0.21215 0.087876
vn 0.975591 0.20288 0.084036
vn 0.98353 0.166989 0.069169
vn 0.994517 0.096611 0.040018
vn 0.9996 0.026115 0.010817
vn 0.994403 -0.097613 -0.040433
vn 0.918169 -0.36603 -0.151614
vn 0.701607 -0.658323 -0.272687
vn 0.382653 -0.853565 -0.353558
vn 0.100028 -0.919246 -0.380764
vn 0.001144 -0.923879 -0.382684
vn -0.999998 0.001742 0.000722
vn -0.999998 0.001742 0.000722
vn -0.004186 0.831579 0.555391
vn -0.004186 0.831474 0.555548
vn 0.99714 0.062844 0.041991
vn 0.999306 0.030971 0.020685
vn 0.98828 0.126926 0.084809
vn 0.97746 0.17554 0.117292
vn 0.973278 0.19093 0.127576
vn 0.975591 0.182586 0.122
vn 0.98353 0.150286 0.100418
vn 0.994517 0.086948 0.058097
vn 0.9996 0.023503 0.015704
vn 0.994403 -0.08785 -0.058699
vn 0.91817 -0.329418 -0.22011
vn 0.701607 -0.592476 -0.395879
vn 0.382652 -0.768188 -0.513287
vn 0.100029 -0.827299 -0.552784
vn 0.001144 -0.831469 -0.55557
vn -0.999998 0.001568 0.001048
vn -0.999998 0.001568 0.001048
vn -0.004186 0.707183 0.707019
vn -0.004186 0.707088 0.707113
vn 0.99714 0.053444 0.053445
vn 0.999306 0.026338 0.026329
vn 0.98828 0.107942 0.107942
vn 0.97746 0.149284 0.149284
vn 0.973278 0.162373 0.162373
vn 0.975591 0.155277 0.155277
vn 0.983529 0.127808 0.127808
vn 0.994517 0.073943 0.073943
vn 0.9996 0.019988 0.019988
vn 0.994403 -0.07471 -0.07471
vn 0.918169 -0.280147 -0.280147
vn 0.701607 -0.503859 -0.503859
vn 0.382653 -0.65329 -0.65329
vn 0.10003 -0.70356 -0.70356
vn 0.001144 -0.707106 -0.707107
vn -0.999998 0.001333 0.001334
vn -0.999998 0.001334 0.001333
vn -0.004186 0.555568 0.831461
vn -0.004186 0.555548 0.831474
vn 0.99714 0.041991 0.062844
vn 0.999306 0.020691 0.030966
vn 0.98828 0.084809 0.126926
vn 0.97746 0.117292 0.17554
vn 0.973278 0.127576 0.19093
vn 0.975591 0.122001 0.182587
vn 0.98353 0.100418 0.150286
vn 0.994517 0.058096 0.086948
vn 0.9996 0.015704 0.023503
vn 0.994403 -0.058699 -0.087849
vn 0.91817 -0.22011 -0.329418
vn 0.701607 -0.395879 -0.592475
vn 0.382653 -0.513287 -0.768188
vn 0.100028 -0.552784 -0.8273
vn 0.001144 -0.55557 -0.831469
vn -0.999998 0.001048 0.001568
vn -0.999998 0.001048 0.001568
vn -0.004186 0.382683 0.92387
vn -0.004186 0.382673 0.923874
vn 0.99714 0.028924 0.069829
vn 0.999306 0.014253 0.034407
vn 0.98828 0.058418 0.141033
vn 0.97746 0.080792 0.195049
vn 0.973278 0.087875 0.21215
vn 0.975591 0.084036 0.202881
vn 0.983529 0.069169 0.16699
vn 0.994517 0.040018 0.096611
vn 0.9996 0.010817 0.026115
vn 0.994403 -0.040433 -0.097613
vn 0.91817 -0.151614 -0.366029
vn 0.701607 -0.272686 -0.658323
vn 0.382652 -0.353558 -0.853566
vn 0.100028 -0.380764 -0.919246
vn 0.001144 -0.382683 -0.923879
vn -0.999998 0.000722 0.001742
vn -0.999998 0.000722 0.001742
vn -0.004186 0.195057 0.980783
vn -0.004186 0.195074 0.98078
vn 0.99714 0.014745 0.074129
vn 0.999306 0.007263 0.036527
vn 0.98828 0.029781 0.149719
vn 0.97746 0.041187 0.207063
vn 0.973278 0.044799 0.225219
vn 0.975591 0.042841 0.215377
vn 0.983529 0.035262 0.177275
vn 0.994517 0.020401 0.102562
vn 0.9996 0.005515 0.027724
vn 0.994403 -0.020612 -0.103626
vn 0.91817 -0.077292 -0.388575
vn 0.701607 -0.139014 -0.698873
vn 0.382652 -0.180242 -0.90614
vn 0.100029 -0.194112 -0.975866
vn 0.001144 -0.19509 -0.980785
vn -0.999998 0.000368 0.00185
vn -0.999998 0.000368 0.00185
vn -0.004186 0.00001 0.999991
vn -0.004186 0.000003 0.999991
vn 0.99714 0 0.075582
vn 0.999306 0 0.037242
vn 0.98828 0 0.152653
vn 0.97746 0 0.21112
vn 0.973278 -0 0.22963
vn 0.975591 -0 0.219595
vn 0.983529 0 0.180748
vn 0.994517 0 0.104571
vn 0.9996 -0 0.028267
vn 0.994403 -0 -0.105656
vn 0.91817 -0 -0.396188
vn 0.701607 -0 -0.712564
vn 0.382652 -0 -0.923892
vn 0.100028 -0 -0.994985
vn 0.001144 -0 -0.999999
vn -0.999998 0 0.001886
vn -0.999998 0 0.001886
vn -0.004186 -0.195059 0.980783
vn -0.004186 -0.195099 0.980775
vn 0.99714 -0.014745 0.07413
vn 0.999306 -0.007263 0.036527
vn 0.98828 -0.029781 0.149719
vn 0.97746 -0.041187 0.207063
vn 0.973278 -0.044799 0.225219
vn 0.975591 -0.042841 0.215376
vn 0.98353 -0.035262 0.177274
vn 0.994517 -0.020401 0.102562
vn 0.9996 -0.005515 0.027724
vn 0.994403 0.020612 -0.103626
vn 0.91817 0.077292 -0.388575
vn 0.701607 0.139014 -0.698873
vn 0.382652 0.180243 -0.90614
vn 0.100028 0.194112 -0.975866
vn 0.001144 0.19509 -0.980785
vn -0.999998 -0.000368 0.00185
vn -0.999998 -0.000368 0.00185
vn -0.004186 -0.382623 0.923895
vn -0.004186 -0.382695 0.923865
vn 0.99714 -0.028924 0.069828
vn 0.999306 -0.014248 0.034408
vn 0.98828 -0.058418 0.141033
vn 0.97746 -0.080792 0.19505
vn 0.973278 -0.087875 0.21215
vn 0.975591 -0.084036 0.202881
vn 0.983529 -0.069169 0.16699
vn 0.994517 -0.040018 0.096611
vn 0.9996 -0.010817 0.026115
vn 0.994403 0.040433 -0.097613
vn 0.91817 0.151615 -0.36603
vn 0.701607 0.272687 -0.658324
vn 0.382653 0.353558 -0.853565
vn 0.100029 0.380764 -0.919246
vn 0.001144 0.382683 -0.923879
vn -0.999998 -0.000722 0.001742
vn -0.999998 -0.000722 0.001742
vn -0.004186 -0.555514 0.831497
vn -0.004186 -0.555556 0.831469
vn 0.99714 -0.04199 0.062843
vn 0.999306 -0.020689 0.030968
vn 0.98828 -0.084809 0.126926
vn 0.97746 -0.117292 0.17554
vn 0.973278 -0.127576 0.19093
vn 0.975591 -0.122001 0.182587
vn 0.98353 -0.100418 0.150286
vn 0.994517 -0.058097 0.086948
vn 0.9996 -0.015704 0.023503
vn 0.994403 0.058699 -0.087849
vn 0.91817 0.22011 -0.329418
vn 0.701607 0.395879 -0.592475
vn 0.382652 0.513287 -0.768188
vn 0.100028 0.552784 -0.827299
vn 0.001144 0.55557 -0.831469
vn -0.999998 -0.001048 0.001568
vn -0.999998 -0.001048 0.001568
vn -0.004186 -0.707101 0.7071
vn -0.004186 -0.707109 0.707093
vn 0.99714 -0.053445 0.053445
vn 0.999306 -0.026334 0.026335
vn 0.98828 -0.107942 0.107942
vn 0.97746 -0.149284 0.149284
vn 0.973278 -0.162373 0.162373
vn 0.975591 -0.155277 0.155277
vn 0.98353 -0.127808 0.127808
vn 0.994517 -0.073943 0.073943
vn 0.9996 -0.019987 0.019987
vn 0.994403 0.07471 -0.07471
vn 0.91817 0.280147 -0.280147
vn 0.701607 0.503859 -0.503859
vn 0.382653 0.653291 -0.65329
vn 0.100028 0.70356 -0.70356
vn 0.001144 0.707106 -0.707106
vn -0.999998 -0.001334 0.001333
vn -0.999998 -0.001334 0.001333
vn -0.004186 -0.831525 0.555472
vn -0.004186 -0.831477 0.555543
vn 0.99714 -0.062843 0.04199
vn 0.999306 -0.030968 0.020687
vn 0.98828 -0.126926 0.084809
vn 0.97746 -0.17554 0.117292
vn 0.973278 -0.19093 0.127576
vn 0.975591 -0.182587 0.122001
vn 0.98353 -0.150286 0.100418
vn 0.994517 -0.086948 0.058097
vn 0.9996 -0.023503 0.015705
vn 0.994403 0.08785 -0.058699
vn 0.91817 0.329418 -0.22011
vn 0.701607 0.592476 -0.39588
vn 0.382653 0.768188 -0.513287
vn 0.100029 0.827299 -0.552784
vn 0.001144 0.831469 -0.55557
vn -0.999998 -0.001568 0.001048
vn -0.999998 -0.001568 0.001048
vn -0.004186 -0.923853 0.382726
vn -0.004186 -0.92387 0.382682
vn 0.99714 -0.069828 0.028924
vn 0.999306 -0.034407 0.014254
vn 0.98828 -0.141032 0.058418
vn 0.97746 -0.195049 0.080792
vn 0.973278 -0.21215 0.087876
vn 0.975591 -0.202879 0.084035
vn 0.98353 -0.166989 0.069169
vn 0.994517 -0.096611 0.040018
vn 0.9996 -0.026115 0.010817
vn 0.994403 0.097613 -0.040433
vn 0.918169 0.36603 -0.151614
vn 0.701607 0.658323 -0.272686
vn 0.382653 0.853565 -0.353558
vn 0.100029 0.919246 -0.380764
vn 0.001144 0.923879 -0.382683
vn -0.999998 -0.001742 0.000722
vn -0.999998 -0.001742 0.000722
vn -0.004186 -0.980781 0.195065
vn -0.004186 -0.980773 0.195106
vn 0.99714 -0.07413 0.014745
vn 0.999306 -0.036526 0.007264
vn 0.98828 -0.149719 0.029781
vn 0.97746 -0.207063 0.041187
vn 0.973278 -0.225218 0.044799
vn 0.975591 -0.215376 0.042841
vn 0.98353 -0.177275 0.035262
vn 0.994517 -0.102562 0.020401
vn 0.9996 -0.027723 0.005515
vn 0.994403 0.103626 -0.020612
vn 0.91817 0.388575 -0.077292
vn 0.701607 0.698872 -0.139014
vn 0.382652 0.90614 -0.180242
vn 0.100028 0.975866 -0.194112
vn 0.001144 0.980785 -0.19509
vn -0.999998 -0.00185 0.000368
vn -0.999998 -0.00185 0.000368
f 3/3/3 2/2/2 1/1/1
f 3/3/3 1/1/1 4/4/4
f 591/591/591 2/2/2 3/3/3
f 4/4/4 1/1/1 39/39/39
f 591/591/591 590/590/590 2/2/2
f 4/4/4 39/39/39 40/40/40
f 572/572/572 590/590/590 591/591/591
f 40/40/40 39/39/39 58/58/58
f 572/572/572 571/571/571 590/590/590
f 40/40/40 58/58/58 59/59/59
f 553/553/553 571/571/571 572/572/572
f 59/59/59 58/58/58 77/77/77
f 553/553/553 552/552/552 571/571/571
f 59/59/59 77/77/77 78/78/78
f 534/534/534 552/552/552 553/553/553
f 78/78/78 77/77/77 96/96/96
f 534/534/534 533/533/533 552/552/552
f 78/78/78 96/96/96 97/97/97
f 515/515/515 533/533/533 534/534/534
f 97/97/97 96/96/96 115/115/115
f 515/515/515 514/514/514 533/533/533
f 97/97/97 115/115/115 116/116/116
f 496/496/496 514/514/514 515/515/515
f 116/116/116 115/115/115 134/134/134
f 496/496/496 495/495/495 514/514/514
f 116/116/116 134/134/134 135/135/135
f 477/477/477 495/495/495 496/496/496
f 135/135/135 134/134/134 153/153/153
f 477/477/477 476/476/476 495/495/495
f 135/135/135 153/153/153 154/154/154
f 458/458/458 476/476/476 477/477/477
f 154/154/154 153/153/153 172/172/172
f 458/458/458 457/457/457 476/476/476
f 154/154/154 172/172/172 173/173/173
f 439/439/439 457/457/457 458/458/458
f 173/173/173 172/172/172 191/191/191
f 439/439/439 438/438/438 457/457/457
f 173/173/173 191/191/191 192/192/192
f 420/420/420 438/438/438 439/439/439
f 192/192/192 191/191/191 210/210/210
f 420/420/420 419/419/419 438/438/438
f 192/192/192 210/210/210 211/211/211
f 401/401/401 419/419/419 420/420/420
f 211/211/211 210/210/210 229/229/229
f 401/401/401 400/400/400 419/419/419
f 211/211/211 229/229/229 230/230/230
f 382/382/382 400/400/400 401/401/401
f 230/230/230 229/229/229 248/248/248
f 382/382/382 381/381/381 400/400/400
f 230/230/230 248/248/248 249/249/249
f 363/363/363 381/381/381 382/382/382
f 249/249/249 248/248/248 267/267/267
f 363/363/363 362/362/362 381/381/381
f 249/249/249 267/267/267 268/268/268
f 344/344/344 362/362/362 363/363/363
f 268/268/268 267/267/267 286/286/286
f 344/344/344 343/343/343 362/362/362
f 268/268/268 286/286/286 287/287/287
f 325/325/325 343/343/343 344/344/344
f 287/287/287 286/286/286 305/305/305
f 325/325/325 324/324/324 343/343/343
f 287/287/287 305/305/305 306/306/306
f 306/306/306 324/324/324 325/325/325
f 306/306/306 305/305/305 324/324/324
f 7/7/7 6/6/6 5/5/5
f 7/7/7 5/5/5 8/8/8
f 593/593/593 6/6/6 7/7/7
f 8/8/8 5/5/5 41/41/41
f 8/8/8 41/41/41 42/42/42
f 593/593/593 592/592/592 6/6/6
f 574/574/574 592/592/592 593/593/593
f 42/42/42 41/41/41 60/60/60
f 42/42/42 60/60/60 61/61/61
f 574/574/574 573/573/573 592/592/592
f 555/555/555 573/573/573 574/574/574
f 61/61/61 60/60/60 79/79/79
f 61/61/61 79/79/79 80/80/80
f 555/555/555 554/554/554 573/573/573
f 536/536/536 554/554/554 555/555/555
f 80/80/80 79/79/79 98/98/98
f 80/80/80 98/98/98 99/99/99
f 536/536/536 535/535/535 554/554/554
f 517/517/517 535/535/535 536/536/536
f 99/99/99 98/98/98 117/117/117
f 99/99/99 117/117/117 118/118/118
f 517/517/517 516/516/516 535/535/535
f 498/498/498 516/516/516 517/517/517
f 118/118/118 117/117/117 136/136/136
f 118/118/118 136/136/136 137/137/137
f 498/498/498 497/497/497 516/516/516
f 479/479/479 497/497/497 498/498/498
f 137/137/137 136/136/136 155/155/155
f 137/137/137 155/155/155 156/156/156
f 479/479/479 478/478/478 497/497/497
f 460/460/460 478/478/478 479/479/479
f 156/156/156 155/155/155 174/174/174
f 156/156/156 174/174/174 175/175/175
f 460/460/460 459/459/459 478/478/478
f 441/441/441 459/459/459 460/460/460
f 175/175/175 174/174/174 193/193/193
f 175/175/175 193/193/193 194/194/194
f 441/441/441 440/440/440 459/459/459
f 422/422/422 440/440/440 441/441/441
f 194/194/194 193/193/193 212/212/212
f 194/194/194 212/212/212 213/213/213
f 422/422/422 421/421/421 440/440/440
f 403/403/403 421/421/421 422/422/422
f 213/213/213 212/212/212 231/231/231
f 213/213/213 231/231/231 232/232/232
f 403/403/403 402/402/402 421/421/421
f 384/384/384 402/402/402 403/403/403
f 232/232/232 231/231/231 250/250/250
f 232/232/232 250/250/250 251/251/251
f 384/384/384 383/383/383 402/402/402
f 365/365/365 383/383/383 384/384/384
f 251/251/251 250/250/250 269/269/269
f 251/251/251 269/269/269 270/270/270
f 365/365/365 364/364/364 383/383/383
f 346/346/346 364/364/364 365/365/365
f 270/270/270 269/269/269 288/288/288
f 270/270/270 288/288/288 289/289/289
f 346/346/346 345/345/345 364/364/364
f 327/327/327 345/345/345 346/346/346
f 289/289/289 288/288/288 307/307/307
f 289/289/289 307/307/307 308/308/308
f 308/308/308 326/326/326 327/327/327
f 308/308/308 307/307/307 326/326/326
f 327/327/327 326/326/326 345/345/345
f 288/288/288 309/309/309 307/307/307
f 307/307/307 328/328/328 326/326/326
f 307/307/307 309/309/309 328/328/328
f 326/326/326 347/347/347 345/345/345
f 326/326/326 328/328/328 347/347/347
f 345/345/345 366/366/366 364/364/364
f 345/345/345 347/347/347 366/366/366
f 364/364/364 385/385/385 383/383/383
f 364/364/364 366/366/366 385/385/385
f 328/328/328 348/348/348 347/347/347
f 383/383/383 385/385/385 404/404/404
f 383/383/383 404/404/404 402/402/402
f 347/347/347 367/367/367 366/366/366
f 347/347/347 348/348/348 367/367/367
f 366/366/366 386/386/386 385/385/385
f 366/366/366 367/367/367 386/386/386
f 385/385/385 405/405/405 404/404/404
f 385/385/385 386/386/386 405/405/405
f 402/402/402 404/404/404 423/423/423
f 402/402/402 423/423/423 421/421/421
f 404/404/404 405/405/405 424/424/424
f 404/404/404 424/424/424 423/423/423
f 421/421/421 423/423/423 442/442/442
f 421/421/421 442/442/442 440/440/440
f 423/423/423 424/424/424 443/443/443
f 423/423/423 443/443/443 442/442/442
f 440/440/440 442/442/442 461/461/461
f 440/440/440 461/461/461 459/459/459
f 442/442/442 443/443/443 462/462/462
f 442/442/442 462/462/462 461/461/461
f 459/459/459 461/461/461 480/480/480
f 459/459/459 480/480/480 478/478/478
f 461/461/461 462/462/462 481/481/481
f 461/461/461 481/481/481 480/480/480
f 478/478/478 480/480/480 499/499/499
f 478/478/478 499/499/499 497/497/497
f 480/480/480 481/481/481 500/500/500
f 480/480/480 500/500/500 499/499/499
f 497/497/497 499/499/499 518/518/518
f 497/497/497 518/518/518 516/516/516
f 499/499/499 500/500/500 519/519/519
f 499/499/499 519/519/519 518/518/518
f 516/516/516 518/518/518 537/537/537
f 516/516/516 537/537/537 535/535/535
f 518/518/518 519/519/519 538/538/538
f 518/518/518 538/538/538 537/537/537
f 535/535/535 537/537/537 556/556/556
f 535/535/535 556/556/556 554/554/554
f 537/537/537 538/538/538 557/557/557
f 537/537/537 557/557/557 556/556/556
f 554/554/554 556/556/556 575/575/575
f 554/554/554 575/575/575 573/573/573
f 556/556/556 557/557/557 576/576/576
f 556/556/556 576/576/576 575/575/575
f 573/573/573 575/575/575 594/594/594
f 573/573/573 594/594/594 592/592/592
f 575/575/575 576/576/576 595/595/595
f 575/575/575 595/595/595 594/594/594
f 592/592/592 594/594/594 10/10/10
f 592/592/592 10/10/10 6/6/6
f 594/594/594 595/595/595 12/12/12
f 594/594/594 12/12/12 10/10/10
f 6/6/6 10/10/10 9/9/9
f 6/6/6 9/9/9 5/5/5
f 10/10/10 12/12/12 11/11/11
f 10/10/10 11/11/11 9/9/9
f 5/5/5 9/9/9 43/43/43
f 5/5/5 43/43/43 41/41/41
f 9/9/9 11/11/11 44/44/44
f 9/9/9 44/44/44 43/43/43
f 41/41/41 43/43/43 62/62/62
f 41/41/41 62/62/62 60/60/60
f 43/43/43 44/44/44 63/63/63
f 43/43/43 63/63/63 62/62/62
f 60/60/60 62/62/62 81/81/81
f 60/60/60 81/81/81 79/79/79
f 62/62/62 63/63/63 82/82/82
f 62/62/62 82/82/82 81/81/81
f 79/79/79 81/81/81 100/100/100
f 79/79/79 100/100/100 98/98/98
f 81/81/81 82/82/82 101/101/101
f 81/81/81 101/101/101 100/100/100
f 98/98/98 100/100/100 119/119/119
f 98/98/98 119/119/119 117/117/117
f 100/100/100 101/101/101 120/120/120
f 100/100/100 120/120/120 119/119/119
f 117/117/117 119/119/119 138/138/138
f 117/117/117 138/138/138 136/136/136
f 119/119/119 120/120/120 139/139/139
f 119/119/119 139/139/139 138/138/138
f 136/136/136 138/138/138 157/157/157
f 136/136/136 157/157/157 155/155/155
f 138/138/138 139/139/139 158/158/158
f 138/138/138 158/158/158 157/157/157
f 155/155/155 157/157/157 176/176/176
f 155/155/155 176/176/176 174/174/174
f 157/157/157 158/158/158 177/177/177
f 157/157/157 177/177/177 176/176/176
f 174/174/174 176/176/176 195/195/195
f 174/174/174 195/195/195 193/193/193
f 176/176/176 177/177/177 196/196/196
f 176/176/176 196/196/196 195/195/195
f 193/193/193 195/195/195 214/214/214
f 193/193/193 214/214/214 212/212/212
f 195/195/195 196/196/196 215/215/215
f 195/195/195 215/215/215 214/214/214
f 212/212/212 214/214/214 233/233/233
f 212/212/212 233/233/233 231/231/231
f 214/214/214 215/215/215 234/234/234
f 214/214/214 234/234/234 233/233/233
f 231/231/231 233/233/233 252/252/252
f 231/231/231 252/252/252 250/250/250
f 233/233/233 234/234/234 253/253/253
f 233/233/233 253/253/253 252/252/252
f 250/250/250 252/252/252 271/271/271
f 250/250/250 271/271/271 269/269/269
f 252/252/252 253/253/253 272/272/272
f 252/252/252 272/272/272 271/271/271
f 269/269/269 271/271/271 290/290/290
f 269/269/269 290/290/290 288/288/288
f 288/288/288 290/290/290 309/309/309
f 271/271/271 272/272/272 291/291/291
f 271/271/271 291/291/291 290/290/290
f 290/290/290 310/310/310 309/309/309
f 290/290/290 291/291/291 310/310/310
f 309/309/309 310/310/310 329/329/329
f 309/309/309 329/329/329 328/328/328
f 328/328/328 329/329/329 348/348/348
f 291/291/291 311/311/311 310/310/310
f 310/310/310 330/330/330 329/329/329
f 310/310/310 311/311/311 330/330/330
f 329/329/329 349/349/349 348/348/348
f 329/329/329 330/330/330 349/349/349
f 291/291/291 292/292/292 311/311/311
f 272/272/272 292/292/292 291/291/291
f 348/348/348 349/349/349 368/368/368
f 348/348/348 368/368/368 367/367/367
f 272/272/272 273/273/273 292/292/292
f 253/253/253 273/273/273 272/272/272
f 367/367/367 368/368/368 387/387/387
f 367/367/367 387/387/387 386/386/386
f 253/253/253 254/254/254 273/273/273
f 234/234/234 254/254/254 253/253/253
f 386/386/386 387/387/387 406/406/406
f 386/386/386 406/406/406 405/405/405
f 234/234/234 235/235/235 254/254/254
f 215/215/215 235/235/235 234/234/234
f 405/405/405 406/406/406 425/425/425
f 405/405/405 425/425/425 424/424/424
f 215/215/215 216/216/216 235/235/235
f 196/196/196 216/216/216 215/215/215
f 424/424/424 425/425/425 444/444/444
f 424/424/424 444/444/444 443/443/443
f 196/196/196 197/197/197 216/216/216
f 177/177/177 197/197/197 196/196/196
f 443/443/443 444/444/444 463/463/463
f 443/443/443 463/463/463 462/462/462
f 177/177/177 178/178/178 197/197/197
f 158/158/158 178/178/178 177/177/177
f 462/462/462 463/463/463 482/482/482
f 462/462/462 482/482/482 481/481/481
f 158/158/158 159/159/159 178/178/178
f 139/139/139 159/159/159 158/158/158
f 481/481/481 482/482/482 501/501/501
f 481/481/481 501/501/501 500/500/500
f 139/139/139 140/140/140 159/159/159
f 120/120/120 140/140/140 139/139/139
f 500/500/500 501/501/501 520/520/520
f 500/500/500 520/520/520 519/519/519
f 120/120/120 121/121/121 140/140/140
f 101/101/101 121/121/121 120/120/120
f 519/519/519 520/520/520 539/539/539
f 519/519/519 539/539/539 538/538/538
f 101/101/101 102/102/102 121/121/121
f 82/82/82 102/102/102 101/101/101
f 538/538/538 539/539/539 558/558/558
f 538/538/538 558/558/558 557/557/557
f 82/82/82 83/83/83 102/102/102
f 63/63/63 83/83/83 82/82/82
f 557/557/557 558/558/558 577/577/577
f 557/557/557 577/577/577 576/576/576
f 63/63/63 64/64/64 83/83/83
f 44/44/44 64/64/64 63/63/63
f 576/576/576 577/577/577 596/596/596
f 576/576/576 596/596/596 595/595/595
f 44/44/44 45/45/45 64/64/64
f 11/11/11 45/45/45 44/44/44
f 595/595/595 596/596/596 14/14/14
f 595/595/595 14/14/14 12/12/12
f 12/12/12 13/13/13 11/11/11
f 12/12/12 14/14/14 13/13/13
f 11/11/11 13/13/13 45/45/45
f 596/596/596 16/16/16 14/14/14
f 14/14/14 15/15/15 13/13/13
f 14/14/14 16/16/16 15/15/15
f 13/13/13 46/46/46 45/45/45
f 13/13/13 15/15/15 46/46/46
f 45/45/45 65/65/65 64/64/64
f 45/45/45 46/46/46 65/65/65
f 64/64/64 84/84/84 83/83/83
f 64/64/64 65/65/65 84/84/84
f 15/15/15 47/47/47 46/46/46
f 83/83/83 84/84/84 103/103/103
f 83/83/83 103/103/103 102/102/102
f 46/46/46 66/66/66 65/65/65
f 46/46/46 47/47/47 66/66/66
f 65/65/65 85/85/85 84/84/84
f 65/65/65 66/66/66 85/85/85
f 84/84/84 104/104/104 103/103/103
f 84/84/84 85/85/85 104/104/104
f 102/102/102 103/103/103 122/122/122
f 102/102/102 122/122/122 121/121/121
f 103/103/103 104/104/104 123/123/123
f 103/103/103 123/123/123 122/122/122
f 121/121/121 122/122/122 141/141/141
f 121/121/121 141/141/141 140/140/140
f 122/122/122 123/123/123 142/142/142
f 122/122/122 142/142/142 141/141/141
f 140/140/140 141/141/141 160/160/160
f 140/140/140 160/160/160 159/159/159
f 141/141/141 142/142/142 161/161/161
f 141/141/141 161/161/161 160/160/160
f 159/159/159 160/160/160 179/179/179
f 159/159/159 179/179/179 178/178/178
f 160/160/160 161/161/161 180/180/180
f 160/160/160 180/180/180 179/179/179
f 178/178/178 179/179/179 198/198/198
f 178/178/178 198/198/198 197/197/197
f 179/179/179 180/180/180 199/199/199
f 179/179/179 199/199/199 198/198/198
f 197/197/197 198/198/198 217/217/217
f 197/197/197 217/217/217 216/216/216
f 198/198/198 199/199/199 218/218/218
f 198/198/198 218/218/218 217/217/217
f 216/216/216 217/217/217 236/236/236
f 216/216/216 236/236/236 235/235/235
f 217/217/217 218/218/218 237/237/237
f 217/217/217 237/237/237 236/236/236
f 235/235/235 236/236/236 255/255/255
f 235/235/235 255/255/255 254/254/254
f 236/236/236 237/237/237 256/256/256
f 236/236/236 256/256/256 255/255/255
f 254/254/254 255/255/255 274/274/274
f 254/254/254 274/274/274 273/273/273
f 255/255/255 256/256/256 275/275/275
f 255/255/255 275/275/275 274/274/274
f 273/273/273 274/274/274 293/293/293
f 273/273/273 293/293/293 292/292/292
f 274/274/274 275/275/275 294/294/294
f 274/274/274 294/294/294 293/293/293
f 292/292/292 293/293/293 312/312/312
f 292/292/292 312/312/312 311/311/311
f 293/293/293 294/294/294 313/313/313
f 293/293/293 313/313/313 312/312/312
f 311/311/311 312/312/312 331/331/331
f 311/311/311 331/331/331 330/330/330
f 312/312/312 313/313/313 332/332/332
f 312/312/312 332/332/332 331/331/331
f 330/330/330 331/331/331 350/350/350
f 330/330/330 350/350/350 349/349/349
f 331/331/331 332/332/332 351/351/351
f 331/331/331 351/351/351 350/350/350
f 349/349/349 350/350/350 369/369/369
f 349/349/349 369/369/369 368/368/368
f 350/350/350 351/351/351 370/370/370
f 350/350/350 370/370/370 369/369/369
f 368/368/368 369/369/369 388/388/388
f 368/368/368 388/388/388 387/387/387
f 369/369/369 370/370/370 389/389/389
f 369/369/369 389/389/389 388/388/388
f 387/387/387 388/388/388 407/407/407
f 387/387/387 407/407/407 406/406/406
f 388/388/388 389/389/389 408/408/408
f 388/388/388 408/408/408 407/407/407
f 406/406/406 407/407/407 426/426/426
f 406/406/406 426/426/426 425/425/425
f 407/407/407 408/408/408 427/427/427
f 407/407/407 427/427/427 426/426/426
f 425/425/425 426/426/426 445/445/445
f 425/425/425 445/445/445 444/444/444
f 426/426/426 427/427/427 446/446/446
f 426/426/426 446/446/446 445/445/445
f 444/444/444 445/445/445 464/464/464
f 444/444/444 464/464/464 463/463/463
f 445/445/445 446/446/446 465/465/465
f 445/445/445 465/465/465 464/464/464
f 463/463/463 464/464/464 483/483/483
f 463/463/463 483/483/483 482/482/482
f 464/464/464 465/465/465 484/484/484
f 464/464/464 484/484/484 483/483/483
f 482/482/482 483/483/483 502/502/502
f 482/482/482 502/502/502 501/501/501
f 483/483/483 484/484/484 503/503/503
f 483/483/483 503/503/503 502/502/502
f 501/501/501 502/502/502 521/521/521
f 501/501/501 521/521/521 520/520/520
f 502/502/502 503/503/503 522/522/522
f 502/502/502 522/522/522 521/521/521
f 520/520/520 521/521/521 540/540/540
f 520/520/520 540/540/540 539/539/539
f 521/521/521 522/522/522 541/541/541
f 521/521/521 541/541/541 540/540/540
f 539/539/539 540/540/540 559/559/559
f 539/539/539 559/559/559 558/558/558
f 540/540/540 541/541/541 560/560/560
f 540/540/540 560/560/560 559/559/559
f 558/558/558 559/559/559 578/578/578
f 558/558/558 578/578/578 577/577/577
f 559/559/559 560/560/560 579/579/579
f 559/559/559 579/579/579 578/578/578
f 577/577/577 578/578/578 597/597/597
f 577/577/577 597/597/597 596/596/596
f 596/596/596 597/597/597 16/16/16
f 578/578/578 579/579/579 598/598/598
f 578/578/578 598/598/598 597/597/597
f 597/597/597 18/18/18 16/16/16
f 597/597/597 598/598/598 18/18/18
f 16/16/16 18/18/18 17/17/17
f 16/16/16 17/17/17 15/15/15
f 15/15/15 17/17/17 47/47/47
f 598/598/598 20/20/20 18/18/18
f 18/18/18 19/19/19 17/17/17
f 18/18/18 20/20/20 19/19/19
f 17/17/17 48/48/48 47/47/47
f 17/17/17 19/19/19 48/48/48
f 598/598/598 599/599/599 20/20/20
f 579/579/579 599/599/599 598/598/598
f 47/47/47 48/48/48 67/67/67
f 47/47/47 67/67/67 66/66/66
f 579/579/579 580/580/580 599/599/599
f 560/560/560 580/580/580 579/579/579
f 66/66/66 67/67/67 86/86/86
f 66/66/66 86/86/86 85/85/85
f 560/560/560 561/561/561 580/580/580
f 541/541/541 561/561/561 560/560/560
f 85/85/85 86/86/86 105/105/105
f 85/85/85 105/105/105 104/104/104
f 541/541/541 542/542/542 561/561/561
f 522/522/522 542/542/542 541/541/541
f 104/104/104 105/105/105 124/124/124
f 104/104/104 124/124/124 123/123/123
f 522/522/522 523/523/523 542/542/542
f 503/503/503 523/523/523 522/522/522
f 123/123/123 124/124/124 143/143/143
f 123/123/123 143/143/143 142/142/142
f 503/503/503 504/504/504 523/523/523
f 484/484/484 504/504/504 503/503/503
f 142/142/142 143/143/143 162/162/162
f 142/142/142 162/162/162 161/161/161
f 484/484/484 485/485/485 504/504/504
f 465/465/465 485/485/485 484/484/484
f 161/161/161 162/162/162 181/181/181
f 161/161/161 181/181/181 180/180/180
f 465/465/465 466/466/466 485/485/485
f 446/446/446 466/466/466 465/465/465
f 180/180/180 181/181/181 200/200/200
f 180/180/180 200/200/200 199/199/199
f 446/446/446 447/447/447 466/466/466
f 427/427/427 447/447/447 446/446/446
f 199/199/199 200/200/200 219/219/219
f 199/199/199 219/219/219 218/218/218
f 427/427/427 428/428/428 447/447/447
f 408/408/408 428/428/428 427/427/427
f 218/218/218 219/219/219 238/238/238
f 218/218/218 238/238/238 237/237/237
f 408/408/408 409/409/409 428/428/428
f 389/389/389 409/409/409 408/408/408
f 237/237/237 238/238/238 257/257/257
f 237/237/237 257/257/257 256/256/256
f 389/389/389 390/390/390 409/409/409
f 370/370/370 390/390/390 389/389/389
f 256/256/256 257/257/257 276/276/276
f 256/256/256 276/276/276 275/275/275
f 370/370/370 371/371/371 390/390/390
f 351/351/351 371/371/371 370/370/370
f 275/275/275 276/276/276 295/295/295
f 275/275/275 295/295/295 294/294/294
f 351/351/351 352/352/352 371/371/371
f 332/332/332 352/352/352 351/351/351
f 294/294/294 295/295/295 314/314/314
f 294/294/294 314/314/314 313/313/313
f 313/313/313 333/333/333 332/332/332
f 313/313/313 314/314/314 333/333/333
f 332/332/332 333/333/333 352/352/352
f 295/295/295 315/315/315 314/314/314
f 314/314/314 334/334/334 333/333/333
f 314/314/314 315/315/315 334/334/334
f 333/333/333 353/353/353 352/352/352
f 333/333/333 334/334/334 353/353/353
f 352/352/352 372/372/372 371/371/371
f 352/352/352 353/353/353 372/372/372
f 371/371/371 391/391/391 390/390/390
f 371/371/371 372/372/372 391/391/391
f 334/334/334 354/354/354 353/353/353
f 390/390/390 391/391/391 410/410/410
f 390/390/390 410/410/410 409/409/409
f 353/353/353 373/373/373 372/372/372
f 353/353/353 354/354/354 373/373/373
f 372/372/372 392/392/392 391/391/391
f 372/372/372 373/373/373 392/392/392
f 391/391/391 411/411/411 410/410/410
f 391/391/391 392/392/392 411/411/411
f 409/409/409 410/410/410 429/429/429
f 409/409/409 429/429/429 428/428/428
f 410/410/410 411/411/411 430/430/430
f 410/410/410 430/430/430 429/429/429
f 428/428/428 429/429/429 448/448/448
f 428/428/428 448/448/448 447/447/447
f 429/429/429 430/430/430 449/449/449
f 429/429/429 449/449/449 448/448/448
f 447/447/447 448/448/448 467/467/467
f 447/447/447 467/467/467 466/466/466
f 448/448/448 449/449/449 468/468/468
f 448/448/448 468/468/468 467/467/467
f 466/466/466 467/467/467 486/486/486
f 466/466/466 486/486/486 485/485/485
f 467/467/467 468/468/468 487/487/487
f 467/467/467 487/487/487 486/486/486
f 485/485/485 486/486/486 505/505/505
f 485/485/485 505/505/505 504/504/504
f 486/486/486 487/487/487 506/506/506
f 486/486/486 506/506/506 505/505/505
f 504/504/504 505/505/505 524/524/524
f 504/504/504 524/524/524 523/523/523
f 505/505/505 506/506/506 525/525/525
f 505/505/505 525/525/525 524/524/524
f 523/523/523 524/524/524 543/543/543
f 523/523/523 543/543/543 542/542/542
f 524/524/524 525/525/525 544/544/544
f 524/524/524 544/544/544 543/543/543
f 542/542/542 543/543/543 562/562/562
f 542/542/542 562/562/562 561/561/561
f 543/543/543 544/544/544 563/563/563
f 543/543/543 563/563/563 562/562/562
f 561/561/561 562/562/562 581/581/581
f 561/561/561 581/581/581 580/580/580
f 562/562/562 563/563/563 582/582/582
f 562/562/562 582/582/582 581/581/581
f 580/580/580 581/581/581 600/600/600
f 580/580/580 600/600/600 599/599/599
f 581/581/581 582/582/582 601/601/601
f 581/581/581 601/601/601 600/600/600
f 599/599/599 600/600/600 22/22/22
f 599/599/599 22/22/22 20/20/20
f 600/600/600 601/601/601 24/24/24
f 600/600/600 24/24/24 22/22/22
f 20/20/20 22/22/22 21/21/21
f 20/20/20 21/21/21 19/19/19
f 22/22/22 24/24/24 23/23/23
f 22/22/22 23/23/23 21/21/21
f 19/19/19 21/21/21 49/49/49
f 19/19/19 49/49/49 48/48/48
f 21/21/21 23/23/23 50/50/50
f 21/21/21 50/50/50 49/49/49
f 48/48/48 49/49/49 68/68/68
f 48/48/48 68/68/68 67/67/67
f 49/49/49 50/50/50 69/69/69
f 49/49/49 69/69/69 68/68/68
f 67/67/67 68/68/68 87/87/87
f 67/67/67 87/87/87 86/86/86
f 68/68/68 69/69/69 88/88/88
f 68/68/68 88/88/88 87/87/87
f 86/86/86 87/87/87 106/106/106
f 86/86/86 106/106/106 105/105/105
f 87/87/87 88/88/88 107/107/107
f 87/87/87 107/107/107 106/106/106
f 105/105/105 106/106/106 125/125/125
f 105/105/105 125/125/125 124/124/124
f 106/106/106 107/107/107 126/126/126
f 106/106/106 126/126/126 125/125/125
f 124/124/124 125/125/125 144/144/144
f 124/124/124 144/144/144 143/143/143
f 125/125/125 126/126/126 145/145/145
f 125/125/125 145/145/145 144/144/144
f 143/143/143 144/144/144 163/163/163
f 143/143/143 163/163/163 162/162/162
f 144/144/144 145/145/145 164/164/164
f 144/144/144 164/164/164 163/163/163
f 162/162/162 163/163/163 182/182/182
f 162/162/162 182/182/182 181/181/181
f 163/163/163 164/164/164 183/183/183
f 163/163/163 183/183/183 182/182/182
f 181/181/181 182/182/182 201/201/201
f 181/181/181 201/201/201 200/200/200
f 182/182/182 183/183/183 202/202/202
f 182/182/182 202/202/202 201/201/201
f 200/200/200 201/201/201 220/220/220
f 200/200/200 220/220/220 219/219/219
f 201/201/201 202/202/202 221/221/221
f 201/201/201 221/221/221 220/220/220
f 219/219/219 220/220/220 239/239/239
f 219/219/219 239/239/239 238/238/238
f 220/220/220 221/221/221 240/240/240
f 220/220/220 240/240/240 239/239/239
f 238/238/238 239/239/239 258/258/258
f 238/238/238 258/258/258 257/257/257
f 239/239/239 240/240/240 259/259/259
f 239/239/239 259/259/259 258/258/258
f 257/257/257 258/258/258 277/277/277
f 257/257/257 277/277/277 276/276/276
f 258/258/258 259/259/259 278/278/278
f 258/258/258 278/278/278 277/277/277
f 276/276/276 277/277/277 296/296/296
f 276/276/276 296/296/296 295/295/295
f 295/295/295 296/296/296 315/315/315
f 277/277/277 278/278/278 297/297/297
f 277/277/277 297/297/297 296/296/296
f 296/296/296 316/316/316 315/315/315
f 296/296/296 297/297/297 316/316/316
f 315/315/315 316/316/316 335/335/335
f 315/315/315 335/335/335 334/334/334
f 334/334/334 335/335/335 354/354/354
f 297/297/297 317/317/317 316/316/316
f 316/316/316 336/336/336 335/335/335
f 316/316/316 317/317/317 336/336/336
f 335/335/335 355/355/355 354/354/354
f 335/335/335 336/336/336 355/355/355
f 297/297/297 298/298/298 317/317/317
f 278/278/278 298/298/298 297/297/297
f 354/354/354 355/355/355 374/374/374
f 354/354/354 374/374/374 373/373/373
f 278/278/278 279/279/279 298/298/298
f 259/259/259 279/279/279 278/278/278
f 373/373/373 374/374/374 393/393/393
f 373/373/373 393/393/393 392/392/392
f 259/259/259 260/260/260 279/279/279
f 240/240/240 260/260/260 259/259/259
f 392/392/392 393/393/393 412/412/412
f 392/392/392 412/412/412 411/411/411
f 240/240/240 241/241/241 260/260/260
f 221/221/221 241/241/241 240/240/240
f 411/411/411 412/412/412 431/431/431
f 411/411/411 431/431/431 430/430/430
f 221/221/221 222/222/222 241/241/241
f 202/202/202 222/222/222 221/221/221
f 430/430/430 431/431/431 450/450/450
f 430/430/430 450/450/450 449/449/449
f 202/202/202 203/203/203 222/222/222
f 183/183/183 203/203/203 202/202/202
f 449/449/449 450/450/450 469/469/469
f 449/449/449 469/469/469 468/468/468
f 183/183/183 184/184/184 203/203/203
f 164/164/164 184/184/184 183/183/183
f 468/468/468 469/469/469 488/488/488
f 468/468/468 488/488/488 487/487/487
f 164/164/164 165/165/165 184/184/184
f 145/145/145 165/165/165 164/164/164
f 487/487/487 488/488/488 507/507/507
f 487/487/487 507/507/507 506/506/506
f 145/145/145 146/146/146 165/165/165
f 126/126/126 146/146/146 145/145/145
f 506/506/506 507/507/507 526/526/526
f 506/506/506 526/526/526 525/525/525
f 126/126/126 127/127/127 146/146/146
f 107/107/107 127/127/127 126/126/126
f 525/525/525 526/526/526 545/545/545
f 525/525/525 545/545/545 544/544/544
f 107/107/107 108/108/108 127/127/127
f 88/88/88 108/108/108 107/107/107
f 544/544/544 545/545/545 564/564/564
f 544/544/544 564/564/564 563/563/563
f 88/88/88 89/89/89 108/108/108
f 69/69/69 89/89/89 88/88/88
f 563/563/563 564/564/564 583/583/583
f 563/563/563 583/583/583 582/582/582
f 69/69/69 70/70/70 89/89/89
f 50/50/50 70/70/70 69/69/69
f 582/582/582 583/583/583 602/602/602
f 582/582/582 602/602/602 601/601/601
f 50/50/50 51/51/51 70/70/70
f 23/23/23 51/51/51 50/50/50
f 601/601/601 602/602/602 26/26/26
f 601/601/601 26/26/26 24/24/24
f 24/24/24 25/25/25 23/23/23
f 24/24/24 26/26/26 25/25/25
f 23/23/23 25/25/25 51/51/51
f 602/602/602 28/28/28 26/26/26
f 26/26/26 27/27/27 25/25/25
f 26/26/26 28/28/28 27/27/27
f 25/25/25 52/52/52 51/51/51
f 25/25/25 27/27/27 52/52/52
f 51/51/51 71/71/71 70/70/70
f 51/51/51 52/52/52 71/71/71
f 70/70/70 90/90/90 89/89/89
f 70/70/70 71/71/71 90/90/90
f 27/27/27 53/53/53 52/52/52
f 89/89/89 90/90/90 109/109/109
f 89/89/89 109/109/109 108/108/108
f 52/52/52 72/72/72 71/71/71
f 52/52/52 53/53/53 72/72/72
f 71/71/71 91/91/91 90/90/90
f 71/71/71 72/72/72 91/91/91
f 90/90/90 110/110/110 109/109/109
f 90/90/90 91/91/91 110/110/110
f 108/108/108 109/109/109 128/128/128
f 108/108/108 128/128/128 127/127/127
f 109/109/109 110/110/110 129/129/129
f 109/109/109 129/129/129 128/128/128
f 127/127/127 128/128/128 147/147/147
f 127/127/127 147/147/147 146/146/146
f 128/128/128 129/129/129 148/148/148
f 128/128/128 148/148/148 147/147/147
f 146/146/146 147/147/147 166/166/166
f 146/146/146 166/166/166 165/165/165
f 147/147/147 148/148/148 167/167/167
f 147/147/147 167/167/167 166/166/166
f 165/165/165 166/166/166 185/185/185
f 165/165/165 185/185/185 184/184/184
f 166/166/166 167/167/167 186/186/186
f 166/166/166 186/186/186 185/185/185
f 184/184/184 185/185/185 204/204/204
f 184/184/184 204/204/204 203/203/203
f 185/185/185 186/186/186 205/205/205
f 185/185/185 205/205/205 204/204/204
f 203/203/203 204/204/204 223/223/223
f 203/203/203 223/223/223 222/222/222
f 204/204/204 205/205/205 224/224/224
f 204/204/204 224/224/224 223/223/223
f 222/222/222 223/223/223 242/242/242
f 222/222/222 242/242/242 241/241/241
f 223/223/223 224/224/224 243/243/243
f 223/223/223 243/243/243 242/242/242
f 241/241/241 242/242/242 261/261/261
f 241/241/241 261/261/261 260/260/260
f 242/242/242 243/243/243 262/262/262
f 242/242/242 262/262/262 261/261/261
f 260/260/260 261/261/261 280/280/280
f 260/260/260 280/280/280 279/279/279
f 261/261/261 262/262/262 281/281/281
f 261/261/261 281/281/281 280/280/280
f 279/279/279 280/280/280 299/299/299
f 279/279/279 299/299/299 298/298/298
f 280/280/280 281/281/281 300/300/300
f 280/280/280 300/300/300 299/299/299
f 298/298/298 299/299/299 318/318/318
f 298/298/298 318/318/318 317/317/317
f 299/299/299 300/300/300 319/319/319
f 299/299/299 319/319/319 318/318/318
f 317/317/317 318/318/318 337/337/337
f 317/317/317 337/337/337 336/336/336
f 318/318/318 319/319/319 338/338/338
f 318/318/318 338/338/338 337/337/337
f 336/336/336 337/337/337 356/356/356
f 336/336/336 356/356/356 355/355/355
f 337/337/337 338/338/338 357/357/357
f 337/337/337 357/357/357 356/356/356
f 355/355/355 356/356/356 375/375/375
f 355/355/355 375/375/375 374/374/374
f 356/356/356 357/357/357 376/376/376
f 356/356/356 376/376/376 375/375/375
f 374/374/374 375/375/375 394/394/394
f 374/374/374 394/394/394 393/393/393
f 375/375/375 376/376/376 395/395/395
f 375/375/375 395/395/395 394/394/394
f 393/393/393 394/394/394 413/413/413
f 393/393/393 413/413/413 412/412/412
f 394/394/394 395/395/395 414/414/414
f 394/394/394 414/414/414 413/413/413
f 412/412/412 413/413/413 432/432/432
f 412/412/412 432/432/432 431/431/431
f 413/413/413 414/414/414 433/433/433
f 413/413/413 433/433/433 432/432/432
f 431/431/431 432/432/432 451/451/451
f 431/431/431 451/451/451 450/450/450
f 432/432/432 433/433/433 452/452/452
f 432/432/432 452/452/452 451/451/451
f 450/450/450 451/451/451 470/470/470
f 450/450/450 470/470/470 469/469/469
f 451/451/451 452/452/452 471/471/471
f 451/451/451 471/471/471 470/470/470
f 469/469/469 470/470/470 489/489/489
f 469/469/469 489/489/489 488/488/488
f 470/470/470 471/471/471 490/490/490
f 470/470/470 490/490/490 489/489/489
f 488/488/488 489/489/489 508/508/508
f 488/488/488 508/508/508 507/507/507
f 489/489/489 490/490/490 509/509/509
f 489/489/489 509/509/509 508/508/508
f 507/507/507 508/508/508 527/527/527
f 507/507/507 527/527/527 526/526/526
f 508/508/508 509/509/509 528/528/528
f 508/508/508 528/528/528 527/527/527
f 526/526/526 527/527/527 546/546/546
f 526/526/526 546/546/546 545/545/545
f 527/527/527 528/528/528 547/547/547
f 527/527/527 547/547/547 546/546/546
f 545/545/545 546/546/546 565/565/565
f 545/545/545 565/565/565 564/564/564
f 546/546/546 547/547/547 566/566/566
f 546/546/546 566/566/566 565/565/565
f 564/564/564 565/565/565 584/584/584
f 564/564/564 584/584/584 583/583/583
f 565/565/565 566/566/566 585/585/585
f 565/565/565 585/585/585 584/584/584
f 583/583/583 584/584/584 603/603/603
f 583/583/583 603/603/603 602/602/602
f 602/602/602 603/603/603 28/28/28
f 584/584/584 585/585/585 604/604/604
f 584/584/584 604/604/604 603/603/603
f 603/603/603 30/30/30 28/28/28
f 603/603/603 604/604/604 30/30/30
f 28/28/28 30/30/30 29/29/29
f 28/28/28 29/29/29 27/27/27
f 27/27/27 29/29/29 53/53/53
f 604/604/604 32/32/32 30/30/30
f 30/30/30 31/31/31 29/29/29
f 30/30/30 32/32/32 31/31/31
f 29/29/29 54/54/54 53/53/53
f 29/29/29 31/31/31 54/54/54
f 604/604/604 605/605/605 32/32/32
f 585/585/585 605/605/605 604/604/604
f 32/32/32 33/33/33 31/31/31
f 31/31/31 33/33/33 55/55/55
f 31/31/31 55/55/55 54/54/54
f 32/32/32 34/34/34 33/33/33
f 605/605/605 34/34/34 32/32/32
f 54/54/54 55/55/55 74/74/74
f 605/605/605 606/606/606 34/34/34
f 54/54/54 74/74/74 73/73/73
f 53/53/53 54/54/54 73/73/73
f 73/73/73 74/74/74 93/93/93
f 53/53/53 73/73/73 72/72/72
f 586/586/586 606/606/606 605/605/605
f 585/585/585 586/586/586 605/605/605
f 566/566/566 586/586/586 585/585/585
f 586/586/586 587/587/587 606/606/606
f 72/72/72 73/73/73 92/92/92
f 73/73/73 93/93/93 92/92/92
f 72/72/72 92/92/92 91/91/91
f 92/92/92 93/93/93 112/112/112
f 567/567/567 587/587/587 586/586/586
f 566/566/566 567/567/567 586/586/586
f 547/547/547 567/567/567 566/566/566
f 567/567/567 568/568/568 587/587/587
f 92/92/92 112/112/112 111/111/111
f 91/91/91 92/92/92 111/111/111
f 111/111/111 112/112/112 131/131/131
f 91/91/91 111/111/111 110/110/110
f 548/548/548 568/568/568 567/567/567
f 547/547/547 548/548/548 567/567/567
f 548/548/548 549/549/549 568/568/568
f 528/528/528 548/548/548 547/547/547
f 110/110/110 111/111/111 130/130/130
f 111/111/111 131/131/131 130/130/130
f 110/110/110 130/130/130 129/129/129
f 130/130/130 131/131/131 150/150/150
f 528/528/528 529/529/529 548/548/548
f 529/529/529 549/549/549 548/548/548
f 509/509/509 529/529/529 528/528/528
f 529/529/529 530/530/530 549/549/549
f 130/130/130 150/150/150 149/149/149
f 129/129/129 130/130/130 149/149/149
f 149/149/149 150/150/150 169/169/169
f 129/129/129 149/149/149 148/148/148
f 510/510/510 530/530/530 529/529/529
f 509/509/509 510/510/510 529/529/529
f 510/510/510 511/511/511 530/530/530
f 490/490/490 510/510/510 509/509/509
f 148/148/148 149/149/149 168/168/168
f 149/149/149 169/169/169 168/168/168
f 148/148/148 168/168/168 167/167/167
f 168/168/168 169/169/169 188/188/188
f 490/490/490 491/491/491 510/510/510
f 491/491/491 511/511/511 510/510/510
f 471/471/471 491/491/491 490/490/490
f 491/491/491 492/492/492 511/511/511
f 168/168/168 188/188/188 187/187/187
f 167/167/167 168/168/168 187/187/187
f 187/187/187 188/188/188 207/207/207
f 167/167/167 187/187/187 186/186/186
f 472/472/472 492/492/492 491/491/491
f 471/471/471 472/472/472 491/491/491
f 472/472/472 473/473/473 492/492/492
f 452/452/452 472/472/472 471/471/471
f 186/186/186 187/187/187 206/206/206
f 187/187/187 207/207/207 206/206/206
f 186/186/186 206/206/206 205/205/205
f 206/206/206 207/207/207 226/226/226
f 452/452/452 453/453/453 472/472/472
f 453/453/453 473/473/473 472/472/472
f 433/433/433 453/453/453 452/452/452
f 453/453/453 454/454/454 473/473/473
f 206/206/206 226/226/226 225/225/225
f 205/205/205 206/206/206 225/225/225
f 225/225/225 226/226/226 245/245/245
f 205/205/205 225/225/225 224/224/224
f 434/434/434 454/454/454 453/453/453
f 433/433/433 434/434/434 453/453/453
f 434/434/434 435/435/435 454/454/454
f 414/414/414 434/434/434 433/433/433
f 224/224/224 225/225/225 244/244/244
f 225/225/225 245/245/245 244/244/244
f 224/224/224 244/244/244 243/243/243
f 244/244/244 245/245/245 264/264/264
f 414/414/414 415/415/415 434/434/434
f 415/415/415 435/435/435 434/434/434
f 395/395/395 415/415/415 414/414/414
f 415/415/415 416/416/416 435/435/435
f 244/244/244 264/264/264 263/263/263
f 243/243/243 244/244/244 263/263/263
f 263/263/263 264/264/264 283/283/283
f 243/243/243 263/263/263 262/262/262
f 396/396/396 416/416/416 415/415/415
f 395/395/395 396/396/396 415/415/415
f 396/396/396 397/397/397 416/416/416
f 376/376/376 396/396/396 395/395/395
f 262/262/262 263/263/263 282/282/282
f 263/263/263 283/283/283 282/282/282
f 262/262/262 282/282/282 281/281/281
f 282/282/282 283/283/283 302/302/302
f 376/376/376 377/377/377 396/396/396
f 377/377/377 397/397/397 396/396/396
f 357/357/357 377/377/377 376/376/376
f 377/377/377 378/378/378 397/397/397
f 282/282/282 302/302/302 301/301/301
f 281/281/281 282/282/282 301/301/301
f 301/301/301 302/302/302 321/321/321
f 281/281/281 301/301/301 300/300/300
f 358/358/358 378/378/378 377/377/377
f 357/357/357 358/358/358 377/377/377
f 358/358/358 359/359/359 378/378/378
f 338/338/338 358/358/358 357/357/357
f 300/300/300 301/301/301 320/320/320
f 301/301/301 321/321/321 320/320/320
f 300/300/300 320/320/320 319/319/319
f 320/320/320 321/321/321 340/340/340
f 319/319/319 339/339/339 338/338/338
f 319/319/319 320/320/320 339/339/339
f 338/338/338 339/339/339 358/358/358
f 320/320/320 340/340/340 339/339/339
f 339/339/339 359/359/359 358/358/358
f 339/339/339 340/340/340 359/359/359
f 37/37/37 36/36/36 35/35/35
f 37/37/37 35/35/35 38/38/38
f 608/608/608 36/36/36 37/37/37
f 38/38/38 35/35/35 56/56/56
f 608/608/608 607/607/607 36/36/36
f 38/38/38 56/56/56 57/57/57
f 589/589/589 607/607/607 608/608/608
f 57/57/57 56/56/56 75/75/75
f 589/589/589 588/588/588 607/607/607
f 57/57/57 75/75/75 76/76/76
f 570/570/570 588/588/588 589/589/589
f 76/76/76 75/75/75 94/94/94
f 570/570/570 569/569/569 588/588/588
f 76/76/76 94/94/94 95/95/95
f 551/551/551 569/569/569 570/570/570
f 95/95/95 94/94/94 113/113/113
f 551/551/551 550/550/550 569/569/569
f 95/95/95 113/113/113 114/114/114
f 532/532/532 550/550/550 551/551/551
f 114/114/114 113/113/113 132/132/132
f 532/532/532 531/531/531 550/550/550
f 114/114/114 132/132/132 133/133/133
f 513/513/513 531/531/531 532/532/532
f 133/133/133 132/132/132 151/151/151
f 513/513/513 512/512/512 531/531/531
f 133/133/133 151/151/151 152/152/152
f 494/494/494 512/512/512 513/513/513
f 152/152/152 151/151/151 170/170/170
f 494/494/494 493/493/493 512/512/512
f 152/152/152 170/170/170 171/171/171
f 475/475/475 493/493/493 494/494/494
f 171/171/171 170/170/170 189/189/189
f 475/475/475 474/474/474 493/493/493
f 171/171/171 189/189/189 190/190/190
f 456/456/456 474/474/474 475/475/475
f 190/190/190 189/189/189 208/208/208
f 456/456/456 455/455/455 474/474/474
f 190/190/190 208/208/208 209/209/209
f 437/437/437 455/455/455 456/456/456
f 209/209/209 208/208/208 227/227/227
f 437/437/437 436/436/436 455/455/455
f 209/209/209 227/227/227 228/228/228
f 418/418/418 436/436/436 437/437/437
f 228/228/228 227/227/227 246/246/246
f 418/418/418 417/417/417 436/436/436
f 228/228/228 246/246/246 247/247/247
f 399/399/399 417/417/417 418/418/418
f 247/247/247 246/246/246 265/265/265
f 399/399/399 398/398/398 417/417/417
f 247/247/247 265/265/265 266/266/266
f 380/380/380 398/398/398 399/399/399
f 266/266/266 265/265/265 284/284/284
f 380/380/380 379/379/379 398/398/398
f 266/266/266 284/284/284 285/285/285
f 361/361/361 379/379/379 380/380/380
f 285/285/285 284/284/284 303/303/303
f 361/361/361 360/360/360 379/379/379
f 285/285/285 303/303/303 304/304/304
f 342/342/342 360/360/360 361/361/361
f 304/304/304 303/303/303 322/322/322
f 342/342/342 341/341/341 360/360/360
f 304/304/304 322/322/322 323/323/323
f 323/323/323 341/341/341 342/342/342
f 323/323/323 322/322/322 341/341/341
