# VPXTOOL table OBJ file
# VPXTOOL OBJ file
# numVerts: 680 numFaces: 758
o PinCab_Backbox
v -1.062419 0.786275 -0.107722
v -0.879447 0.786275 -0.107722
v -0.804708 0.938863 -0.093551
v -1.127912 0.938863 -0.093551
v -0.476552 0.78624 -0.107727
v -0.804708 0.938863 -0.093551
v -0.867176 0.7818 -0.108294
v -0.476552 0.78624 -0.107727
v -0.158298 0.938863 -0.093551
v -0.476552 0.78624 -0.107727
v -0.090224 0.78129 -0.108358
v 0.10502 0.785765 -0.107787
v 0.164906 0.938863 -0.093551
v -0.158298 0.938863 -0.093551
v -0.077953 0.785765 -0.107787
v -0.476895 0.676745 -0.1217
v -0.852463 0.759467 -0.111143
v -0.852463 0.577956 -0.134307
v -0.476895 0.676745 -0.1217
v -0.856964 0.771653 -0.109588
v -0.867176 0.7818 -0.108294
v -0.804708 0.409404 -0.149969
v -0.476895 0.676745 -0.1217
v -0.856964 0.565772 -0.135861
v -0.867176 0.555625 -0.137157
v -0.879447 0.551149 -0.137728
v -1.062418 0.551149 -0.137728
v -1.127912 0.409404 -0.149969
v -1.074689 0.555625 -0.137157
v -1.0849 0.565772 -0.135861
v -1.089402 0.577958 -0.134306
v -1.089404 0.759467 -0.111143
v -1.127912 0.938863 -0.093551
v -1.084902 0.771653 -0.109588
v -0.476895 0.676745 -0.1217
v -0.158298 0.409404 -0.149969
v -0.104936 0.577447 -0.134372
v -0.104937 0.758957 -0.111209
v -0.476895 0.676745 -0.1217
v -0.100434 0.565262 -0.135927
v -0.090223 0.555115 -0.137221
v -0.100435 0.771143 -0.109654
v -0.476895 0.676745 -0.1217
v -0.077951 0.550639 -0.137792
v -0.090224 0.78129 -0.108358
v 0.10502 0.550639 -0.137792
v 0.164906 0.409404 -0.149969
v 0.117291 0.555115 -0.137221
v 0.127502 0.565262 -0.135927
v 0.132004 0.577448 -0.134372
v 0.164906 0.938863 -0.093551
v 0.132004 0.758957 -0.111209
v 0.127502 0.771143 -0.109654
v -1.060273 0.559694 -0.122078
v -1.011648 0.584428 -0.118907
v -1.029459 0.595528 -0.117484
v -1.069652 0.56361 -0.121576
v -1.077024 0.570934 -0.120637
v -1.044332 0.610281 -0.115592
v -0.881551 0.560204 -0.122013
v -1.080453 0.580215 -0.119447
v -0.970892 0.575201 -0.12009
v -0.991794 0.577537 -0.119791
v -0.94999 0.577537 -0.119791
v -0.930136 0.584428 -0.118907
v -0.912325 0.595528 -0.117484
v -0.872213 0.56361 -0.121576
v -0.864841 0.570934 -0.120637
v -0.897452 0.610281 -0.115592
v -0.861371 0.579705 -0.119513
v -0.861371 0.757039 -0.096775
v -0.886261 0.627947 -0.113328
v -0.879314 0.64764 -0.110802
v -0.876958 0.668372 -0.108144
v -0.879314 0.689105 -0.105486
v -0.886261 0.708798 -0.10296
v -0.897452 0.726464 -0.100696
v -0.864841 0.766829 -0.09552
v -0.872213 0.774155 -0.094581
v -0.912325 0.741216 -0.098804
v -0.88151 0.77705 -0.09421
v -1.060315 0.77756 -0.094144
v -0.930136 0.752317 -0.097381
v -0.94999 0.759207 -0.096497
v -0.970892 0.761543 -0.096198
v -0.991794 0.759207 -0.096497
v -1.011648 0.752317 -0.097381
v -1.029459 0.741216 -0.098804
v -1.069654 0.774155 -0.094581
v -1.044332 0.726464 -0.100696
v -1.077025 0.766829 -0.09552
v -1.080413 0.757039 -0.096775
v -1.055523 0.708798 -0.10296
v -1.062471 0.64764 -0.110802
v -1.055523 0.627947 -0.113327
v -1.062471 0.689105 -0.105486
v -1.064826 0.668372 -0.108144
v -0.075847 0.559694 -0.122078
v -0.027222 0.584428 -0.118907
v -0.045033 0.595528 -0.117484
v -0.085186 0.5631 -0.121642
v -0.059906 0.610281 -0.115592
v -0.092557 0.570424 -0.120703
v 0.102916 0.559694 -0.122078
v -0.095986 0.579705 -0.119513
v 0.013534 0.575201 -0.12009
v -0.007368 0.577537 -0.119791
v 0.034436 0.577537 -0.119791
v 0.05429 0.584428 -0.118907
v 0.0721 0.595528 -0.117484
v 0.112254 0.5631 -0.121642
v 0.086974 0.610281 -0.115592
v 0.119625 0.570424 -0.120703
v 0.123054 0.579705 -0.119513
v 0.123054 0.757039 -0.096775
v 0.098165 0.627947 -0.113328
v 0.105112 0.64764 -0.110802
v 0.107467 0.668372 -0.108144
v 0.105112 0.689105 -0.105486
v 0.098165 0.708798 -0.10296
v 0.086974 0.726464 -0.100696
v 0.119625 0.76632 -0.095585
v 0.112254 0.773645 -0.094646
v 0.0721 0.741216 -0.098804
v 0.102916 0.77705 -0.09421
v -0.075849 0.77705 -0.09421
v 0.05429 0.752317 -0.097381
v 0.034436 0.759207 -0.096497
v 0.013534 0.761543 -0.096198
v -0.007368 0.759207 -0.096497
v -0.027223 0.752317 -0.097381
v -0.045033 0.741216 -0.098804
v -0.085187 0.773645 -0.094646
v -0.059906 0.726464 -0.100696
v -0.092558 0.766321 -0.095585
v -0.095988 0.757039 -0.096775
v -0.071097 0.708798 -0.10296
v -0.078045 0.64764 -0.110802
v -0.071097 0.627947 -0.113327
v -0.078045 0.689105 -0.105486
v -0.0804 0.668372 -0.108144
v 0.013534 0.667163 -0.099515
v 0.005456 0.629893 -0.086201
v 0.013534 0.62899 -0.086317
v 0.013534 0.575201 -0.12009
v -0.007368 0.577537 -0.119791
v 0.021612 0.629893 -0.086201
v 0.034436 0.577537 -0.119791
v -0.002217 0.632556 -0.08586
v -0.027222 0.584428 -0.118907
v 0.029285 0.632556 -0.08586
v 0.05429 0.584428 -0.118907
v -0.0091 0.636846 -0.08531
v -0.045033 0.595528 -0.117484
v 0.036168 0.636846 -0.08531
v 0.0721 0.595528 -0.117484
v -0.014848 0.642547 -0.084578
v -0.059906 0.610281 -0.115592
v 0.041916 0.642547 -0.084578
v 0.086974 0.610281 -0.115592
v -0.019173 0.649374 -0.083703
v -0.071097 0.627947 -0.113327
v 0.046241 0.649374 -0.083703
v 0.098165 0.627947 -0.113328
v -0.021858 0.656986 -0.082727
v -0.078045 0.64764 -0.110802
v 0.048926 0.656986 -0.082727
v 0.105112 0.64764 -0.110802
v -0.022769 0.664998 -0.081701
v -0.0804 0.668372 -0.108144
v 0.049836 0.664998 -0.081701
v 0.107467 0.668372 -0.108144
v -0.021858 0.673011 -0.080673
v -0.078045 0.689105 -0.105486
v 0.048926 0.673011 -0.080673
v 0.105112 0.689105 -0.105486
v -0.019173 0.680621 -0.079697
v -0.071097 0.708798 -0.10296
v 0.046241 0.680621 -0.079697
v 0.098165 0.708798 -0.10296
v -0.014848 0.687448 -0.078822
v -0.059906 0.726464 -0.100696
v 0.041916 0.687448 -0.078822
v 0.086974 0.726464 -0.100696
v -0.0091 0.69315 -0.07809
v -0.045033 0.741216 -0.098804
v 0.036168 0.69315 -0.07809
v 0.0721 0.741216 -0.098804
v -0.002217 0.697439 -0.077541
v -0.027223 0.752317 -0.097381
v 0.029285 0.697439 -0.077541
v 0.05429 0.752317 -0.097381
v 0.005456 0.700102 -0.077199
v -0.007368 0.759207 -0.096497
v 0.021612 0.700102 -0.077199
v 0.034436 0.759207 -0.096497
v 0.013534 0.701006 -0.077083
v 0.013534 0.761543 -0.096198
v -0.970892 0.667163 -0.099515
v -0.97897 0.629893 -0.086201
v -0.970892 0.628991 -0.086317
v -0.970892 0.575201 -0.12009
v -0.991794 0.577537 -0.119791
v -0.962814 0.629893 -0.086201
v -0.94999 0.577537 -0.119791
v -0.986643 0.632556 -0.08586
v -1.011648 0.584428 -0.118907
v -0.955141 0.632556 -0.08586
v -0.930136 0.584428 -0.118907
v -0.993526 0.636846 -0.08531
v -1.029459 0.595528 -0.117484
v -0.948258 0.636846 -0.08531
v -0.912325 0.595528 -0.117484
v -0.999274 0.642547 -0.084578
v -1.044332 0.610281 -0.115592
v -0.94251 0.642547 -0.084578
v -0.897452 0.610281 -0.115592
v -1.003599 0.649374 -0.083703
v -1.055523 0.627947 -0.113327
v -0.938185 0.649374 -0.083703
v -0.886261 0.627947 -0.113328
v -1.006284 0.656986 -0.082727
v -1.062471 0.64764 -0.110802
v -0.9355 0.656986 -0.082727
v -0.879314 0.64764 -0.110802
v -1.007194 0.664998 -0.081701
v -1.064826 0.668372 -0.108144
v -0.93459 0.664998 -0.081701
v -0.876958 0.668372 -0.108144
v -1.006284 0.673011 -0.080673
v -1.062471 0.689105 -0.105486
v -0.9355 0.673011 -0.080673
v -0.879314 0.689105 -0.105486
v -1.003599 0.680621 -0.079697
v -1.055523 0.708798 -0.10296
v -0.938185 0.680621 -0.079697
v -0.886261 0.708798 -0.10296
v -0.999274 0.687448 -0.078822
v -1.044332 0.726464 -0.100696
v -0.94251 0.687448 -0.078822
v -0.897452 0.726464 -0.100696
v -0.993526 0.69315 -0.07809
v -1.029459 0.741216 -0.098804
v -0.948258 0.69315 -0.07809
v -0.912325 0.741216 -0.098804
v -0.986643 0.697439 -0.077541
v -1.011648 0.752317 -0.097381
v -0.955141 0.697439 -0.077541
v -0.930136 0.752317 -0.097381
v -0.97897 0.700102 -0.077199
v -0.991794 0.759207 -0.096497
v -0.962814 0.700102 -0.077199
v -0.94999 0.759207 -0.096497
v -0.970892 0.701006 -0.077083
v -0.970892 0.761543 -0.096198
v -1.130298 0.949063 -0.077346
v 0.167388 0.949063 -0.077346
v 0.167388 0.950281 -0.077207
v 0.167388 0.948766 -0.07683
v -1.130298 0.950281 -0.077207
v -1.130298 0.948766 -0.07683
v 0.167388 0.950463 -0.076636
v -1.130298 0.948139 -0.066136
v -1.130298 0.950463 -0.076636
v 0.167388 0.948139 -0.066136
v 0.167388 0.949835 -0.065933
v -1.130298 0.947732 -0.065163
v -1.130298 0.949835 -0.065933
v 0.167388 0.947732 -0.065163
v -1.130298 0.949052 -0.063725
v 0.167388 0.947035 -0.064896
v 0.167388 0.949051 -0.063725
v -1.130298 0.947035 -0.064896
v -1.130298 0.946963 -0.062706
v -1.130298 0.92474 -0.066441
v 0.167388 0.946963 -0.062706
v 0.167388 0.92474 -0.066441
v 0.167388 0.924667 -0.064251
v -1.130298 0.922885 -0.066054
v -1.130298 0.924668 -0.064251
v 0.167388 0.922884 -0.066053
v 0.167388 0.923536 -0.064016
v -1.130298 0.921385 -0.064742
v -1.130298 0.923537 -0.064016
v 0.167388 0.921385 -0.064741
v 0.167388 0.922624 -0.063218
v 0.167388 0.920437 -0.062734
v -1.130298 0.922624 -0.063218
v -1.130298 0.920437 -0.062735
v 0.167388 0.922048 -0.061996
v -1.130298 0.920209 -0.061124
v -1.130298 0.922048 -0.061996
v 0.167388 0.920209 -0.061124
v 0.167388 0.921909 -0.061014
v -1.130298 0.919953 -0.051101
v 0.167388 0.919953 -0.051101
v -1.130298 0.921909 -0.061014
v 0.167388 0.921654 -0.051008
v -1.130298 0.921654 -0.051008
v 0.163421 0.391953 0.203539
v -1.127092 0.39197 0.203545
v -1.12709 1.680094 0.280414
v 0.163421 0.356276 0.201409
v -1.127092 0.356276 0.201415
v -1.162856 0.356276 0.201415
v -1.127092 0.39197 0.203545
v -1.162856 0.391969 0.203568
v 0.163422 1.680078 0.280407
v 0.199186 0.391953 0.203538
v 0.199187 1.680078 0.280407
v 0.163422 1.715906 0.282545
v 0.199187 1.715779 0.282538
v -1.12709 1.715906 0.282551
v -1.162856 1.715906 0.282551
v -1.162856 1.680095 0.280414
v -1.127092 0.39197 0.203545
v -1.162856 0.391969 0.203568
v -1.12709 1.680094 0.280414
v -0.158298 0.938863 -0.093551
v 0.164906 0.938863 -0.093551
v 0.164906 0.936543 -0.05839
v -0.158298 0.936543 -0.05839
v 0.164907 0.404947 -0.115208
v -0.804708 0.936543 -0.05839
v 0.164906 0.409404 -0.149969
v -0.804708 0.938863 -0.093551
v -0.158298 0.409404 -0.149969
v -1.127913 0.936543 -0.05839
v -0.158298 0.404947 -0.115208
v -1.127912 0.938863 -0.093551
v -0.804708 0.409404 -0.149969
v -1.127912 0.404947 -0.115208
v -0.804708 0.404947 -0.115208
v -1.127912 0.409404 -0.149969
v 0.158296 1.70282 -0.013181
v 0.158296 0.915536 -0.06315
v 0.157831 0.915539 -0.063251
v 0.157831 1.702822 -0.013282
v 0.158708 1.702813 -0.012918
v 0.143318 1.702803 -0.012518
v 0.158708 0.91553 -0.062887
v 0.143318 0.91552 -0.062488
v 0.1593 1.702791 -0.012066
v 0.142854 0.915607 -0.065907
v 0.1593 0.915508 -0.062035
v 0.142853 1.70289 -0.015938
v 0.159463 1.702772 -0.011301
v 0.157884 0.915627 -0.066705
v 0.159463 0.915488 -0.06127
v 0.157884 1.70291 -0.016735
v 0.159778 1.702427 0.002236
v 0.159778 0.915143 -0.047733
v 0.15931 1.702903 -0.016453
v 0.15931 0.91562 -0.066422
v 0.161081 1.702872 -0.015226
v 0.161081 0.915588 -0.065195
v 0.162274 1.702825 -0.013403
v 0.162274 0.915542 -0.063372
v 0.162736 1.702774 -0.011399
v 0.162736 0.915491 -0.061368
v 0.163134 1.702338 0.00571
v 0.163134 0.915055 -0.04426
v -1.12704 1.699253 0.005701
v -1.12704 0.911968 -0.04426
v -1.126642 0.912404 -0.061368
v -1.126642 1.699689 -0.011407
v -1.12618 0.912455 -0.063372
v -1.126181 1.69974 -0.013411
v -1.124988 0.912501 -0.065195
v -1.124988 1.699787 -0.015234
v -1.123217 0.912532 -0.066422
v -1.123217 1.699818 -0.016461
v -1.121791 0.91254 -0.066705
v -1.121791 1.699825 -0.016744
v -1.10676 1.699805 -0.015946
v -1.10676 0.912519 -0.065907
v -1.107224 1.699718 -0.012527
v -1.107224 0.912432 -0.062488
v -1.11165 0.912446 -0.063006
v -1.11165 1.699731 -0.013045
v -1.121737 0.912452 -0.063251
v -1.121738 1.699737 -0.01329
v -1.122202 1.699734 -0.013189
v -1.122202 0.912449 -0.06315
v -1.122615 1.699728 -0.012926
v -1.122615 0.912442 -0.062887
v -1.123206 1.699706 -0.012074
v -1.123206 0.912421 -0.062035
v -1.123369 1.699687 -0.011309
v -1.123369 0.912401 -0.06127
v -1.123684 1.699342 0.002228
v -1.123684 0.912056 -0.047733
v 0.163422 1.715906 0.282545
v -1.12709 1.715906 0.282551
v -1.127093 1.74359 -0.106061
v 0.163422 1.743572 -0.106036
v 0.199193 1.707625 -0.104052
v 0.163422 1.707616 -0.103894
v 0.163421 0.410288 -0.161684
v 0.199194 0.410288 -0.161684
v 0.163422 1.707616 -0.103894
v 0.163422 1.743572 -0.106036
v -1.127093 1.74359 -0.106061
v -1.12709 1.707634 -0.103919
v -1.162856 1.743701 -0.106067
v -1.162856 1.707634 -0.103919
v -1.127092 0.410305 -0.161683
v -1.162856 0.410305 -0.161683
v -1.129846 1.69303 -0.072111
v -1.129846 1.689313 -0.069715
v 0.164393 1.689313 -0.069716
v -1.129846 1.686643 -0.066152
v 0.164393 1.69303 -0.072111
v 0.164393 1.686644 -0.066153
v -1.129846 1.697448 -0.073071
v -1.129846 1.663525 -0.046542
v 0.164393 1.697448 -0.073071
v 0.164393 1.663525 -0.046542
v 0.164393 1.703854 -0.07328
v -1.129846 1.703854 -0.07328
v -1.129846 1.662299 -0.038693
v 0.164393 1.662299 -0.038694
v 0.164393 1.668158 -0.038694
v -1.129846 1.668158 -0.038693
v -1.129846 1.663601 -0.01861
v 0.164393 1.663601 -0.01861
v -1.127092 0.374363 -0.15964
v -1.127092 0.356276 0.201415
v 0.163421 0.356276 0.201409
v 0.163421 0.374363 -0.159617
v -0.085186 0.5631 -0.121642
v -0.075847 0.558917 -0.127263
v -0.075847 0.559694 -0.122078
v -0.085186 0.562323 -0.126825
v -0.092557 0.570424 -0.120703
v -0.077951 0.550639 -0.137792
v 0.102916 0.559694 -0.122078
v -0.076129 0.55801 -0.131973
v -0.092557 0.569648 -0.125884
v -0.095986 0.579705 -0.119513
v -0.085861 0.561558 -0.131518
v -0.095986 0.578929 -0.124693
v -0.095988 0.757039 -0.096775
v -0.093612 0.569261 -0.130529
v -0.087704 0.558907 -0.135221
v -0.097185 0.578931 -0.129289
v -0.076899 0.554967 -0.135727
v -0.090223 0.555115 -0.137221
v -0.096496 0.567642 -0.134101
v -0.100434 0.565262 -0.135927
v -0.100461 0.578375 -0.132725
v -0.104936 0.577447 -0.134372
v -0.104937 0.758957 -0.111209
v 0.102916 0.558917 -0.127263
v 0.112254 0.5631 -0.121642
v -0.100462 0.75779 -0.10972
v -0.100435 0.771143 -0.109654
v 0.112254 0.562323 -0.126826
v 0.119625 0.570424 -0.120703
v 0.103198 0.55801 -0.131973
v 0.119625 0.569648 -0.125884
v 0.123054 0.579705 -0.119513
v 0.112929 0.561558 -0.131518
v 0.103968 0.554967 -0.135727
v 0.10502 0.550639 -0.137792
v 0.117291 0.555115 -0.137221
v 0.114772 0.558907 -0.135221
v 0.123564 0.567642 -0.134101
v 0.127502 0.565262 -0.135927
v 0.120681 0.569261 -0.130529
v 0.127529 0.578375 -0.132725
v 0.132004 0.577448 -0.134372
v 0.124254 0.578931 -0.129289
v 0.123054 0.578929 -0.124693
v 0.123054 0.756262 -0.101956
v 0.123054 0.757039 -0.096775
v 0.132004 0.758957 -0.111209
v 0.119625 0.76632 -0.095585
v 0.127529 0.75779 -0.109721
v 0.127502 0.771143 -0.109654
v 0.119625 0.765543 -0.100767
v 0.112254 0.773645 -0.094646
v 0.124254 0.756822 -0.10648
v 0.120681 0.766493 -0.105241
v 0.123564 0.768523 -0.108344
v 0.112254 0.772868 -0.09983
v 0.102916 0.77705 -0.09421
v 0.112929 0.774195 -0.104254
v 0.114772 0.777259 -0.107225
v 0.117291 0.78129 -0.108358
v 0.102916 0.776273 -0.099394
v 0.103198 0.777743 -0.103799
v 0.103968 0.781199 -0.10672
v 0.10502 0.785765 -0.107787
v -0.077953 0.785765 -0.107787
v -0.076901 0.781199 -0.10672
v -0.090224 0.78129 -0.108358
v -0.076131 0.777743 -0.103799
v -0.087706 0.777259 -0.107225
v -0.075849 0.776273 -0.099394
v -0.075849 0.77705 -0.09421
v -0.096497 0.768523 -0.108344
v -0.085862 0.774195 -0.104254
v -0.093614 0.766493 -0.105241
v -0.085187 0.772868 -0.099829
v -0.085187 0.773645 -0.094646
v -0.097187 0.756822 -0.10648
v -0.092558 0.765543 -0.100767
v -0.092558 0.766321 -0.095585
v -0.095988 0.756262 -0.101956
v 0.163421 0.391953 0.203539
v 0.199186 0.391953 0.203538
v 0.199193 0.35625 0.201437
v 0.163421 0.356276 0.201409
v -0.863786 0.767002 -0.105175
v -0.871538 0.774705 -0.104188
v -0.872213 0.773377 -0.099764
v -0.860903 0.769033 -0.108278
v -0.881551 0.776783 -0.099329
v -0.856937 0.7583 -0.109654
v -0.881269 0.778253 -0.103734
v -0.856964 0.771653 -0.109588
v -0.869694 0.777768 -0.107159
v -0.852463 0.759467 -0.111143
v -0.867176 0.7818 -0.108294
v -0.860213 0.757332 -0.106414
v -0.852463 0.577956 -0.134307
v -0.880499 0.781709 -0.106654
v -0.879447 0.786275 -0.107722
v -1.062419 0.786275 -0.107722
v -0.88151 0.77705 -0.09421
v -0.872213 0.774155 -0.094581
v -1.060315 0.77756 -0.094144
v -0.864841 0.766053 -0.100702
v -0.864841 0.766829 -0.09552
v -0.861412 0.756772 -0.101889
v -0.861371 0.757039 -0.096775
v -0.861371 0.579705 -0.119513
v -1.061368 0.781709 -0.106654
v -1.074691 0.7818 -0.108294
v -1.060315 0.776783 -0.099329
v -1.072172 0.777768 -0.107159
v -1.060597 0.778253 -0.103735
v -1.084902 0.771653 -0.109588
v -1.070328 0.774705 -0.104188
v -1.069654 0.773377 -0.099764
v -1.069654 0.774155 -0.094581
v -1.080963 0.769033 -0.108278
v -1.07808 0.767002 -0.105176
v -1.077025 0.766053 -0.100702
v -1.077025 0.766829 -0.09552
v -1.084929 0.7583 -0.109654
v -1.089404 0.759467 -0.111143
v -1.080454 0.756771 -0.101891
v -1.081653 0.757332 -0.106415
v -1.080413 0.757039 -0.096775
v -1.089402 0.577958 -0.134306
v -1.084928 0.578885 -0.132659
v -1.0849 0.565772 -0.135861
v -1.081652 0.579441 -0.129223
v -1.080962 0.568152 -0.134035
v -1.074689 0.555625 -0.137157
v -1.080453 0.579438 -0.124628
v -1.080453 0.580215 -0.119447
v -1.078079 0.569771 -0.130464
v -1.077024 0.570157 -0.125819
v -1.077024 0.570934 -0.120637
v -1.072171 0.559417 -0.135155
v -1.070327 0.562068 -0.131452
v -1.069652 0.562833 -0.12676
v -1.069652 0.56361 -0.121576
v -1.060596 0.55852 -0.131907
v -1.061366 0.555476 -0.135661
v -1.062418 0.551149 -0.137728
v -1.060314 0.559427 -0.127198
v -1.060273 0.559694 -0.122078
v -0.879447 0.551149 -0.137728
v -0.880499 0.555476 -0.135661
v -0.867176 0.555625 -0.137157
v -0.881269 0.55852 -0.131907
v -0.869694 0.559417 -0.135155
v -0.881551 0.559427 -0.127198
v -0.881551 0.560204 -0.122013
v -0.872213 0.56361 -0.121576
v -0.872213 0.562833 -0.126759
v -0.864841 0.570934 -0.120637
v -0.871538 0.562068 -0.131452
v -0.864841 0.570157 -0.125819
v -0.863786 0.569771 -0.130464
v -0.861412 0.579438 -0.124627
v -0.860903 0.568152 -0.134035
v -0.856964 0.565772 -0.135861
v -0.860213 0.579441 -0.129222
v -0.856937 0.578885 -0.132659
v 0.199193 0.35625 0.201437
v 0.199186 0.374363 -0.159617
v 0.163421 0.374363 -0.159617
v 0.163421 0.356276 0.201409
v -1.162856 1.680095 0.280414
v -1.162856 1.707634 -0.103919
v -1.162856 1.743701 -0.106067
v -1.162856 1.715906 0.282551
v -1.162856 0.391969 0.203568
v -1.162856 0.410305 -0.161683
v -1.162856 0.356276 0.201415
v -1.162856 0.374397 -0.159642
v 0.163422 1.743572 -0.106036
v 0.199187 1.743572 -0.106036
v 0.199187 1.715779 0.282538
v 0.163422 1.715906 0.282545
v 0.199187 1.743572 -0.106036
v 0.163422 1.743572 -0.106036
v 0.163422 1.707616 -0.103894
v 0.199193 1.707625 -0.104052
v 0.163421 0.374363 -0.159617
v 0.163421 0.410288 -0.161684
v -1.127092 0.410305 -0.161683
v -1.127092 0.374363 -0.15964
v 0.163422 1.682832 0.234261
v 0.163422 1.707616 -0.103894
v -1.12709 1.707634 -0.103919
v -1.12709 1.682848 0.234264
v 0.199186 0.391953 0.203538
v 0.199187 1.680078 0.280407
v 0.199193 1.707625 -0.104052
v 0.199194 0.410288 -0.161684
v 0.199193 0.35625 0.201437
v 0.199186 0.374363 -0.159617
v 0.199187 1.743572 -0.106036
v 0.199193 1.707625 -0.104052
v 0.199187 1.715779 0.282538
v -1.162856 0.410305 -0.161683
v -1.162856 0.374397 -0.159642
v -1.127092 0.374363 -0.15964
v -1.127092 0.410305 -0.161683
v -1.162856 0.374397 -0.159642
v -1.162856 0.356276 0.201415
v -1.127092 0.356276 0.201415
v -1.127092 0.374363 -0.15964
v -1.12709 1.715906 0.282551
v -1.162856 1.715906 0.282551
v -1.162856 1.743701 -0.106067
v -1.127093 1.74359 -0.106061
v 0.199194 0.410288 -0.161684
v 0.163421 0.410288 -0.161684
v 0.163421 0.374363 -0.159617
v 0.199186 0.374363 -0.159617
v -1.12709 1.707634 -0.103919
v -1.127092 0.410305 -0.161683
v -1.127092 0.39197 0.203545
v -1.12709 1.682848 0.234264
v -1.127912 0.938863 -0.093551
v -1.084902 0.771653 -0.109588
v -1.074691 0.7818 -0.108294
v -0.879447 0.786275 -0.107722
v -0.867176 0.7818 -0.108294
v -0.804708 0.938863 -0.093551
v -1.127912 0.938863 -0.093551
v -1.074691 0.7818 -0.108294
v -1.062419 0.786275 -0.107722
v 0.163422 1.707616 -0.103894
v 0.163422 1.682832 0.234261
v 0.163421 0.391953 0.203539
v 0.163421 0.410288 -0.161684
v -0.090224 0.78129 -0.108358
v -0.476552 0.78624 -0.107727
v -0.867176 0.7818 -0.108294
v 0.163421 0.410288 -0.161684
v 0.163421 0.391953 0.203539
v -1.127092 0.39197 0.203545
v -1.127092 0.410305 -0.161683
v -0.158298 0.938863 -0.093551
v -0.090224 0.78129 -0.108358
v -0.077953 0.785765 -0.107787
v 0.117291 0.78129 -0.108358
v 0.127502 0.771143 -0.109654
v 0.164906 0.938863 -0.093551
v 0.10502 0.785765 -0.107787
v 0.117291 0.78129 -0.108358
v 0.164906 0.938863 -0.093551
vt 0.582332 0.581724
vt 0.582332 0.641882
vt 0.631131 0.66645402
vt 0.631131 0.560192
vt 0.58133 0.66957802
vt 0.631131 0.66645402
vt 0.579365 0.645916
vt 0.582798 0.87546003
vt 0.631131 0.87897998
vt 0.58133 0.87817502
vt 0.579027 0.901362
vt 0.581994 0.965554
vt 0.631131 0.985243022
vt 0.631131 0.87897998
vt 0.581994 0.905395985
vt 0.570658 0.666645
vt 0.564806 0.65136403
vt 0.445216 0.65118098
vt 0.577261 0.667539
vt 0.572639 0.649274
vt 0.579365 0.645916
vt 0.391336 0.66645402
vt 0.462658 0.672293
vt 0.436162 0.649274
vt 0.429436 0.645916
vt 0.426469 0.641882
vt 0.426469 0.581725
vt 0.391336 0.560192
vt 0.429436 0.57769
vt 0.436162 0.574333
vt 0.444484 0.571876
vt 0.565239 0.571738
vt 0.631131 0.560192
vt 0.572639 0.574332
vt 0.462658 0.87546003
vt 0.391336 0.87897998
vt 0.443902 0.896525025
vt 0.564223 0.89652401
vt 0.571707 0.88100201
vt 0.435824 0.89800501
vt 0.429098 0.901362
vt 0.572301 0.89800501
vt 0.577128 0.88028097
vt 0.426131 0.905397
vt 0.579027 0.901362
vt 0.426131 0.965554
vt 0.391336 0.985243022
vt 0.429098 0.969587982
vt 0.435824 0.972945988
vt 0.443901 0.974425972
vt 0.631131 0.985243022
vt 0.564223 0.974425972
vt 0.572301 0.972945988
vt 0.442295 0.585297
vt 0.456624 0.599307
vt 0.463086 0.594177
vt 0.444577 0.582596
vt 0.448838 0.580472
vt 0.471668 0.58989298
vt 0.442447 0.63678598
vt 0.454232 0.579485
vt 0.451231 0.61104798
vt 0.452605 0.60502702
vt 0.452571 0.61707002
vt 0.456558 0.62278998
vt 0.462991 0.627922
vt 0.444418 0.639476
vt 0.448667 0.6416
vt 0.471549 0.632208
vt 0.453759 0.6426
vt 0.55677 0.64261103
vt 0.481802 0.63543302
vt 0.493236 0.63743502
vt 0.505277 0.638115
vt 0.517323 0.637438
vt 0.528768 0.63543802
vt 0.539039 0.63221502
vt 0.562461 0.641612
vt 0.566722 0.639489
vt 0.54762 0.627931
vt 0.568411 0.63681
vt 0.568852 0.585298
vt 0.554083 0.6228
vt 0.558102 0.617081
vt 0.559475 0.611059
vt 0.558135 0.605038
vt 0.554148 0.599317
vt 0.547715 0.594186
vt 0.566881 0.58260798
vt 0.539157 0.58990002
vt 0.562632 0.58048397
vt 0.556947 0.579507
vt 0.528904 0.586675
vt 0.493384 0.58467
vt 0.481939 0.58666998
vt 0.517471 0.58467197
vt 0.505429 0.583992
vt 0.438016 0.908885
vt 0.452864 0.923403025
vt 0.45956 0.91808599
vt 0.440074 0.906096995
vt 0.468453 0.913646996
vt 0.444489 0.90389699
vt 0.437866 0.96225202
vt 0.450079 0.90287399
vt 0.447276 0.93556899
vt 0.448699 0.92932898
vt 0.448664 0.941810012
vt 0.452796 0.94773698
vt 0.459463 0.953055024
vt 0.439908 0.965040028
vt 0.46833 0.957495987
vt 0.444311 0.96724099
vt 0.449895 0.968264997
vt 0.556642 0.968276024
vt 0.478955 0.96083802
vt 0.490803 0.962912977
vt 0.503282 0.96361798
vt 0.515763 0.962916017
vt 0.527623 0.960843027
vt 0.538267 0.95750302
vt 0.562231 0.96725303
vt 0.566646 0.965053022
vt 0.54716 0.953064024
vt 0.568704 0.962266028
vt 0.568854 0.908897996
vt 0.553856 0.947748005
vt 0.558021 0.94182098
vt 0.559445 0.93558103
vt 0.558056 0.92934102
vt 0.553924 0.92341298
vt 0.547257 0.91809499
vt 0.566812 0.90610999
vt 0.53839 0.91365403
vt 0.562409 0.90390903
vt 0.556825 0.90288401
vt 0.527765 0.910312
vt 0.490957 0.908234
vt 0.479097 0.91030699
vt 0.515917 0.90823698
vt 0.503439 0.90753299
vt 0.503922 0.93584901
vt 0.482798 0.93343502
vt 0.482248 0.935846984
vt 0.447276 0.93556899
vt 0.448699 0.92932898
vt 0.482785 0.938257992
vt 0.448664 0.941810012
vt 0.484408 0.93114501
vt 0.452864 0.923403025
vt 0.484381 0.940549016
vt 0.452796 0.94773698
vt 0.486995 0.92909002
vt 0.45956 0.91808599
vt 0.486958 0.942604005
vt 0.459463 0.953055024
vt 0.490433 0.927374005
vt 0.468453 0.913646996
vt 0.490385 0.944320977
vt 0.46833 0.957495987
vt 0.494546 0.92608398
vt 0.479097 0.91030699
vt 0.494491 0.945612013
vt 0.478955 0.96083802
vt 0.499129 0.925282
vt 0.490957 0.908234
vt 0.49907 0.946413994
vt 0.490803 0.962912977
vt 0.503953 0.92501098
vt 0.503439 0.90753299
vt 0.503892 0.94668603
vt 0.503282 0.96361798
vt 0.508775 0.925283015
vt 0.515917 0.90823698
vt 0.508716 0.946415007
vt 0.515763 0.962916017
vt 0.513354 0.92608601
vt 0.527765 0.910312
vt 0.5133 0.94561398
vt 0.527623 0.960843027
vt 0.517461 0.927376986
vt 0.53839 0.91365403
vt 0.517413 0.944323003
vt 0.538267 0.95750302
vt 0.520888 0.92909402
vt 0.547257 0.91809499
vt 0.52085 0.942608
vt 0.54716 0.953064024
vt 0.523464 0.931149006
vt 0.553924 0.92341298
vt 0.523438 0.94055301
vt 0.553856 0.947748005
vt 0.525061 0.93343902
vt 0.558056 0.92934102
vt 0.525047 0.938263
vt 0.558021 0.94182098
vt 0.525598 0.93585098
vt 0.559445 0.93558103
vt 0.505897 0.611318
vt 0.485511 0.608989
vt 0.48498 0.61131603
vt 0.451231 0.61104798
vt 0.452605 0.60502702
vt 0.485498 0.613643
vt 0.452571 0.61707002
vt 0.487064 0.60677803
vt 0.456624 0.599307
vt 0.487038 0.61585402
vt 0.456558 0.62278998
vt 0.489561 0.604796
vt 0.463086 0.594177
vt 0.489525 0.617837
vt 0.462991 0.627922
vt 0.492878 0.60314
vt 0.471668 0.58989298
vt 0.492832 0.619493
vt 0.471549 0.632208
vt 0.496847 0.60189402
vt 0.481939 0.58666998
vt 0.496794 0.62074
vt 0.481802 0.63543302
vt 0.50127 0.601121
vt 0.493384 0.58467
vt 0.501213 0.62151402
vt 0.493236 0.63743502
vt 0.505926 0.60086
vt 0.505429 0.583992
vt 0.505867 0.62177598
vt 0.505277 0.638115
vt 0.510579 0.60112202
vt 0.517471 0.58467197
vt 0.510522 0.62151498
vt 0.517323 0.637438
vt 0.514998 0.601896
vt 0.528904 0.586675
vt 0.514945 0.62074202
vt 0.528768 0.63543802
vt 0.51896 0.60314298
vt 0.539157 0.58990002
vt 0.518914 0.619496
vt 0.539039 0.63221502
vt 0.522268 0.60479897
vt 0.547715 0.594186
vt 0.522231 0.61784
vt 0.54762 0.627931
vt 0.524754 0.60678202
vt 0.554148 0.599317
vt 0.524729 0.61585802
vt 0.554083 0.6228
vt 0.526295 0.608993
vt 0.558135 0.605038
vt 0.526282 0.61364698
vt 0.558102 0.617081
vt 0.526813 0.61132002
vt 0.559475 0.611059
vt 0.765039 0.41227996
vt 0.258756 0.41227996
vt 0.25861 0.415442
vt 0.258906 0.409118
vt 0.764894 0.415442
vt 0.76519 0.409118
vt 0.25846 0.41860402
vt 0.765271 0.40595496
vt 0.764743 0.41860402
vt 0.258988 0.40595496
vt 0.258379 0.42176604
vt 0.765419 0.402794
vt 0.764662 0.42176604
vt 0.259135 0.402794
vt 0.764738 0.42492902
vt 0.259283 0.39963198
vt 0.258455 0.42492902
vt 0.765568 0.39963198
vt 0.764814 0.428092
vt 0.76557 0.39646804
vt 0.258532 0.428092
vt 0.259285 0.39646804
vt 0.25853 0.43125498
vt 0.765711 0.39330602
vt 0.764812 0.43125498
vt 0.259426 0.39330697
vt 0.258607 0.43441796
vt 0.765852 0.390144
vt 0.764889 0.43441796
vt 0.259566 0.390145
vt 0.258462 0.43758
vt 0.25949 0.38698196
vt 0.764743 0.43758
vt 0.765775 0.38698196
vt 0.258316 0.44074202
vt 0.765918 0.38382
vt 0.764598 0.44074202
vt 0.259633 0.38382
vt 0.258169 0.44390297
vt 0.766005 0.38065696
vt 0.259719 0.38065696
vt 0.764451 0.44390297
vt 0.258083 0.447066
vt 0.764365 0.447066
vt 0.397173 0.24659699
vt 0.471362 0.24659503
vt 0.572924 0.076039016
vt 0.289751 0.25132096
vt 0.572924 0.25132096
vt 0.580772 0.25132096
vt 0.471362 0.24659503
vt 0.580772 0.24659503
vt 0.289751 0.07604098
vt 0.281903 0.24659699
vt 0.281903 0.07604098
vt 0.289751 0.071298
vt 0.281903 0.07131398
vt 0.572924 0.071298
vt 0.580772 0.071298
vt 0.580772 0.076039016
vt 0.471362 0.24659503
vt 0.580772 0.24659503
vt 0.572924 0.076039016
vt 0.631131 0.87897998
vt 0.631131 0.985243022
vt 0.649187 0.995009005
vt 0.647398 0.87885302
vt 0.373274 0.995660007
vt 0.644874 0.66708398
vt 0.391336 0.985243022
vt 0.631131 0.66645402
vt 0.391336 0.87897998
vt 0.645505 0.55303
vt 0.374836 0.878823996
vt 0.631131 0.560192
vt 0.391336 0.66645402
vt 0.375134 0.553218
vt 0.374693 0.666192
vt 0.391336 0.560192
vt 0.283406 0.35586703
vt 0.726568 0.35586703
vt 0.726637 0.352
vt 0.283475 0.352
vt 0.283334 0.359734
vt 0.283446 0.348132
vt 0.726496 0.359734
vt 0.726609 0.348132
vt 0.283253 0.36360097
vt 0.726727 0.344266
vt 0.726416 0.36360097
vt 0.283564 0.344266
vt 0.283174 0.367468
vt 0.726755 0.340398
vt 0.726336 0.367468
vt 0.283592 0.340398
vt 0.282938 0.37133396
vt 0.726101 0.37133396
vt 0.283541 0.33653104
vt 0.726704 0.33653104
vt 0.283392 0.332664
vt 0.726554 0.332664
vt 0.283172 0.32879698
vt 0.726335 0.32879698
vt 0.282916 0.32493
vt 0.726078 0.32493
vt 0.282648 0.320984
vt 0.72581 0.32098496
vt 0.731095 0.26188803
vt 0.283671 0.26188803
vt 0.2834 0.265871
vt 0.730824 0.265872
vt 0.283302 0.26977503
vt 0.730726 0.269776
vt 0.283207 0.27367902
vt 0.730631 0.27368104
vt 0.28312 0.277583
vt 0.730544 0.27758503
vt 0.283048 0.281488
vt 0.730472 0.281489
vt 0.730498 0.285394
vt 0.283074 0.285392
vt 0.730761 0.28929698
vt 0.283337 0.28929603
vt 0.283265 0.29320097
vt 0.730689 0.29320204
vt 0.283205 0.297105
vt 0.730629 0.29710603
vt 0.730687 0.30101
vt 0.283261 0.301009
vt 0.730827 0.304915
vt 0.283403 0.30491304
vt 0.731044 0.308819
vt 0.283621 0.30881798
vt 0.731307 0.31272304
vt 0.283881 0.31272197
vt 0.731573 0.316626
vt 0.284146 0.316625
vt 0.580773 0.07602501
vt 0.580772 0.246593
vt 0.683157 0.24659401
vt 0.683151 0.07602501
vt 0.040283 0.47785103
vt 0.064574 0.477845
vt 0.06461 0.036572993
vt 0.040318 0.03657198
vt 0.064574 0.477845
vt 0.064573 0.490075
vt 0.940927 0.490099
vt 0.940926 0.47786903
vt 0.965212 0.49013698
vt 0.965213 0.47787
vt 0.940962 0.036596
vt 0.965249 0.036597013
vt 0.775634 0.540321
vt 0.775535 0.53641403
vt 0.103885 0.53641403
vt 0.7757 0.532507
vt 0.103984 0.540321
vt 0.104049 0.532507
vt 0.775732 0.54422802
vt 0.775599 0.51471102
vt 0.104082 0.54422802
vt 0.103948 0.51471102
vt 0.103935 0.54813498
vt 0.775585 0.54813498
vt 0.775509 0.51080298
vt 0.103858 0.51080298
vt 0.10401 0.50689602
vt 0.77566 0.50689602
vt 0.77566 0.49549496
vt 0.10401 0.49549603
vt 0.68316 0.24659503
vt 0.749783 0.24659401
vt 0.749777 0.07602602
vt 0.683161 0.07602602
vt 0.440074 0.906096995
vt 0.435446 0.90917802
vt 0.438016 0.908885
vt 0.437703 0.90499097
vt 0.444489 0.90389699
vt 0.426131 0.905397
vt 0.437866 0.96225202
vt 0.432601 0.908701
vt 0.4423 0.90204799
vt 0.450079 0.90287399
vt 0.43506 0.90389001
vt 0.448902 0.901151
vt 0.556825 0.90288401
vt 0.440243 0.90061301
vt 0.432161 0.90254003
vt 0.447118 0.899393976
vt 0.429439 0.90748
vt 0.429098 0.901362
vt 0.438086 0.899200976
vt 0.435824 0.89800501
vt 0.445658 0.89801103
vt 0.443902 0.896525025
vt 0.564223 0.89652401
vt 0.435341 0.961934984
vt 0.439908 0.965040028
vt 0.562128 0.897726
vt 0.572301 0.89800501
vt 0.437583 0.96609801
vt 0.444311 0.96724099
vt 0.432536 0.96236998
vt 0.442168 0.96902603
vt 0.449895 0.968264997
vt 0.434984 0.967149973
vt 0.429409 0.963536978
vt 0.426131 0.965554
vt 0.429098 0.969587982
vt 0.432125 0.96845299
vt 0.438046 0.971781015
vt 0.435824 0.972945988
vt 0.440158 0.970404983
vt 0.445429 0.973102987
vt 0.443901 0.974425972
vt 0.446732 0.971653998
vt 0.448365 0.969902992
vt 0.558195 0.97042203
vt 0.556642 0.968276024
vt 0.564223 0.974425972
vt 0.562231 0.96725303
vt 0.562603 0.973079026
vt 0.572301 0.972945988
vt 0.563983 0.969321012
vt 0.566646 0.965053022
vt 0.560216 0.971961021
vt 0.566665 0.970670998
vt 0.569441 0.971782982
vt 0.568897 0.966398
vt 0.568704 0.962266028
vt 0.571961 0.967468023
vt 0.575344 0.96860403
vt 0.579027 0.969587982
vt 0.571407 0.961893976
vt 0.574633 0.962174
vt 0.578189 0.963325977
vt 0.581994 0.965554
vt 0.581994 0.905395985
vt 0.578235 0.907656014
vt 0.579027 0.901362
vt 0.574721 0.908855975
vt 0.575386 0.90240002
vt 0.571532 0.909197986
vt 0.568854 0.908897996
vt 0.569485 0.899239
vt 0.572046 0.90359098
vt 0.566755 0.900415
vt 0.569024 0.90471399
vt 0.566812 0.90610999
vt 0.560242 0.898971975
vt 0.56412 0.90180898
vt 0.562409 0.90390903
vt 0.558319 0.90079898
vt 0.397173 0.24659699
vt 0.281903 0.24659699
vt 0.281901 0.251324
vt 0.289751 0.25132096
vt 0.566968 0.64598697
vt 0.572185 0.64279902
vt 0.569051 0.64123702
vt 0.56976 0.64762098
vt 0.57143 0.636665
vt 0.562668 0.64953202
vt 0.574828 0.637419
vt 0.572639 0.649274
vt 0.575627 0.644436
vt 0.564806 0.65136403
vt 0.579365 0.645916
vt 0.560569 0.64769298
vt 0.445216 0.65118098
vt 0.578486 0.639098
vt 0.582332 0.641882
vt 0.582332 0.581724
vt 0.568411 0.63681
vt 0.566722 0.639489
vt 0.568852 0.585298
vt 0.564289 0.64412397
vt 0.562461 0.641612
vt 0.558727 0.64517403
vt 0.55677 0.64261103
vt 0.453759 0.6426
vt 0.578498 0.584063
vt 0.579365 0.57769
vt 0.571621 0.585658
vt 0.57567 0.578784
vt 0.574901 0.58530998
vt 0.572639 0.574332
vt 0.572271 0.580029
vt 0.569181 0.581199
vt 0.566881 0.58260798
vt 0.569807 0.57562602
vt 0.567063 0.57687098
vt 0.564424 0.578337
vt 0.562632 0.58048397
vt 0.563131 0.57323998
vt 0.565239 0.571738
vt 0.559156 0.57616103
vt 0.561337 0.574341
vt 0.556947 0.579507
vt 0.444484 0.571876
vt 0.447165 0.573358
vt 0.436162 0.574333
vt 0.449689 0.574947
vt 0.439402 0.57556403
vt 0.429436 0.57769
vt 0.451638 0.576648
vt 0.454232 0.579485
vt 0.442573 0.577012
vt 0.445683 0.57853103
vt 0.448838 0.580472
vt 0.433452 0.578992
vt 0.437361 0.58045298
vt 0.441107 0.581595
vt 0.444577 0.582596
vt 0.434928 0.585868
vt 0.430743 0.58442098
vt 0.426469 0.581725
vt 0.438789 0.58618098
vt 0.442295 0.585297
vt 0.426469 0.641882
vt 0.430691 0.63879597
vt 0.429436 0.645916
vt 0.434869 0.63693702
vt 0.43342 0.64425302
vt 0.438783 0.636217
vt 0.442447 0.63678598
vt 0.444418 0.639476
vt 0.441001 0.64088702
vt 0.448667 0.6416
vt 0.437295 0.64241803
vt 0.445556 0.64389902
vt 0.442494 0.645818
vt 0.451374 0.64551598
vt 0.439364 0.64766002
vt 0.436162 0.649274
vt 0.44891 0.647798
vt 0.446677 0.649629
vt 0.749783 0.071298
vt 0.683161 0.07129902
vt 0.683161 0.07602602
vt 0.749777 0.07602602
vt 0.98918 0.984003007
vt 0.764132 0.984041989
vt 0.761386 0.99554801
vt 0.989187 0.9955090284
vt 0.988978 0.570157
vt 0.763215 0.57018298
vt 0.988957 0.55869
vt 0.765888 0.558726
vt 0.683151 0.07602501
vt 0.683151 0.071298
vt 0.580773 0.071298
vt 0.580773 0.07602501
vt 0.040286 0.49007404
vt 0.064573 0.490075
vt 0.064574 0.477845
vt 0.040283 0.47785103
vt 0.064611 0.024353981
vt 0.06461 0.036572993
vt 0.940962 0.036596
vt 0.940963 0.024371982
vt 0.227021 0.45691502
vt 0.064574 0.477845
vt 0.940926 0.47786903
vt 0.782906 0.45691502
vt 0.015032 0.572573
vt 0.014815 0.985019028
vt 0.244025 0.98505801
vt 0.243038 0.572599
vt 0.015019 0.561141
vt 0.240357 0.561175
vt 0.246654 0.9964900017
vt 0.244025 0.98505801
vt 0.014809 0.996450007
vt 0.965249 0.036597013
vt 0.96525 0.024384975
vt 0.940963 0.024371982
vt 0.940962 0.036596
vt 0.68316 0.25132203
vt 0.749783 0.25132096
vt 0.749783 0.24659401
vt 0.68316 0.24659503
vt 0.580772 0.246593
vt 0.580772 0.25132
vt 0.68316 0.25132
vt 0.683157 0.24659401
vt 0.040318 0.03657198
vt 0.06461 0.036572993
vt 0.064611 0.024353981
vt 0.040324 0.024353981
vt 0.940926 0.47786903
vt 0.940962 0.036596
vt 0.782806 0.059047997
vt 0.782906 0.45691502
vt 0.631131 0.560192
vt 0.572639 0.574332
vt 0.579365 0.57769
vt 0.582332 0.641882
vt 0.579365 0.645916
vt 0.631131 0.66645402
vt 0.631131 0.560192
vt 0.579365 0.57769
vt 0.582332 0.581724
vt 0.064574 0.477845
vt 0.227021 0.45691502
vt 0.232052 0.05920601
vt 0.06461 0.036572993
vt 0 0
vt 0 0
vt 0 0
vt 0.06461 0.036572993
vt 0.232052 0.05920601
vt 0.782806 0.059047997
vt 0.940962 0.036596
vt 0.631131 0.87897998
vt 0.579027 0.901362
vt 0.581994 0.905395985
vt 0.579027 0.969587982
vt 0.572301 0.972945988
vt 0.631131 0.985243022
vt 0.581994 0.965554
vt 0.579027 0.969587982
vt 0.631131 0.985243022
vn 0 0.0925 -0.9957
vn 0 0.0925 -0.9957
vn 0 0.0925 -0.9957
vn 0 0.0925 -0.9957
vn -0 0.0927 -0.9957
vn 0.0003 0.0931 -0.9957
vn 0.0004 0.0933 -0.9956
vn -0 0.0927 -0.9957
vn -0.0003 0.0932 -0.9956
vn -0 0.0927 -0.9957
vn -0.0004 0.0934 -0.9956
vn 0 0.0926 -0.9957
vn 0 0.0926 -0.9957
vn 0 0.0926 -0.9957
vn 0 0.0926 -0.9957
vn -0 0.1163 -0.9932
vn -0 0.1266 -0.992
vn 0.0132 0.109 -0.994
vn -0 0.1163 -0.9932
vn -0 0.1265 -0.992
vn -0 0.1265 -0.992
vn 0.0049 0.0943 -0.9955
vn -0 0.1163 -0.9932
vn 0.045 0.1047 -0.9935
vn 0.0209 0.0961 -0.9951
vn 0.0052 0.0887 -0.996
vn -0.0055 0.0885 -0.9961
vn -0.0121 0.0918 -0.9957
vn -0.022 0.0952 -0.9952
vn -0.0492 0.1032 -0.9934
vn -0.1339 0.122 -0.9835
vn 0.0352 0.1069 -0.9936
vn 0.0414 0.1062 -0.9935
vn 0.0502 0.1081 -0.9929
vn -0 0.1163 -0.9932
vn -0.005 0.0945 -0.9955
vn -0.0132 0.1094 -0.9939
vn -0 0.1266 -0.992
vn -0 0.1163 -0.9932
vn -0.0429 0.1054 -0.9935
vn -0.0203 0.0965 -0.9951
vn -0 0.1267 -0.9919
vn -0 0.1163 -0.9932
vn -0.005 0.0887 -0.996
vn -0 0.1266 -0.992
vn 0.0057 0.0883 -0.9961
vn 0.0124 0.0897 -0.9959
vn 0.0226 0.0945 -0.9953
vn 0.0522 0.102 -0.9934
vn 0.0624 0.106 -0.9924
vn -0.0462 0.1146 -0.9923
vn -0.1422 0.1224 -0.9822
vn -0.0529 0.1071 -0.9928
vn -0 0.1272 -0.9919
vn -0 0.1272 -0.9919
vn -0 0.1272 -0.9919
vn -0 0.1272 -0.9919
vn -0 0.1272 -0.9919
vn -0 0.1272 -0.9919
vn -0 0.1272 -0.9919
vn -0 0.1272 -0.9919
vn -0 0.1272 -0.9919
vn 0 0.1273 -0.9919
vn 0 0.1269 -0.9919
vn -0 0.1272 -0.9919
vn -0 0.1272 -0.9919
vn -0 0.1272 -0.9919
vn -0 0.1272 -0.9919
vn -0 0.1272 -0.9919
vn -0 0.1271 -0.9919
vn -0 0.1272 -0.9919
vn -0.0001 0.1272 -0.9919
vn 0.0002 0.1271 -0.9919
vn -0.0001 0.1272 -0.9919
vn -0 0.1272 -0.9919
vn -0 0.1272 -0.9919
vn -0 0.1272 -0.9919
vn -0 0.1272 -0.9919
vn -0 0.1272 -0.9919
vn -0 0.1272 -0.9919
vn -0 0.1272 -0.9919
vn -0 0.1272 -0.9919
vn -0 0.1272 -0.9919
vn 0 0.1273 -0.9919
vn -0 0.1272 -0.9919
vn -0 0.1271 -0.9919
vn -0 0.1272 -0.9919
vn -0 0.1272 -0.9919
vn -0 0.1272 -0.9919
vn -0 0.1272 -0.9919
vn -0 0.1272 -0.9919
vn -0 0.1272 -0.9919
vn -0 0.1272 -0.9919
vn -0 0.1272 -0.9919
vn -0 0.1272 -0.9919
vn 0.0001 0.1271 -0.9919
vn -0 0.1271 -0.9919
vn -0 0.1271 -0.9919
vn -0 0.1272 -0.9919
vn -0 0.1272 -0.9919
vn -0 0.1272 -0.9919
vn -0 0.1272 -0.9919
vn -0 0.1272 -0.9919
vn -0 0.1271 -0.9919
vn -0 0.1272 -0.9919
vn 0 0.1274 -0.9918
vn 0 0.1273 -0.9919
vn 0 0.1269 -0.9919
vn -0 0.1272 -0.9919
vn -0 0.1272 -0.9919
vn -0 0.1272 -0.9919
vn -0 0.1272 -0.9919
vn -0 0.1272 -0.9919
vn -0 0.1272 -0.9919
vn -0 0.1272 -0.9919
vn -0.0001 0.1272 -0.9919
vn -0.0002 0.1272 -0.9919
vn -0.0003 0.1272 -0.9919
vn -0 0.1272 -0.9919
vn -0 0.1272 -0.9919
vn -0 0.1272 -0.9919
vn -0 0.1272 -0.9919
vn -0 0.1272 -0.9919
vn -0 0.1272 -0.9919
vn -0 0.1271 -0.9919
vn -0 0.1271 -0.9919
vn 0 0.1275 -0.9918
vn 0 0.1273 -0.9919
vn -0 0.127 -0.9919
vn -0 0.1271 -0.9919
vn -0 0.1272 -0.9919
vn -0 0.1272 -0.9919
vn -0 0.1272 -0.9919
vn -0 0.1272 -0.9919
vn -0 0.1272 -0.9919
vn -0 0.1272 -0.9919
vn -0 0.1272 -0.9919
vn -0 0.1272 -0.9919
vn -0 0.1272 -0.9919
vn 0.0001 0.1271 -0.9919
vn -0 0.1271 -0.9919
vn 0 0.1259 -0.992
vn 0.0038 0.1438 -0.9896
vn 0 0.1443 -0.9895
vn -0 0.3231 -0.9464
vn 0.0445 0.3182 -0.947
vn -0.0038 0.1438 -0.9896
vn -0.0445 0.3182 -0.947
vn 0.0075 0.1426 -0.9897
vn 0.0868 0.3034 -0.9489
vn -0.0075 0.1426 -0.9897
vn -0.0868 0.3034 -0.9489
vn 0.0108 0.1407 -0.99
vn 0.1248 0.2798 -0.9519
vn -0.0108 0.1407 -0.99
vn -0.1248 0.2798 -0.9519
vn 0.0136 0.138 -0.9903
vn 0.1565 0.2484 -0.9559
vn -0.0136 0.138 -0.9903
vn -0.1565 0.2484 -0.9559
vn 0.0159 0.1347 -0.9908
vn 0.1803 0.2108 -0.9608
vn -0.0159 0.1347 -0.9908
vn -0.1803 0.2108 -0.9608
vn 0.0173 0.131 -0.9912
vn 0.1952 0.1688 -0.9661
vn -0.0173 0.131 -0.9912
vn -0.1952 0.1687 -0.9661
vn 0.0179 0.1272 -0.9917
vn 0.2002 0.1246 -0.9718
vn -0.0179 0.1272 -0.9917
vn -0.2002 0.1246 -0.9718
vn 0.0176 0.1233 -0.9922
vn 0.1952 0.0804 -0.9775
vn -0.0176 0.1233 -0.9922
vn -0.1952 0.0804 -0.9775
vn 0.0164 0.1194 -0.9927
vn 0.1804 0.0384 -0.9828
vn -0.0164 0.1194 -0.9927
vn -0.1804 0.0384 -0.9828
vn 0.0143 0.1159 -0.9932
vn 0.1565 0.0007 -0.9877
vn -0.0143 0.1159 -0.9932
vn -0.1565 0.0007 -0.9877
vn 0.0115 0.1129 -0.9935
vn 0.1248 -0.0307 -0.9917
vn -0.0115 0.1129 -0.9935
vn -0.1248 -0.0307 -0.9917
vn 0.008 0.1106 -0.9938
vn 0.0869 -0.0543 -0.9947
vn -0.008 0.1106 -0.9938
vn -0.0869 -0.0543 -0.9947
vn 0.0042 0.1093 -0.994
vn 0.0446 -0.069 -0.9966
vn -0.0042 0.1093 -0.994
vn -0.0446 -0.069 -0.9966
vn 0 0.1087 -0.9941
vn 0 -0.074 -0.9973
vn 0 0.1259 -0.992
vn 0.0038 0.1438 -0.9896
vn 0 0.1442 -0.9895
vn -0 0.3231 -0.9464
vn 0.0445 0.3182 -0.947
vn -0.0038 0.1438 -0.9896
vn -0.0445 0.3182 -0.947
vn 0.0075 0.1426 -0.9897
vn 0.0868 0.3034 -0.9489
vn -0.0075 0.1426 -0.9897
vn -0.0868 0.3034 -0.9489
vn 0.0108 0.1407 -0.99
vn 0.1248 0.2798 -0.9519
vn -0.0108 0.1407 -0.99
vn -0.1248 0.2798 -0.9519
vn 0.0136 0.138 -0.9903
vn 0.1565 0.2484 -0.9559
vn -0.0136 0.138 -0.9903
vn -0.1565 0.2484 -0.9559
vn 0.0159 0.1348 -0.9908
vn 0.1803 0.2107 -0.9608
vn -0.0159 0.1348 -0.9908
vn -0.1803 0.2108 -0.9608
vn 0.0173 0.131 -0.9912
vn 0.1952 0.1687 -0.9661
vn -0.0173 0.131 -0.9912
vn -0.1951 0.1687 -0.9662
vn 0.0179 0.1272 -0.9917
vn 0.2002 0.1246 -0.9718
vn -0.0179 0.1272 -0.9917
vn -0.2002 0.1246 -0.9718
vn 0.0176 0.1233 -0.9922
vn 0.1952 0.0804 -0.9775
vn -0.0176 0.1233 -0.9922
vn -0.1952 0.0804 -0.9775
vn 0.0164 0.1194 -0.9927
vn 0.1804 0.0384 -0.9828
vn -0.0164 0.1194 -0.9927
vn -0.1804 0.0384 -0.9828
vn 0.0143 0.1159 -0.9932
vn 0.1565 0.0007 -0.9877
vn -0.0143 0.1159 -0.9932
vn -0.1565 0.0007 -0.9877
vn 0.0115 0.1129 -0.9935
vn 0.1248 -0.0307 -0.9917
vn -0.0115 0.1129 -0.9935
vn -0.1248 -0.0307 -0.9917
vn 0.008 0.1106 -0.9938
vn 0.0869 -0.0543 -0.9947
vn -0.008 0.1106 -0.9938
vn -0.0869 -0.0543 -0.9947
vn 0.0042 0.1093 -0.994
vn 0.0446 -0.069 -0.9966
vn -0.0042 0.1093 -0.994
vn -0.0446 -0.069 -0.9966
vn 0 0.1087 -0.9941
vn 0 -0.074 -0.9973
vn 0 -0.4505 -0.8928
vn 0 -0.4499 -0.8931
vn 0 0.635 -0.7725
vn 0 -0.9581 -0.2863
vn 0 0.6349 -0.7726
vn 0 -0.9581 -0.2864
vn 0 0.9922 -0.1246
vn 0 -0.9742 -0.2255
vn 0 0.9922 -0.1247
vn 0 -0.9743 -0.2254
vn 0 0.9801 0.1986
vn 0 -0.6962 -0.7178
vn 0 0.9801 0.1984
vn 0 -0.6963 -0.7177
vn 0 0.7459 0.666
vn 0 -0.1483 -0.9889
vn 0 0.7459 0.6661
vn -0 -0.1482 -0.989
vn 0 0.1911 0.9816
vn 0 -0.0682 -0.9977
vn 0 0.1912 0.9815
vn 0 -0.0684 -0.9977
vn 0 0.0678 0.9977
vn 0 -0.4459 -0.8951
vn 0 0.0678 0.9977
vn 0 -0.4462 -0.8949
vn 0 0.4456 0.8953
vn 0 -0.7981 -0.6025
vn 0 0.4454 0.8953
vn 0 -0.7981 -0.6025
vn 0 0.7983 0.6022
vn -0 -0.9578 -0.2874
vn 0 0.7982 0.6024
vn 0 -0.958 -0.2868
vn 0 0.9581 0.2864
vn 0 -0.9966 -0.083
vn 0 0.9581 0.2866
vn 0 -0.9965 -0.083
vn 0 0.9966 0.0829
vn 0 -0.9997 -0.0255
vn 0 -0.9997 -0.0255
vn 0 0.9966 0.083
vn 0 0.9997 0.0255
vn 0 0.9997 0.0255
vn 0 -0.0596 0.9982
vn 0 -0.0596 0.9982
vn 0 -0.0596 0.9982
vn 0 -0.0596 0.9982
vn 0 -0.0596 0.9982
vn 0.0003 -0.0599 0.9982
vn 0.0003 -0.0599 0.9982
vn 0.0004 -0.06 0.9982
vn 0 -0.0596 0.9982
vn 0 -0.0596 0.9982
vn 0 -0.0596 0.9982
vn 0 -0.0596 0.9982
vn 0 -0.0596 0.9982
vn 0 -0.0596 0.9982
vn 0 -0.0596 0.9982
vn 0 -0.0596 0.9982
vn 0.0003 -0.0596 0.9982
vn 0.0003 -0.0596 0.9982
vn 0.0003 -0.0596 0.9982
vn 0 0.752 -0.6591
vn 0.5734 0.6186 -0.5372
vn 0.6978 0.7147 0.0472
vn 0 0.9978 0.0658
vn 0.7023 -0.7061 -0.0905
vn 0 0.9978 0.0658
vn 0.5754 -0.5015 -0.6461
vn 0 0.752 -0.6591
vn -0 -0.6116 -0.7911
vn -0.6978 0.7147 0.0471
vn 0 -0.9919 -0.1272
vn -0.5734 0.6186 -0.5371
vn -0 -0.6116 -0.7911
vn -0.7023 -0.7061 -0.0905
vn 0 -0.9919 -0.1272
vn -0.5753 -0.5016 -0.6461
vn -0.3818 -0.0585 0.9224
vn -0.3788 -0.0586 0.9236
vn -0.0801 -0.0631 0.9948
vn -0.0804 -0.0631 0.9948
vn -0.6953 -0.0455 0.7172
vn -0.6295 -0.0492 0.7754
vn -0.6906 -0.0458 0.7218
vn -0.6457 -0.0484 0.762
vn -0.9194 -0.0249 0.3926
vn -0.7614 0.0411 -0.6469
vn -0.9159 -0.0254 0.4006
vn -0.779 0.0397 -0.6258
vn -0.9935 -0.0072 0.1139
vn 0.0711 0.0632 -0.9955
vn -0.9929 -0.0075 0.1183
vn 0.0713 0.0632 -0.9955
vn -0.9997 -0.0015 0.0232
vn -0.9997 -0.0015 0.0232
vn 0.3916 0.0583 -0.9183
vn 0.3884 0.0584 -0.9197
vn 0.7186 0.0441 -0.6941
vn 0.7139 0.0444 -0.6988
vn 0.9213 0.0246 -0.388
vn 0.9183 0.0251 -0.3951
vn 0.9925 0.0077 -0.122
vn 0.9919 0.008 -0.1268
vn 0.9997 0.0015 -0.0232
vn 0.9997 0.0015 -0.0232
vn -0.9997 0.0015 -0.0232
vn -0.9997 0.0015 -0.0232
vn -0.9919 0.008 -0.1268
vn -0.9925 0.0077 -0.1218
vn -0.9184 0.0251 -0.395
vn -0.9214 0.0246 -0.3878
vn -0.714 0.0443 -0.6987
vn -0.7185 0.044 -0.6941
vn -0.3884 0.0584 -0.9196
vn -0.3919 0.0583 -0.9182
vn -0.0712 0.0632 -0.9955
vn -0.0716 0.0632 -0.9954
vn 0.7789 0.0397 -0.6259
vn 0.7615 0.0411 -0.6469
vn 0.6046 -0.0504 0.795
vn 0.621 -0.0496 0.7823
vn -0.0702 -0.0632 0.9955
vn -0.0704 -0.0632 0.9955
vn 0.0938 -0.063 0.9936
vn 0.0944 -0.063 0.9935
vn 0.3815 -0.0585 0.9225
vn 0.3791 -0.0586 0.9235
vn 0.6953 -0.0455 0.7173
vn 0.6905 -0.0458 0.7219
vn 0.9195 -0.0249 0.3923
vn 0.916 -0.0254 0.4003
vn 0.9935 -0.0072 0.1139
vn 0.9929 -0.0075 0.1183
vn 0.9997 -0.0015 0.0232
vn 0.9997 -0.0015 0.0232
vn 0 0.9975 0.071
vn 0 0.9975 0.0711
vn 0 0.9975 0.0711
vn 0 0.9975 0.071
vn -0.0022 0.0444 -0.999
vn -0.0021 0.0444 -0.999
vn -0.0022 0.0444 -0.999
vn -0.0022 0.0444 -0.999
vn 0 -0.0595 -0.9982
vn 0 -0.0595 -0.9982
vn 0 -0.0595 -0.9982
vn 0 -0.0248 -0.9997
vn 0 -0.0595 -0.9982
vn 0 -0.0075 -1
vn 0 0.0445 -0.999
vn 0 0.0445 -0.999
vn -0 -0.3832 -0.9237
vn -0 -0.6817 -0.7316
vn 0 -0.6818 -0.7316
vn -0 -0.7281 -0.6854
vn 0 -0.3831 -0.9237
vn 0 -0.7282 -0.6854
vn 0 -0.123 -0.9924
vn -0 -0.8722 -0.4891
vn 0 -0.123 -0.9924
vn -0 -0.8722 -0.4892
vn 0 -0.0326 -0.9995
vn 0 -0.0326 -0.9995
vn 0 -0.7597 0.6503
vn 0 -0.7597 0.6502
vn 0 -0.7814 0.624
vn 0 -0.7814 0.624
vn -0 -0.9752 -0.2213
vn -0 -0.9752 -0.2213
vn 0 -0.9987 -0.05
vn 0 -0.9987 -0.05
vn 0 -0.9987 -0.05
vn 0 -0.9987 -0.05
vn 0.372 0.6452 -0.6673
vn 0.1709 0.9229 -0.3449
vn 0.1055 0.6029 -0.7908
vn 0.5125 0.8416 -0.1703
vn 0.6026 0.4451 -0.6624
vn 0.035 0.5411 -0.8402
vn -0.1047 0.6014 -0.792
vn 0.1573 0.8656 -0.4754
vn 0.8146 0.5575 -0.16
vn 0.515 0.1877 -0.8364
vn 0.4471 0.7649 -0.4637
vn 0.9172 0.2319 -0.324
vn 0.6003 -0.039 -0.7988
vn 0.7061 0.5172 -0.4838
vn 0.2579 0.5126 -0.819
vn 0.8344 0.2275 -0.5021
vn 0.0936 0.7275 -0.6797
vn 0.0712 0.2362 -0.9691
vn 0.408 0.3705 -0.8344
vn 0.1124 0.1969 -0.974
vn 0.6747 0.1899 -0.7133
vn 0.4647 0.1493 -0.8728
vn 0.4768 0.0724 -0.876
vn -0.1709 0.9229 -0.3449
vn -0.372 0.6452 -0.6673
vn 0.6817 -0.01 -0.7316
vn 0.123 0.0477 -0.9913
vn -0.5125 0.8416 -0.1703
vn -0.6026 0.4451 -0.6624
vn -0.1573 0.8656 -0.4754
vn -0.8146 0.5576 -0.16
vn -0.5061 0.1868 -0.842
vn -0.4471 0.7649 -0.4637
vn -0.0936 0.7274 -0.6798
vn -0.0358 0.5449 -0.8377
vn -0.0712 0.2362 -0.9691
vn -0.2579 0.5126 -0.819
vn -0.4081 0.3705 -0.8344
vn -0.1124 0.1969 -0.974
vn -0.706 0.5172 -0.4838
vn -0.6747 0.1899 -0.7132
vn -0.4685 0.1493 -0.8708
vn -0.8344 0.2274 -0.5021
vn -0.9171 0.2319 -0.3242
vn -0.9307 -0.1419 -0.3371
vn -0.6003 -0.039 -0.7988
vn -0.4815 0.0706 -0.8736
vn -0.6599 -0.37 -0.6539
vn -0.6816 -0.0063 -0.7317
vn -0.1228 0.0479 -0.9913
vn -0.8488 -0.5165 -0.1132
vn -0.4292 -0.6217 -0.6552
vn -0.8384 -0.0952 -0.5367
vn -0.7293 -0.3967 -0.5574
vn -0.4325 -0.1636 -0.8867
vn -0.5458 -0.8321 -0.0985
vn -0.1104 -0.5189 -0.8477
vn -0.4705 -0.666 -0.5789
vn -0.2795 -0.3233 -0.9041
vn -0.0792 0.0028 -0.9969
vn -0.1954 -0.931 -0.3083
vn -0.168 -0.8082 -0.5644
vn -0.1045 -0.6299 -0.7696
vn -0.0436 -0.4064 -0.9126
vn 0.0443 -0.4108 -0.9107
vn 0.1045 -0.63 -0.7696
vn 0.0792 0.0028 -0.9969
vn 0.168 -0.8082 -0.5644
vn 0.2795 -0.3233 -0.9041
vn 0.1954 -0.931 -0.3082
vn 0.1104 -0.519 -0.8476
vn 0.4327 -0.1634 -0.8866
vn 0.4705 -0.666 -0.5789
vn 0.7293 -0.3967 -0.5574
vn 0.5458 -0.8321 -0.0985
vn 0.4292 -0.6217 -0.6552
vn 0.839 -0.0907 -0.5365
vn 0.8488 -0.5165 -0.1132
vn 0.6599 -0.37 -0.654
vn 0.9312 -0.1413 -0.3361
vn -0.0004 -0.0592 0.9982
vn 0 -0.0587 0.9983
vn -0.0004 -0.0592 0.9982
vn -0.0008 -0.0596 0.9982
vn -0.7293 -0.3967 -0.5574
vn -0.4704 -0.6659 -0.579
vn -0.5408 -0.8341 -0.1086
vn -0.4326 -0.1634 -0.8866
vn -0.1854 -0.928 -0.3231
vn -0.6826 -0.0065 -0.7308
vn -0.1681 -0.8045 -0.5697
vn -0.123 0.0477 -0.9913
vn -0.2796 -0.3235 -0.904
vn -0.4856 0.0697 -0.8714
vn -0.0793 0.0028 -0.9968
vn -0.839 -0.0953 -0.5358
vn -0.4694 0.1493 -0.8703
vn -0.1046 -0.6248 -0.7737
vn -0.0434 -0.4 -0.9155
vn 0.0437 -0.4044 -0.9135
vn -0.1092 -0.522 -0.8459
vn -0.4181 -0.6238 -0.6603
vn 0.1107 -0.5029 -0.8572
vn -0.8497 -0.5141 -0.1173
vn -0.6603 -0.3674 -0.655
vn -0.9316 -0.1417 -0.3347
vn -0.5865 -0.0247 -0.8096
vn -0.5265 0.1983 -0.8267
vn 0.1041 -0.6248 -0.7738
vn 0.0792 0.0028 -0.9969
vn 0.1964 -0.9257 -0.3234
vn 0.2796 -0.3235 -0.904
vn 0.1677 -0.8045 -0.5698
vn 0.1229 0.0477 -0.9913
vn 0.4704 -0.666 -0.5789
vn 0.5458 -0.8321 -0.0984
vn 0.4292 -0.6217 -0.6552
vn 0.4326 -0.1633 -0.8867
vn 0.7293 -0.3967 -0.5574
vn 0.8501 -0.5128 -0.1196
vn 0.6606 -0.3659 -0.6555
vn 0.6814 -0.0064 -0.7318
vn 0.4759 0.0717 -0.8766
vn 0.9317 -0.1358 -0.3369
vn 0.8381 -0.0951 -0.5372
vn 0.5856 -0.0237 -0.8102
vn 0.4678 0.1495 -0.8711
vn 0.6743 0.1899 -0.7136
vn 0.1124 0.1969 -0.974
vn 0.8341 0.2274 -0.5026
vn 0.408 0.3705 -0.8344
vn 0.0712 0.2362 -0.9691
vn 0.9169 0.232 -0.3246
vn 0.5149 0.1876 -0.8365
vn 0.7061 0.5172 -0.4837
vn 0.8146 0.5576 -0.16
vn 0.6026 0.4451 -0.6624
vn 0.258 0.5127 -0.8189
vn 0.4471 0.7649 -0.4638
vn 0.5189 0.8401 -0.1582
vn 0.3798 0.644 -0.6641
vn 0.1571 0.8681 -0.4709
vn 0.0935 0.7311 -0.6758
vn 0.0351 0.5458 -0.8372
vn 0.178 0.9242 -0.338
vn 0.1075 0.5998 -0.7929
vn -0.0362 0.5496 -0.8346
vn -0.0939 0.7311 -0.6758
vn -0.0712 0.2361 -0.9691
vn -0.1575 0.8681 -0.4708
vn -0.258 0.5127 -0.8189
vn -0.1739 0.9286 -0.3279
vn -0.1084 0.6099 -0.785
vn -0.372 0.6452 -0.6673
vn -0.5125 0.8416 -0.1703
vn -0.6018 0.4496 -0.6601
vn -0.4471 0.7649 -0.4637
vn -0.8142 0.5593 -0.1558
vn -0.706 0.5172 -0.4838
vn -0.9188 0.2375 -0.3154
vn -0.4085 0.3704 -0.8342
vn -0.1124 0.1969 -0.974
vn -0.8349 0.2273 -0.5012
vn -0.6751 0.1893 -0.713
vn -0.0003 -0.9987 -0.0501
vn -0.0003 -0.9987 -0.05
vn -0 -0.9987 -0.0501
vn -0.0004 -0.9987 -0.0501
vn -1 0 0
vn -1 0 0
vn -1 0 0
vn -1 0 0
vn -1 0 0
vn -1 0 0
vn -1 0 0
vn -1 0 0
vn 0.0017 0.9975 0.0712
vn 0.0017 0.9975 0.0712
vn 0.0018 0.9975 0.0711
vn 0.0018 0.9975 0.0711
vn -0.0022 -0.0573 -0.9984
vn -0.0022 -0.0573 -0.9984
vn -0.0022 -0.0573 -0.9984
vn -0.0022 -0.0573 -0.9984
vn 0 -0.0571 -0.9984
vn 0 -0.057 -0.9984
vn -0 -0.0574 -0.9983
vn 0 -0.0571 -0.9984
vn -0 -0.9973 -0.0731
vn -0 -0.9973 -0.0731
vn -0 -0.9973 -0.0731
vn -0 -0.9973 -0.0731
vn 1 0.0001 0
vn 1 -0 0
vn 1 -0 0
vn 1 -0.0001 -0
vn 1 -0.0003 -0
vn 1 -0.0002 -0
vn 1 0.0002 0
vn 1 0.0002 0
vn 1 -0 0
vn 0 -0.0567 -0.9984
vn 0 -0.0567 -0.9984
vn 0 -0.0567 -0.9984
vn 0 -0.0568 -0.9984
vn -0.0009 -0.9987 -0.05
vn -0 -0.9987 -0.0501
vn -0.0001 -0.9987 -0.0501
vn -0.0006 -0.9987 -0.0501
vn 0.0013 0.9975 0.0713
vn 0.0015 0.9975 0.0713
vn 0.0015 0.9975 0.0712
vn 0.0015 0.9975 0.0712
vn -0 -0.0574 -0.9983
vn -0 -0.0574 -0.9983
vn -0 -0.0574 -0.9983
vn -0 -0.0574 -0.9983
vn 1 -0 0
vn 1 -0 0
vn 1 -0 0
vn 1 -0 0
vn 0.0249 0.1018 -0.9945
vn 0.0249 0.1018 -0.9945
vn 0.0249 0.1018 -0.9945
vn -0.0108 0.0977 -0.9952
vn -0.0108 0.0977 -0.9952
vn -0.0108 0.0977 -0.9952
vn 0.011 0.0971 -0.9952
vn 0.011 0.0971 -0.9952
vn 0.011 0.0971 -0.9952
vn -1 0 0
vn -1 0 0
vn -1 0 0
vn -1 0 0
vn -0 0.1266 -0.992
vn -0 0.1266 -0.992
vn -0 0.1266 -0.992
vn 0 0.9987 0.0501
vn 0 0.9987 0.0501
vn 0 0.9987 0.0501
vn 0 0.9987 0.0501
vn 0.0105 0.0981 -0.9951
vn 0.0105 0.0981 -0.9951
vn 0.0105 0.0981 -0.9951
vn -0.0257 0.1012 -0.9945
vn -0.0257 0.1012 -0.9945
vn -0.0257 0.1012 -0.9945
vn -0.011 0.0968 -0.9952
vn -0.011 0.0968 -0.9952
vn -0.011 0.0968 -0.9952
f 3/3/3 2/2/2 1/1/1
f 4/4/4 3/3/3 1/1/1
f 7/7/7 6/6/6 5/5/5
f 9/9/9 8/8/8 6/6/6
f 9/9/9 11/11/11 10/10/10
f 14/14/14 13/13/13 12/12/12
f 15/15/15 14/14/14 12/12/12
f 18/18/18 17/17/17 16/16/16
f 17/17/17 20/20/20 19/19/19
f 20/20/20 21/21/21 19/19/19
f 23/23/23 22/22/22 18/18/18
f 18/18/18 22/22/22 24/24/24
f 22/22/22 25/25/25 24/24/24
f 26/26/26 25/25/25 22/22/22
f 26/26/26 22/22/22 27/27/27
f 22/22/22 28/28/28 27/27/27
f 28/28/28 29/29/29 27/27/27
f 30/30/30 29/29/29 28/28/28
f 31/31/31 30/30/30 28/28/28
f 31/31/31 28/28/28 32/32/32
f 28/28/28 33/33/33 32/32/32
f 33/33/33 34/34/34 32/32/32
f 36/36/36 22/22/22 35/35/35
f 36/36/36 35/35/35 37/37/37
f 39/39/39 38/38/38 37/37/37
f 37/37/37 40/40/40 36/36/36
f 36/36/36 40/40/40 41/41/41
f 43/43/43 42/42/42 38/38/38
f 36/36/36 41/41/41 44/44/44
f 45/45/45 42/42/42 43/43/43
f 44/44/44 46/46/46 36/36/36
f 46/46/46 47/47/47 36/36/36
f 46/46/46 48/48/48 47/47/47
f 47/47/47 48/48/48 49/49/49
f 47/47/47 49/49/49 50/50/50
f 47/47/47 50/50/50 51/51/51
f 50/50/50 52/52/52 51/51/51
f 52/52/52 53/53/53 51/51/51
f 56/56/56 55/55/55 54/54/54
f 56/56/56 54/54/54 57/57/57
f 57/57/57 58/58/58 56/56/56
f 58/58/58 59/59/59 56/56/56
f 60/60/60 54/54/54 55/55/55
f 59/59/59 58/58/58 61/61/61
f 63/63/63 62/62/62 55/55/55
f 62/62/62 64/64/64 55/55/55
f 64/64/64 65/65/65 55/55/55
f 65/65/65 60/60/60 55/55/55
f 66/66/66 60/60/60 65/65/65
f 66/66/66 67/67/67 60/60/60
f 67/67/67 66/66/66 68/68/68
f 66/66/66 69/69/69 68/68/68
f 69/69/69 70/70/70 68/68/68
f 70/70/70 69/69/69 71/71/71
f 69/69/69 72/72/72 71/71/71
f 72/72/72 73/73/73 71/71/71
f 73/73/73 74/74/74 71/71/71
f 74/74/74 75/75/75 71/71/71
f 75/75/75 76/76/76 71/71/71
f 77/77/77 71/71/71 76/76/76
f 77/77/77 78/78/78 71/71/71
f 78/78/78 77/77/77 79/79/79
f 77/77/77 80/80/80 79/79/79
f 80/80/80 81/81/81 79/79/79
f 81/81/81 80/80/80 82/82/82
f 80/80/80 83/83/83 82/82/82
f 83/83/83 84/84/84 82/82/82
f 84/84/84 85/85/85 82/82/82
f 85/85/85 86/86/86 82/82/82
f 86/86/86 87/87/87 82/82/82
f 87/87/87 88/88/88 82/82/82
f 88/88/88 89/89/89 82/82/82
f 89/89/89 88/88/88 90/90/90
f 91/91/91 89/89/89 90/90/90
f 90/90/90 92/92/92 91/91/91
f 90/90/90 93/93/93 92/92/92
f 92/92/92 93/93/93 94/94/94
f 61/61/61 92/92/92 94/94/94
f 59/59/59 61/61/61 94/94/94
f 95/95/95 59/59/59 94/94/94
f 93/93/93 96/96/96 94/94/94
f 96/96/96 97/97/97 94/94/94
f 100/100/100 99/99/99 98/98/98
f 100/100/100 98/98/98 101/101/101
f 102/102/102 100/100/100 101/101/101
f 103/103/103 102/102/102 101/101/101
f 104/104/104 98/98/98 99/99/99
f 102/102/102 103/103/103 105/105/105
f 107/107/107 106/106/106 99/99/99
f 106/106/106 108/108/108 99/99/99
f 108/108/108 109/109/109 99/99/99
f 109/109/109 104/104/104 99/99/99
f 110/110/110 104/104/104 109/109/109
f 110/110/110 111/111/111 104/104/104
f 111/111/111 110/110/110 112/112/112
f 113/113/113 111/111/111 112/112/112
f 112/112/112 114/114/114 113/113/113
f 114/114/114 112/112/112 115/115/115
f 112/112/112 116/116/116 115/115/115
f 116/116/116 117/117/117 115/115/115
f 117/117/117 118/118/118 115/115/115
f 118/118/118 119/119/119 115/115/115
f 119/119/119 120/120/120 115/115/115
f 121/121/121 115/115/115 120/120/120
f 121/121/121 122/122/122 115/115/115
f 122/122/122 121/121/121 123/123/123
f 121/121/121 124/124/124 123/123/123
f 124/124/124 125/125/125 123/123/123
f 125/125/125 124/124/124 126/126/126
f 124/124/124 127/127/127 126/126/126
f 127/127/127 128/128/128 126/126/126
f 128/128/128 129/129/129 126/126/126
f 129/129/129 130/130/130 126/126/126
f 130/130/130 131/131/131 126/126/126
f 131/131/131 132/132/132 126/126/126
f 132/132/132 133/133/133 126/126/126
f 133/133/133 132/132/132 134/134/134
f 135/135/135 133/133/133 134/134/134
f 134/134/134 136/136/136 135/135/135
f 134/134/134 137/137/137 136/136/136
f 136/136/136 137/137/137 138/138/138
f 105/105/105 136/136/136 138/138/138
f 102/102/102 105/105/105 138/138/138
f 139/139/139 102/102/102 138/138/138
f 137/137/137 140/140/140 138/138/138
f 140/140/140 141/141/141 138/138/138
f 144/144/144 143/143/143 142/142/142
f 143/143/143 144/144/144 145/145/145
f 146/146/146 143/143/143 145/145/145
f 145/145/145 144/144/144 147/147/147
f 147/147/147 144/144/144 142/142/142
f 148/148/148 145/145/145 147/147/147
f 149/149/149 143/143/143 146/146/146
f 143/143/143 149/149/149 142/142/142
f 150/150/150 149/149/149 146/146/146
f 148/148/148 147/147/147 151/151/151
f 151/151/151 147/147/147 142/142/142
f 152/152/152 148/148/148 151/151/151
f 153/153/153 149/149/149 150/150/150
f 149/149/149 153/153/153 142/142/142
f 154/154/154 153/153/153 150/150/150
f 152/152/152 151/151/151 155/155/155
f 155/155/155 151/151/151 142/142/142
f 156/156/156 152/152/152 155/155/155
f 157/157/157 153/153/153 154/154/154
f 153/153/153 157/157/157 142/142/142
f 158/158/158 157/157/157 154/154/154
f 156/156/156 155/155/155 159/159/159
f 159/159/159 155/155/155 142/142/142
f 160/160/160 156/156/156 159/159/159
f 161/161/161 157/157/157 158/158/158
f 157/157/157 161/161/161 142/142/142
f 162/162/162 161/161/161 158/158/158
f 160/160/160 159/159/159 163/163/163
f 163/163/163 159/159/159 142/142/142
f 164/164/164 160/160/160 163/163/163
f 165/165/165 161/161/161 162/162/162
f 161/161/161 165/165/165 142/142/142
f 166/166/166 165/165/165 162/162/162
f 164/164/164 163/163/163 167/167/167
f 167/167/167 163/163/163 142/142/142
f 168/168/168 164/164/164 167/167/167
f 169/169/169 165/165/165 166/166/166
f 165/165/165 169/169/169 142/142/142
f 170/170/170 169/169/169 166/166/166
f 168/168/168 167/167/167 171/171/171
f 171/171/171 167/167/167 142/142/142
f 172/172/172 168/168/168 171/171/171
f 173/173/173 169/169/169 170/170/170
f 169/169/169 173/173/173 142/142/142
f 174/174/174 173/173/173 170/170/170
f 172/172/172 171/171/171 175/175/175
f 175/175/175 171/171/171 142/142/142
f 176/176/176 172/172/172 175/175/175
f 177/177/177 173/173/173 174/174/174
f 173/173/173 177/177/177 142/142/142
f 178/178/178 177/177/177 174/174/174
f 176/176/176 175/175/175 179/179/179
f 179/179/179 175/175/175 142/142/142
f 180/180/180 176/176/176 179/179/179
f 181/181/181 177/177/177 178/178/178
f 177/177/177 181/181/181 142/142/142
f 182/182/182 181/181/181 178/178/178
f 180/180/180 179/179/179 183/183/183
f 183/183/183 179/179/179 142/142/142
f 184/184/184 180/180/180 183/183/183
f 185/185/185 181/181/181 182/182/182
f 181/181/181 185/185/185 142/142/142
f 186/186/186 185/185/185 182/182/182
f 184/184/184 183/183/183 187/187/187
f 187/187/187 183/183/183 142/142/142
f 188/188/188 184/184/184 187/187/187
f 189/189/189 185/185/185 186/186/186
f 185/185/185 189/189/189 142/142/142
f 190/190/190 189/189/189 186/186/186
f 188/188/188 187/187/187 191/191/191
f 191/191/191 187/187/187 142/142/142
f 192/192/192 188/188/188 191/191/191
f 193/193/193 189/189/189 190/190/190
f 189/189/189 193/193/193 142/142/142
f 194/194/194 193/193/193 190/190/190
f 192/192/192 191/191/191 195/195/195
f 195/195/195 191/191/191 142/142/142
f 196/196/196 192/192/192 195/195/195
f 193/193/193 197/197/197 142/142/142
f 197/197/197 195/195/195 142/142/142
f 197/197/197 193/193/193 194/194/194
f 196/196/196 195/195/195 197/197/197
f 198/198/198 197/197/197 194/194/194
f 198/198/198 196/196/196 197/197/197
f 201/201/201 200/200/200 199/199/199
f 200/200/200 201/201/201 202/202/202
f 203/203/203 200/200/200 202/202/202
f 202/202/202 201/201/201 204/204/204
f 204/204/204 201/201/201 199/199/199
f 205/205/205 202/202/202 204/204/204
f 206/206/206 200/200/200 203/203/203
f 200/200/200 206/206/206 199/199/199
f 207/207/207 206/206/206 203/203/203
f 205/205/205 204/204/204 208/208/208
f 208/208/208 204/204/204 199/199/199
f 209/209/209 205/205/205 208/208/208
f 210/210/210 206/206/206 207/207/207
f 206/206/206 210/210/210 199/199/199
f 211/211/211 210/210/210 207/207/207
f 209/209/209 208/208/208 212/212/212
f 212/212/212 208/208/208 199/199/199
f 213/213/213 209/209/209 212/212/212
f 214/214/214 210/210/210 211/211/211
f 210/210/210 214/214/214 199/199/199
f 215/215/215 214/214/214 211/211/211
f 213/213/213 212/212/212 216/216/216
f 216/216/216 212/212/212 199/199/199
f 217/217/217 213/213/213 216/216/216
f 218/218/218 214/214/214 215/215/215
f 214/214/214 218/218/218 199/199/199
f 219/219/219 218/218/218 215/215/215
f 217/217/217 216/216/216 220/220/220
f 220/220/220 216/216/216 199/199/199
f 221/221/221 217/217/217 220/220/220
f 222/222/222 218/218/218 219/219/219
f 218/218/218 222/222/222 199/199/199
f 223/223/223 222/222/222 219/219/219
f 221/221/221 220/220/220 224/224/224
f 224/224/224 220/220/220 199/199/199
f 225/225/225 221/221/221 224/224/224
f 226/226/226 222/222/222 223/223/223
f 222/222/222 226/226/226 199/199/199
f 227/227/227 226/226/226 223/223/223
f 225/225/225 224/224/224 228/228/228
f 228/228/228 224/224/224 199/199/199
f 229/229/229 225/225/225 228/228/228
f 230/230/230 226/226/226 227/227/227
f 226/226/226 230/230/230 199/199/199
f 231/231/231 230/230/230 227/227/227
f 229/229/229 228/228/228 232/232/232
f 232/232/232 228/228/228 199/199/199
f 233/233/233 229/229/229 232/232/232
f 234/234/234 230/230/230 231/231/231
f 230/230/230 234/234/234 199/199/199
f 235/235/235 234/234/234 231/231/231
f 233/233/233 232/232/232 236/236/236
f 236/236/236 232/232/232 199/199/199
f 237/237/237 233/233/233 236/236/236
f 238/238/238 234/234/234 235/235/235
f 234/234/234 238/238/238 199/199/199
f 239/239/239 238/238/238 235/235/235
f 237/237/237 236/236/236 240/240/240
f 240/240/240 236/236/236 199/199/199
f 241/241/241 237/237/237 240/240/240
f 242/242/242 238/238/238 239/239/239
f 238/238/238 242/242/242 199/199/199
f 243/243/243 242/242/242 239/239/239
f 241/241/241 240/240/240 244/244/244
f 244/244/244 240/240/240 199/199/199
f 245/245/245 241/241/241 244/244/244
f 246/246/246 242/242/242 243/243/243
f 242/242/242 246/246/246 199/199/199
f 247/247/247 246/246/246 243/243/243
f 245/245/245 244/244/244 248/248/248
f 248/248/248 244/244/244 199/199/199
f 249/249/249 245/245/245 248/248/248
f 250/250/250 246/246/246 247/247/247
f 246/246/246 250/250/250 199/199/199
f 251/251/251 250/250/250 247/247/247
f 249/249/249 248/248/248 252/252/252
f 252/252/252 248/248/248 199/199/199
f 253/253/253 249/249/249 252/252/252
f 250/250/250 254/254/254 199/199/199
f 254/254/254 252/252/252 199/199/199
f 254/254/254 250/250/250 251/251/251
f 253/253/253 252/252/252 254/254/254
f 255/255/255 254/254/254 251/251/251
f 255/255/255 253/253/253 254/254/254
f 258/258/258 257/257/257 256/256/256
f 256/256/256 257/257/257 259/259/259
f 260/260/260 258/258/258 256/256/256
f 261/261/261 256/256/256 259/259/259
f 262/262/262 258/258/258 260/260/260
f 263/263/263 261/261/261 259/259/259
f 264/264/264 262/262/262 260/260/260
f 265/265/265 263/263/263 259/259/259
f 266/266/266 262/262/262 264/264/264
f 263/263/263 265/265/265 267/267/267
f 268/268/268 266/266/266 264/264/264
f 265/265/265 269/269/269 267/267/267
f 268/268/268 270/270/270 266/266/266
f 269/269/269 271/271/271 267/267/267
f 270/270/270 272/272/272 266/266/266
f 271/271/271 273/273/273 267/267/267
f 270/270/270 274/274/274 272/272/272
f 275/275/275 273/273/273 271/271/271
f 274/274/274 276/276/276 272/272/272
f 277/277/277 275/275/275 271/271/271
f 276/276/276 274/274/274 278/278/278
f 279/279/279 275/275/275 277/277/277
f 274/274/274 280/280/280 278/278/278
f 281/281/281 279/279/279 277/277/277
f 278/278/278 280/280/280 282/282/282
f 283/283/283 279/279/279 281/281/281
f 280/280/280 284/284/284 282/282/282
f 285/285/285 283/283/283 281/281/281
f 282/282/282 284/284/284 286/286/286
f 283/283/283 285/285/285 287/287/287
f 284/284/284 288/288/288 286/286/286
f 289/289/289 283/283/283 287/287/287
f 286/286/286 288/288/288 290/290/290
f 291/291/291 289/289/289 287/287/287
f 288/288/288 292/292/292 290/290/290
f 293/293/293 291/291/291 287/287/287
f 290/290/290 292/292/292 294/294/294
f 295/295/295 291/291/291 293/293/293
f 296/296/296 295/295/295 293/293/293
f 292/292/292 297/297/297 294/294/294
f 294/294/294 297/297/297 298/298/298
f 297/297/297 299/299/299 298/298/298
f 302/302/302 301/301/301 300/300/300
f 303/303/303 300/300/300 301/301/301
f 304/304/304 303/303/303 301/301/301
f 304/304/304 306/306/306 305/305/305
f 306/306/306 307/307/307 305/305/305
f 308/308/308 302/302/302 300/300/300
f 308/308/308 300/300/300 309/309/309
f 310/310/310 308/308/308 309/309/309
f 312/312/312 311/311/311 310/310/310
f 311/311/311 308/308/308 310/310/310
f 311/311/311 313/313/313 308/308/308
f 313/313/313 302/302/302 308/308/308
f 302/302/302 313/313/313 314/314/314
f 315/315/315 302/302/302 314/314/314
f 315/315/315 317/317/317 316/316/316
f 318/318/318 315/315/315 316/316/316
f 321/321/321 320/320/320 319/319/319
f 322/322/322 321/321/321 319/319/319
f 320/320/320 321/321/321 323/323/323
f 322/322/322 319/319/319 324/324/324
f 325/325/325 320/320/320 323/323/323
f 319/319/319 326/326/326 324/324/324
f 327/327/327 325/325/325 323/323/323
f 324/324/324 326/326/326 328/328/328
f 329/329/329 327/327/327 323/323/323
f 326/326/326 330/330/330 328/328/328
f 331/331/331 327/327/327 329/329/329
f 328/328/328 330/330/330 332/332/332
f 333/333/333 331/331/331 329/329/329
f 333/333/333 332/332/332 331/331/331
f 330/330/330 334/334/334 332/332/332
f 332/332/332 334/334/334 331/331/331
f 337/337/337 336/336/336 335/335/335
f 338/338/338 337/337/337 335/335/335
f 339/339/339 335/335/335 336/336/336
f 337/337/337 338/338/338 340/340/340
f 341/341/341 339/339/339 336/336/336
f 342/342/342 337/337/337 340/340/340
f 339/339/339 341/341/341 343/343/343
f 344/344/344 342/342/342 340/340/340
f 341/341/341 345/345/345 343/343/343
f 346/346/346 344/344/344 340/340/340
f 343/343/343 345/345/345 347/347/347
f 348/348/348 344/344/344 346/346/346
f 345/345/345 349/349/349 347/347/347
f 350/350/350 348/348/348 346/346/346
f 347/347/347 349/349/349 351/351/351
f 349/349/349 352/352/352 351/351/351
f 350/350/350 353/353/353 348/348/348
f 353/353/353 354/354/354 348/348/348
f 354/354/354 353/353/353 355/355/355
f 356/356/356 354/354/354 355/355/355
f 355/355/355 357/357/357 356/356/356
f 357/357/357 358/358/358 356/356/356
f 357/357/357 359/359/359 358/358/358
f 359/359/359 360/360/360 358/358/358
f 359/359/359 361/361/361 360/360/360
f 361/361/361 362/362/362 360/360/360
f 365/365/365 364/364/364 363/363/363
f 366/366/366 365/365/365 363/363/363
f 367/367/367 365/365/365 366/366/366
f 368/368/368 367/367/367 366/366/366
f 369/369/369 367/367/367 368/368/368
f 370/370/370 369/369/369 368/368/368
f 371/371/371 369/369/369 370/370/370
f 372/372/372 371/371/371 370/370/370
f 373/373/373 371/371/371 372/372/372
f 374/374/374 373/373/373 372/372/372
f 374/374/374 375/375/375 373/373/373
f 375/375/375 376/376/376 373/373/373
f 376/376/376 375/375/375 377/377/377
f 378/378/378 376/376/376 377/377/377
f 378/378/378 377/377/377 379/379/379
f 377/377/377 380/380/380 379/379/379
f 381/381/381 379/379/379 380/380/380
f 382/382/382 381/381/381 380/380/380
f 382/382/382 383/383/383 381/381/381
f 383/383/383 384/384/384 381/381/381
f 383/383/383 385/385/385 384/384/384
f 385/385/385 386/386/386 384/384/384
f 385/385/385 387/387/387 386/386/386
f 387/387/387 388/388/388 386/386/386
f 387/387/387 389/389/389 388/388/388
f 389/389/389 390/390/390 388/388/388
f 390/390/390 389/389/389 391/391/391
f 392/392/392 390/390/390 391/391/391
f 395/395/395 394/394/394 393/393/393
f 396/396/396 395/395/395 393/393/393
f 399/399/399 398/398/398 397/397/397
f 400/400/400 399/399/399 397/397/397
f 403/403/403 402/402/402 401/401/401
f 404/404/404 403/403/403 401/401/401
f 403/403/403 404/404/404 405/405/405
f 404/404/404 406/406/406 405/405/405
f 406/406/406 404/404/404 407/407/407
f 408/408/408 406/406/406 407/407/407
f 411/411/411 410/410/410 409/409/409
f 410/410/410 411/411/411 412/412/412
f 413/413/413 411/411/411 409/409/409
f 411/411/411 414/414/414 412/412/412
f 413/413/413 409/409/409 415/415/415
f 412/412/412 414/414/414 416/416/416
f 417/417/417 413/413/413 415/415/415
f 414/414/414 418/418/418 416/416/416
f 417/417/417 415/415/415 419/419/419
f 415/415/415 420/420/420 419/419/419
f 416/416/416 418/418/418 421/421/421
f 418/418/418 422/422/422 421/421/421
f 422/422/422 423/423/423 421/421/421
f 423/423/423 424/424/424 421/421/421
f 425/425/425 424/424/424 423/423/423
f 426/426/426 425/425/425 423/423/423
f 429/429/429 428/428/428 427/427/427
f 430/430/430 429/429/429 427/427/427
f 433/433/433 432/432/432 431/431/431
f 432/432/432 434/434/434 431/431/431
f 431/431/431 434/434/434 435/435/435
f 432/432/432 433/433/433 436/436/436
f 433/433/433 437/437/437 436/436/436
f 434/434/434 432/432/432 438/438/438
f 438/438/438 432/432/432 436/436/436
f 434/434/434 439/439/439 435/435/435
f 435/435/435 439/439/439 440/440/440
f 441/441/441 434/434/434 438/438/438
f 439/439/439 434/434/434 441/441/441
f 439/439/439 442/442/442 440/440/440
f 440/440/440 442/442/442 443/443/443
f 444/444/444 439/439/439 441/441/441
f 442/442/442 439/439/439 444/444/444
f 445/445/445 441/441/441 438/438/438
f 444/444/444 441/441/441 445/445/445
f 446/446/446 442/442/442 444/444/444
f 442/442/442 446/446/446 443/443/443
f 447/447/447 445/445/445 438/438/438
f 447/447/447 438/438/438 436/436/436
f 448/448/448 445/445/445 447/447/447
f 436/436/436 448/448/448 447/447/447
f 449/449/449 444/444/444 445/445/445
f 449/449/449 445/445/445 448/448/448
f 446/446/446 444/444/444 449/449/449
f 450/450/450 449/449/449 448/448/448
f 451/451/451 446/446/446 449/449/449
f 451/451/451 449/449/449 450/450/450
f 446/446/446 451/451/451 443/443/443
f 452/452/452 451/451/451 450/450/450
f 451/451/451 452/452/452 443/443/443
f 452/452/452 453/453/453 443/443/443
f 437/437/437 454/454/454 436/436/436
f 437/437/437 455/455/455 454/454/454
f 453/453/453 456/456/456 443/443/443
f 453/453/453 457/457/457 456/456/456
f 455/455/455 458/458/458 454/454/454
f 455/455/455 459/459/459 458/458/458
f 454/454/454 460/460/460 436/436/436
f 460/460/460 454/454/454 458/458/458
f 459/459/459 461/461/461 458/458/458
f 459/459/459 462/462/462 461/461/461
f 463/463/463 460/460/460 458/458/458
f 463/463/463 458/458/458 461/461/461
f 460/460/460 464/464/464 436/436/436
f 464/464/464 465/465/465 436/436/436
f 465/465/465 464/464/464 466/466/466
f 464/464/464 460/460/460 467/467/467
f 464/464/464 467/467/467 466/466/466
f 460/460/460 463/463/463 467/467/467
f 466/466/466 467/467/467 468/468/468
f 469/469/469 466/466/466 468/468/468
f 467/467/467 463/463/463 470/470/470
f 468/468/468 467/467/467 470/470/470
f 470/470/470 463/463/463 461/461/461
f 469/469/469 468/468/468 471/471/471
f 472/472/472 469/469/469 471/471/471
f 468/468/468 470/470/470 473/473/473
f 471/471/471 468/468/468 473/473/473
f 470/470/470 461/461/461 474/474/474
f 473/473/473 470/470/470 474/474/474
f 462/462/462 474/474/474 461/461/461
f 471/471/471 473/473/473 475/475/475
f 473/473/473 474/474/474 475/475/475
f 472/472/472 471/471/471 475/475/475
f 474/474/474 462/462/462 475/475/475
f 462/462/462 476/476/476 475/475/475
f 477/477/477 472/472/472 475/475/475
f 476/476/476 478/478/478 475/475/475
f 479/479/479 477/477/477 475/475/475
f 477/477/477 479/479/479 480/480/480
f 478/478/478 481/481/481 475/475/475
f 478/478/478 482/482/482 481/481/481
f 483/483/483 479/479/479 475/475/475
f 483/483/483 475/475/475 481/481/481
f 479/479/479 483/483/483 484/484/484
f 484/484/484 483/483/483 481/481/481
f 479/479/479 485/485/485 480/480/480
f 485/485/485 479/479/479 484/484/484
f 482/482/482 486/486/486 481/481/481
f 484/484/484 481/481/481 486/486/486
f 482/482/482 487/487/487 486/486/486
f 485/485/485 484/484/484 488/488/488
f 488/488/488 484/484/484 486/486/486
f 480/480/480 485/485/485 489/489/489
f 489/489/489 485/485/485 488/488/488
f 490/490/490 480/480/480 489/489/489
f 488/488/488 486/486/486 491/491/491
f 487/487/487 491/491/491 486/486/486
f 492/492/492 488/488/488 491/491/491
f 489/489/489 488/488/488 492/492/492
f 492/492/492 491/491/491 487/487/487
f 490/490/490 489/489/489 493/493/493
f 493/493/493 489/489/489 492/492/492
f 493/493/493 492/492/492 487/487/487
f 494/494/494 490/490/490 493/493/493
f 494/494/494 493/493/493 487/487/487
f 495/495/495 494/494/494 487/487/487
f 496/496/496 495/495/495 487/487/487
f 497/497/497 495/495/495 496/496/496
f 498/498/498 496/496/496 487/487/487
f 499/499/499 497/497/497 496/496/496
f 499/499/499 496/496/496 498/498/498
f 497/497/497 499/499/499 457/457/457
f 500/500/500 498/498/498 487/487/487
f 501/501/501 500/500/500 487/487/487
f 499/499/499 502/502/502 457/457/457
f 457/457/457 502/502/502 456/456/456
f 503/503/503 499/499/499 498/498/498
f 499/499/499 503/503/503 502/502/502
f 503/503/503 498/498/498 500/500/500
f 502/502/502 504/504/504 456/456/456
f 503/503/503 504/504/504 502/502/502
f 505/505/505 500/500/500 501/501/501
f 505/505/505 503/503/503 500/500/500
f 503/503/503 505/505/505 504/504/504
f 506/506/506 505/505/505 501/501/501
f 504/504/504 507/507/507 456/456/456
f 456/456/456 507/507/507 443/443/443
f 505/505/505 508/508/508 504/504/504
f 508/508/508 505/505/505 506/506/506
f 504/504/504 508/508/508 507/507/507
f 509/509/509 508/508/508 506/506/506
f 507/507/507 510/510/510 443/443/443
f 508/508/508 510/510/510 507/507/507
f 443/443/443 510/510/510 509/509/509
f 510/510/510 508/508/508 509/509/509
f 513/513/513 512/512/512 511/511/511
f 514/514/514 513/513/513 511/511/511
f 517/517/517 516/516/516 515/515/515
f 515/515/515 516/516/516 518/518/518
f 516/516/516 517/517/517 519/519/519
f 515/515/515 518/518/518 520/520/520
f 521/521/521 516/516/516 519/519/519
f 518/518/518 522/522/522 520/520/520
f 516/516/516 523/523/523 518/518/518
f 518/518/518 523/523/523 522/522/522
f 523/523/523 516/516/516 521/521/521
f 522/522/522 524/524/524 520/520/520
f 523/523/523 525/525/525 522/522/522
f 520/520/520 524/524/524 526/526/526
f 526/526/526 515/515/515 520/520/520
f 524/524/524 527/527/527 526/526/526
f 525/525/525 523/523/523 528/528/528
f 528/528/528 523/523/523 521/521/521
f 521/521/521 519/519/519 528/528/528
f 529/529/529 525/525/525 528/528/528
f 530/530/530 529/529/529 528/528/528
f 531/531/531 519/519/519 517/517/517
f 519/519/519 531/531/531 528/528/528
f 532/532/532 531/531/531 517/517/517
f 531/531/531 533/533/533 528/528/528
f 532/532/532 517/517/517 534/534/534
f 534/534/534 517/517/517 515/515/515
f 534/534/534 515/515/515 526/526/526
f 535/535/535 532/532/532 534/534/534
f 535/535/535 534/534/534 536/536/536
f 536/536/536 534/534/534 526/526/526
f 537/537/537 535/535/535 536/536/536
f 537/537/537 536/536/536 526/526/526
f 538/538/538 537/537/537 526/526/526
f 539/539/539 530/530/530 528/528/528
f 540/540/540 530/530/530 539/539/539
f 533/533/533 541/541/541 528/528/528
f 542/542/542 540/540/540 539/539/539
f 543/543/543 539/539/539 528/528/528
f 541/541/541 543/543/543 528/528/528
f 542/542/542 539/539/539 543/543/543
f 544/544/544 540/540/540 542/542/542
f 545/545/545 543/543/543 541/541/541
f 545/545/545 542/542/542 543/543/543
f 546/546/546 541/541/541 533/533/533
f 546/546/546 545/545/545 541/541/541
f 547/547/547 546/546/546 533/533/533
f 548/548/548 542/542/542 545/545/545
f 548/548/548 544/544/544 542/542/542
f 549/549/549 545/545/545 546/546/546
f 549/549/549 548/548/548 545/545/545
f 550/550/550 546/546/546 547/547/547
f 550/550/550 549/549/549 546/546/546
f 551/551/551 550/550/550 547/547/547
f 548/548/548 552/552/552 544/544/544
f 552/552/552 548/548/548 549/549/549
f 552/552/552 553/553/553 544/544/544
f 554/554/554 550/550/550 551/551/551
f 555/555/555 549/549/549 550/550/550
f 554/554/554 555/555/555 550/550/550
f 555/555/555 552/552/552 549/549/549
f 556/556/556 554/554/554 551/551/551
f 555/555/555 554/554/554 556/556/556
f 552/552/552 555/555/555 556/556/556
f 553/553/553 552/552/552 556/556/556
f 557/557/557 553/553/553 556/556/556
f 558/558/558 557/557/557 556/556/556
f 557/557/557 558/558/558 559/559/559
f 560/560/560 558/558/558 556/556/556
f 558/558/558 561/561/561 559/559/559
f 558/558/558 560/560/560 561/561/561
f 559/559/559 561/561/561 562/562/562
f 563/563/563 560/560/560 556/556/556
f 564/564/564 563/563/563 556/556/556
f 560/560/560 565/565/565 561/561/561
f 560/560/560 563/563/563 565/565/565
f 566/566/566 563/563/563 564/564/564
f 563/563/563 566/566/566 565/565/565
f 567/567/567 566/566/566 564/564/564
f 561/561/561 565/565/565 568/568/568
f 561/561/561 568/568/568 562/562/562
f 565/565/565 566/566/566 569/569/569
f 565/565/565 569/569/569 568/568/568
f 570/570/570 566/566/566 567/567/567
f 566/566/566 570/570/570 569/569/569
f 571/571/571 570/570/570 567/567/567
f 568/568/568 569/569/569 572/572/572
f 569/569/569 570/570/570 572/572/572
f 562/562/562 568/568/568 573/573/573
f 573/573/573 568/568/568 572/572/572
f 574/574/574 562/562/562 573/573/573
f 575/575/575 570/570/570 571/571/571
f 570/570/570 575/575/575 572/572/572
f 576/576/576 575/575/575 571/571/571
f 572/572/572 575/575/575 576/576/576
f 573/573/573 572/572/572 576/576/576
f 574/574/574 573/573/573 576/576/576
f 577/577/577 574/574/574 576/576/576
f 578/578/578 577/577/577 576/576/576
f 577/577/577 578/578/578 579/579/579
f 580/580/580 578/578/578 576/576/576
f 578/578/578 581/581/581 579/579/579
f 578/578/578 580/580/580 581/581/581
f 582/582/582 580/580/580 576/576/576
f 583/583/583 582/582/582 576/576/576
f 583/583/583 584/584/584 582/582/582
f 584/584/584 585/585/585 582/582/582
f 580/580/580 582/582/582 585/585/585
f 584/584/584 586/586/586 585/585/585
f 587/587/587 580/580/580 585/585/585
f 580/580/580 587/587/587 581/581/581
f 586/586/586 588/588/588 585/585/585
f 587/587/587 585/585/585 588/588/588
f 586/586/586 538/538/538 588/588/588
f 581/581/581 587/587/587 589/589/589
f 589/589/589 587/587/587 588/588/588
f 538/538/538 590/590/590 588/588/588
f 589/589/589 588/588/588 590/590/590
f 590/590/590 538/538/538 526/526/526
f 579/579/579 581/581/581 591/591/591
f 591/591/591 581/581/581 589/589/589
f 592/592/592 579/579/579 591/591/591
f 593/593/593 589/589/589 590/590/590
f 591/591/591 589/589/589 593/593/593
f 593/593/593 590/590/590 526/526/526
f 592/592/592 591/591/591 594/594/594
f 594/594/594 591/591/591 593/593/593
f 594/594/594 593/593/593 526/526/526
f 527/527/527 592/592/592 594/594/594
f 527/527/527 594/594/594 526/526/526
f 597/597/597 596/596/596 595/595/595
f 598/598/598 597/597/597 595/595/595
f 601/601/601 600/600/600 599/599/599
f 602/602/602 601/601/601 599/599/599
f 603/603/603 599/599/599 600/600/600
f 604/604/604 603/603/603 600/600/600
f 603/603/603 604/604/604 605/605/605
f 604/604/604 606/606/606 605/605/605
f 609/609/609 608/608/608 607/607/607
f 610/610/610 609/609/609 607/607/607
f 613/613/613 612/612/612 611/611/611
f 614/614/614 613/613/613 611/611/611
f 617/617/617 616/616/616 615/615/615
f 618/618/618 617/617/617 615/615/615
f 621/621/621 620/620/620 619/619/619
f 622/622/622 621/621/621 619/619/619
f 625/625/625 624/624/624 623/623/623
f 626/626/626 625/625/625 623/623/623
f 623/623/623 627/627/627 626/626/626
f 627/627/627 628/628/628 626/626/626
f 624/624/624 630/630/630 629/629/629
f 631/631/631 624/624/624 629/629/629
f 634/634/634 633/633/633 632/632/632
f 635/635/635 634/634/634 632/632/632
f 638/638/638 637/637/637 636/636/636
f 639/639/639 638/638/638 636/636/636
f 642/642/642 641/641/641 640/640/640
f 643/643/643 642/642/642 640/640/640
f 646/646/646 645/645/645 644/644/644
f 647/647/647 646/646/646 644/644/644
f 650/650/650 649/649/649 648/648/648
f 651/651/651 650/650/650 648/648/648
f 654/654/654 653/653/653 652/652/652
f 657/657/657 656/656/656 655/655/655
f 660/660/660 659/659/659 658/658/658
f 663/663/663 662/662/662 661/661/661
f 664/664/664 663/663/663 661/661/661
f 665/665/665 665/665/665 665/665/665
f 666/666/666 665/665/665 665/665/665
f 667/667/667 666/666/666 665/665/665
f 667/667/667 667/667/667 665/665/665
f 667/667/667 667/667/667 665/665/665
f 667/667/667 667/667/667 665/665/665
f 43/43/43 667/667/667 665/665/665
f 45/45/45 43/43/43 665/665/665
f 670/670/670 669/669/669 668/668/668
f 671/671/671 670/670/670 668/668/668
f 674/674/674 673/673/673 672/672/672
f 677/677/677 676/676/676 675/675/675
f 680/680/680 679/679/679 678/678/678
