# VPXTOOL table OBJ file
# VPXTOOL OBJ file
# numVerts: 647 numFaces: 815
o PinCab_FlipBlade
v -30.687809 2206.928 -76.4896
v -30.76633 2206.406 -76.55805
v -30.81287 2205.2524 -76.70954
v -30.84348 2204.4937 -76.80918
v -30.84348 2174.0293 -80.80763
v -30.84348 2142.5442 -84.939896
v -30.84348 2122.4543 -87.576805
v -30.84348 2107.5605 -89.5317
v -30.84348 2095.2476 -91.14776
v -30.84348 2070.2754 -94.42514
v -30.84348 2044.284 -97.83652
v -30.84348 2011.273 -102.16929
v -30.84348 1987.338 -105.31084
v -30.84348 1963.0676 -108.49614
v -30.84348 1932.9803 -112.445
v -30.84348 1903.382 -116.32995
v -30.84348 1861.0199 -121.88977
v -30.84348 1809.2903 -128.67946
v -30.84348 1741.0836 -137.63155
v -30.84348 1475.6648 -172.46747
v -30.84348 1312.9559 -193.82297
v -30.823002 1311.0835 -194.06882
v -30.76633 1306.631 -194.65317
v -30.71268 1305.3179 -194.82553
v -30.555668 1302.0156 -195.25894
v -30.484318 1301.5483 -195.32016
v -30.267826 1300.3287 -195.48038
v -28.873325 1300.329 -195.48038
v -24.591465 1300.329 -195.48038
v -24.520481 1300.7935 -195.41946
v -24.303562 1302.0145 -195.25925
v -24.250614 1303.3086 -195.0892
v -24.0929 1306.6329 -194.65286
v -24.050114 1309.9958 -194.21158
v -24.034824 1311.3949 -194.02792
v -24.022648 1413.2568 -180.65858
v -24.021152 1435.8961 -177.68709
v -24.0051 1682.3582 -145.33926
v -24.002811 1718.6934 -140.57022
v -24.00037 1782.6823 -132.17159
v -23.997898 1819.4893 -127.34089
v -23.99628 1862.0592 -121.75348
v -23.993809 1897.1636 -117.14623
v -23.99271 1925.5599 -113.41906
v -23.99039 1957.1777 -109.26915
v -23.98981 1971.9874 -107.32536
v -23.987736 1999.8795 -103.66465
v -23.98737 2009.942 -102.34409
v -23.985783 2032.8098 -99.34269
v -23.9856 2037.4083 -98.739044
v -23.98447 2055.7136 -96.33658
v -23.984653 2057.4146 -96.11319
v -23.98389 2071.786 -94.22714
v -23.983982 2072.4878 -94.134735
v -23.983738 2083.6301 -92.672455
v -23.983799 2083.9363 -92.63207
v -23.984653 2093.7869 -91.33944
v -23.984898 2095.2476 -91.14776
v -23.987095 2105.5176 -89.799644
v -23.987553 2107.5608 -89.531456
v -23.99088 2117.717 -88.19842
v -23.992435 2122.4539 -87.57671
v -23.996677 2132.3875 -86.27318
v -24.00098 2142.5442 -84.94017
v -24.00565 2151.6404 -83.7462
v -24.017094 2174.029 -80.80757
v -24.02045 2179.897 -80.0373
v -24.034824 2204.9653 -76.74726
v -24.057652 2205.5325 -76.6728
v -24.092869 2206.406 -76.55805
v -24.225254 2207.2852 -76.442635
v -24.303562 2207.8054 -76.37449
v -24.488438 2208.1348 -76.33131
v -24.591465 2208.3179 -76.30714
v -28.256443 2208.3179 -76.30714
v -30.267826 2208.3179 -76.30714
v -30.452488 2207.989 -76.35038
v -30.555637 2207.8057 -76.37452
v -24.0929 1736.5201 6.333108
v -24.092869 1557.9015 -77.32531
v -24.303562 1734.6898 7.214211
v -24.303562 1556.1276 -76.42205
v -24.591465 1300.329 -195.48038
v -24.591465 1555.4779 -76.09185
v -24.520481 1300.7935 -195.41946
v -28.873325 1300.329 -195.48038
v -24.591465 1555.4779 -76.09185
v -24.591465 1300.329 -195.48038
v -24.303562 1302.0145 -195.25925
v -24.303562 2123.8962 156.98747
v -24.303562 2097.3699 162.0747
v -24.591465 2124.044 157.58455
v -24.250614 1303.3086 -195.0892
v -24.0929 1306.6329 -194.65286
v -24.050114 1309.9958 -194.21158
v -30.484318 1301.5483 -195.32016
v -30.267826 1555.478 -76.091606
v -30.267826 1300.3287 -195.48038
v -30.555668 1302.0156 -195.25894
v -24.034824 1559.7272 -78.25439
v -24.034824 1311.3949 -194.02792
v -30.555637 1556.1276 -76.42205
v -30.76633 1557.9016 -77.32458
v -30.555637 1734.6901 7.213906
v -30.76633 1736.5205 6.333108
v -30.84348 1739.0214 5.129983
v -30.76633 1861.3899 64.724976
v -30.555637 1860.0239 65.823395
v -24.02045 2179.897 -80.0373
v -24.034824 2209.358 -63.330605
v -24.034824 2204.9653 -76.74726
v -24.057652 2205.5325 -76.6728
v -24.303562 2189.672 102.859245
v -24.303562 2170.9514 126.800064
v -24.591465 2190.04 103.274315
v -30.76633 2210.6016 -63.74238
v -30.76633 2216.5508 -28.58991
v -30.84348 2208.9497 -63.196358
v -30.555637 2211.8096 -64.14216
v -30.555607 2217.8147 -28.664282
v -30.76633 2043.7131 149.68771
v -30.76633 2070.2734 158.48367
v -30.555637 2043.3757 151.2659
v -24.092869 2148.1128 143.55602
v -24.092869 2123.4954 155.35732
v -24.303562 2148.743 145.07674
v -30.76633 2188.666 101.72582
v -30.555668 2189.672 102.859245
v -30.84348 2168.9795 123.598465
v -30.555637 2218.5295 7.125606
v -30.76633 2217.2585 6.870661
v -30.555637 2213.9272 41.84979
v -30.76633 2212.6987 41.276943
v -30.76633 2203.0437 73.3048
v -30.84348 2201.488 72.116325
v -30.555637 1977.6313 120.69023
v -30.84348 2187.2925 100.17779
v -30.267826 1859.5231 66.22583
v -30.267826 1977.3169 121.178665
v -30.267826 2204.5994 74.49355
v -30.555637 2204.1826 74.175255
v -30.267826 2214.3765 42.05926
v -24.591465 1859.5232 66.225586
v -24.591465 1977.3167 121.178665
v -24.303562 1860.0239 65.823395
v -24.092869 2210.6016 -63.74238
v -24.0929 2216.5503 -28.590124
v -30.76633 2097.212 160.39871
v -30.84348 2096.9963 158.10718
v -30.76633 2123.4954 155.35732
v -24.092869 2170.1182 125.44685
v -24.034824 2147.4648 141.99083
v -24.034824 2123.0815 153.68016
v -30.267826 2148.973 145.63359
v -30.555637 2148.7432 145.0767
v -30.267826 2171.257 127.29521
v -24.0929 2097.2124 160.39816
v -24.034855 2097.0488 158.67249
v -30.267826 2124.044 157.58455
v -30.555607 2123.8965 156.98726
v -30.267826 2097.4277 162.68869
v -30.555668 2097.37 162.07492
v -30.555637 2170.9514 126.79985
v -30.267826 2190.04 103.27404
v -24.591465 2171.257 127.29521
v -24.591465 2148.973 145.63335
v -30.267826 2171.257 127.29521
v -24.591465 2190.04 103.274315
v -30.267826 2190.04 103.27404
v -24.591465 2204.5994 74.49355
v -24.591465 2214.3765 42.05926
v -30.267826 2214.3765 42.05926
v -24.591465 2218.9954 7.218897
v -30.687809 2206.928 -76.4896
v -30.555637 2207.8057 -76.37452
v -30.267826 1555.478 -76.091606
v -24.591465 1734.0197 7.536964
v -24.303562 1977.6316 120.68968
v -24.303562 2043.3757 151.26611
v -30.267826 1734.0197 7.536964
v -30.267826 1859.5231 66.22583
v -24.303562 2217.8147 -28.664282
v -24.591465 2218.2766 -28.69068
v -24.303562 2211.8093 -64.14231
v -30.267826 2097.4277 162.68869
v -30.267826 2124.044 157.58455
v -24.591465 2097.4282 162.68863
v -24.303562 2204.1824 74.17504
v -24.591465 2204.5994 74.49355
v -24.303562 2213.9272 41.84979
v -24.591465 2214.3765 42.05926
v -24.591465 1977.3167 121.178665
v -30.267826 1977.3169 121.178665
v -24.591465 2043.252 151.84286
v -24.303562 2218.5298 7.125361
v -24.591465 2218.9954 7.218897
v -24.092869 2206.406 -76.55805
v -24.225254 2207.2852 -76.442635
v -24.0929 2188.666 101.72582
v -30.452488 2207.989 -76.35038
v -30.267826 2208.3179 -76.30714
v -30.76633 2170.1182 125.44685
v -30.76633 2148.1125 143.55629
v -30.84348 2122.947 153.131
v -24.0929 2217.259 6.870905
v -30.84348 2147.2522 141.47758
v -30.267826 2212.2522 -64.28843
v -28.256443 2208.3179 -76.30714
v -24.591465 2212.2522 -64.28843
v -24.092869 2203.0437 73.3048
v -24.034824 2187.6323 100.56017
v -24.591465 1859.5232 66.225586
v -24.034824 2211.435 40.686485
v -24.034824 2201.8723 72.409874
v -24.092869 2212.6985 41.27673
v -30.267826 2218.995 7.218714
v -24.591465 2218.2766 -28.69068
v -30.84348 2211.0205 40.49343
v -24.303562 2070.182 160.14285
v -24.591465 2070.148 160.75058
v -24.092869 2070.2734 158.48367
v -24.034824 2070.3672 156.77588
v -30.555637 2070.1816 160.14285
v -24.0929 2043.7134 149.6879
v -30.267826 2218.995 7.218714
v -30.267826 2218.277 -28.690527
v -24.591465 2171.257 127.29521
v -30.267826 2043.2523 151.84357
v -30.84348 2044.1747 147.53299
v -30.84348 2070.398 156.21704
v -30.267826 2043.2523 151.84357
v -24.591465 2070.148 160.75058
v -24.034824 1979.3811 117.98366
v -24.092869 1978.4941 119.356705
v -24.034855 2044.0612 148.06445
v -24.591465 2043.252 151.84286
v -24.0929 1861.3903 64.724915
v -30.267826 1734.0197 7.536964
v -24.034824 1738.4044 5.426553
v -30.84348 1560.325 -78.558464
v -24.034824 2169.2607 124.05452
v -24.591465 2148.973 145.63335
v -24.591465 2124.044 157.58455
v -30.267826 2148.973 145.63359
v -24.591465 1734.0197 7.536964
v -30.823002 1311.0835 -194.06882
v -30.84348 1312.9559 -193.82297
v -30.76633 1306.631 -194.65317
v -30.71268 1305.3179 -194.82553
v -24.034824 1862.7955 63.594177
v -30.76633 1978.4935 119.35649
v -30.84348 1863.256 63.223297
v -23.987095 2105.5176 -89.799644
v -23.984898 2095.2476 -91.14776
v -30.84348 1979.6719 117.534164
v -30.84348 2011.273 -102.16929
v -30.84348 2044.284 -97.83652
v -24.303562 2207.8054 -76.37449
v -30.267826 2212.2522 -64.28843
v -24.488438 2208.1348 -76.33131
v -30.267826 2070.148 160.75034
v -30.267826 2070.148 160.75034
v -30.267826 2208.3179 -76.30714
v -24.591465 2208.3179 -76.30714
v -24.591465 2148.973 145.63335
v -30.81287 2205.2524 -76.70954
v -30.76633 2206.406 -76.55805
v -30.84348 2215.5242 6.523554
v -24.034824 2215.952 6.609614
v -24.034824 2215.2502 -28.512854
v -30.84348 2204.4937 -76.80918
v -30.84348 2174.0293 -80.80763
v -24.591465 2097.4282 162.68863
v -30.84348 2214.8235 -28.48847
v -30.267826 2148.973 145.63359
v -30.267826 2204.5994 74.49355
v -24.591465 2212.2522 -64.28843
v -24.591465 2208.3179 -76.30714
v -30.267826 2218.277 -28.690527
v -30.267826 1300.3287 -195.48038
v -23.99628 1862.0592 -121.75348
v -24.0051 1682.3582 -145.33926
v -24.002811 1718.6934 -140.57022
v -24.00037 1782.6823 -132.17159
v -24.022648 1413.2568 -180.65858
v -24.021152 1435.8961 -177.68709
v -23.98981 1971.9874 -107.32536
v -23.997898 1819.4893 -127.34089
v -23.983982 2072.4878 -94.134735
v -23.98447 2055.7136 -96.33658
v -23.984653 2057.4146 -96.11319
v -23.996677 2132.3875 -86.27318
v -23.987553 2107.5608 -89.531456
v -23.983738 2083.6301 -92.672455
v -23.983799 2083.9363 -92.63207
v -24.00565 2151.6404 -83.7462
v -24.017094 2174.029 -80.80757
v -24.00098 2142.5442 -84.94017
v -23.984653 2093.7869 -91.33944
v -23.98389 2071.786 -94.22714
v -23.993809 1897.1636 -117.14623
v -23.99271 1925.5599 -113.41906
v -23.99039 1957.1777 -109.26915
v -23.992435 2122.4539 -87.57671
v -23.987736 1999.8795 -103.66465
v -23.98737 2009.942 -102.34409
v -23.985783 2032.8098 -99.34269
v -23.9856 2037.4083 -98.739044
v -23.99088 2117.717 -88.19842
v -30.84348 2107.5605 -89.5317
v -30.84348 2122.4543 -87.576805
v -30.84348 2095.2476 -91.14776
v -30.84348 2142.5442 -84.939896
v -30.84348 2070.2754 -94.42514
v -30.84348 1861.0199 -121.88977
v -30.84348 1963.0676 -108.49614
v -30.84348 1903.382 -116.32995
v -30.84348 1741.0836 -137.63155
v -30.84348 1809.2903 -128.67946
v -30.84348 1932.9803 -112.445
v -30.84348 1987.338 -105.31084
v 967.0636 2205.8503 -83.19544
v 967.0529 2205.5854 -83.229744
v 967.0056 2204.4148 -83.38151
v 967.0636 2205.8503 -83.19544
v 967.0056 2204.4148 -83.38151
v 967.00165 2197.5103 -84.275826
v 967.0007 2195.865 -84.4889
v 966.9847 2164.69 -88.52683
v 966.9813 2158.1052 -89.37977
v 966.9745 2142.3435 -91.4214
v 966.971 2134.1963 -92.47652
v 966.968 2125.2813 -93.63124
v 966.96515 2116.5645 -94.76039
v 966.964 2111.037 -95.4763
v 966.962 2102.0461 -96.64083
v 966.96063 2093.8218 -97.705986
v 966.9598 2085.0112 -98.84725
v 966.95874 2078.4226 -99.700615
v 966.9589 2068.277 -101.01467
v 966.9577 2060.7732 -101.98672
v 966.95844 2047.4293 -103.714935
v 966.9576 2041.4023 -104.49576
v 966.9586 2024.2197 -106.721344
v 966.959 2014.7078 -107.95334
v 966.96045 1993.3912 -110.714455
v 966.96106 1977.648 -112.75364
v 966.96295 1951.8557 -116.094406
v 966.9637 1932.0746 -118.65636
v 966.96576 1903.0359 -122.41778
v 966.9671 1868.653 -126.871086
v 966.96936 1836.731 -131.00586
v 966.9711 1788.5275 -137.24963
v 966.9733 1755.4036 -141.53987
v 966.97595 1686.4379 -150.47263
v 966.9779 1654.142 -154.65579
v 966.9943 1403.6343 -187.10292
v 966.9954 1386.0544 -189.38002
v 967.0056 1303.5475 -200.06662
v 967.01886 1302.3738 -200.21872
v 967.0637 1298.9596 -200.66104
v 967.22876 1295.5879 -201.09775
v 967.27435 1294.5096 -201.23727
v 967.5013 1293.272 -201.39774
v 967.56226 1292.8854 -201.4479
v 972.0403 1292.8854 -201.4479
v 973.2386 1292.8853 -201.4479
v 973.4651 1294.1212 -201.28787
v 973.5264 1294.5107 -201.23715
v 973.69073 1297.8597 -200.80362
v 973.7371 1298.958 -200.66129
v 973.7965 1303.4786 -200.07565
v 973.8142 1305.0515 -199.87204
v 973.8142 1434.4022 -183.11774
v 973.8142 1706.0912 -147.9271
v 973.8142 1779.234 -138.45313
v 973.8142 1835.6638 -131.1441
v 973.8142 1882.5042 -125.07714
v 973.8142 1915.5734 -120.79375
v 973.8142 1949.4819 -116.40178
v 973.8142 1977.0526 -112.830666
v 973.8142 2004.4346 -109.284035
v 973.8142 2042.5178 -104.35135
v 973.8142 2072.765 -100.433556
v 973.8142 2102.0461 -96.64083
v 973.8142 2116.564 -94.76033
v 973.8142 2134.1965 -92.47658
v 973.8142 2158.1055 -89.37983
v 973.8142 2195.8657 -84.48875
v 973.8142 2203.9453 -83.44227
v 973.7513 2205.5005 -83.24085
v 973.7371 2205.8503 -83.19544
v 973.5703 2206.954 -83.0525
v 973.5264 2207.2449 -83.01484
v 973.30176 2207.6426 -82.96335
v 973.2386 2207.7546 -82.94885
v 968.8155 2207.7546 -82.94885
v 967.56226 2207.7546 -82.94885
v 967.33575 2207.3538 -83.0008
v 967.27435 2207.2449 -83.01484
v 967.0636 2205.8503 -83.19544
v 967.27435 2207.2449 -83.01484
v 967.1039 2206.1165 -83.16108
v 967.0636 2216.166 49.0524
v 967.0056 2214.9045 48.451202
v 967.0637 2220.9087 14.708126
v 967.0056 2219.6025 14.435146
v 967.0637 2220.3857 -20.738651
v 967.0636 2206.3381 80.974396
v 967.0056 2205.1704 80.069
v 973.8142 2218.6575 -20.65305
v 973.8142 2219.1753 14.345181
v 973.7371 2220.386 -20.738712
v 973.8142 2214.4907 48.25464
v 973.7371 2220.9087 14.707943
v 967.27435 2207.473 81.85443
v 967.27435 2217.392 49.636475
v 967.0056 2190.7751 108.07367
v 973.8142 2204.7874 79.77237
v 973.8142 2190.4377 107.68829
v 973.7371 2206.3381 80.974396
v 973.8142 2171.992 130.92888
v 973.7371 2191.8037 109.24808
v 967.0637 2191.8037 109.24808
v 967.27435 2192.8042 110.390015
v 967.0636 2173.1216 132.78653
v 973.8142 2150.1592 148.59987
v 973.7371 2173.1216 132.78653
v 973.5264 2173.9482 134.1463
v 973.5265 2192.8042 110.390015
v 967.56226 2216.2725 -56.455753
v 967.27435 2215.8289 -56.313847
v 967.33575 2207.3538 -83.0008
v 973.8142 2125.78 160.02516
v 973.7371 2151.009 150.6851
v 973.5264 2151.632 152.21046
v 967.0636 2151.0098 150.6848
v 967.27435 2151.6318 152.21028
v 967.0636 2126.3171 162.25499
v 973.2386 2216.2725 -56.455753
v 967.56226 2216.2725 -56.455753
v 968.8155 2207.7546 -82.94885
v 973.7371 2126.3171 162.25499
v 973.52637 2126.7102 163.8878
v 967.0056 2125.9119 160.57515
v 967.0057 2099.8394 165.32762
v 967.0637 2099.9934 167.05382
v 967.0636 2073.0503 164.89517
v 967.27435 2100.1428 168.73085
v 967.27435 2072.9504 166.55267
v 973.2386 2216.2725 -56.455753
v 973.2386 2207.7546 -82.94885
v 973.5264 2215.8289 -56.313694
v 967.27435 2046.1765 157.43701
v 967.27435 2222.179 14.974117
v 967.27435 1980.5577 126.27974
v 967.0637 2046.5226 155.8627
v 973.5264 1863.1753 70.37427
v 973.5264 1738.0826 10.65757
v 973.2386 1862.6721 70.77194
v 967.0636 1981.428 124.955124
v 967.0637 1864.5485 69.28891
v 973.5264 1559.864 -74.55583
v 973.2386 1737.4099 10.974342
v 967.27435 1863.1753 70.37427
v 967.0637 1739.9181 9.79417
v 967.56226 2046.0497 158.01227
v 967.56226 1980.2401 126.7657
v 967.0056 1741.8082 8.90513
v 967.0056 1563.4749 -76.35411
v 967.56226 2072.9133 167.15964
v 967.56226 1862.6722 70.77167
v 967.27435 1738.0823 10.658058
v 967.56226 2100.198 169.34496
v 973.2386 1559.2123 -74.23131
v 972.0403 1292.8854 -201.4479
v 967.56226 1559.2123 -74.23155
v 967.27435 2126.71 163.88805
v 973.2386 2072.913 167.1594
v 973.2386 2046.0498 158.013
v 967.56226 2072.9133 167.15964
v 973.2386 2222.114 -20.823612
v 973.2386 2222.644 15.071621
v 967.56226 2222.1135 -20.823704
v 973.2386 2151.8591 152.76894
v 967.56226 2151.8591 152.76869
v 973.2386 2174.2512 134.6442
v 973.2386 2207.8882 82.176544
v 973.2386 2193.1702 110.80774
v 967.56226 2207.8882 82.176544
v 973.5264 2207.473 81.854675
v 973.2386 2207.8882 82.176544
v 973.2386 1980.2404 126.7657
v 973.2386 1862.6721 70.77194
v 967.56226 1980.2401 126.7657
v 967.56226 2207.8882 82.176544
v 967.56226 2193.1702 110.808014
v 967.56226 2217.8406 49.849976
v 973.2386 2217.8406 49.849976
v 967.56226 2222.644 15.071835
v 967.56226 2222.644 15.071835
v 967.56226 1862.6722 70.77167
v 967.56226 1737.4099 10.974342
v 967.27435 2221.6514 -20.801395
v 967.56226 2222.1135 -20.823704
v 967.56226 2046.0497 158.01227
v 973.2386 2046.0498 158.013
v 973.5264 2046.1765 157.4368
v 973.2386 1980.2404 126.7657
v 973.52637 2221.6514 -20.801395
v 973.2386 2222.114 -20.823612
v 967.0636 2214.618 -55.925114
v 967.1039 2206.1165 -83.16108
v 973.7371 2216.166 49.052612
v 973.5264 2217.392 49.636475
v 973.2386 2193.1702 110.80774
v 973.2386 2174.2512 134.6442
v 973.2386 2151.8591 152.76894
v 967.0056 2172.271 131.38719
v 967.0056 2150.3694 149.11461
v 973.5265 2100.1426 168.7311
v 973.2386 2126.8542 164.48628
v 973.7371 2099.9932 167.05412
v 973.5264 2072.9502 166.55267
v 973.5264 2207.2449 -83.01484
v 973.7371 2214.618 -55.925114
v 973.7371 2046.5223 155.86249
v 973.5264 1980.5576 126.28023
v 967.56226 2100.198 169.34496
v 973.2386 2100.1973 169.34508
v 973.8142 2099.7898 164.76244
v 973.7371 2073.0503 164.89517
v 967.0056 2073.1533 163.18927
v 967.0057 2046.8792 154.24338
v 973.2386 1737.4099 10.974342
v 973.7371 1864.548 69.28903
v 973.7371 1739.9187 9.793865
v 967.0056 1982.3225 123.5912
v 967.0056 1865.9602 68.17151
v 973.8142 2073.187 162.63123
v 973.8142 2046.9954 153.71323
v 973.7371 1981.4274 124.955185
v 973.5264 2222.179 14.974392
v 973.8142 2212.9626 -55.394352
v 967.0056 2213.3716 -55.524754
v 967.56226 2151.8591 152.76869
v 967.56226 2193.1702 110.808014
v 967.27435 2173.9482 134.14651
v 973.7371 2205.8503 -83.19544
v 967.0056 2204.4148 -83.38151
v 967.0529 2205.5854 -83.229744
v 967.27435 2207.2449 -83.01484
v 967.00165 2197.5103 -84.275826
v 967.56226 2126.8542 164.48628
v 973.2386 2126.8542 164.48628
v 967.56226 2207.7546 -82.94885
v 973.2386 2072.913 167.1594
v 973.2386 2207.7546 -82.94885
v 967.56226 2174.2512 134.6442
v 973.30176 2207.6426 -82.96335
v 967.0636 2205.8503 -83.19544
v 973.5703 2206.954 -83.0525
v 973.2386 2222.644 15.071621
v 973.2386 2217.8406 49.849976
v 973.8142 2203.9453 -83.44227
v 973.7513 2205.5005 -83.24085
v 973.8142 2195.8657 -84.48875
v 973.8142 1982.6157 123.144516
v 973.8142 2072.765 -100.433556
v 973.8142 2042.5178 -104.35135
v 973.8142 1564.0747 -76.65263
v 973.8142 1305.0515 -199.87204
v 973.7965 1303.4786 -200.07565
v 973.7371 1561.6436 -75.44139
v 973.7371 1298.958 -200.66129
v 973.8142 1742.427 8.614359
v 973.69073 1297.8597 -200.80362
v 973.5264 1294.5107 -201.23715
v 967.56226 1737.4099 10.974342
v 967.27435 1559.864 -74.55583
v 973.4651 1294.1212 -201.28787
v 973.2386 1559.2123 -74.23131
v 973.2386 1292.8853 -201.4479
v 973.2386 2151.8591 152.76894
v 973.2386 1292.8853 -201.4479
v 967.56226 2126.8542 164.48628
v 967.5013 1293.272 -201.39774
v 967.56226 1559.2123 -74.23155
v 967.56226 1292.8854 -201.4479
v 967.0636 1561.6436 -75.44243
v 967.27435 1294.5096 -201.23727
v 967.22876 1295.5879 -201.09775
v 967.0637 1298.9596 -200.66104
v 967.01886 1302.3738 -200.21872
v 973.8142 1866.423 67.80524
v 967.0056 1303.5475 -200.06662
v 967.56226 2217.8406 49.849976
v 966.9576 2041.4023 -104.49576
v 966.95844 2047.4293 -103.714935
v 967.0056 2219.085 -20.673344
v 967.56226 2207.7546 -82.94885
v 967.56226 1292.8854 -201.4479
v 967.56226 2174.2512 134.6442
v 973.2386 2100.1973 169.34508
v 973.8142 2158.1055 -89.37983
v 973.8142 2134.1965 -92.47658
v 973.8142 2116.564 -94.76033
v 973.8142 2102.0461 -96.64083
v 973.8142 1977.0526 -112.830666
v 973.8142 1835.6638 -131.1441
v 973.8142 1706.0912 -147.9271
v 973.8142 1434.4022 -183.11774
v 973.8142 1779.234 -138.45313
v 973.8142 1882.5042 -125.07714
v 973.8142 1949.4819 -116.40178
v 973.8142 1915.5734 -120.79375
v 973.8142 2004.4346 -109.284035
v 967.56226 2151.8591 152.76869
v 966.9847 2164.69 -88.52683
v 967.0007 2195.865 -84.4889
v 966.968 2125.2813 -93.63124
v 966.9745 2142.3435 -91.4214
v 966.9813 2158.1052 -89.37977
v 966.962 2102.0461 -96.64083
v 966.96106 1977.648 -112.75364
v 966.95874 2078.4226 -99.700615
v 966.96295 1951.8557 -116.094406
v 966.97595 1686.4379 -150.47263
v 966.96936 1836.731 -131.00586
v 966.9733 1755.4036 -141.53987
v 966.9954 1386.0544 -189.38002
v 966.9779 1654.142 -154.65579
v 966.9943 1403.6343 -187.10292
v 966.971 2134.1963 -92.47652
v 966.9711 1788.5275 -137.24963
v 966.96515 2116.5645 -94.76039
v 966.964 2111.037 -95.4763
v 966.9671 1868.653 -126.871086
v 966.96576 1903.0359 -122.41778
v 966.9637 1932.0746 -118.65636
v 966.9598 2085.0112 -98.84725
v 966.96063 2093.8218 -97.705986
v 966.96045 1993.3912 -110.714455
v 966.9577 2060.7732 -101.98672
v 966.9589 2068.277 -101.01467
v 966.9586 2024.2197 -106.721344
v 966.959 2014.7078 -107.95334
vt 0.98385 0.85925299
vt 0.983923 0.858765
vt 0.983967 0.85766602
vt 0.983995 0.85693401
vt 0.983995 0.82800299
vt 0.983995 0.79821801
vt 0.983995 0.77917498
vt 0.983995 0.765015
vt 0.983995 0.75341803
vt 0.983995 0.72973597
vt 0.983995 0.705078
vt 0.983995 0.673828
vt 0.983995 0.651123
vt 0.983995 0.628052
vt 0.983995 0.59960902
vt 0.983995 0.57153302
vt 0.983995 0.531372
vt 0.983995 0.48230004
vt 0.983995 0.41772497
vt 0.983995 0.166138
vt 0.983995 0.01196301
vt 0.983976 0.010132015
vt 0.983923 0.005981028
vt 0.983873 0.0047609806
vt 0.983727 0.0015869737
vt 0.98366 0.0010989904
vt 0.983456 0
vt 0.982145 0
vt 0.978121 0
vt 0.978054 0.00048798323
vt 0.977852 0.0015869737
vt 0.9778 0.0028079748
vt 0.977654 0.005981028
vt 0.977613 0.009154975
vt 0.977598 0.010497987
vt 0.977587 0.10705602
vt 0.977585 0.12853998
vt 0.977571 0.36206102
vt 0.977568 0.39648402
vt 0.977566 0.45715296
vt 0.977564 0.492065
vt 0.977562 0.532349
vt 0.97756 0.565674
vt 0.977558 0.592529
vt 0.977556 0.622559
vt 0.977556 0.63659698
vt 0.977554 0.662964
vt 0.977554 0.672485
vt 0.977552 0.694214
vt 0.977552 0.69860798
vt 0.977551 0.71594203
vt 0.977551 0.717529
vt 0.977551 0.73107898
vt 0.977551 0.731812
vt 0.977551 0.74231
vt 0.977551 0.74267602
vt 0.977551 0.751953
vt 0.977552 0.75341803
vt 0.977554 0.763062
vt 0.977554 0.765015
vt 0.977558 0.77465802
vt 0.977558 0.77917498
vt 0.977562 0.78857398
vt 0.977566 0.79821801
vt 0.977571 0.806763
vt 0.977581 0.82800299
vt 0.977585 0.83361799
vt 0.977598 0.85729998
vt 0.977619 0.85790998
vt 0.977654 0.858765
vt 0.977777 0.85949701
vt 0.977852 0.859985
vt 0.978025 0.86035198
vt 0.978121 0.86047399
vt 0.981565 0.86047399
vt 0.983456 0.86047399
vt 0.983629 0.86022902
vt 0.983727 0.859985
vt 0.599884 0.429443
vt 0.655815 0.25354004
vt 0.598824 0.42785597
vt 0.654747 0.251953
vt 0.734138 0
vt 0.654343 0.251343
vt 0.734146 0.00048798323
vt 0.990643 0
vt 0.994663 0.26416004
vt 0.994663 0
vt 0.734161 0.0015869737
vt 0.507149 0.80761701
vt 0.499191 0.78356898
vt 0.506592 0.80786097
vt 0.734161 0.0028079748
vt 0.734177 0.005981028
vt 0.734177 0.009154975
vt 0.971077 0.876708984
vt 0.891327 0.62670898
vt 0.971062 0.877929986
vt 0.971085 0.876221
vt 0.656906 0.255127
vt 0.734177 0.010375977
vt 0.891739 0.626221
vt 0.892807 0.62475598
vt 0.835854 0.45043898
vt 0.836914 0.44873
vt 0.838341 0.446777
vt 0.797928 0.32592797
vt 0.796722 0.32714796
vt 0.734184 0.83178699
vt 0.722252 0.861206
vt 0.734184 0.855591
vt 0.734184 0.85607898
vt 0.565453 0.862427
vt 0.540932 0.84777802
vt 0.565086 0.86279303
vt 0.959717 0.016112983
vt 0.927811 0.006348014
vt 0.959015 0.017578006
vt 0.96022 0.014892995
vt 0.928017 0.0053709745
vt 0.741272 0.14648402
vt 0.736343 0.12084997
vt 0.739746 0.14672899
vt 0.522591 0.82849097
vt 0.508629 0.80700701
vt 0.52124 0.829346
vt 0.803452 0.017333984
vt 0.802505 0.016112983
vt 0.780754 0.032958984
vt 0.894882 0.00048798323
vt 0.894981 0.0017089844
vt 0.862091 0.00073200464
vt 0.862488 0.0019530058
vt 0.831589 0.0070800185
vt 0.832504 0.008789003
vt 0.760124 0.21142602
vt 0.804726 0.018799007
vt 0.796265 0.327393
vt 0.759605 0.21142602
vt 0.830627 0.005614996
vt 0.830902 0.0061039925
vt 0.861931 0.00024402142
vt 0.559204 0.55102497
vt 0.522522 0.666992
vt 0.559662 0.55139202
vt 0.722786 0.86230499
vt 0.690857 0.871948
vt 0.737846 0.095458984
vt 0.739952 0.09594703
vt 0.745728 0.071533024
vt 0.542099 0.846924
vt 0.523972 0.82775903
vt 0.510139 0.80639601
vt 0.75782 0.049072027
vt 0.758331 0.04931599
vt 0.777557 0.030517995
vt 0.50074 0.783203
vt 0.502327 0.78283697
vt 0.74369 0.07080102
vt 0.744247 0.07104498
vt 0.73571 0.094971
vt 0.736298 0.09521502
vt 0.778 0.030762017
vt 0.802139 0.015869021
vt 1 0.245857
vt 1 0.22627997
vt 0.994667 0.245857
vt 1 0.270348
vt 0.994667 0.270348
vt 1 0.298813
vt 1 0.330162
vt 0.994667 0.330162
vt 1 0.363182
vt 0.9711 0.020995975
vt 0.971085 0.020020008
vt 0.98933 0.26416004
vt 0.994663 0.44897497
vt 0.523033 0.66723597
vt 0.502647 0.73205602
vt 0.98933 0.44897497
vt 0.98933 0.57897902
vt 0.691063 0.873169
vt 0.691124 0.87365699
vt 0.723289 0.86340302
vt 0.98933 0.82019001
vt 0.98933 0.84167498
vt 0.994663 0.82019001
vt 0.593864 0.87255901
vt 0.593597 0.873047
vt 0.625084 0.877807975
vt 0.624924 0.87829602
vt 0.994663 0.70080602
vt 0.98933 0.70080602
vt 0.994663 0.76904303
vt 0.657906 0.878051996
vt 0.657852 0.87853998
vt 0.734177 0.85693401
vt 0.734169 0.85778803
vt 0.566399 0.861328
vt 0.971077 0.020020008
vt 0.971062 0.019531012
vt 0.779175 0.031737983
vt 0.759682 0.050049007
vt 0.747734 0.072510004
vt 0.657997 0.876830995
vt 0.761513 0.051270008
vt 0.994667 0.429161
vt 0.996555 0.439941
vt 1 0.429161
vt 0.594551 0.87133801
vt 0.56736 0.86022902
vt 0.994663 0.57897902
vt 0.625877 0.87536597
vt 0.595245 0.87023902
vt 0.625481 0.87658697
vt 0.994667 0.363182
vt 1 0.39660597
vt 0.863022 0.0036619902
vt 0.497665 0.75793499
vt 0.497078 0.758057
vt 0.499237 0.75781202
vt 0.500839 0.75769001
vt 0.734772 0.12060499
vt 0.504166 0.73217797
vt 0.894829 0
vt 0.928078 0.0048829913
vt 0.540482 0.84814501
vt 0.739174 0.14672899
vt 0.743332 0.14624
vt 0.738472 0.12084997
vt 0.98933 0.76904303
vt 0.994663 0.795654
vt 0.52578 0.66857898
vt 0.524391 0.66784698
vt 0.505722 0.73229998
vt 0.502075 0.731934
vt 0.560867 0.55249
vt 0.835449 0.45092797
vt 0.60096 0.431152
vt 0.894257 0.622559
vt 0.543289 0.84594703
vt 0.994663 0.859375
vt 0.994663 0.84167498
vt 0.98933 0.859375
vt 0.598419 0.427368
vt 0.971107 0.86767602
vt 0.971107 0.86596698
vt 0.9711 0.87207001
vt 0.9711 0.87329102
vt 0.562088 0.553711
vt 0.761482 0.210693
vt 0.799553 0.324463
vt 0.734184 0.76147503
vt 0.734184 0.751831
vt 0.763321 0.20971704
vt 0.971107 0.20581102
vt 0.971107 0.17480499
vt 0.734161 0.85827601
vt 0.960388 0.01464802
vt 0.734146 0.85852098
vt 0.98933 0.795654
vt 0.734184 0.12060499
vt 0.994667 0.439941
vt 0.734138 0.858765
vt 0.520729 0.82959002
vt 0.971107 0.022460997
vt 0.9711 0.021484017
vt 0.895103 0.0034180284
vt 0.658089 0.875609994
vt 0.690628 0.87072802
vt 0.971107 0.023193002
vt 0.971107 0.052002013
vt 0.498604 0.78369099
vt 0.927513 0.008056998
vt 0.994667 0.22627997
vt 0.994667 0.298813
vt 0.723457 0.86377001
vt 1 0.439941
vt 0.994667 0.39660597
vt 0.98933 0
vt 0.734184 0.53125
vt 0.734184 0.361328
vt 0.734184 0.39563
vt 0.734184 0.456177
vt 0.734177 0.106812
vt 0.734177 0.128174
vt 0.734184 0.63525403
vt 0.734184 0.49096704
vt 0.734184 0.73022503
vt 0.734184 0.714355
vt 0.734184 0.71594203
vt 0.734184 0.786865
vt 0.734184 0.76342797
vt 0.734184 0.74084502
vt 0.734184 0.741089
vt 0.734184 0.80505401
vt 0.734184 0.826294
vt 0.734184 0.79650903
vt 0.734184 0.75036597
vt 0.734184 0.72961402
vt 0.734184 0.564453
vt 0.734184 0.591309
vt 0.734184 0.621216
vt 0.734184 0.777466
vt 0.734184 0.66162097
vt 0.734184 0.671143
vt 0.734184 0.69274902
vt 0.734184 0.697021
vt 0.734184 0.77307099
vt 0.971107 0.114989996
vt 0.971107 0.10083002
vt 0.971107 0.12646496
vt 0.971107 0.08178699
vt 0.971107 0.15014601
vt 0.971107 0.34790003
vt 0.971107 0.25146496
vt 0.971107 0.30786097
vt 0.971107 0.46142602
vt 0.971107 0.396973
vt 0.971107 0.280029
vt 0.971107 0.22851598
vt 0.734184 0.87791401
vt 0.734184 0.87815899
vt 0.734184 0.879271984
vt 0.971207 0.001801014
vt 0.971153 0.0031589866
vt 0.971149 0.009705007
vt 0.971148 0.011260986
vt 0.971133 0.040802002
vt 0.97113 0.047043025
vt 0.971123 0.061981022
vt 0.97112 0.06970203
vt 0.971117 0.07814002
vt 0.971115 0.086411
vt 0.971114 0.09164399
vt 0.971112 0.10015899
vt 0.97111 0.10795599
vt 0.97111 0.11630201
vt 0.971109 0.12254298
vt 0.971109 0.13215601
vt 0.971108 0.13926697
vt 0.971108 0.15191698
vt 0.971107 0.157623
vt 0.971108 0.173904
vt 0.971109 0.182922
vt 0.97111 0.20310998
vt 0.971111 0.21803302
vt 0.971112 0.24246198
vt 0.971113 0.26121497
vt 0.971115 0.288727
vt 0.971116 0.32130396
vt 0.971119 0.351547
vt 0.97112 0.39721704
vt 0.971122 0.428604
vt 0.971125 0.493958
vt 0.971127 0.52455097
vt 0.971142 0.761917
vt 0.971143 0.77858001
vt 0.971153 0.85675001
vt 0.971165 0.85786402
vt 0.971207 0.861099
vt 0.971362 0.86428797
vt 0.971405 0.86531103
vt 0.971618 0.86648601
vt 0.971676 0.86685199
vt 0.975883 0.86685199
vt 0.97701 0.86685199
vt 0.977222 0.865677
vt 0.97728 0.86531103
vt 0.977434 0.86213702
vt 0.977478 0.861099
vt 0.977534 0.856812
vt 0.97755 0.855331
vt 0.97755 0.732758
vt 0.97755 0.47532701
vt 0.97755 0.40603602
vt 0.97755 0.35255396
vt 0.97755 0.308182
vt 0.97755 0.27683997
vt 0.97755 0.24471998
vt 0.97755 0.218597
vt 0.97755 0.19264197
vt 0.97755 0.15657002
vt 0.97755 0.12789899
vt 0.97755 0.10015899
vt 0.97755 0.086411
vt 0.97755 0.06970203
vt 0.97755 0.047043025
vt 0.97755 0.011260986
vt 0.97755 0.0036159754
vt 0.977491 0.002135992
vt 0.977478 0.001801014
vt 0.977321 0.00076299906
vt 0.97728 0.00048798323
vt 0.977069 0.00010699034
vt 0.97701 0
vt 0.972853 0
vt 0.971676 0
vt 0.971463 0.0003809929
vt 0.971405 0.00048798323
vt 0.734184 0.87921101
vt 0.734184 0.87791401
vt 0.734184 0.87896699
vt 0.126984 0.0021209717
vt 0.127396 0.0033720136
vt 0.159454 0.0016940236
vt 0.159561 0.0029299855
vt 0.192322 0.0062710047
vt 0.096146 0.0075680017
vt 0.096863 0.0087739825
vt 0.440536 0.88195801
vt 0.408112 0.88641399
vt 0.440826 0.88354498
vt 0.376068 0.88598597
vt 0.407974 0.888062
vt 0.095459 0.0064089894
vt 0.126572 0.00089997053
vt 0.069107 0.018921018
vt 0.345642 0.88055402
vt 0.317993 0.870422
vt 0.344696 0.882140994
vt 0.294189 0.855896
vt 0.316696 0.87188703
vt 0.068146 0.017822027
vt 0.067184 0.016753972
vt 0.044022 0.03248602
vt 0.275162 0.83764601
vt 0.292603 0.85717797
vt 0.291428 0.858154
vt 0.31575 0.87292498
vt 0.224976 0.014205992
vt 0.224808 0.0146179795
vt 0.248581 0.02560401
vt 0.261627 0.816284
vt 0.273331 0.83868402
vt 0.271973 0.83941698
vt 0.024734 0.050994992
vt 0.023376 0.050231993
vt 0.011017 0.072632015
vt 0.994666 0.023720026
vt 1 0.023720026
vt 0.998822 0
vt 0.259613 0.81701702
vt 0.258133 0.81756598
vt 0.012543 0.07321203
vt 0.00499 0.09692401
vt 0.003387 0.096572995
vt 0.002151 0.12190199
vt 0.001831 0.09622198
vt 0.000595 0.12177998
vt 0.47345 0.87567103
vt 0.497025 0.864685
vt 0.473282 0.87524402
vt 0.005829 0.147766
vt 0.159348 0.0004580021
vt 0.026886 0.21243298
vt 0.007355 0.14762902
vt 0.313263 0.56170702
vt 0.353653 0.43847704
vt 0.312805 0.561279
vt 0.028229 0.21179199
vt 0.065872 0.327011
vt 0.411346 0.262878
vt 0.353256 0.437927
vt 0.064697 0.32814002
vt 0.106155 0.449875
vt 0.005264 0.14779699
vt 0.026367 0.21266198
vt 0.107208 0.448227
vt 0.164948 0.624054
vt 0 0.12173498
vt 0.06424 0.328552
vt 0.105118 0.451477
vt 0.001251 0.09608501
vt 0.983996 0.596268
vt 0.985123 0.873047
vt 0.98933 0.596268
vt 0.009537 0.07206702
vt 0.983996 0.06382799
vt 0.983996 0.09045398
vt 0.98933 0.06382799
vt 0.994666 0.056267023
vt 0.994666 0.08967602
vt 1 0.056267023
vt 0.994666 0.22627997
vt 1 0.22627997
vt 0.994666 0.20678699
vt 0.994666 0.153961
vt 0.994666 0.182365
vt 1 0.153961
vt 0.344009 0.88330102
vt 0.343735 0.88372803
vt 0.983996 0.158768
vt 0.983996 0.280899
vt 0.98933 0.158768
vt 0.095184 0.0059660077
vt 1 0.182365
vt 0.126404 0.00044298172
vt 0.994666 0.12266499
vt 1 0.08967602
vt 0.159302 0
vt 0.98933 0.280899
vt 0.98933 0.411057
vt 0.19252 0.0050960183
vt 0.192581 0.0046539903
vt 0.98933 0.09045398
vt 0.25386 0.74188203
vt 0.254425 0.741943
vt 0.274948 0.67712402
vt 0.441025 0.88470501
vt 0.441071 0.88519299
vt 0.224319 0.01571703
vt 0.248596 0.026778996
vt 0.375519 0.88763398
vt 0.375107 0.88885498
vt 0.315384 0.87335199
vt 0.29097 0.858459
vt 0.271454 0.83972198
vt 0.045227 0.033447027
vt 0.026123 0.05177301
vt 0.250427 0.79345697
vt 0.257568 0.81781
vt 0.251984 0.793091
vt 0.249191 0.767883
vt 0.49704 0.86419702
vt 0.472794 0.87414598
vt 0.255951 0.742065
vt 0.275467 0.677307
vt 0.98933 0.039260983
vt 0.983996 0.039260983
vt 0.254105 0.79260302
vt 0.250748 0.76776099
vt 0.003754 0.12200898
vt 0.008911 0.14749098
vt 0.983996 0.411057
vt 0.314453 0.56286597
vt 0.354691 0.440063
vt 0.029617 0.21112096
vt 0.067093 0.32582104
vt 0.252884 0.76763898
vt 0.258011 0.742249
vt 0.276825 0.677979
vt 0.407867 0.88934302
vt 0.472107 0.87268102
vt 0.223801 0.016830027
vt 0.022873 0.049926996
vt 0.066818 0.016341984
vt 0.042847 0.031554997
vt 0.49707 0.862854
vt 0.248596 0.028397024
vt 0.248596 0.027283013
vt 0.248581 0.025711
vt 0.248596 0.03492701
vt 0.98933 0.017714977
vt 0.983996 0.017714977
vt 0.24855 0.025207996
vt 0.248596 0.76794398
vt 0.994666 0
vt 0.042404 0.031189024
vt 0.497025 0.86456299
vt 0.248596 0.027038991
vt 0.497055 0.86389202
vt 0.407806 0.889770985
vt 0.374939 0.88928199
vt 0.49707 0.86102301
vt 0.49707 0.86248797
vt 0.49707 0.85339397
vt 0.278656 0.678833
vt 0.49707 0.73706102
vt 0.49707 0.70849597
vt 0.413818 0.266541
vt 0.49707 0.011475027
vt 0.49707 0.0099490285
vt 0.412399 0.26446497
vt 0.49707 0.0056759715
vt 0.356094 0.44226098
vt 0.497055 0.004700005
vt 0.49704 0.0015259981
vt 0.104721 0.45204198
vt 0.162827 0.62719703
vt 0.49704 0.0011600256
vt 0.410934 0.26232898
vt 0.497025 0
vt 0.983997 0
vt 0.983997 0.873047
vt 0.008972 0.07183802
vt 0.24855 0.88995397
vt 0.162415 0.627747
vt 0.24855 0.89032
vt 0.163879 0.625656
vt 0.248566 0.888809025
vt 0.248581 0.887786984
vt 0.248581 0.88461298
vt 0.248596 0.881377995
vt 0.316055 0.56439197
vt 0.248596 0.88028002
vt 1 0.12266499
vt 0.248596 0.18254101
vt 0.248596 0.17684901
vt 0.192108 0.0074769855
vt 1 0
vt 0.989331 0.873047
vt 1 0.20678699
vt 0.249847 0.79357898
vt 0.49707 0.81774902
vt 0.49707 0.79510498
vt 0.49707 0.77844203
vt 0.49707 0.764709
vt 0.49707 0.64660603
vt 0.49707 0.51293898
vt 0.49707 0.390503
vt 0.49707 0.13372803
vt 0.49707 0.459656
vt 0.49707 0.55725098
vt 0.49707 0.62054402
vt 0.49707 0.58850098
vt 0.49707 0.672485
vt 0.989331 0
vt 0.248596 0.06596398
vt 0.248596 0.036484003
vt 0.248596 0.103226006
vt 0.248596 0.08709699
vt 0.248596 0.07218897
vt 0.248596 0.125198
vt 0.248596 0.24282801
vt 0.248596 0.147537
vt 0.248596 0.267227
vt 0.248596 0.51820397
vt 0.248596 0.37608302
vt 0.248596 0.45298803
vt 0.248596 0.802261
vt 0.248596 0.548752
vt 0.248596 0.78562897
vt 0.248596 0.094802976
vt 0.248596 0.421677
vt 0.248596 0.11146498
vt 0.248596 0.11669898
vt 0.248596 0.345901
vt 0.248596 0.313385
vt 0.248596 0.28593397
vt 0.248596 0.141312
vt 0.248596 0.13297999
vt 0.248596 0.22795099
vt 0.248596 0.16422999
vt 0.248596 0.15713501
vt 0.248596 0.19879198
vt 0.248596 0.20779401
vn 0.0003 0.1302 -0.9915
vn -0.0018 0.1303 -0.9915
vn -0.0014 0.1302 -0.9915
vn -0.0006 0.1302 -0.9915
vn 0.0011 0.1301 -0.9915
vn -0.0004 0.1301 -0.9915
vn -0.0025 0.1302 -0.9915
vn -0.0003 0.1301 -0.9915
vn 0.0045 0.1301 -0.9915
vn 0.0032 0.1301 -0.9915
vn -0.0023 0.1302 -0.9915
vn -0.0043 0.1302 -0.9915
vn 0.0026 0.1301 -0.9915
vn 0.0074 0.1301 -0.9915
vn -0.0024 0.1301 -0.9915
vn -0.0011 0.1301 -0.9915
vn -0.0008 0.1302 -0.9915
vn -0.0039 0.1301 -0.9915
vn 0.0013 0.1301 -0.9915
vn 0.0008 0.1301 -0.9915
vn -0.0035 0.1301 -0.9915
vn -0.0017 0.1301 -0.9915
vn 0 0.1301 -0.9915
vn 0 0.1301 -0.9915
vn 0.001 0.1301 -0.9915
vn 0.0004 0.1301 -0.9915
vn -0.0001 0.1301 -0.9915
vn 0 0.1301 -0.9915
vn -0.0001 0.1301 -0.9915
vn -0.0007 0.1301 -0.9915
vn 0.0015 0.1301 -0.9915
vn 0.0018 0.1301 -0.9915
vn -0.0006 0.1301 -0.9915
vn -0.0002 0.1301 -0.9915
vn 0.0003 0.1302 -0.9915
vn 0 0.1301 -0.9915
vn 0.0005 0.1301 -0.9915
vn -0.0001 0.1301 -0.9915
vn 0.0001 0.1301 -0.9915
vn 0.0001 0.1301 -0.9915
vn -0.0003 0.1301 -0.9915
vn 0.0002 0.1301 -0.9915
vn -0.0003 0.1301 -0.9915
vn 0.0002 0.1301 -0.9915
vn 0.0001 0.1301 -0.9915
vn 0.0001 0.1301 -0.9915
vn -0.0001 0.1301 -0.9915
vn -0.0004 0.1301 -0.9915
vn 0 0.1301 -0.9915
vn 0.0006 0.1302 -0.9915
vn 0.0008 0.1302 -0.9915
vn 0.0009 0.1301 -0.9915
vn 0.0039 0.1303 -0.9915
vn 0.0037 0.1303 -0.9915
vn 0.0056 0.1304 -0.9914
vn 0.0054 0.1306 -0.9914
vn -0.0004 0.1301 -0.9915
vn -0.0004 0.1301 -0.9915
vn 0.0003 0.1302 -0.9915
vn 0.0001 0.1301 -0.9915
vn 0.0001 0.1301 -0.9915
vn -0.0003 0.1301 -0.9915
vn 0 0.1301 -0.9915
vn -0.0001 0.1301 -0.9915
vn 0.0001 0.1301 -0.9915
vn 0 0.1301 -0.9915
vn 0.0001 0.1301 -0.9915
vn -0 0.1302 -0.9915
vn -0 0.1302 -0.9915
vn -0 0.1302 -0.9915
vn 0 0.13 -0.9915
vn 0 0.13 -0.9915
vn -0.0001 0.1303 -0.9915
vn -0.0001 0.1303 -0.9915
vn -0 0.1302 -0.9915
vn 0.0004 0.1301 -0.9915
vn 0.0009 0.13 -0.9915
vn 0.0011 0.1298 -0.9915
vn 0.9964 -0.0358 0.0764
vn 0.995 -0.0424 0.0907
vn 0.9559 -0.1245 0.2661
vn 0.9289 -0.157 0.3354
vn 0.6861 -0.3083 0.659
vn 0.4171 -0.3853 0.8231
vn 0.8794 -0.2017 0.4312
vn 0 -0.4238 0.9057
vn 0.4171 -0.3853 0.8231
vn 0.6861 -0.3083 0.659
vn 0.9653 -0.1106 0.2365
vn 0.9603 0.0937 0.2626
vn 0.945 0.0192 0.3264
vn 0.5385 0.2777 0.7955
vn 0.9896 -0.0608 0.1301
vn 0.9952 -0.0415 0.0889
vn 0.9993 -0.016 0.0343
vn -0.8796 -0.2016 0.4309
vn -0.5186 -0.3625 0.7744
vn -0.4983 -0.3675 0.7853
vn -0.9354 -0.1498 0.3204
vn 0.9998 -0.0077 0.0164
vn 0.9998 -0.0077 0.0165
vn -0.9547 -0.1262 0.2695
vn -0.9957 -0.0391 0.0837
vn -0.9559 -0.1244 0.266
vn -0.9964 -0.0358 0.0764
vn -0.9999 -0.0065 0.0139
vn -0.9964 -0.0357 0.0765
vn -0.9559 -0.1243 0.2661
vn 1 0.0006 -0.0001
vn 0.9995 0.0308 -0.0081
vn 0.9997 0.0213 -0.007
vn 0.999 0.042 -0.0138
vn 0.949 0.2694 0.1638
vn 0.9538 0.2196 0.2049
vn 0.5146 0.7086 0.4827
vn -0.9915 0.1255 -0.0327
vn -0.9964 0.0842 -0.0079
vn -0.9995 0.0307 -0.0081
vn -0.9032 0.4154 -0.1083
vn -0.9569 0.2891 -0.0273
vn -0.9965 -0.0317 0.0773
vn -0.9967 -0.0178 0.0791
vn -0.9566 -0.1104 0.2698
vn 0.9966 0.046 0.0683
vn 0.9968 0.0268 0.0749
vn 0.9578 0.1604 0.2385
vn -0.9948 0.087 0.0532
vn -0.961 0.2358 0.1445
vn -0.9991 0.032 0.0271
vn -0.9371 0.3489 0.0146
vn -0.9946 0.1033 0.0042
vn -0.9399 0.3348 0.0668
vn -0.9949 0.0987 0.0196
vn -0.9953 0.0903 0.0342
vn -0.9998 0.0166 0.0061
vn -0.9706 -0.1015 0.218
vn -0.9997 0.0203 0.0119
vn -0.4491 -0.3781 0.8095
vn -0.5986 -0.3381 0.7262
vn -0.6012 0.7383 0.3056
vn -0.9441 0.3081 0.1171
vn -0.4237 0.8841 0.1972
vn 0.6263 -0.33 0.7063
vn 0.5985 -0.3383 0.7261
vn 0.9559 -0.1243 0.2662
vn 0.9923 0.1206 -0.0297
vn 0.9964 0.0842 -0.0079
vn -0.9956 0.0055 0.0939
vn -0.9996 0.0016 0.0268
vn -0.9975 0.0223 0.0666
vn 0.9962 0.0635 0.059
vn 0.9998 0.01 0.0143
vn 0.9998 0.0072 0.019
vn -0.5332 0.4262 0.7308
vn -0.9678 0.1396 0.2096
vn -0.4485 0.6343 0.6296
vn 0.9956 0.0055 0.0939
vn 0.9996 0.0016 0.0267
vn -0.5383 0.2292 0.811
vn -0.9604 0.0937 0.2625
vn -0.4279 0.0228 0.9035
vn -0.945 0.0192 0.3264
vn -0.9647 0.1918 0.1803
vn -0.5148 0.7292 0.4508
vn 0.6248 0.5513 0.5529
vn 0.5334 0.4665 0.7055
vn -0.4485 0.6343 0.6296
vn 0.5146 0.7086 0.4827
vn -0.5148 0.7292 0.4508
vn 0.4312 0.8352 0.3414
vn 0.591 0.7866 0.1788
vn -0.4237 0.8841 0.1972
vn 0.4897 0.8691 0.0706
vn -0.9866 0.1551 -0.0508
vn -0.9573 0.2748 -0.09
vn -0.5186 -0.3625 0.7744
vn 0.4489 -0.3788 0.8093
vn 0.9707 -0.1015 0.2179
vn 0.9565 -0.1104 0.2699
vn -0.6263 -0.3305 0.7061
vn -0.4491 -0.3781 0.8095
vn 0.9569 0.2893 -0.0273
vn 0.4863 0.87 -0.0819
vn 0.9177 0.3842 -0.1014
vn -0.4279 0.0228 0.9035
vn -0.5383 0.2292 0.811
vn 0.4279 0.0841 0.8999
vn 0.9441 0.3081 0.1171
vn 0.4312 0.8352 0.3414
vn 0.9399 0.3348 0.0668
vn 0.591 0.7866 0.1788
vn 0.5985 -0.3383 0.7261
vn -0.5986 -0.3381 0.7262
vn 0.5285 -0.3189 0.7868
vn 0.937 0.349 0.0146
vn 0.4897 0.8691 0.0706
vn 0.9965 0.0799 -0.0262
vn 0.9866 0.1552 -0.0508
vn 0.9958 0.0784 0.0475
vn -0.8506 0.4997 -0.1636
vn -0.6386 0.7313 -0.2394
vn -0.9963 0.0615 0.0603
vn -0.9966 0.0438 0.0692
vn -0.9993 0.0149 0.0352
vn 0.9946 0.1033 0.0042
vn -0.9994 0.0205 0.0273
vn -0.3194 0.9198 -0.228
vn 0 0.9504 -0.3111
vn 0.3873 0.8909 -0.2373
vn 0.9953 0.0903 0.0342
vn 0.9998 0.017 0.01
vn 0.6263 -0.33 0.7063
vn 0.9999 0.0161 0.003
vn 0.9998 0.0195 0.0071
vn 0.9949 0.0987 0.0195
vn -0.4898 0.8708 0.0416
vn 0.4863 0.87 -0.0819
vn -0.9998 0.0211 0.0039
vn 0.959 -0.0618 0.2767
vn 0.4578 -0.164 0.8738
vn 0.9967 -0.0178 0.0791
vn 0.9999 -0.0041 0.0168
vn -0.959 -0.0618 0.2766
vn 0.9965 -0.0317 0.0774
vn -0.4898 0.8708 0.0416
vn -0.6374 0.7671 -0.0723
vn 0.6248 0.5513 0.5529
vn -0.5285 -0.2978 0.795
vn -0.9999 -0.0041 0.0099
vn -0.9999 -0.0041 0.0168
vn -0.5285 -0.2978 0.795
vn 0.4578 -0.164 0.8738
vn 1 -0.0026 0.0056
vn 0.9977 -0.0288 0.0618
vn 1 -0.0031 0.0077
vn 0.5285 -0.3189 0.7868
vn 0.9964 -0.0357 0.0765
vn -0.6263 -0.3305 0.7061
vn 0.9999 -0.0051 0.011
vn -0.9997 -0.0101 0.0217
vn 0.9998 0.0165 0.0149
vn 0.5334 0.4665 0.7055
vn 0.5385 0.2777 0.7955
vn -0.5332 0.4262 0.7308
vn 0.4489 -0.3788 0.8093
vn -0.9993 -0.016 0.0344
vn -0.9998 -0.0076 0.0163
vn -0.9962 -0.0371 0.0794
vn -0.9901 -0.0593 0.127
vn 0.9999 -0.0051 0.011
vn -0.9977 -0.0288 0.0619
vn -0.9999 -0.0057 0.0122
vn 1 0.0002 0.0002
vn 1 0.0002 0.0002
vn -1 -0.0038 0.0082
vn -1 0 0
vn -1 0 0
vn 0.9364 0.3334 -0.1091
vn -0.3194 0.9198 -0.228
vn 0.8506 0.4998 -0.1635
vn -0.6374 -0.1376 0.7581
vn -0.6374 -0.1376 0.7581
vn -0.6386 0.7313 -0.2394
vn 0.6383 0.7316 -0.2394
vn 0.5334 0.4665 0.7055
vn -0.999 0.0421 -0.0138
vn -0.9965 0.0799 -0.0261
vn -0.9998 0.0221 0.0007
vn 0.9998 0.0192 0.0006
vn 0.9999 0.0152 -0.0014
vn -0.9998 0.021 -0.0069
vn -1 0 0
vn 0.4279 0.0841 0.8999
vn -0.9998 0.0178 -0.0017
vn -0.5332 0.4262 0.7308
vn -0.6012 0.7383 0.3056
vn 0.3873 0.8909 -0.2373
vn 0.6383 0.7316 -0.2394
vn -0.6374 0.7671 -0.0723
vn -0.4983 -0.3675 0.7853
vn 1 -0.0001 0.0002
vn 1 -0.0001 0.0002
vn 1 -0.0001 0.0002
vn 1 -0.0001 0.0002
vn 1 -0.0002 0.0003
vn 1 -0.0001 0.0003
vn 1 -0.0001 0.0002
vn 1 -0.0001 0.0002
vn 1 0 0.0002
vn 1 0 0.0002
vn 1 0 0.0002
vn 1 0.0004 0
vn 1 0.0002 0.0002
vn 1 0.0001 0.0002
vn 1 0.0001 0.0002
vn 1 0.0005 -0
vn 1 0.0005 -0.0001
vn 1 0.0004 0
vn 1 0.0001 0.0002
vn 1 0 0.0002
vn 1 -0.0001 0.0002
vn 1 -0.0001 0.0002
vn 1 -0.0001 0.0002
vn 1 0.0003 0.0001
vn 1 -0.0001 0.0002
vn 1 -0.0001 0.0002
vn 1 -0.0001 0.0002
vn 1 -0.0001 0.0002
vn 1 0.0003 0.0001
vn -1 0 0
vn -1 0 0
vn -1 0 0
vn -1 0 0
vn -1 0 0
vn -1 0 0
vn -1 0 0
vn -1 0 0
vn -1 0 0
vn -1 0 0
vn -1 0 0
vn -1 0 0
vn -0.0007 0.1273 -0.9919
vn -0.6757 0 0.7372
vn -0.8635 0.0989 -0.4945
vn -0.0007 0.1273 -0.9919
vn -0.8635 0.0989 -0.4945
vn 0.0038 0.1291 -0.9916
vn 0.0033 0.129 -0.9916
vn -0.0009 0.127 -0.9919
vn -0.0028 0.1287 -0.9917
vn 0.0086 0.1304 -0.9914
vn 0.0127 0.1268 -0.9919
vn -0.006 0.1318 -0.9913
vn -0.0051 0.1232 -0.9924
vn 0.0079 0.1292 -0.9916
vn 0.0115 0.1252 -0.9921
vn 0.0044 0.1312 -0.9913
vn -0.002 0.1283 -0.9917
vn 0.0063 0.1265 -0.9919
vn -0.0081 0.1317 -0.9913
vn -0.0025 0.1275 -0.9918
vn -0.0221 0.1244 -0.992
vn -0.0286 0.1283 -0.9913
vn 0.007 0.1309 -0.9914
vn 0.0008 0.1281 -0.9918
vn -0.0059 0.1281 -0.9917
vn -0.0015 0.1297 -0.9916
vn 0.0124 0.1264 -0.9919
vn 0.006 0.1295 -0.9916
vn 0.0011 0.1294 -0.9916
vn 0.0033 0.1271 -0.9919
vn -0.0092 0.1282 -0.9917
vn -0.0008 0.1285 -0.9917
vn 0.0123 0.1297 -0.9915
vn 0.0023 0.1289 -0.9916
vn -0.0016 0.1284 -0.9917
vn -0.017 0.1328 -0.991
vn -0.0061 0.1286 -0.9917
vn 0.0012 0.1277 -0.9918
vn -0.004 0.1284 -0.9917
vn -0.0011 0.1285 -0.9917
vn 0.0012 0.1279 -0.9918
vn 0.0011 0.1286 -0.9917
vn -0.0014 0.1285 -0.9917
vn -0.0008 0.1285 -0.9917
vn 0 0.1285 -0.9917
vn 0 0.1285 -0.9917
vn 0.0019 0.1285 -0.9917
vn 0.0016 0.1286 -0.9917
vn 0 0.1285 -0.9917
vn 0.0013 0.1283 -0.9917
vn -0.0013 0.1283 -0.9917
vn -0.0016 0.1284 -0.9917
vn 0.0001 0.1285 -0.9917
vn 0 0.1285 -0.9917
vn 0.0001 0.1285 -0.9917
vn -0.0001 0.1284 -0.9917
vn -0.0001 0.1284 -0.9917
vn 0.0001 0.1285 -0.9917
vn -0.0001 0.1284 -0.9917
vn 0 0.1285 -0.9917
vn -0 0.1284 -0.9917
vn -0.0001 0.1285 -0.9917
vn -0 0.1284 -0.9917
vn 0 0.1285 -0.9917
vn 0 0.1285 -0.9917
vn -0.0001 0.1285 -0.9917
vn -0 0.1284 -0.9917
vn 0 0.1285 -0.9917
vn 0 0.1285 -0.9917
vn -0 0.1286 -0.9917
vn 0 0.1285 -0.9917
vn 0 0.1285 -0.9917
vn -0 0.1284 -0.9917
vn 0 0.1283 -0.9917
vn 0 0.1283 -0.9917
vn -0 0.1284 -0.9917
vn -0 0.1284 -0.9917
vn -0.0004 0.1285 -0.9917
vn 0.8719 -0.069 -0.4848
vn -0.0007 0.1273 -0.9919
vn 0.8719 -0.069 -0.4848
vn 0.7809 0 0.6247
vn -0.9949 0.0984 0.0201
vn -0.9999 0.016 0.0031
vn -0.9947 0.1032 0.0047
vn -0.9998 0.0191 0.0007
vn -0.9964 0.0842 -0.0075
vn -0.9953 0.09 0.0347
vn -0.9998 0.0194 0.0073
vn 0.9998 0.0178 -0.0016
vn 0.9998 0.0221 0.0008
vn 0.9964 0.0843 -0.0075
vn 0.9998 0.021 0.004
vn 0.9946 0.1033 0.0048
vn -0.9442 0.307 0.1188
vn -0.94 0.3342 0.0686
vn -0.9997 0.0201 0.012
vn 0.9998 0.0193 0.0072
vn 0.9997 0.0201 0.012
vn 0.9953 0.09 0.0347
vn 0.9991 0.0318 0.0273
vn 0.9948 0.0864 0.0537
vn -0.9958 0.0778 0.0479
vn -0.9492 0.2679 0.1654
vn -0.9963 0.0629 0.0594
vn 0.9994 0.0202 0.0274
vn 0.9963 0.0608 0.0606
vn 0.9648 0.1901 0.1815
vn 0.9611 0.2345 0.1458
vn -0.487 0.8437 -0.2258
vn -0.9257 0.3673 -0.0903
vn -0.8504 0.501 -0.161
vn 0.9993 0.0146 0.0353
vn 0.9967 0.0431 0.0694
vn 0.9678 0.1377 0.2105
vn -0.9966 0.0454 0.0685
vn -0.9579 0.1581 0.2396
vn -0.9968 0.0262 0.0751
vn 0.3192 0.9213 -0.2222
vn -0.487 0.8437 -0.2258
vn 0 0.952 -0.3061
vn 0.9975 0.0217 0.0668
vn 0.9604 0.0913 0.2631
vn -0.9998 0.007 0.019
vn -0.9996 0.0013 0.0268
vn -0.9956 0.0047 0.094
vn -0.9967 -0.0185 0.079
vn -0.945 0.0162 0.3267
vn -0.9589 -0.0643 0.2765
vn 0.3192 0.9213 -0.2222
vn 0.6385 0.7326 -0.2356
vn 0.903 0.4163 -0.1062
vn -0.9564 -0.1128 0.2694
vn -0.9371 0.3488 0.0165
vn -0.9706 -0.1034 0.2174
vn -0.9965 -0.0324 0.0771
vn 0.9557 -0.1266 0.2656
vn 0.9558 -0.1267 0.2654
vn 0.4488 -0.3847 0.8066
vn -0.9977 -0.0294 0.0617
vn -0.9964 -0.0364 0.0763
vn 0.9473 -0.1381 0.2891
vn 0.626 -0.3362 0.7037
vn -0.9557 -0.1267 0.2657
vn -0.9964 -0.0364 0.0763
vn -0.5282 -0.3254 0.7843
vn -0.5982 -0.3442 0.7236
vn -0.9999 -0.0059 0.0123
vn -0.9999 -0.0069 0.0146
vn -0.4576 -0.1716 0.8724
vn -0.6259 -0.3357 0.7039
vn -0.9557 -0.1269 0.2656
vn -0.4278 0.0758 0.9007
vn 0.4407 -0.387 0.8099
vn -0 -0.431 0.9023
vn -0.5251 -0.3669 0.7679
vn -0.9604 0.0913 0.2632
vn 0.6372 -0.1443 0.7571
vn 0.5282 -0.3044 0.7927
vn -0.4576 -0.1716 0.8724
vn 0.6374 0.7675 -0.0683
vn 0.4899 0.8705 0.0462
vn -0.4861 0.8704 -0.0774
vn 0.5334 0.4198 0.7343
vn -0.5337 0.4605 0.7093
vn 0.4488 0.6294 0.6344
vn 0.5049 0.8028 0.3172
vn 0.5151 0.726 0.4557
vn -0.5048 0.7897 0.3486
vn 0.9443 0.307 0.1188
vn 0.5049 0.8028 0.3172
vn 0.5982 -0.3441 0.7237
vn 0.4488 -0.3847 0.8066
vn -0.5982 -0.3442 0.7236
vn -0.5048 0.7897 0.3486
vn -0.5149 0.7051 0.4876
vn -0.496 0.8425 0.2102
vn 0.4961 0.8494 0.18
vn -0.4898 0.8686 0.0753
vn -0.4898 0.8686 0.0753
vn -0.6259 -0.3357 0.7039
vn -0.4486 -0.3853 0.8064
vn -0.9568 0.2895 -0.0258
vn -0.4861 0.8704 -0.0774
vn -0.5282 -0.3254 0.7843
vn 0.5282 -0.3044 0.7927
vn 0.9565 -0.1128 0.2692
vn 0.5982 -0.3441 0.7237
vn 0.9569 0.2891 -0.0258
vn 0.6374 0.7675 -0.0683
vn -0.9922 0.1209 -0.0291
vn -0.9865 0.1556 -0.0501
vn 0.9949 0.0984 0.02
vn 0.94 0.3341 0.0686
vn 0.5151 0.726 0.4557
vn 0.4488 0.6294 0.6344
vn 0.5334 0.4198 0.7343
vn -0.9998 0.0163 0.0149
vn -0.9998 0.0099 0.0145
vn 0.945 0.0162 0.3266
vn 0.5383 0.2218 0.813
vn 0.9956 0.0047 0.094
vn 0.9589 -0.0643 0.2764
vn 0.9573 0.2752 -0.0885
vn 0.9915 0.1257 -0.0321
vn 0.9965 -0.0324 0.0772
vn 0.9706 -0.1034 0.2175
vn -0.4278 0.0758 0.9007
vn 0.4278 0.0146 0.9038
vn 0.9996 0.0013 0.0268
vn 0.9967 -0.0185 0.079
vn -0.9999 -0.0042 0.0168
vn -1 -0.0035 0.0083
vn 0.626 -0.3362 0.7037
vn 0.9964 -0.0364 0.0763
vn 0.9964 -0.0364 0.0763
vn -1 -0.0026 0.0056
vn -0.9999 -0.0047 0.0099
vn 0.9999 -0.0042 0.0167
vn 0.9999 -0.0042 0.0098
vn 0.9977 -0.0294 0.0617
vn 0.9371 0.3488 0.0165
vn 0.9996 0.0268 -0.0069
vn -0.9997 0.0242 -0.0062
vn -0.5337 0.4605 0.7093
vn -0.5149 0.7051 0.4876
vn -0.9539 0.2178 0.2063
vn 0.9964 0.0803 -0.0258
vn -0.9997 0.0214 -0.0069
vn -0.999 0.042 -0.0135
vn -0.9363 0.3344 -0.1075
vn -1 0.0007 -0.0002
vn -0.5386 0.2706 0.7979
vn 0.5383 0.2218 0.813
vn -0.4864 0.8318 -0.2674
vn 0.6372 -0.1443 0.7571
vn 0.6385 0.7326 -0.2356
vn -0.6252 0.5468 0.5569
vn 0.8504 0.5008 -0.161
vn -0.9965 0.08 -0.0258
vn 0.9866 0.1554 -0.05
vn 0.4899 0.8705 0.0462
vn 0.4961 0.8494 0.18
vn 0.9998 0.0211 -0.0068
vn 0.999 0.0423 -0.0136
vn 1 0 0
vn 0.9999 -0.0044 0.0093
vn 1 0 0
vn 1 0 0
vn 0.9998 -0.0089 0.0186
vn 0.9998 -0.0077 0.0163
vn 0.9993 -0.0163 0.0342
vn 0.9957 -0.0399 0.0835
vn 0.9961 -0.0378 0.0793
vn 0.9999 -0.0066 0.0138
vn 0.9901 -0.0605 0.1268
vn 0.9522 -0.1315 0.2756
vn -0.4486 -0.3853 0.8064
vn -0.9339 -0.1541 0.3225
vn 0.8841 -0.2013 0.4217
vn 0.4407 -0.387 0.8099
vn 0.4981 -0.3738 0.7824
vn 0.5334 0.4198 0.7343
vn 0.4981 -0.3738 0.7824
vn -0.5386 0.2706 0.7979
vn -0.8839 -0.2017 0.4219
vn -0.5251 -0.3669 0.7679
vn -0.5249 -0.3671 0.7679
vn -0.995 -0.0432 0.0905
vn -0.9652 -0.1127 0.2361
vn -0.9896 -0.0618 0.1299
vn -0.9952 -0.0423 0.0887
vn -0.9993 -0.0163 0.0343
vn 0.9999 -0.0051 0.0108
vn -0.9998 -0.0077 0.0164
vn -0.496 0.8425 0.2102
vn -1 0 0.0002
vn -1 0 0.0002
vn -0.9999 0.0151 -0.0014
vn -0.4864 0.8318 -0.2674
vn -0.5249 -0.3671 0.7679
vn -0.6252 0.5468 0.5569
vn 0.4278 0.0146 0.9038
vn 1 0 0
vn 1 0 0
vn 1 0 0
vn 1 0 0
vn 1 0 0
vn 1 0 0
vn 1 0 0
vn 1 0 0
vn 1 0 0
vn 1 0 0
vn 1 0 0
vn 1 0 0
vn 1 0 0
vn -0.5337 0.4605 0.7093
vn -1 0.0005 -0.0001
vn -1 0.0006 -0.0002
vn -1 0.0003 0.0001
vn -1 0.0004 -0
vn -1 0.0004 -0.0001
vn -1 0.0002 0.0002
vn -1 -0.0001 0.0002
vn -1 0 0.0002
vn -1 -0.0001 0.0002
vn -1 -0.0001 0.0002
vn -1 -0.0001 0.0002
vn -1 -0.0001 0.0002
vn -1 -0.0002 0.0003
vn -1 -0.0001 0.0002
vn -1 -0.0001 0.0002
vn -1 0.0004 -0
vn -1 -0.0001 0.0002
vn -1 0.0002 0.0001
vn -1 0.0002 0.0001
vn -1 -0.0001 0.0002
vn -1 -0.0001 0.0002
vn -1 -0.0001 0.0002
vn -1 0.0001 0.0002
vn -1 0.0001 0.0002
vn -1 -0.0001 0.0002
vn -1 0 0.0002
vn -1 0 0.0002
vn -1 -0.0001 0.0002
vn -1 -0.0001 0.0002
f 324/324/324 323/323/323 322/322/322
f 3/3/3 2/2/2 1/1/1
f 4/4/4 3/3/3 1/1/1
f 5/5/5 4/4/4 1/1/1
f 6/6/6 5/5/5 1/1/1
f 7/7/7 6/6/6 1/1/1
f 8/8/8 7/7/7 1/1/1
f 9/9/9 8/8/8 1/1/1
f 10/10/10 9/9/9 1/1/1
f 11/11/11 10/10/10 1/1/1
f 12/12/12 11/11/11 1/1/1
f 13/13/13 12/12/12 1/1/1
f 14/14/14 13/13/13 1/1/1
f 15/15/15 14/14/14 1/1/1
f 16/16/16 15/15/15 1/1/1
f 17/17/17 16/16/16 1/1/1
f 18/18/18 17/17/17 1/1/1
f 19/19/19 18/18/18 1/1/1
f 20/20/20 19/19/19 1/1/1
f 21/21/21 20/20/20 1/1/1
f 22/22/22 21/21/21 1/1/1
f 23/23/23 22/22/22 1/1/1
f 24/24/24 23/23/23 1/1/1
f 25/25/25 24/24/24 1/1/1
f 26/26/26 25/25/25 1/1/1
f 27/27/27 26/26/26 1/1/1
f 28/28/28 27/27/27 1/1/1
f 29/29/29 28/28/28 1/1/1
f 30/30/30 29/29/29 1/1/1
f 31/31/31 30/30/30 1/1/1
f 32/32/32 31/31/31 1/1/1
f 33/33/33 32/32/32 1/1/1
f 34/34/34 33/33/33 1/1/1
f 35/35/35 34/34/34 1/1/1
f 36/36/36 35/35/35 1/1/1
f 37/37/37 36/36/36 1/1/1
f 38/38/38 37/37/37 1/1/1
f 39/39/39 38/38/38 1/1/1
f 40/40/40 39/39/39 1/1/1
f 41/41/41 40/40/40 1/1/1
f 42/42/42 41/41/41 1/1/1
f 43/43/43 42/42/42 1/1/1
f 44/44/44 43/43/43 1/1/1
f 45/45/45 44/44/44 1/1/1
f 46/46/46 45/45/45 1/1/1
f 47/47/47 46/46/46 1/1/1
f 48/48/48 47/47/47 1/1/1
f 49/49/49 48/48/48 1/1/1
f 50/50/50 49/49/49 1/1/1
f 51/51/51 50/50/50 1/1/1
f 52/52/52 51/51/51 1/1/1
f 53/53/53 52/52/52 1/1/1
f 54/54/54 53/53/53 1/1/1
f 55/55/55 54/54/54 1/1/1
f 56/56/56 55/55/55 1/1/1
f 57/57/57 56/56/56 1/1/1
f 58/58/58 57/57/57 1/1/1
f 59/59/59 58/58/58 1/1/1
f 60/60/60 59/59/59 1/1/1
f 61/61/61 60/60/60 1/1/1
f 62/62/62 61/61/61 1/1/1
f 63/63/63 62/62/62 1/1/1
f 64/64/64 63/63/63 1/1/1
f 65/65/65 64/64/64 1/1/1
f 66/66/66 65/65/65 1/1/1
f 67/67/67 66/66/66 1/1/1
f 68/68/68 67/67/67 1/1/1
f 69/69/69 68/68/68 1/1/1
f 70/70/70 69/69/69 1/1/1
f 71/71/71 70/70/70 1/1/1
f 72/72/72 71/71/71 1/1/1
f 73/73/73 72/72/72 1/1/1
f 74/74/74 73/73/73 1/1/1
f 75/75/75 74/74/74 1/1/1
f 76/76/76 75/75/75 1/1/1
f 77/77/77 76/76/76 1/1/1
f 78/78/78 77/77/77 1/1/1
f 81/81/81 80/80/80 79/79/79
f 93/93/93 94/94/94 80/80/80
f 89/89/89 93/93/93 80/80/80
f 94/94/94 95/95/95 80/80/80
f 82/82/82 89/89/89 80/80/80
f 89/89/89 82/82/82 85/85/85
f 83/83/83 85/85/85 82/82/82
f 84/84/84 83/83/83 82/82/82
f 245/245/245 84/84/84 82/82/82
f 245/245/245 82/82/82 81/81/81
f 81/81/81 82/82/82 80/80/80
f 143/143/143 245/245/245 81/81/81
f 80/80/80 95/95/95 100/100/100
f 100/100/100 79/79/79 80/80/80
f 95/95/95 101/101/101 100/100/100
f 100/100/100 101/101/101 285/285/285
f 100/100/100 285/285/285 286/286/286
f 286/286/286 282/282/282 100/100/100
f 143/143/143 81/81/81 145/145/145
f 145/145/145 81/81/81 79/79/79
f 145/145/145 144/144/144 143/143/143
f 239/239/239 100/100/100 282/282/282
f 100/100/100 239/239/239 79/79/79
f 282/282/282 283/283/283 239/239/239
f 284/284/284 239/239/239 283/283/283
f 239/239/239 284/284/284 288/288/288
f 281/281/281 239/239/239 288/288/288
f 145/145/145 79/79/79 237/237/237
f 239/239/239 237/237/237 79/79/79
f 250/250/250 239/239/239 281/281/281
f 239/239/239 250/250/250 237/237/237
f 281/281/281 301/301/301 250/250/250
f 301/301/301 302/302/302 250/250/250
f 302/302/302 303/303/303 250/250/250
f 287/287/287 250/250/250 303/303/303
f 237/237/237 178/178/178 145/145/145
f 145/145/145 178/178/178 144/144/144
f 250/250/250 234/234/234 237/237/237
f 237/237/237 234/234/234 178/178/178
f 233/233/233 250/250/250 287/287/287
f 250/250/250 233/233/233 234/234/234
f 233/233/233 287/287/287 305/305/305
f 233/233/233 305/305/305 306/306/306
f 306/306/306 307/307/307 233/233/233
f 308/308/308 233/233/233 307/307/307
f 233/233/233 308/308/308 290/290/290
f 291/291/291 233/233/233 290/290/290
f 233/233/233 291/291/291 300/300/300
f 289/289/289 233/233/233 300/300/300
f 179/179/179 144/144/144 178/178/178
f 179/179/179 236/236/236 144/144/144
f 235/235/235 233/233/233 289/289/289
f 235/235/235 234/234/234 233/233/233
f 235/235/235 289/289/289 294/294/294
f 295/295/295 235/235/235 294/294/294
f 235/235/235 295/295/295 299/299/299
f 299/299/299 254/254/254 235/235/235
f 224/224/224 178/178/178 234/234/234
f 224/224/224 179/179/179 178/178/178
f 235/235/235 224/224/224 234/234/234
f 254/254/254 253/253/253 235/235/235
f 219/219/219 236/236/236 179/179/179
f 219/219/219 220/220/220 236/236/236
f 221/221/221 179/179/179 224/224/224
f 221/221/221 219/219/219 179/179/179
f 91/91/91 220/220/220 219/219/219
f 91/91/91 273/273/273 220/220/220
f 92/92/92 273/273/273 91/91/91
f 157/157/157 219/219/219 221/221/221
f 157/157/157 91/91/91 219/219/219
f 92/92/92 91/91/91 90/90/90
f 157/157/157 90/90/90 91/91/91
f 265/265/265 92/92/92 90/90/90
f 224/224/224 222/222/222 221/221/221
f 224/224/224 235/235/235 222/222/222
f 158/158/158 157/157/157 221/221/221
f 158/158/158 221/221/221 222/222/222
f 157/157/157 125/125/125 90/90/90
f 158/158/158 125/125/125 157/157/157
f 265/265/265 90/90/90 126/126/126
f 126/126/126 90/90/90 125/125/125
f 227/227/227 265/265/265 126/126/126
f 158/158/158 153/153/153 125/125/125
f 153/153/153 158/158/158 222/222/222
f 126/126/126 125/125/125 124/124/124
f 153/153/153 124/124/124 125/125/125
f 227/227/227 126/126/126 114/114/114
f 114/114/114 126/126/126 124/124/124
f 115/115/115 227/227/227 114/114/114
f 152/152/152 153/153/153 222/222/222
f 153/153/153 152/152/152 124/124/124
f 222/222/222 235/235/235 152/152/152
f 114/114/114 124/124/124 151/151/151
f 152/152/152 151/151/151 124/124/124
f 115/115/115 114/114/114 113/113/113
f 113/113/113 114/114/114 151/151/151
f 189/189/189 115/115/115 113/113/113
f 152/152/152 241/241/241 151/151/151
f 241/241/241 152/152/152 235/235/235
f 113/113/113 151/151/151 199/199/199
f 241/241/241 199/199/199 151/151/151
f 189/189/189 113/113/113 188/188/188
f 199/199/199 188/188/188 113/113/113
f 191/191/191 189/189/189 188/188/188
f 211/211/211 241/241/241 235/235/235
f 241/241/241 211/211/211 199/199/199
f 253/253/253 211/211/211 235/235/235
f 199/199/199 210/210/210 188/188/188
f 211/211/211 210/210/210 199/199/199
f 191/191/191 188/188/188 190/190/190
f 210/210/210 190/190/190 188/188/188
f 196/196/196 191/191/191 190/190/190
f 214/214/214 211/211/211 253/253/253
f 211/211/211 214/214/214 210/210/210
f 293/293/293 214/214/214 253/253/253
f 210/210/210 215/215/215 190/190/190
f 215/215/215 210/210/210 214/214/214
f 196/196/196 190/190/190 195/195/195
f 195/195/195 190/190/190 215/215/215
f 183/183/183 196/196/196 195/195/195
f 213/213/213 214/214/214 293/293/293
f 215/215/215 214/214/214 213/213/213
f 293/293/293 309/309/309 213/213/213
f 309/309/309 304/304/304 213/213/213
f 304/304/304 292/292/292 213/213/213
f 195/195/195 215/215/215 205/205/205
f 205/205/205 215/215/215 213/213/213
f 269/269/269 213/213/213 292/292/292
f 205/205/205 213/213/213 269/269/269
f 292/292/292 298/298/298 269/269/269
f 298/298/298 296/296/296 269/269/269
f 182/182/182 195/195/195 205/205/205
f 183/183/183 195/195/195 182/182/182
f 147/147/147 205/205/205 269/269/269
f 182/182/182 205/205/205 147/147/147
f 270/270/270 269/269/269 296/296/296
f 147/147/147 269/269/269 270/270/270
f 296/296/296 297/297/297 270/270/270
f 297/297/297 109/109/109 270/270/270
f 110/110/110 270/270/270 109/109/109
f 147/147/147 270/270/270 110/110/110
f 111/111/111 110/110/110 109/109/109
f 111/111/111 112/112/112 110/110/110
f 197/197/197 110/110/110 112/112/112
f 147/147/147 110/110/110 146/146/146
f 197/197/197 146/146/146 110/110/110
f 146/146/146 182/182/182 147/147/147
f 198/198/198 146/146/146 197/197/197
f 146/146/146 184/184/184 182/182/182
f 198/198/198 184/184/184 146/146/146
f 184/184/184 183/183/183 182/182/182
f 198/198/198 258/258/258 184/184/184
f 184/184/184 277/277/277 183/183/183
f 184/184/184 258/258/258 260/260/260
f 264/264/264 277/277/277 184/184/184
f 264/264/264 184/184/184 260/260/260
f 88/88/88 87/87/87 86/86/86
f 176/176/176 86/86/86 87/87/87
f 176/176/176 280/280/280 86/86/86
f 177/177/177 176/176/176 87/87/87
f 177/177/177 180/180/180 176/176/176
f 177/177/177 181/181/181 180/180/180
f 177/177/177 212/212/212 181/181/181
f 192/192/192 181/181/181 212/212/212
f 192/192/192 193/193/193 181/181/181
f 194/194/194 193/193/193 192/192/192
f 194/194/194 231/231/231 193/193/193
f 232/232/232 231/231/231 194/194/194
f 232/232/232 261/261/261 231/231/231
f 232/232/232 185/185/185 261/261/261
f 232/232/232 187/187/187 185/185/185
f 187/187/187 186/186/186 185/185/185
f 187/187/187 243/243/243 186/186/186
f 244/244/244 186/186/186 243/243/243
f 244/244/244 243/243/243 242/242/242
f 98/98/98 97/97/97 96/96/96
f 96/96/96 97/97/97 99/99/99
f 97/97/97 102/102/102 99/99/99
f 99/99/99 102/102/102 249/249/249
f 238/238/238 102/102/102 97/97/97
f 249/249/249 102/102/102 103/103/103
f 248/248/248 249/249/249 103/103/103
f 238/238/238 104/104/104 102/102/102
f 104/104/104 103/103/103 102/102/102
f 138/138/138 104/104/104 238/238/238
f 248/248/248 103/103/103 246/246/246
f 138/138/138 108/108/108 104/104/104
f 139/139/139 108/108/108 138/138/138
f 104/104/104 105/105/105 103/103/103
f 108/108/108 105/105/105 104/104/104
f 246/246/246 103/103/103 240/240/240
f 105/105/105 240/240/240 103/103/103
f 247/247/247 246/246/246 240/240/240
f 318/318/318 247/247/247 240/240/240
f 240/240/240 106/106/106 318/318/318
f 105/105/105 106/106/106 240/240/240
f 318/318/318 106/106/106 319/319/319
f 315/315/315 319/319/319 106/106/106
f 108/108/108 107/107/107 105/105/105
f 107/107/107 106/106/106 105/105/105
f 106/106/106 252/252/252 315/315/315
f 107/107/107 252/252/252 106/106/106
f 315/315/315 252/252/252 317/317/317
f 320/320/320 317/317/317 252/252/252
f 316/316/316 320/320/320 252/252/252
f 136/136/136 107/107/107 108/108/108
f 139/139/139 136/136/136 108/108/108
f 251/251/251 252/252/252 107/107/107
f 136/136/136 251/251/251 107/107/107
f 252/252/252 255/255/255 316/316/316
f 251/251/251 255/255/255 252/252/252
f 321/321/321 316/316/316 255/255/255
f 256/256/256 321/321/321 255/255/255
f 257/257/257 256/256/256 255/255/255
f 255/255/255 314/314/314 257/257/257
f 123/123/123 136/136/136 139/139/139
f 123/123/123 139/139/139 228/228/228
f 255/255/255 229/229/229 314/314/314
f 229/229/229 255/255/255 251/251/251
f 312/312/312 314/314/314 229/229/229
f 121/121/121 251/251/251 136/136/136
f 121/121/121 136/136/136 123/123/123
f 229/229/229 251/251/251 121/121/121
f 228/228/228 223/223/223 123/123/123
f 228/228/228 262/262/262 223/223/223
f 123/123/123 122/122/122 121/121/121
f 123/123/123 223/223/223 122/122/122
f 262/262/262 162/162/162 223/223/223
f 262/262/262 161/161/161 162/162/162
f 159/159/159 162/162/162 161/161/161
f 148/148/148 122/122/122 223/223/223
f 148/148/148 223/223/223 162/162/162
f 159/159/159 160/160/160 162/162/162
f 160/160/160 148/148/148 162/162/162
f 154/154/154 160/160/160 159/159/159
f 121/121/121 122/122/122 230/230/230
f 121/121/121 230/230/230 229/229/229
f 149/149/149 122/122/122 148/148/148
f 149/149/149 230/230/230 122/122/122
f 160/160/160 150/150/150 148/148/148
f 150/150/150 149/149/149 148/148/148
f 154/154/154 155/155/155 160/160/160
f 160/160/160 155/155/155 150/150/150
f 156/156/156 155/155/155 154/154/154
f 150/150/150 204/204/204 149/149/149
f 230/230/230 149/149/149 204/204/204
f 204/204/204 150/150/150 155/155/155
f 204/204/204 206/206/206 230/230/230
f 230/230/230 206/206/206 229/229/229
f 204/204/204 155/155/155 203/203/203
f 203/203/203 206/206/206 204/204/204
f 156/156/156 163/163/163 155/155/155
f 155/155/155 163/163/163 203/203/203
f 206/206/206 203/203/203 163/163/163
f 164/164/164 163/163/163 156/156/156
f 206/206/206 163/163/163 202/202/202
f 164/164/164 128/128/128 163/163/163
f 163/163/163 128/128/128 202/202/202
f 140/140/140 128/128/128 164/164/164
f 202/202/202 129/129/129 206/206/206
f 129/129/129 202/202/202 128/128/128
f 206/206/206 129/129/129 229/229/229
f 140/140/140 141/141/141 128/128/128
f 142/142/142 141/141/141 140/140/140
f 129/129/129 128/128/128 127/127/127
f 141/141/141 127/127/127 128/128/128
f 129/129/129 137/137/137 229/229/229
f 127/127/127 137/137/137 129/129/129
f 142/142/142 132/132/132 141/141/141
f 225/225/225 132/132/132 142/142/142
f 141/141/141 134/134/134 127/127/127
f 134/134/134 137/137/137 127/127/127
f 132/132/132 134/134/134 141/141/141
f 137/137/137 135/135/135 229/229/229
f 134/134/134 135/135/135 137/137/137
f 135/135/135 312/312/312 229/229/229
f 135/135/135 310/310/310 312/312/312
f 132/132/132 133/133/133 134/134/134
f 133/133/133 135/135/135 134/134/134
f 225/225/225 130/130/130 132/132/132
f 130/130/130 133/133/133 132/132/132
f 226/226/226 130/130/130 225/225/225
f 135/135/135 218/218/218 310/310/310
f 133/133/133 218/218/218 135/135/135
f 311/311/311 310/310/310 218/218/218
f 130/130/130 131/131/131 133/133/133
f 131/131/131 218/218/218 133/133/133
f 218/218/218 268/268/268 311/311/311
f 131/131/131 268/268/268 218/218/218
f 268/268/268 313/313/313 311/311/311
f 120/120/120 131/131/131 130/130/130
f 226/226/226 120/120/120 130/130/130
f 268/268/268 274/274/274 313/313/313
f 272/272/272 313/313/313 274/274/274
f 117/117/117 268/268/268 131/131/131
f 117/117/117 274/274/274 268/268/268
f 120/120/120 117/117/117 131/131/131
f 274/274/274 118/118/118 272/272/272
f 118/118/118 274/274/274 117/117/117
f 118/118/118 271/271/271 272/272/272
f 271/271/271 118/118/118 266/266/266
f 118/118/118 267/267/267 266/266/266
f 118/118/118 117/117/117 116/116/116
f 118/118/118 116/116/116 267/267/267
f 116/116/116 117/117/117 120/120/120
f 267/267/267 116/116/116 174/174/174
f 116/116/116 175/175/175 174/174/174
f 116/116/116 120/120/120 119/119/119
f 116/116/116 119/119/119 175/175/175
f 119/119/119 120/120/120 226/226/226
f 200/200/200 175/175/175 119/119/119
f 119/119/119 226/226/226 259/259/259
f 119/119/119 201/201/201 200/200/200
f 119/119/119 259/259/259 201/201/201
f 167/167/167 166/166/166 165/165/165
f 167/167/167 275/275/275 166/166/166
f 168/168/168 167/167/167 165/165/165
f 168/168/168 169/169/169 167/167/167
f 170/170/170 169/169/169 168/168/168
f 170/170/170 276/276/276 169/169/169
f 172/172/172 276/276/276 170/170/170
f 172/172/172 170/170/170 171/171/171
f 173/173/173 172/172/172 171/171/171
f 173/173/173 216/216/216 172/172/172
f 217/217/217 216/216/216 173/173/173
f 217/217/217 279/279/279 216/216/216
f 207/207/207 279/279/279 217/217/217
f 207/207/207 217/217/217 209/209/209
f 209/209/209 208/208/208 207/207/207
f 208/208/208 263/263/263 207/207/207
f 209/209/209 278/278/278 208/208/208
f 327/327/327 326/326/326 325/325/325
f 328/328/328 327/327/327 325/325/325
f 329/329/329 328/328/328 325/325/325
f 330/330/330 329/329/329 325/325/325
f 331/331/331 330/330/330 325/325/325
f 332/332/332 331/331/331 325/325/325
f 333/333/333 332/332/332 325/325/325
f 334/334/334 333/333/333 325/325/325
f 335/335/335 334/334/334 325/325/325
f 336/336/336 335/335/335 325/325/325
f 337/337/337 336/336/336 325/325/325
f 338/338/338 337/337/337 325/325/325
f 339/339/339 338/338/338 325/325/325
f 340/340/340 339/339/339 325/325/325
f 341/341/341 340/340/340 325/325/325
f 342/342/342 341/341/341 325/325/325
f 343/343/343 342/342/342 325/325/325
f 344/344/344 343/343/343 325/325/325
f 345/345/345 344/344/344 325/325/325
f 346/346/346 345/345/345 325/325/325
f 347/347/347 346/346/346 325/325/325
f 348/348/348 347/347/347 325/325/325
f 349/349/349 348/348/348 325/325/325
f 350/350/350 349/349/349 325/325/325
f 351/351/351 350/350/350 325/325/325
f 352/352/352 351/351/351 325/325/325
f 353/353/353 352/352/352 325/325/325
f 354/354/354 353/353/353 325/325/325
f 355/355/355 354/354/354 325/325/325
f 356/356/356 355/355/355 325/325/325
f 357/357/357 356/356/356 325/325/325
f 358/358/358 357/357/357 325/325/325
f 359/359/359 358/358/358 325/325/325
f 360/360/360 359/359/359 325/325/325
f 361/361/361 360/360/360 325/325/325
f 362/362/362 361/361/361 325/325/325
f 363/363/363 362/362/362 325/325/325
f 364/364/364 363/363/363 325/325/325
f 365/365/365 364/364/364 325/325/325
f 366/366/366 365/365/365 325/325/325
f 367/367/367 366/366/366 325/325/325
f 368/368/368 367/367/367 325/325/325
f 369/369/369 368/368/368 325/325/325
f 370/370/370 369/369/369 325/325/325
f 371/371/371 370/370/370 325/325/325
f 372/372/372 371/371/371 325/325/325
f 373/373/373 372/372/372 325/325/325
f 374/374/374 373/373/373 325/325/325
f 375/375/375 374/374/374 325/325/325
f 376/376/376 375/375/375 325/325/325
f 377/377/377 376/376/376 325/325/325
f 378/378/378 377/377/377 325/325/325
f 379/379/379 378/378/378 325/325/325
f 380/380/380 379/379/379 325/325/325
f 381/381/381 380/380/380 325/325/325
f 382/382/382 381/381/381 325/325/325
f 383/383/383 382/382/382 325/325/325
f 384/384/384 383/383/383 325/325/325
f 385/385/385 384/384/384 325/325/325
f 386/386/386 385/385/385 325/325/325
f 387/387/387 386/386/386 325/325/325
f 388/388/388 387/387/387 325/325/325
f 389/389/389 388/388/388 325/325/325
f 390/390/390 389/389/389 325/325/325
f 391/391/391 390/390/390 325/325/325
f 392/392/392 391/391/391 325/325/325
f 393/393/393 392/392/392 325/325/325
f 394/394/394 393/393/393 325/325/325
f 395/395/395 394/394/394 325/325/325
f 396/396/396 395/395/395 325/325/325
f 397/397/397 396/396/396 325/325/325
f 398/398/398 397/397/397 325/325/325
f 399/399/399 398/398/398 325/325/325
f 400/400/400 399/399/399 325/325/325
f 403/403/403 402/402/402 401/401/401
f 406/406/406 405/405/405 404/404/404
f 636/636/636 637/637/637 405/405/405
f 621/621/621 636/636/636 405/405/405
f 637/637/637 624/624/624 405/405/405
f 405/405/405 407/407/407 621/621/621
f 407/407/407 634/634/634 621/621/621
f 406/406/406 407/407/407 405/405/405
f 634/634/634 407/407/407 622/622/622
f 410/410/410 405/405/405 624/624/624
f 404/404/404 405/405/405 410/410/410
f 407/407/407 600/600/600 622/622/622
f 622/622/622 600/600/600 623/623/623
f 619/619/619 623/623/623 600/600/600
f 408/408/408 600/600/600 407/407/407
f 408/408/408 407/407/407 406/406/406
f 600/600/600 545/545/545 619/619/619
f 545/545/545 600/600/600 408/408/408
f 545/545/545 620/620/620 619/619/619
f 545/545/545 553/553/553 620/620/620
f 545/545/545 550/550/550 553/553/553
f 551/551/551 550/550/550 545/545/545
f 545/545/545 561/561/561 551/551/551
f 545/545/545 512/512/512 561/561/561
f 545/545/545 408/408/408 512/512/512
f 513/513/513 561/561/561 512/512/512
f 504/504/504 408/408/408 406/406/406
f 512/512/512 408/408/408 504/504/504
f 513/513/513 512/512/512 432/432/432
f 512/512/512 504/504/504 432/432/432
f 552/552/552 513/513/513 432/432/432
f 433/433/433 552/552/552 432/432/432
f 556/556/556 433/433/433 431/431/431
f 433/433/433 432/432/432 431/431/431
f 432/432/432 505/505/505 431/431/431
f 432/432/432 504/504/504 505/505/505
f 504/504/504 406/406/406 455/455/455
f 455/455/455 505/505/505 504/504/504
f 455/455/455 406/406/406 404/404/404
f 455/455/455 501/501/501 505/505/505
f 417/417/417 501/501/501 455/455/455
f 455/455/455 404/404/404 417/417/417
f 417/417/417 498/498/498 501/501/501
f 417/417/417 404/404/404 409/409/409
f 404/404/404 410/410/410 409/409/409
f 416/416/416 498/498/498 417/417/417
f 417/417/417 409/409/409 416/416/416
f 416/416/416 496/496/496 498/498/498
f 418/418/418 409/409/409 410/410/410
f 425/425/425 496/496/496 416/416/416
f 425/425/425 547/547/547 496/496/496
f 424/424/424 416/416/416 409/409/409
f 424/424/424 425/425/425 416/416/416
f 418/418/418 424/424/424 409/409/409
f 548/548/548 547/547/547 425/425/425
f 548/548/548 559/559/559 547/547/547
f 426/426/426 425/425/425 424/424/424
f 426/426/426 548/548/548 425/425/425
f 519/519/519 424/424/424 418/418/418
f 519/519/519 426/426/426 424/424/424
f 438/438/438 559/559/559 548/548/548
f 438/438/438 546/546/546 559/559/559
f 437/437/437 548/548/548 426/426/426
f 437/437/437 438/438/438 548/548/548
f 520/520/520 426/426/426 519/519/519
f 520/520/520 437/437/437 426/426/426
f 519/519/519 418/418/418 534/534/534
f 418/418/418 410/410/410 534/534/534
f 520/520/520 519/519/519 534/534/534
f 534/534/534 410/410/410 624/624/624
f 534/534/534 624/624/624 642/642/642
f 642/642/642 641/641/641 534/534/534
f 641/641/641 626/626/626 534/534/534
f 445/445/445 437/437/437 520/520/520
f 439/439/439 438/438/438 437/437/437
f 445/445/445 439/439/439 437/437/437
f 478/478/478 546/546/546 438/438/438
f 439/439/439 478/478/478 438/438/438
f 478/478/478 586/586/586 546/546/546
f 445/445/445 520/520/520 533/533/533
f 534/534/534 533/533/533 520/520/520
f 446/446/446 439/439/439 445/445/445
f 446/446/446 445/445/445 533/533/533
f 447/447/447 478/478/478 439/439/439
f 446/446/446 447/447/447 439/439/439
f 449/449/449 586/586/586 478/478/478
f 447/447/447 449/449/449 478/478/478
f 449/449/449 474/474/474 586/586/586
f 449/449/449 471/471/471 474/474/474
f 446/446/446 448/448/448 447/447/447
f 446/446/446 533/533/533 448/448/448
f 447/447/447 450/450/450 449/449/449
f 449/449/449 450/450/450 471/471/471
f 447/447/447 448/448/448 450/450/450
f 450/450/450 467/467/467 471/471/471
f 533/533/533 457/457/457 448/448/448
f 533/533/533 534/534/534 457/457/457
f 448/448/448 454/454/454 450/450/450
f 450/450/450 454/454/454 467/467/467
f 448/448/448 457/457/457 454/454/454
f 454/454/454 468/468/468 467/467/467
f 457/457/457 456/456/456 454/454/454
f 454/454/454 456/456/456 468/468/468
f 534/534/534 461/461/461 457/457/457
f 457/457/457 461/461/461 456/456/456
f 465/465/465 468/468/468 456/456/456
f 465/465/465 472/472/472 468/468/468
f 462/462/462 456/456/456 461/461/461
f 462/462/462 465/465/465 456/456/456
f 473/473/473 472/472/472 465/465/465
f 473/473/473 579/579/579 472/472/472
f 466/466/466 465/465/465 462/462/462
f 466/466/466 473/473/473 465/465/465
f 580/580/580 579/579/579 473/473/473
f 580/580/580 588/588/588 579/579/579
f 589/589/589 588/588/588 587/587/587
f 588/588/588 580/580/580 587/587/587
f 587/587/587 580/580/580 591/591/591
f 590/590/590 580/580/580 473/473/473
f 591/591/591 580/580/580 590/590/590
f 590/590/590 473/473/473 466/466/466
f 592/592/592 591/591/591 590/590/590
f 592/592/592 590/590/590 593/593/593
f 593/593/593 590/590/590 594/594/594
f 594/594/594 590/590/590 470/470/470
f 470/470/470 590/590/590 466/466/466
f 596/596/596 594/594/594 470/470/470
f 631/631/631 596/596/596 470/470/470
f 633/633/633 631/631/631 470/470/470
f 632/632/632 633/633/633 470/470/470
f 628/628/628 632/632/632 470/470/470
f 470/470/470 466/466/466 469/469/469
f 470/470/470 469/469/469 628/628/628
f 469/469/469 466/466/466 462/462/462
f 628/628/628 469/469/469 630/630/630
f 630/630/630 469/469/469 635/635/635
f 629/629/629 635/635/635 469/469/469
f 469/469/469 462/462/462 539/539/539
f 469/469/469 539/539/539 629/629/629
f 539/539/539 462/462/462 461/461/461
f 629/629/629 539/539/539 638/638/638
f 638/638/638 539/539/539 639/639/639
f 640/640/640 639/639/639 539/539/539
f 640/640/640 539/539/539 627/627/627
f 539/539/539 625/625/625 627/627/627
f 539/539/539 461/461/461 538/538/538
f 539/539/539 538/538/538 625/625/625
f 534/534/534 538/538/538 461/461/461
f 625/625/625 538/538/538 643/643/643
f 538/538/538 534/534/534 626/626/626
f 647/647/647 643/643/643 538/538/538
f 626/626/626 645/645/645 538/538/538
f 647/647/647 538/538/538 646/646/646
f 645/645/645 644/644/644 538/538/538
f 598/598/598 646/646/646 538/538/538
f 644/644/644 599/599/599 538/538/538
f 599/599/599 598/598/598 538/538/538
f 413/413/413 412/412/412 411/411/411
f 411/411/411 412/412/412 606/606/606
f 606/606/606 605/605/605 411/411/411
f 412/412/412 607/607/607 606/606/606
f 544/544/544 411/411/411 605/605/605
f 544/544/544 413/413/413 411/411/411
f 567/567/567 544/544/544 605/605/605
f 565/565/565 544/544/544 567/567/567
f 566/566/566 544/544/544 565/565/565
f 544/544/544 566/566/566 549/549/549
f 544/544/544 549/549/549 526/526/526
f 544/544/544 526/526/526 413/413/413
f 562/562/562 526/526/526 549/549/549
f 526/526/526 562/562/562 525/525/525
f 412/412/412 414/414/414 607/607/607
f 608/608/608 607/607/607 414/414/414
f 413/413/413 415/415/415 412/412/412
f 415/415/415 414/414/414 412/412/412
f 526/526/526 510/510/510 413/413/413
f 510/510/510 415/415/415 413/413/413
f 526/526/526 525/525/525 453/453/453
f 526/526/526 453/453/453 510/510/510
f 525/525/525 560/560/560 453/453/453
f 453/453/453 560/560/560 452/452/452
f 453/453/453 452/452/452 451/451/451
f 453/453/453 451/451/451 511/511/511
f 453/453/453 511/511/511 510/510/510
f 511/511/511 543/543/543 510/510/510
f 510/510/510 543/543/543 415/415/415
f 511/511/511 563/563/563 543/543/543
f 415/415/415 514/514/514 414/414/414
f 543/543/543 514/514/514 415/415/415
f 563/563/563 515/515/515 543/543/543
f 543/543/543 515/515/515 514/514/514
f 563/563/563 564/564/564 515/515/515
f 514/514/514 419/419/419 414/414/414
f 414/414/414 419/419/419 608/608/608
f 515/515/515 421/421/421 514/514/514
f 514/514/514 421/421/421 419/419/419
f 564/564/564 491/491/491 515/515/515
f 515/515/515 491/491/491 421/421/421
f 564/564/564 492/492/492 491/491/491
f 421/421/421 420/420/420 419/419/419
f 492/492/492 430/430/430 491/491/491
f 492/492/492 516/516/516 430/430/430
f 491/491/491 423/423/423 421/421/421
f 421/421/421 423/423/423 420/420/420
f 491/491/491 430/430/430 423/423/423
f 541/541/541 608/608/608 419/419/419
f 419/419/419 420/420/420 541/541/541
f 608/608/608 541/541/541 569/569/569
f 420/420/420 423/423/423 422/422/422
f 430/430/430 422/422/422 423/423/423
f 420/420/420 422/422/422 541/541/541
f 516/516/516 429/429/429 430/430/430
f 516/516/516 517/517/517 429/429/429
f 430/430/430 428/428/428 422/422/422
f 430/430/430 429/429/429 428/428/428
f 422/422/422 428/428/428 427/427/427
f 429/429/429 427/427/427 428/428/428
f 422/422/422 427/427/427 541/541/541
f 517/517/517 436/436/436 429/429/429
f 517/517/517 518/518/518 436/436/436
f 429/429/429 435/435/435 427/427/427
f 429/429/429 436/436/436 435/435/435
f 427/427/427 435/435/435 434/434/434
f 436/436/436 434/434/434 435/435/435
f 518/518/518 444/444/444 436/436/436
f 518/518/518 522/522/522 444/444/444
f 436/436/436 443/443/443 434/434/434
f 436/436/436 444/444/444 443/443/443
f 427/427/427 434/434/434 540/540/540
f 540/540/540 541/541/541 427/427/427
f 443/443/443 531/531/531 434/434/434
f 434/434/434 531/531/531 540/540/540
f 444/444/444 523/523/523 443/443/443
f 443/443/443 523/523/523 531/531/531
f 522/522/522 521/521/521 444/444/444
f 444/444/444 521/521/521 523/523/523
f 522/522/522 604/604/604 521/521/521
f 521/521/521 604/604/604 557/557/557
f 532/532/532 531/531/531 523/523/523
f 532/532/532 540/540/540 531/531/531
f 524/524/524 523/523/523 521/521/521
f 521/521/521 557/557/557 524/524/524
f 524/524/524 532/532/532 523/523/523
f 524/524/524 557/557/557 507/507/507
f 527/527/527 540/540/540 532/532/532
f 527/527/527 541/541/541 540/540/540
f 508/508/508 532/532/532 524/524/524
f 524/524/524 507/507/507 508/508/508
f 508/508/508 527/527/527 532/532/532
f 509/509/509 508/508/508 507/507/507
f 528/528/528 527/527/527 508/508/508
f 509/509/509 528/528/528 508/508/508
f 542/542/542 541/541/541 527/527/527
f 528/528/528 542/542/542 527/527/527
f 509/509/509 458/458/458 528/528/528
f 509/509/509 460/460/460 458/458/458
f 528/528/528 536/536/536 542/542/542
f 528/528/528 458/458/458 536/536/536
f 542/542/542 568/568/568 541/541/541
f 541/541/541 568/568/568 569/569/569
f 570/570/570 569/569/569 568/568/568
f 568/568/568 617/617/617 570/570/570
f 617/617/617 568/568/568 609/609/609
f 542/542/542 595/595/595 568/568/568
f 568/568/568 595/595/595 609/609/609
f 542/542/542 536/536/536 595/595/595
f 615/615/615 609/609/609 595/595/595
f 616/616/616 615/615/615 595/595/595
f 614/614/614 616/616/616 595/595/595
f 610/610/610 614/614/614 595/595/595
f 595/595/595 576/576/576 610/610/610
f 536/536/536 576/576/576 595/595/595
f 613/613/613 610/610/610 576/576/576
f 611/611/611 613/613/613 576/576/576
f 536/536/536 537/537/537 576/576/576
f 458/458/458 537/537/537 536/536/536
f 576/576/576 571/571/571 611/611/611
f 537/537/537 571/571/571 576/576/576
f 612/612/612 611/611/611 571/571/571
f 571/571/571 572/572/572 612/612/612
f 573/573/573 572/572/572 571/571/571
f 458/458/458 459/459/459 537/537/537
f 460/460/460 459/459/459 458/458/458
f 460/460/460 464/464/464 459/459/459
f 537/537/537 574/574/574 571/571/571
f 574/574/574 573/573/573 571/571/571
f 459/459/459 574/574/574 537/537/537
f 575/575/575 573/573/573 574/574/574
f 577/577/577 575/575/575 574/574/574
f 464/464/464 463/463/463 459/459/459
f 459/459/459 463/463/463 574/574/574
f 463/463/463 577/577/577 574/574/574
f 578/578/578 577/577/577 463/463/463
f 464/464/464 582/582/582 463/463/463
f 578/578/578 463/463/463 581/581/581
f 463/463/463 582/582/582 581/581/581
f 581/581/581 582/582/582 583/583/583
f 442/442/442 441/441/441 440/440/440
f 442/442/442 601/601/601 441/441/441
f 558/558/558 442/442/442 440/440/440
f 440/440/440 441/441/441 484/484/484
f 440/440/440 484/484/484 482/482/482
f 484/484/484 483/483/483 482/482/482
f 484/484/484 500/500/500 483/483/483
f 500/500/500 499/499/499 483/483/483
f 500/500/500 597/597/597 499/499/499
f 597/597/597 488/488/488 499/499/499
f 597/597/597 490/490/490 488/488/488
f 490/490/490 489/489/489 488/488/488
f 490/490/490 497/497/497 489/489/489
f 497/497/497 487/487/487 489/489/489
f 497/497/497 603/603/603 487/487/487
f 487/487/487 603/603/603 486/486/486
f 487/487/487 486/486/486 485/485/485
f 477/477/477 476/476/476 475/475/475
f 477/477/477 602/602/602 476/476/476
f 585/585/585 475/475/475 476/476/476
f 503/503/503 477/477/477 475/475/475
f 503/503/503 475/475/475 535/535/535
f 503/503/503 535/535/535 494/494/494
f 503/503/503 494/494/494 502/502/502
f 495/495/495 502/502/502 494/494/494
f 495/495/495 494/494/494 493/493/493
f 506/506/506 495/495/495 493/493/493
f 506/506/506 493/493/493 480/480/480
f 481/481/481 506/506/506 480/480/480
f 481/481/481 480/480/480 479/479/479
f 481/481/481 479/479/479 530/530/530
f 481/481/481 530/530/530 529/529/529
f 529/529/529 530/530/530 555/555/555
f 529/529/529 555/555/555 554/554/554
f 584/584/584 554/554/554 555/555/555
f 584/584/584 618/618/618 554/554/554
