# VPXTOOL table OBJ file
# VPXTOOL OBJ file
# numVerts: 188 numFaces: 348
o BM_Bmp2Top
v -18.332645 -68.60857 -61.684017
v -17.873297 -67.1987 -61.683643
v -1.3646123 -71.18622 -61.684017
v -1.2621056 -69.72324 -61.683643
v -1.3646123 -71.18622 -65.36339
v -33.352898 -60.78415 -61.683643
v 15.769473 -69.60431 -61.684017
v -18.332645 -68.60857 -65.36339
v -34.145264 -62.057076 -61.684017
v 15.769473 -69.60431 -65.36339
v 15.512019 -68.17535 -61.683643
v -34.145264 -62.057076 -65.36339
v -46.814266 -50.882988 -61.683643
v -47.89659 -51.94378 -61.684017
v 32.0521 -63.92213 -61.684017
v -1.2270855 -66.007935 -76.184395
v -16.957314 -63.616016 -76.184395
v 32.0521 -63.92213 -65.36339
v -47.89659 -51.94378 -65.36339
v 31.452976 -62.61309 -61.683643
v 14.65758 -64.54396 -76.184395
v -31.616081 -57.54115 -76.184395
v -57.500053 -38.090763 -61.683643
v -58.812943 -38.876915 -61.684017
v 46.50195 -54.451645 -61.684017
v 29.752462 -59.276226 -76.184395
v 46.50195 -54.451645 -65.36339
v -58.812943 -38.876915 -65.36339
v 45.599762 -53.341713 -61.683514
v -44.36357 -48.164196 -76.184395
v -64.81886 -23.15686 -61.683643
v -66.28991 -23.621881 -61.684017
v -0.49304277 -41.275787 -80.43288
v 43.144817 -50.491623 -76.184395
v 58.244545 -41.750637 -61.684017
v -19.45556 -35.99259 -80.43288
v -54.48175 -36.048912 -76.184395
v 58.244545 -41.750637 -65.36339
v -66.28991 -23.621881 -65.36339
v 57.09617 -40.907394 -61.683514
v 9.4187765 -40.362312 -80.43288
v -27.409895 -30.141453 -80.43288
v -10.30858 -39.783215 -80.43288
v -68.37198 -6.9408627 -61.683643
v -69.920044 -7.0568147 -61.684017
v 54.022804 -38.71116 -76.184395
v 18.837511 -37.07558 -80.43288
v -33.723564 -22.58152 -80.43288
v -61.4118 -21.905355 -76.184395
v 66.58254 -26.580967 -61.684017
v 66.58254 -26.580967 -65.36339
v -69.920044 -7.0568147 -65.36339
v -10.30858 -39.783215 -85.451775
v 65.25934 -26.05587 -61.683514
v -0.49304277 -41.275787 -85.451775
v -19.45556 -35.99259 -85.451775
v 9.4187765 -40.362312 -85.451775
v -38.04778 -13.756056 -80.43288
v 27.193949 -31.594381 -80.43288
v 18.837511 -37.07558 -85.451775
v 33.64253 -24.659483 -80.43264
v 61.750576 -24.645126 -76.184135
v -27.409895 -30.141453 -85.451775
v -67.97382 9.633148 -61.683643
v -69.51362 9.874218 -61.684017
v -64.77963 -6.548615 -76.184395
v -33.723564 -22.58152 -85.451775
v 69.601715 -9.679971 -61.683514
v 71.018105 -9.85423 -65.36339
v 23.779589 -14.368502 -85.451775
v 23.841831 -17.01739 -85.451775
v 27.193949 -31.594381 -85.451775
v -69.51362 9.874218 -65.36339
v -40.149345 -4.1737056 -80.43288
v 71.018105 -9.85423 -61.684017
v -38.04778 -13.756056 -85.451775
v 33.64253 -24.659483 -85.451775
v 25.222317 -19.284187 -85.451775
v -23.600893 11.578816 -85.451775
v -63.66623 25.630163 -61.683643
v -64.411736 9.1485815 -76.184395
v 27.33508 -20.539667 -80.75426
v 27.33508 -20.539667 -85.451775
v 38.97666 -14.947487 -80.43264
v -65.11337 26.215994 -61.684017
v -25.865461 10.204183 -85.451775
v 25.222317 -19.284187 -80.75426
v 23.841831 -17.01739 -80.75426
v -39.91975 5.6213336 -80.43288
v 32.157383 -11.7212715 -80.75426
v 25.052876 -12.043948 -80.75426
v 65.87034 -9.14074 -76.184395
v 69.85751 7.243883 -61.683514
v -40.149345 -4.1737056 -85.451775
v 23.779589 -14.368502 -80.75426
v -65.11337 26.215994 -65.36339
v 29.971653 -10.611891 -80.75426
v 71.27977 7.4324975 -65.36339
v 27.317122 -10.6701975 -80.75426
v 38.97666 -14.947487 -85.451775
v 71.27977 7.4324975 -61.684017
v 25.052876 -12.043948 -85.451775
v -39.91975 5.6213336 -85.451775
v 27.317122 -10.6701975 -85.451775
v 32.157383 -11.7212715 -85.451775
v 41.375523 -5.7899604 -80.43264
v 29.971653 -10.611891 -85.451775
v 41.375523 -5.7899604 -85.451775
v -37.552776 14.556012 -80.43288
v -60.340088 24.300917 -76.184395
v -56.980865 41.056583 -61.684017
v -28.520298 10.145433 -85.451775
v -22.327806 13.903259 -85.451775
v 41.532207 4.209264 -80.43288
v 41.532207 4.209264 -85.451775
v 66.121925 6.8843226 -76.184395
v 66.01416 23.700949 -61.683643
v -55.70522 40.158016 -61.683643
v -25.865461 10.204183 -80.72888
v -28.520298 10.145433 -80.72888
v -23.600893 11.578816 -80.72888
v -22.327806 13.903259 -80.72888
v -37.552776 14.556012 -85.451775
v 67.35459 24.242609 -65.36339
v -56.980865 41.056583 -65.36339
v -36.05965 13.838326 -80.4983
v -36.05965 13.838326 -85.451775
v -23.764881 18.82535 -80.72888
v -30.774908 23.114014 -80.5051
v 34.717968 22.801718 -85.451775
v -52.798534 38.05675 -76.184395
v 67.35459 24.242609 -61.684017
v -32.329266 24.084473 -80.43288
v -22.388971 16.552477 -80.72888
v -22.388971 16.552477 -85.451775
v 39.263172 13.933296 -85.451775
v 39.263172 13.933296 -80.43288
v -23.764881 18.82535 -85.451775
v -45.568344 53.55893 -61.684017
v -30.774908 23.114014 -85.451775
v 20.067688 35.988174 -85.451775
v -32.329266 24.084473 -85.451775
v -44.533478 52.396873 -61.683643
v 58.322895 38.710278 -61.683643
v 62.4856 22.46855 -76.184395
v -45.568344 53.55893 -65.36339
v 59.499004 39.57439 -65.36339
v 28.185846 30.295834 -85.451775
v -26.066086 30.888514 -85.451775
v -17.926228 36.35171 -85.451775
v 34.717968 22.801718 -80.43288
v -26.066086 30.888514 -80.43288
v -42.210083 49.64131 -76.184395
v 59.499004 39.57439 -61.684017
v 10.848529 39.562576 -85.451775
v -31.501207 63.00788 -61.684017
v -17.926228 36.35171 -80.43288
v 28.185846 30.295834 -80.43288
v -8.708489 39.733192 -85.451775
v 55.20144 36.681454 -76.184395
v -30.76316 61.646828 -61.683643
v 47.269726 51.39417 -61.683643
v 1.0685354 40.82943 -85.451775
v -29.165272 58.39643 -76.184395
v -31.501207 63.00788 -65.36339
v -8.708489 39.733192 -80.43288
v 48.20921 52.531044 -65.36339
v 48.20921 52.531044 -61.684017
v 44.733135 48.69139 -76.184395
v 20.067688 35.988174 -80.43288
v -15.567027 68.85306 -61.684017
v 1.0685354 40.82943 -80.43288
v 10.848529 39.562576 -80.43288
v -14.393044 63.815784 -76.184395
v -15.165007 67.36954 -61.683643
v 33.53188 61.027977 -61.683643
v 31.723198 57.81391 -76.184395
v 34.176846 62.372684 -61.684017
v -15.567027 68.85306 -65.36339
v 34.176846 62.372684 -65.36339
v 1.27544 65.57262 -76.184395
v 1.3344373 70.745384 -61.684017
v 16.948742 63.54225 -76.184395
v 1.3802934 69.22278 -61.683643
v 17.930658 67.077446 -61.683643
v 18.240623 68.55302 -61.684017
v 1.3344373 70.745384 -65.36339
v 18.240623 68.55302 -65.36339
vt 0.30895427 0.057254434
vt 0.30425662 0.047600508
vt 0.20560364 0.11734623
vt 0.19875754 0.109158576
vt 0.22136965 0.13773817
vt 0.42052725 0.013452232
vt 0.11975925 0.20165735
vt 0.31923917 0.0807758
vt 0.42279616 0.024032295
vt 0.14013645 0.217525
vt 0.111190975 0.19543499
vt 0.4271149 0.04925418
vt 0.54114765 0.007912457
vt 0.54081064 0.018843472
vt 0.057608146 0.3050412
vt 0.26835647 0.19718635
vt 0.3504112 0.14992863
vt 0.081198715 0.3153237
vt 0.53901505 0.044360697
vt 0.04791409 0.30112815
vt 0.20035854 0.26346958
vt 0.4405349 0.1237396
vt 0.65950555 0.031072855
vt 0.6565002 0.041722894
vt 0.023241058 0.41990072
vt 0.15061358 0.34497988
vt 0.04823088 0.4241445
vt 0.6486877 0.06612551
vt 0.01313664 0.4184085
vt 0.53435373 0.11980045
vt 0.76910365 0.081697345
vt 0.7635135 0.091410816
vt 0.35827872 0.31427228
vt 0.1218597 0.43709666
vt 0.017840434 0.53698945
vt 0.46480432 0.27106297
vt 0.6261711 0.13837767
vt 0.042650722 0.53516006
vt 0.7500544 0.1133337
vt 0.00791241 0.53779042
vt 0.3145417 0.35373968
vt 0.5226505 0.26719975
vt 0.40906528 0.2860682
vt 0.86387646 0.15731573
vt 0.85597104 0.16545093
vt 0.11603562 0.5302688
vt 0.283959 0.40294683
vt 0.57960415 0.27911425
vt 0.7107136 0.17823672
vt 0.038806833 0.6505046
vt 0.062363412 0.64321518
vt 0.8375861 0.18364835
vt 0.41965136 0.3119278
vt 0.029616982 0.65326554
vt 0.37473735 0.33710623
vt 0.46910012 0.29787928
vt 0.33670017 0.37251723
vt 0.6310039 0.3034513
vt 0.26401252 0.45819098
vt 0.30826643 0.41444433
vt 0.2721981 0.5134532
vt 0.13301483 0.62298977
vt 0.5204729 0.29624593
vt 0.9382564 0.25376236
vt 0.9284758 0.25975537
vt 0.7837476 0.23765254
vt 0.5708844 0.3056413
vt 0.07575961 0.76104039
vt 0.10581636 0.74362844
vt 0.35204798 0.52786684
vt 0.3436248 0.51369822
vt 0.29317763 0.46147978
vt 0.90616816 0.2731731
vt 0.6761656 0.3379755
vt 0.08446157 0.75620538
vt 0.6169692 0.3261528
vt 0.29035288 0.4977687
vt 0.33009782 0.5048989
vt 0.6476325 0.47869384
vt 0.9878947 0.36600256
vt 0.8408457 0.31341875
vt 0.31020126 0.52346385
vt 0.31706727 0.50243127
vt 0.27811313 0.58357507
vt 0.97648144 0.3693987
vt 0.6516991 0.46299207
vt 0.31964263 0.5250709
vt 0.3276156 0.52863294
vt 0.7080541 0.38426018
vt 0.31601635 0.56022406
vt 0.33319297 0.5420881
vt 0.16961905 0.70721942
vt 0.14692572 0.85655111
vt 0.6561508 0.35760844
vt 0.33225736 0.5345456
vt 0.9513464 0.37692094
vt 0.3249045 0.5559854
vt 0.17240334 0.83234715
vt 0.33112782 0.54986292
vt 0.30551237 0.59089303
vt 0.15443061 0.8497628
vt 0.3539085 0.54315257
vt 0.68679065 0.39429843
vt 0.35070327 0.5593416
vt 0.3289024 0.57796115
vt 0.29653803 0.63754356
vt 0.34049794 0.57148498
vt 0.3181592 0.62674153
vt 0.7218443 0.43722188
vt 0.8759794 0.39817178
vt 0.99613714 0.4886086
vt 0.66179985 0.45081437
vt 0.6511102 0.4939233
vt 0.32952547 0.68343008
vt 0.3490758 0.66363978
vt 0.22641997 0.78213447
vt 0.23930985 0.932414055
vt 1.0077128 0.48824143
vt 0.67196864 0.47179866
vt 0.67836714 0.46435905
vt 0.6691779 0.47928613
vt 0.6705209 0.4867221
vt 0.6993215 0.42676258
vt 0.25838646 0.90266901
vt 0.969911 0.48985445
vt 0.7129798 0.44443548
vt 0.6941916 0.4301827
vt 0.68326026 0.49662971
vt 0.72263753 0.50299138
vt 0.4361585 0.71410602
vt 0.8923781 0.49241447
vt 0.24509063 0.92396915
vt 0.7358764 0.50757837
vt 0.675159 0.49314964
vt 0.6592133 0.50777048
vt 0.38925198 0.69454837
vt 0.3758449 0.71733737
vt 0.67248154 0.5160737
vt 0.98660004 0.60800707
vt 0.7095933 0.52404702
vt 0.5387511 0.72014475
vt 0.716141 0.525773
vt 0.99781126 0.6105358
vt 0.34728914 0.983751714
vt 0.29885355 0.84062618
vt 0.96098006 0.6028896
vt 0.35875177 0.950154245
vt 0.48696253 0.7225868
vt 0.7140932 0.5601263
vt 0.69768727 0.60501212
vt 0.42801833 0.74057895
vt 0.7387616 0.56366307
vt 0.8861028 0.58608758
vt 0.350966 0.974075556
vt 0.58786803 0.70597965
vt 0.9484556 0.72164255
vt 0.72132266 0.61616474
vt 0.4852641 0.7516126
vt 0.66966385 0.645998
vt 0.38310766 0.88002545
vt 0.9585864 0.72686172
vt 0.46440098 1.007682562
vt 0.6324541 0.6809048
vt 0.8562654 0.67680144
vt 0.9249065 0.71055955
vt 0.6916554 0.66456574
vt 0.46759778 0.972150087
vt 0.46572325 0.9972878695
vt 0.47461268 0.89792925
vt 0.5432762 0.74706542
vt 0.88407564 0.82207197
vt 0.64897203 0.70364708
vt 0.5985476 0.73174423
vt 0.8061094 0.75659156
vt 0.892445 0.82955593
vt 0.5837562 1.0032863617
vt 0.5677666 0.893607795
vt 0.5825984 0.9927274585
vt 0.8640757 0.80571187
vt 0.57850224 0.96778691
vt 0.7382211 0.82154042
vt 0.79775405 0.903295696
vt 0.657183 0.86792475
vt 0.8038973 0.91244286
vt 0.69891816 0.971154809
vt 0.69523907 0.960997283
vt 0.78242695 0.882775605
vt 0.68532765 0.93761003
vn -0.19661714 -0.70554835 0.68084
vn -0.00006678224 -0.0002426434 0.99999994
vn -0.021495821 -0.7321941 0.68075675
vn -0.0000062829286 -0.0002542985 0.99999994
vn -0.0286183 -0.97558 -0.21777198
vn -0.00012337172 -0.00021721142 1
vn 0.15551627 -0.7158973 0.6806657
vn -0.26197693 -0.94019264 -0.21772897
vn -0.35973155 -0.6379263 0.68091345
vn 0.20722239 -0.9537382 -0.21781242
vn 0.000055143475 -0.0002508582 0.99999994
vn -0.479385 -0.8501863 -0.21765432
vn -0.00016842225 -0.00017996089 1
vn -0.50155866 -0.533579 0.68097895
vn 0.32392544 -0.65716684 0.68059105
vn -0.018454747 -0.6242929 -0.78097236
vn -0.16777064 -0.60160875 -0.7809737
vn 0.4315584 -0.8753609 -0.21794647
vn -0.6684744 -0.7111959 -0.21758321
vn 0.00011822114 -0.00023405408 1
vn 0.13252932 -0.6104117 -0.7809185
vn -0.3068719 -0.5439932 -0.7809617
vn -0.00020390139 -0.00013336324 0.99999994
vn -0.6141692 -0.39874524 0.6810275
vn 0.4733393 -0.559275 0.6805597
vn 0.27624422 -0.5602482 -0.78090394
vn 0.63053 -0.7448493 -0.21824595
vn -0.81863457 -0.5315176 -0.2175467
vn 0.00022154767 -0.00027097456 0.99999994
vn -0.4278633 -0.45502222 -0.7809531
vn -0.00023074153 -0.00008020489 0.99999994
vn -0.6913537 -0.24123666 0.68105423
vn -0.021893289 -0.74197054 -0.6700749
vn 0.40360212 -0.47656557 -0.7810189
vn 0.5943868 -0.4282932 0.6806389
vn -0.3647357 -0.64667726 -0.66990775
vn -0.52391624 -0.3400096 -0.7809644
vn 0.7917192 -0.5704406 -0.21858251
vn -0.9215591 -0.3215905 -0.21750471
vn 0.00028802376 -0.00020652635 0.99999994
vn 0.157496 -0.725287 -0.67018926
vn -0.508604 -0.5409397 -0.6698554
vn -0.1993643 -0.71511215 -0.6699765
vn -0.00024016405 -0.000023416702 0.99999994
vn -0.7288454 -0.07008544 0.6810817
vn 0.5064164 -0.36456022 -0.7814335
vn 0.32823232 -0.6655816 -0.67027205
vn -0.622857 -0.40426317 -0.6697914
vn -0.58975214 -0.20571633 -0.78094375
vn 0.6800976 -0.27234372 0.68065864
vn 0.90586364 -0.36275262 -0.21868142
vn -0.97160983 -0.0934909 -0.21733306
vn -0.19667196 -0.70543885 -0.68093777
vn 0.00033310233 -0.00013165953 0.99999994
vn -0.021606717 -0.73210764 -0.6808461
vn -0.35974437 -0.63782305 -0.6810034
vn 0.15544112 -0.71585035 -0.6807321
vn -0.70114064 -0.24466924 -0.66973037
vn 0.47897142 -0.5673438 -0.6698563
vn 0.32401812 -0.6570656 -0.6806447
vn 0.46037018 -0.028772451 -0.8872607
vn 0.57909834 -0.23208661 -0.7815248
vn -0.5015788 -0.5334644 -0.6810539
vn -0.00023515207 0.000033967033 0.99999994
vn -0.72461104 0.10471277 0.6811564
vn -0.6219077 -0.059888463 -0.78079706
vn -0.6141594 -0.3986126 -0.681114
vn 0.00035046195 -0.00004873197 0.99999994
vn 0.96667564 -0.1335141 -0.21843113
vn 0.6194751 -0.15081544 -0.770393
vn 0.6119748 0.17946285 -0.7702466
vn 0.47237283 -0.5595426 -0.6810109
vn -0.966161 0.13951051 -0.21695568
vn -0.73919547 -0.07135486 -0.6697004
vn 0.7257789 -0.10018838 0.6805934
vn -0.69124466 -0.24121399 -0.6811731
vn 0.81632215 0.099737294 -0.56892055
vn 0.45234406 0.45727637 -0.7656912
vn -0.46079358 0.44073713 -0.77033764
vn -0.0002244897 0.000088980516 0.99999994
vn -0.61876845 0.08916358 -0.7804969
vn 0.38770795 0.59210783 -0.70646375
vn 0.37652618 0.60407364 -0.7023697
vn 0.26700398 -0.37117368 -0.88934755
vn -0.6792485 0.27300596 0.68124086
vn -0.17860083 0.6122391 -0.77023697
vn 0.5304337 0.53621376 -0.6565933
vn 0.72656846 0.2130651 -0.653224
vn -0.735621 0.10455039 -0.66927654
vn -0.2981592 -0.64362854 -0.70487124
vn 0.54715055 -0.5234734 -0.65314776
vn 0.6184288 -0.08556667 -0.78116846
vn 0.0003482592 0.00004062084 0.99999994
vn -0.72871065 -0.070341945 -0.6811996
vn 0.73575014 -0.179126 -0.65313524
vn -0.9058471 0.36402643 -0.21662393
vn -0.16750914 -0.7357434 -0.6562181
vn 0.9703473 0.10426053 -0.21807295
vn 0.21189421 -0.72688967 -0.6532474
vn 0.34777683 -0.74577963 -0.56821126
vn 0.7285022 0.078344174 0.68054885
vn 0.46072254 -0.4407847 -0.7703529
vn -0.72443527 0.102978356 -0.68160766
vn 0.17848998 -0.61227936 -0.7702307
vn -0.3126077 -0.63769937 -0.70399994
vn 0.73571926 -0.10063785 -0.669768
vn -0.14265236 -0.62656945 -0.76619905
vn 0.72544575 -0.099224396 -0.6810896
vn -0.26403862 0.37137392 -0.8901489
vn -0.58016473 0.23322742 -0.78039336
vn -0.5955881 0.42571786 0.6812042
vn 0.13860118 0.62964284 -0.7644211
vn -0.6195169 0.15094604 -0.77033377
vn 0.73788023 0.079074144 -0.67028356
vn 0.72846323 0.0780867 -0.6806202
vn 0.6210357 0.06661463 -0.78094625
vn 0.00024200502 0.000088825094 1
vn -0.00019458751 0.00013901462 0.99999994
vn -0.2120372 0.7268534 -0.65324146
vn 0.15423664 0.74175346 -0.6526966
vn -0.54720384 0.5233842 -0.6531745
vn -0.7356891 0.1792507 -0.65316975
vn -0.34451047 0.74740434 -0.5680662
vn 0.9163413 0.33593836 -0.21786231
vn -0.7941414 0.56776756 -0.21674739
vn 0.28769234 0.6475476 -0.7056311
vn 0.30904996 0.6369149 -0.70627725
vn -0.54314107 -0.5281952 -0.65269256
vn -0.3924349 -0.5898539 -0.7057388
vn 0.60648936 0.4107183 -0.6807945
vn -0.5085787 0.36361164 -0.7804705
vn 0.68785226 0.25221157 0.68062365
vn -0.45591033 0.023335835 -0.8897197
vn -0.72671056 -0.21189651 -0.6534459
vn -0.6125811 -0.17862026 -0.7699605
vn 0.6877999 0.25217834 -0.680689
vn 0.696795 0.25546762 -0.6702336
vn -0.45696783 -0.45483306 -0.76439995
vn -0.47793067 0.5546803 0.6811109
vn -0.3722901 -0.60236096 -0.7060888
vn 0.34509364 0.64590055 -0.680972
vn -0.8154738 -0.110169455 -0.5682124
vn -0.00015694341 0.00018169818 0.99999994
vn 0.00021163288 0.00014258873 0.99999994
vn 0.5864693 0.21504743 -0.7809022
vn -0.6371091 0.73954695 -0.21716852
vn 0.8082133 0.5471375 -0.2177883
vn 0.4898761 0.5444337 -0.6808916
vn -0.47637913 0.55542636 -0.6815898
vn -0.33244535 0.65227157 -0.68119156
vn 0.61457896 0.41619536 -0.67012995
vn -0.48370007 0.56398606 -0.6692937
vn -0.40780082 0.47359774 -0.7806431
vn 0.6066095 0.410679 0.6807112
vn 0.180699 0.7096098 -0.6810299
vn -0.33261472 0.6523167 0.68106556
vn -0.33722037 0.6616421 -0.66971046
vn 0.49653378 0.5518312 -0.6700273
vn -0.16807666 0.7126029 -0.68113685
vn 0.51715004 0.35024798 -0.78094953
vn -0.00010808852 0.00021477063 0.99999994
vn 0.00016823022 0.00018741773 0.99999994
vn 0.0062842807 0.73217523 -0.68108726
vn -0.28375912 0.55649406 -0.7808938
vn -0.44335568 0.8695702 -0.2174474
vn -0.1704657 0.7227404 -0.669767
vn 0.65294206 0.7254314 -0.21775228
vn 0.49000606 0.5444296 0.6808013
vn 0.417725 0.46430695 -0.7809768
vn 0.34985828 0.6548145 -0.66993815
vn -0.16803502 0.7127013 0.68104404
vn 0.0063724765 0.7424966 -0.66981953
vn 0.1832195 0.71950674 -0.66988105
vn -0.14343064 0.60788405 -0.7809639
vn -0.000055176268 0.00023632265 1
vn 0.00011916325 0.00022021329 1
vn 0.29428965 0.55090064 -0.7809622
vn 0.34520036 0.64594305 0.68087757
vn -0.2239705 0.9500088 -0.21753286
vn 0.46005028 0.8607932 -0.21768981
vn 0.0053338 0.62456024 -0.7809584
vn 0.0063937493 0.7322502 0.6810057
vn 0.15409876 0.6052815 -0.78095317
vn 0.0000031633786 0.00024487035 0.99999994
vn 0.000062314444 0.00023957023 1
vn 0.18079878 0.7096627 0.6809483
vn 0.0085417535 0.9760095 -0.2175607
vn 0.24099226 0.9458158 -0.21761224
f 3/3/3 2/2/2 1/1/1
f 3/3/3 4/4/4 2/2/2
f 1/1/1 5/5/5 3/3/3
f 1/1/1 2/2/2 6/6/6
f 7/7/7 4/4/4 3/3/3
f 9/9/9 8/8/8 1/1/1
f 1/1/1 8/8/8 5/5/5
f 1/1/1 6/6/6 9/9/9
f 3/3/3 5/5/5 10/10/10
f 7/7/7 11/11/11 4/4/4
f 3/3/3 10/10/10 7/7/7
f 9/9/9 12/12/12 8/8/8
f 9/9/9 6/6/6 13/13/13
f 14/14/14 12/12/12 9/9/9
f 15/15/15 11/11/11 7/7/7
f 9/9/9 13/13/13 14/14/14
f 16/16/16 5/5/5 8/8/8
f 17/17/17 8/8/8 12/12/12
f 7/7/7 10/10/10 18/18/18
f 14/14/14 19/19/19 12/12/12
f 15/15/15 20/20/20 11/11/11
f 7/7/7 18/18/18 15/15/15
f 21/21/21 10/10/10 5/5/5
f 16/16/16 8/8/8 17/17/17
f 22/22/22 12/12/12 19/19/19
f 14/14/14 13/13/13 23/23/23
f 24/24/24 19/19/19 14/14/14
f 21/21/21 5/5/5 16/16/16
f 17/17/17 12/12/12 22/22/22
f 25/25/25 20/20/20 15/15/15
f 14/14/14 23/23/23 24/24/24
f 26/26/26 18/18/18 10/10/10
f 15/15/15 18/18/18 27/27/27
f 24/24/24 28/28/28 19/19/19
f 26/26/26 10/10/10 21/21/21
f 25/25/25 29/29/29 20/20/20
f 15/15/15 27/27/27 25/25/25
f 22/22/22 19/19/19 30/30/30
f 30/30/30 19/19/19 28/28/28
f 24/24/24 23/23/23 31/31/31
f 32/32/32 28/28/28 24/24/24
f 17/17/17 33/33/33 16/16/16
f 34/34/34 27/27/27 18/18/18
f 35/35/35 29/29/29 25/25/25
f 34/34/34 18/18/18 26/26/26
f 33/33/33 21/21/21 16/16/16
f 36/36/36 17/17/17 22/22/22
f 24/24/24 31/31/31 32/32/32
f 30/30/30 28/28/28 37/37/37
f 25/25/25 27/27/27 38/38/38
f 32/32/32 39/39/39 28/28/28
f 37/37/37 28/28/28 39/39/39
f 35/35/35 40/40/40 29/29/29
f 26/26/26 21/21/21 41/41/41
f 25/25/25 38/38/38 35/35/35
f 22/22/22 30/30/30 42/42/42
f 17/17/17 43/43/43 33/33/33
f 36/36/36 43/43/43 17/17/17
f 32/32/32 31/31/31 44/44/44
f 33/33/33 41/41/41 21/21/21
f 45/45/45 39/39/39 32/32/32
f 46/46/46 27/27/27 34/34/34
f 46/46/46 38/38/38 27/27/27
f 22/22/22 42/42/42 36/36/36
f 47/47/47 34/34/34 26/26/26
f 48/48/48 30/30/30 37/37/37
f 37/37/37 39/39/39 49/49/49
f 50/50/50 40/40/40 35/35/35
f 32/32/32 44/44/44 45/45/45
f 26/26/26 41/41/41 47/47/47
f 35/35/35 38/38/38 51/51/51
f 45/45/45 52/52/52 39/39/39
f 48/48/48 42/42/42 30/30/30
f 49/49/49 39/39/39 52/52/52
f 53/53/53 33/33/33 43/43/43
f 50/50/50 54/54/54 40/40/40
f 55/55/55 41/41/41 33/33/33
f 35/35/35 51/51/51 50/50/50
f 56/56/56 43/43/43 36/36/36
f 53/53/53 55/55/55 33/33/33
f 56/56/56 53/53/53 43/43/43
f 56/56/56 36/36/36 42/42/42
f 55/55/55 57/57/57 41/41/41
f 58/58/58 37/37/37 49/49/49
f 47/47/47 59/59/59 34/34/34
f 60/60/60 47/47/47 41/41/41
f 60/60/60 41/41/41 57/57/57
f 34/34/34 61/61/61 46/46/46
f 62/62/62 38/38/38 46/46/46
f 58/58/58 48/48/48 37/37/37
f 56/56/56 42/42/42 63/63/63
f 45/45/45 44/44/44 64/64/64
f 62/62/62 51/51/51 38/38/38
f 65/65/65 52/52/52 45/45/45
f 49/49/49 52/52/52 66/66/66
f 34/34/34 59/59/59 61/61/61
f 60/60/60 59/59/59 47/47/47
f 67/67/67 63/63/63 42/42/42
f 67/67/67 42/42/42 48/48/48
f 68/68/68 54/54/54 50/50/50
f 45/45/45 64/64/64 65/65/65
f 50/50/50 51/51/51 69/69/69
f 53/53/53 70/70/70 55/55/55
f 57/57/57 55/55/55 71/71/71
f 60/60/60 72/72/72 59/59/59
f 66/66/66 52/52/52 73/73/73
f 70/70/70 53/53/53 56/56/56
f 65/65/65 73/73/73 52/52/52
f 49/49/49 66/66/66 74/74/74
f 61/61/61 62/62/62 46/46/46
f 60/60/60 57/57/57 71/71/71
f 49/49/49 74/74/74 58/58/58
f 68/68/68 50/50/50 75/75/75
f 76/76/76 67/67/67 48/48/48
f 76/76/76 48/48/48 58/58/58
f 50/50/50 69/69/69 75/75/75
f 59/59/59 72/72/72 77/77/77
f 62/62/62 69/69/69 51/51/51
f 72/72/72 60/60/60 78/78/78
f 59/59/59 77/77/77 61/61/61
f 56/56/56 63/63/63 79/79/79
f 80/80/80 65/65/65 64/64/64
f 70/70/70 71/71/71 55/55/55
f 66/66/66 73/73/73 81/81/81
f 82/82/82 61/61/61 77/77/77
f 76/76/76 58/58/58 74/74/74
f 83/83/83 77/77/77 72/72/72
f 71/71/71 78/78/78 60/60/60
f 61/61/61 84/84/84 62/62/62
f 85/85/85 73/73/73 65/65/65
f 63/63/63 67/67/67 86/86/86
f 84/84/84 61/61/61 82/82/82
f 78/78/78 83/83/83 72/72/72
f 87/87/87 82/82/82 83/83/83
f 82/82/82 77/77/77 83/83/83
f 88/88/88 87/87/87 78/78/78
f 89/89/89 74/74/74 66/66/66
f 82/82/82 87/87/87 90/90/90
f 87/87/87 83/83/83 78/78/78
f 87/87/87 88/88/88 91/91/91
f 62/62/62 92/92/92 69/69/69
f 75/75/75 93/93/93 68/68/68
f 76/76/76 74/74/74 94/94/94
f 80/80/80 85/85/85 65/65/65
f 89/89/89 66/66/66 81/81/81
f 95/95/95 88/88/88 71/71/71
f 88/88/88 78/78/78 71/71/71
f 88/88/88 95/95/95 91/91/91
f 90/90/90 84/84/84 82/82/82
f 84/84/84 92/92/92 62/62/62
f 67/67/67 76/76/76 86/86/86
f 81/81/81 73/73/73 96/96/96
f 79/79/79 70/70/70 56/56/56
f 91/91/91 97/97/97 87/87/87
f 75/75/75 69/69/69 98/98/98
f 97/97/97 90/90/90 87/87/87
f 85/85/85 96/96/96 73/73/73
f 95/95/95 71/71/71 70/70/70
f 91/91/91 95/95/95 70/70/70
f 91/91/91 99/99/99 97/97/97
f 90/90/90 100/100/100 84/84/84
f 75/75/75 101/101/101 93/93/93
f 91/91/91 70/70/70 102/102/102
f 103/103/103 94/94/94 74/74/74
f 91/91/91 104/104/104 99/99/99
f 75/75/75 98/98/98 101/101/101
f 97/97/97 105/105/105 90/90/90
f 92/92/92 98/98/98 69/69/69
f 86/86/86 76/76/76 94/94/94
f 97/97/97 99/99/99 104/104/104
f 91/91/91 102/102/102 104/104/104
f 90/90/90 105/105/105 100/100/100
f 103/103/103 74/74/74 89/89/89
f 84/84/84 106/106/106 92/92/92
f 86/86/86 79/79/79 63/63/63
f 97/97/97 107/107/107 105/105/105
f 97/97/97 104/104/104 107/107/107
f 108/108/108 84/84/84 100/100/100
f 109/109/109 89/89/89 81/81/81
f 108/108/108 106/106/106 84/84/84
f 81/81/81 96/96/96 110/110/110
f 80/80/80 111/111/111 85/85/85
f 100/100/100 105/105/105 108/108/108
f 111/111/111 96/96/96 85/85/85
f 105/105/105 107/107/107 108/108/108
f 94/94/94 103/103/103 112/112/112
f 113/113/113 102/102/102 70/70/70
f 109/109/109 81/81/81 110/110/110
f 103/103/103 89/89/89 109/109/109
f 92/92/92 106/106/106 114/114/114
f 112/112/112 86/86/86 94/94/94
f 107/107/107 104/104/104 115/115/115
f 92/92/92 116/116/116 98/98/98
f 101/101/101 117/117/117 93/93/93
f 80/80/80 118/118/118 111/111/111
f 108/108/108 114/114/114 106/106/106
f 120/120/120 119/119/119 86/86/86
f 115/115/115 108/108/108 107/107/107
f 113/113/113 70/70/70 79/79/79
f 92/92/92 114/114/114 116/116/116
f 122/122/122 121/121/121 119/119/119
f 103/103/103 109/109/109 123/123/123
f 101/101/101 98/98/98 124/124/124
f 111/111/111 125/125/125 96/96/96
f 120/120/120 127/127/127 126/126/126
f 103/103/103 127/127/127 112/112/112
f 119/119/119 121/121/121 79/79/79
f 120/120/120 86/86/86 112/112/112
f 119/119/119 120/120/120 128/128/128
f 120/120/120 112/112/112 127/127/127
f 123/123/123 109/109/109 126/126/126
f 103/103/103 123/123/123 127/127/127
f 119/119/119 79/79/79 86/86/86
f 126/126/126 129/129/129 120/120/120
f 122/122/122 79/79/79 121/121/121
f 104/104/104 102/102/102 130/130/130
f 128/128/128 122/122/122 119/119/119
f 131/131/131 110/110/110 96/96/96
f 123/123/123 126/126/126 127/127/127
f 101/101/101 132/132/132 117/117/117
f 126/126/126 109/109/109 133/133/133
f 108/108/108 115/115/115 114/114/114
f 110/110/110 133/133/133 109/109/109
f 101/101/101 124/124/124 132/132/132
f 131/131/131 96/96/96 125/125/125
f 122/122/122 113/113/113 79/79/79
f 129/129/129 128/128/128 120/120/120
f 128/128/128 134/134/134 122/122/122
f 116/116/116 124/124/124 98/98/98
f 122/122/122 134/134/134 135/135/135
f 136/136/136 115/115/115 104/104/104
f 122/122/122 135/135/135 113/113/113
f 126/126/126 133/133/133 129/129/129
f 116/116/116 114/114/114 137/137/137
f 134/134/134 128/128/128 138/138/138
f 139/139/139 111/111/111 118/118/118
f 134/134/134 138/138/138 135/135/135
f 110/110/110 131/131/131 133/133/133
f 139/139/139 125/125/125 111/111/111
f 136/136/136 114/114/114 115/115/115
f 128/128/128 129/129/129 140/140/140
f 128/128/128 140/140/140 138/138/138
f 102/102/102 113/113/113 141/141/141
f 136/136/136 137/137/137 114/114/114
f 130/130/130 136/136/136 104/104/104
f 129/129/129 133/133/133 142/142/142
f 139/139/139 118/118/118 143/143/143
f 132/132/132 144/144/144 117/117/117
f 116/116/116 145/145/145 124/124/124
f 116/116/116 137/137/137 145/145/145
f 129/129/129 142/142/142 140/140/140
f 139/139/139 146/146/146 125/125/125
f 132/132/132 124/124/124 147/147/147
f 130/130/130 102/102/102 148/148/148
f 133/133/133 149/149/149 142/142/142
f 138/138/138 140/140/140 149/149/149
f 135/135/135 138/138/138 150/150/150
f 136/136/136 151/151/151 137/137/137
f 133/133/133 152/152/152 149/149/149
f 153/153/153 131/131/131 125/125/125
f 132/132/132 154/154/154 144/144/144
f 140/140/140 142/142/142 149/149/149
f 145/145/145 137/137/137 151/151/151
f 113/113/113 135/135/135 155/155/155
f 153/153/153 133/133/133 131/131/131
f 132/132/132 147/147/147 154/154/154
f 153/153/153 152/152/152 133/133/133
f 153/153/153 125/125/125 146/146/146
f 102/102/102 141/141/141 148/148/148
f 145/145/145 147/147/147 124/124/124
f 136/136/136 130/130/130 151/151/151
f 156/156/156 139/139/139 143/143/143
f 149/149/149 150/150/150 138/138/138
f 156/156/156 146/146/146 139/139/139
f 150/150/150 149/149/149 152/152/152
f 150/150/150 152/152/152 157/157/157
f 130/130/130 158/158/158 151/151/151
f 159/159/159 135/135/135 150/150/150
f 145/145/145 151/151/151 160/160/160
f 156/156/156 143/143/143 161/161/161
f 154/154/154 162/162/162 144/144/144
f 145/145/145 160/160/160 147/147/147
f 141/141/141 113/113/113 155/155/155
f 159/159/159 163/163/163 135/135/135
f 164/164/164 157/157/157 152/152/152
f 156/156/156 165/165/165 146/146/146
f 150/150/150 157/157/157 166/166/166
f 130/130/130 148/148/148 158/158/158
f 154/154/154 147/147/147 167/167/167
f 163/163/163 155/155/155 135/135/135
f 164/164/164 152/152/152 153/153/153
f 154/154/154 168/168/168 162/162/162
f 164/164/164 153/153/153 146/146/146
f 151/151/151 158/158/158 169/169/169
f 154/154/154 167/167/167 168/168/168
f 158/158/158 141/141/141 170/170/170
f 150/150/150 166/166/166 159/159/159
f 164/164/164 146/146/146 165/165/165
f 158/158/158 148/148/148 141/141/141
f 171/171/171 156/156/156 161/161/161
f 160/160/160 167/167/167 147/147/147
f 151/151/151 169/169/169 160/160/160
f 163/163/163 166/166/166 172/172/172
f 141/141/141 173/173/173 170/170/170
f 171/171/171 165/165/165 156/156/156
f 163/163/163 159/159/159 166/166/166
f 174/174/174 166/166/166 157/157/157
f 171/171/171 161/161/161 175/175/175
f 155/155/155 172/172/172 173/173/173
f 168/168/168 176/176/176 162/162/162
f 141/141/141 155/155/155 173/173/173
f 155/155/155 163/163/163 172/172/172
f 177/177/177 158/158/158 170/170/170
f 168/168/168 178/178/178 176/176/176
f 174/174/174 157/157/157 164/164/164
f 171/171/171 179/179/179 165/165/165
f 160/160/160 169/169/169 167/167/167
f 168/168/168 167/167/167 180/180/180
f 177/177/177 170/170/170 173/173/173
f 181/181/181 172/172/172 166/166/166
f 168/168/168 180/180/180 178/178/178
f 182/182/182 171/171/171 175/175/175
f 183/183/183 173/173/173 172/172/172
f 177/177/177 169/169/169 158/158/158
f 174/174/174 164/164/164 165/165/165
f 182/182/182 175/175/175 184/184/184
f 178/178/178 185/185/185 176/176/176
f 182/182/182 179/179/179 171/171/171
f 174/174/174 165/165/165 179/179/179
f 169/169/169 180/180/180 167/167/167
f 178/178/178 186/186/186 185/185/185
f 186/186/186 184/184/184 185/185/185
f 186/186/186 182/182/182 184/184/184
f 181/181/181 166/166/166 174/174/174
f 182/182/182 187/187/187 179/179/179
f 178/178/178 188/188/188 186/186/186
f 178/178/178 180/180/180 188/188/188
f 186/186/186 187/187/187 182/182/182
f 177/177/177 173/173/173 183/183/183
f 169/169/169 177/177/177 180/180/180
f 186/186/186 188/188/188 187/187/187
f 183/183/183 172/172/172 181/181/181
f 181/181/181 179/179/179 187/187/187
f 177/177/177 188/188/188 180/180/180
f 181/181/181 174/174/174 179/179/179
f 183/183/183 187/187/187 188/188/188
f 177/177/177 183/183/183 188/188/188
f 183/183/183 181/181/181 187/187/187
