# VPXTOOL table OBJ file
# VPXTOOL OBJ file
# numVerts: 110 numFaces: 100
o PinCab_StartButton
v -649.6456 -373.9009 -37.036793
v -649.852 -373.99396 -38.667774
v -656.2146 -373.9009 -37.036793
v -650.4582 -374.08115 -40.196274
v -651.426 -374.15704 -41.526253
v -652.69476 -374.2168 -42.574142
v -654.1847 -374.25674 -43.274097
v -655.8021 -374.27432 -43.58214
v -657.4455 -374.26843 -43.47892
v -659.01154 -374.23944 -42.970913
v -660.4018 -374.18918 -42.090042
v -661.529 -374.12082 -40.89166
v -662.32227 -374.03864 -39.451057
v -662.73175 -373.9478 -37.85876
v -662.73175 -373.854 -36.214817
v -662.32227 -373.76318 -34.62252
v -661.529 -373.681 -33.181923
v -660.4018 -373.61264 -31.98354
v -659.01154 -373.56238 -31.10267
v -657.4455 -373.5334 -30.594666
v -655.8021 -373.5275 -30.491444
v -654.1847 -373.54507 -30.799488
v -652.69476 -373.58502 -31.499449
v -651.426 -373.64478 -32.54734
v -650.4582 -373.72067 -33.87732
v -649.852 -373.80786 -35.405823
v -649.6456 -369.9426 -37.26261
v -649.852 -370.03564 -38.893593
v -649.6456 -373.9009 -37.036793
v -649.852 -373.99396 -38.667774
v -650.4582 -370.12286 -40.422092
v -650.4582 -374.08115 -40.196274
v -651.426 -370.19873 -41.75207
v -651.426 -374.15704 -41.526253
v -651.426 -370.19873 -41.75207
v -652.69476 -370.2585 -42.799957
v -651.426 -374.15704 -41.526253
v -652.69476 -374.2168 -42.574142
v -654.1847 -370.29843 -43.499916
v -654.1847 -374.25674 -43.274097
v -655.8021 -370.316 -43.80796
v -655.8021 -374.27432 -43.58214
v -657.4455 -370.31012 -43.704735
v -657.4455 -374.26843 -43.47892
v -659.01154 -370.28113 -43.196728
v -659.01154 -374.23944 -42.970913
v -660.4018 -370.2309 -42.31586
v -660.4018 -374.18918 -42.090042
v -660.4018 -370.2309 -42.31586
v -661.529 -370.16254 -41.117477
v -660.4018 -374.18918 -42.090042
v -661.529 -374.12082 -40.89166
v -662.32227 -370.08032 -39.676876
v -662.32227 -374.03864 -39.451057
v -662.73175 -369.9895 -38.08458
v -662.73175 -373.9478 -37.85876
v -662.73175 -369.89572 -36.440636
v -662.73175 -373.854 -36.214817
v -662.32227 -369.80487 -34.84834
v -662.32227 -373.76318 -34.62252
v -661.529 -369.7227 -33.407738
v -661.529 -373.681 -33.181923
v -660.4018 -369.65433 -32.20936
v -660.4018 -373.61264 -31.98354
v -660.4018 -369.65433 -32.20936
v -659.01154 -369.60406 -31.328487
v -660.4018 -373.61264 -31.98354
v -659.01154 -373.56238 -31.10267
v -657.4455 -369.57507 -30.820482
v -657.4455 -373.5334 -30.594666
v -655.8021 -369.5692 -30.71726
v -655.8021 -373.5275 -30.491444
v -654.1847 -369.58676 -31.025307
v -654.1847 -373.54507 -30.799488
v -652.69476 -369.6267 -31.725266
v -652.69476 -373.58502 -31.499449
v -651.426 -369.6865 -32.773155
v -651.426 -373.64478 -32.54734
v -651.426 -369.6865 -32.773155
v -650.4582 -369.76236 -34.103138
v -651.426 -373.64478 -32.54734
v -650.4582 -373.72067 -33.87732
v -649.852 -369.84955 -35.631638
v -649.852 -373.80786 -35.405823
v -649.852 -370.03564 -38.893593
v -649.6456 -369.9426 -37.26261
v -656.2146 -369.9426 -37.26261
v -650.4582 -370.12286 -40.422092
v -651.426 -370.19873 -41.75207
v -652.69476 -370.2585 -42.799957
v -654.1847 -370.29843 -43.499916
v -655.8021 -370.316 -43.80796
v -657.4455 -370.31012 -43.704735
v -659.01154 -370.28113 -43.196728
v -660.4018 -370.2309 -42.31586
v -661.529 -370.16254 -41.117477
v -662.32227 -370.08032 -39.676876
v -662.73175 -369.9895 -38.08458
v -662.73175 -369.89572 -36.440636
v -662.32227 -369.80487 -34.84834
v -661.529 -369.7227 -33.407738
v -660.4018 -369.65433 -32.20936
v -659.01154 -369.60406 -31.328487
v -657.4455 -369.57507 -30.820482
v -655.8021 -369.5692 -30.71726
v -654.1847 -369.58676 -31.025307
v -652.69476 -369.6267 -31.725266
v -651.426 -369.6865 -32.773155
v -650.4582 -369.76236 -34.103138
v -649.852 -369.84955 -35.631638
vt 0.994674 0.49786103
vt 0.979071 0.37327003
vt 0.498042 0.49786103
vt 0.933244 0.256508
vt 0.860071 0.15490997
vt 0.764151 0.074862
vt 0.65151 0.021391988
vt 0.529226 -0.0021389723
vt 0.404982 0.005746007
vt 0.286586 0.04455298
vt 0.181477 0.11184299
vt 0.096258 0.20338702
vt 0.036285 0.31343496
vt 0.005326 0.435071
vt 0.005326 0.56065202
vt 0.036285 0.68228698
vt 0.096258 0.79233497
vt 0.181477 0.883879006
vt 0.286587 0.951169014
vt 0.404983 0.989975989
vt 0.529226 0.9978610277
vt 0.65151 0.974328995
vt 0.764151 0.92085898
vt 0.860072 0.84081101
vt 0.933244 0.739213
vt 0.979072 0.622451
vt 0.497861 0.38630998
vt 0.37327 0.38630998
vt 0.497861 0.688685
vt 0.37327 0.688685
vt 0.256508 0.38630998
vt 0.256508 0.688685
vt 0.15491 0.38630998
vt 0.15491 0.688685
vt 0.860071 0.38630998
vt 0.764151 0.38630998
vt 0.860071 0.688685
vt 0.764151 0.688685
vt 0.65151 0.38630998
vt 0.65151 0.688685
vt 0.529226 0.38630998
vt 0.529226 0.688685
vt 0.404982 0.38630998
vt 0.404982 0.688685
vt 0.286586 0.38630998
vt 0.286586 0.688685
vt 0.181477 0.38630998
vt 0.181477 0.688685
vt 0.888157 0.38630998
vt 0.796613 0.38630998
vt 0.888157 0.688685
vt 0.796613 0.688685
vt 0.686565 0.38630998
vt 0.686565 0.688685
vt 0.564929 0.38630998
vt 0.564929 0.688685
vt 0.439348 0.38630998
vt 0.439348 0.688685
vt 0.317713 0.38630998
vt 0.317713 0.688685
vt 0.207665 0.38630998
vt 0.207665 0.688685
vt 0.116121 0.38630998
vt 0.116121 0.688685
vt 0.818523 0.38630998
vt 0.713413 0.38630998
vt 0.818523 0.688685
vt 0.713413 0.688685
vt 0.595017 0.38630998
vt 0.595017 0.688685
vt 0.470774 0.38630998
vt 0.470774 0.688685
vt 0.34849 0.38630998
vt 0.34849 0.688685
vt 0.235849 0.38630998
vt 0.235849 0.688685
vt 0.139928 0.38630998
vt 0.139928 0.688685
vt 0.840811 0.38630998
vt 0.739213 0.38630998
vt 0.840811 0.688685
vt 0.739213 0.688685
vt 0.622451 0.38630998
vt 0.622451 0.688685
vt 0.020929 0.37327003
vt 0.005326 0.49786103
vt 0.501958 0.49786103
vt 0.066756 0.256508
vt 0.139929 0.15490997
vt 0.235849 0.074862
vt 0.34849 0.021391988
vt 0.470774 -0.0021389723
vt 0.595018 0.005746007
vt 0.713414 0.04455298
vt 0.818524 0.11184299
vt 0.903742 0.20338702
vt 0.963715 0.31343496
vt 0.994674 0.435071
vt 0.994674 0.56065202
vt 0.963715 0.68228698
vt 0.903742 0.79233497
vt 0.818523 0.883879006
vt 0.713413 0.951169014
vt 0.595017 0.989975989
vt 0.470774 0.9978610277
vt 0.34849 0.974328995
vt 0.235849 0.92085898
vt 0.139928 0.84081101
vt 0.066756 0.739213
vt 0.020928 0.622451
vn 0 -0.998377 0.056956
vn 0 -0.998377 0.056956
vn 0 -0.998377 0.056956
vn 0 -0.998377 0.056956
vn 0 -0.998377 0.056956
vn 0 -0.998377 0.056956
vn 0 -0.998377 0.056956
vn 0 -0.998377 0.056956
vn 0 -0.998377 0.056956
vn 0 -0.998377 0.056956
vn 0 -0.998377 0.056956
vn 0 -0.998377 0.056956
vn 0 -0.998377 0.056956
vn 0 -0.998377 0.056956
vn 0 -0.998377 0.056956
vn 0 -0.998377 0.056956
vn 0 -0.998377 0.056956
vn 0 -0.998377 0.056956
vn 0 -0.998377 0.056956
vn 0 -0.998377 0.056956
vn 0 -0.998377 0.056956
vn 0 -0.998377 0.056956
vn 0 -0.998377 0.056956
vn 0 -0.998377 0.056956
vn 0 -0.998377 0.056956
vn 0 -0.998377 0.056956
vn 1 -0 -0
vn 0.968583 -0.014164 -0.248286
vn 1 -0 -0
vn 0.968583 -0.014164 -0.248286
vn 0.876307 -0.027439 -0.480972
vn 0.876307 -0.027439 -0.480972
vn 0.728969 -0.038989 -0.683436
vn 0.728969 -0.038989 -0.683436
vn 0.728969 -0.038989 -0.683436
vn 0.535827 -0.04809 -0.842957
vn 0.728969 -0.038989 -0.683436
vn 0.535827 -0.04809 -0.842957
vn 0.309017 -0.054169 -0.949513
vn 0.309017 -0.054169 -0.949513
vn 0.06279 -0.056844 -0.996407
vn 0.06279 -0.056844 -0.996407
vn -0.187381 -0.055948 -0.980693
vn -0.187381 -0.055948 -0.980693
vn -0.425779 -0.051536 -0.903358
vn -0.425779 -0.051536 -0.903358
vn -0.637424 -0.043886 -0.769262
vn -0.637424 -0.043886 -0.769262
vn -0.637424 -0.043886 -0.769262
vn -0.809017 -0.033478 -0.586831
vn -0.637424 -0.043886 -0.769262
vn -0.809017 -0.033478 -0.586831
vn -0.929777 -0.020967 -0.367527
vn -0.929777 -0.020967 -0.367527
vn -0.992115 -0.007138 -0.125129
vn -0.992115 -0.007139 -0.125129
vn -0.992115 0.007139 0.12513
vn -0.992115 0.007139 0.12513
vn -0.929776 0.020967 0.367528
vn -0.929776 0.020967 0.367528
vn -0.809017 0.033478 0.586832
vn -0.809017 0.033478 0.586832
vn -0.637423 0.043886 0.769263
vn -0.637423 0.043886 0.769263
vn -0.637423 0.043886 0.769263
vn -0.425779 0.051536 0.903359
vn -0.637423 0.043886 0.769263
vn -0.425779 0.051536 0.903359
vn -0.18738 0.055948 0.980693
vn -0.18738 0.055948 0.980693
vn 0.062792 0.056844 0.996407
vn 0.062792 0.056844 0.996407
vn 0.309018 0.054169 0.949512
vn 0.309018 0.054169 0.949512
vn 0.535828 0.04809 0.842957
vn 0.535828 0.04809 0.842957
vn 0.72897 0.038989 0.683435
vn 0.72897 0.038989 0.683435
vn 0.72897 0.038989 0.683435
vn 0.876307 0.027439 0.480971
vn 0.72897 0.038989 0.683435
vn 0.876307 0.027439 0.480971
vn 0.968583 0.014164 0.248285
vn 0.968583 0.014164 0.248285
vn 0 0.998377 -0.056956
vn 0 0.998377 -0.056956
vn 0 0.998377 -0.056956
vn 0 0.998377 -0.056956
vn 0 0.998377 -0.056956
vn 0 0.998377 -0.056956
vn 0 0.998377 -0.056956
vn 0 0.998377 -0.056956
vn 0 0.998377 -0.056956
vn 0 0.998377 -0.056956
vn 0 0.998377 -0.056956
vn 0 0.998377 -0.056956
vn 0 0.998377 -0.056956
vn 0 0.998377 -0.056956
vn 0 0.998377 -0.056956
vn 0 0.998377 -0.056956
vn 0 0.998377 -0.056956
vn 0 0.998377 -0.056956
vn 0 0.998377 -0.056956
vn 0 0.998377 -0.056956
vn 0 0.998377 -0.056956
vn 0 0.998377 -0.056956
vn 0 0.998377 -0.056956
vn 0 0.998377 -0.056956
vn 0 0.998377 -0.056956
vn 0 0.998377 -0.056956
f 32/32/32 34/34/34 33/33/33
f 32/32/32 33/33/33 31/31/31
f 30/30/30 32/32/32 31/31/31
f 30/30/30 31/31/31 28/28/28
f 29/29/29 30/30/30 28/28/28
f 29/29/29 28/28/28 27/27/27
f 84/84/84 29/29/29 27/27/27
f 84/84/84 27/27/27 83/83/83
f 82/82/82 84/84/84 83/83/83
f 82/82/82 83/83/83 80/80/80
f 81/81/81 82/82/82 80/80/80
f 81/81/81 80/80/80 79/79/79
f 3/3/3 2/2/2 1/1/1
f 3/3/3 1/1/1 26/26/26
f 3/3/3 4/4/4 2/2/2
f 3/3/3 26/26/26 25/25/25
f 3/3/3 5/5/5 4/4/4
f 3/3/3 25/25/25 24/24/24
f 3/3/3 6/6/6 5/5/5
f 3/3/3 24/24/24 23/23/23
f 3/3/3 7/7/7 6/6/6
f 3/3/3 23/23/23 22/22/22
f 3/3/3 8/8/8 7/7/7
f 3/3/3 22/22/22 21/21/21
f 3/3/3 9/9/9 8/8/8
f 3/3/3 21/21/21 20/20/20
f 3/3/3 10/10/10 9/9/9
f 3/3/3 20/20/20 19/19/19
f 3/3/3 11/11/11 10/10/10
f 3/3/3 19/19/19 18/18/18
f 3/3/3 12/12/12 11/11/11
f 3/3/3 18/18/18 17/17/17
f 3/3/3 13/13/13 12/12/12
f 3/3/3 17/17/17 16/16/16
f 3/3/3 14/14/14 13/13/13
f 3/3/3 16/16/16 15/15/15
f 3/3/3 15/15/15 14/14/14
f 37/37/37 36/36/36 35/35/35
f 37/37/37 38/38/38 36/36/36
f 38/38/38 39/39/39 36/36/36
f 38/38/38 40/40/40 39/39/39
f 40/40/40 41/41/41 39/39/39
f 40/40/40 42/42/42 41/41/41
f 42/42/42 43/43/43 41/41/41
f 42/42/42 44/44/44 43/43/43
f 44/44/44 45/45/45 43/43/43
f 44/44/44 46/46/46 45/45/45
f 46/46/46 47/47/47 45/45/45
f 46/46/46 48/48/48 47/47/47
f 51/51/51 50/50/50 49/49/49
f 51/51/51 52/52/52 50/50/50
f 52/52/52 53/53/53 50/50/50
f 52/52/52 54/54/54 53/53/53
f 54/54/54 55/55/55 53/53/53
f 54/54/54 56/56/56 55/55/55
f 56/56/56 57/57/57 55/55/55
f 56/56/56 58/58/58 57/57/57
f 58/58/58 59/59/59 57/57/57
f 58/58/58 60/60/60 59/59/59
f 60/60/60 61/61/61 59/59/59
f 60/60/60 62/62/62 61/61/61
f 62/62/62 63/63/63 61/61/61
f 62/62/62 64/64/64 63/63/63
f 67/67/67 66/66/66 65/65/65
f 67/67/67 68/68/68 66/66/66
f 68/68/68 69/69/69 66/66/66
f 68/68/68 70/70/70 69/69/69
f 70/70/70 71/71/71 69/69/69
f 70/70/70 72/72/72 71/71/71
f 72/72/72 73/73/73 71/71/71
f 72/72/72 74/74/74 73/73/73
f 74/74/74 75/75/75 73/73/73
f 74/74/74 76/76/76 75/75/75
f 76/76/76 77/77/77 75/75/75
f 76/76/76 78/78/78 77/77/77
f 87/87/87 86/86/86 85/85/85
f 87/87/87 85/85/85 88/88/88
f 87/87/87 110/110/110 86/86/86
f 87/87/87 88/88/88 89/89/89
f 87/87/87 109/109/109 110/110/110
f 87/87/87 89/89/89 90/90/90
f 87/87/87 108/108/108 109/109/109
f 87/87/87 90/90/90 91/91/91
f 87/87/87 107/107/107 108/108/108
f 87/87/87 91/91/91 92/92/92
f 87/87/87 106/106/106 107/107/107
f 87/87/87 92/92/92 93/93/93
f 87/87/87 105/105/105 106/106/106
f 87/87/87 93/93/93 94/94/94
f 87/87/87 104/104/104 105/105/105
f 87/87/87 94/94/94 95/95/95
f 87/87/87 103/103/103 104/104/104
f 87/87/87 95/95/95 96/96/96
f 87/87/87 102/102/102 103/103/103
f 87/87/87 96/96/96 97/97/97
f 87/87/87 101/101/101 102/102/102
f 87/87/87 97/97/97 98/98/98
f 87/87/87 100/100/100 101/101/101
f 87/87/87 98/98/98 99/99/99
f 87/87/87 99/99/99 100/100/100
