# VPXTOOL table OBJ file
# VPXTOOL OBJ file
# numVerts: 48 numFaces: 72
o PinCab_CoinInsertsOpen
v 415.9908447265625 106.18620300292969 -12.834228515625
v 349.87060546875 106.18620300292969 -12.834228515625
v 349.87060546875 37.97642517089844 7.0322265625
v 415.9908447265625 37.97642517089844 7.0322265625
v 415.9908447265625 107.42445373535156 -8.5830078125
v 415.9908447265625 39.21464538574219 11.283447265625
v 349.87060546875 39.21464538574219 11.283447265625
v 349.87060546875 107.42445373535156 -8.5830078125
v 415.9908447265625 39.21464538574219 11.283447265625
v 415.9908447265625 37.97642517089844 7.0322265625
v 349.87060546875 37.97642517089844 7.0322265625
v 349.87060546875 39.21464538574219 11.283447265625
v 415.9908447265625 107.42445373535156 -8.5830078125
v 415.9908447265625 106.18620300292969 -12.834228515625
v 415.9908447265625 37.97642517089844 7.0322265625
v 415.9908447265625 39.21464538574219 11.283447265625
v 349.87060546875 107.42445373535156 -8.5830078125
v 349.87060546875 106.18620300292969 -12.834228515625
v 415.9908447265625 106.18620300292969 -12.834228515625
v 415.9908447265625 107.42445373535156 -8.5830078125
v 349.87060546875 39.21464538574219 11.283447265625
v 349.87060546875 37.97642517089844 7.0322265625
v 349.87060546875 106.18620300292969 -12.834228515625
v 349.87060546875 107.42445373535156 -8.5830078125
v 224.3433837890625 106.18620300292969 -12.834228515625
v 158.22314453125 106.18620300292969 -12.834228515625
v 158.22314453125 37.97642517089844 7.0322265625
v 224.3433837890625 37.97642517089844 7.0322265625
v 224.3433837890625 107.42445373535156 -8.5830078125
v 224.3433837890625 39.21464538574219 11.283447265625
v 158.22314453125 39.21464538574219 11.283447265625
v 158.22314453125 107.42445373535156 -8.5830078125
v 224.3433837890625 39.21464538574219 11.283447265625
v 224.3433837890625 37.97642517089844 7.0322265625
v 158.22314453125 37.97642517089844 7.0322265625
v 158.22314453125 39.21464538574219 11.283447265625
v 224.3433837890625 107.42445373535156 -8.5830078125
v 224.3433837890625 106.18620300292969 -12.834228515625
v 224.3433837890625 37.97642517089844 7.0322265625
v 224.3433837890625 39.21464538574219 11.283447265625
v 158.22314453125 107.42445373535156 -8.5830078125
v 158.22314453125 106.18620300292969 -12.834228515625
v 224.3433837890625 106.18620300292969 -12.834228515625
v 224.3433837890625 107.42445373535156 -8.5830078125
v 158.22314453125 39.21464538574219 11.283447265625
v 158.22314453125 37.97642517089844 7.0322265625
v 158.22314453125 106.18620300292969 -12.834228515625
v 158.22314453125 107.42445373535156 -8.5830078125
vt 0.9930149912834167 0.9828169941902161
vt -0.04671299830079079 0.9828169941902161
vt -0.04671299830079079 0.07583701610565186
vt 0.9930149912834167 0.07583701610565186
vt 0.006984999869018793 1.0024369955062866
vt 0.006984999869018793 0.09545701742172241
vt 1.0467129945755005 0.09545701742172241
vt 1.0467129945755005 1.0024369955062866
vt 0.9930149912834167 1.382638931274414
vt 0.9930149912834167 1.439168930053711
vt -0.04671299830079079 1.439168930053711
vt -0.04671299830079079 1.382638931274414
vt -0.6974260210990906 1.0024369955062866
vt -0.7539560198783875 0.9828169941902161
vt -0.4391689896583557 0.07583701610565186
vt -0.38263899087905884 0.09545701742172241
vt 1.0467129945755005 1.6974260807037354
vt 1.0467129945755005 1.7539560794830322
vt 0.006984999869018793 1.7539560794830322
vt 0.006984999869018793 1.6974260807037354
vt 1.3826390504837036 0.09545701742172241
vt 1.4391690492630005 0.07583701610565186
vt 1.7539559602737427 0.9828169941902161
vt 1.6974259614944458 1.0024369955062866
vt -2.0206050872802734 0.9828169941902161
vt -3.060333013534546 0.9828169941902161
vt -3.060333013534546 0.07583701610565186
vt -2.0206050872802734 0.07583701610565186
vt 3.0206050872802734 1.0024369955062866
vt 3.0206050872802734 0.09545701742172241
vt 4.060332775115967 0.09545701742172241
vt 4.060332775115967 1.0024369955062866
vt -2.0206050872802734 1.382638931274414
vt -2.0206050872802734 1.439168930053711
vt -3.060333013534546 1.439168930053711
vt -3.060333013534546 1.382638931274414
vt -0.6974260210990906 1.0024369955062866
vt -0.7539560198783875 0.9828169941902161
vt -0.4391689896583557 0.07583701610565186
vt -0.38263899087905884 0.09545701742172241
vt 4.060332775115967 1.6974260807037354
vt 4.060332775115967 1.7539560794830322
vt 3.0206050872802734 1.7539560794830322
vt 3.0206050872802734 1.6974260807037354
vt 1.3826390504837036 0.09545701742172241
vt 1.4391690492630005 0.07583701610565186
vt 1.7539559602737427 0.9828169941902161
vt 1.6974259614944458 1.0024369955062866
vn 0 -0.36889952421188354 -0.9294692873954773
vn 0 -0.36889952421188354 -0.9294692873954773
vn 0 -0.36889952421188354 -0.9294692873954773
vn 0 -0.36889952421188354 -0.9294692873954773
vn 0 0.36889952421188354 0.9294692873954773
vn 0 0.36889952421188354 0.9294692873954773
vn 0 0.36889952421188354 0.9294692873954773
vn 0 0.36889952421188354 0.9294692873954773
vn 0 -0.9294692873954773 0.36889952421188354
vn 0 -0.9294692873954773 0.36889952421188354
vn 0 -0.9294692873954773 0.36889952421188354
vn 0 -0.9294692873954773 0.36889952421188354
vn 1 0 0
vn 1 0 0
vn 1 0 0
vn 1 0 0
vn 0 0.9294692873954773 -0.36889952421188354
vn 0 0.9294692873954773 -0.36889952421188354
vn 0 0.9294692873954773 -0.36889952421188354
vn 0 0.9294692873954773 -0.36889952421188354
vn -1 0 0
vn -1 0 0
vn -1 0 0
vn -1 0 0
vn 0 -0.3689005374908447 -0.9294692873954773
vn 0 -0.3689005374908447 -0.9294692873954773
vn 0 -0.3689005374908447 -0.9294692873954773
vn 0 -0.3689005374908447 -0.9294692873954773
vn 0 0.3689005374908447 0.9294692873954773
vn 0 0.3689005374908447 0.9294692873954773
vn 0 0.3689005374908447 0.9294692873954773
vn 0 0.3689005374908447 0.9294692873954773
vn 0 -0.9294682741165161 0.3689015209674835
vn 0 -0.9294682741165161 0.3689015209674835
vn 0 -0.9294682741165161 0.3689015209674835
vn 0 -0.9294682741165161 0.3689015209674835
vn 1 0 0
vn 1 0 0
vn 1 0 0
vn 1 0 0
vn 0 0.9294673204421997 -0.3689035177230835
vn 0 0.9294673204421997 -0.3689035177230835
vn 0 0.9294673204421997 -0.3689035177230835
vn 0 0.9294673204421997 -0.3689035177230835
vn -1 0 0
vn -1 0 0
vn -1 0 0
vn -1 0 0
f 3/3/3 2/2/2 1/1/1
f 1/1/1 4/4/4 3/3/3
f 7/7/7 6/6/6 5/5/5
f 5/5/5 8/8/8 7/7/7
f 11/11/11 10/10/10 9/9/9
f 9/9/9 12/12/12 11/11/11
f 15/15/15 14/14/14 13/13/13
f 13/13/13 16/16/16 15/15/15
f 19/19/19 18/18/18 17/17/17
f 17/17/17 20/20/20 19/19/19
f 23/23/23 22/22/22 21/21/21
f 21/21/21 24/24/24 23/23/23
f 27/27/27 26/26/26 25/25/25
f 25/25/25 28/28/28 27/27/27
f 31/31/31 30/30/30 29/29/29
f 29/29/29 32/32/32 31/31/31
f 35/35/35 34/34/34 33/33/33
f 33/33/33 36/36/36 35/35/35
f 39/39/39 38/38/38 37/37/37
f 37/37/37 40/40/40 39/39/39
f 43/43/43 42/42/42 41/41/41
f 41/41/41 44/44/44 43/43/43
f 47/47/47 46/46/46 45/45/45
f 45/45/45 48/48/48 47/47/47
