# VPXTOOL table OBJ file
# VPXTOOL OBJ file
# numVerts: 153 numFaces: 144
o Primitive29
v -0 2.3 -0.256
v -0 2.22 -0.256
v 0.097967 2.22 -0.236513
v 0.097967 2.3 -0.236513
v 0.181019 2.22 -0.181019
v 0.181019 2.3 -0.181019
v 0.236513 2.22 -0.097967
v 0.236513 2.3 -0.097967
v 0.256 2.22 0
v 0.256 2.3 0
v 0.256 2.3 0
v 0.256 2.22 0
v 0.236513 2.22 0.097967
v 0.236513 2.3 0.097967
v 0.181019 2.22 0.181019
v 0.181019 2.3 0.181019
v 0.097967 2.22 0.236513
v 0.097967 2.3 0.236513
v -0 2.22 0.256
v -0 2.3 0.256
v -0.097967 2.22 0.236513
v -0.097967 2.3 0.236513
v -0.181019 2.22 0.181019
v -0.181019 2.3 0.181019
v -0.236513 2.22 0.097967
v -0.236513 2.3 0.097967
v -0.256 2.22 0
v -0.256 2.3 0
v -0.236513 2.22 -0.097967
v -0.236513 2.3 -0.097967
v -0.181019 2.22 -0.181019
v -0.181019 2.3 -0.181019
v -0.097967 2.22 -0.236513
v -0.097967 2.3 -0.236513
v -0 2.3 0
v -0 2.3 -0.256
v 0.097967 2.3 -0.236513
v 0.181019 2.3 -0.181019
v 0.236513 2.3 -0.097967
v 0.256 2.3 0
v 0.236513 2.3 0.097967
v 0.181019 2.3 0.181019
v 0.097967 2.3 0.236513
v -0 2.3 0.256
v -0.097967 2.3 0.236513
v -0.181019 2.3 0.181019
v -0.236513 2.3 0.097967
v -0.256 2.3 0
v -0.236513 2.3 -0.097967
v -0.181019 2.3 -0.181019
v -0.097967 2.3 -0.236513
v -0 0.22 -0.376
v -0 -0.02 -0.376
v 0.143889 -0.02 -0.347379
v 0.143889 0.22 -0.347379
v 0.265872 -0.02 -0.265872
v 0.265872 0.22 -0.265872
v 0.347379 -0.02 -0.143889
v 0.347379 0.22 -0.143889
v 0.376 -0.02 0
v 0.376 0.22 0
v 0.376 0.22 0
v 0.376 -0.02 0
v 0.347379 -0.02 0.143889
v 0.347379 0.22 0.143889
v 0.265872 -0.02 0.265872
v 0.265872 0.22 0.265872
v 0.143889 -0.02 0.347379
v 0.143889 0.22 0.347379
v -0 -0.02 0.376
v -0 0.22 0.376
v -0.143889 -0.02 0.347379
v -0.143889 0.22 0.347379
v -0.265872 -0.02 0.265872
v -0.265872 0.22 0.265872
v -0.347379 -0.02 0.143889
v -0.347379 0.22 0.143889
v -0.376 -0.02 0
v -0.376 0.22 0
v -0.347379 -0.02 -0.143889
v -0.347379 0.22 -0.143889
v -0.265872 -0.02 -0.265872
v -0.265872 0.22 -0.265872
v -0.143889 -0.02 -0.347379
v -0.143889 0.22 -0.347379
v -0 2.22 -0.44
v -0 0.22 -0.44
v 0.168381 0.22 -0.406507
v 0.168381 2.22 -0.406507
v 0.311127 0.22 -0.311127
v 0.311127 2.22 -0.311127
v 0.406507 0.22 -0.168381
v 0.406507 2.22 -0.168381
v 0.44 0.22 0
v 0.44 2.22 0
v 0.44 2.22 0
v 0.44 0.22 0
v 0.406507 0.22 0.168381
v 0.406507 2.22 0.168381
v 0.311127 0.22 0.311127
v 0.311127 2.22 0.311127
v 0.168381 0.22 0.406507
v 0.168381 2.22 0.406507
v -0 0.22 0.44
v -0 2.22 0.44
v -0.168381 0.22 0.406507
v -0.168381 2.22 0.406507
v -0.311127 0.22 0.311127
v -0.311127 2.22 0.311127
v -0.406507 0.22 0.168381
v -0.406507 2.22 0.168381
v -0.44 0.22 0
v -0.44 2.22 0
v -0.406507 0.22 -0.168381
v -0.406507 2.22 -0.168381
v -0.311127 0.22 -0.311127
v -0.311127 2.22 -0.311127
v -0.168381 0.22 -0.406507
v -0.168381 2.22 -0.406507
v -0 2.22 0
v -0 2.22 -0.44
v 0.168381 2.22 -0.406507
v 0.311127 2.22 -0.311127
v 0.406507 2.22 -0.168381
v 0.44 2.22 0
v 0.406507 2.22 0.168381
v 0.311127 2.22 0.311127
v 0.168381 2.22 0.406507
v -0 2.22 0.44
v -0.168381 2.22 0.406507
v -0.311127 2.22 0.311127
v -0.406507 2.22 0.168381
v -0.44 2.22 0
v -0.406507 2.22 -0.168381
v -0.311127 2.22 -0.311127
v -0.168381 2.22 -0.406507
v -0 0.22 0
v 0.168381 0.22 -0.406507
v -0 0.22 -0.44
v 0.311127 0.22 -0.311127
v 0.406507 0.22 -0.168381
v 0.44 0.22 0
v 0.406507 0.22 0.168381
v 0.311127 0.22 0.311127
v 0.168381 0.22 0.406507
v -0 0.22 0.44
v -0.168381 0.22 0.406507
v -0.311127 0.22 0.311127
v -0.406507 0.22 0.168381
v -0.44 0.22 0
v -0.406507 0.22 -0.168381
v -0.311127 0.22 -0.311127
v -0.168381 0.22 -0.406507
vt 0.25 0.66500002
vt 0.25 0.636667
vt 0.1875 0.636667
vt 0.1875 0.66500002
vt 0.125 0.636667
vt 0.125 0.66500002
vt 0.0625 0.636667
vt 0.0625 0.66500002
vt 0 0.636667
vt 0 0.66500002
vt 1 0.66500002
vt 1 0.636667
vt 0.9375 0.636667
vt 0.9375 0.66500002
vt 0.875 0.636667
vt 0.875 0.66500002
vt 0.8125 0.636667
vt 0.8125 0.66500002
vt 0.75 0.636667
vt 0.75 0.66500002
vt 0.6875 0.636667
vt 0.6875 0.66500002
vt 0.625 0.636667
vt 0.625 0.66500002
vt 0.5625 0.636667
vt 0.5625 0.66500002
vt 0.5 0.636667
vt 0.5 0.66500002
vt 0.4375 0.636667
vt 0.4375 0.66500002
vt 0.375 0.636667
vt 0.375 0.66500002
vt 0.3125 0.636667
vt 0.3125 0.66500002
vt 0.834622 0.83887798
vt 0.977932 0.83887798
vt 0.967023 0.78403598
vt 0.935957 0.737543
vt 0.889464 0.706477
vt 0.834622 0.69556898
vt 0.77978 0.706477
vt 0.733287 0.737543
vt 0.702222 0.78403598
vt 0.691313 0.83887798
vt 0.702222 0.89371997
vt 0.733287 0.940213025
vt 0.77978 0.971279025
vt 0.834622 0.982187986
vt 0.889464 0.971279025
vt 0.935957 0.940213025
vt 0.967023 0.89371997
vt 0.25 0.037
vt 0.25 0
vt 0.1875 0
vt 0.1875 0.037
vt 0.125 0
vt 0.125 0.037
vt 0.0625 0
vt 0.0625 0.037
vt 0 0
vt 0 0.037
vt 1 0.037
vt 1 0
vt 0.9375 0
vt 0.9375 0.037
vt 0.875 0
vt 0.875 0.037
vt 0.8125 0
vt 0.8125 0.037
vt 0.75 0
vt 0.75 0.037
vt 0.6875 0
vt 0.6875 0.037
vt 0.625 0
vt 0.625 0.037
vt 0.5625 0
vt 0.5625 0.037
vt 0.5 0
vt 0.5 0.037
vt 0.4375 0
vt 0.4375 0.037
vt 0.375 0
vt 0.375 0.037
vt 0.3125 0
vt 0.3125 0.037
vt 0.25 0.622667
vt 0.25 0.051
vt 0.1875 0.051
vt 0.1875 0.622667
vt 0.125 0.051
vt 0.125 0.622667
vt 0.0625 0.051
vt 0.0625 0.622667
vt 0 0.051
vt 0 0.622667
vt 1 0.622667
vt 1 0.051
vt 0.9375 0.051
vt 0.9375 0.622667
vt 0.875 0.051
vt 0.875 0.622667
vt 0.8125 0.051
vt 0.8125 0.622667
vt 0.75 0.051
vt 0.75 0.622667
vt 0.6875 0.051
vt 0.6875 0.622667
vt 0.625 0.051
vt 0.625 0.622667
vt 0.5625 0.051
vt 0.5625 0.622667
vt 0.5 0.051
vt 0.5 0.622667
vt 0.4375 0.051
vt 0.4375 0.622667
vt 0.375 0.051
vt 0.375 0.622667
vt 0.3125 0.051
vt 0.3125 0.622667
vt 0.494622 0.83887798
vt 0.647563 0.83887798
vt 0.635921 0.78035003
vt 0.602768 0.73073298
vt 0.55315 0.69757903
vt 0.494622 0.685937
vt 0.436094 0.69757903
vt 0.386477 0.73073298
vt 0.353323 0.78035003
vt 0.341681 0.83887798
vt 0.353323 0.89740598
vt 0.386477 0.947023988
vt 0.436094 0.980177999
vt 0.494622 0.991819978
vt 0.55315 0.980177999
vt 0.602768 0.947023988
vt 0.635921 0.89740598
vt 0.159622 0.83925998
vt 0.300921 0.89778799
vt 0.312563 0.83925998
vt 0.267768 0.947405994
vt 0.21815 0.980560005
vt 0.159622 0.992201984
vt 0.101094 0.980560005
vt 0.051477 0.947405994
vt 0.018323 0.89778799
vt 0.006681 0.83925998
vt 0.018323 0.78073198
vt 0.051477 0.73111498
vt 0.101094 0.69796097
vt 0.159622 0.686319
vt 0.21815 0.69796097
vt 0.267768 0.73111498
vt 0.300921 0.78073198
vn 0 0 -1
vn 0 0 -1
vn 0.382672 0 -0.923856
vn 0.382672 0 -0.923856
vn 0.707083 0 -0.707083
vn 0.707083 0 -0.707083
vn 0.923856 0 -0.382672
vn 0.923856 0 -0.382672
vn 1 0 0
vn 1 0 0
vn 1 0 0
vn 1 0 0
vn 0.923856 0 0.382672
vn 0.923856 0 0.382672
vn 0.707083 0 0.707083
vn 0.707083 0 0.707083
vn 0.382672 0 0.923856
vn 0.382672 0 0.923856
vn 0 0 1
vn 0 0 1
vn -0.382672 0 0.923856
vn -0.382672 0 0.923856
vn -0.707083 0 0.707083
vn -0.707083 0 0.707083
vn -0.923856 0 0.382672
vn -0.923856 0 0.382672
vn -1 0 0
vn -1 0 0
vn -0.923856 0 -0.382672
vn -0.923856 0 -0.382672
vn -0.707083 0 -0.707083
vn -0.707083 0 -0.707083
vn -0.382672 0 -0.923856
vn -0.382672 0 -0.923856
vn 0 1 0
vn 0 1 0
vn 0 1 0
vn 0 1 0
vn 0 1 0
vn 0 1 0
vn 0 1 0
vn 0 1 0
vn 0 1 0
vn 0 1 0
vn 0 1 0
vn 0 1 0
vn 0 1 0
vn 0 1 0
vn 0 1 0
vn 0 1 0
vn 0 1 0
vn 0 0 -1
vn 0 0 -1
vn 0.382672 0 -0.923856
vn 0.382672 0 -0.923856
vn 0.707083 0 -0.707083
vn 0.707083 0 -0.707083
vn 0.923856 0 -0.382672
vn 0.923856 0 -0.382672
vn 1 0 0
vn 1 0 0
vn 1 0 0
vn 1 0 0
vn 0.923856 0 0.382672
vn 0.923856 0 0.382672
vn 0.707083 0 0.707083
vn 0.707083 0 0.707083
vn 0.382672 0 0.923856
vn 0.382672 0 0.923856
vn 0 0 1
vn 0 0 1
vn -0.382672 0 0.923856
vn -0.382672 0 0.923856
vn -0.707083 0 0.707083
vn -0.707083 0 0.707083
vn -0.923856 0 0.382672
vn -0.923856 0 0.382672
vn -1 0 0
vn -1 0 0
vn -0.923856 0 -0.382672
vn -0.923856 0 -0.382672
vn -0.707083 0 -0.707083
vn -0.707083 0 -0.707083
vn -0.382672 0 -0.923856
vn -0.382672 0 -0.923856
vn 0 0 -1
vn 0 0 -1
vn 0.382672 0 -0.923856
vn 0.382672 0 -0.923856
vn 0.707083 0 -0.707083
vn 0.707083 0 -0.707083
vn 0.923856 0 -0.382672
vn 0.923856 0 -0.382672
vn 1 0 0
vn 1 0 0
vn 1 0 0
vn 1 0 0
vn 0.923856 0 0.382672
vn 0.923856 0 0.382672
vn 0.707083 0 0.707083
vn 0.707083 0 0.707083
vn 0.382672 0 0.923856
vn 0.382672 0 0.923856
vn 0 0 1
vn 0 0 1
vn -0.382672 0 0.923856
vn -0.382672 0 0.923856
vn -0.707083 0 0.707083
vn -0.707083 0 0.707083
vn -0.923856 0 0.382672
vn -0.923856 0 0.382672
vn -1 0 0
vn -1 0 0
vn -0.923856 0 -0.382672
vn -0.923856 0 -0.382672
vn -0.707083 0 -0.707083
vn -0.707083 0 -0.707083
vn -0.382672 0 -0.923856
vn -0.382672 0 -0.923856
vn 0 1 0
vn 0 1 0
vn 0 1 0
vn 0 1 0
vn 0 1 0
vn 0 1 0
vn 0 1 0
vn 0 1 0
vn 0 1 0
vn 0 1 0
vn 0 1 0
vn 0 1 0
vn 0 1 0
vn 0 1 0
vn 0 1 0
vn 0 1 0
vn 0 1 0
vn 0 -1 0
vn 0 -1 0
vn 0 -1 0
vn 0 -1 0
vn 0 -1 0
vn 0 -1 0
vn 0 -1 0
vn 0 -1 0
vn 0 -1 0
vn 0 -1 0
vn 0 -1 0
vn 0 -1 0
vn 0 -1 0
vn 0 -1 0
vn 0 -1 0
vn 0 -1 0
vn 0 -1 0
f 8/8/8 10/10/10 9/9/9
f 9/9/9 7/7/7 8/8/8
f 6/6/6 8/8/8 7/7/7
f 7/7/7 5/5/5 6/6/6
f 4/4/4 6/6/6 5/5/5
f 5/5/5 3/3/3 4/4/4
f 1/1/1 4/4/4 3/3/3
f 3/3/3 2/2/2 1/1/1
f 34/34/34 1/1/1 2/2/2
f 2/2/2 33/33/33 34/34/34
f 32/32/32 34/34/34 33/33/33
f 33/33/33 31/31/31 32/32/32
f 30/30/30 32/32/32 31/31/31
f 31/31/31 29/29/29 30/30/30
f 28/28/28 30/30/30 29/29/29
f 29/29/29 27/27/27 28/28/28
f 26/26/26 28/28/28 27/27/27
f 27/27/27 25/25/25 26/26/26
f 24/24/24 26/26/26 25/25/25
f 25/25/25 23/23/23 24/24/24
f 22/22/22 24/24/24 23/23/23
f 23/23/23 21/21/21 22/22/22
f 20/20/20 22/22/22 21/21/21
f 21/21/21 19/19/19 20/20/20
f 18/18/18 20/20/20 19/19/19
f 19/19/19 17/17/17 18/18/18
f 16/16/16 18/18/18 17/17/17
f 17/17/17 15/15/15 16/16/16
f 14/14/14 16/16/16 15/15/15
f 15/15/15 13/13/13 14/14/14
f 11/11/11 14/14/14 13/13/13
f 13/13/13 12/12/12 11/11/11
f 37/37/37 36/36/36 35/35/35
f 36/36/36 51/51/51 35/35/35
f 38/38/38 37/37/37 35/35/35
f 51/51/51 50/50/50 35/35/35
f 39/39/39 38/38/38 35/35/35
f 50/50/50 49/49/49 35/35/35
f 40/40/40 39/39/39 35/35/35
f 49/49/49 48/48/48 35/35/35
f 41/41/41 40/40/40 35/35/35
f 48/48/48 47/47/47 35/35/35
f 42/42/42 41/41/41 35/35/35
f 47/47/47 46/46/46 35/35/35
f 43/43/43 42/42/42 35/35/35
f 46/46/46 45/45/45 35/35/35
f 44/44/44 43/43/43 35/35/35
f 45/45/45 44/44/44 35/35/35
f 54/54/54 53/53/53 52/52/52
f 52/52/52 55/55/55 54/54/54
f 85/85/85 52/52/52 53/53/53
f 56/56/56 54/54/54 55/55/55
f 53/53/53 84/84/84 85/85/85
f 55/55/55 57/57/57 56/56/56
f 83/83/83 85/85/85 84/84/84
f 58/58/58 56/56/56 57/57/57
f 84/84/84 82/82/82 83/83/83
f 57/57/57 59/59/59 58/58/58
f 81/81/81 83/83/83 82/82/82
f 60/60/60 58/58/58 59/59/59
f 59/59/59 61/61/61 60/60/60
f 82/82/82 80/80/80 81/81/81
f 79/79/79 81/81/81 80/80/80
f 80/80/80 78/78/78 79/79/79
f 77/77/77 79/79/79 78/78/78
f 78/78/78 76/76/76 77/77/77
f 75/75/75 77/77/77 76/76/76
f 76/76/76 74/74/74 75/75/75
f 73/73/73 75/75/75 74/74/74
f 74/74/74 72/72/72 73/73/73
f 71/71/71 73/73/73 72/72/72
f 72/72/72 70/70/70 71/71/71
f 69/69/69 71/71/71 70/70/70
f 70/70/70 68/68/68 69/69/69
f 67/67/67 69/69/69 68/68/68
f 68/68/68 66/66/66 67/67/67
f 65/65/65 67/67/67 66/66/66
f 66/66/66 64/64/64 65/65/65
f 62/62/62 65/65/65 64/64/64
f 64/64/64 63/63/63 62/62/62
f 88/88/88 87/87/87 86/86/86
f 86/86/86 89/89/89 88/88/88
f 119/119/119 86/86/86 87/87/87
f 90/90/90 88/88/88 89/89/89
f 87/87/87 118/118/118 119/119/119
f 89/89/89 91/91/91 90/90/90
f 117/117/117 119/119/119 118/118/118
f 92/92/92 90/90/90 91/91/91
f 118/118/118 116/116/116 117/117/117
f 91/91/91 93/93/93 92/92/92
f 115/115/115 117/117/117 116/116/116
f 94/94/94 92/92/92 93/93/93
f 93/93/93 95/95/95 94/94/94
f 116/116/116 114/114/114 115/115/115
f 113/113/113 115/115/115 114/114/114
f 114/114/114 112/112/112 113/113/113
f 111/111/111 113/113/113 112/112/112
f 112/112/112 110/110/110 111/111/111
f 109/109/109 111/111/111 110/110/110
f 110/110/110 108/108/108 109/109/109
f 107/107/107 109/109/109 108/108/108
f 108/108/108 106/106/106 107/107/107
f 105/105/105 107/107/107 106/106/106
f 106/106/106 104/104/104 105/105/105
f 103/103/103 105/105/105 104/104/104
f 104/104/104 102/102/102 103/103/103
f 101/101/101 103/103/103 102/102/102
f 102/102/102 100/100/100 101/101/101
f 99/99/99 101/101/101 100/100/100
f 100/100/100 98/98/98 99/99/99
f 96/96/96 99/99/99 98/98/98
f 98/98/98 97/97/97 96/96/96
f 122/122/122 121/121/121 120/120/120
f 121/121/121 136/136/136 120/120/120
f 123/123/123 122/122/122 120/120/120
f 136/136/136 135/135/135 120/120/120
f 124/124/124 123/123/123 120/120/120
f 135/135/135 134/134/134 120/120/120
f 125/125/125 124/124/124 120/120/120
f 134/134/134 133/133/133 120/120/120
f 126/126/126 125/125/125 120/120/120
f 133/133/133 132/132/132 120/120/120
f 127/127/127 126/126/126 120/120/120
f 132/132/132 131/131/131 120/120/120
f 128/128/128 127/127/127 120/120/120
f 131/131/131 130/130/130 120/120/120
f 129/129/129 128/128/128 120/120/120
f 130/130/130 129/129/129 120/120/120
f 139/139/139 138/138/138 137/137/137
f 153/153/153 139/139/139 137/137/137
f 138/138/138 140/140/140 137/137/137
f 152/152/152 153/153/153 137/137/137
f 140/140/140 141/141/141 137/137/137
f 151/151/151 152/152/152 137/137/137
f 141/141/141 142/142/142 137/137/137
f 150/150/150 151/151/151 137/137/137
f 142/142/142 143/143/143 137/137/137
f 149/149/149 150/150/150 137/137/137
f 143/143/143 144/144/144 137/137/137
f 148/148/148 149/149/149 137/137/137
f 144/144/144 145/145/145 137/137/137
f 147/147/147 148/148/148 137/137/137
f 145/145/145 146/146/146 137/137/137
f 146/146/146 147/147/147 137/137/137
