# VPXTOOL table OBJ file
# VPXTOOL OBJ file
# numVerts: 24 numFaces: 12
o VR_Wall_Right
v -0.523971 -1.993318 1.369175
v -5.013966 -1.638747 -3.727725
v -5.022161 3.588707 -3.356851
v -0.532168 3.234136 1.740049
v -0.465508 -1.987002 1.318113
v -0.473704 3.240451 1.688986
v -4.963698 3.595022 -3.407914
v -4.955502 -1.632431 -3.778787
v -0.473704 3.240451 1.688986
v -0.532168 3.234136 1.740049
v -5.022161 3.588707 -3.356851
v -4.963698 3.595022 -3.407914
v -0.465508 -1.987002 1.318113
v -0.523971 -1.993318 1.369175
v -0.532168 3.234136 1.740049
v -0.473704 3.240451 1.688986
v -4.955502 -1.632431 -3.778787
v -5.013966 -1.638747 -3.727725
v -0.523971 -1.993318 1.369175
v -0.465508 -1.987002 1.318113
v -4.963698 3.595022 -3.407914
v -5.022161 3.588707 -3.356851
v -5.013966 -1.638747 -3.727725
v -4.955502 -1.632431 -3.778787
vt 0.994564 1
vt 0.005436 1
vt 0.005436 0
vt 0.994564 0
vt 0.994564 1
vt 0.994564 0
vt 0.005436 0
vt 0.005436 1
vt 0.994564 0
vt 0.994564 0
vt 0.005436 0
vt 0.005436 0
vt 0.994564 1
vt 0.994564 1
vt 0.994564 0
vt 0.994564 0
vt 0.005436 1
vt 0.005436 1
vt 0.994564 1
vt 0.994564 1
vt 0.005436 0
vt 0.005436 0
vt 0.005436 1
vt 0.005436 1
vn -0.7505 -0.0864 0.6552
vn -0.7505 -0.0864 0.6552
vn -0.7505 -0.0864 0.6552
vn -0.7505 -0.0864 0.6552
vn 0.7505 0.0864 -0.6552
vn 0.7505 0.0864 -0.6552
vn 0.7505 0.0864 -0.6552
vn 0.7505 0.0864 -0.6552
vn 0.0024 0.9977 0.0673
vn 0.0024 0.9977 0.0673
vn 0.0024 0.9977 0.0673
vn 0.0024 0.9977 0.0673
vn 0.6601 -0.0521 0.7493
vn 0.6601 -0.0521 0.7493
vn 0.6601 -0.0521 0.7493
vn 0.6601 -0.0521 0.7493
vn -0.0024 -0.9977 -0.0673
vn -0.0024 -0.9977 -0.0673
vn -0.0024 -0.9977 -0.0673
vn -0.0024 -0.9977 -0.0673
vn -0.6601 0.0521 -0.7493
vn -0.6601 0.0521 -0.7493
vn -0.6601 0.0521 -0.7494
vn -0.6601 0.0521 -0.7494
f 3/3/3 2/2/2 1/1/1
f 1/1/1 4/4/4 3/3/3
f 7/7/7 6/6/6 5/5/5
f 5/5/5 8/8/8 7/7/7
f 11/11/11 10/10/10 9/9/9
f 9/9/9 12/12/12 11/11/11
f 15/15/15 14/14/14 13/13/13
f 13/13/13 16/16/16 15/15/15
f 19/19/19 18/18/18 17/17/17
f 17/17/17 20/20/20 19/19/19
f 23/23/23 22/22/22 21/21/21
f 21/21/21 24/24/24 23/23/23
