# VPXTOOL table OBJ file
# VPXTOOL OBJ file
# numVerts: 714 numFaces: 434
o PinCab_StartButtonOuter
v -653.80505 -375.85184 -25.316032
v -656.2146 -375.83725 -25.07144
v -656.2146 -364.68118 -25.737175
v -653.80505 -364.69577 -25.98177
v -654.16626 -375.95654 -27.070549
v -656.2146 -375.94412 -26.862621
v -656.2146 -375.83725 -25.07144
v -653.80505 -375.85184 -25.316032
v -654.27844 -364.833 -28.281218
v -656.2146 -364.82126 -28.084677
v -656.2146 -375.4383 -27.451109
v -654.27844 -375.45 -27.64765
v -653.80505 -364.69577 -25.98177
v -656.2146 -364.68118 -25.737175
v -656.2146 -364.82126 -28.084677
v -654.27844 -364.833 -28.281218
v -651.49414 -375.89502 -26.039803
v -651.49414 -364.73895 -26.705538
v -652.2017 -375.99326 -27.685823
v -651.49414 -375.89502 -26.039803
v -652.4215 -364.8677 -28.862793
v -652.4215 -375.48474 -28.229225
v -651.49414 -364.73895 -26.705538
v -652.4215 -364.8677 -28.862793
v -649.37646 -375.96506 -27.213114
v -649.37646 -364.809 -27.878849
v -650.4015 -376.0528 -28.68325
v -649.37646 -375.96506 -27.213114
v -650.7199 -364.92395 -29.805592
v -650.7199 -375.541 -29.172024
v -649.37646 -364.809 -27.878849
v -650.7199 -364.92395 -29.805592
v -647.53876 -376.05902 -28.787933
v -647.53876 -364.90295 -29.453669
v -648.8393 -376.13266 -30.022
v -647.53876 -376.05902 -28.787933
v -649.2432 -364.99948 -31.07102
v -649.2432 -375.61652 -30.437452
v -647.53876 -364.90295 -29.453669
v -649.2432 -364.99948 -31.07102
v -646.0562 -376.17313 -30.699787
v -646.0562 -365.01706 -31.365522
v -647.579 -376.22964 -31.647259
v -646.0562 -376.17313 -30.699787
v -648.05194 -365.09116 -32.607265
v -648.05194 -375.7082 -31.973698
v -646.0562 -365.01706 -31.365522
v -648.05194 -365.09116 -32.607265
v -644.98956 -376.30264 -32.870403
v -644.98956 -365.14658 -33.53614
v -646.67224 -376.33978 -33.49249
v -644.98956 -376.30264 -32.870403
v -647.1949 -365.19522 -34.351437
v -647.1949 -375.81226 -33.71787
v -644.98956 -365.14658 -33.53614
v -647.1949 -365.19522 -34.351437
v -644.3825 -376.44232 -35.21092
v -644.3825 -365.28625 -35.87665
v -646.1562 -376.4585 -35.48215
v -644.3825 -376.44232 -35.21092
v -646.7071 -365.30746 -36.23213
v -646.7071 -375.9245 -35.59856
v -644.3825 -365.28625 -35.87665
v -646.7071 -365.30746 -36.23213
v -644.2598 -376.5864 -37.625507
v -644.2598 -365.43033 -38.291245
v -646.0519 -376.581 -37.534786
v -644.2598 -376.5864 -37.625507
v -646.6085 -365.42325 -38.172344
v -646.6085 -376.04028 -37.538776
v -644.2598 -365.43033 -38.291245
v -646.6085 -365.42325 -38.172344
v -644.6266 -376.729 -40.015324
v -644.6266 -365.57297 -40.681057
v -646.3637 -376.70224 -39.566357
v -644.6266 -376.729 -40.015324
v -646.9032 -365.53784 -40.09265
v -646.9032 -376.15488 -39.459084
v -644.6266 -365.57297 -40.681057
v -646.9032 -365.53784 -40.09265
v -645.4678 -376.86432 -42.28252
v -645.4678 -365.70825 -42.948254
v -647.07874 -376.81723 -41.493694
v -645.4678 -376.86432 -42.28252
v -647.5791 -365.64655 -41.91443
v -647.5791 -376.26358 -41.28086
v -645.4678 -365.70825 -42.948254
v -647.5791 -365.64655 -41.91443
v -646.7489 -376.98676 -44.334282
v -646.7489 -365.8307 -45.000015
v -648.16785 -376.92133 -43.23789
v -646.7489 -376.98676 -44.334282
v -648.6086 -365.74493 -43.563095
v -648.6086 -376.36197 -42.929527
v -646.7489 -365.8307 -45.000015
v -648.6086 -365.74493 -43.563095
v -648.4176 -377.0913 -46.08661
v -648.4176 -365.93524 -46.752342
v -649.58636 -377.01022 -44.727535
v -648.4176 -377.0913 -46.08661
v -649.9494 -365.82895 -44.971157
v -649.9494 -376.44598 -44.33759
v -648.4176 -365.93524 -46.752342
v -649.9494 -365.82895 -44.971157
v -650.40546 -377.17374 -47.46776
v -650.40546 -366.01767 -48.133495
v -651.2763 -377.0803 -45.901646
v -650.40546 -377.17374 -47.46776
v -651.54675 -365.8952 -46.080963
v -651.54675 -376.5122 -45.447395
v -650.40546 -366.01767 -48.133495
v -651.54675 -365.8952 -46.080963
v -652.63116 -377.23065 -48.421192
v -652.63116 -366.0746 -49.086926
v -653.16833 -377.12866 -46.712154
v -652.63116 -377.23065 -48.421192
v -653.3352 -365.94092 -46.847084
v -653.3352 -376.55792 -46.213516
v -652.63116 -366.0746 -49.086926
v -653.3352 -365.94092 -46.847084
v -655.0036 -377.25967 -48.90787
v -655.0036 -366.1036 -49.573605
v -655.1851 -377.15335 -47.125877
v -655.0036 -377.25967 -48.90787
v -655.2415 -365.96423 -47.238148
v -655.2415 -376.58127 -46.60458
v -655.0036 -366.1036 -49.573605
v -655.2415 -365.96423 -47.238148
v -657.4256 -377.25967 -48.907867
v -657.4256 -366.1036 -49.573605
v -657.2441 -377.15335 -47.125877
v -657.4256 -377.25967 -48.907867
v -657.1877 -365.96423 -47.238148
v -657.1877 -376.58127 -46.60458
v -657.4256 -366.1036 -49.573605
v -657.1877 -365.96423 -47.238148
v -659.79803 -377.23065 -48.42119
v -659.79803 -366.0746 -49.086926
v -659.26086 -377.12866 -46.712154
v -659.79803 -377.23065 -48.42119
v -659.094 -365.94092 -46.847084
v -659.094 -376.55792 -46.213516
v -659.79803 -366.0746 -49.086926
v -659.094 -365.94092 -46.847084
v -662.02374 -377.17374 -47.46776
v -662.02374 -366.01767 -48.13349
v -661.1529 -377.0803 -45.90164
v -662.02374 -377.17374 -47.46776
v -660.88245 -365.8952 -46.080963
v -660.88245 -376.5122 -45.447395
v -662.02374 -366.01767 -48.13349
v -660.88245 -365.8952 -46.080963
v -664.0116 -377.0913 -46.086605
v -664.0116 -365.93524 -46.752342
v -662.84283 -377.01022 -44.72753
v -664.0116 -377.0913 -46.086605
v -662.4798 -365.82895 -44.971153
v -662.4798 -376.44598 -44.337585
v -664.0116 -365.93524 -46.752342
v -662.4798 -365.82895 -44.971153
v -665.6803 -376.98676 -44.33428
v -665.6803 -365.8307 -45.00001
v -664.26135 -376.92133 -43.237885
v -665.6803 -376.98676 -44.33428
v -663.8206 -365.74493 -43.563095
v -663.8206 -376.36197 -42.929527
v -665.6803 -365.8307 -45.00001
v -663.8206 -365.74493 -43.563095
v -666.9614 -376.86432 -42.282516
v -666.9614 -365.70825 -42.94825
v -665.35046 -376.81723 -41.49369
v -666.9614 -376.86432 -42.282516
v -664.8501 -365.64655 -41.914425
v -664.8501 -376.26358 -41.280857
v -666.9614 -365.70825 -42.94825
v -664.8501 -365.64655 -41.914425
v -667.8026 -376.729 -40.015316
v -667.8026 -365.57294 -40.68105
v -666.0655 -376.70224 -39.566353
v -667.8026 -376.729 -40.015316
v -665.526 -365.53784 -40.092644
v -665.526 -376.15488 -39.459076
v -667.8026 -365.57294 -40.68105
v -665.526 -365.53784 -40.092644
v -668.1694 -376.5864 -37.625504
v -668.1694 -365.43033 -38.291237
v -666.3773 -376.581 -37.534782
v -668.1694 -376.5864 -37.625504
v -665.8207 -365.42325 -38.17234
v -665.8207 -376.04028 -37.538773
v -668.1694 -365.43033 -38.291237
v -665.8207 -365.42325 -38.17234
v -668.0467 -376.44232 -35.21091
v -668.0467 -365.28625 -35.876644
v -666.273 -376.4585 -35.482147
v -668.0467 -376.44232 -35.21091
v -665.7221 -365.30746 -36.232124
v -665.7221 -375.9245 -35.598557
v -668.0467 -365.28625 -35.876644
v -665.7221 -365.30746 -36.232124
v -667.43964 -376.30264 -32.870396
v -667.43964 -365.14658 -33.536133
v -665.75696 -376.33978 -33.492485
v -667.43964 -376.30264 -32.870396
v -665.2343 -365.19522 -34.351433
v -665.2343 -375.81226 -33.717865
v -667.43964 -365.14658 -33.536133
v -665.2343 -365.19522 -34.351433
v -666.373 -376.17313 -30.69978
v -666.373 -365.01706 -31.365515
v -664.8502 -376.22964 -31.647251
v -666.373 -376.17313 -30.69978
v -664.37726 -365.09116 -32.60726
v -664.37726 -375.7082 -31.973692
v -666.373 -365.01706 -31.365515
v -664.37726 -365.09116 -32.60726
v -664.89044 -376.05902 -28.787926
v -664.89044 -364.90295 -29.453663
v -663.5899 -376.13266 -30.021994
v -664.89044 -376.05902 -28.787926
v -663.186 -364.99948 -31.071014
v -663.186 -375.61652 -30.437447
v -664.89044 -364.90295 -29.453663
v -663.186 -364.99948 -31.071014
v -663.05273 -375.96506 -27.213108
v -663.05273 -364.809 -27.878843
v -662.02765 -376.0528 -28.683247
v -663.05273 -375.96506 -27.213108
v -661.7093 -364.92395 -29.805588
v -661.7093 -375.541 -29.17202
v -663.05273 -364.809 -27.878843
v -661.7093 -364.92395 -29.805588
v -660.93506 -375.89502 -26.039799
v -660.93506 -364.73895 -26.705534
v -660.2275 -375.99326 -27.685822
v -660.93506 -375.89502 -26.039799
v -660.0077 -364.8677 -28.86279
v -660.0077 -375.48474 -28.229221
v -660.93506 -364.73895 -26.705534
v -660.0077 -364.8677 -28.86279
v -658.62415 -375.85184 -25.316032
v -658.62415 -364.69577 -25.981766
v -658.26294 -375.95654 -27.070549
v -658.62415 -375.85184 -25.316032
v -658.15076 -364.833 -28.281216
v -658.15076 -375.45 -27.647648
v -658.62415 -364.69577 -25.981766
v -658.15076 -364.833 -28.281216
v -654.2483 -375.98035 -27.46916
v -656.2146 -375.9684 -27.269562
v -656.2146 -375.83258 -27.427578
v -656.2146 -375.83258 -27.427578
v -654.27844 -375.84433 -27.624119
v -654.2483 -375.98035 -27.46916
v -652.3625 -376.01556 -28.059784
v -654.2483 -375.98035 -27.46916
v -654.27844 -375.84433 -27.624119
v -654.27844 -375.84433 -27.624119
v -652.4215 -375.87903 -28.205696
v -652.3625 -376.01556 -28.059784
v -650.6344 -376.07272 -29.017252
v -652.3625 -376.01556 -28.059784
v -652.4215 -375.87903 -28.205696
v -652.4215 -375.87903 -28.205696
v -650.7199 -375.9353 -29.148495
v -650.6344 -376.07272 -29.017252
v -649.13477 -376.1494 -30.302368
v -650.6344 -376.07272 -29.017252
v -650.7199 -375.9353 -29.148495
v -650.7199 -375.9353 -29.148495
v -649.2432 -376.0108 -30.413921
v -649.13477 -376.1494 -30.302368
v -647.925 -376.2425 -31.862514
v -649.13477 -376.1494 -30.302368
v -649.2432 -376.0108 -30.413921
v -649.2432 -376.0108 -30.413921
v -648.05194 -376.10248 -31.950169
v -647.925 -376.2425 -31.862514
v -647.05457 -376.3482 -33.633823
v -647.925 -376.2425 -31.862514
v -648.05194 -376.10248 -31.950169
v -648.05194 -376.10248 -31.950169
v -647.1949 -376.20657 -33.69434
v -647.05457 -376.3482 -33.633823
v -646.55914 -376.4622 -35.543774
v -647.05457 -376.3482 -33.633823
v -647.1949 -376.20657 -33.69434
v -646.7071 -376.3188 -35.57503
v -646.45905 -376.57977 -37.514175
v -646.55914 -376.4622 -35.543774
v -646.7071 -376.3188 -35.57503
v -646.6085 -376.43457 -37.515247
v -646.75836 -376.69614 -39.46436
v -646.45905 -376.57977 -37.514175
v -646.6085 -376.43457 -37.515247
v -646.6085 -376.43457 -37.515247
v -646.9032 -376.54916 -39.43555
v -646.75836 -376.69614 -39.46436
v -647.44476 -376.80655 -41.31448
v -646.75836 -376.69614 -39.46436
v -646.9032 -376.54916 -39.43555
v -646.9032 -376.54916 -39.43555
v -647.5791 -376.65787 -41.25733
v -647.44476 -376.80655 -41.31448
v -648.49023 -376.90646 -42.9888
v -647.44476 -376.80655 -41.31448
v -647.5791 -376.65787 -41.25733
v -648.6086 -376.75626 -42.906
v -649.8519 -376.9918 -44.418766
v -648.49023 -376.90646 -42.9888
v -648.6086 -376.75626 -42.906
v -648.6086 -376.75626 -42.906
v -649.9494 -376.8403 -44.31406
v -649.8519 -376.9918 -44.418766
v -651.4741 -377.05905 -45.54584
v -649.8519 -376.9918 -44.418766
v -649.9494 -376.8403 -44.31406
v -649.9494 -376.8403 -44.31406
v -651.54675 -376.90652 -45.423866
v -651.4741 -377.05905 -45.54584
v -653.2904 -377.10547 -46.323875
v -651.4741 -377.05905 -45.54584
v -651.54675 -376.90652 -45.423866
v -651.54675 -376.90652 -45.423866
v -653.3352 -376.95224 -46.189987
v -653.2904 -377.10547 -46.323875
v -655.2264 -377.12918 -46.721024
v -653.2904 -377.10547 -46.323875
v -653.3352 -376.95224 -46.189987
v -653.3352 -376.95224 -46.189987
v -655.2415 -376.9756 -46.581047
v -655.2264 -377.12918 -46.721024
v -657.2028 -377.12918 -46.721024
v -655.2264 -377.12918 -46.721024
v -655.2415 -376.9756 -46.581047
v -657.1877 -376.9756 -46.581047
v -659.1388 -377.10547 -46.323875
v -657.2028 -377.12918 -46.721024
v -657.1877 -376.9756 -46.581047
v -657.1877 -376.9756 -46.581047
v -659.094 -376.95224 -46.189983
v -659.1388 -377.10547 -46.323875
v -660.9551 -377.05905 -45.545837
v -659.1388 -377.10547 -46.323875
v -659.094 -376.95224 -46.189983
v -659.094 -376.95224 -46.189983
v -660.88245 -376.90652 -45.423866
v -660.9551 -377.05905 -45.545837
v -662.5773 -376.9918 -44.418762
v -660.9551 -377.05905 -45.545837
v -660.88245 -376.90652 -45.423866
v -660.88245 -376.90652 -45.423866
v -662.4798 -376.8403 -44.314056
v -662.5773 -376.9918 -44.418762
v -663.93896 -376.90646 -42.988796
v -662.5773 -376.9918 -44.418762
v -662.4798 -376.8403 -44.314056
v -663.8206 -376.75626 -42.906
v -664.98444 -376.80655 -41.314476
v -663.93896 -376.90646 -42.988796
v -663.8206 -376.75626 -42.906
v -664.8501 -376.65787 -41.257328
v -665.67084 -376.69614 -39.46435
v -664.98444 -376.80655 -41.314476
v -664.8501 -376.65787 -41.257328
v -665.526 -376.54916 -39.435547
v -665.97015 -376.57977 -37.51417
v -665.67084 -376.69614 -39.46435
v -665.526 -376.54916 -39.435547
v -665.526 -376.54916 -39.435547
v -665.8207 -376.43457 -37.51524
v -665.97015 -376.57977 -37.51417
v -665.87006 -376.4622 -35.54377
v -665.97015 -376.57977 -37.51417
v -665.8207 -376.43457 -37.51524
v -665.7221 -376.3188 -35.575027
v -665.37463 -376.3482 -33.633816
v -665.87006 -376.4622 -35.54377
v -665.7221 -376.3188 -35.575027
v -665.2343 -376.20657 -33.694336
v -664.5042 -376.2425 -31.862509
v -665.37463 -376.3482 -33.633816
v -665.2343 -376.20657 -33.694336
v -665.2343 -376.20657 -33.694336
v -664.37726 -376.10248 -31.950163
v -664.5042 -376.2425 -31.862509
v -663.29443 -376.1494 -30.30236
v -664.5042 -376.2425 -31.862509
v -664.37726 -376.10248 -31.950163
v -664.37726 -376.10248 -31.950163
v -663.186 -376.0108 -30.413918
v -663.29443 -376.1494 -30.30236
v -661.7948 -376.07272 -29.017246
v -663.29443 -376.1494 -30.30236
v -663.186 -376.0108 -30.413918
v -661.7093 -375.9353 -29.14849
v -660.0667 -376.01556 -28.05978
v -661.7948 -376.07272 -29.017246
v -661.7093 -375.9353 -29.14849
v -661.7093 -375.9353 -29.14849
v -660.0077 -375.87903 -28.205692
v -660.0667 -376.01556 -28.05978
v -658.1809 -375.98035 -27.469158
v -660.0667 -376.01556 -28.05978
v -660.0077 -375.87903 -28.205692
v -660.0077 -375.87903 -28.205692
v -658.15076 -375.84433 -27.624119
v -658.1809 -375.98035 -27.469158
v -656.2146 -375.9684 -27.269562
v -658.1809 -375.98035 -27.469158
v -658.15076 -375.84433 -27.624119
v -658.15076 -375.84433 -27.624119
v -656.2146 -375.83258 -27.427578
v -656.2146 -375.9684 -27.269562
v -654.27844 -375.84433 -27.624119
v -656.2146 -375.83258 -27.427578
v -656.2146 -375.94412 -26.862621
v -656.2146 -375.94412 -26.862621
v -654.16626 -375.95654 -27.070549
v -654.27844 -375.84433 -27.624119
v -652.4215 -375.87903 -28.205696
v -654.27844 -375.84433 -27.624119
v -654.16626 -375.95654 -27.070549
v -654.16626 -375.95654 -27.070549
v -652.2017 -375.99326 -27.685823
v -652.4215 -375.87903 -28.205696
v -650.7199 -375.9353 -29.148495
v -652.4215 -375.87903 -28.205696
v -652.2017 -375.99326 -27.685823
v -650.4015 -376.0528 -28.68325
v -649.2432 -376.0108 -30.413921
v -650.7199 -375.9353 -29.148495
v -650.4015 -376.0528 -28.68325
v -648.8393 -376.13266 -30.022
v -648.05194 -376.10248 -31.950169
v -649.2432 -376.0108 -30.413921
v -648.8393 -376.13266 -30.022
v -647.579 -376.22964 -31.647259
v -647.1949 -376.20657 -33.69434
v -648.05194 -376.10248 -31.950169
v -647.579 -376.22964 -31.647259
v -646.67224 -376.33978 -33.49249
v -646.7071 -376.3188 -35.57503
v -647.1949 -376.20657 -33.69434
v -646.67224 -376.33978 -33.49249
v -646.1562 -376.4585 -35.48215
v -646.6085 -376.43457 -37.515247
v -646.7071 -376.3188 -35.57503
v -646.1562 -376.4585 -35.48215
v -646.1562 -376.4585 -35.48215
v -646.0519 -376.581 -37.534786
v -646.6085 -376.43457 -37.515247
v -646.9032 -376.54916 -39.43555
v -646.6085 -376.43457 -37.515247
v -646.0519 -376.581 -37.534786
v -646.3637 -376.70224 -39.566357
v -647.5791 -376.65787 -41.25733
v -646.9032 -376.54916 -39.43555
v -646.3637 -376.70224 -39.566357
v -647.07874 -376.81723 -41.493694
v -648.6086 -376.75626 -42.906
v -647.5791 -376.65787 -41.25733
v -647.07874 -376.81723 -41.493694
v -647.07874 -376.81723 -41.493694
v -648.16785 -376.92133 -43.23789
v -648.6086 -376.75626 -42.906
v -649.9494 -376.8403 -44.31406
v -648.6086 -376.75626 -42.906
v -648.16785 -376.92133 -43.23789
v -648.16785 -376.92133 -43.23789
v -649.58636 -377.01022 -44.727535
v -649.9494 -376.8403 -44.31406
v -651.54675 -376.90652 -45.423866
v -649.9494 -376.8403 -44.31406
v -649.58636 -377.01022 -44.727535
v -651.2763 -377.0803 -45.901646
v -653.3352 -376.95224 -46.189987
v -651.54675 -376.90652 -45.423866
v -651.2763 -377.0803 -45.901646
v -653.16833 -377.12866 -46.712154
v -655.2415 -376.9756 -46.581047
v -653.3352 -376.95224 -46.189987
v -653.16833 -377.12866 -46.712154
v -655.1851 -377.15335 -47.125877
v -657.1877 -376.9756 -46.581047
v -655.2415 -376.9756 -46.581047
v -655.1851 -377.15335 -47.125877
v -657.2441 -377.15335 -47.125877
v -659.094 -376.95224 -46.189983
v -657.1877 -376.9756 -46.581047
v -657.2441 -377.15335 -47.125877
v -659.26086 -377.12866 -46.712154
v -660.88245 -376.90652 -45.423866
v -659.094 -376.95224 -46.189983
v -659.26086 -377.12866 -46.712154
v -661.1529 -377.0803 -45.90164
v -662.4798 -376.8403 -44.314056
v -660.88245 -376.90652 -45.423866
v -661.1529 -377.0803 -45.90164
v -662.84283 -377.01022 -44.72753
v -663.8206 -376.75626 -42.906
v -662.4798 -376.8403 -44.314056
v -662.84283 -377.01022 -44.72753
v -664.26135 -376.92133 -43.237885
v -664.8501 -376.65787 -41.257328
v -663.8206 -376.75626 -42.906
v -664.26135 -376.92133 -43.237885
v -664.26135 -376.92133 -43.237885
v -665.35046 -376.81723 -41.49369
v -664.8501 -376.65787 -41.257328
v -665.526 -376.54916 -39.435547
v -664.8501 -376.65787 -41.257328
v -665.35046 -376.81723 -41.49369
v -666.0655 -376.70224 -39.566353
v -665.8207 -376.43457 -37.51524
v -665.526 -376.54916 -39.435547
v -666.0655 -376.70224 -39.566353
v -666.3773 -376.581 -37.534782
v -665.7221 -376.3188 -35.575027
v -665.8207 -376.43457 -37.51524
v -666.3773 -376.581 -37.534782
v -666.273 -376.4585 -35.482147
v -665.2343 -376.20657 -33.694336
v -665.7221 -376.3188 -35.575027
v -666.273 -376.4585 -35.482147
v -665.75696 -376.33978 -33.492485
v -664.37726 -376.10248 -31.950163
v -665.2343 -376.20657 -33.694336
v -665.75696 -376.33978 -33.492485
v -664.8502 -376.22964 -31.647251
v -663.186 -376.0108 -30.413918
v -664.37726 -376.10248 -31.950163
v -664.8502 -376.22964 -31.647251
v -664.8502 -376.22964 -31.647251
v -663.5899 -376.13266 -30.021994
v -663.186 -376.0108 -30.413918
v -661.7093 -375.9353 -29.14849
v -663.186 -376.0108 -30.413918
v -663.5899 -376.13266 -30.021994
v -662.02765 -376.0528 -28.683247
v -660.0077 -375.87903 -28.205692
v -661.7093 -375.9353 -29.14849
v -662.02765 -376.0528 -28.683247
v -660.2275 -375.99326 -27.685822
v -658.15076 -375.84433 -27.624119
v -660.0077 -375.87903 -28.205692
v -660.2275 -375.99326 -27.685822
v -658.26294 -375.95654 -27.070549
v -656.2146 -375.83258 -27.427578
v -658.15076 -375.84433 -27.624119
v -658.26294 -375.95654 -27.070549
v -658.26294 -375.95654 -27.070549
v -656.2146 -375.94412 -26.862621
v -656.2146 -375.83258 -27.427578
v -654.27844 -375.45 -27.64765
v -656.2146 -375.4383 -27.451109
v -656.2146 -375.9684 -27.269562
v -656.2146 -375.9684 -27.269562
v -654.2483 -375.98035 -27.46916
v -654.27844 -375.45 -27.64765
v -652.4215 -375.48474 -28.229225
v -654.27844 -375.45 -27.64765
v -654.2483 -375.98035 -27.46916
v -654.2483 -375.98035 -27.46916
v -652.3625 -376.01556 -28.059784
v -652.4215 -375.48474 -28.229225
v -650.7199 -375.541 -29.172024
v -652.4215 -375.48474 -28.229225
v -652.3625 -376.01556 -28.059784
v -652.3625 -376.01556 -28.059784
v -650.6344 -376.07272 -29.017252
v -650.7199 -375.541 -29.172024
v -649.2432 -375.61652 -30.437452
v -650.7199 -375.541 -29.172024
v -650.6344 -376.07272 -29.017252
v -649.13477 -376.1494 -30.302368
v -648.05194 -375.7082 -31.973698
v -649.2432 -375.61652 -30.437452
v -649.13477 -376.1494 -30.302368
v -649.13477 -376.1494 -30.302368
v -647.925 -376.2425 -31.862514
v -648.05194 -375.7082 -31.973698
v -647.1949 -375.81226 -33.71787
v -648.05194 -375.7082 -31.973698
v -647.925 -376.2425 -31.862514
v -647.925 -376.2425 -31.862514
v -647.05457 -376.3482 -33.633823
v -647.1949 -375.81226 -33.71787
v -646.7071 -375.9245 -35.59856
v -647.1949 -375.81226 -33.71787
v -647.05457 -376.3482 -33.633823
v -646.55914 -376.4622 -35.543774
v -646.6085 -376.04028 -37.538776
v -646.7071 -375.9245 -35.59856
v -646.55914 -376.4622 -35.543774
v -646.45905 -376.57977 -37.514175
v -646.9032 -376.15488 -39.459084
v -646.6085 -376.04028 -37.538776
v -646.45905 -376.57977 -37.514175
v -646.45905 -376.57977 -37.514175
v -646.75836 -376.69614 -39.46436
v -646.9032 -376.15488 -39.459084
v -647.5791 -376.26358 -41.28086
v -646.9032 -376.15488 -39.459084
v -646.75836 -376.69614 -39.46436
v -646.75836 -376.69614 -39.46436
v -647.44476 -376.80655 -41.31448
v -647.5791 -376.26358 -41.28086
v -648.6086 -376.36197 -42.929527
v -647.5791 -376.26358 -41.28086
v -647.44476 -376.80655 -41.31448
v -648.49023 -376.90646 -42.9888
v -649.9494 -376.44598 -44.33759
v -648.6086 -376.36197 -42.929527
v -648.49023 -376.90646 -42.9888
v -649.8519 -376.9918 -44.418766
v -651.54675 -376.5122 -45.447395
v -649.9494 -376.44598 -44.33759
v -649.8519 -376.9918 -44.418766
v -649.8519 -376.9918 -44.418766
v -651.4741 -377.05905 -45.54584
v -651.54675 -376.5122 -45.447395
v -653.3352 -376.55792 -46.213516
v -651.54675 -376.5122 -45.447395
v -651.4741 -377.05905 -45.54584
v -651.4741 -377.05905 -45.54584
v -653.2904 -377.10547 -46.323875
v -653.3352 -376.55792 -46.213516
v -655.2415 -376.58127 -46.60458
v -653.3352 -376.55792 -46.213516
v -653.2904 -377.10547 -46.323875
v -655.2264 -377.12918 -46.721024
v -657.1877 -376.58127 -46.60458
v -655.2415 -376.58127 -46.60458
v -655.2264 -377.12918 -46.721024
v -657.2028 -377.12918 -46.721024
v -659.094 -376.55792 -46.213516
v -657.1877 -376.58127 -46.60458
v -657.2028 -377.12918 -46.721024
v -657.2028 -377.12918 -46.721024
v -659.1388 -377.10547 -46.323875
v -659.094 -376.55792 -46.213516
v -660.88245 -376.5122 -45.447395
v -659.094 -376.55792 -46.213516
v -659.1388 -377.10547 -46.323875
v -659.1388 -377.10547 -46.323875
v -660.9551 -377.05905 -45.545837
v -660.88245 -376.5122 -45.447395
v -662.4798 -376.44598 -44.337585
v -660.88245 -376.5122 -45.447395
v -660.9551 -377.05905 -45.545837
v -660.9551 -377.05905 -45.545837
v -662.5773 -376.9918 -44.418762
v -662.4798 -376.44598 -44.337585
v -663.8206 -376.36197 -42.929527
v -662.4798 -376.44598 -44.337585
v -662.5773 -376.9918 -44.418762
v -663.93896 -376.90646 -42.988796
v -664.8501 -376.26358 -41.280857
v -663.8206 -376.36197 -42.929527
v -663.93896 -376.90646 -42.988796
v -664.98444 -376.80655 -41.314476
v -665.526 -376.15488 -39.459076
v -664.8501 -376.26358 -41.280857
v -664.98444 -376.80655 -41.314476
v -664.98444 -376.80655 -41.314476
v -665.67084 -376.69614 -39.46435
v -665.526 -376.15488 -39.459076
v -665.8207 -376.04028 -37.538773
v -665.526 -376.15488 -39.459076
v -665.67084 -376.69614 -39.46435
v -665.67084 -376.69614 -39.46435
v -665.97015 -376.57977 -37.51417
v -665.8207 -376.04028 -37.538773
v -665.7221 -375.9245 -35.598557
v -665.8207 -376.04028 -37.538773
v -665.97015 -376.57977 -37.51417
v -665.87006 -376.4622 -35.54377
v -665.2343 -375.81226 -33.717865
v -665.7221 -375.9245 -35.598557
v -665.87006 -376.4622 -35.54377
v -665.37463 -376.3482 -33.633816
v -664.37726 -375.7082 -31.973692
v -665.2343 -375.81226 -33.717865
v -665.37463 -376.3482 -33.633816
v -665.37463 -376.3482 -33.633816
v -664.5042 -376.2425 -31.862509
v -664.37726 -375.7082 -31.973692
v -663.186 -375.61652 -30.437447
v -664.37726 -375.7082 -31.973692
v -664.5042 -376.2425 -31.862509
v -663.29443 -376.1494 -30.30236
v -661.7093 -375.541 -29.17202
v -663.186 -375.61652 -30.437447
v -663.29443 -376.1494 -30.30236
v -661.7948 -376.07272 -29.017246
v -660.0077 -375.48474 -28.229221
v -661.7093 -375.541 -29.17202
v -661.7948 -376.07272 -29.017246
v -661.7948 -376.07272 -29.017246
v -660.0667 -376.01556 -28.05978
v -660.0077 -375.48474 -28.229221
v -658.15076 -375.45 -27.647648
v -660.0077 -375.48474 -28.229221
v -660.0667 -376.01556 -28.05978
v -660.0667 -376.01556 -28.05978
v -658.1809 -375.98035 -27.469158
v -658.15076 -375.45 -27.647648
v -656.2146 -375.4383 -27.451109
v -658.15076 -375.45 -27.647648
v -658.1809 -375.98035 -27.469158
v -658.1809 -375.98035 -27.469158
v -656.2146 -375.9684 -27.269562
v -656.2146 -375.4383 -27.451109
vt 0.600779 0.989739001
vt 0.5 1
vt 0.5 1
vt 0.600779 0.989739001
vt 0.585672 0.91613197
vt 0.5 0.924854994
vt 0.5 1
vt 0.600779 0.989739001
vt 0.58098 0.89327103
vt 0.5 0.90151602
vt 0.5 0.90151602
vt 0.58098 0.89327103
vt 0.600779 0.989739001
vt 0.5 1
vt 0.5 0.90151602
vt 0.58098 0.89327103
vt 0.697431 0.959375024
vt 0.697431 0.959375024
vt 0.667836 0.89032
vt 0.697431 0.959375024
vt 0.658644 0.86887199
vt 0.658644 0.86887199
vt 0.697431 0.959375024
vt 0.658644 0.86887199
vt 0.786001 0.910151005
vt 0.786001 0.910151005
vt 0.743129 0.84847498
vt 0.786001 0.910151005
vt 0.729813 0.829319
vt 0.729813 0.829319
vt 0.786001 0.910151005
vt 0.729813 0.829319
vt 0.862862 0.84408301
vt 0.862862 0.84408301
vt 0.808468 0.79231101
vt 0.862862 0.84408301
vt 0.791574 0.77623099
vt 0.791574 0.77623099
vt 0.862862 0.84408301
vt 0.791574 0.77623099
vt 0.924868 0.76387602
vt 0.924868 0.76387602
vt 0.861178 0.724127
vt 0.924868 0.76387602
vt 0.841397 0.71178198
vt 0.841397 0.71178198
vt 0.924868 0.76387602
vt 0.841397 0.71178198
vt 0.969479 0.672813
vt 0.969479 0.672813
vt 0.899102 0.646715
vt 0.969479 0.672813
vt 0.877244 0.638609
vt 0.877244 0.638609
vt 0.969479 0.672813
vt 0.877244 0.638609
vt 0.994869 0.574623
vt 0.994869 0.574623
vt 0.920686 0.563244
vt 0.994869 0.574623
vt 0.897646 0.559709
vt 0.897646 0.559709
vt 0.994869 0.574623
vt 0.897646 0.559709
vt 1 0.473324
vt 1 0.473324
vt 0.925048 0.47713
vt 1 0.473324
vt 0.901769 0.47831202
vt 0.901769 0.47831202
vt 1 0.473324
vt 0.901769 0.47831202
vt 0.984661 0.373065
vt 0.984661 0.373065
vt 0.912008 0.39190102
vt 0.984661 0.373065
vt 0.889443 0.39775097
vt 0.889443 0.39775097
vt 0.984661 0.373065
vt 0.889443 0.39775097
vt 0.949479 0.277951
vt 0.949479 0.277951
vt 0.8821 0.31104398
vt 0.949479 0.277951
vt 0.861173 0.32132196
vt 0.861173 0.32132196
vt 0.949479 0.277951
vt 0.861173 0.32132196
vt 0.895896 0.19187403
vt 0.895896 0.19187403
vt 0.83655 0.23786998
vt 0.895896 0.19187403
vt 0.818117 0.25215602
vt 0.818117 0.25215602
vt 0.895896 0.19187403
vt 0.818117 0.25215602
vt 0.826105 0.11835897
vt 0.826105 0.11835897
vt 0.77722 0.175376
vt 0.826105 0.11835897
vt 0.762037 0.19308501
vt 0.762037 0.19308501
vt 0.826105 0.11835897
vt 0.762037 0.19308501
vt 0.742963 0.060415983
vt 0.742963 0.060415983
vt 0.706542 0.12611902
vt 0.742963 0.060415983
vt 0.69523 0.14652503
vt 0.69523 0.14652503
vt 0.742963 0.060415983
vt 0.69523 0.14652503
vt 0.649874 0.020416975
vt 0.649874 0.020416975
vt 0.627407 0.092116
vt 0.649874 0.020416975
vt 0.620429 0.11438501
vt 0.620429 0.11438501
vt 0.649874 0.020416975
vt 0.620429 0.11438501
vt 0.550649 0
vt 0.550649 0
vt 0.543056 0.07475901
vt 0.550649 0
vt 0.540698 0.09797901
vt 0.540698 0.09797901
vt 0.550649 0
vt 0.540698 0.09797901
vt 0.449351 0
vt 0.449351 0
vt 0.456943 0.07475901
vt 0.449351 0
vt 0.459301 0.09797901
vt 0.459301 0.09797901
vt 0.449351 0
vt 0.459301 0.09797901
vt 0.350126 0.020417988
vt 0.350126 0.020417988
vt 0.372593 0.092116
vt 0.350126 0.020417988
vt 0.37957 0.11438501
vt 0.37957 0.11438501
vt 0.350126 0.020417988
vt 0.37957 0.11438501
vt 0.257037 0.060416996
vt 0.257037 0.060416996
vt 0.293458 0.12611902
vt 0.257037 0.060416996
vt 0.30477 0.14652503
vt 0.30477 0.14652503
vt 0.257037 0.060416996
vt 0.30477 0.14652503
vt 0.173895 0.11835897
vt 0.173895 0.11835897
vt 0.222779 0.175376
vt 0.173895 0.11835897
vt 0.237962 0.19308501
vt 0.237962 0.19308501
vt 0.173895 0.11835897
vt 0.237962 0.19308501
vt 0.104104 0.19187403
vt 0.104104 0.19187403
vt 0.16345 0.23787099
vt 0.104104 0.19187403
vt 0.181883 0.25215697
vt 0.181883 0.25215697
vt 0.104104 0.19187403
vt 0.181883 0.25215697
vt 0.050521 0.277951
vt 0.050521 0.277951
vt 0.117899 0.31104398
vt 0.050521 0.277951
vt 0.138826 0.32132304
vt 0.138826 0.32132304
vt 0.050521 0.277951
vt 0.138826 0.32132304
vt 0.015339 0.373066
vt 0.015339 0.373066
vt 0.087992 0.39190102
vt 0.015339 0.373066
vt 0.110557 0.39775097
vt 0.110557 0.39775097
vt 0.015339 0.373066
vt 0.110557 0.39775097
vt 0 0.473325
vt 0 0.473325
vt 0.074952 0.477131
vt 0 0.473325
vt 0.098231 0.47831297
vt 0.098231 0.47831297
vt 0 0.473325
vt 0.098231 0.47831297
vt 0.005131 0.574623
vt 0.005131 0.574623
vt 0.079314 0.563244
vt 0.005131 0.574623
vt 0.102354 0.55971003
vt 0.102354 0.55971003
vt 0.005131 0.574623
vt 0.102354 0.55971003
vt 0.030522 0.672814
vt 0.030522 0.672814
vt 0.100898 0.646715
vt 0.030522 0.672814
vt 0.122756 0.63861
vt 0.122756 0.63861
vt 0.030522 0.672814
vt 0.122756 0.63861
vt 0.075133 0.76387697
vt 0.075133 0.76387697
vt 0.138822 0.724128
vt 0.075133 0.76387697
vt 0.158603 0.71178198
vt 0.158603 0.71178198
vt 0.075133 0.76387697
vt 0.158603 0.71178198
vt 0.137138 0.84408402
vt 0.137138 0.84408402
vt 0.191533 0.79231203
vt 0.137138 0.84408402
vt 0.208427 0.776232
vt 0.208427 0.776232
vt 0.137138 0.84408402
vt 0.208427 0.776232
vt 0.213999 0.91015202
vt 0.213999 0.91015202
vt 0.256872 0.84847498
vt 0.213999 0.91015202
vt 0.270188 0.82932001
vt 0.270188 0.82932001
vt 0.213999 0.91015202
vt 0.270188 0.82932001
vt 0.302569 0.959375024
vt 0.302569 0.959375024
vt 0.332165 0.89032
vt 0.302569 0.959375024
vt 0.341357 0.86887199
vt 0.341357 0.86887199
vt 0.302569 0.959375024
vt 0.341357 0.86887199
vt 0.399222 0.989739001
vt 0.399222 0.989739001
vt 0.414329 0.91613197
vt 0.399222 0.989739001
vt 0.419021 0.89327103
vt 0.419021 0.89327103
vt 0.399222 0.989739001
vt 0.419021 0.89327103
vt 0.582239 0.899408996
vt 0.5 0.90778297
vt 0.5 0.90151602
vt 0.5 0.90151602
vt 0.58098 0.89327103
vt 0.582239 0.899408996
vt 0.661112 0.87463099
vt 0.582239 0.899408996
vt 0.58098 0.89327103
vt 0.58098 0.89327103
vt 0.658644 0.86887199
vt 0.661112 0.87463099
vt 0.733388 0.834463
vt 0.661112 0.87463099
vt 0.658644 0.86887199
vt 0.658644 0.86887199
vt 0.729813 0.829319
vt 0.733388 0.834463
vt 0.79611 0.78054899
vt 0.733388 0.834463
vt 0.729813 0.829319
vt 0.729813 0.829319
vt 0.791574 0.77623099
vt 0.79611 0.78054899
vt 0.846709 0.715097
vt 0.79611 0.78054899
vt 0.791574 0.77623099
vt 0.791574 0.77623099
vt 0.841397 0.71178198
vt 0.846709 0.715097
vt 0.883113 0.640786
vt 0.846709 0.715097
vt 0.841397 0.71178198
vt 0.841397 0.71178198
vt 0.877244 0.638609
vt 0.883113 0.640786
vt 0.903833 0.56065798
vt 0.883113 0.640786
vt 0.877244 0.638609
vt 0.897646 0.559709
vt 0.90802 0.47799504
vt 0.903833 0.56065798
vt 0.897646 0.559709
vt 0.901769 0.47831202
vt 0.895502 0.39618003
vt 0.90802 0.47799504
vt 0.901769 0.47831202
vt 0.901769 0.47831202
vt 0.889443 0.39775097
vt 0.895502 0.39618003
vt 0.866793 0.31856203
vt 0.895502 0.39618003
vt 0.889443 0.39775097
vt 0.889443 0.39775097
vt 0.861173 0.32132196
vt 0.866793 0.31856203
vt 0.823067 0.24831998
vt 0.866793 0.31856203
vt 0.861173 0.32132196
vt 0.818117 0.25215602
vt 0.766114 0.18833
vt 0.823067 0.24831998
vt 0.818117 0.25215602
vt 0.818117 0.25215602
vt 0.762037 0.19308501
vt 0.766114 0.18833
vt 0.698267 0.14104599
vt 0.766114 0.18833
vt 0.762037 0.19308501
vt 0.762037 0.19308501
vt 0.69523 0.14652503
vt 0.698267 0.14104599
vt 0.622303 0.108404994
vt 0.698267 0.14104599
vt 0.69523 0.14652503
vt 0.69523 0.14652503
vt 0.620429 0.11438501
vt 0.622303 0.108404994
vt 0.541332 0.091744006
vt 0.622303 0.108404994
vt 0.620429 0.11438501
vt 0.620429 0.11438501
vt 0.540698 0.09797901
vt 0.541332 0.091744006
vt 0.458668 0.091744006
vt 0.541332 0.091744006
vt 0.540698 0.09797901
vt 0.459301 0.09797901
vt 0.377697 0.108404994
vt 0.458668 0.091744006
vt 0.459301 0.09797901
vt 0.459301 0.09797901
vt 0.37957 0.11438501
vt 0.377697 0.108404994
vt 0.301733 0.14104599
vt 0.377697 0.108404994
vt 0.37957 0.11438501
vt 0.37957 0.11438501
vt 0.30477 0.14652503
vt 0.301733 0.14104599
vt 0.233886 0.18833
vt 0.301733 0.14104599
vt 0.30477 0.14652503
vt 0.30477 0.14652503
vt 0.237962 0.19308501
vt 0.233886 0.18833
vt 0.176933 0.248321
vt 0.233886 0.18833
vt 0.237962 0.19308501
vt 0.181883 0.25215697
vt 0.133207 0.31856298
vt 0.176933 0.248321
vt 0.181883 0.25215697
vt 0.138826 0.32132304
vt 0.104498 0.39618003
vt 0.133207 0.31856298
vt 0.138826 0.32132304
vt 0.110557 0.39775097
vt 0.09198 0.47799504
vt 0.104498 0.39618003
vt 0.110557 0.39775097
vt 0.110557 0.39775097
vt 0.098231 0.47831297
vt 0.09198 0.47799504
vt 0.096167 0.560659
vt 0.09198 0.47799504
vt 0.098231 0.47831297
vt 0.102354 0.55971003
vt 0.116887 0.640786
vt 0.096167 0.560659
vt 0.102354 0.55971003
vt 0.122756 0.63861
vt 0.153292 0.715097
vt 0.116887 0.640786
vt 0.122756 0.63861
vt 0.122756 0.63861
vt 0.158603 0.71178198
vt 0.153292 0.715097
vt 0.203891 0.78054899
vt 0.153292 0.715097
vt 0.158603 0.71178198
vt 0.158603 0.71178198
vt 0.208427 0.776232
vt 0.203891 0.78054899
vt 0.266612 0.834463
vt 0.203891 0.78054899
vt 0.208427 0.776232
vt 0.270188 0.82932001
vt 0.338889 0.87463099
vt 0.266612 0.834463
vt 0.270188 0.82932001
vt 0.270188 0.82932001
vt 0.341357 0.86887199
vt 0.338889 0.87463099
vt 0.417761 0.89941001
vt 0.338889 0.87463099
vt 0.341357 0.86887199
vt 0.341357 0.86887199
vt 0.419021 0.89327103
vt 0.417761 0.89941001
vt 0.5 0.90778297
vt 0.417761 0.89941001
vt 0.419021 0.89327103
vt 0.419021 0.89327103
vt 0.5 0.90151602
vt 0.5 0.90778297
vt 0.58098 0.89327103
vt 0.5 0.90151602
vt 0.5 0.924854994
vt 0.5 0.924854994
vt 0.585672 0.91613197
vt 0.58098 0.89327103
vt 0.658644 0.86887199
vt 0.58098 0.89327103
vt 0.585672 0.91613197
vt 0.585672 0.91613197
vt 0.667836 0.89032
vt 0.658644 0.86887199
vt 0.729813 0.829319
vt 0.658644 0.86887199
vt 0.667836 0.89032
vt 0.743129 0.84847498
vt 0.791574 0.77623099
vt 0.729813 0.829319
vt 0.743129 0.84847498
vt 0.808468 0.79231101
vt 0.841397 0.71178198
vt 0.791574 0.77623099
vt 0.808468 0.79231101
vt 0.861178 0.724127
vt 0.877244 0.638609
vt 0.841397 0.71178198
vt 0.861178 0.724127
vt 0.899102 0.646715
vt 0.897646 0.559709
vt 0.877244 0.638609
vt 0.899102 0.646715
vt 0.920686 0.563244
vt 0.901769 0.47831202
vt 0.897646 0.559709
vt 0.920686 0.563244
vt 0.920686 0.563244
vt 0.925048 0.47713
vt 0.901769 0.47831202
vt 0.889443 0.39775097
vt 0.901769 0.47831202
vt 0.925048 0.47713
vt 0.912008 0.39190102
vt 0.861173 0.32132196
vt 0.889443 0.39775097
vt 0.912008 0.39190102
vt 0.8821 0.31104398
vt 0.818117 0.25215602
vt 0.861173 0.32132196
vt 0.8821 0.31104398
vt 0.8821 0.31104398
vt 0.83655 0.23786998
vt 0.818117 0.25215602
vt 0.762037 0.19308501
vt 0.818117 0.25215602
vt 0.83655 0.23786998
vt 0.83655 0.23786998
vt 0.77722 0.175376
vt 0.762037 0.19308501
vt 0.69523 0.14652503
vt 0.762037 0.19308501
vt 0.77722 0.175376
vt 0.706542 0.12611902
vt 0.620429 0.11438501
vt 0.69523 0.14652503
vt 0.706542 0.12611902
vt 0.627407 0.092116
vt 0.540698 0.09797901
vt 0.620429 0.11438501
vt 0.627407 0.092116
vt 0.543056 0.07475901
vt 0.459301 0.09797901
vt 0.540698 0.09797901
vt 0.543056 0.07475901
vt 0.456943 0.07475901
vt 0.37957 0.11438501
vt 0.459301 0.09797901
vt 0.456943 0.07475901
vt 0.372593 0.092116
vt 0.30477 0.14652503
vt 0.37957 0.11438501
vt 0.372593 0.092116
vt 0.293458 0.12611902
vt 0.237962 0.19308501
vt 0.30477 0.14652503
vt 0.293458 0.12611902
vt 0.222779 0.175376
vt 0.181883 0.25215697
vt 0.237962 0.19308501
vt 0.222779 0.175376
vt 0.16345 0.23787099
vt 0.138826 0.32132304
vt 0.181883 0.25215697
vt 0.16345 0.23787099
vt 0.16345 0.23787099
vt 0.117899 0.31104398
vt 0.138826 0.32132304
vt 0.110557 0.39775097
vt 0.138826 0.32132304
vt 0.117899 0.31104398
vt 0.087992 0.39190102
vt 0.098231 0.47831297
vt 0.110557 0.39775097
vt 0.087992 0.39190102
vt 0.074952 0.477131
vt 0.102354 0.55971003
vt 0.098231 0.47831297
vt 0.074952 0.477131
vt 0.079314 0.563244
vt 0.122756 0.63861
vt 0.102354 0.55971003
vt 0.079314 0.563244
vt 0.100898 0.646715
vt 0.158603 0.71178198
vt 0.122756 0.63861
vt 0.100898 0.646715
vt 0.138822 0.724128
vt 0.208427 0.776232
vt 0.158603 0.71178198
vt 0.138822 0.724128
vt 0.138822 0.724128
vt 0.191533 0.79231203
vt 0.208427 0.776232
vt 0.270188 0.82932001
vt 0.208427 0.776232
vt 0.191533 0.79231203
vt 0.256872 0.84847498
vt 0.341357 0.86887199
vt 0.270188 0.82932001
vt 0.256872 0.84847498
vt 0.332165 0.89032
vt 0.419021 0.89327103
vt 0.341357 0.86887199
vt 0.332165 0.89032
vt 0.414329 0.91613197
vt 0.5 0.90151602
vt 0.419021 0.89327103
vt 0.414329 0.91613197
vt 0.414329 0.91613197
vt 0.5 0.924854994
vt 0.5 0.90151602
vt 0.58098 0.89327103
vt 0.5 0.90151602
vt 0.5 0.90778297
vt 0.5 0.90778297
vt 0.582239 0.899408996
vt 0.58098 0.89327103
vt 0.658644 0.86887199
vt 0.58098 0.89327103
vt 0.582239 0.899408996
vt 0.582239 0.899408996
vt 0.661112 0.87463099
vt 0.658644 0.86887199
vt 0.729813 0.829319
vt 0.658644 0.86887199
vt 0.661112 0.87463099
vt 0.661112 0.87463099
vt 0.733388 0.834463
vt 0.729813 0.829319
vt 0.791574 0.77623099
vt 0.729813 0.829319
vt 0.733388 0.834463
vt 0.79611 0.78054899
vt 0.841397 0.71178198
vt 0.791574 0.77623099
vt 0.79611 0.78054899
vt 0.79611 0.78054899
vt 0.846709 0.715097
vt 0.841397 0.71178198
vt 0.877244 0.638609
vt 0.841397 0.71178198
vt 0.846709 0.715097
vt 0.846709 0.715097
vt 0.883113 0.640786
vt 0.877244 0.638609
vt 0.897646 0.559709
vt 0.877244 0.638609
vt 0.883113 0.640786
vt 0.903833 0.56065798
vt 0.901769 0.47831202
vt 0.897646 0.559709
vt 0.903833 0.56065798
vt 0.90802 0.47799504
vt 0.889443 0.39775097
vt 0.901769 0.47831202
vt 0.90802 0.47799504
vt 0.90802 0.47799504
vt 0.895502 0.39618003
vt 0.889443 0.39775097
vt 0.861173 0.32132196
vt 0.889443 0.39775097
vt 0.895502 0.39618003
vt 0.895502 0.39618003
vt 0.866793 0.31856203
vt 0.861173 0.32132196
vt 0.818117 0.25215602
vt 0.861173 0.32132196
vt 0.866793 0.31856203
vt 0.823067 0.24831998
vt 0.762037 0.19308501
vt 0.818117 0.25215602
vt 0.823067 0.24831998
vt 0.766114 0.18833
vt 0.69523 0.14652503
vt 0.762037 0.19308501
vt 0.766114 0.18833
vt 0.766114 0.18833
vt 0.698267 0.14104599
vt 0.69523 0.14652503
vt 0.620429 0.11438501
vt 0.69523 0.14652503
vt 0.698267 0.14104599
vt 0.698267 0.14104599
vt 0.622303 0.108404994
vt 0.620429 0.11438501
vt 0.540698 0.09797901
vt 0.620429 0.11438501
vt 0.622303 0.108404994
vt 0.541332 0.091744006
vt 0.459301 0.09797901
vt 0.540698 0.09797901
vt 0.541332 0.091744006
vt 0.458668 0.091744006
vt 0.37957 0.11438501
vt 0.459301 0.09797901
vt 0.458668 0.091744006
vt 0.458668 0.091744006
vt 0.377697 0.108404994
vt 0.37957 0.11438501
vt 0.30477 0.14652503
vt 0.37957 0.11438501
vt 0.377697 0.108404994
vt 0.377697 0.108404994
vt 0.301733 0.14104599
vt 0.30477 0.14652503
vt 0.237962 0.19308501
vt 0.30477 0.14652503
vt 0.301733 0.14104599
vt 0.301733 0.14104599
vt 0.233886 0.18833
vt 0.237962 0.19308501
vt 0.181883 0.25215697
vt 0.237962 0.19308501
vt 0.233886 0.18833
vt 0.176933 0.248321
vt 0.138826 0.32132304
vt 0.181883 0.25215697
vt 0.176933 0.248321
vt 0.133207 0.31856298
vt 0.110557 0.39775097
vt 0.138826 0.32132304
vt 0.133207 0.31856298
vt 0.133207 0.31856298
vt 0.104498 0.39618003
vt 0.110557 0.39775097
vt 0.098231 0.47831297
vt 0.110557 0.39775097
vt 0.104498 0.39618003
vt 0.104498 0.39618003
vt 0.09198 0.47799504
vt 0.098231 0.47831297
vt 0.102354 0.55971003
vt 0.098231 0.47831297
vt 0.09198 0.47799504
vt 0.096167 0.560659
vt 0.122756 0.63861
vt 0.102354 0.55971003
vt 0.096167 0.560659
vt 0.116887 0.640786
vt 0.158603 0.71178198
vt 0.122756 0.63861
vt 0.116887 0.640786
vt 0.116887 0.640786
vt 0.153292 0.715097
vt 0.158603 0.71178198
vt 0.208427 0.776232
vt 0.158603 0.71178198
vt 0.153292 0.715097
vt 0.203891 0.78054899
vt 0.270188 0.82932001
vt 0.208427 0.776232
vt 0.203891 0.78054899
vt 0.266612 0.834463
vt 0.341357 0.86887199
vt 0.270188 0.82932001
vt 0.266612 0.834463
vt 0.266612 0.834463
vt 0.338889 0.87463099
vt 0.341357 0.86887199
vt 0.419021 0.89327103
vt 0.341357 0.86887199
vt 0.338889 0.87463099
vt 0.338889 0.87463099
vt 0.417761 0.89941001
vt 0.419021 0.89327103
vt 0.5 0.90151602
vt 0.419021 0.89327103
vt 0.417761 0.89941001
vt 0.417761 0.89941001
vt 0.5 0.90778297
vt 0.5 0.90151602
vn 0.201299 0.058349 0.97779
vn 0 0.059569 0.998224
vn 0 0.059569 0.998224
vn 0.201299 0.058349 0.97779
vn 0 -0.998224 0.059569
vn 0 -0.998224 0.059569
vn 0 -0.998224 0.059569
vn 0 -0.998224 0.059569
vn -0.201299 -0.058349 -0.97779
vn -0 -0.059569 -0.998224
vn -0 -0.059569 -0.998224
vn -0.201299 -0.058349 -0.97779
vn 0 0.998224 -0.059569
vn 0 0.998224 -0.059569
vn 0 0.998224 -0.059569
vn 0 0.998224 -0.059569
vn 0.394356 0.054741 0.917326
vn 0.394356 0.054741 0.917326
vn 0 -0.998224 0.059569
vn 0 -0.998224 0.059569
vn -0.394356 -0.054741 -0.917326
vn -0.394356 -0.054741 -0.917326
vn 0 0.998224 -0.059569
vn 0 0.998224 -0.059569
vn 0.571268 0.048892 0.819306
vn 0.571268 0.048892 0.819306
vn 0 -0.998224 0.059569
vn 0 -0.998224 0.059569
vn -0.571268 -0.048892 -0.819306
vn -0.571268 -0.048892 -0.819306
vn 0 0.998224 -0.059569
vn 0 0.998224 -0.059569
vn 0.724793 0.041041 0.687743
vn 0.724793 0.041041 0.687743
vn 0 -0.998224 0.059569
vn 0 -0.998224 0.059569
vn -0.724793 -0.041041 -0.687743
vn -0.724793 -0.041041 -0.687743
vn 0 0.998224 -0.059569
vn 0 0.998224 -0.059569
vn 0.848644 0.03151 0.528025
vn 0.848644 0.03151 0.528025
vn 0 -0.998224 0.059569
vn 0 -0.998224 0.059569
vn -0.848644 -0.03151 -0.528025
vn -0.848644 -0.03151 -0.528025
vn 0 0.998224 -0.059569
vn 0 0.998224 -0.059569
vn 0.937752 0.020689 0.346689
vn 0.937752 0.020689 0.346689
vn 0 -0.998224 0.059569
vn 0 -0.998224 0.059569
vn -0.937752 -0.020689 -0.346689
vn -0.937752 -0.020689 -0.346689
vn 0 0.998224 -0.059569
vn 0 0.998224 -0.059569
vn 0.988468 0.00902 0.151159
vn 0.988468 0.00902 0.151159
vn 0 -0.998224 0.059569
vn 0 -0.998224 0.059569
vn -0.988468 -0.00902 -0.151159
vn -0.988468 -0.00902 -0.151159
vn 0 0.998224 -0.059569
vn 0 0.998224 -0.059569
vn 0.998716 -0.003017 -0.050559
vn 0.998716 -0.003017 -0.050559
vn 0 -0.998224 0.059569
vn 0 -0.998224 0.059569
vn -0.998716 0.003017 0.050559
vn -0.998716 0.003017 0.050559
vn 0 0.998224 -0.059569
vn 0 0.998224 -0.059569
vn 0.968077 -0.014931 -0.250208
vn 0.968077 -0.014931 -0.250208
vn 0 -0.998224 0.059569
vn 0 -0.998224 0.059569
vn -0.968077 0.014931 0.250208
vn -0.968077 0.014931 0.250208
vn 0 0.998224 -0.059569
vn 0 0.998224 -0.059569
vn 0.897804 -0.026234 -0.439612
vn 0.897804 -0.026234 -0.439612
vn 0 -0.998224 0.059569
vn 0 -0.998224 0.059569
vn -0.897804 0.026234 0.439612
vn -0.897804 0.026234 0.439612
vn 0 0.998224 -0.059569
vn 0 0.998224 -0.059569
vn 0.790776 -0.036462 -0.611019
vn 0.790776 -0.036462 -0.611019
vn 0 -0.998224 0.059569
vn 0 -0.998224 0.059569
vn -0.790776 0.036462 0.611019
vn -0.790776 0.036462 0.611019
vn 0 0.998224 -0.059569
vn 0 0.998224 -0.059569
vn 0.651372 -0.045198 -0.757411
vn 0.651372 -0.045198 -0.757411
vn 0 -0.998224 0.059569
vn 0 -0.998224 0.059569
vn -0.651372 0.045198 0.757411
vn -0.651372 0.045198 0.757411
vn 0 0.998224 -0.059569
vn 0 0.998224 -0.059569
vn 0.485302 -0.052084 -0.872794
vn 0.485302 -0.052084 -0.872794
vn 0 -0.998224 0.059569
vn 0 -0.998224 0.059569
vn -0.485302 0.052084 0.872794
vn -0.485302 0.052084 0.872794
vn 0 0.998224 -0.059569
vn 0 0.998224 -0.059569
vn 0.299363 -0.056837 -0.952445
vn 0.299363 -0.056837 -0.952445
vn 0 -0.998224 0.059569
vn 0 -0.998224 0.059569
vn -0.299363 0.056837 0.952445
vn -0.299363 0.056837 0.952445
vn 0 0.998224 -0.059569
vn 0 0.998224 -0.059569
vn 0.101168 -0.059263 -0.993103
vn 0.101168 -0.059263 -0.993103
vn 0 -0.998224 0.059569
vn 0 -0.998224 0.059569
vn -0.101168 0.059263 0.993103
vn -0.101168 0.059263 0.993103
vn 0 0.998224 -0.059569
vn 0 0.998224 -0.059569
vn -0.101169 -0.059263 -0.993103
vn -0.101169 -0.059263 -0.993103
vn 0 -0.998224 0.059569
vn 0 -0.998224 0.059569
vn 0.101169 0.059263 0.993103
vn 0.101169 0.059263 0.993103
vn 0 0.998224 -0.059569
vn 0 0.998224 -0.059569
vn -0.299363 -0.056837 -0.952445
vn -0.299363 -0.056837 -0.952445
vn 0 -0.998224 0.059569
vn 0 -0.998224 0.059569
vn 0.299363 0.056837 0.952445
vn 0.299363 0.056837 0.952445
vn 0 0.998224 -0.059569
vn 0 0.998224 -0.059569
vn -0.485302 -0.052084 -0.872794
vn -0.485302 -0.052084 -0.872794
vn 0 -0.998224 0.059569
vn 0 -0.998224 0.059569
vn 0.485302 0.052084 0.872794
vn 0.485302 0.052084 0.872794
vn 0 0.998224 -0.059569
vn 0 0.998224 -0.059569
vn -0.651373 -0.045198 -0.75741
vn -0.651373 -0.045198 -0.75741
vn 0 -0.998224 0.059569
vn 0 -0.998224 0.059569
vn 0.651373 0.045198 0.75741
vn 0.651373 0.045198 0.75741
vn 0 0.998224 -0.059569
vn 0 0.998224 -0.059569
vn -0.790776 -0.036462 -0.611019
vn -0.790776 -0.036462 -0.611019
vn 0 -0.998224 0.059569
vn 0 -0.998224 0.059569
vn 0.790776 0.036462 0.611019
vn 0.790776 0.036462 0.611019
vn 0 0.998224 -0.059569
vn 0 0.998224 -0.059569
vn -0.897805 -0.026234 -0.439612
vn -0.897805 -0.026234 -0.439612
vn 0 -0.998224 0.059569
vn 0 -0.998224 0.059569
vn 0.897805 0.026234 0.439612
vn 0.897805 0.026234 0.439612
vn 0 0.998224 -0.059569
vn 0 0.998224 -0.059569
vn -0.968077 -0.014931 -0.250207
vn -0.968077 -0.014931 -0.250207
vn 0 -0.998224 0.059569
vn 0 -0.998224 0.059569
vn 0.968077 0.014931 0.250207
vn 0.968077 0.014931 0.250207
vn 0 0.998224 -0.059569
vn 0 0.998224 -0.059569
vn -0.998717 -0.003017 -0.050559
vn -0.998717 -0.003017 -0.050559
vn 0 -0.998224 0.059569
vn 0 -0.998224 0.059569
vn 0.998717 0.003017 0.050559
vn 0.998717 0.003017 0.050559
vn 0 0.998224 -0.059569
vn 0 0.998224 -0.059569
vn -0.988468 0.00902 0.151159
vn -0.988468 0.00902 0.151159
vn 0 -0.998224 0.059569
vn 0 -0.998224 0.059569
vn 0.988468 -0.00902 -0.151159
vn 0.988468 -0.00902 -0.151159
vn 0 0.998224 -0.059569
vn 0 0.998224 -0.059569
vn -0.937752 0.020689 0.346689
vn -0.937752 0.020689 0.346689
vn 0 -0.998224 0.059569
vn 0 -0.998224 0.059569
vn 0.937752 -0.020689 -0.346689
vn 0.937752 -0.020689 -0.346689
vn 0 0.998224 -0.059569
vn 0 0.998224 -0.059569
vn -0.848644 0.03151 0.528025
vn -0.848644 0.03151 0.528025
vn 0 -0.998224 0.059569
vn 0 -0.998224 0.059569
vn 0.848644 -0.03151 -0.528025
vn 0.848644 -0.03151 -0.528025
vn 0 0.998224 -0.059569
vn 0 0.998224 -0.059569
vn -0.724792 0.041041 0.687744
vn -0.724792 0.041041 0.687744
vn 0 -0.998224 0.059569
vn 0 -0.998224 0.059569
vn 0.724792 -0.041041 -0.687744
vn 0.724792 -0.041041 -0.687744
vn 0 0.998224 -0.059569
vn 0 0.998224 -0.059569
vn -0.571267 0.048892 0.819306
vn -0.571267 0.048892 0.819306
vn 0 -0.998224 0.059569
vn 0 -0.998224 0.059569
vn 0.571267 -0.048892 -0.819306
vn 0.571267 -0.048892 -0.819306
vn 0 0.998224 -0.059569
vn 0 0.998224 -0.059569
vn -0.394355 0.054741 0.917326
vn -0.394355 0.054741 0.917326
vn 0 -0.998224 0.059569
vn 0 -0.998224 0.059569
vn 0.394355 -0.054741 -0.917326
vn 0.394355 -0.054741 -0.917326
vn 0 0.998224 -0.059569
vn 0 0.998224 -0.059569
vn -0.201298 0.058349 0.977791
vn -0.201298 0.058349 0.977791
vn 0 -0.998224 0.059569
vn 0 -0.998224 0.059569
vn 0.201298 -0.058349 -0.977791
vn 0.201298 -0.058349 -0.977791
vn 0 0.998224 -0.059569
vn 0 0.998224 -0.059569
vn 0.07172 0.746046 0.66202
vn 0.07172 0.746046 0.66202
vn 0.07172 0.746046 0.66202
vn 0.071721 0.746047 0.66202
vn 0.071721 0.746047 0.66202
vn 0.071721 0.746047 0.66202
vn 0.212225 0.744327 0.633197
vn 0.212225 0.744327 0.633197
vn 0.212225 0.744327 0.633197
vn 0.212226 0.744325 0.633198
vn 0.212226 0.744325 0.633198
vn 0.212226 0.744325 0.633198
vn 0.344042 0.740956 0.576732
vn 0.344042 0.740956 0.576732
vn 0.344042 0.740956 0.576732
vn 0.344042 0.740957 0.576731
vn 0.344042 0.740957 0.576731
vn 0.344042 0.740957 0.576731
vn 0.461773 0.736076 0.494933
vn 0.461773 0.736076 0.494933
vn 0.461773 0.736076 0.494933
vn 0.461773 0.736075 0.494933
vn 0.461773 0.736075 0.494933
vn 0.461773 0.736075 0.494933
vn 0.560599 0.729882 0.391152
vn 0.560599 0.729882 0.391152
vn 0.560599 0.729882 0.391152
vn 0.5606 0.729881 0.391153
vn 0.5606 0.729881 0.391153
vn 0.5606 0.729881 0.391153
vn 0.636475 0.72263 0.269639
vn 0.636475 0.72263 0.269639
vn 0.636475 0.72263 0.269639
vn 0.636474 0.722631 0.269638
vn 0.636474 0.722631 0.269638
vn 0.636474 0.722631 0.269638
vn 0.686292 0.714619 0.135365
vn 0.686292 0.714619 0.135365
vn 0.686292 0.714619 0.135365
vn 0.686292 0.714619 0.135365
vn 0.708013 0.706173 -0.006171
vn 0.708013 0.706173 -0.006171
vn 0.708013 0.706173 -0.006171
vn 0.708013 0.706173 -0.006171
vn 0.700748 0.697639 -0.149173
vn 0.700748 0.697639 -0.149173
vn 0.700748 0.697639 -0.149173
vn 0.700749 0.697637 -0.149173
vn 0.700749 0.697637 -0.149173
vn 0.700749 0.697637 -0.149173
vn 0.664795 0.689366 -0.287789
vn 0.664795 0.689366 -0.287789
vn 0.664795 0.689366 -0.287789
vn 0.664794 0.689366 -0.287789
vn 0.664794 0.689366 -0.287789
vn 0.664794 0.689366 -0.287789
vn 0.601624 0.681695 -0.416342
vn 0.601624 0.681695 -0.416342
vn 0.601624 0.681695 -0.416342
vn 0.601624 0.681695 -0.416342
vn 0.513822 0.674938 -0.52957
vn 0.513822 0.674938 -0.52957
vn 0.513822 0.674938 -0.52957
vn 0.513822 0.674938 -0.529571
vn 0.513822 0.674938 -0.529571
vn 0.513822 0.674938 -0.529571
vn 0.404986 0.669372 -0.622838
vn 0.404986 0.669372 -0.622838
vn 0.404986 0.669372 -0.622838
vn 0.404985 0.669374 -0.622837
vn 0.404985 0.669374 -0.622837
vn 0.404985 0.669374 -0.622837
vn 0.279567 0.665227 -0.692326
vn 0.279567 0.665227 -0.692326
vn 0.279567 0.665227 -0.692326
vn 0.279568 0.665225 -0.692327
vn 0.279568 0.665225 -0.692327
vn 0.279568 0.665225 -0.692327
vn 0.142705 0.662667 -0.735192
vn 0.142705 0.662667 -0.735192
vn 0.142705 0.662667 -0.735192
vn 0.142705 0.662668 -0.735191
vn 0.142705 0.662668 -0.735191
vn 0.142705 0.662668 -0.735191
vn 0 0.661804 -0.749677
vn 0 0.661804 -0.749677
vn 0 0.661804 -0.749677
vn 0 0.661804 -0.749677
vn -0.142706 0.662668 -0.735191
vn -0.142706 0.662668 -0.735191
vn -0.142706 0.662668 -0.735191
vn -0.142706 0.662667 -0.735192
vn -0.142706 0.662667 -0.735192
vn -0.142706 0.662667 -0.735192
vn -0.279568 0.665225 -0.692327
vn -0.279568 0.665225 -0.692327
vn -0.279568 0.665225 -0.692327
vn -0.279568 0.665227 -0.692326
vn -0.279568 0.665227 -0.692326
vn -0.279568 0.665227 -0.692326
vn -0.404985 0.669374 -0.622837
vn -0.404985 0.669374 -0.622837
vn -0.404985 0.669374 -0.622837
vn -0.404986 0.669372 -0.622838
vn -0.404986 0.669372 -0.622838
vn -0.404986 0.669372 -0.622838
vn -0.513823 0.674938 -0.52957
vn -0.513823 0.674938 -0.52957
vn -0.513823 0.674938 -0.52957
vn -0.513823 0.674938 -0.52957
vn -0.601624 0.681695 -0.416342
vn -0.601624 0.681695 -0.416342
vn -0.601624 0.681695 -0.416342
vn -0.601624 0.681695 -0.416342
vn -0.664795 0.689366 -0.287788
vn -0.664795 0.689366 -0.287788
vn -0.664795 0.689366 -0.287788
vn -0.664795 0.689366 -0.287788
vn -0.700749 0.697638 -0.149173
vn -0.700749 0.697638 -0.149173
vn -0.700749 0.697638 -0.149173
vn -0.700748 0.697639 -0.149172
vn -0.700748 0.697639 -0.149172
vn -0.700748 0.697639 -0.149172
vn -0.708013 0.706173 -0.00617
vn -0.708013 0.706173 -0.00617
vn -0.708013 0.706173 -0.00617
vn -0.708013 0.706173 -0.00617
vn -0.686292 0.714619 0.135365
vn -0.686292 0.714619 0.135365
vn -0.686292 0.714619 0.135365
vn -0.686292 0.714619 0.135365
vn -0.636474 0.722631 0.269638
vn -0.636474 0.722631 0.269638
vn -0.636474 0.722631 0.269638
vn -0.636474 0.722632 0.269638
vn -0.636474 0.722632 0.269638
vn -0.636474 0.722632 0.269638
vn -0.560598 0.729883 0.391153
vn -0.560598 0.729883 0.391153
vn -0.560598 0.729883 0.391153
vn -0.560599 0.729882 0.391153
vn -0.560599 0.729882 0.391153
vn -0.560599 0.729882 0.391153
vn -0.461773 0.736075 0.494933
vn -0.461773 0.736075 0.494933
vn -0.461773 0.736075 0.494933
vn -0.461773 0.736075 0.494933
vn -0.344041 0.740957 0.576731
vn -0.344041 0.740957 0.576731
vn -0.344041 0.740957 0.576731
vn -0.344041 0.740956 0.576732
vn -0.344041 0.740956 0.576732
vn -0.344041 0.740956 0.576732
vn -0.212225 0.744325 0.633198
vn -0.212225 0.744325 0.633198
vn -0.212225 0.744325 0.633198
vn -0.212225 0.744327 0.633197
vn -0.212225 0.744327 0.633197
vn -0.212225 0.744327 0.633197
vn -0.07172 0.746047 0.66202
vn -0.07172 0.746047 0.66202
vn -0.07172 0.746047 0.66202
vn -0.07172 0.746046 0.66202
vn -0.07172 0.746046 0.66202
vn -0.07172 0.746046 0.66202
vn -0.026362 -0.979182 -0.201266
vn -0.026362 -0.979182 -0.201266
vn -0.026362 -0.979182 -0.201266
vn -0.026362 -0.979182 -0.201267
vn -0.026362 -0.979182 -0.201267
vn -0.026362 -0.979182 -0.201267
vn -0.078006 -0.978549 -0.190672
vn -0.078006 -0.978549 -0.190672
vn -0.078006 -0.978549 -0.190672
vn -0.078007 -0.978549 -0.190672
vn -0.078007 -0.978549 -0.190672
vn -0.078007 -0.978549 -0.190672
vn -0.126457 -0.977311 -0.169917
vn -0.126457 -0.977311 -0.169917
vn -0.126457 -0.977311 -0.169917
vn -0.126457 -0.977311 -0.169917
vn -0.169731 -0.975517 -0.139851
vn -0.169731 -0.975517 -0.139851
vn -0.169731 -0.975517 -0.139851
vn -0.169731 -0.975517 -0.139851
vn -0.206056 -0.97324 -0.101705
vn -0.206056 -0.97324 -0.101705
vn -0.206056 -0.97324 -0.101705
vn -0.206056 -0.97324 -0.101705
vn -0.233945 -0.970575 -0.057041
vn -0.233945 -0.970575 -0.057041
vn -0.233945 -0.970575 -0.057041
vn -0.233945 -0.970575 -0.057041
vn -0.252256 -0.96763 -0.007687
vn -0.252256 -0.96763 -0.007687
vn -0.252256 -0.96763 -0.007687
vn -0.252256 -0.96763 -0.007687
vn -0.26024 -0.964525 0.044337
vn -0.26024 -0.964525 0.044337
vn -0.26024 -0.964525 0.044337
vn -0.26024 -0.964525 0.044336
vn -0.26024 -0.964525 0.044336
vn -0.26024 -0.964525 0.044336
vn -0.25757 -0.961389 0.096899
vn -0.25757 -0.961389 0.096899
vn -0.25757 -0.961389 0.096899
vn -0.25757 -0.961389 0.096899
vn -0.244355 -0.958348 0.147849
vn -0.244355 -0.958348 0.147849
vn -0.244355 -0.958348 0.147849
vn -0.244355 -0.958348 0.147849
vn -0.221136 -0.955528 0.195101
vn -0.221136 -0.955528 0.195101
vn -0.221136 -0.955528 0.195101
vn -0.221135 -0.955528 0.195101
vn -0.221135 -0.955528 0.195101
vn -0.221135 -0.955528 0.195101
vn -0.188863 -0.953045 0.23672
vn -0.188863 -0.953045 0.23672
vn -0.188863 -0.953045 0.23672
vn -0.188863 -0.953045 0.236719
vn -0.188863 -0.953045 0.236719
vn -0.188863 -0.953045 0.236719
vn -0.148858 -0.950999 0.271001
vn -0.148858 -0.950999 0.271001
vn -0.148858 -0.950999 0.271001
vn -0.148858 -0.950999 0.271001
vn -0.102759 -0.949475 0.296543
vn -0.102759 -0.949475 0.296543
vn -0.102759 -0.949475 0.296543
vn -0.102759 -0.949475 0.296543
vn -0.052453 -0.948535 0.312298
vn -0.052453 -0.948535 0.312298
vn -0.052453 -0.948535 0.312298
vn -0.052453 -0.948535 0.312298
vn 0 -0.948217 0.317623
vn 0 -0.948217 0.317623
vn 0 -0.948217 0.317623
vn 0 -0.948217 0.317623
vn 0.052453 -0.948535 0.312298
vn 0.052453 -0.948535 0.312298
vn 0.052453 -0.948535 0.312298
vn 0.052453 -0.948535 0.312298
vn 0.102759 -0.949475 0.296543
vn 0.102759 -0.949475 0.296543
vn 0.102759 -0.949475 0.296543
vn 0.102759 -0.949475 0.296543
vn 0.148858 -0.950999 0.271001
vn 0.148858 -0.950999 0.271001
vn 0.148858 -0.950999 0.271001
vn 0.148858 -0.950999 0.271001
vn 0.188863 -0.953045 0.236719
vn 0.188863 -0.953045 0.236719
vn 0.188863 -0.953045 0.236719
vn 0.188863 -0.953045 0.236719
vn 0.221135 -0.955528 0.195101
vn 0.221135 -0.955528 0.195101
vn 0.221135 -0.955528 0.195101
vn 0.221135 -0.955529 0.195101
vn 0.221135 -0.955529 0.195101
vn 0.221135 -0.955529 0.195101
vn 0.244355 -0.958348 0.147849
vn 0.244355 -0.958348 0.147849
vn 0.244355 -0.958348 0.147849
vn 0.244355 -0.958348 0.147849
vn 0.25757 -0.961389 0.096899
vn 0.25757 -0.961389 0.096899
vn 0.25757 -0.961389 0.096899
vn 0.25757 -0.961389 0.096899
vn 0.26024 -0.964525 0.044336
vn 0.26024 -0.964525 0.044336
vn 0.26024 -0.964525 0.044336
vn 0.26024 -0.964525 0.044336
vn 0.252256 -0.96763 -0.007687
vn 0.252256 -0.96763 -0.007687
vn 0.252256 -0.96763 -0.007687
vn 0.252256 -0.96763 -0.007687
vn 0.233945 -0.970575 -0.057041
vn 0.233945 -0.970575 -0.057041
vn 0.233945 -0.970575 -0.057041
vn 0.233945 -0.970575 -0.057041
vn 0.206056 -0.97324 -0.101705
vn 0.206056 -0.97324 -0.101705
vn 0.206056 -0.97324 -0.101705
vn 0.206056 -0.97324 -0.101706
vn 0.206056 -0.97324 -0.101706
vn 0.206056 -0.97324 -0.101706
vn 0.169731 -0.975517 -0.139851
vn 0.169731 -0.975517 -0.139851
vn 0.169731 -0.975517 -0.139851
vn 0.169731 -0.975517 -0.139851
vn 0.126457 -0.977311 -0.169917
vn 0.126457 -0.977311 -0.169917
vn 0.126457 -0.977311 -0.169917
vn 0.126457 -0.977311 -0.169917
vn 0.078006 -0.978549 -0.190672
vn 0.078006 -0.978549 -0.190672
vn 0.078006 -0.978549 -0.190672
vn 0.078006 -0.978549 -0.190672
vn 0.026362 -0.979182 -0.201267
vn 0.026362 -0.979182 -0.201267
vn 0.026362 -0.979182 -0.201267
vn 0.026362 -0.979182 -0.201266
vn 0.026362 -0.979182 -0.201266
vn 0.026362 -0.979182 -0.201266
vn -0.097741 -0.314883 -0.944084
vn -0.097741 -0.314883 -0.944084
vn -0.097741 -0.314883 -0.944084
vn -0.097741 -0.314884 -0.944084
vn -0.097741 -0.314884 -0.944084
vn -0.097741 -0.314884 -0.944084
vn -0.289221 -0.312539 -0.904804
vn -0.289221 -0.312539 -0.904804
vn -0.289221 -0.312539 -0.904804
vn -0.289222 -0.312539 -0.904804
vn -0.289222 -0.312539 -0.904804
vn -0.289222 -0.312539 -0.904804
vn -0.468861 -0.307946 -0.827852
vn -0.468861 -0.307946 -0.827852
vn -0.468861 -0.307946 -0.827852
vn -0.468861 -0.307947 -0.827852
vn -0.468861 -0.307947 -0.827852
vn -0.468861 -0.307947 -0.827852
vn -0.629305 -0.301295 -0.716377
vn -0.629305 -0.301295 -0.716377
vn -0.629305 -0.301295 -0.716377
vn -0.629305 -0.301295 -0.716377
vn -0.763986 -0.292855 -0.574945
vn -0.763986 -0.292855 -0.574945
vn -0.763986 -0.292855 -0.574945
vn -0.763986 -0.292854 -0.574945
vn -0.763986 -0.292854 -0.574945
vn -0.763986 -0.292854 -0.574945
vn -0.867389 -0.282972 -0.409345
vn -0.867389 -0.282972 -0.409345
vn -0.867389 -0.282972 -0.409345
vn -0.867389 -0.282973 -0.409345
vn -0.867389 -0.282973 -0.409345
vn -0.867389 -0.282973 -0.409345
vn -0.93528 -0.272053 -0.226357
vn -0.93528 -0.272053 -0.226357
vn -0.93528 -0.272053 -0.226357
vn -0.93528 -0.272053 -0.226357
vn -0.964882 -0.260543 -0.033472
vn -0.964882 -0.260543 -0.033472
vn -0.964882 -0.260543 -0.033472
vn -0.964882 -0.260543 -0.033472
vn -0.954981 -0.248913 0.161412
vn -0.954981 -0.248913 0.161412
vn -0.954981 -0.248913 0.161412
vn -0.954981 -0.248912 0.161412
vn -0.954981 -0.248912 0.161412
vn -0.954981 -0.248912 0.161412
vn -0.905983 -0.237639 0.350318
vn -0.905983 -0.237639 0.350318
vn -0.905983 -0.237639 0.350318
vn -0.905983 -0.23764 0.350317
vn -0.905983 -0.23764 0.350317
vn -0.905983 -0.23764 0.350317
vn -0.819894 -0.227185 0.52551
vn -0.819894 -0.227185 0.52551
vn -0.819894 -0.227185 0.52551
vn -0.819894 -0.227185 0.52551
vn -0.700238 -0.217977 0.679818
vn -0.700238 -0.217977 0.679818
vn -0.700238 -0.217977 0.679818
vn -0.700238 -0.217977 0.679818
vn -0.551915 -0.210392 0.806923
vn -0.551915 -0.210392 0.806923
vn -0.551915 -0.210392 0.806923
vn -0.551915 -0.210393 0.806923
vn -0.551915 -0.210393 0.806923
vn -0.551915 -0.210393 0.806923
vn -0.380996 -0.204742 0.901622
vn -0.380996 -0.204742 0.901622
vn -0.380996 -0.204742 0.901622
vn -0.380996 -0.204741 0.901623
vn -0.380996 -0.204741 0.901623
vn -0.380996 -0.204741 0.901623
vn -0.194479 -0.201255 0.960039
vn -0.194479 -0.201255 0.960039
vn -0.194479 -0.201255 0.960039
vn -0.194479 -0.201255 0.960039
vn 0 -0.200077 0.97978
vn 0 -0.200077 0.97978
vn 0 -0.200077 0.97978
vn 0 -0.200077 0.97978
vn 0.194479 -0.201255 0.960039
vn 0.194479 -0.201255 0.960039
vn 0.194479 -0.201255 0.960039
vn 0.19448 -0.201255 0.960039
vn 0.19448 -0.201255 0.960039
vn 0.19448 -0.201255 0.960039
vn 0.380996 -0.204741 0.901623
vn 0.380996 -0.204741 0.901623
vn 0.380996 -0.204741 0.901623
vn 0.380996 -0.204742 0.901623
vn 0.380996 -0.204742 0.901623
vn 0.380996 -0.204742 0.901623
vn 0.551915 -0.210393 0.806923
vn 0.551915 -0.210393 0.806923
vn 0.551915 -0.210393 0.806923
vn 0.551915 -0.210392 0.806923
vn 0.551915 -0.210392 0.806923
vn 0.551915 -0.210392 0.806923
vn 0.700239 -0.217977 0.679818
vn 0.700239 -0.217977 0.679818
vn 0.700239 -0.217977 0.679818
vn 0.700239 -0.217977 0.679818
vn 0.819894 -0.227185 0.52551
vn 0.819894 -0.227185 0.52551
vn 0.819894 -0.227185 0.52551
vn 0.819894 -0.227185 0.52551
vn 0.905983 -0.23764 0.350317
vn 0.905983 -0.23764 0.350317
vn 0.905983 -0.23764 0.350317
vn 0.905983 -0.23764 0.350316
vn 0.905983 -0.23764 0.350316
vn 0.905983 -0.23764 0.350316
vn 0.954981 -0.248912 0.161411
vn 0.954981 -0.248912 0.161411
vn 0.954981 -0.248912 0.161411
vn 0.954981 -0.248913 0.161411
vn 0.954981 -0.248913 0.161411
vn 0.954981 -0.248913 0.161411
vn 0.964882 -0.260543 -0.033473
vn 0.964882 -0.260543 -0.033473
vn 0.964882 -0.260543 -0.033473
vn 0.964882 -0.260543 -0.033473
vn 0.93528 -0.272053 -0.226357
vn 0.93528 -0.272053 -0.226357
vn 0.93528 -0.272053 -0.226357
vn 0.93528 -0.272053 -0.226357
vn 0.867388 -0.282973 -0.409346
vn 0.867388 -0.282973 -0.409346
vn 0.867388 -0.282973 -0.409346
vn 0.867388 -0.282973 -0.409345
vn 0.867388 -0.282973 -0.409345
vn 0.867388 -0.282973 -0.409345
vn 0.763985 -0.292855 -0.574946
vn 0.763985 -0.292855 -0.574946
vn 0.763985 -0.292855 -0.574946
vn 0.763985 -0.292855 -0.574946
vn 0.629305 -0.301295 -0.716378
vn 0.629305 -0.301295 -0.716378
vn 0.629305 -0.301295 -0.716378
vn 0.629305 -0.301295 -0.716378
vn 0.46886 -0.307947 -0.827852
vn 0.46886 -0.307947 -0.827852
vn 0.46886 -0.307947 -0.827852
vn 0.46886 -0.307946 -0.827852
vn 0.46886 -0.307946 -0.827852
vn 0.46886 -0.307946 -0.827852
vn 0.289221 -0.312538 -0.904804
vn 0.289221 -0.312538 -0.904804
vn 0.289221 -0.312538 -0.904804
vn 0.289221 -0.312539 -0.904804
vn 0.289221 -0.312539 -0.904804
vn 0.289221 -0.312539 -0.904804
vn 0.09774 -0.314884 -0.944084
vn 0.09774 -0.314884 -0.944084
vn 0.09774 -0.314884 -0.944084
vn 0.09774 -0.314883 -0.944084
vn 0.09774 -0.314883 -0.944084
vn 0.09774 -0.314883 -0.944084
f 251/251/251 250/250/250 249/249/249
f 3/3/3 2/2/2 1/1/1
f 1/1/1 4/4/4 3/3/3
f 2/2/2 3/3/3 242/242/242
f 4/4/4 1/1/1 17/17/17
f 242/242/242 241/241/241 2/2/2
f 17/17/17 18/18/18 4/4/4
f 241/241/241 242/242/242 234/234/234
f 18/18/18 17/17/17 25/25/25
f 234/234/234 233/233/233 241/241/241
f 25/25/25 26/26/26 18/18/18
f 233/233/233 234/234/234 226/226/226
f 26/26/26 25/25/25 33/33/33
f 226/226/226 225/225/225 233/233/233
f 33/33/33 34/34/34 26/26/26
f 225/225/225 226/226/226 218/218/218
f 34/34/34 33/33/33 41/41/41
f 218/218/218 217/217/217 225/225/225
f 41/41/41 42/42/42 34/34/34
f 217/217/217 218/218/218 210/210/210
f 42/42/42 41/41/41 49/49/49
f 210/210/210 209/209/209 217/217/217
f 49/49/49 50/50/50 42/42/42
f 209/209/209 210/210/210 202/202/202
f 50/50/50 49/49/49 57/57/57
f 202/202/202 201/201/201 209/209/209
f 57/57/57 58/58/58 50/50/50
f 201/201/201 202/202/202 194/194/194
f 58/58/58 57/57/57 65/65/65
f 194/194/194 193/193/193 201/201/201
f 65/65/65 66/66/66 58/58/58
f 193/193/193 194/194/194 186/186/186
f 66/66/66 65/65/65 73/73/73
f 186/186/186 185/185/185 193/193/193
f 73/73/73 74/74/74 66/66/66
f 185/185/185 186/186/186 178/178/178
f 74/74/74 73/73/73 81/81/81
f 178/178/178 177/177/177 185/185/185
f 81/81/81 82/82/82 74/74/74
f 177/177/177 178/178/178 170/170/170
f 82/82/82 81/81/81 89/89/89
f 170/170/170 169/169/169 177/177/177
f 89/89/89 90/90/90 82/82/82
f 169/169/169 170/170/170 162/162/162
f 90/90/90 89/89/89 97/97/97
f 162/162/162 161/161/161 169/169/169
f 97/97/97 98/98/98 90/90/90
f 161/161/161 162/162/162 154/154/154
f 98/98/98 97/97/97 105/105/105
f 154/154/154 153/153/153 161/161/161
f 105/105/105 106/106/106 98/98/98
f 153/153/153 154/154/154 146/146/146
f 106/106/106 105/105/105 113/113/113
f 146/146/146 145/145/145 153/153/153
f 113/113/113 114/114/114 106/106/106
f 145/145/145 146/146/146 138/138/138
f 114/114/114 113/113/113 121/121/121
f 138/138/138 137/137/137 145/145/145
f 121/121/121 122/122/122 114/114/114
f 137/137/137 138/138/138 130/130/130
f 122/122/122 121/121/121 129/129/129
f 130/130/130 129/129/129 137/137/137
f 129/129/129 130/130/130 122/122/122
f 7/7/7 6/6/6 5/5/5
f 5/5/5 8/8/8 7/7/7
f 6/6/6 7/7/7 244/244/244
f 8/8/8 5/5/5 19/19/19
f 244/244/244 243/243/243 6/6/6
f 19/19/19 20/20/20 8/8/8
f 243/243/243 244/244/244 236/236/236
f 20/20/20 19/19/19 27/27/27
f 236/236/236 235/235/235 243/243/243
f 27/27/27 28/28/28 20/20/20
f 235/235/235 236/236/236 228/228/228
f 28/28/28 27/27/27 35/35/35
f 228/228/228 227/227/227 235/235/235
f 35/35/35 36/36/36 28/28/28
f 227/227/227 228/228/228 220/220/220
f 36/36/36 35/35/35 43/43/43
f 220/220/220 219/219/219 227/227/227
f 43/43/43 44/44/44 36/36/36
f 219/219/219 220/220/220 212/212/212
f 44/44/44 43/43/43 51/51/51
f 212/212/212 211/211/211 219/219/219
f 51/51/51 52/52/52 44/44/44
f 211/211/211 212/212/212 204/204/204
f 52/52/52 51/51/51 59/59/59
f 204/204/204 203/203/203 211/211/211
f 59/59/59 60/60/60 52/52/52
f 203/203/203 204/204/204 196/196/196
f 60/60/60 59/59/59 67/67/67
f 196/196/196 195/195/195 203/203/203
f 67/67/67 68/68/68 60/60/60
f 195/195/195 196/196/196 188/188/188
f 68/68/68 67/67/67 75/75/75
f 188/188/188 187/187/187 195/195/195
f 75/75/75 76/76/76 68/68/68
f 187/187/187 188/188/188 180/180/180
f 76/76/76 75/75/75 83/83/83
f 180/180/180 179/179/179 187/187/187
f 83/83/83 84/84/84 76/76/76
f 179/179/179 180/180/180 172/172/172
f 84/84/84 83/83/83 91/91/91
f 172/172/172 171/171/171 179/179/179
f 91/91/91 92/92/92 84/84/84
f 171/171/171 172/172/172 164/164/164
f 92/92/92 91/91/91 99/99/99
f 164/164/164 163/163/163 171/171/171
f 99/99/99 100/100/100 92/92/92
f 163/163/163 164/164/164 156/156/156
f 100/100/100 99/99/99 107/107/107
f 156/156/156 155/155/155 163/163/163
f 107/107/107 108/108/108 100/100/100
f 155/155/155 156/156/156 148/148/148
f 108/108/108 107/107/107 115/115/115
f 148/148/148 147/147/147 155/155/155
f 115/115/115 116/116/116 108/108/108
f 147/147/147 148/148/148 140/140/140
f 116/116/116 115/115/115 123/123/123
f 140/140/140 139/139/139 147/147/147
f 123/123/123 124/124/124 116/116/116
f 139/139/139 140/140/140 132/132/132
f 124/124/124 123/123/123 131/131/131
f 132/132/132 131/131/131 139/139/139
f 131/131/131 132/132/132 124/124/124
f 11/11/11 10/10/10 9/9/9
f 9/9/9 12/12/12 11/11/11
f 10/10/10 11/11/11 246/246/246
f 12/12/12 9/9/9 21/21/21
f 246/246/246 245/245/245 10/10/10
f 21/21/21 22/22/22 12/12/12
f 245/245/245 246/246/246 238/238/238
f 22/22/22 21/21/21 29/29/29
f 238/238/238 237/237/237 245/245/245
f 29/29/29 30/30/30 22/22/22
f 237/237/237 238/238/238 230/230/230
f 30/30/30 29/29/29 37/37/37
f 230/230/230 229/229/229 237/237/237
f 37/37/37 38/38/38 30/30/30
f 229/229/229 230/230/230 222/222/222
f 38/38/38 37/37/37 45/45/45
f 222/222/222 221/221/221 229/229/229
f 45/45/45 46/46/46 38/38/38
f 221/221/221 222/222/222 214/214/214
f 46/46/46 45/45/45 53/53/53
f 214/214/214 213/213/213 221/221/221
f 53/53/53 54/54/54 46/46/46
f 213/213/213 214/214/214 206/206/206
f 54/54/54 53/53/53 61/61/61
f 206/206/206 205/205/205 213/213/213
f 61/61/61 62/62/62 54/54/54
f 205/205/205 206/206/206 198/198/198
f 62/62/62 61/61/61 69/69/69
f 198/198/198 197/197/197 205/205/205
f 69/69/69 70/70/70 62/62/62
f 197/197/197 198/198/198 190/190/190
f 70/70/70 69/69/69 77/77/77
f 190/190/190 189/189/189 197/197/197
f 77/77/77 78/78/78 70/70/70
f 189/189/189 190/190/190 182/182/182
f 78/78/78 77/77/77 85/85/85
f 182/182/182 181/181/181 189/189/189
f 85/85/85 86/86/86 78/78/78
f 181/181/181 182/182/182 174/174/174
f 86/86/86 85/85/85 93/93/93
f 174/174/174 173/173/173 181/181/181
f 93/93/93 94/94/94 86/86/86
f 173/173/173 174/174/174 166/166/166
f 94/94/94 93/93/93 101/101/101
f 166/166/166 165/165/165 173/173/173
f 101/101/101 102/102/102 94/94/94
f 165/165/165 166/166/166 158/158/158
f 102/102/102 101/101/101 109/109/109
f 158/158/158 157/157/157 165/165/165
f 109/109/109 110/110/110 102/102/102
f 157/157/157 158/158/158 150/150/150
f 110/110/110 109/109/109 117/117/117
f 150/150/150 149/149/149 157/157/157
f 117/117/117 118/118/118 110/110/110
f 149/149/149 150/150/150 142/142/142
f 118/118/118 117/117/117 125/125/125
f 142/142/142 141/141/141 149/149/149
f 125/125/125 126/126/126 118/118/118
f 141/141/141 142/142/142 134/134/134
f 126/126/126 125/125/125 133/133/133
f 134/134/134 133/133/133 141/141/141
f 133/133/133 134/134/134 126/126/126
f 15/15/15 14/14/14 13/13/13
f 13/13/13 16/16/16 15/15/15
f 14/14/14 15/15/15 248/248/248
f 16/16/16 13/13/13 23/23/23
f 248/248/248 247/247/247 14/14/14
f 23/23/23 24/24/24 16/16/16
f 247/247/247 248/248/248 240/240/240
f 24/24/24 23/23/23 31/31/31
f 240/240/240 239/239/239 247/247/247
f 31/31/31 32/32/32 24/24/24
f 239/239/239 240/240/240 232/232/232
f 32/32/32 31/31/31 39/39/39
f 232/232/232 231/231/231 239/239/239
f 39/39/39 40/40/40 32/32/32
f 231/231/231 232/232/232 224/224/224
f 40/40/40 39/39/39 47/47/47
f 224/224/224 223/223/223 231/231/231
f 47/47/47 48/48/48 40/40/40
f 223/223/223 224/224/224 216/216/216
f 48/48/48 47/47/47 55/55/55
f 216/216/216 215/215/215 223/223/223
f 55/55/55 56/56/56 48/48/48
f 215/215/215 216/216/216 208/208/208
f 56/56/56 55/55/55 63/63/63
f 208/208/208 207/207/207 215/215/215
f 63/63/63 64/64/64 56/56/56
f 207/207/207 208/208/208 200/200/200
f 64/64/64 63/63/63 71/71/71
f 200/200/200 199/199/199 207/207/207
f 71/71/71 72/72/72 64/64/64
f 199/199/199 200/200/200 192/192/192
f 72/72/72 71/71/71 79/79/79
f 192/192/192 191/191/191 199/199/199
f 79/79/79 80/80/80 72/72/72
f 191/191/191 192/192/192 184/184/184
f 80/80/80 79/79/79 87/87/87
f 184/184/184 183/183/183 191/191/191
f 87/87/87 88/88/88 80/80/80
f 183/183/183 184/184/184 176/176/176
f 88/88/88 87/87/87 95/95/95
f 176/176/176 175/175/175 183/183/183
f 95/95/95 96/96/96 88/88/88
f 175/175/175 176/176/176 168/168/168
f 96/96/96 95/95/95 103/103/103
f 168/168/168 167/167/167 175/175/175
f 103/103/103 104/104/104 96/96/96
f 167/167/167 168/168/168 160/160/160
f 104/104/104 103/103/103 111/111/111
f 160/160/160 159/159/159 167/167/167
f 111/111/111 112/112/112 104/104/104
f 159/159/159 160/160/160 152/152/152
f 112/112/112 111/111/111 119/119/119
f 152/152/152 151/151/151 159/159/159
f 119/119/119 120/120/120 112/112/112
f 151/151/151 152/152/152 144/144/144
f 120/120/120 119/119/119 127/127/127
f 144/144/144 143/143/143 151/151/151
f 127/127/127 128/128/128 120/120/120
f 143/143/143 144/144/144 136/136/136
f 128/128/128 127/127/127 135/135/135
f 136/136/136 135/135/135 143/143/143
f 135/135/135 136/136/136 128/128/128
f 254/254/254 253/253/253 252/252/252
f 257/257/257 256/256/256 255/255/255
f 260/260/260 259/259/259 258/258/258
f 263/263/263 262/262/262 261/261/261
f 266/266/266 265/265/265 264/264/264
f 269/269/269 268/268/268 267/267/267
f 272/272/272 271/271/271 270/270/270
f 275/275/275 274/274/274 273/273/273
f 278/278/278 277/277/277 276/276/276
f 281/281/281 280/280/280 279/279/279
f 284/284/284 283/283/283 282/282/282
f 287/287/287 286/286/286 285/285/285
f 285/285/285 288/288/288 287/287/287
f 291/291/291 290/290/290 289/289/289
f 289/289/289 292/292/292 291/291/291
f 295/295/295 294/294/294 293/293/293
f 298/298/298 297/297/297 296/296/296
f 301/301/301 300/300/300 299/299/299
f 304/304/304 303/303/303 302/302/302
f 307/307/307 306/306/306 305/305/305
f 305/305/305 308/308/308 307/307/307
f 311/311/311 310/310/310 309/309/309
f 314/314/314 313/313/313 312/312/312
f 317/317/317 316/316/316 315/315/315
f 320/320/320 319/319/319 318/318/318
f 323/323/323 322/322/322 321/321/321
f 326/326/326 325/325/325 324/324/324
f 329/329/329 328/328/328 327/327/327
f 332/332/332 331/331/331 330/330/330
f 335/335/335 334/334/334 333/333/333
f 333/333/333 336/336/336 335/335/335
f 339/339/339 338/338/338 337/337/337
f 342/342/342 341/341/341 340/340/340
f 345/345/345 344/344/344 343/343/343
f 348/348/348 347/347/347 346/346/346
f 351/351/351 350/350/350 349/349/349
f 354/354/354 353/353/353 352/352/352
f 357/357/357 356/356/356 355/355/355
f 355/355/355 358/358/358 357/357/357
f 361/361/361 360/360/360 359/359/359
f 359/359/359 362/362/362 361/361/361
f 365/365/365 364/364/364 363/363/363
f 363/363/363 366/366/366 365/365/365
f 369/369/369 368/368/368 367/367/367
f 372/372/372 371/371/371 370/370/370
f 375/375/375 374/374/374 373/373/373
f 373/373/373 376/376/376 375/375/375
f 379/379/379 378/378/378 377/377/377
f 377/377/377 380/380/380 379/379/379
f 383/383/383 382/382/382 381/381/381
f 386/386/386 385/385/385 384/384/384
f 389/389/389 388/388/388 387/387/387
f 392/392/392 391/391/391 390/390/390
f 395/395/395 394/394/394 393/393/393
f 393/393/393 396/396/396 395/395/395
f 399/399/399 398/398/398 397/397/397
f 402/402/402 401/401/401 400/400/400
f 405/405/405 404/404/404 403/403/403
f 408/408/408 407/407/407 406/406/406
f 411/411/411 410/410/410 409/409/409
f 414/414/414 413/413/413 412/412/412
f 417/417/417 416/416/416 415/415/415
f 420/420/420 419/419/419 418/418/418
f 423/423/423 422/422/422 421/421/421
f 426/426/426 425/425/425 424/424/424
f 429/429/429 428/428/428 427/427/427
f 427/427/427 430/430/430 429/429/429
f 433/433/433 432/432/432 431/431/431
f 431/431/431 434/434/434 433/433/433
f 437/437/437 436/436/436 435/435/435
f 435/435/435 438/438/438 437/437/437
f 441/441/441 440/440/440 439/439/439
f 439/439/439 442/442/442 441/441/441
f 445/445/445 444/444/444 443/443/443
f 443/443/443 446/446/446 445/445/445
f 449/449/449 448/448/448 447/447/447
f 452/452/452 451/451/451 450/450/450
f 455/455/455 454/454/454 453/453/453
f 453/453/453 456/456/456 455/455/455
f 459/459/459 458/458/458 457/457/457
f 457/457/457 460/460/460 459/459/459
f 463/463/463 462/462/462 461/461/461
f 466/466/466 465/465/465 464/464/464
f 469/469/469 468/468/468 467/467/467
f 472/472/472 471/471/471 470/470/470
f 475/475/475 474/474/474 473/473/473
f 473/473/473 476/476/476 475/475/475
f 479/479/479 478/478/478 477/477/477
f 477/477/477 480/480/480 479/479/479
f 483/483/483 482/482/482 481/481/481
f 481/481/481 484/484/484 483/483/483
f 487/487/487 486/486/486 485/485/485
f 485/485/485 488/488/488 487/487/487
f 491/491/491 490/490/490 489/489/489
f 489/489/489 492/492/492 491/491/491
f 495/495/495 494/494/494 493/493/493
f 493/493/493 496/496/496 495/495/495
f 499/499/499 498/498/498 497/497/497
f 497/497/497 500/500/500 499/499/499
f 503/503/503 502/502/502 501/501/501
f 501/501/501 504/504/504 503/503/503
f 507/507/507 506/506/506 505/505/505
f 510/510/510 509/509/509 508/508/508
f 513/513/513 512/512/512 511/511/511
f 511/511/511 514/514/514 513/513/513
f 517/517/517 516/516/516 515/515/515
f 515/515/515 518/518/518 517/517/517
f 521/521/521 520/520/520 519/519/519
f 519/519/519 522/522/522 521/521/521
f 525/525/525 524/524/524 523/523/523
f 523/523/523 526/526/526 525/525/525
f 529/529/529 528/528/528 527/527/527
f 527/527/527 530/530/530 529/529/529
f 533/533/533 532/532/532 531/531/531
f 536/536/536 535/535/535 534/534/534
f 539/539/539 538/538/538 537/537/537
f 537/537/537 540/540/540 539/539/539
f 543/543/543 542/542/542 541/541/541
f 541/541/541 544/544/544 543/543/543
f 547/547/547 546/546/546 545/545/545
f 545/545/545 548/548/548 547/547/547
f 551/551/551 550/550/550 549/549/549
f 554/554/554 553/553/553 552/552/552
f 557/557/557 556/556/556 555/555/555
f 560/560/560 559/559/559 558/558/558
f 563/563/563 562/562/562 561/561/561
f 566/566/566 565/565/565 564/564/564
f 569/569/569 568/568/568 567/567/567
f 572/572/572 571/571/571 570/570/570
f 575/575/575 574/574/574 573/573/573
f 573/573/573 576/576/576 575/575/575
f 579/579/579 578/578/578 577/577/577
f 582/582/582 581/581/581 580/580/580
f 585/585/585 584/584/584 583/583/583
f 588/588/588 587/587/587 586/586/586
f 591/591/591 590/590/590 589/589/589
f 589/589/589 592/592/592 591/591/591
f 595/595/595 594/594/594 593/593/593
f 593/593/593 596/596/596 595/595/595
f 599/599/599 598/598/598 597/597/597
f 602/602/602 601/601/601 600/600/600
f 605/605/605 604/604/604 603/603/603
f 608/608/608 607/607/607 606/606/606
f 611/611/611 610/610/610 609/609/609
f 609/609/609 612/612/612 611/611/611
f 615/615/615 614/614/614 613/613/613
f 613/613/613 616/616/616 615/615/615
f 619/619/619 618/618/618 617/617/617
f 622/622/622 621/621/621 620/620/620
f 625/625/625 624/624/624 623/623/623
f 628/628/628 627/627/627 626/626/626
f 631/631/631 630/630/630 629/629/629
f 629/629/629 632/632/632 631/631/631
f 635/635/635 634/634/634 633/633/633
f 633/633/633 636/636/636 635/635/635
f 639/639/639 638/638/638 637/637/637
f 642/642/642 641/641/641 640/640/640
f 645/645/645 644/644/644 643/643/643
f 648/648/648 647/647/647 646/646/646
f 651/651/651 650/650/650 649/649/649
f 654/654/654 653/653/653 652/652/652
f 657/657/657 656/656/656 655/655/655
f 655/655/655 658/658/658 657/657/657
f 661/661/661 660/660/660 659/659/659
f 659/659/659 662/662/662 661/661/661
f 665/665/665 664/664/664 663/663/663
f 668/668/668 667/667/667 666/666/666
f 671/671/671 670/670/670 669/669/669
f 674/674/674 673/673/673 672/672/672
f 677/677/677 676/676/676 675/675/675
f 675/675/675 678/678/678 677/677/677
f 681/681/681 680/680/680 679/679/679
f 679/679/679 682/682/682 681/681/681
f 685/685/685 684/684/684 683/683/683
f 688/688/688 687/687/687 686/686/686
f 691/691/691 690/690/690 689/689/689
f 689/689/689 692/692/692 691/691/691
f 695/695/695 694/694/694 693/693/693
f 693/693/693 696/696/696 695/695/695
f 699/699/699 698/698/698 697/697/697
f 702/702/702 701/701/701 700/700/700
f 705/705/705 704/704/704 703/703/703
f 708/708/708 707/707/707 706/706/706
f 711/711/711 710/710/710 709/709/709
f 714/714/714 713/713/713 712/712/712
