# VPXTOOL table OBJ file
# VPXTOOL OBJ file
# numVerts: 48 numFaces: 24
o PinCab_CoinInsertsOpen
v 415.99084 106.1862 -12.8342285
v 349.8706 106.1862 -12.8342285
v 349.8706 37.976425 7.0322266
v 415.99084 37.976425 7.0322266
v 415.99084 107.42445 -8.583008
v 415.99084 39.214645 11.283447
v 349.8706 39.214645 11.283447
v 349.8706 107.42445 -8.583008
v 415.99084 39.214645 11.283447
v 415.99084 37.976425 7.0322266
v 349.8706 37.976425 7.0322266
v 349.8706 39.214645 11.283447
v 415.99084 107.42445 -8.583008
v 415.99084 106.1862 -12.8342285
v 415.99084 37.976425 7.0322266
v 415.99084 39.214645 11.283447
v 349.8706 107.42445 -8.583008
v 349.8706 106.1862 -12.8342285
v 415.99084 106.1862 -12.8342285
v 415.99084 107.42445 -8.583008
v 349.8706 39.214645 11.283447
v 349.8706 37.976425 7.0322266
v 349.8706 106.1862 -12.8342285
v 349.8706 107.42445 -8.583008
v 224.34338 106.1862 -12.8342285
v 158.22314 106.1862 -12.8342285
v 158.22314 37.976425 7.0322266
v 224.34338 37.976425 7.0322266
v 224.34338 107.42445 -8.583008
v 224.34338 39.214645 11.283447
v 158.22314 39.214645 11.283447
v 158.22314 107.42445 -8.583008
v 224.34338 39.214645 11.283447
v 224.34338 37.976425 7.0322266
v 158.22314 37.976425 7.0322266
v 158.22314 39.214645 11.283447
v 224.34338 107.42445 -8.583008
v 224.34338 106.1862 -12.8342285
v 224.34338 37.976425 7.0322266
v 224.34338 39.214645 11.283447
v 158.22314 107.42445 -8.583008
v 158.22314 106.1862 -12.8342285
v 224.34338 106.1862 -12.8342285
v 224.34338 107.42445 -8.583008
v 158.22314 39.214645 11.283447
v 158.22314 37.976425 7.0322266
v 158.22314 106.1862 -12.8342285
v 158.22314 107.42445 -8.583008
vt 0.993015 0.017183006
vt -0.046713 0.017183006
vt -0.046713 0.924162984
vt 0.993015 0.924162984
vt 0.006985 -0.0024369955
vt 0.006985 0.90454298
vt 1.046713 0.90454298
vt 1.046713 -0.0024369955
vt 0.993015 -0.38263893
vt 0.993015 -0.43916893
vt -0.046713 -0.43916893
vt -0.046713 -0.38263893
vt -0.697426 -0.0024369955
vt -0.753956 0.017183006
vt -0.439169 0.924162984
vt -0.382639 0.90454298
vt 1.046713 -0.6974261
vt 1.046713 -0.7539561
vt 0.006985 -0.7539561
vt 0.006985 -0.6974261
vt 1.382639 0.90454298
vt 1.439169 0.924162984
vt 1.753956 0.017183006
vt 1.697426 -0.0024369955
vt -2.020605 0.017183006
vt -3.060333 0.017183006
vt -3.060333 0.924162984
vt -2.020605 0.924162984
vt 3.020605 -0.0024369955
vt 3.020605 0.90454298
vt 4.060333 0.90454298
vt 4.060333 -0.0024369955
vt -2.020605 -0.38263893
vt -2.020605 -0.43916893
vt -3.060333 -0.43916893
vt -3.060333 -0.38263893
vt -0.697426 -0.0024369955
vt -0.753956 0.017183006
vt -0.439169 0.924162984
vt -0.382639 0.90454298
vt 4.060333 -0.6974261
vt 4.060333 -0.7539561
vt 3.020605 -0.7539561
vt 3.020605 -0.6974261
vt 1.382639 0.90454298
vt 1.439169 0.924162984
vt 1.753956 0.017183006
vt 1.697426 -0.0024369955
vn 0 -0.36889952 -0.9294693
vn 0 -0.36889952 -0.9294693
vn 0 -0.36889952 -0.9294693
vn 0 -0.36889952 -0.9294693
vn 0 0.36889952 0.9294693
vn 0 0.36889952 0.9294693
vn 0 0.36889952 0.9294693
vn 0 0.36889952 0.9294693
vn 0 -0.9294693 0.36889952
vn 0 -0.9294693 0.36889952
vn 0 -0.9294693 0.36889952
vn 0 -0.9294693 0.36889952
vn 1 0 0
vn 1 0 0
vn 1 0 0
vn 1 0 0
vn 0 0.9294693 -0.36889952
vn 0 0.9294693 -0.36889952
vn 0 0.9294693 -0.36889952
vn 0 0.9294693 -0.36889952
vn -1 0 0
vn -1 0 0
vn -1 0 0
vn -1 0 0
vn 0 -0.36890054 -0.9294693
vn 0 -0.36890054 -0.9294693
vn 0 -0.36890054 -0.9294693
vn 0 -0.36890054 -0.9294693
vn 0 0.36890054 0.9294693
vn 0 0.36890054 0.9294693
vn 0 0.36890054 0.9294693
vn 0 0.36890054 0.9294693
vn 0 -0.9294683 0.36890152
vn 0 -0.9294683 0.36890152
vn 0 -0.9294683 0.36890152
vn 0 -0.9294683 0.36890152
vn 1 0 0
vn 1 0 0
vn 1 0 0
vn 1 0 0
vn 0 0.9294673 -0.36890352
vn 0 0.9294673 -0.36890352
vn 0 0.9294673 -0.36890352
vn 0 0.9294673 -0.36890352
vn -1 0 0
vn -1 0 0
vn -1 0 0
vn -1 0 0
f 3/3/3 2/2/2 1/1/1
f 1/1/1 4/4/4 3/3/3
f 7/7/7 6/6/6 5/5/5
f 5/5/5 8/8/8 7/7/7
f 11/11/11 10/10/10 9/9/9
f 9/9/9 12/12/12 11/11/11
f 15/15/15 14/14/14 13/13/13
f 13/13/13 16/16/16 15/15/15
f 19/19/19 18/18/18 17/17/17
f 17/17/17 20/20/20 19/19/19
f 23/23/23 22/22/22 21/21/21
f 21/21/21 24/24/24 23/23/23
f 27/27/27 26/26/26 25/25/25
f 25/25/25 28/28/28 27/27/27
f 31/31/31 30/30/30 29/29/29
f 29/29/29 32/32/32 31/31/31
f 35/35/35 34/34/34 33/33/33
f 33/33/33 36/36/36 35/35/35
f 39/39/39 38/38/38 37/37/37
f 37/37/37 40/40/40 39/39/39
f 43/43/43 42/42/42 41/41/41
f 41/41/41 44/44/44 43/43/43
f 47/47/47 46/46/46 45/45/45
f 45/45/45 48/48/48 47/47/47
