# VPXTOOL table OBJ file
# VPXTOOL OBJ file
# numVerts: 136 numFaces: 110
o p04off
v 5.654565 1.972667 -0.007218
v 5.654565 1.972667 -0.473944
v 5.607071 2.268086 -0.473944
v 5.607071 2.268086 -0.007218
v 5.457433 2.547265 -0.473944
v 5.457433 2.547265 -0.007218
v 5.225425 2.758819 -0.473944
v 5.225425 2.758819 -0.007218
v 4.9885 2.867443 -0.473944
v 4.9885 2.867443 -0.007218
v 4.721113 2.906119 -0.473944
v 4.721113 2.906119 -0.007218
v 4.721113 2.906119 -0.007218
v 4.721113 2.906119 -0.473944
v -4.721113 2.906119 -0.473944
v -4.721113 2.906119 -0.007218
v -4.721113 2.906119 -0.007218
v -4.721113 2.906119 -0.473944
v -5.016532 2.858625 -0.473944
v -5.016532 2.858625 -0.007218
v -5.295711 2.708987 -0.473944
v -5.295711 2.708987 -0.007218
v -5.507265 2.476978 -0.473944
v -5.507265 2.476978 -0.007218
v -5.615889 2.240053 -0.473944
v -5.615889 2.240053 -0.007218
v -5.654565 1.972667 -0.473944
v -5.654565 1.972667 -0.007218
v -5.654565 1.972667 -0.007218
v -5.654565 1.972667 -0.473944
v -5.654565 -1.976553 -0.473944
v -5.654565 -1.976553 -0.007218
v -5.654565 -1.976553 -0.007218
v -5.654565 -1.976553 -0.473944
v -5.607071 -2.271972 -0.473944
v -5.607071 -2.271972 -0.007218
v -5.457433 -2.551151 -0.473944
v -5.457433 -2.551151 -0.007218
v -5.225424 -2.762706 -0.473944
v -5.225424 -2.762706 -0.007218
v -4.988499 -2.871329 -0.473944
v -4.988499 -2.871329 -0.007218
v -4.721113 -2.910005 -0.473944
v -4.721113 -2.910005 -0.007218
v -4.721113 -2.910005 -0.007218
v -4.721113 -2.910005 -0.473944
v 4.721113 -2.910005 -0.473944
v 4.721113 -2.910005 -0.007218
v 4.721113 -2.910005 -0.007218
v 4.721113 -2.910005 -0.473944
v 5.016532 -2.862511 -0.473944
v 5.016532 -2.862511 -0.007218
v 5.295711 -2.712873 -0.473944
v 5.295711 -2.712873 -0.007218
v 5.507266 -2.480865 -0.473944
v 5.507266 -2.480865 -0.007218
v 5.615889 -2.24394 -0.473944
v 5.615889 -2.24394 -0.007218
v 5.654565 -1.976553 -0.473944
v 5.654565 -1.976553 -0.007218
v 5.654565 -1.976553 -0.007218
v 5.654565 -1.976553 -0.473944
v 5.654565 1.972667 -0.473944
v 5.654565 1.972667 -0.007218
v -4.721113 2.906119 -0.473944
v -4.721113 -2.910005 -0.473944
v -5.654565 -1.976553 -0.473944
v -5.654565 1.972667 -0.473944
v 5.507266 -2.480865 -0.473944
v 5.295711 -2.712873 -0.473944
v 5.016532 -2.862511 -0.473944
v 4.721113 -2.910005 -0.473944
v -5.507265 2.476978 -0.473944
v -5.295711 2.708987 -0.473944
v -5.016532 2.858625 -0.473944
v 5.225425 2.758819 -0.473944
v 5.457433 2.547265 -0.473944
v 5.607071 2.268086 -0.473944
v 5.654565 1.972667 -0.473944
v -5.225424 -2.762706 -0.473944
v -5.457433 -2.551151 -0.473944
v -5.607071 -2.271972 -0.473944
v 4.721113 2.906119 -0.473944
v 5.654565 -1.976553 -0.473944
v 4.9885 2.867443 -0.473944
v -4.988499 -2.871329 -0.473944
v -5.615889 2.240053 -0.473944
v 5.615889 -2.24394 -0.473944
v 0.749927 0.752753 -0.859719
v 0.749927 0.752753 -0.98276
v 0.749927 1.252703 -0.98276
v 0.749927 1.252703 -0.859719
v 0.749927 0.252802 -0.859719
v 0.749927 0.252802 -0.98276
v 0.749927 -0.247148 -0.859719
v 0.749927 -0.247148 -0.98276
v 0.749927 -0.747099 -0.859719
v 0.749927 -0.747099 -0.98276
v 0.749927 -1.247049 -0.859719
v 0.749927 -1.247049 -0.98276
v -0.749925 0.752753 -0.859719
v -0.749925 0.752753 -0.98276
v -1.249876 0.752753 -0.98276
v -1.249876 0.752753 -0.859719
v -0.249975 0.752753 -0.859719
v -0.249975 0.752753 -0.98276
v 0.249976 0.752753 -0.859719
v 0.249976 0.752753 -0.98276
v 0.749927 0.752753 -0.859719
v 0.749927 0.752753 -0.98276
v 1.249877 0.752753 -0.859719
v 1.249877 0.752753 -0.98276
v 1.249877 -0.747099 -0.859719
v 1.249877 -0.747099 -0.98276
v 0.749927 -0.747099 -0.98276
v 0.749927 -0.747099 -0.859719
v -0.749925 -0.747099 -0.859719
v -0.749925 -0.747099 -0.98276
v -0.749925 -1.247049 -0.98276
v -0.749925 -1.247049 -0.859719
v -0.749925 -0.247148 -0.859719
v -0.749925 -0.247148 -0.98276
v -0.749925 0.252802 -0.859719
v -0.749925 0.252802 -0.98276
v -0.749925 0.752753 -0.859719
v -0.749925 0.752753 -0.98276
v 0.249976 -0.747099 -0.98276
v 0.249976 -0.747099 -0.859719
v -0.749925 1.252703 -0.859719
v -0.749925 1.252703 -0.98276
v -0.749925 -0.747099 -0.859719
v -0.749925 -0.747099 -0.98276
v -1.249876 -0.747099 -0.98276
v -1.249876 -0.747099 -0.859719
v -0.249975 -0.747099 -0.98276
v -0.249975 -0.747099 -0.859719
vt 0.963711 0.82375902
vt 0.938534 0.80621803
vt 0.934851 0.85203898
vt 0.959817 0.872212
vt 0.923246 0.89534199
vt 0.947545 0.918000996
vt 0.905253 0.92815602
vt 0.928519 0.952697992
vt 0.886878 0.945005
vt 0.90909 0.970514
vt 0.866141 0.95100403
vt 0.887162 0.976857007
vt 0.887162 0.976857007
vt 0.866141 0.95100403
vt 0.133859 0.95100403
vt 0.112838 0.976857007
vt 0.112838 0.976857007
vt 0.133859 0.95100403
vt 0.110948 0.943637013
vt 0.088611 0.96906799
vt 0.089296 0.920427024
vt 0.065717 0.944525003
vt 0.072889 0.884440005
vt 0.048368 0.90647298
vt 0.064465 0.847691
vt 0.03946 0.86761397
vt 0.061466 0.80621803
vt 0.036289 0.82375902
vt 0.036289 0.82375902
vt 0.061466 0.80621803
vt 0.061466 0.19366199
vt 0.036289 0.17603499
vt 0.036289 0.17603499
vt 0.061466 0.19366199
vt 0.065149 0.14784002
vt 0.040183 0.12758303
vt 0.076754 0.10453701
vt 0.052455 0.08179402
vt 0.094747 0.071722984
vt 0.071481 0.047096014
vt 0.113122 0.054875016
vt 0.09091 0.029280007
vt 0.133859 0.048875988
vt 0.112838 0.022937
vt 0.112838 0.022937
vt 0.133859 0.048875988
vt 0.866141 0.048875988
vt 0.887162 0.022937
vt 0.887162 0.022937
vt 0.866141 0.048875988
vt 0.889052 0.056243002
vt 0.911389 0.030727029
vt 0.910704 0.07945299
vt 0.934283 0.055269003
vt 0.927111 0.115439
vt 0.951632 0.09332198
vt 0.935535 0.152188
vt 0.96054 0.13217998
vt 0.938534 0.19366199
vt 0.963711 0.17603499
vt 0.963711 0.17603499
vt 0.938534 0.19366199
vt 0.938534 0.80621803
vt 0.963711 0.82375902
vt 0.133859 0.95100403
vt 0.133859 0.048875988
vt 0.061466 0.19366199
vt 0.061466 0.80621803
vt 0.927111 0.115439
vt 0.910704 0.07945299
vt 0.889052 0.056243002
vt 0.866141 0.048875988
vt 0.072889 0.884440005
vt 0.089296 0.920427024
vt 0.110948 0.943637013
vt 0.905253 0.92815602
vt 0.923246 0.89534199
vt 0.934851 0.85203898
vt 0.938534 0.80621803
vt 0.094747 0.071722984
vt 0.076754 0.10453701
vt 0.065149 0.14784002
vt 0.866141 0.95100403
vt 0.938534 0.19366199
vt 0.886878 0.945005
vt 0.113122 0.054875016
vt 0.064465 0.847691
vt 0.935535 0.152188
vt 0.555662 0.61200303
vt 0.55491 0.61049902
vt 0.55491 0.683712
vt 0.555662 0.68621898
vt 0.555662 0.53778702
vt 0.55491 0.53728598
vt 0.555662 0.46357203
vt 0.55491 0.464073
vt 0.555662 0.38935602
vt 0.55491 0.39085996
vt 0.555662 0.31514
vt 0.55491 0.317648
vt 0.444338 0.61200303
vt 0.44509 0.61049902
vt 0.408484 0.61049902
vt 0.40723 0.61200303
vt 0.481446 0.61200303
vt 0.481697 0.61049902
vt 0.518554 0.61200303
vt 0.518303 0.61049902
vt 0.555662 0.61200303
vt 0.55491 0.61049902
vt 0.59277 0.61200303
vt 0.591516 0.61049902
vt 0.59277 0.38935602
vt 0.591516 0.39085996
vt 0.55491 0.39085996
vt 0.555662 0.38935602
vt 0.444338 0.38935602
vt 0.44509 0.39085996
vt 0.44509 0.317648
vt 0.444338 0.31514
vt 0.444338 0.46357203
vt 0.44509 0.464073
vt 0.444338 0.53778702
vt 0.44509 0.53728598
vt 0.444338 0.61200303
vt 0.44509 0.61049902
vt 0.518303 0.39085996
vt 0.518554 0.38935602
vt 0.444338 0.68621898
vt 0.44509 0.683712
vt 0.444338 0.38935602
vt 0.44509 0.39085996
vt 0.408484 0.39085996
vt 0.40723 0.38935602
vt 0.481697 0.39085996
vt 0.481446 0.38935602
vn -0.987322 -0.158731 0
vn -0.987322 -0.158731 0
vn -0.947422 -0.319987 0
vn -0.947422 -0.319987 0
vn -0.788917 -0.6145 0
vn -0.788917 -0.6145 0
vn -0.551864 -0.833934 0
vn -0.551864 -0.833934 0
vn -0.282848 -0.959165 0
vn -0.282848 -0.959165 0
vn -0.143154 -0.9897 0
vn -0.143154 -0.9897 0
vn 0 -1 0
vn 0 -1 0
vn 0 -1 0
vn 0 -1 0
vn 0.158731 -0.987322 0
vn 0.158731 -0.987322 0
vn 0.319987 -0.947422 0
vn 0.319987 -0.947422 0
vn 0.6145 -0.788917 0
vn 0.6145 -0.788917 0
vn 0.833934 -0.551865 0
vn 0.833934 -0.551865 0
vn 0.959165 -0.282849 0
vn 0.959165 -0.282849 0
vn 0.9897 -0.143154 0
vn 0.9897 -0.143154 0
vn 1 0 0
vn 1 0 0
vn 1 0 0
vn 1 0 0
vn 0.987322 0.15873 0
vn 0.987322 0.15873 0
vn 0.947422 0.319987 0
vn 0.947422 0.319987 0
vn 0.788917 0.6145 0
vn 0.788917 0.6145 0
vn 0.551864 0.833934 0
vn 0.551864 0.833934 0
vn 0.282848 0.959165 0
vn 0.282848 0.959165 0
vn 0.143154 0.9897 0
vn 0.143154 0.9897 0
vn 0 1 0
vn 0 1 0
vn 0 1 0
vn 0 1 0
vn -0.15873 0.987322 0
vn -0.15873 0.987322 0
vn -0.319987 0.947422 0
vn -0.319987 0.947422 0
vn -0.6145 0.788917 0
vn -0.6145 0.788917 0
vn -0.833933 0.551865 0
vn -0.833933 0.551865 0
vn -0.959164 0.282849 0
vn -0.959164 0.282849 0
vn -0.9897 0.143154 0
vn -0.9897 0.143154 0
vn -1 0 0
vn -1 0 0
vn -1 0 0
vn -1 0 0
vn 0 0 1
vn 0 0 1
vn 0 0 1
vn 0 0 1
vn 0 0 1
vn 0 0 1
vn 0 0 1
vn 0 0 1
vn 0 0 1
vn 0 0 1
vn 0 0 1
vn 0 0 1
vn 0 0 1
vn 0 0 1
vn 0 0 1
vn 0 0 1
vn 0 0 1
vn 0 0 1
vn 0 0 1
vn 0 0 1
vn 0 0 1
vn 0 0 1
vn 0 0 1
vn 0 0 1
vn -1 0 0
vn -1 0 0
vn -1 0 0
vn -1 0 0
vn -1 0 0
vn -1 0 0
vn -1 0 0
vn -1 0 0
vn -1 0 0
vn -1 0 0
vn -1 0 0
vn -1 0 0
vn 0 -1 0
vn 0 -1 0
vn 0 -1 0
vn 0 -1 0
vn 0 -1 0
vn 0 -1 0
vn 0 -1 0
vn 0 -1 0
vn 0 -1 0
vn 0 -1 0
vn 0 -1 0
vn 0 -1 0
vn 0 -1 0
vn 0 -1 0
vn 0 -1 0
vn 0 -1 0
vn 1 0 0
vn 1 0 0
vn 1 0 0
vn 1 0 0
vn 1 0 0
vn 1 0 0
vn 1 0 0
vn 1 0 0
vn 1 0 0
vn 1 0 0
vn 0 -1 0
vn 0 -1 0
vn 1 0 0
vn 1 0 0
vn 0 -1 0
vn 0 -1 0
vn 0 -1 0
vn 0 -1 0
vn 0 -1 0
vn 0 -1 0
f 15/15/15 14/14/14 13/13/13
f 16/16/16 15/15/15 13/13/13
f 3/3/3 2/2/2 1/1/1
f 4/4/4 3/3/3 1/1/1
f 5/5/5 3/3/3 4/4/4
f 6/6/6 5/5/5 4/4/4
f 7/7/7 5/5/5 6/6/6
f 8/8/8 7/7/7 6/6/6
f 9/9/9 7/7/7 8/8/8
f 10/10/10 9/9/9 8/8/8
f 11/11/11 9/9/9 10/10/10
f 12/12/12 11/11/11 10/10/10
f 19/19/19 18/18/18 17/17/17
f 20/20/20 19/19/19 17/17/17
f 21/21/21 19/19/19 20/20/20
f 22/22/22 21/21/21 20/20/20
f 23/23/23 21/21/21 22/22/22
f 24/24/24 23/23/23 22/22/22
f 25/25/25 23/23/23 24/24/24
f 26/26/26 25/25/25 24/24/24
f 27/27/27 25/25/25 26/26/26
f 28/28/28 27/27/27 26/26/26
f 31/31/31 30/30/30 29/29/29
f 32/32/32 31/31/31 29/29/29
f 35/35/35 34/34/34 33/33/33
f 36/36/36 35/35/35 33/33/33
f 37/37/37 35/35/35 36/36/36
f 38/38/38 37/37/37 36/36/36
f 39/39/39 37/37/37 38/38/38
f 40/40/40 39/39/39 38/38/38
f 41/41/41 39/39/39 40/40/40
f 42/42/42 41/41/41 40/40/40
f 43/43/43 41/41/41 42/42/42
f 44/44/44 43/43/43 42/42/42
f 47/47/47 46/46/46 45/45/45
f 48/48/48 47/47/47 45/45/45
f 51/51/51 50/50/50 49/49/49
f 52/52/52 51/51/51 49/49/49
f 53/53/53 51/51/51 52/52/52
f 54/54/54 53/53/53 52/52/52
f 55/55/55 53/53/53 54/54/54
f 56/56/56 55/55/55 54/54/54
f 57/57/57 55/55/55 56/56/56
f 58/58/58 57/57/57 56/56/56
f 59/59/59 57/57/57 58/58/58
f 60/60/60 59/59/59 58/58/58
f 63/63/63 62/62/62 61/61/61
f 64/64/64 63/63/63 61/61/61
f 67/67/67 66/66/66 65/65/65
f 66/66/66 67/67/67 86/86/86
f 67/67/67 80/80/80 86/86/86
f 67/67/67 82/82/82 80/80/80
f 82/82/82 81/81/81 80/80/80
f 68/68/68 67/67/67 65/65/65
f 68/68/68 65/65/65 87/87/87
f 65/65/65 73/73/73 87/87/87
f 65/65/65 75/75/75 73/73/73
f 75/75/75 74/74/74 73/73/73
f 65/65/65 66/66/66 83/83/83
f 66/66/66 79/79/79 83/83/83
f 83/83/83 79/79/79 85/85/85
f 79/79/79 76/76/76 85/85/85
f 66/66/66 72/72/72 79/79/79
f 79/79/79 78/78/78 76/76/76
f 78/78/78 77/77/77 76/76/76
f 72/72/72 84/84/84 79/79/79
f 84/84/84 72/72/72 88/88/88
f 72/72/72 69/69/69 88/88/88
f 72/72/72 71/71/71 69/69/69
f 71/71/71 70/70/70 69/69/69
f 91/91/91 90/90/90 89/89/89
f 92/92/92 91/91/91 89/89/89
f 89/89/89 90/90/90 93/93/93
f 90/90/90 94/94/94 93/93/93
f 93/93/93 94/94/94 95/95/95
f 94/94/94 96/96/96 95/95/95
f 95/95/95 96/96/96 97/97/97
f 96/96/96 98/98/98 97/97/97
f 97/97/97 98/98/98 99/99/99
f 98/98/98 100/100/100 99/99/99
f 103/103/103 102/102/102 101/101/101
f 104/104/104 103/103/103 101/101/101
f 101/101/101 102/102/102 105/105/105
f 102/102/102 106/106/106 105/105/105
f 105/105/105 106/106/106 107/107/107
f 106/106/106 108/108/108 107/107/107
f 107/107/107 108/108/108 109/109/109
f 108/108/108 110/110/110 109/109/109
f 109/109/109 110/110/110 111/111/111
f 110/110/110 112/112/112 111/111/111
f 115/115/115 114/114/114 113/113/113
f 116/116/116 115/115/115 113/113/113
f 127/127/127 115/115/115 116/116/116
f 128/128/128 127/127/127 116/116/116
f 135/135/135 127/127/127 128/128/128
f 136/136/136 135/135/135 128/128/128
f 132/132/132 135/135/135 136/136/136
f 131/131/131 132/132/132 136/136/136
f 133/133/133 132/132/132 131/131/131
f 134/134/134 133/133/133 131/131/131
f 119/119/119 118/118/118 117/117/117
f 120/120/120 119/119/119 117/117/117
f 117/117/117 118/118/118 121/121/121
f 118/118/118 122/122/122 121/121/121
f 121/121/121 122/122/122 123/123/123
f 122/122/122 124/124/124 123/123/123
f 123/123/123 124/124/124 125/125/125
f 124/124/124 126/126/126 125/125/125
f 125/125/125 126/126/126 129/129/129
f 126/126/126 130/130/130 129/129/129
