# VPXTOOL table OBJ file
# VPXTOOL OBJ file
# numVerts: 24 numFaces: 12
o VR_Roof
v 4.520891 3.695326 -6.30994
v 4.520891 3.15543 1.872267
v -5.479106 3.148718 1.871825
v -5.479106 3.688614 -6.310383
v -5.479157 3.143615 1.871523
v 4.52084 3.150327 1.871965
v 4.52084 3.690223 -6.310242
v -5.479157 3.683512 -6.310685
v 4.52084 3.690223 -6.310242
v 4.52084 3.150327 1.871965
v 4.520891 3.15543 1.872267
v 4.520891 3.695326 -6.30994
v -5.479157 3.143615 1.871523
v -5.479157 3.683512 -6.310685
v -5.479106 3.688614 -6.310383
v -5.479106 3.148718 1.871825
v 4.52084 3.150327 1.871965
v -5.479157 3.143615 1.871523
v -5.479106 3.148718 1.871825
v 4.520891 3.15543 1.872267
v -5.479157 3.683512 -6.310685
v 4.52084 3.690223 -6.310242
v 4.520891 3.695326 -6.30994
v -5.479106 3.688614 -6.310383
vt 1 0
vt 1 1
vt 0 1
vt 0 0
vt 0 1
vt 1 1
vt 1 0
vt 0 0
vt 1 0
vt 1 1
vt 1 1
vt 1 0
vt 0 1
vt 0 0
vt 0 0
vt 0 1
vt 1 1
vt 0 1
vt 0 1
vt 1 1
vt 0 0
vt 1 0
vt 1 0
vt 0 0
vn -0.0007 0.9978 0.0658
vn -0.0007 0.9978 0.0658
vn -0.0007 0.9978 0.0658
vn -0.0007 0.9978 0.0658
vn 0.0007 -0.9978 -0.0658
vn 0.0007 -0.9978 -0.0658
vn 0.0007 -0.9978 -0.0658
vn 0.0007 -0.9978 -0.0658
vn 0.9999 -0.01 -0.0007
vn 0.9999 -0.01 -0.0007
vn 0.9999 -0.01 -0.0007
vn 0.9999 -0.01 -0.0007
vn -1 0.0098 0.0007
vn -1 0.0098 0.0007
vn -1 0.0098 0.0007
vn -1 0.0098 0.0007
vn -0 -0.059 0.9983
vn -0 -0.059 0.9983
vn -0 -0.059 0.9983
vn -0 -0.059 0.9983
vn 0 0.059 -0.9983
vn 0 0.059 -0.9983
vn 0 0.059 -0.9983
vn 0 0.059 -0.9983
f 3/3/3 2/2/2 1/1/1
f 4/4/4 3/3/3 1/1/1
f 7/7/7 6/6/6 5/5/5
f 8/8/8 7/7/7 5/5/5
f 11/11/11 10/10/10 9/9/9
f 12/12/12 11/11/11 9/9/9
f 15/15/15 14/14/14 13/13/13
f 16/16/16 15/15/15 13/13/13
f 19/19/19 18/18/18 17/17/17
f 20/20/20 19/19/19 17/17/17
f 23/23/23 22/22/22 21/21/21
f 24/24/24 23/23/23 21/21/21
