# VPXTOOL table OBJ file
# VPXTOOL OBJ file
# numVerts: 209 numFaces: 174
o pST1
v 7.617696 2.742368 -42.155106
v 7.617696 1.942656 9.055552
v 7.617696 2.742368 9.055552
v 7.617696 1.942656 -42.155106
v 18.83536 2.742368 -31.127136
v 19.21184 6.262336 -34.94976
v 19.21184 2.742368 -34.94976
v 18.83536 6.262336 -31.127136
v 18.83536 6.262336 -38.772415
v 17.72032 2.742368 -27.451424
v 18.83536 2.742368 -38.772415
v 17.72032 6.262336 -27.451424
v 17.72032 6.262336 -42.448128
v 15.909632 2.742368 -24.06384
v 17.72032 2.742368 -42.448128
v 15.909632 6.262336 -24.06384
v 15.909632 6.262336 -45.835712
v 13.472864 2.742368 -21.094624
v 15.909632 2.742368 -45.835712
v 13.472864 6.262336 -21.094624
v 13.472864 6.262336 -48.804928
v 10.503616 2.742368 -18.657824
v 13.472864 2.742368 -48.804928
v 10.503616 6.262336 -18.657824
v 10.503616 6.262336 -51.24173
v 7.116064 2.742368 -16.847136
v 10.503616 2.742368 -51.24173
v 7.116064 6.262336 -16.847136
v 7.116064 6.262336 -53.052418
v 3.44032 2.742368 -15.732128
v 7.116064 2.742368 -53.052418
v 3.44032 6.262336 -15.732128
v 3.44032 6.262336 -54.167423
v -0.382304 2.742368 -15.355616
v -0.382304 6.262336 -15.355616
v 3.44032 2.742368 -54.167423
v -0.382304 6.262336 -54.543938
v -0.382304 2.742368 -54.543938
v -4.204928 6.262336 -54.167423
v -4.204928 2.742368 -54.167423
v -7.880672 6.262336 -53.052418
v -7.880672 2.742368 -53.052418
v -11.268224 6.262336 -51.24173
v -11.268224 2.742368 -51.24173
v -14.237472 6.262336 -48.804928
v -14.237472 2.742368 -48.804928
v -16.67424 6.262336 -45.835712
v -16.67424 2.742368 -45.835712
v -18.484928 6.262336 -42.448128
v -18.484928 2.742368 -42.448128
v -19.599968 6.262336 -38.772415
v -19.599968 2.742368 -38.772415
v -19.976448 6.262336 -34.94976
v -19.976448 2.742368 -34.94976
v -19.599968 6.262336 -31.127136
v -19.599968 2.742368 -31.127136
v -18.484928 6.262336 -27.451424
v -18.484928 2.742368 -27.451424
v -16.67424 6.262336 -24.06384
v -16.67424 2.742368 -24.06384
v -14.237472 6.262336 -21.094624
v -14.237472 2.742368 -21.094624
v -11.268224 6.262336 -18.657824
v -11.268224 2.742368 -18.657824
v -7.880672 6.262336 -16.847136
v -7.880672 2.742368 -16.847136
v -4.204928 6.262336 -15.732128
v -4.204928 2.742368 -15.732128
v -0.382304 6.262336 -15.355616
v -0.382304 2.742368 -15.355616
v -0.382304 6.262336 -34.94976
v 19.21184 6.262336 -34.94976
v 18.83536 6.262336 -31.127136
v 18.83536 6.262336 -38.772415
v 17.72032 6.262336 -27.451424
v 17.72032 6.262336 -42.448128
v 15.909632 6.262336 -24.06384
v 15.909632 6.262336 -45.835712
v 13.472864 6.262336 -21.094624
v 13.472864 6.262336 -48.804928
v 10.503616 6.262336 -18.657824
v 10.503616 6.262336 -51.24173
v 7.116064 6.262336 -16.847136
v 7.116064 6.262336 -53.052418
v 3.44032 6.262336 -15.732128
v 3.44032 6.262336 -54.167423
v -0.382304 6.262336 -15.355616
v -0.382304 6.262336 -54.543938
v -4.204928 6.262336 -15.732128
v -4.204928 6.262336 -54.167423
v -7.880672 6.262336 -16.847136
v -7.880672 6.262336 -53.052418
v -11.268224 6.262336 -18.657824
v -11.268224 6.262336 -51.24173
v -14.237472 6.262336 -21.094624
v -14.237472 6.262336 -48.804928
v -16.67424 6.262336 -24.06384
v -16.67424 6.262336 -45.835712
v -18.484928 6.262336 -27.451424
v -18.484928 6.262336 -42.448128
v -19.599968 6.262336 -31.127136
v -19.599968 6.262336 -38.772415
v -19.976448 6.262336 -34.94976
v -0.382304 2.742368 -34.94976
v 18.83536 2.742368 -31.127136
v 19.21184 2.742368 -34.94976
v 18.83536 2.742368 -38.772415
v 17.72032 2.742368 -27.451424
v 17.72032 2.742368 -42.448128
v 15.909632 2.742368 -24.06384
v 15.909632 2.742368 -45.835712
v 13.472864 2.742368 -21.094624
v 13.472864 2.742368 -48.804928
v 10.503616 2.742368 -18.657824
v 10.503616 2.742368 -51.24173
v 7.116064 2.742368 -16.847136
v 7.116064 2.742368 -53.052418
v 3.44032 2.742368 -15.732128
v 3.44032 2.742368 -54.167423
v -0.382304 2.742368 -15.355616
v -0.382304 2.742368 -54.543938
v -4.204928 2.742368 -15.732128
v -4.204928 2.742368 -54.167423
v -7.880672 2.742368 -16.847136
v -7.880672 2.742368 -53.052418
v -11.268224 2.742368 -18.657824
v -11.268224 2.742368 -51.24173
v -14.237472 2.742368 -21.094624
v -14.237472 2.742368 -48.804928
v -16.67424 2.742368 -24.06384
v -16.67424 2.742368 -45.835712
v -18.484928 2.742368 -27.451424
v -18.484928 2.742368 -42.448128
v -19.599968 2.742368 -31.127136
v -19.599968 2.742368 -38.772415
v -19.976448 2.742368 -34.94976
v -8.382304 2.742368 -42.155106
v 7.617696 1.942656 -42.155106
v 7.617696 2.742368 -42.155106
v -8.382304 1.942656 -42.155106
v -8.382304 1.942656 9.055552
v -8.382304 1.942656 -42.155106
v -8.382304 2.742368 -42.155106
v -8.382304 2.742368 9.055552
v 7.617696 2.742368 -42.155106
v -8.382304 2.742368 9.055552
v -8.382304 2.742368 -42.155106
v 7.617696 2.742368 9.055552
v 7.617696 1.942656 -42.155106
v -8.382304 1.942656 -42.155106
v -8.382304 1.942656 9.055552
v 7.617696 1.942656 9.055552
v 3.682784 6.262336 -33.265953
v -0.382304 7.063808 -34.94976
v 4.017728 6.262336 -34.94976
v 2.728992 6.262336 -31.838495
v 3.682784 6.262336 -36.6336
v 1.301504 6.262336 -30.884672
v 2.728992 6.262336 -38.061054
v -0.382304 6.262336 -30.54976
v 1.301504 6.262336 -39.014847
v -2.066112 6.262336 -30.884672
v -0.382304 6.262336 -39.349792
v -3.493568 6.262336 -31.838495
v -2.066112 6.262336 -39.014847
v -4.447392 6.262336 -33.265953
v -3.493568 6.262336 -38.061054
v -4.782336 6.262336 -34.94976
v -4.447392 6.262336 -36.6336
v 8.017696 -0.29712 -56.94976
v 8.017696 -5.096448 -14.14976
v 8.017696 -0.29712 -14.14976
v 8.017696 -5.096448 -56.94976
v -8.782304 -0.29712 -56.94976
v 8.017696 -5.096448 -56.94976
v 8.017696 -0.29712 -56.94976
v -8.782304 -5.096448 -56.94976
v -8.782304 -5.096448 -14.14976
v -8.782304 -5.096448 -56.94976
v -8.782304 -0.29712 -56.94976
v -8.782304 -0.29712 -14.14976
v 8.017696 -0.29712 -56.94976
v -8.782304 -0.29712 -14.14976
v -8.782304 -0.29712 -56.94976
v 8.017696 -0.29712 -14.14976
v -8.782304 -5.096448 -14.14976
v -8.782304 -0.29712 -14.14976
v 8.017696 -5.096448 -14.14976
v 8.017696 -0.29712 -14.14976
v 8.417696 -5.096448 -57.349792
v 8.417696 -6.696256 9.05024
v 8.417696 -5.096448 9.05024
v 8.417696 -6.696256 -57.349792
v -9.182304 -5.096448 -57.349792
v 8.417696 -6.696256 -57.349792
v 8.417696 -5.096448 -57.349792
v -9.182304 -6.696256 -57.349792
v -9.182304 -6.696256 9.05024
v -9.182304 -6.696256 -57.349792
v -9.182304 -5.096448 -57.349792
v -9.182304 -5.096448 9.05024
v 8.417696 -5.096448 -57.349792
v -9.182304 -5.096448 9.05024
v -9.182304 -5.096448 -57.349792
v 8.417696 -5.096448 9.05024
v 8.417696 -6.696256 -57.349792
v -9.182304 -6.696256 -57.349792
v -9.182304 -6.696256 9.05024
v 8.417696 -6.696256 9.05024
vt 0.858268 0.80076498
vt 0.872391 0.41958797
vt 0.858268 0.41958797
vt 0.872391 0.80076498
vt 0.21875 0.37037504
vt 0.25 0.40162504
vt 0.25 0.37037504
vt 0.21875 0.40162504
vt 0.28125 0.40162504
vt 0.1875 0.37037504
vt 0.28125 0.37037504
vt 0.1875 0.40162504
vt 0.3125 0.40162504
vt 0.15625 0.37037504
vt 0.3125 0.37037504
vt 0.15625 0.40162504
vt 0.34375 0.40162504
vt 0.125 0.37037504
vt 0.34375 0.37037504
vt 0.125 0.40162504
vt 0.375 0.40162504
vt 0.09375 0.37037504
vt 0.375 0.37037504
vt 0.09375 0.40162504
vt 0.40625 0.40162504
vt 0.0625 0.37037504
vt 0.40625 0.37037504
vt 0.0625 0.40162504
vt 0.4375 0.40162504
vt 0.03125 0.37037504
vt 0.4375 0.37037504
vt 0.03125 0.40162504
vt 0.46875 0.40162504
vt 0 0.37037504
vt 0 0.40162504
vt 0.46875 0.37037504
vt 0.5 0.40162504
vt 0.5 0.37037504
vt 0.53125 0.40162504
vt 0.53125 0.37037504
vt 0.5625 0.40162504
vt 0.5625 0.37037504
vt 0.59375 0.40162504
vt 0.59375 0.37037504
vt 0.625 0.40162504
vt 0.625 0.37037504
vt 0.65625 0.40162504
vt 0.65625 0.37037504
vt 0.6875 0.40162504
vt 0.6875 0.37037504
vt 0.71875 0.40162504
vt 0.71875 0.37037504
vt 0.75 0.40162504
vt 0.75 0.37037504
vt 0.78125 0.40162504
vt 0.78125 0.37037504
vt 0.8125 0.40162504
vt 0.8125 0.37037504
vt 0.84375 0.40162504
vt 0.84375 0.37037504
vt 0.875 0.40162504
vt 0.875 0.37037504
vt 0.90625 0.40162504
vt 0.90625 0.37037504
vt 0.9375 0.40162504
vt 0.9375 0.37037504
vt 0.96875 0.40162504
vt 0.96875 0.37037504
vt 1 0.40162504
vt 1 0.37037504
vt 0.350544 0.708268
vt 0.640792 0.708268
vt 0.635215 0.65164298
vt 0.635215 0.764893
vt 0.618699 0.59719402
vt 0.618699 0.819341
vt 0.591877 0.547014
vt 0.591877 0.86952102
vt 0.555781 0.50303102
vt 0.555781 0.91350502
vt 0.511797 0.46693504
vt 0.511797 0.949600995
vt 0.461617 0.440113
vt 0.461617 0.976423025
vt 0.407169 0.42359602
vt 0.407169 0.9929400086
vt 0.350544 0.418019
vt 0.350544 0.9985169768
vt 0.293919 0.42359602
vt 0.293919 0.9929400086
vt 0.23947 0.440113
vt 0.23947 0.976423025
vt 0.18929 0.46693504
vt 0.18929 0.949600995
vt 0.145307 0.50303102
vt 0.145307 0.91350502
vt 0.109211 0.547014
vt 0.109211 0.86952102
vt 0.082389 0.59719402
vt 0.082389 0.819341
vt 0.065872 0.65164298
vt 0.065872 0.764893
vt 0.060295 0.708268
vt 0.168852 0.141747
vt 0.034892 0.11510098
vt 0.032268 0.141747
vt 0.034892 0.16839397
vt 0.042665 0.08947897
vt 0.042665 0.19401598
vt 0.055287 0.06586498
vt 0.055287 0.21763003
vt 0.072273 0.045167983
vt 0.072273 0.23832703
vt 0.09297 0.02818203
vt 0.09297 0.25531304
vt 0.116584 0.015559971
vt 0.116584 0.26793504
vt 0.142206 0.007786989
vt 0.142206 0.27570796
vt 0.168852 0.005163014
vt 0.168852 0.278332
vt 0.195499 0.007786989
vt 0.195499 0.27570796
vt 0.221121 0.015559971
vt 0.221121 0.26793504
vt 0.244735 0.02818203
vt 0.244735 0.25531304
vt 0.265432 0.045167983
vt 0.265432 0.23832703
vt 0.282418 0.06586498
vt 0.282418 0.21763003
vt 0.29504 0.08947897
vt 0.29504 0.19401598
vt 0.302813 0.11510098
vt 0.302813 0.16839397
vt 0.305437 0.141747
vt 0.739176 0.80076498
vt 0.858172 0.82072097
vt 0.858268 0.80076498
vt 0.739112 0.82072097
vt 0.724978 0.41958797
vt 0.724978 0.80076498
vt 0.739176 0.80076498
vt 0.739176 0.41958797
vt 0.858268 0.80076498
vt 0.739176 0.41958797
vt 0.739176 0.80076498
vt 0.858268 0.41958797
vt 0.872391 0.80076498
vt 0.991483 0.80076498
vt 0.991483 0.41958797
vt 0.872391 0.41958797
vt 0.987454 0.88014197
vt 0.910599 0.91197598
vt 0.993786 0.91197598
vt 0.969421 0.853154
vt 0.987454 0.943811
vt 0.942433 0.83512098
vt 0.969421 0.970798016
vt 0.910599 0.828789
vt 0.942433 0.988830984
vt 0.878764 0.83512098
vt 0.910599 0.995163977
vt 0.851776 0.853154
vt 0.878764 0.988830984
vt 0.833744 0.88014197
vt 0.851776 0.970798016
vt 0.827411 0.91197598
vt 0.833744 0.943811
vt 0.498307 0.320619
vt 0.530374 0.038595974
vt 0.498307 0.038595974
vt 0.530374 0.320619
vt 0.386403 0.320619
vt 0.498307 0.35388398
vt 0.498307 0.320619
vt 0.386403 0.35388398
vt 0.354738 0.038595974
vt 0.354738 0.320619
vt 0.386403 0.320619
vt 0.386403 0.038595974
vt 0.498307 0.320619
vt 0.386403 0.038595974
vt 0.386403 0.320619
vt 0.498307 0.038595974
vt 0.386403 0.006703973
vt 0.386403 0.038595974
vt 0.498307 0.006703973
vt 0.498307 0.038595974
vt 0.572135 0.14829898
vt 0.995664 0.170493
vt 0.995664 0.14829898
vt 0.572135 0.170493
vt 0.572135 0.024883986
vt 0.551487 0.14829898
vt 0.572135 0.14829898
vt 0.551487 0.024883986
vt 0.995664 0.003709972
vt 0.572135 0.003709972
vt 0.572135 0.024883986
vt 0.995664 0.024883986
vt 0.572135 0.14829898
vt 0.995664 0.024883986
vt 0.572135 0.024883986
vt 0.995664 0.14829898
vt 0.572135 0.170493
vt 0.572135 0.29398
vt 0.995664 0.29398
vt 0.995664 0.170493
vn 1 0 0
vn 1 0 0
vn 1 0 0
vn 1 0 0
vn 0.980784 0 0.19509682
vn 1 0 0
vn 1 0 0
vn 0.980784 0 0.19509682
vn 0.980784 0 -0.19509682
vn 0.9238767 0 0.38269034
vn 0.980784 0 -0.19509682
vn 0.9238767 0 0.38269034
vn 0.9238767 0 -0.38269034
vn 0.83146524 0 0.55557674
vn 0.9238767 0 -0.38269034
vn 0.83146524 0 0.55557674
vn 0.83146524 0 -0.55557674
vn 0.70710677 0 0.70710677
vn 0.83146524 0 -0.55557674
vn 0.70710677 0 0.70710677
vn 0.70710677 0 -0.70710677
vn 0.55557674 0 0.83146524
vn 0.70710677 0 -0.70710677
vn 0.55557674 0 0.83146524
vn 0.55557674 0 -0.83146524
vn 0.38269034 0 0.9238767
vn 0.55557674 0 -0.83146524
vn 0.38269034 0 0.9238767
vn 0.38269034 0 -0.9238767
vn 0.19509682 0 0.980784
vn 0.38269034 0 -0.9238767
vn 0.19509682 0 0.980784
vn 0.19509682 0 -0.980784
vn 0 0 1
vn 0 0 1
vn 0.19509682 0 -0.980784
vn 0 0 -1
vn 0 0 -1
vn -0.19509682 0 -0.980784
vn -0.19509682 0 -0.980784
vn -0.38269034 0 -0.9238767
vn -0.38269034 0 -0.9238767
vn -0.55557674 0 -0.83146524
vn -0.55557674 0 -0.83146524
vn -0.70710677 0 -0.70710677
vn -0.70710677 0 -0.70710677
vn -0.83146524 0 -0.55557674
vn -0.83146524 0 -0.55557674
vn -0.9238767 0 -0.38269034
vn -0.9238767 0 -0.38269034
vn -0.980784 0 -0.19509682
vn -0.980784 0 -0.19509682
vn -1 0 0
vn -1 0 0
vn -0.980784 0 0.19509682
vn -0.980784 0 0.19509682
vn -0.9238767 0 0.38269034
vn -0.9238767 0 0.38269034
vn -0.83146524 0 0.55557674
vn -0.83146524 0 0.55557674
vn -0.70710677 0 0.70710677
vn -0.70710677 0 0.70710677
vn -0.55557674 0 0.83146524
vn -0.55557674 0 0.83146524
vn -0.38269034 0 0.9238767
vn -0.38269034 0 0.9238767
vn -0.19509682 0 0.980784
vn -0.19509682 0 0.980784
vn 0 0 1
vn 0 0 1
vn 0 1 0
vn 0 1 0
vn 0 1 0
vn 0 1 0
vn 0 1 0
vn 0 1 0
vn 0 1 0
vn 0 1 0
vn 0 1 0
vn 0 1 0
vn 0 1 0
vn 0 1 0
vn 0 1 0
vn 0 1 0
vn 0 1 0
vn 0 1 0
vn 0 1 0
vn 0 1 0
vn 0 1 0
vn 0 1 0
vn 0 1 0
vn 0 1 0
vn 0 1 0
vn 0 1 0
vn 0 1 0
vn 0 1 0
vn 0 1 0
vn 0 1 0
vn 0 1 0
vn 0 1 0
vn 0 1 0
vn 0 1 0
vn 0 1 0
vn 0 -1 0
vn 0 -1 0
vn 0 -1 0
vn 0 -1 0
vn 0 -1 0
vn 0 -1 0
vn 0 -1 0
vn 0 -1 0
vn 0 -1 0
vn 0 -1 0
vn 0 -1 0
vn 0 -1 0
vn 0 -1 0
vn 0 -1 0
vn 0 -1 0
vn 0 -1 0
vn 0 -1 0
vn 0 -1 0
vn 0 -1 0
vn 0 -1 0
vn 0 -1 0
vn 0 -1 0
vn 0 -1 0
vn 0 -1 0
vn 0 -1 0
vn 0 -1 0
vn 0 -1 0
vn 0 -1 0
vn 0 -1 0
vn 0 -1 0
vn 0 -1 0
vn 0 -1 0
vn 0 -1 0
vn 0 0 -1
vn 0 0 -1
vn 0 0 -1
vn 0 0 -1
vn -1 0 0
vn -1 0 0
vn -1 0 0
vn -1 0 0
vn 0 1 0
vn 0 1 0
vn 0 1 0
vn 0 1 0
vn 0 -1 0
vn 0 -1 0
vn 0 -1 0
vn 0 -1 0
vn 0.16560069 0.98380405 0.06860028
vn 0 1 0
vn 0.17920223 0.9838123 0
vn 0.12670201 0.9838156 0.12670201
vn 0.16560069 0.98380405 -0.06860028
vn 0.06860028 0.98380405 0.16560069
vn 0.12670201 0.9838156 -0.12670201
vn 0 0.9838123 0.17920223
vn 0.06860028 0.98380405 -0.16560069
vn -0.06860028 0.98380405 0.16560069
vn 0 0.9838123 -0.17920223
vn -0.12670201 0.9838156 0.12670201
vn -0.06860028 0.98380405 -0.16560069
vn -0.16560069 0.98380405 0.06860028
vn -0.12670201 0.9838156 -0.12670201
vn -0.17920223 0.9838123 0
vn -0.16560069 0.98380405 -0.06860028
vn 1 0 0
vn 1 0 0
vn 1 0 0
vn 1 0 0
vn 0 0 -1
vn 0 0 -1
vn 0 0 -1
vn 0 0 -1
vn -1 0 0
vn -1 0 0
vn -1 0 0
vn -1 0 0
vn 0 1 0
vn 0 1 0
vn 0 1 0
vn 0 1 0
vn 0 0 1
vn 0 0 1
vn 0 0 1
vn 0 0 1
vn 1 0 0
vn 1 0 0
vn 1 0 0
vn 1 0 0
vn 0 0 -1
vn 0 0 -1
vn 0 0 -1
vn 0 0 -1
vn -1 0 0
vn -1 0 0
vn -1 0 0
vn -1 0 0
vn 0 1 0
vn 0 1 0
vn 0 1 0
vn 0 1 0
vn 0 -1 0
vn 0 -1 0
vn 0 -1 0
vn 0 -1 0
f 3/3/3 2/2/2 1/1/1
f 2/2/2 4/4/4 1/1/1
f 7/7/7 6/6/6 5/5/5
f 6/6/6 8/8/8 5/5/5
f 7/7/7 9/9/9 6/6/6
f 5/5/5 8/8/8 10/10/10
f 11/11/11 9/9/9 7/7/7
f 10/10/10 8/8/8 12/12/12
f 13/13/13 9/9/9 11/11/11
f 10/10/10 12/12/12 14/14/14
f 15/15/15 13/13/13 11/11/11
f 12/12/12 16/16/16 14/14/14
f 15/15/15 17/17/17 13/13/13
f 14/14/14 16/16/16 18/18/18
f 19/19/19 17/17/17 15/15/15
f 18/18/18 16/16/16 20/20/20
f 21/21/21 17/17/17 19/19/19
f 18/18/18 20/20/20 22/22/22
f 23/23/23 21/21/21 19/19/19
f 20/20/20 24/24/24 22/22/22
f 23/23/23 25/25/25 21/21/21
f 22/22/22 24/24/24 26/26/26
f 27/27/27 25/25/25 23/23/23
f 26/26/26 24/24/24 28/28/28
f 29/29/29 25/25/25 27/27/27
f 26/26/26 28/28/28 30/30/30
f 31/31/31 29/29/29 27/27/27
f 28/28/28 32/32/32 30/30/30
f 31/31/31 33/33/33 29/29/29
f 30/30/30 32/32/32 34/34/34
f 34/34/34 32/32/32 35/35/35
f 36/36/36 33/33/33 31/31/31
f 37/37/37 33/33/33 36/36/36
f 38/38/38 37/37/37 36/36/36
f 38/38/38 39/39/39 37/37/37
f 40/40/40 39/39/39 38/38/38
f 41/41/41 39/39/39 40/40/40
f 42/42/42 41/41/41 40/40/40
f 42/42/42 43/43/43 41/41/41
f 44/44/44 43/43/43 42/42/42
f 45/45/45 43/43/43 44/44/44
f 46/46/46 45/45/45 44/44/44
f 46/46/46 47/47/47 45/45/45
f 48/48/48 47/47/47 46/46/46
f 49/49/49 47/47/47 48/48/48
f 50/50/50 49/49/49 48/48/48
f 50/50/50 51/51/51 49/49/49
f 52/52/52 51/51/51 50/50/50
f 53/53/53 51/51/51 52/52/52
f 54/54/54 53/53/53 52/52/52
f 54/54/54 55/55/55 53/53/53
f 56/56/56 55/55/55 54/54/54
f 57/57/57 55/55/55 56/56/56
f 58/58/58 57/57/57 56/56/56
f 58/58/58 59/59/59 57/57/57
f 60/60/60 59/59/59 58/58/58
f 61/61/61 59/59/59 60/60/60
f 62/62/62 61/61/61 60/60/60
f 62/62/62 63/63/63 61/61/61
f 64/64/64 63/63/63 62/62/62
f 65/65/65 63/63/63 64/64/64
f 66/66/66 65/65/65 64/64/64
f 66/66/66 67/67/67 65/65/65
f 68/68/68 67/67/67 66/66/66
f 69/69/69 67/67/67 68/68/68
f 70/70/70 69/69/69 68/68/68
f 73/73/73 72/72/72 71/71/71
f 72/72/72 74/74/74 71/71/71
f 75/75/75 73/73/73 71/71/71
f 74/74/74 76/76/76 71/71/71
f 77/77/77 75/75/75 71/71/71
f 76/76/76 78/78/78 71/71/71
f 79/79/79 77/77/77 71/71/71
f 78/78/78 80/80/80 71/71/71
f 81/81/81 79/79/79 71/71/71
f 80/80/80 82/82/82 71/71/71
f 83/83/83 81/81/81 71/71/71
f 82/82/82 84/84/84 71/71/71
f 85/85/85 83/83/83 71/71/71
f 84/84/84 86/86/86 71/71/71
f 87/87/87 85/85/85 71/71/71
f 86/86/86 88/88/88 71/71/71
f 89/89/89 87/87/87 71/71/71
f 88/88/88 90/90/90 71/71/71
f 91/91/91 89/89/89 71/71/71
f 90/90/90 92/92/92 71/71/71
f 93/93/93 91/91/91 71/71/71
f 92/92/92 94/94/94 71/71/71
f 95/95/95 93/93/93 71/71/71
f 94/94/94 96/96/96 71/71/71
f 97/97/97 95/95/95 71/71/71
f 96/96/96 98/98/98 71/71/71
f 99/99/99 97/97/97 71/71/71
f 98/98/98 100/100/100 71/71/71
f 101/101/101 99/99/99 71/71/71
f 100/100/100 102/102/102 71/71/71
f 103/103/103 101/101/101 71/71/71
f 102/102/102 103/103/103 71/71/71
f 106/106/106 105/105/105 104/104/104
f 107/107/107 106/106/106 104/104/104
f 105/105/105 108/108/108 104/104/104
f 109/109/109 107/107/107 104/104/104
f 108/108/108 110/110/110 104/104/104
f 111/111/111 109/109/109 104/104/104
f 110/110/110 112/112/112 104/104/104
f 113/113/113 111/111/111 104/104/104
f 112/112/112 114/114/114 104/104/104
f 115/115/115 113/113/113 104/104/104
f 114/114/114 116/116/116 104/104/104
f 117/117/117 115/115/115 104/104/104
f 116/116/116 118/118/118 104/104/104
f 119/119/119 117/117/117 104/104/104
f 118/118/118 120/120/120 104/104/104
f 121/121/121 119/119/119 104/104/104
f 120/120/120 122/122/122 104/104/104
f 123/123/123 121/121/121 104/104/104
f 122/122/122 124/124/124 104/104/104
f 125/125/125 123/123/123 104/104/104
f 124/124/124 126/126/126 104/104/104
f 127/127/127 125/125/125 104/104/104
f 126/126/126 128/128/128 104/104/104
f 129/129/129 127/127/127 104/104/104
f 128/128/128 130/130/130 104/104/104
f 131/131/131 129/129/129 104/104/104
f 130/130/130 132/132/132 104/104/104
f 133/133/133 131/131/131 104/104/104
f 132/132/132 134/134/134 104/104/104
f 135/135/135 133/133/133 104/104/104
f 134/134/134 136/136/136 104/104/104
f 136/136/136 135/135/135 104/104/104
f 139/139/139 138/138/138 137/137/137
f 138/138/138 140/140/140 137/137/137
f 143/143/143 142/142/142 141/141/141
f 143/143/143 141/141/141 144/144/144
f 147/147/147 146/146/146 145/145/145
f 146/146/146 148/148/148 145/145/145
f 151/151/151 150/150/150 149/149/149
f 151/151/151 149/149/149 152/152/152
f 155/155/155 154/154/154 153/153/153
f 153/153/153 154/154/154 156/156/156
f 157/157/157 154/154/154 155/155/155
f 156/156/156 154/154/154 158/158/158
f 159/159/159 154/154/154 157/157/157
f 158/158/158 154/154/154 160/160/160
f 161/161/161 154/154/154 159/159/159
f 160/160/160 154/154/154 162/162/162
f 163/163/163 154/154/154 161/161/161
f 162/162/162 154/154/154 164/164/164
f 165/165/165 154/154/154 163/163/163
f 164/164/164 154/154/154 166/166/166
f 167/167/167 154/154/154 165/165/165
f 166/166/166 154/154/154 168/168/168
f 169/169/169 154/154/154 167/167/167
f 168/168/168 154/154/154 169/169/169
f 172/172/172 171/171/171 170/170/170
f 171/171/171 173/173/173 170/170/170
f 176/176/176 175/175/175 174/174/174
f 175/175/175 177/177/177 174/174/174
f 180/180/180 179/179/179 178/178/178
f 180/180/180 178/178/178 181/181/181
f 184/184/184 183/183/183 182/182/182
f 183/183/183 185/185/185 182/182/182
f 188/188/188 187/187/187 186/186/186
f 187/187/187 188/188/188 189/189/189
f 192/192/192 191/191/191 190/190/190
f 191/191/191 193/193/193 190/190/190
f 196/196/196 195/195/195 194/194/194
f 195/195/195 197/197/197 194/194/194
f 200/200/200 199/199/199 198/198/198
f 200/200/200 198/198/198 201/201/201
f 204/204/204 203/203/203 202/202/202
f 203/203/203 205/205/205 202/202/202
f 208/208/208 207/207/207 206/206/206
f 208/208/208 206/206/206 209/209/209
