# VPXTOOL table OBJ file
# VPXTOOL OBJ file
# numVerts: 82 numFaces: 72
o p08off
v -0.095033 -0.046662 -0.197868
v -0.069099 -0.046662 -0.224341
v -0.09323 -0.046662 -0.02457
v 0.063958 -0.046662 -0.225723
v 0.074018 -0.046662 -0.223819
v 0.082561 -0.046662 -0.218241
v 0.088341 -0.046662 -0.209799
v 0.090431 -0.046662 -0.199789
v 0.092217 -0.046662 -0.026475
v -0.090315 -0.046662 0.001178
v 0.033844 -0.046662 0.267242
v 0.023532 -0.046662 0.277672
v 0.039422 -0.046662 0.253693
v 0.010017 -0.046662 0.283385
v -0.004644 -0.046662 0.283537
v -0.018259 -0.046662 0.278094
v -0.028791 -0.046662 0.267899
v -0.034656 -0.046662 0.254452
v 0.089824 -0.046662 -0.000692
v -0.079109 -0.046662 -0.222235
v -0.093146 -0.046662 -0.207911
v -0.087552 -0.046662 -0.216472
v -0.034656 -0.046662 0.254452
v -0.028791 -0.007099 0.267899
v -0.034656 -0.007099 0.254452
v -0.028791 -0.046662 0.267899
v -0.018259 -0.007099 0.278094
v -0.018259 -0.046662 0.278094
v -0.004644 -0.007099 0.283537
v -0.004644 -0.046662 0.283537
v 0.010017 -0.007099 0.283385
v 0.010017 -0.046662 0.283385
v 0.023532 -0.007099 0.277672
v 0.023532 -0.046662 0.277672
v 0.033844 -0.007099 0.267242
v 0.033844 -0.046662 0.267242
v 0.039422 -0.007099 0.253693
v 0.039422 -0.046662 0.253693
v -0.090315 -0.046662 0.001178
v -0.090315 -0.007099 0.001178
v -0.09323 -0.046662 -0.02457
v -0.09323 -0.007099 -0.02457
v -0.095033 -0.046662 -0.197868
v -0.095033 -0.007099 -0.197868
v -0.069099 -0.046662 -0.224341
v -0.079109 -0.007099 -0.222235
v -0.069099 -0.007099 -0.224341
v -0.079109 -0.046662 -0.222235
v -0.087552 -0.007099 -0.216472
v -0.087552 -0.046662 -0.216472
v -0.093146 -0.007099 -0.207911
v -0.093146 -0.046662 -0.207911
v 0.063958 -0.007099 -0.225723
v 0.063958 -0.046662 -0.225723
v 0.090431 -0.046662 -0.199789
v 0.088341 -0.007099 -0.209799
v 0.090431 -0.007099 -0.199789
v 0.088341 -0.046662 -0.209799
v 0.082561 -0.007099 -0.218241
v 0.082561 -0.046662 -0.218241
v 0.074018 -0.007099 -0.223819
v 0.074018 -0.046662 -0.223819
v 0.092217 -0.007099 -0.026475
v 0.092217 -0.046662 -0.026475
v 0.089824 -0.046662 -0.000692
v 0.089824 -0.007099 -0.000692
v 0.029709 -0.092786 0.108892
v 0.029709 -0.106929 0.108892
v -0.026864 -0.092786 0.108892
v -0.026864 -0.106929 0.108892
v -0.026864 -0.092786 0.140614
v -0.026864 -0.106929 0.140614
v 0.029709 -0.092786 0.140614
v 0.029709 -0.106929 0.140614
v -0.014438 -0.092786 0.096467
v -0.014438 -0.106929 0.096467
v -0.014438 -0.092786 0.15304
v -0.014438 -0.106929 0.15304
v 0.017284 -0.092786 0.15304
v 0.017284 -0.106929 0.15304
v 0.017284 -0.092786 0.096467
v 0.017284 -0.106929 0.096467
vt 0.111698 0.83367401
vt 0.063777 0.73942202
vt 0.422189 0.82605797
vt 0.061281 0.25473797
vt 0.064708 0.21819401
vt 0.074841 0.18717802
vt 0.090127 0.16642201
vt 0.108228 0.159078
vt 0.418782 0.15756702
vt 0.467823 0.81535399
vt 0.932474 0.37311
vt 0.95041 0.4099
vt 0.909102 0.35304403
vt 0.960239 0.457888
vt 0.960501 0.50989902
vt 0.951154 0.558169
vt 0.93359 0.59547698
vt 0.910423 0.61622602
vt 0.464524 0.16693002
vt 0.06758 0.775855
vt 0.093525 0.82686299
vt 0.078029 0.806562
vt 0.910423 0.61622602
vt 0.903774 0.59820902
vt 0.881159 0.618446
vt 0.93359 0.59547698
vt 0.920919 0.56182098
vt 0.951154 0.558169
vt 0.930043 0.51474
vt 0.960501 0.50989902
vt 0.929789 0.46401298
vt 0.960239 0.457888
vt 0.920194 0.417211
vt 0.95041 0.4099
vt 0.902684 0.381334
vt 0.932474 0.37311
vt 0.879869 0.361767
vt 0.909102 0.35304403
vt 0.467823 0.81535399
vt 0.449261 0.812621
vt 0.422189 0.82605797
vt 0.404746 0.82305098
vt 0.111698 0.83367401
vt 0.101951 0.83044702
vt 0.063777 0.73942202
vt 0.058938 0.77408803
vt 0.05523 0.73857898
vt 0.06758 0.775855
vt 0.069125 0.80401999
vt 0.078029 0.806562
vt 0.084233 0.82380801
vt 0.093525 0.82686299
vt 0.052797 0.26616704
vt 0.061281 0.25473797
vt 0.108228 0.159078
vt 0.080921 0.18007803
vt 0.098567 0.17290998
vt 0.090127 0.16642201
vt 0.066017 0.20031297
vt 0.074841 0.18717802
vt 0.056139 0.230546
vt 0.064708 0.21819401
vt 0.401423 0.17131501
vt 0.418782 0.15756702
vt 0.464524 0.16693002
vt 0.446042 0.18042701
vt 0 0
vt 0 0
vt 0 0
vt 0 0
vt 0 0
vt 0 0
vt 0 0
vt 0 0
vt 0 0
vt 0 0
vt 0 0
vt 0 0
vt 0 0
vt 0 0
vt 0 0
vt 0 0
vn -0 1 0
vn -0 1 0
vn -0 1 0
vn -0 1 0
vn -0 1 0
vn -0 1 0
vn -0 1 0
vn -0 1 0
vn -0 1 0
vn -0 1 0
vn -0 1 0
vn -0 1 0
vn -0 1 0
vn -0 1 0
vn -0 1 0
vn -0 1 0
vn -0 1 0
vn -0 1 0
vn -0 1 0
vn -0 1 0
vn -0 1 0
vn -0 1 0
vn 0.9512 0 -0.3086
vn 0.8217 0 -0.5699
vn 0.9512 0 -0.3087
vn 0.8217 0 -0.5699
vn 0.5436 0 -0.8393
vn 0.5436 0 -0.8393
vn 0.1835 0 -0.983
vn 0.1834 0 -0.983
vn -0.2037 0 -0.979
vn -0.2037 0 -0.979
vn -0.5609 0 -0.8279
vn -0.5609 0 -0.8279
vn -0.8334 0 -0.5527
vn -0.8334 0 -0.5527
vn -0.9574 0 -0.2889
vn -0.9574 0 -0.2889
vn 0.9864 0 -0.1641
vn 0.9865 0 -0.1638
vn 0.9981 0 -0.0615
vn 0.9981 -0 -0.0619
vn 0.9962 0 0.0876
vn 0.9962 0 0.0876
vn 0.1087 -0 0.9941
vn 0.3924 -0 0.9198
vn 0.1087 -0 0.9941
vn 0.3924 -0 0.9198
vn 0.7142 -0 0.7
vn 0.7142 -0 0.7
vn 0.9278 -0 0.3731
vn 0.9278 -0 0.3731
vn -0.0882 -0 0.9961
vn -0.0882 -0 0.9961
vn -0.9942 0 0.1078
vn -0.9199 -0 0.3922
vn -0.9942 0 0.1078
vn -0.9199 -0 0.3922
vn -0.6996 -0 0.7145
vn -0.6996 -0 0.7145
vn -0.3735 -0 0.9277
vn -0.3732 -0 0.9278
vn -0.9992 0 -0.0411
vn -0.9992 0 -0.0411
vn -0.9896 0 -0.1436
vn -0.9896 0 -0.1436
vn 0 0 1
vn 0 0 1
vn 0 0 1
vn 0 0 1
vn 0 0 -1
vn 0 0 -1
vn 0 0 -1
vn 0 0 -1
vn 1 0 0
vn 1 0 0
vn 1 0 0
vn 1 0 0
vn -1 0 0
vn -1 0 0
vn -1 0 0
vn -1 0 0
f 69/69/69 68/68/68 67/67/67
f 70/70/70 68/68/68 69/69/69
f 3/3/3 2/2/2 1/1/1
f 2/2/2 20/20/20 1/1/1
f 20/20/20 21/21/21 1/1/1
f 20/20/20 22/22/22 21/21/21
f 3/3/3 4/4/4 2/2/2
f 3/3/3 5/5/5 4/4/4
f 3/3/3 6/6/6 5/5/5
f 3/3/3 7/7/7 6/6/6
f 3/3/3 8/8/8 7/7/7
f 3/3/3 9/9/9 8/8/8
f 3/3/3 10/10/10 9/9/9
f 9/9/9 10/10/10 18/18/18
f 19/19/19 9/9/9 18/18/18
f 13/13/13 19/19/19 18/18/18
f 13/13/13 18/18/18 17/17/17
f 13/13/13 17/17/17 16/16/16
f 13/13/13 16/16/16 15/15/15
f 13/13/13 15/15/15 14/14/14
f 13/13/13 14/14/14 12/12/12
f 13/13/13 12/12/12 11/11/11
f 25/25/25 24/24/24 23/23/23
f 24/24/24 26/26/26 23/23/23
f 25/25/25 23/23/23 39/39/39
f 24/24/24 27/27/27 26/26/26
f 40/40/40 25/25/25 39/39/39
f 27/27/27 28/28/28 26/26/26
f 39/39/39 41/41/41 40/40/40
f 27/27/27 29/29/29 28/28/28
f 41/41/41 42/42/42 40/40/40
f 29/29/29 30/30/30 28/28/28
f 42/42/42 41/41/41 43/43/43
f 29/29/29 31/31/31 30/30/30
f 44/44/44 42/42/42 43/43/43
f 31/31/31 32/32/32 30/30/30
f 44/44/44 43/43/43 52/52/52
f 31/31/31 33/33/33 32/32/32
f 51/51/51 44/44/44 52/52/52
f 33/33/33 34/34/34 32/32/32
f 51/51/51 52/52/52 50/50/50
f 33/33/33 35/35/35 34/34/34
f 49/49/49 51/51/51 50/50/50
f 35/35/35 36/36/36 34/34/34
f 49/49/49 50/50/50 48/48/48
f 35/35/35 37/37/37 36/36/36
f 46/46/46 49/49/49 48/48/48
f 37/37/37 38/38/38 36/36/36
f 46/46/46 48/48/48 45/45/45
f 65/65/65 38/38/38 37/37/37
f 47/47/47 46/46/46 45/45/45
f 66/66/66 65/65/65 37/37/37
f 47/47/47 45/45/45 53/53/53
f 65/65/65 66/66/66 63/63/63
f 45/45/45 54/54/54 53/53/53
f 64/64/64 65/65/65 63/63/63
f 53/53/53 54/54/54 62/62/62
f 55/55/55 64/64/64 63/63/63
f 61/61/61 53/53/53 62/62/62
f 57/57/57 55/55/55 63/63/63
f 61/61/61 62/62/62 60/60/60
f 57/57/57 56/56/56 55/55/55
f 59/59/59 61/61/61 60/60/60
f 56/56/56 58/58/58 55/55/55
f 59/59/59 60/60/60 58/58/58
f 56/56/56 59/59/59 58/58/58
f 73/73/73 72/72/72 71/71/71
f 74/74/74 72/72/72 73/73/73
f 77/77/77 76/76/76 75/75/75
f 78/78/78 76/76/76 77/77/77
f 81/81/81 80/80/80 79/79/79
f 82/82/82 80/80/80 81/81/81
