# VPXTOOL table OBJ file
# VPXTOOL OBJ file
# numVerts: 116 numFaces: 66
o p_L11_
v 0.040535 -0.050646 0.124752
v 0.077101 -0.050646 0.10612
v 0.077198 -0.00201 0.106253
v 0.040585 -0.00201 0.124908
v 0.077101 -0.050646 -0.10612
v 0.040534 -0.050646 -0.124752
v 0.040585 -0.00201 -0.124908
v 0.077198 -0.00201 -0.106253
v 0.077101 -0.050646 -0.10612
v 0.077198 -0.00201 -0.106253
v 0.106253 -0.00201 -0.077198
v 0.10612 -0.050646 -0.077101
v -0.131172 -0.050646 0
v -0.124752 -0.050646 0.040534
v -0.124908 -0.00201 0.040585
v -0.131336 -0.00201 0
v 0.077101 -0.050646 0.10612
v 0.106121 -0.050646 0.077101
v 0.106254 -0.00201 0.077197
v 0.077198 -0.00201 0.106253
v 0.040534 -0.050646 -0.124752
v 0 -0.050646 -0.131172
v 0 -0.00201 -0.131336
v 0.040585 -0.00201 -0.124908
v -0.124752 -0.050646 0.040534
v -0.10612 -0.050646 0.077101
v -0.106253 -0.00201 0.077198
v -0.124908 -0.00201 0.040585
v 0.106121 -0.050646 0.077101
v 0.124752 -0.050646 0.040534
v 0.124909 -0.00201 0.040585
v 0.106254 -0.00201 0.077197
v 0 -0.050646 -0.131172
v -0.040534 -0.050646 -0.124752
v -0.040585 -0.00201 -0.124908
v 0 -0.00201 -0.131336
v -0.10612 -0.050646 0.077101
v -0.077101 -0.050646 0.10612
v -0.077198 -0.00201 0.106253
v -0.106253 -0.00201 0.077198
v 0.124752 -0.050646 0.040534
v 0.131172 -0.050646 -0
v 0.131337 -0.00201 -0
v 0.124909 -0.00201 0.040585
v -0.040534 -0.050646 -0.124752
v -0.077101 -0.050646 -0.10612
v -0.077198 -0.00201 -0.106253
v -0.040585 -0.00201 -0.124908
v -0.077101 -0.050646 0.10612
v -0.040534 -0.050646 0.124752
v -0.040585 -0.00201 0.124908
v -0.077198 -0.00201 0.106253
v 0.131172 -0.050646 -0
v 0.124752 -0.050646 -0.040535
v 0.124908 -0.00201 -0.040585
v 0.131337 -0.00201 -0
v -0.077101 -0.050646 -0.10612
v -0.10612 -0.050646 -0.077101
v -0.106253 -0.00201 -0.077198
v -0.077198 -0.00201 -0.106253
v -0.040534 -0.050646 0.124752
v 0 -0.050646 0.131172
v 0 -0.00201 0.131336
v -0.040585 -0.00201 0.124908
v 0.124752 -0.050646 -0.040535
v 0.10612 -0.050646 -0.077101
v 0.106253 -0.00201 -0.077198
v 0.124908 -0.00201 -0.040585
v -0.10612 -0.050646 -0.077101
v -0.124752 -0.050646 -0.040534
v -0.124908 -0.00201 -0.040585
v -0.106253 -0.00201 -0.077198
v 0 -0.050646 0.131172
v 0.040535 -0.050646 0.124752
v 0.040585 -0.00201 0.124908
v 0 -0.00201 0.131336
v 0.10612 -0.050646 -0.077101
v 0.124752 -0.050646 -0.040535
v 0.131172 -0.050646 -0
v 0.124752 -0.050646 0.040534
v 0.106121 -0.050646 0.077101
v 0.077101 -0.050646 0.10612
v 0.040535 -0.050646 0.124752
v 0 -0.050646 0.131172
v -0.040534 -0.050646 0.124752
v -0.077101 -0.050646 0.10612
v -0.10612 -0.050646 0.077101
v -0.124752 -0.050646 0.040534
v -0.131172 -0.050646 0
v -0.124752 -0.050646 -0.040534
v -0.10612 -0.050646 -0.077101
v -0.077101 -0.050646 -0.10612
v -0.040534 -0.050646 -0.124752
v 0 -0.050646 -0.131172
v 0.040534 -0.050646 -0.124752
v 0.077101 -0.050646 -0.10612
v -0.131172 -0.050646 0
v -0.131336 -0.00201 0
v -0.124908 -0.00201 -0.040585
v -0.124752 -0.050646 -0.040534
v -0.054779 -0.078205 0.053631
v -0.054779 -0.078205 0.01799
v -0.054779 -0.090126 0.01799
v -0.054779 -0.090126 0.053631
v -0.054779 -0.078205 0.01799
v -0.019138 -0.078205 0.01799
v -0.019138 -0.090126 0.01799
v -0.054779 -0.090126 0.01799
v -0.019138 -0.078205 0.01799
v -0.019138 -0.078205 0.053631
v -0.019138 -0.090126 0.053631
v -0.019138 -0.090126 0.01799
v -0.019138 -0.078205 0.053631
v -0.054779 -0.078205 0.053631
v -0.054779 -0.090126 0.053631
v -0.019138 -0.090126 0.053631
vt 0.643589 0.058081985
vt 0.773121 0.12408197
vt 0.790457 0.10022199
vt 0.652702 0.030032992
vt 0.773121 0.87591797
vt 0.643588 0.941918015
vt 0.652702 0.969967008
vt 0.790456 0.89977801
vt 0.773121 0.87591797
vt 0.790456 0.89977801
vt 0.899778 0.79045701
vt 0.875918 0.773121
vt 0.035339 0.5
vt 0.058081 0.356412
vt 0.030032 0.34729803
vt 0.005847 0.5
vt 0.773121 0.12408197
vt 0.875919 0.22688001
vt 0.899779 0.20954502
vt 0.790457 0.10022199
vt 0.643588 0.941918015
vt 0.5 0.96465999
vt 0.5 0.9941530228
vt 0.652702 0.969967008
vt 0.058081 0.356412
vt 0.124082 0.226879
vt 0.100222 0.209544
vt 0.030032 0.34729803
vt 0.875919 0.22688001
vt 0.941919 0.356413
vt 0.969968 0.34729898
vt 0.899779 0.20954502
vt 0.5 0.96465999
vt 0.356412 0.941918015
vt 0.347298 0.969967008
vt 0.5 0.9941530228
vt 0.124082 0.226879
vt 0.22688 0.12408197
vt 0.209544 0.10022199
vt 0.100222 0.209544
vt 0.941919 0.356413
vt 0.964661 0.500001
vt 0.994154 0.500001
vt 0.969968 0.34729898
vt 0.356412 0.941918015
vt 0.226879 0.87591797
vt 0.209544 0.89977801
vt 0.347298 0.969967008
vt 0.22688 0.12408197
vt 0.356412 0.058081985
vt 0.347299 0.03003198
vt 0.209544 0.10022199
vt 0.964661 0.500001
vt 0.941918 0.64358902
vt 0.969968 0.652703
vt 0.994154 0.500001
vt 0.226879 0.87591797
vt 0.124081 0.773121
vt 0.100221 0.790456
vt 0.209544 0.89977801
vt 0.356412 0.058081985
vt 0.500001 0.03534001
vt 0.500001 0.0058469772
vt 0.347299 0.03003198
vt 0.941918 0.64358902
vt 0.875918 0.773121
vt 0.899778 0.79045701
vt 0.969968 0.652703
vt 0.124081 0.773121
vt 0.058081 0.643588
vt 0.030032 0.65270102
vt 0.100221 0.790456
vt 0.500001 0.03534001
vt 0.643589 0.058081985
vt 0.652702 0.030032992
vt 0.500001 0.0058469772
vt 0.875918 0.773121
vt 0.941918 0.64358902
vt 0.964661 0.500001
vt 0.941919 0.356413
vt 0.875919 0.22688001
vt 0.773121 0.12408197
vt 0.643589 0.058081985
vt 0.500001 0.03534001
vt 0.356412 0.058081985
vt 0.22688 0.12408197
vt 0.124082 0.226879
vt 0.058081 0.356412
vt 0.035339 0.5
vt 0.058081 0.643588
vt 0.124081 0.773121
vt 0.226879 0.87591797
vt 0.356412 0.941918015
vt 0.5 0.96465999
vt 0.643588 0.941918015
vt 0.773121 0.87591797
vt 0.035339 0.5
vt 0.005847 0.5
vt 0.030032 0.65270102
vt 0.058081 0.643588
vt 0 0
vt 0 0
vt 0 0
vt 0 0
vt 0 0
vt 0 0
vt 0 0
vt 0 0
vt 0 0
vt 0 0
vt 0 0
vt 0 0
vt 0 0
vt 0 0
vt 0 0
vt 0 0
vn -0.454 0.0033 -0.891
vn -0.454 0.0033 -0.891
vn -0.454 0.0033 -0.891
vn -0.454 0.0033 -0.891
vn -0.454 0.0033 0.891
vn -0.454 0.0033 0.891
vn -0.454 0.0033 0.891
vn -0.454 0.0033 0.891
vn -0.7071 0.0033 0.7071
vn -0.7071 0.0033 0.7071
vn -0.7071 0.0033 0.7071
vn -0.7071 0.0033 0.7071
vn 0.9877 0.0033 -0.1564
vn 0.9877 0.0033 -0.1564
vn 0.9877 0.0033 -0.1564
vn 0.9877 0.0033 -0.1564
vn -0.7071 0.0033 -0.7071
vn -0.7071 0.0033 -0.7071
vn -0.7071 0.0033 -0.7071
vn -0.7071 0.0033 -0.7071
vn -0.1564 0.0033 0.9877
vn -0.1564 0.0033 0.9877
vn -0.1564 0.0033 0.9877
vn -0.1564 0.0033 0.9877
vn 0.891 0.0033 -0.454
vn 0.891 0.0033 -0.454
vn 0.891 0.0033 -0.454
vn 0.891 0.0033 -0.454
vn -0.891 0.0033 -0.454
vn -0.891 0.0033 -0.454
vn -0.891 0.0033 -0.454
vn -0.891 0.0033 -0.454
vn 0.1564 0.0033 0.9877
vn 0.1564 0.0033 0.9877
vn 0.1564 0.0033 0.9877
vn 0.1564 0.0033 0.9877
vn 0.7071 0.0033 -0.7071
vn 0.7071 0.0033 -0.7071
vn 0.7071 0.0033 -0.7071
vn 0.7071 0.0033 -0.7071
vn -0.9877 0.0033 -0.1564
vn -0.9877 0.0033 -0.1564
vn -0.9877 0.0033 -0.1564
vn -0.9877 0.0033 -0.1564
vn 0.454 0.0033 0.891
vn 0.454 0.0033 0.891
vn 0.454 0.0033 0.891
vn 0.454 0.0033 0.891
vn 0.454 0.0033 -0.891
vn 0.454 0.0033 -0.891
vn 0.454 0.0033 -0.891
vn 0.454 0.0033 -0.891
vn -0.9877 0.0033 0.1564
vn -0.9877 0.0033 0.1564
vn -0.9877 0.0033 0.1564
vn -0.9877 0.0033 0.1564
vn 0.7071 0.0033 0.7071
vn 0.7071 0.0033 0.7071
vn 0.7071 0.0033 0.7071
vn 0.7071 0.0033 0.7071
vn 0.1564 0.0033 -0.9877
vn 0.1564 0.0033 -0.9877
vn 0.1564 0.0033 -0.9877
vn 0.1564 0.0033 -0.9877
vn -0.891 0.0033 0.454
vn -0.891 0.0033 0.454
vn -0.891 0.0033 0.454
vn -0.891 0.0033 0.454
vn 0.891 0.0033 0.454
vn 0.891 0.0033 0.454
vn 0.891 0.0033 0.454
vn 0.891 0.0033 0.454
vn -0.1564 0.0033 -0.9877
vn -0.1564 0.0033 -0.9877
vn -0.1564 0.0033 -0.9877
vn -0.1564 0.0033 -0.9877
vn 0 1 -0
vn 0 1 -0
vn 0 1 -0
vn 0 1 -0
vn 0 1 -0
vn 0 1 -0
vn 0 1 -0
vn 0 1 -0
vn 0 1 -0
vn 0 1 -0
vn 0 1 -0
vn 0 1 -0
vn 0 1 -0
vn 0 1 -0
vn 0 1 -0
vn 0 1 -0
vn 0 1 -0
vn 0 1 -0
vn 0 1 -0
vn 0 1 -0
vn 0.9877 0.0033 0.1564
vn 0.9877 0.0033 0.1564
vn 0.9877 0.0033 0.1564
vn 0.9877 0.0033 0.1564
vn 1 -0 -0
vn 1 -0 -0
vn 1 -0 -0
vn 1 -0 -0
vn 0 0 1
vn 0 0 1
vn 0 0 1
vn 0 0 1
vn -1 -0 0
vn -1 -0 0
vn -1 -0 0
vn -1 -0 0
vn -0 0 -1
vn -0 0 -1
vn -0 0 -1
vn -0 0 -1
f 3/3/3 2/2/2 1/1/1
f 4/4/4 3/3/3 1/1/1
f 7/7/7 6/6/6 5/5/5
f 8/8/8 7/7/7 5/5/5
f 11/11/11 10/10/10 9/9/9
f 12/12/12 11/11/11 9/9/9
f 15/15/15 14/14/14 13/13/13
f 16/16/16 15/15/15 13/13/13
f 19/19/19 18/18/18 17/17/17
f 20/20/20 19/19/19 17/17/17
f 23/23/23 22/22/22 21/21/21
f 24/24/24 23/23/23 21/21/21
f 27/27/27 26/26/26 25/25/25
f 28/28/28 27/27/27 25/25/25
f 31/31/31 30/30/30 29/29/29
f 32/32/32 31/31/31 29/29/29
f 35/35/35 34/34/34 33/33/33
f 36/36/36 35/35/35 33/33/33
f 39/39/39 38/38/38 37/37/37
f 40/40/40 39/39/39 37/37/37
f 43/43/43 42/42/42 41/41/41
f 44/44/44 43/43/43 41/41/41
f 47/47/47 46/46/46 45/45/45
f 48/48/48 47/47/47 45/45/45
f 51/51/51 50/50/50 49/49/49
f 52/52/52 51/51/51 49/49/49
f 55/55/55 54/54/54 53/53/53
f 56/56/56 55/55/55 53/53/53
f 59/59/59 58/58/58 57/57/57
f 60/60/60 59/59/59 57/57/57
f 63/63/63 62/62/62 61/61/61
f 64/64/64 63/63/63 61/61/61
f 67/67/67 66/66/66 65/65/65
f 68/68/68 67/67/67 65/65/65
f 71/71/71 70/70/70 69/69/69
f 72/72/72 71/71/71 69/69/69
f 75/75/75 74/74/74 73/73/73
f 76/76/76 75/75/75 73/73/73
f 79/79/79 78/78/78 77/77/77
f 80/80/80 79/79/79 77/77/77
f 81/81/81 80/80/80 77/77/77
f 82/82/82 81/81/81 77/77/77
f 83/83/83 82/82/82 77/77/77
f 84/84/84 83/83/83 77/77/77
f 85/85/85 84/84/84 77/77/77
f 86/86/86 85/85/85 77/77/77
f 87/87/87 86/86/86 77/77/77
f 88/88/88 87/87/87 77/77/77
f 89/89/89 88/88/88 77/77/77
f 90/90/90 89/89/89 77/77/77
f 91/91/91 90/90/90 77/77/77
f 92/92/92 91/91/91 77/77/77
f 93/93/93 92/92/92 77/77/77
f 94/94/94 93/93/93 77/77/77
f 95/95/95 94/94/94 77/77/77
f 96/96/96 95/95/95 77/77/77
f 99/99/99 98/98/98 97/97/97
f 100/100/100 99/99/99 97/97/97
f 103/103/103 102/102/102 101/101/101
f 104/104/104 103/103/103 101/101/101
f 107/107/107 106/106/106 105/105/105
f 108/108/108 107/107/107 105/105/105
f 111/111/111 110/110/110 109/109/109
f 112/112/112 111/111/111 109/109/109
f 115/115/115 114/114/114 113/113/113
f 116/116/116 115/115/115 113/113/113
