# VPXTOOL table OBJ file
# VPXTOOL OBJ file
# numVerts: 116 numFaces: 66
o p14off
v -0.019138 -0.090126 0.025918
v -0.019138 -0.078205 0.025918
v -0.054779 -0.078205 0.025918
v -0.054779 -0.090126 0.025918
v -0.054779 -0.090126 0.045903
v -0.054779 -0.078205 0.045903
v -0.019138 -0.078205 0.045903
v -0.019138 -0.090126 0.045903
v -0.046951 -0.090126 0.01809
v -0.046951 -0.078205 0.01809
v -0.046951 -0.078205 0.053731
v -0.046951 -0.090126 0.053731
v -0.026966 -0.090126 0.053731
v -0.026966 -0.078205 0.053731
v -0.026966 -0.078205 0.01809
v -0.026966 -0.090126 0.01809
v 0.040391 -0.049851 0.124309
v 0.076828 -0.049851 0.105744
v 0.076828 -0.00201 0.105744
v 0.040391 -0.00201 0.124309
v 0.076827 -0.049851 -0.105744
v 0.040391 -0.049851 -0.124309
v 0.040391 -0.00201 -0.124309
v 0.076827 -0.00201 -0.105744
v 0.076827 -0.049851 -0.105744
v 0.076827 -0.00201 -0.105744
v 0.105744 -0.00201 -0.076828
v 0.105744 -0.049851 -0.076828
v -0.130706 -0.049851 0
v -0.124309 -0.049851 0.040391
v -0.124309 -0.00201 0.040391
v -0.130706 -0.00201 0
v 0.076828 -0.049851 0.105744
v 0.105744 -0.049851 0.076827
v 0.105744 -0.00201 0.076827
v 0.076828 -0.00201 0.105744
v 0.040391 -0.049851 -0.124309
v 0 -0.049851 -0.130706
v 0 -0.00201 -0.130706
v 0.040391 -0.00201 -0.124309
v -0.124309 -0.049851 0.040391
v -0.105744 -0.049851 0.076827
v -0.105744 -0.00201 0.076827
v -0.124309 -0.00201 0.040391
v 0.105744 -0.049851 0.076827
v 0.124309 -0.049851 0.04039
v 0.124309 -0.00201 0.04039
v 0.105744 -0.00201 0.076827
v 0 -0.049851 -0.130706
v -0.040391 -0.049851 -0.124309
v -0.040391 -0.00201 -0.124309
v 0 -0.00201 -0.130706
v -0.105744 -0.049851 0.076827
v -0.076827 -0.049851 0.105744
v -0.076827 -0.00201 0.105744
v -0.105744 -0.00201 0.076827
v 0.124309 -0.049851 0.04039
v 0.130707 -0.049851 -0
v 0.130707 -0.00201 -0
v 0.124309 -0.00201 0.04039
v -0.040391 -0.049851 -0.124309
v -0.076827 -0.049851 -0.105744
v -0.076827 -0.00201 -0.105744
v -0.040391 -0.00201 -0.124309
v -0.076827 -0.049851 0.105744
v -0.04039 -0.049851 0.124309
v -0.04039 -0.00201 0.124309
v -0.076827 -0.00201 0.105744
v 0.130707 -0.049851 -0
v 0.124309 -0.049851 -0.040391
v 0.124309 -0.00201 -0.040391
v 0.130707 -0.00201 -0
v -0.076827 -0.049851 -0.105744
v -0.105744 -0.049851 -0.076827
v -0.105744 -0.00201 -0.076827
v -0.076827 -0.00201 -0.105744
v -0.04039 -0.049851 0.124309
v 0 -0.049851 0.130706
v 0 -0.00201 0.130706
v -0.04039 -0.00201 0.124309
v 0.124309 -0.049851 -0.040391
v 0.105744 -0.049851 -0.076828
v 0.105744 -0.00201 -0.076828
v 0.124309 -0.00201 -0.040391
v -0.105744 -0.049851 -0.076827
v -0.124309 -0.049851 -0.04039
v -0.124309 -0.00201 -0.04039
v -0.105744 -0.00201 -0.076827
v 0 -0.049851 0.130706
v 0.040391 -0.049851 0.124309
v 0.040391 -0.00201 0.124309
v 0 -0.00201 0.130706
v 0.105744 -0.049851 -0.076828
v 0.124309 -0.049851 -0.040391
v 0.130707 -0.049851 -0
v 0.124309 -0.049851 0.04039
v 0.105744 -0.049851 0.076827
v 0.076828 -0.049851 0.105744
v 0.040391 -0.049851 0.124309
v 0 -0.049851 0.130706
v -0.04039 -0.049851 0.124309
v -0.076827 -0.049851 0.105744
v -0.105744 -0.049851 0.076827
v -0.124309 -0.049851 0.040391
v -0.130706 -0.049851 0
v -0.124309 -0.049851 -0.04039
v -0.105744 -0.049851 -0.076827
v -0.076827 -0.049851 -0.105744
v -0.040391 -0.049851 -0.124309
v 0 -0.049851 -0.130706
v 0.040391 -0.049851 -0.124309
v 0.076827 -0.049851 -0.105744
v -0.130706 -0.049851 0
v -0.130706 -0.00201 0
v -0.124309 -0.00201 -0.04039
v -0.124309 -0.049851 -0.04039
vt 0 0
vt 0 0
vt 0 0
vt 0 0
vt 0 0
vt 0 0
vt 0 0
vt 0 0
vt 0 0
vt 0 0
vt 0 0
vt 0 0
vt 0 0
vt 0 0
vt 0 0
vt 0 0
vt 0.643321 0.05890602
vt 0.772612 0.12478298
vt 0.789063 0.10214001
vt 0.65197 0.032287
vt 0.772612 0.87521702
vt 0.64332 0.94109398
vt 0.651969 0.967713
vt 0.789063 0.897861004
vt 0.772612 0.87521702
vt 0.789063 0.897861004
vt 0.89786 0.78906298
vt 0.875217 0.77261198
vt 0.036206 0.5
vt 0.058905 0.35667896
vt 0.032287 0.34803104
vt 0.008217 0.5
vt 0.772612 0.12478298
vt 0.875218 0.22738898
vt 0.897861 0.21093798
vt 0.789063 0.10214001
vt 0.64332 0.94109398
vt 0.5 0.963793993
vt 0.5 0.991783023
vt 0.651969 0.967713
vt 0.058905 0.35667896
vt 0.124783 0.22738802
vt 0.102139 0.21093702
vt 0.032287 0.34803104
vt 0.875218 0.22738898
vt 0.941095 0.356681
vt 0.967714 0.348032
vt 0.897861 0.21093798
vt 0.5 0.963793993
vt 0.35668 0.94109398
vt 0.348031 0.967713
vt 0.5 0.991783023
vt 0.124783 0.22738802
vt 0.227389 0.12478298
vt 0.210938 0.102138996
vt 0.102139 0.21093702
vt 0.941095 0.356681
vt 0.963795 0.500001
vt 0.991783 0.500001
vt 0.967714 0.348032
vt 0.35668 0.94109398
vt 0.227388 0.87521702
vt 0.210937 0.897861004
vt 0.348031 0.967713
vt 0.227389 0.12478298
vt 0.35668 0.05890602
vt 0.348031 0.032287
vt 0.210938 0.102138996
vt 0.963795 0.500001
vt 0.941095 0.64332098
vt 0.967713 0.65197003
vt 0.991783 0.500001
vt 0.227388 0.87521702
vt 0.124782 0.77261102
vt 0.102139 0.78906202
vt 0.210937 0.897861004
vt 0.35668 0.05890602
vt 0.500001 0.036206007
vt 0.500001 0.008216977
vt 0.348031 0.032287
vt 0.941095 0.64332098
vt 0.875217 0.77261198
vt 0.89786 0.78906298
vt 0.967713 0.65197003
vt 0.124782 0.77261102
vt 0.058905 0.64332002
vt 0.032286 0.65196902
vt 0.102139 0.78906202
vt 0.500001 0.036206007
vt 0.643321 0.05890602
vt 0.65197 0.032287
vt 0.500001 0.008216977
vt 0.875217 0.77261198
vt 0.941095 0.64332098
vt 0.963795 0.500001
vt 0.941095 0.356681
vt 0.875218 0.22738898
vt 0.772612 0.12478298
vt 0.643321 0.05890602
vt 0.500001 0.036206007
vt 0.35668 0.05890602
vt 0.227389 0.12478298
vt 0.124783 0.22738802
vt 0.058905 0.35667896
vt 0.036206 0.5
vt 0.058905 0.64332002
vt 0.124782 0.77261102
vt 0.227388 0.87521702
vt 0.35668 0.94109398
vt 0.5 0.963793993
vt 0.64332 0.94109398
vt 0.772612 0.87521702
vt 0.036206 0.5
vt 0.008217 0.5
vt 0.032286 0.65196902
vt 0.058905 0.64332002
vn -0 -0 -1
vn -0 -0 -1
vn -0 -0 -1
vn -0 -0 -1
vn 0 0 1
vn 0 0 1
vn 0 0 1
vn 0 0 1
vn -1 -0 0
vn -1 -0 0
vn -1 -0 0
vn -1 -0 0
vn 1 0 0
vn 1 0 0
vn 1 0 0
vn 1 0 0
vn -0.454 0 -0.891
vn -0.454 0 -0.891
vn -0.454 0 -0.891
vn -0.454 0 -0.891
vn -0.454 0 0.891
vn -0.454 0 0.891
vn -0.454 0 0.891
vn -0.454 0 0.891
vn -0.7071 0 0.7071
vn -0.7071 0 0.7071
vn -0.7071 0 0.7071
vn -0.7071 0 0.7071
vn 0.9877 0 -0.1564
vn 0.9877 0 -0.1564
vn 0.9877 0 -0.1564
vn 0.9877 0 -0.1564
vn -0.7071 0 -0.7071
vn -0.7071 0 -0.7071
vn -0.7071 0 -0.7071
vn -0.7071 0 -0.7071
vn -0.1564 0 0.9877
vn -0.1564 0 0.9877
vn -0.1564 0 0.9877
vn -0.1564 0 0.9877
vn 0.891 0 -0.454
vn 0.891 0 -0.454
vn 0.891 0 -0.454
vn 0.891 0 -0.454
vn -0.891 0 -0.454
vn -0.891 0 -0.454
vn -0.891 0 -0.454
vn -0.891 0 -0.454
vn 0.1564 0 0.9877
vn 0.1564 0 0.9877
vn 0.1564 0 0.9877
vn 0.1564 0 0.9877
vn 0.7071 0 -0.7071
vn 0.7071 0 -0.7071
vn 0.7071 0 -0.7071
vn 0.7071 0 -0.7071
vn -0.9877 0 -0.1564
vn -0.9877 0 -0.1564
vn -0.9877 0 -0.1564
vn -0.9877 0 -0.1564
vn 0.454 0 0.891
vn 0.454 0 0.891
vn 0.454 0 0.891
vn 0.454 0 0.891
vn 0.454 0 -0.891
vn 0.454 0 -0.891
vn 0.454 0 -0.891
vn 0.454 0 -0.891
vn -0.9877 0 0.1564
vn -0.9877 0 0.1564
vn -0.9877 0 0.1564
vn -0.9877 0 0.1564
vn 0.7071 0 0.7071
vn 0.7071 0 0.7071
vn 0.7071 0 0.7071
vn 0.7071 0 0.7071
vn 0.1564 0 -0.9877
vn 0.1564 0 -0.9877
vn 0.1564 0 -0.9877
vn 0.1564 0 -0.9877
vn -0.891 0 0.454
vn -0.891 0 0.454
vn -0.891 0 0.454
vn -0.891 0 0.454
vn 0.891 0 0.454
vn 0.891 0 0.454
vn 0.891 0 0.454
vn 0.891 0 0.454
vn -0.1564 0 -0.9877
vn -0.1564 0 -0.9877
vn -0.1564 0 -0.9877
vn -0.1564 0 -0.9877
vn 0 1 0
vn 0 1 0
vn 0 1 0
vn 0 1 0
vn 0 1 0
vn 0 1 0
vn 0 1 0
vn 0 1 0
vn 0 1 0
vn 0 1 0
vn 0 1 0
vn 0 1 0
vn 0 1 0
vn 0 1 0
vn 0 1 0
vn 0 1 0
vn 0 1 0
vn 0 1 0
vn 0 1 0
vn 0 1 0
vn 0.9877 0 0.1564
vn 0.9877 0 0.1564
vn 0.9877 0 0.1564
vn 0.9877 0 0.1564
f 3/3/3 2/2/2 1/1/1
f 4/4/4 3/3/3 1/1/1
f 7/7/7 6/6/6 5/5/5
f 8/8/8 7/7/7 5/5/5
f 11/11/11 10/10/10 9/9/9
f 12/12/12 11/11/11 9/9/9
f 15/15/15 14/14/14 13/13/13
f 16/16/16 15/15/15 13/13/13
f 19/19/19 18/18/18 17/17/17
f 20/20/20 19/19/19 17/17/17
f 23/23/23 22/22/22 21/21/21
f 24/24/24 23/23/23 21/21/21
f 27/27/27 26/26/26 25/25/25
f 28/28/28 27/27/27 25/25/25
f 31/31/31 30/30/30 29/29/29
f 32/32/32 31/31/31 29/29/29
f 35/35/35 34/34/34 33/33/33
f 36/36/36 35/35/35 33/33/33
f 39/39/39 38/38/38 37/37/37
f 40/40/40 39/39/39 37/37/37
f 43/43/43 42/42/42 41/41/41
f 44/44/44 43/43/43 41/41/41
f 47/47/47 46/46/46 45/45/45
f 48/48/48 47/47/47 45/45/45
f 51/51/51 50/50/50 49/49/49
f 52/52/52 51/51/51 49/49/49
f 55/55/55 54/54/54 53/53/53
f 56/56/56 55/55/55 53/53/53
f 59/59/59 58/58/58 57/57/57
f 60/60/60 59/59/59 57/57/57
f 63/63/63 62/62/62 61/61/61
f 64/64/64 63/63/63 61/61/61
f 67/67/67 66/66/66 65/65/65
f 68/68/68 67/67/67 65/65/65
f 71/71/71 70/70/70 69/69/69
f 72/72/72 71/71/71 69/69/69
f 75/75/75 74/74/74 73/73/73
f 76/76/76 75/75/75 73/73/73
f 79/79/79 78/78/78 77/77/77
f 80/80/80 79/79/79 77/77/77
f 83/83/83 82/82/82 81/81/81
f 84/84/84 83/83/83 81/81/81
f 87/87/87 86/86/86 85/85/85
f 88/88/88 87/87/87 85/85/85
f 91/91/91 90/90/90 89/89/89
f 92/92/92 91/91/91 89/89/89
f 95/95/95 94/94/94 93/93/93
f 96/96/96 95/95/95 93/93/93
f 97/97/97 96/96/96 93/93/93
f 98/98/98 97/97/97 93/93/93
f 99/99/99 98/98/98 93/93/93
f 100/100/100 99/99/99 93/93/93
f 101/101/101 100/100/100 93/93/93
f 102/102/102 101/101/101 93/93/93
f 103/103/103 102/102/102 93/93/93
f 104/104/104 103/103/103 93/93/93
f 105/105/105 104/104/104 93/93/93
f 106/106/106 105/105/105 93/93/93
f 107/107/107 106/106/106 93/93/93
f 108/108/108 107/107/107 93/93/93
f 109/109/109 108/108/108 93/93/93
f 110/110/110 109/109/109 93/93/93
f 111/111/111 110/110/110 93/93/93
f 112/112/112 111/111/111 93/93/93
f 115/115/115 114/114/114 113/113/113
f 116/116/116 115/115/115 113/113/113
