# VPXTOOL table OBJ file
# VPXTOOL OBJ file
# numVerts: 40 numFaces: 20
o pDT1
v 22.99997 5.500006 1.181185
v 22.999962 5.499994 76.68117
v -23.000038 5.499994 76.68117
v -23.00003 5.500006 1.181173
v -24 -5.499994 0.181166
v -24.000008 -5.500006 76.68117
v 23.999962 -5.500006 76.68117
v 23.99997 -5.499994 0.18117
v -24 4.500006 0.181173
v -24.000008 4.499994 76.68117
v -24.000008 -5.500006 76.68117
v -24 -5.499994 0.181166
v 23.99997 4.500006 0.181177
v -24 4.500006 0.181173
v -24 -5.499994 0.181166
v 23.99997 -5.499994 0.18117
v 22.999962 5.499994 76.68117
v -24.000008 4.499994 76.68117
v -23.000038 5.499994 76.68117
v 23.999962 4.499994 76.68117
v -24.000008 -5.500006 76.68117
v -24.000008 4.499994 76.68117
v 23.999962 4.499994 76.68117
v 23.999962 -5.500006 76.68117
v 23.99997 -5.499994 0.18117
v 23.999962 -5.500006 76.68117
v 23.999962 4.499994 76.68117
v 23.99997 4.500006 0.181177
v 22.99997 5.500006 1.181185
v 23.99997 4.500006 0.181177
v 23.999962 4.499994 76.68117
v 22.999962 5.499994 76.68117
v 22.99997 5.500006 1.181185
v -24 4.500006 0.181173
v 23.99997 4.500006 0.181177
v -23.00003 5.500006 1.181173
v -23.00003 5.500006 1.181173
v -23.000038 5.499994 76.68117
v -24.000008 4.499994 76.68117
v -24 4.500006 0.181173
vt 0.8125 0.76037902
vt 0.8125 0.004643023
vt 0.029145 0.004643023
vt 0.029145 0.76037902
vt 0.009416 0.994930029
vt 0.831784 0.994835019
vt 0.829132 0.77601802
vt 0.006764 0.77611202
vt 0.985652 0.76062799
vt 0.981758 0.116983
vt 0.847447 0.11794603
vt 0.851339 0.76159102
vt 0.850837 0.992408991
vt 0.850731 0.774961
vt 0.987654 0.77609402
vt 0.98776 0.9935420156
vt 0.2805 0.13917899
vt 0.041564 0.13389301
vt 0.046648 0.13917899
vt 0.285583 0.13389301
vt 0.986773 0.77558202
vt 0.847842 0.77549398
vt 0.84939 0.994183004
vt 0.988321 0.9942709804
vt 0.993918 0.76313001
vt 0.991429 0.11110103
vt 0.845576 0.11164999
vt 0.848065 0.76367903
vt 0.819805 0.762891
vt 0.835152 0.76431698
vt 0.8357 0.0036630034
vt 0.820474 0.0039330125
vt 0.016326 0.759754
vt 0.828804 0.76737201
vt 0.013501 0.76737201
vt 0.825978 0.759754
vt 0.025252 0.76450998
vt 0.022524 0.0045019984
vt 0.007291 0.004583001
vt 0.010055 0.76628798
vn -0 1 0
vn -0 1 0
vn -0 1 0
vn -0 1 0
vn 0 -1 -0
vn 0 -1 -0
vn 0 -1 -0
vn 0 -1 -0
vn -1 0 -0
vn -1 0 -0
vn -1 0 -0
vn -1 0 -0
vn 0 0 -1
vn 0 0 -1
vn 0 0 -1
vn 0 0 -1
vn 0 0 1
vn 0 0 1
vn 0 0 1
vn 0 0 1
vn 0 0 1
vn 0 0 1
vn 0 0 1
vn 0 0 1
vn 1 0 0
vn 1 0 0
vn 1 0 0
vn 1 0 0
vn 0.7071 0.7071 0
vn 0.7071 0.7071 0
vn 0.7071 0.7071 0
vn 0.7071 0.7071 0
vn 0 0.7071 -0.7071
vn 0 0.7071 -0.7071
vn 0 0.7071 -0.7071
vn 0 0.7071 -0.7071
vn -0.7071 0.7071 0
vn -0.7071 0.7071 0
vn -0.7071 0.7071 0
vn -0.7071 0.7071 0
f 3/3/3 2/2/2 1/1/1
f 4/4/4 3/3/3 1/1/1
f 7/7/7 6/6/6 5/5/5
f 8/8/8 7/7/7 5/5/5
f 11/11/11 10/10/10 9/9/9
f 12/12/12 11/11/11 9/9/9
f 15/15/15 14/14/14 13/13/13
f 16/16/16 15/15/15 13/13/13
f 19/19/19 18/18/18 17/17/17
f 17/17/17 18/18/18 20/20/20
f 23/23/23 22/22/22 21/21/21
f 24/24/24 23/23/23 21/21/21
f 27/27/27 26/26/26 25/25/25
f 28/28/28 27/27/27 25/25/25
f 31/31/31 30/30/30 29/29/29
f 32/32/32 31/31/31 29/29/29
f 35/35/35 34/34/34 33/33/33
f 33/33/33 34/34/34 36/36/36
f 39/39/39 38/38/38 37/37/37
f 40/40/40 39/39/39 37/37/37
